<?xml version="1.0" encoding="iso-8859-1"?>
<!-- Generator: Adobe Illustrator 19.0.0, SVG Export Plug-In . SVG Version: 6.00 Build 0)  -->
<svg version="1.2" baseProfile="tiny" id="Layer_1" xmlns="http://www.w3.org/2000/svg" xmlns:xlink="http://www.w3.org/1999/xlink"
	 x="0px" y="0px" viewBox="-247 372.89 100 96" xml:space="preserve">
<title>face_00080</title>
<path d="M-154.784,373.398c-0.063,0.063-6.43,0.188-14.17,0.25c-7.678,0.062-14.67,0.312-15.543,0.562
	c-1.56,0.374-1.56,0.5-1.374,5.805c0.188,5.993,0.313,5.805-4.057,5.493c-1.124-0.062-2.185,0.125-2.372,0.437
	c-0.187,0.312-0.062,2.247,0.187,4.245c0.5,3.246,1.436,26.841,1.56,40.512l0.063,4.993l2.996,0.562l2.934,0.562v6.43
	c0,3.558,0.25,6.554,0.5,6.741c0.312,0.187,4.557,0.375,9.55,0.437c4.932,0.062,10.3,0.25,11.985,0.437l2.934,0.25v12.983h-14.295
	c-9.425,0-14.481-0.25-14.731-0.686c-0.25-0.312-0.25-1.311-0.063-2.123l0.375-1.56l12.984-0.125
	c12.734-0.187,12.921-0.187,13.108-1.56c0.375-2.497-1.435-2.81-16.292-2.497c-7.615,0.187-19.725,0.312-26.841,0.312
	c-8.989,0.062-13.296,0.312-13.92,0.811c-1.186,0.937-1.124,2.81,0.125,3.309c0.561,0.187,5.43,0.374,10.923,0.374h9.925v4.557
	l-12.609-0.437c-6.929-0.25-12.796-0.562-12.984-0.75c-0.187-0.186-0.312-3.183-0.312-6.678v-6.367l10.924-0.312l10.924-0.313
	l0.062-5.617c0.063-8.303-0.124-7.803,2.997-7.803c1.56,0,2.934-0.188,3.058-0.5c0.125-0.25,0-5.493-0.25-11.673
	c-0.311-6.18-0.686-17.415-0.873-24.968l-0.375-13.733l-3.807-0.187l-3.808-0.188l0.437-4.556l0.437-4.62l-17.666-0.374
	c-9.738-0.188-19.288-0.5-21.223-0.75l-3.62-0.373v1.81c0,2.934,0.873,3.62,4.494,3.683c1.81,0,9.987,0.063,18.165,0.125
	l14.794,0.125v5.119l-10.113-0.125c-5.618-0.063-10.674-0.063-11.298-0.063c-0.999,0.063-1.124,0.5-0.937,2.684l0.188,2.622
	l-3.746-0.187c-2.06-0.062-3.87-0.187-4.057-0.187c-1.373-0.125-1.56,0.749-1.498,7.116c0.062,6.991,0.125,6.991,1.685,7.428
	c0.874,0.25,1.748,0.312,1.873,0.187c0.374-0.374,29.713-0.374,30.337,0c1.436,0.937,2.06-1.685,1.997-8.427
	c-0.124-6.866-0.124-6.929,1.311-6.679c1.374,0.187,1.436,0.375,1.81,9.239c1.249,29.088,1.374,33.083,0.75,33.083
	c-1,0-1.498-1.81-1.062-4.057c0.25-1.373,0.063-2.185-0.499-2.56c-1.123-0.749-11.735-0.811-12.172-0.062
	c-0.437,0.687-0.25,10.55,0.187,11.049c0.187,0.187,2.06,0.312,4.182,0.312h3.87v8.739l-10.923,0.374
	c-5.993,0.188-10.987,0.375-11.111,0.437c-0.125,0.063-0.063,3.434,0.124,7.429c0.125,4.057,0.313,9.05,0.313,11.11l0.062,3.746
	l16.729-0.062c12.214-0.08,24.428-0.185,36.642-0.312l19.975-0.25v-9.988c0-5.493,0.125-10.424,0.312-10.924
	c0.25-0.749-1.498-0.936-11.86-1.06c-6.68-0.126-12.547-0.313-12.922-0.5c-0.561-0.187-0.811-1.748-0.811-4.62v-4.369l4.557-0.187
	l4.494-0.187v-4.994c-0.062-7.366,0.125-7.179-6.866-7.179h-5.93l-0.063,1.873c-0.051,0.835-0.135,1.668-0.25,2.497
	c-0.062,0.312-0.187,1.373-0.25,2.31c-0.062,0.998-0.311,1.435-0.623,1.123c-0.75-0.811-1.186-6.866-1.936-25.655
	c-0.499-11.86-0.437-15.606,0.125-15.918c0.437-0.25,0.937-0.374,1.124-0.25c0.25,0.125,0.624,3.246,0.811,6.93
	c0.25,3.682,0.562,6.866,0.75,6.99c0.374,0.437,20.724,0.25,29.525-0.25c6.492-0.374,7.303-0.623,7.054-2.246
	c0-0.188-0.063-2.685-0.125-5.431c-0.125-5.93-0.5-6.367-4.869-5.493c-4.12,0.874-5.056,0.374-5.056-2.622v-2.497l-11.361-0.062
	c-6.242,0-11.61-0.25-11.923-0.562c-0.25-0.25-0.437-1.748-0.312-3.246c0.188-2.747,0.188-2.747,2.997-3.121
	c3.058-0.5,28.464-0.874,29.962-0.5c0.687,0.188,0.999-0.436,1.124-2.434l0.187-2.684l-3.808,0.187
	C-152.912,373.15-154.722,373.274-154.784,373.398L-154.784,373.398z M-210.09,391.563c0.25,5.993,0.062,7.928-0.812,8.115
	c-0.624,0.125-0.874-0.5-0.936-2.185c0-1.31,0-3.308-0.062-4.432l-0.125-1.997h-4.495c-5.68,0-11.735-0.687-10.362-1.186
	c0.562-0.188,4.557-0.312,8.864-0.188l7.865,0.188L-210.09,391.563z M-163.586,390.502c0.187,0.312-1.623,0.5-3.932,0.437
	c-2.31-0.063-5.868-0.063-7.803,0l-3.62,0.125v3.37c0,2.248,0.249,3.496,0.873,3.683c0.437,0.188,4.807,0.375,9.676,0.375
	c4.869,0.062,9.238,0.125,9.613,0.25c0.437,0.062,0.811-0.625,0.936-1.623c0.187-1.499,0.437-1.686,2.684-1.686
	c2.372,0,2.497,0.125,2.31,1.686c-0.188,1.56-0.5,1.81-3.309,2.184c-1.685,0.188-7.802,0.437-13.483,0.437l-10.362,0.063
	l-0.437-3.309c-0.187-1.747-0.374-4.057-0.374-4.993v-1.748l8.427,0.125C-167.706,389.94-163.773,390.252-163.586,390.502z
	 M-232.874,395.308c0.437,0.25,0.874,1.124,0.936,1.998l0.25,1.56l9.363,0.313l9.363,0.374l-7.802,0.125
	c-4.308,0.125-9.489,0.25-11.548,0.312c-3.683,0.125-3.746,0.125-3.933-1.623c-0.125-0.999-0.062-2.185,0.125-2.684
	C-235.746,394.747-233.998,394.559-232.874,395.308z M-176.133,430.39c0,1.248-0.374,1.622-1.747,1.747
	c-1.81,0.25-2.747-0.998-2.06-2.746c0.25-0.624,0.936-0.874,2.06-0.75C-176.507,428.767-176.133,429.141-176.133,430.39z
	 M-206.782,430.764c0.375,0.999-1.872,2.185-3.183,1.685c-1.186-0.499-1-2.559,0.312-2.809
	C-208.218,429.266-207.219,429.703-206.782,430.764z M-193.486,463.598c-0.125,0.812-0.25,0.187-0.25-1.373s0.125-2.185,0.25-1.436
	c0.125,0.812,0.125,2.06,0,2.81V463.598z"/>
</svg>
