<?xml version="1.0" encoding="iso-8859-1"?>
<!-- Generator: Adobe Illustrator 19.0.0, SVG Export Plug-In . SVG Version: 6.00 Build 0)  -->
<svg version="1.2" baseProfile="tiny" id="Layer_1" xmlns="http://www.w3.org/2000/svg" xmlns:xlink="http://www.w3.org/1999/xlink"
	 x="0px" y="0px" viewBox="-247 367.89 100 107" xml:space="preserve">
<title>face_00009</title>
<path d="M-212.003,368.656c-1.05,0.7-1.284,3.384-0.817,8.985c0.233,4.551,0.7,18.437,0.817,31.039
	c0.233,17.62-0.117,23.57-1.4,25.904c-0.817,1.634-1.284,3.734-0.934,4.667c0.933,2.45,13.769,6.885,19.02,6.418
	c3.967-0.35,4.55-0.817,5.484-4.434c0.584-2.217,0.7-7.234,0.233-11.085c-0.466-3.85-0.7-11.435-0.583-16.92
	c0.467-25.32,0.233-26.954-4.55-36.406l-4.319-8.518l-5.834-0.35c-3.15-0.116-6.418,0.117-7.118,0.7H-212.003z M-234.873,379.275
	c-4.902,0.35-9.102,0.933-9.219,1.283c-0.117,0.35,0.35,2.918,1.05,5.835c0.817,2.917,1.75,7.584,2.334,10.501l0.933,5.251
	l9.335,0.817c6.535,0.467,9.569,0.35,10.269-0.583c0.466-0.817,0.7-5.601,0.35-10.735c-0.35-5.135-0.7-10.269-0.7-11.436
	c0-1.283-0.817-1.867-2.567-1.75C-224.605,378.575-229.856,378.925-234.873,379.275L-234.873,379.275z M-173.497,382.542
	l-8.285,0.467l-0.816,7.818c-0.467,4.317-1.05,8.635-1.284,9.685c-1.05,3.734,5.018,5.834,17.153,5.95
	c8.051,0,10.385-1.05,10.385-4.667c-0.117-5.134-5.368-19.486-7.118-19.603C-164.395,382.192-168.829,382.309-173.497,382.542z
	 M-166.379,438.785c-3.267,1.633-7.701,4.667-9.918,6.65c-3.968,3.385-5.251,4.085-16.57,7.819
	c-5.367,1.867-6.067,1.867-12.835-0.467c-7.468-2.45-19.487-8.751-19.487-10.152c0-1.166-8.751-3.734-12.602-3.734
	c-2.567,0-3.967,1.05-6.534,4.901c-1.75,2.568-2.917,5.484-2.567,6.185c0.7,1.983,9.918,8.051,18.67,12.485
	c3.85,1.867,8.75,4.667,10.618,6.068c1.983,1.4,7.234,3.5,11.668,4.667c8.052,1.984,8.402,1.984,16.687-0.35
	c8.168-2.217,13.418-5.017,16.569-8.985c0.933-1.05,2.684-2.333,4.084-2.917c2.45-1.05,8.518-4.784,14.119-8.635
	c7.818-5.367,9.452-9.101,4.9-10.618c-1.4-0.467-3.616-1.984-4.783-3.5C-157.044,434.701-158.911,434.817-166.379,438.785z"/>
</svg>
