<?xml version="1.0" encoding="iso-8859-1"?>
<!-- Generator: Adobe Illustrator 19.0.0, SVG Export Plug-In . SVG Version: 6.00 Build 0)  -->
<svg version="1.2" baseProfile="tiny" id="Layer_1" xmlns="http://www.w3.org/2000/svg" xmlns:xlink="http://www.w3.org/1999/xlink"
	 x="0px" y="0px" viewBox="-247 360.89 100 120" xml:space="preserve">
<title>face_00046</title>
<path d="M-217.087,369.361v8.281l-14.885,0.315l-14.99,0.314l0.106,4.193v4.193l8.385,0.629c4.508,0.314,6.709,0.629,4.927,0.733
	c-1.887,0.105-3.46,0.839-3.564,1.468c0,0.734-0.315,2.725-0.629,4.507c-0.21,1.677-0.21,5.137,0.21,7.547l0.629,4.508h13.522
	V387.18h6.289l0.105,8.071c0.105,4.507,0.21,17.4,0.21,28.617l0.209,20.44l-5.765,0.21c-3.145,0.104-6.394,0.21-7.128,0.21
	c-0.943,0.104-1.258,1.362-1.048,3.982l0.314,3.984l6.394,0.314c5.765,0.314,6.5,0.524,6.919,2.725
	c0.314,1.258,0.104,3.46-0.315,4.612c-0.839,2.202-1.572,2.307-12.998,2.307h-12.16l0.315,8.595l0.315,8.595l5.24,0.315
	c2.936,0.105,22.223-0.105,42.978-0.524l37.736-0.734l0.314-8.176l0.315-8.071h-10.797c-5.975,0-11.426-0.42-12.16-0.944
	c-0.838-0.524-1.257-2.306-1.048-4.402c0.315-3.46,0.42-3.564,5.66-3.879l5.451-0.314l0.42-4.088l0.42-4.193h-5.556
	c-2.935,0-5.66-0.315-5.87-0.839c-0.315-0.419-0.63-12.998-0.84-27.987l-0.418-27.254l15.933-0.314
	c17.505-0.315,17.4-0.315,16.666-7.023l-0.314-3.145l-16.143-0.524l-16.142-0.524l-0.315-8.176l-0.314-8.072h-11.426v16.772h-6.813
	c-4.717,0-6.814-0.42-7.023-1.363c0-0.629-0.21-1.782-0.315-2.306c-0.21-0.629-0.314-3.773-0.42-7.128l-0.103-5.974h-10.483V369.361
	z M-196.332,387.705l4.402,0.629v56.499h-12.264l-0.734-7.128c-0.524-5.66-0.943-38.365-0.734-47.904
	C-205.557,387.286-203.251,386.866-196.332,387.705z M-191.406,457.935v4.193l-6.499,0.315l-6.603,0.314v-9.643l6.603,0.314
	l6.5,0.315v4.193L-191.406,457.935z M-172.014,397.663v7.442l7.128-0.314l7.023-0.315V390.85l-7.023-0.315l-7.128-0.314V397.663z"/>
</svg>
