<?xml version="1.0" encoding="iso-8859-1"?>
<!-- Generator: Adobe Illustrator 19.0.0, SVG Export Plug-In . SVG Version: 6.00 Build 0)  -->
<svg version="1.2" baseProfile="tiny" id="Layer_1" xmlns="http://www.w3.org/2000/svg" xmlns:xlink="http://www.w3.org/1999/xlink"
	 x="0px" y="0px" viewBox="-247 366.89 100 108" xml:space="preserve">
<title>face_00123</title>
<path d="M-193.433,367.25c-2.567,0.748-1.55,1.817,2.407,2.513c4.652,0.802,6.15,1.39,9.144,3.529
	c6.31,4.545,11.444,14.92,11.444,23.155c0,3.69-0.428,4.706-1.604,4.01c-1.39-0.908-3.209-0.587-4.492,0.803l-1.284,1.39
	l-2.139-1.123c-4.76-2.513-9.037-1.71-12.78,2.3c-3.53,3.797-4.118,5.615-4.332,13.422l-0.214,6.899l2.192-0.375
	c1.23-0.16,3.209-0.962,4.385-1.764c1.177-0.75,2.246-1.23,2.407-1.07c0.16,0.16,0.053,1.177-0.321,2.193
	c-1.444,4.438-6.47,7.005-11.176,5.722c-1.337-0.375-2.995-1.177-3.69-1.819c-1.177-1.123-2.674-4.92-2.14-5.454
	c0.161-0.16,1.124,0.16,2.086,0.748c1.658,0.963,3.102,1.337,4.492,1.177c0.375-0.054,0.481-2.834,0.375-8.503
	c-0.214-7.219-0.428-8.77-1.444-11.123c-1.444-3.208-4.064-5.4-6.899-5.775c-2.406-0.321-7.165,1.283-8.61,2.888
	c-1.23,1.39-1.55,1.336-3.154-0.268c-1.551-1.55-2.781-1.658-4.492-0.481c-1.123,0.749-1.177,0.749-1.23-0.428
	c-0.482-7.914,2.727-15.829,8.877-22.032c2.085-2.086,5.4-4.706,7.38-5.882c4.491-2.62,4.759-3.797,0.801-3.262
	c-1.55,0.214-4.17,0.748-5.775,1.176c-3.102,0.802-11.604,5.08-13.369,6.685c-0.535,0.534-1.23,0.962-1.497,0.962
	c-0.695,0-8.289,8.022-10.107,10.695c-2.14,3.102-5.24,9.305-6.043,12.032c-0.32,1.177-0.802,2.62-1.07,3.209
	c-1.656,4.171-2.245,17.7-0.961,23.315c0.695,2.942,2.62,9.573,3.155,10.642c0.16,0.428,1.016,2.353,1.872,4.225
	c3.101,6.952,8.663,13.904,15.989,20.16c4.118,3.53,5.99,4.653,6.684,4.225c0.321-0.214,0.482-0.107,0.428,0.214
	c-0.16,0.481,10.268,5.936,11.337,5.936c0.268,0,1.872,0.641,3.476,1.39c1.658,0.749,3.636,1.283,4.439,1.176l1.443-0.16
	l-0.106-5.348c-0.054-2.94-0.16-8.502-0.16-12.406c-0.054-7.7-0.108-7.861-3.316-8.342c-5.027-0.749-12.728-6.417-16.257-11.979
	c-1.016-1.604-1.765-3.048-1.658-3.155s0.802,0.267,1.604,0.856c2.781,2.192,8.236,4.759,12.3,5.775
	c11.07,2.727,20.214,0.535,28.61-6.898c2.94-2.567,3.636-1.872,1.604,1.55c-3.797,6.418-10.428,11.444-18.289,14.011l-2.086,0.642
	l0.321,6.524c0.856,15.722,1.07,17.968,1.712,17.968c0.374,0,0.802-0.374,1.016-0.802c0.16-0.428,3.208-2.193,6.738-3.958
	c3.529-1.764,8.074-4.385,10.053-5.828c1.979-1.444,4.76-3.423,6.257-4.385c9.198-6.257,17.112-18.93,20.32-32.567
	c0.482-1.925,0.963-4.011,1.124-4.6c0.107-0.587,0.374-3.689,0.534-6.898c0.482-8.502-0.588-14.438-4.064-22.085
	c-1.283-2.834-1.765-3.476-2.192-2.834c-0.428,0.641-0.482,0.534-0.214-0.321c0.214-0.856-0.482-2.246-2.888-5.348
	c-3.797-5.08-5.722-6.898-11.337-10.642c-3.904-2.62-7.7-4.17-14.92-6.042C-185.037,366.821-191.614,366.714-193.433,367.25
	L-193.433,367.25z M-220.973,403.132c0.16,0.267,0.054,0.534-0.214,0.534c-0.32,0-0.588-0.267-0.588-0.534
	c0-0.321,0.107-0.535,0.214-0.535C-221.401,402.597-221.133,402.811-220.973,403.132z M-173.647,403.72
	c0,0.267-0.374,0.481-0.802,0.481c-0.802,0-1.07-0.642-0.481-1.23C-174.502,402.543-173.647,403.025-173.647,403.72z
	 M-219.636,408.693c0,2.513-0.802,2.834-1.818,0.802c-1.123-2.3-1.07-2.62,0.481-2.62
	C-219.796,406.875-219.636,407.089-219.636,408.693z M-173.379,408.586c-0.535,1.658-1.337,2.514-1.337,1.39
	c0-0.48-0.16-1.23-0.321-1.71c-0.214-0.642,0-0.856,0.856-0.856C-173.219,407.41-173.112,407.624-173.379,408.586z M-177.55,370.78
	c12.566,3.903,23.796,16.524,27.433,30.748c1.016,3.958,1.123,5.508,0.909,11.765c-0.482,13.369-4.01,23.636-11.658,33.957
	c-4.118,5.562-5.508,6.899-11.711,11.177c-2.514,1.764-4.653,3.315-4.813,3.53c-0.963,1.39-13.904,7.593-14.546,7.004
	c-0.213-0.16-0.534-4.331-0.748-9.197l-0.375-8.824l3.583-1.497c9.68-4.118,16.257-10.802,18.182-18.45
	c0.856-3.368,0.802-4.01-0.535-4.224c-0.748-0.107-1.657,0.428-2.566,1.55c-3.049,3.584-10.589,8.664-14.653,9.894
	c-9.251,2.726-21.282-0.323-29.892-7.595c-2.567-2.246-4.438-2.994-4.438-1.818c0,1.658,4.759,9.68,7.433,12.513
	c3.583,3.797,8.556,7.22,12.406,8.45l3.69,1.176l0.054,6.685c0.053,3.743,0.106,8.556,0.16,10.748c0.053,4.01,0.053,4.01-1.283,3.85
	c-0.75-0.106-1.551-0.374-1.872-0.588c-0.268-0.214-1.711-0.855-3.209-1.39c-8.663-3.102-20.107-10.535-24.064-15.562
	c-0.855-1.123-1.978-2.406-2.46-2.834c-1.283-1.23-5.936-8.502-7.219-11.283c-2.246-4.867-2.78-6.31-4.01-10.963
	c-1.124-4.117-1.284-6.043-1.284-13.369c0-8.449,0.053-8.61,1.978-14.224c4.652-13.476,13.315-23.316,25.614-29.039
	c6.578-3.048,9.305-3.208,4.6-0.214c-6.9,4.44-11.766,12.034-13.478,21.017c-0.48,2.62-0.748,5.401-0.641,6.15
	c0.588,3.102,1.016,4.652,1.871,6.685c1.819,4.492,7.006,10.962,8.77,10.962c1.23,0,1.23-0.107-0.106-2.246
	c-1.498-2.46-1.444-7.22,0.053-9.84c2.513-4.545,8.182-6.844,11.497-4.652c2.835,1.818,3.637,4.546,3.85,12.834
	c0.214,8.236,0.054,8.77-2.406,6.471c-0.695-0.642-1.23-1.711-1.23-2.406c0-1.551-1.283-1.605-2.353-0.054
	c-1.764,2.513-0.641,7.594,2.3,10.535c5.187,5.187,14.706,3.369,17.754-3.37c1.123-2.513,1.39-8.074,0.374-8.662
	c-0.374-0.214-1.283,0.374-2.246,1.497c-1.55,1.765-4.866,4.171-5.775,4.171c-0.695,0-0.482-9.144,0.214-11.176
	c0.962-2.888,3.208-6.043,5.187-7.38c2.46-1.658,6.203-1.658,8.61-0.053c2.78,1.925,3.85,4.385,3.529,8.181
	c-0.16,1.765-0.428,3.637-0.588,4.171c-0.535,1.337,1.07,1.177,2.406-0.32c2.62-2.674,5.401-8.77,6.15-13.209
	c1.176-6.845-0.321-15.508-3.583-21.016c-2.46-4.118-7.594-9.519-10.054-10.642c-0.855-0.374-1.604-0.855-1.604-1.123
	c0-0.48,1.55-0.107,6.792,1.498L-177.55,370.78z"/>
</svg>
