<?xml version="1.0" encoding="iso-8859-1"?>
<!-- Generator: Adobe Illustrator 19.0.0, SVG Export Plug-In . SVG Version: 6.00 Build 0)  -->
<svg version="1.2" baseProfile="tiny" id="Layer_1" xmlns="http://www.w3.org/2000/svg" xmlns:xlink="http://www.w3.org/1999/xlink"
	 x="0px" y="0px" viewBox="-247 365.89 100 111" xml:space="preserve">
<title>face_00079</title>
<path d="M-150.85,366.733c-0.672,1.65-1.343,29.628-1.1,49.909c0.184,16.31,0.795,25.534,2.383,33.903
	c0.122,0.855,0.428,4.948,0.672,9.163c0.428,7.942,0.55,8.552,1.527,8.552c0.733,0,0.306-9.163-0.977-20.77
	c-2.382-21.258-2.566-35.735-1.16-71.533c0.305-6.292,0.183-9.651-0.245-9.957C-150.055,365.817-150.544,366.122-150.85,366.733z
	 M-207.539,369.421c-0.183,1.772-0.366,6.659-0.427,10.874c-0.061,4.215-0.245,8.674-0.428,9.896
	c-0.244,2.077-0.427,2.26-2.504,2.443c-2.2,0.184-2.2,0.184-2.2,2.932c0,2.75,0,2.75,2.322,2.933l2.26,0.183l0.061,6.536
	c0,3.604,0.122,6.964,0.244,7.453c0.306,1.833,0.978,29.81,0.978,41.356c-0.061,7.208,0.183,11.851,0.55,12.095
	c0.305,0.184,0.61,1.71,0.61,3.36c0,2.993,0.917,4.582,1.589,2.75c0.244-0.49,0.122-3.055-0.184-5.682
	c-0.916-7.33-1.588-6.842,9.591-6.842h9.652l0.489,6.537c0.61,7.208,1.832,8.674,1.71,2.015c-0.55-28.16-0.916-41.111-1.222-43.372
	c-0.488-3.604-0.427-25.473,0.062-26.267c0.183-0.306,1.038-0.611,1.832-0.611c1.71,0,1.894-0.244,2.444-3.115
	c0.366-2.077,0.305-2.139-1.894-2.75l-2.321-0.55l0.183-12.766c0.122-10.385,0-12.646-0.672-12.462
	c-1.16,0.427-1.772,18.02-1.588,44.899c0.183,19.365,0.06,22.052-0.733,22.052c-0.49-0.06-4.949,0.123-9.897,0.367l-8.98,0.428
	l-0.183-7.209c-0.366-11.973-0.06-57.177,0.428-59.01c0.305-1.222,0.244-1.65-0.489-1.65
	C-206.866,366.244-207.233,367.161-207.539,369.421z M-186.097,436.128c0.122,0.062,0.305,2.077,0.428,4.46l0.305,4.337
	l-9.774,0.428c-5.376,0.244-9.896,0.366-10.018,0.244c-0.611-0.672-0.672-8.552-0.061-8.98
	C-204.057,435.823-186.83,435.395-186.097,436.128z M-187.44,453.05c-1.344,0.244-5.986,0.427-10.385,0.427
	c-5.436-0.06-7.086-0.183-5.192-0.488c4.093-0.611,18.693-0.611,15.577,0.06V453.05z M-246.757,395.689
	c0.245,15.882,0.55,30.238,0.672,31.948c0.122,1.65,0.428,7.575,0.611,13.134c0.244,5.498,0.489,10.202,0.611,10.385
	c0.122,0.183,0.244,4.826,0.305,10.385c0.184,11.668,0.49,14.66,1.528,14.66c0.794,0,0.672-8.918-0.367-25.961
	c-0.916-14.906-1.71-41.845-1.833-62.92c-0.122-10.446-0.305-19.304-0.427-19.732c-0.123-0.366-0.55-0.733-0.855-0.733
	C-247.001,366.855-247.062,375.957-246.757,395.689z"/>
</svg>
