<?xml version="1.0" encoding="iso-8859-1"?>
<!-- Generator: Adobe Illustrator 19.0.0, SVG Export Plug-In . SVG Version: 6.00 Build 0)  -->
<svg version="1.2" baseProfile="tiny" id="Layer_1" xmlns="http://www.w3.org/2000/svg" xmlns:xlink="http://www.w3.org/1999/xlink"
	 x="0px" y="0px" viewBox="-247 348.89 100 144" xml:space="preserve">
<title>face_00113</title>
<path d="M-232.78,349.126c-1.251,0.12-2.383,0.536-2.502,0.893c-0.12,0.417-0.358,2.86-0.536,5.54
	c-0.12,2.62-0.655,5.717-1.132,6.849c-2.323,5.36-4.288,11.256-4.645,13.937c-0.239,1.608-1.013,5.122-1.728,7.742
	c-0.714,2.62-1.31,5.182-1.31,5.658c0,0.477-0.536,3.276-1.132,6.135c-0.833,3.871-1.131,8.16-1.19,16.081
	c-0.06,9.946,0.059,11.376,1.488,17.094c0.894,3.454,2.144,7.742,2.8,9.589c0.595,1.786,1.131,3.87,1.131,4.586
	c0,0.714,0.536,2.442,1.132,3.811c1.31,2.978,3.573,10.9,4.228,14.771c0.298,1.49,1.013,3.99,1.609,5.658
	c0.655,1.608,1.072,3.395,0.952,3.872c-0.536,2.322,5.182,5.598,5.956,3.394c0.18-0.536,0.536-0.536,1.549,0
	c0.655,0.417,2.025,0.775,2.978,0.775s2.025,0.417,2.442,0.893c0.417,0.477,1.43,0.894,2.204,0.894c0.833,0,3.037,0.952,4.943,2.084
	c1.906,1.132,3.871,2.085,4.467,2.085c0.536,0,2.144,0.774,3.514,1.667c1.31,0.894,3.693,2.025,5.3,2.442
	c2.085,0.596,3.098,1.31,4.05,2.8c0.656,1.131,1.55,2.025,1.907,2.025c0.357,0,1.072,0.357,1.548,0.833
	c0.536,0.477,1.668,1.013,2.561,1.251c1.608,0.417,2.62-0.595,3.038-3.097c0.119-0.596,0.893-2.561,1.786-4.407
	c0.894-1.847,1.609-3.574,1.609-3.931c0-1.31,1.965-4.408,3.454-5.48c0.893-0.595,2.144-2.382,2.74-3.871
	c0.595-1.489,1.37-2.74,1.667-2.74c0.239,0,0.477-0.298,0.477-0.655c0-1.37,2.918-6.85,4.407-8.22
	c0.834-0.833,1.549-1.726,1.549-2.024c0-0.834,5.36-8.755,5.956-8.755c0.238,0,1.072-1.251,1.846-2.86
	c0.715-1.548,1.966-3.513,2.68-4.407c0.715-0.893,1.49-2.442,1.727-3.394c0.239-1.073,2.085-3.455,4.825-6.195
	c2.442-2.442,4.407-4.705,4.407-5.062c0-0.358,0.298-0.715,0.715-0.834c0.476-0.179,0.417-0.655-0.298-1.668
	c-0.536-0.833-1.012-1.965-1.012-2.56c0-0.596-0.656-2.324-1.49-3.872c-0.833-1.549-1.488-3.157-1.488-3.633
	c0-0.477-0.358-1.31-0.775-1.787c-0.774-0.893-1.608-3.335-2.56-7.504c-0.418-1.847-0.537-2.204-1.132-5.659
	c-0.239-1.131-0.656-2.382-1.013-2.799c-0.893-1.131-2.382-6.67-2.859-10.9c-0.238-2.143-0.893-5.598-1.43-7.682
	c-0.595-2.204-0.773-4.348-0.535-5.063c0.238-0.715,0.476-3.93,0.476-7.207c0-3.275,0.12-6.253,0.239-6.551
	c0.119-0.357,0.178-2.502,0.119-4.884c-0.06-4.824-0.894-6.194-3.514-5.837c-0.894,0.12-8.28,0.239-16.439,0.239l-14.77,0.06
	l0.297,1.488c0.12,0.834,0,4.288-0.297,7.624c-0.953,10.78-1.013,13.162-0.417,13.877c0.357,0.476,0.357,1.608,0,3.276
	c-1.072,4.884-0.834,23.466,0.297,27.457c0.18,0.595,0,3.097-0.416,5.598c-0.775,4.288-0.953,4.646-3.336,6.492
	c-1.43,1.132-3.097,1.846-3.871,1.787c-0.795-0.067-1.589-0.147-2.382-0.238c-0.596,0-1.668-1.31-2.562-3.038
	c-1.786-3.573-1.965-9.053-0.536-14.592c1.073-3.93,1.132-4.705,0.358-14.592c-0.477-7.087-0.06-10.185,1.965-14.115
	c1.132-2.085,1.132-6.373,0.06-7.267c-0.715-0.595-1.191-3.335-1.906-10.72c-0.12-1.43-0.357-2.74-0.536-2.919
	c-0.298-0.357-20.19-0.536-23.705-0.238H-232.78z M-216.223,368.602c0,0.774-0.477,1.25-1.31,1.37
	c-1.013,0.178-1.37-0.12-1.37-0.953c0-0.596,0.178-1.31,0.417-1.549C-217.712,366.696-216.223,367.41-216.223,368.602z
	 M-183.406,369.912c-0.417,0.417-1.549-0.417-1.549-1.131c0-0.358,0.358-0.358,0.894,0.119
	C-183.525,369.317-183.287,369.793-183.406,369.912z M-234.984,370.091c-0.001,0.329-0.267,0.594-0.596,0.595
	c-0.298,0-0.596-0.297-0.596-0.595c0-0.358,0.298-0.596,0.596-0.596C-235.223,369.495-234.984,369.733-234.984,370.091z
	 M-221.167,383.968c0.477,1.25,0.477,2.263-0.119,4.05c-1.131,3.335-1.846,1.847-1.727-3.633c0.12-4.646,0.715-6.968,1.013-3.871
	C-221.881,381.467-221.524,383.074-221.167,383.968z M-182.274,380.156c-0.18,0.358-0.656,0.656-1.013,0.656
	c-0.357,0-0.357-0.358,0.12-0.894C-182.334,378.906-181.619,379.144-182.274,380.156z M-175.425,389.15
	c0.357,0.595,0.595,2.144,0.595,3.395c0,2.799-1.548,7.98-1.965,6.73c-0.715-1.906-1.013-8.815-0.596-13.103l0.417-4.467
	l0.477,3.157C-176.259,386.589-175.723,388.554-175.425,389.15z M-175.008,407.018c0.238,0.774,0.178,0.774-0.358,0
	c-0.595-0.775-0.714-0.775-1.25,0c-0.477,0.774-0.596,0.714-0.596-0.18C-177.212,405.528-175.366,405.708-175.008,407.018z
	 M-172.448,406.422c0,0.298-0.297,0.596-0.654,0.596c-0.298,0-0.417-0.298-0.239-0.596c0.18-0.357,0.477-0.596,0.656-0.596
	c0.119,0,0.238,0.239,0.238,0.596H-172.448z M-242.727,410.71c0,1.132-0.118,1.191-0.595,0.477c-0.774-1.132-0.774-1.787,0-1.787
	c0.358,0,0.596,0.596,0.596,1.31H-242.727z M-239.748,411.604c-0.655,1.012-0.655,1.012-0.357,0c0.178-0.596,0.357-1.43,0.416-1.787
	c0-0.536,0.12-0.536,0.298,0C-239.212,410.234-239.391,411.008-239.748,411.604z M-156.365,429.412c0,0.119-0.417,0.238-0.894,0.238
	c-0.476,0-0.893-0.238-0.893-0.596c0-0.297,0.417-0.416,0.893-0.238C-156.782,429.054-156.365,429.293-156.365,429.412z
	 M-199.665,435.129c1.251,1.728,1.43,2.621,1.49,7.684c0.059,4.943-0.12,6.194-1.311,8.636l-1.43,2.918l-0.416-1.787
	c-0.298-1.012-1.072-2.918-1.847-4.347c-0.774-1.37-1.43-2.919-1.43-3.395c0-0.477-0.237-0.894-0.476-0.894
	c-0.238,0-0.536-0.953-0.595-2.084c-0.12-1.132,0.06-2.085,0.298-2.085c0.476,0,1.25-1.548,2.501-4.943
	C-202.047,432.747-201.392,432.807-199.665,435.129z"/>
</svg>
