<?xml version="1.0" encoding="iso-8859-1"?>
<!-- Generator: Adobe Illustrator 19.0.0, SVG Export Plug-In . SVG Version: 6.00 Build 0)  -->
<svg version="1.2" baseProfile="tiny" id="Layer_1" xmlns="http://www.w3.org/2000/svg" xmlns:xlink="http://www.w3.org/1999/xlink"
	 x="0px" y="0px" viewBox="-247 348.89 100 145" xml:space="preserve">
<title>face_00091</title>
<path d="M-173.346,351.098c-2.436,1.082-5.683,3.383-7.307,4.871c-1.624,1.489-2.977,2.436-3.248,2.3
	c-0.135-0.27-1.353-2.3-2.57-4.33c-2.978-4.736-5.008-3.653-4.06,2.3c0.54,3.655,0.135,4.872-2.977,7.308
	c-4.737,3.789-8.12,3.789-10.69,0.135c-1.218-1.759-2.572-2.435-3.654-1.894c-0.947,0.677-2.3,0.27-3.112-0.812
	s-3.248-3.248-5.413-5.007c-4.466-3.383-14.209-4.06-20.704-1.353c-3.653,1.489-3.653,1.489,3.383,2.571
	c6.495,0.812,12.45,4.06,12.45,6.63c0,0.542-4.06,1.354-8.932,1.625c-7.442,0.406-9.472,1.082-11.637,3.653
	c-3.518,4.466-2.165,4.872,3.924,1.353c3.79-2.165,6.36-2.706,8.931-2.03c4.195,0.948,4.872,3.519,0.948,3.519
	c-1.489,0-2.707,0.947-2.707,2.03c0,1.082-0.541,2.03-1.353,2.03c-0.677,0-1.353-0.677-1.353-1.354c0-0.812-0.947-1.353-2.03-1.353
	c-1.488,0-1.76,1.083-1.083,4.33c0.677,3.654,0.542,4.06-1.353,3.383c-1.353-0.541-3.247-1.353-4.33-1.759
	c-2.977-1.218-2.57,3.789,0.677,7.848c4.06,5.143,9.743,7.037,16.238,5.413c5.683-1.353,7.307,0,2.842,2.436
	c-5.82,3.112-13.803,1.353-20.028-4.466c-1.759-1.488-3.518-2.3-4.059-1.759c-1.624,1.624,1.488,5.413,7.172,8.525
	c14.479,8.255,31.935-1.218,33.423-18.132c0.271-2.842,0.812-5.413,1.083-5.548c1.218-1.083,7.848,2.977,9.202,5.683
	c1.353,2.571,2.435,14.208,2.706,28.823c0.135,5.142,0.541,5.818,3.248,5.818c5.277,0,7.171,2.03,5.548,6.36
	c-1.354,4.06-1.218,4.06-19.08,5.142l-9.878,0.677v-4.195c0-4.6-2.436-4.871-4.195-0.27c-0.542,1.759-0.271,4.194,0.947,6.63
	c1.082,2.03,1.759,4.466,1.353,5.413c-0.541,1.353,0.677,1.759,4.195,1.488c4.33-0.27,5.142,0.271,6.36,3.519
	c1.218,3.247,0.812,4.194-2.03,7.171c-5.954,5.82-20.162,3.79-20.162-2.977c0-2.03-0.812-3.247-2.03-3.247
	c-1.083,0-2.03,0.812-2.03,1.894c0,1.083-0.947,2.977-2.165,4.06c-2.571,2.57-1.218,5.818,1.489,3.518
	c1.217-1.082,2.03-1.082,2.706-0.135c0.406,0.812,4.195,3.112,8.254,5.007c7.037,3.382,9.879,4.194,13.667,4.465
	c0.948,0.135,2.842,1.353,4.195,2.977l2.707,2.706l3.383-3.247c1.894-1.76,6.63-3.924,10.284-4.736
	c3.789-0.812,9.337-3.248,12.314-5.142c4.465-2.977,5.683-3.248,7.442-1.895c3.248,2.706,4.195,0.406,1.624-3.924
	c-1.218-2.165-2.3-5.278-2.3-6.766c0-3.383-2.707-3.924-2.707-0.541c-0.135,3.383-2.706,6.36-7.713,8.93
	c-6.224,3.248-10.825,2.978-13.396-1.082c-1.895-2.842-1.895-4.06-0.542-7.442c0.948-2.3,3.113-4.466,4.737-4.872
	c4.06-0.947,9.742-7.036,10.825-11.502c0.677-2.842,0-4.6-3.248-8.39c-4.465-5.006-5.548-10.96-2.03-12.313
	c1.218-0.406,4.33-0.812,7.037-0.812c7.984-0.136,14.885-2.165,20.027-6.09c5.819-4.465,4.466-7.442-1.894-4.195
	c-6.902,3.519-17.862,2.3-17.862-2.03c0-0.405,2.841-0.54,6.495-0.27c5.413,0.541,7.307,0,12.72-3.518
	c7.713-5.007,9.472-9.473,5.548-14.75c-4.06-5.548-8.254-7.172-16.915-6.63c-6.224,0.405-7.442,0.135-6.36-1.354
	c1.624-1.894,9.743-4.465,14.344-4.465c1.624,0,4.6,1.624,6.766,3.518c4.736,4.466,5.683,1.895,1.488-4.195
	C-154.672,349.068-164.82,346.768-173.346,351.098z M-165.768,366.524c1.759,1.083,1.488,1.489-0.947,2.165
	c-1.895,0.541-3.113,1.895-3.113,3.518c0,2.03-0.676,2.436-2.706,1.76c-2.165-0.677-2.706-0.271-2.706,1.894
	c0,3.248-2.436,3.789-3.519,0.947c-0.947-2.435,3.113-8.254,6.901-10.149C-168.339,364.9-168.204,364.9-165.768,366.524z
	 M-152.101,370.042c1.218,1.489,1.353,2.707,0.27,4.33c-1.894,3.113-3.518,1.76-3.653-2.841
	C-155.619,367.336-154.672,366.931-152.101,370.042z M-215.295,373.967c0.812,2.435-0.27,6.089-2.03,6.089
	c-0.676,0-1.217-1.895-1.217-4.06c0-4.33,1.894-5.412,3.247-2.03V373.967z M-182.683,462.194c-7.307,5.819-8.93,6.495-16.238,6.901
	c-8.12,0.406-11.367-0.812-23.14-9.878c-0.947-0.677-2.165-0.812-2.706-0.406c-1.353,1.488,3.79,7.307,10.014,11.231
	c3.247,2.165,6.63,5.142,7.307,6.902c2.165,4.736-0.947,10.96-6.495,12.99c-2.571,0.947-4.601,2.165-4.601,2.706
	c0,1.76,7.307,1.218,13.667-0.947c5.413-2.03,6.63-1.894,14.479,0.136c6.63,1.894,9.202,2.03,11.908,0.676
	c4.465-2.03,2.977-4.195-2.842-4.195c-3.247,0-5.277-0.947-6.63-2.977c-3.519-4.871-2.571-8.93,2.706-13.667
	c8.254-7.172,14.073-13.261,14.073-14.614C-171.181,454.481-174.835,456.105-182.683,462.194L-182.683,462.194z"/>
</svg>
