<?xml version="1.0" encoding="iso-8859-1"?>
<!-- Generator: Adobe Illustrator 19.0.0, SVG Export Plug-In . SVG Version: 6.00 Build 0)  -->
<svg version="1.2" baseProfile="tiny" id="Layer_1" xmlns="http://www.w3.org/2000/svg" xmlns:xlink="http://www.w3.org/1999/xlink"
	 x="0px" y="0px" viewBox="-247 361.89 100 118" xml:space="preserve">
<title>face_00073</title>
<path d="M-225.245,363.303c-5.994,2.195-9.911,4.629-14.243,8.961c-3.443,3.383-4.51,4.926-5.817,8.309
	c-2.135,5.577-2.195,11.394-0.178,17.566c0.772,2.434,1.247,4.63,0.95,4.986c-0.653,0.83-2.374,9.436-2.374,11.928
	c0,1.069,0.297,3.264,0.653,4.926c1.306,6.054,11.513,15.43,16.083,14.778c1.128-0.12,1.424-0.594,1.543-2.374
	c0.178-2.137,0.119-2.196-2.374-2.908c-2.611-0.772-5.52-2.552-6.825-4.095c-1.543-1.9-3.739-8.724-3.739-11.632
	c0-3.086,1.01-7.003,1.721-6.588c7.894,4.273,15.193,4.51,19.941,0.534c3.917-3.204,4.985-8.368,2.552-11.988
	c-2.315-3.383-4.214-4.392-8.665-4.629c-4.629-0.237-8.308,1.009-12.403,4.392c-1.365,1.127-2.612,1.84-2.73,1.602
	c-0.119-0.297-0.594-2.136-1.01-4.154c-1.305-6.291,1.01-12.997,6.173-18.042c3.56-3.501,6.588-5.341,12.107-7.477
	c7.596-2.908,18.04-1.84,22.492,2.314l1.306,1.246l-2.433,2.73c-1.306,1.484-3.324,4.748-4.451,7.181
	c-1.959,4.155-2.077,4.867-2.077,10.386c0,6.35,0.89,9.436,4.095,14.065l1.483,2.196l-2.433,3.442
	c-3.56,5.104-5.46,10.327-5.52,15.312c0,2.314,0.179,4.807,0.416,5.638c0.772,2.67,3.917,7.062,6.291,8.783
	c2.67,2.018,2.67,2.018-3.086,4.867c-8.309,4.095-14.184,11.276-14.184,17.448c0,3.976,2.018,8.783,4.688,11.216
	c3.858,3.443,8.13,4.689,16.38,4.748c7.893,0,10.683-0.593,16.973-3.739c6.647-3.323,10.208-7.655,10.98-13.471
	c0.296-2.315,0.118-3.561-0.772-5.58c-1.068-2.432-5.756-7.655-6.884-7.655c-0.237,0-1.424-0.653-2.67-1.424
	c-1.188-0.831-3.799-2.077-5.757-2.79c-1.959-0.712-3.799-1.483-4.095-1.78c-0.297-0.237,0.296-1.484,1.365-2.79
	c2.492-3.204,3.62-6.646,3.62-11.275c0-6.825-2.968-14.778-6.944-18.635c-2.196-2.137-2.374-2.968-1.009-4.095
	c1.721-1.425,5.698-7.775,6.885-10.86c1.246-3.443,1.543-10.327,0.474-13.116c-0.356-1.01-1.543-3.561-2.67-5.698
	c-1.128-2.196-2.077-4.154-2.077-4.332c0-0.178,1.246-0.95,2.848-1.721c8.962-4.51,23.62-3.264,31.039,2.552
	c3.323,2.67,6.825,8.19,7.715,12.285c0.593,2.61,0.593,3.976,0,6.884c-0.415,2.018-0.83,3.798-0.95,3.917
	c-0.118,0.06-1.127-0.475-2.195-1.306c-3.205-2.433-6.232-3.383-10.564-3.383c-5.282,0-8.843,1.484-10.564,4.451
	c-0.712,1.187-1.306,2.79-1.306,3.62c0,3.74,3.264,7.834,7.3,9.14c3.502,1.128,10.801,0.297,13.59-1.543
	c1.247-0.771,2.374-1.424,2.552-1.424s0.297,1.661,0.297,3.739c0,5.163-2.136,10.563-5.697,14.124
	c-1.543,1.543-3.502,2.968-4.451,3.146c-2.137,0.415-2.315,2.255-0.356,3.145c1.958,0.89,3.917-0.119,7.893-3.976
	c5.579-5.4,8.25-13.71,6.944-21.484c-0.535-3.383-0.475-4.095,0.89-7.596c1.78-4.748,1.958-11.454,0.415-15.134
	c-2.552-5.875-6.35-10.267-11.573-13.353c-5.816-3.383-9.792-4.332-18.1-4.392c-7.419-0.06-12.167,0.95-17.092,3.74l-1.959,1.067
	l-2.018-1.72c-1.127-0.95-3.56-2.137-5.34-2.612c-1.782-0.534-3.741-1.186-4.274-1.484c-0.593-0.296-3.798-0.534-7.122-0.474
	C-220.26,361.997-222.515,362.294-225.245,363.303z M-195.868,377.07c3.086,5.638,3.798,11.87,1.958,16.855
	c-1.246,3.323-6.113,10.385-6.706,9.673c-2.493-2.611-4.451-9.614-3.976-14.243c0.474-4.807,5.519-14.777,7.24-14.243
	C-197.055,375.23-196.402,376.121-195.868,377.07z M-222.871,396.36c2.492,2.196,2.73,4.332,0.771,7.359
	c-1.958,2.908-5.816,4.273-9.436,3.264c-2.255-0.653-5.757-2.967-6.172-4.036c-0.534-1.364,3.086-5.281,6.35-6.884
	C-227.263,394.045-225.483,394.105-222.871,396.36z M-159.548,396.063c0.831,0.475,2.137,1.543,2.79,2.433l1.305,1.543l-1.84,1.9
	c-3.442,3.56-9.733,4.332-12.937,1.602c-2.73-2.315-3.086-4.926-1.01-6.884C-168.925,394.52-163.287,394.223-159.548,396.063z
	 M-198.005,412.976c4.095,4.807,6.172,14.243,4.451,20.297c-0.712,2.611-3.798,6.35-5.222,6.35c-0.534,0-2.018-0.95-3.264-2.077
	l-2.256-2.077l1.247-1.068c0.89-0.653,1.187-1.365,0.95-2.078c-0.476-1.127-2.79-1.958-3.799-1.305
	c-0.356,0.178-0.653,0.178-0.712-0.119c-0.534-5.044-0.416-6.113,0.712-9.614c1.246-3.62,5.045-10.149,5.935-10.149
	C-199.726,411.136-198.836,411.967-198.005,412.976L-198.005,412.976z M-194.503,446.092c7.774,3.383,9.14,4.036,11.216,5.579
	c6.707,4.807,7.775,11.632,2.67,16.913c-2.314,2.434-9.198,5.817-12.877,6.291c-13.828,1.959-20.95-0.83-23.68-9.258
	c-0.593-1.78-0.593-2.67,0.06-4.45c1.958-5.698,4.807-8.606,12.522-12.583c2.67-1.424,5.104-2.789,5.46-3.086
	C-198.361,444.727-197.352,444.846-194.503,446.092z M-231.358,398.792c-1.068,1.068-0.89,3.502,0.356,4.392
	c2.137,1.662,6.054,0.297,6.054-2.018C-224.948,398.852-229.696,397.13-231.358,398.792z M-168.391,397.487
	c-2.967,1.187-0.652,5.34,2.968,5.34c1.424,0,3.383-1.602,3.383-2.848c0-1.602-4.333-3.264-6.35-2.492H-168.391z M-198.005,431.61
	c-0.237,0.475-0.178,1.306,0,1.84c0.475,1.246,2.968,0.83,3.205-0.594C-194.444,431.016-197.352,429.889-198.005,431.61z
	 M-201.685,460.394c-1.008,1.661-0.89,2.73,0.594,4.154c3.383,3.086,7.3-0.95,4.451-4.63c-0.89-1.186-4.154-0.89-5.044,0.476
	H-201.685z"/>
</svg>
