<?xml version="1.0" encoding="iso-8859-1"?>
<!-- Generator: Adobe Illustrator 19.0.0, SVG Export Plug-In . SVG Version: 6.00 Build 0)  -->
<svg version="1.2" baseProfile="tiny" id="Layer_1" xmlns="http://www.w3.org/2000/svg" xmlns:xlink="http://www.w3.org/1999/xlink"
	 x="0px" y="0px" viewBox="-247 360.89 100 120" xml:space="preserve">
<title>face_00075</title>
<path d="M-181.892,363.216c-1.394,1.277-4.007,3.31-5.75,4.53c-5.342,3.6-5.458,3.832-4.994,9.407
	c0.175,2.671,0.465,5.343,0.581,5.982c0.116,0.638,0.232,2.09,0.232,3.252l0.059,2.09l5.69-0.232
	c3.078-0.116,7.027-0.349,8.711-0.523l3.02-0.29v-3.775c0-4.355,0.232-4.471,4.994-2.265c3.252,1.51,4.936,1.452,3.717-0.058
	c-0.407-0.406-1.278-0.929-1.916-1.161c-0.697-0.232-2.73-1.045-4.472-1.8c-7.143-3.194-10.86-4.762-13.473-5.75
	c-1.568-0.522-2.787-1.219-2.787-1.51c0-0.232,1.22-1.335,2.671-2.38c1.51-0.988,3.775-2.73,4.994-3.717
	c2.207-1.8,2.381-1.858,4.123-1.103c1.046,0.464,3.194,1.393,4.762,2.032c1.626,0.697,3.717,1.626,4.646,2.09
	c0.987,0.465,3.078,1.395,4.646,2.033c5.749,2.381,8.42,3.717,8.42,4.065c0,0.233-0.87,1.046-1.974,1.8
	c-2.555,1.8-11.034,8.247-11.382,8.711c-0.174,0.175-3.95,3.136-8.42,6.563c-4.472,3.426-10.163,7.781-12.66,9.698
	c-2.497,1.916-4.936,3.658-5.401,3.832c-0.639,0.233-0.755,1.162-0.523,4.182c0.175,2.09,0.407,6.678,0.581,10.22
	c0.116,3.485,0.232,6.562,0.232,6.795c0.058,0.174,1.568,1.22,3.427,2.322c1.8,1.046,3.948,2.323,4.761,2.788
	c0.813,0.465,2.904,1.626,4.588,2.613c1.684,0.93,4.53,2.613,6.33,3.717c1.8,1.045,4.762,2.73,6.504,3.716
	c4.994,2.73,4.936,2.556,1.742,5.11c-1.51,1.22-5.11,4.182-7.956,6.621c-4.065,3.542-5.168,4.181-5.284,3.368
	c-0.116-0.58-0.407-1.277-0.639-1.51c-0.523-0.522-14.17,0.174-15.157,0.755c-0.464,0.29-0.522,2.149-0.116,7.027
	c0.407,4.471,0.349,6.969-0.058,7.782c-0.58,1.103-0.58,1.103-1.045,0c-0.233-0.64-0.465-4.124-0.465-7.724l-0.058-6.504
	l-6.098-0.116c-3.368-0.058-6.968-0.116-7.955-0.116c-1.8-0.058-1.917,0.058-1.743,1.8c0.117,0.987-0.058,1.974-0.406,2.207
	c-0.813,0.464-16.957-7.84-16.55-8.479c0.174-0.29,2.845-2.497,5.923-4.994c3.078-2.44,8.13-6.446,11.15-8.885
	c3.02-2.44,6.852-5.285,8.536-6.388c1.626-1.103,2.846-2.207,2.672-2.497c-0.175-0.29-0.407-5.75-0.465-12.195
	c-0.174-9.234-0.348-11.73-0.987-12.021c-0.465-0.174-1.742-0.987-2.846-1.917c-1.161-0.87-2.265-1.567-2.439-1.567
	c-0.232,0-1.742-0.872-3.426-1.975c-1.684-1.045-5.691-3.252-8.885-4.878s-6.33-3.31-6.91-3.775
	c-1.046-0.755-0.988-0.87,0.928-2.323c1.104-0.87,2.207-1.567,2.381-1.567c0.175,0,0.407,0.87,0.523,1.858l0.174,1.916l6.969,0.174
	c4.065,0.117,7.898-0.116,9.233-0.464l2.265-0.697l-0.406-2.613c-0.175-1.452-0.349-5.227-0.349-8.363
	c0-3.252-0.232-5.749-0.58-5.749c-0.581,0-10.976-6.736-13.357-8.653c-0.813-0.638-1.742-1.219-2.149-1.219
	c-0.638,0-5.807,3.659-10.046,7.027c-0.813,0.638-4.53,3.426-8.304,6.213l-6.853,5.053l0.348,9c0.29,7.434,0.523,9.118,1.336,9.757
	c0.523,0.406,4.878,2.845,9.698,5.4c10.163,5.46,17.131,9.699,17.131,10.454c0,0.464-10.162,9.117-16.086,13.705
	c-1.567,1.22-4.761,3.716-7.084,5.633l-4.24,3.426l0.407,10.801c0.232,5.924,0.639,11.266,0.93,11.789
	c0.29,0.522,7.258,4.297,15.446,8.42c8.246,4.065,15.796,8.014,16.9,8.711c1.044,0.755,2.264,1.336,2.729,1.336
	c0.464,0,0.987,0.232,1.161,0.58c0.639,0.988,1.336,0.64,2.381-1.161c0.58-0.93,1.684-1.974,2.497-2.265
	c0.871-0.348,2.788-1.335,4.297-2.265l2.788-1.626l7.491,3.775l7.55,3.775l0.929-1.278c0.929-1.336,7.781-6.968,17.886-14.808
	c3.252-2.44,7.317-5.924,9.117-7.724c2.788-2.73,3.543-3.136,4.82-2.787c1.22,0.29,1.51,0.174,1.51-0.755
	c0-0.58-0.29-1.394-0.639-1.742c-0.406-0.407-0.58-3.891-0.58-9.64l0.058-9.001l-3.02-1.743c-1.684-0.987-4.007-2.264-5.11-2.903
	c-1.104-0.639-5.053-2.904-8.711-5.052c-3.224-1.893-6.457-3.771-9.699-5.634c-1.684-0.93-3.194-1.975-3.369-2.207
	c-0.174-0.29,0.813-1.452,2.15-2.613c3.425-2.904,12.543-9.002,13.53-9.002c0.464,0,1.045-0.348,1.277-0.755
	c0.697-1.161,9.466-7.49,10.57-7.665c0.813-0.116,0.929-1.394,0.929-10.511v-10.394l-2.323-1.161
	c-1.278-0.697-3.252-1.568-4.356-2.033c-2.845-1.103-13.182-5.633-15.97-6.969c-1.277-0.638-3.368-1.51-4.645-1.974l-2.38-0.813
	L-181.892,363.216z M-220.336,365.596c0.349,0.407,2.904,2.208,5.575,3.95c2.73,1.742,4.936,3.368,4.936,3.716
	c0,0.988-19.28,14.75-20.732,14.809c-0.87,0-9.465-4.646-11.672-6.33l-1.394-1.045l4.588-3.369
	c2.555-1.858,7.317-5.458,10.627-7.956c3.31-2.497,6.388-4.53,6.736-4.53c0.407,0,0.988,0.35,1.336,0.756V365.596z
	 M-187.061,375.586c0.233,0.928,0.407,3.774,0.465,6.213l0.058,4.53h-1.684c-1.568,0-1.626-0.117-2.033-3.543
	c-0.174-1.974-0.348-4.878-0.348-6.446c0-2.787,0.058-2.845,1.568-2.671c1.278,0.116,1.684,0.58,1.974,1.916V375.586z
	 M-207.792,378.837c0.174,1.975,0.348,4.878,0.348,6.388c0,2.788-0.058,2.846-1.742,2.846h-1.742v-5.343
	c0-4.123,0.232-5.517,0.987-6.388c0.523-0.58,1.103-1.045,1.336-1.045C-208.373,375.295-208.025,376.921-207.792,378.837z
	 M-151.579,378.198c0.117,1.336-0.058,2.381-0.464,2.556c-0.697,0.29-12.544,8.594-14.809,10.453
	c-0.813,0.696-2.497,1.974-3.716,2.961c-1.391,1.034-2.729,2.139-4.007,3.31c-0.987,0.93-1.975,1.626-2.149,1.626
	c-0.813,0-11.266,8.827-11.092,9.35c0.117,0.465-3.774-0.871-4.471-1.568c-0.174-0.116,0.29-0.639,0.987-1.103
	c0.639-0.523,1.568-1.22,1.975-1.626c0.406-0.407,4.007-3.194,8.014-6.214c4.006-3.02,7.375-5.633,7.549-5.807
	c0.174-0.175,1.742-1.394,3.484-2.73c1.742-1.335,6.446-4.878,10.453-7.956c4.007-3.077,7.433-5.574,7.608-5.574
	C-151.985,375.876-151.695,376.921-151.579,378.198z M-177.014,378.488c0.987,1.046,1.161,5.924,0.232,7.086
	c-0.348,0.406-1.103,0.755-1.684,0.755c-1.103,0-1.278-0.465-1.278-4.066c0-3.774,0.175-4.645,0.988-4.645
	C-178.292,377.618-177.536,378.024-177.014,378.488z M-218.013,386.096c-0.174,1.975-0.348,2.265-1.742,2.44
	c-1.51,0.173-1.626,0.057-1.626-2.091c0-1.8,0.29-2.381,1.335-2.846C-218.303,382.786-217.781,383.425-218.013,386.096z
	 M-241.997,384.18c0.639,0.464,2.846,1.742,4.936,2.845c2.091,1.104,5.75,3.194,8.13,4.53c2.381,1.394,6.214,3.484,8.42,4.588
	c6.97,3.6,14.81,8.42,14.81,9.175c0,1.161-2.614,2.555-3.833,2.09c-0.581-0.232-3.078-1.625-5.46-3.077
	c-12.427-7.724-16.898-10.453-20.615-12.486c-6.794-3.658-9.001-5.4-9.001-6.968C-244.61,383.251-243.68,383.018-241.997,384.18z
	 M-151.637,391.787c-0.58,1.51-3.02,3.31-14.75,11.208c-4.413,2.962-9.524,6.562-11.266,7.956c-2.73,2.149-3.426,2.44-4.355,1.916
	c-0.581-0.406-0.988-0.929-0.871-1.277c0.116-0.29,3.077-2.73,6.562-5.343c3.484-2.671,6.968-5.342,7.781-5.981
	c0.813-0.639,3.02-2.265,4.936-3.6c1.917-1.336,5.285-3.833,7.55-5.576c3.775-2.903,4.007-3.02,4.471-1.916
	C-151.346,389.871-151.404,391.032-151.637,391.787z M-228.814,403.111c2.845,1.8,7.2,4.53,9.756,6.156
	c2.555,1.568,4.645,3.136,4.645,3.368s-0.464,0.639-0.987,0.813c-0.987,0.407-1.277,0.232-7.723-3.716
	c-2.09-1.278-5.866-3.427-8.42-4.82c-13.357-7.085-12.487-6.505-12.487-8.595V394.4l5.11,2.729c2.788,1.568,7.317,4.24,10.105,5.981
	L-228.814,403.111z M-204.018,411.996c0.233,5.633,0.233,5.633,0.116,11.266l-0.058,5.285l-2.729,1.8
	c-2.787,1.8-4.704,3.252-7.956,5.982c-7.143,5.98-18.118,14.46-18.757,14.46c-0.413,0.007-0.747,0.341-0.755,0.754
	c0,0.697-7.782,6.795-8.71,6.795c-0.291,0-0.523-2.962-0.582-6.562c-0.058-3.543-0.174-7.782-0.29-9.35
	c-0.232-3.426-0.58-3.02,11.847-13.008c4.587-3.775,9.872-7.956,11.614-9.408c7.55-6.04,14.925-11.614,15.505-11.614
	C-204.424,408.396-204.076,409.848-204.018,411.996z M-189.093,410.776c1.22,0.64,3.6,2.091,5.284,3.195
	c1.684,1.103,3.31,1.974,3.543,1.974c0.232,0,1.8,0.93,3.426,2.033c1.684,1.103,3.194,2.032,3.31,2.032
	c0.174,0,1.742,0.93,3.484,2.033c1.743,1.103,3.31,2.032,3.485,2.032c0.174,0,2.671,1.452,5.575,3.194
	c2.903,1.742,5.4,3.194,5.575,3.194c0.116,0,1.277,0.697,2.555,1.51l2.323,1.568v7.724c0,4.297-0.116,7.781-0.29,7.781
	c-0.175,0-2.44-1.335-5.111-3.02c-2.613-1.625-7.085-4.355-9.988-5.98c-13.763-7.899-23.926-13.764-24.74-14.403
	c-0.754-0.58-0.986-2.148-1.219-8.42c-0.116-4.181,0-7.666,0.233-7.666c0.232,0,1.393,0.523,2.555,1.22V410.776z M-159.941,446.375
	c-0.174,0.813-9.93,9.233-19.048,16.55c-3.368,2.73-6.213,5.053-6.388,5.285c-0.174,0.174-1.451,1.278-2.903,2.44
	c-2.323,1.915-2.73,2.032-3.949,1.393c-1.336-0.697-1.336-0.755,2.032-3.6c1.859-1.627,5.227-4.298,7.434-6.04
	c2.265-1.742,6.562-5.285,9.582-7.898c7.955-6.794,11.672-9.466,12.601-9.117C-160.115,445.562-159.825,446.027-159.941,446.375z
	 M-152.334,450.73c0.697,0.465,0.697,0.697,0,1.626c-0.987,1.452-6.271,6.214-9.814,8.885c-4.471,3.369-16.492,12.95-18.002,14.344
	c-1.626,1.51-2.09,1.568-3.949,0.523c-1.336-0.697-1.045-0.987,8.595-8.827c11.091-8.943,21.602-17.073,22.067-17.073
	C-153.263,450.208-152.798,450.44-152.334,450.73z M-220.336,459.15c13.473,7.028,14.983,7.899,18.815,10.454
	c2.556,1.742,2.788,2.032,1.859,2.555c-1.22,0.639-1.742,0.348-14.228-7.201c-4.297-2.613-10.279-5.981-13.298-7.55
	c-1.913-0.993-3.83-1.98-5.75-2.961c-0.232-0.116,0.523-1.336,0.872-1.336c0.174,0,5.458,2.73,11.73,6.04L-220.336,459.15z
	 M-182.821,456.363c0.522,0.175,0.929,0.871,0.929,1.568c0,1.162-2.09,3.252-7.666,7.434l-3.078,2.322l-0.406-2.206
	c-0.232-1.22-0.407-3.543-0.407-5.227c-0.058-2.962,0-3.02,1.859-3.368c0.987-0.174,3.194-0.348,4.762-0.465
	c1.626-0.116,2.961-0.232,3.02-0.29C-183.751,456.073-183.344,456.189-182.821,456.363z M-199.895,458.163
	c0.29,0.29,0.059,9.06-0.29,9.35c-0.116,0.116-2.613-1.103-5.459-2.787c-4.936-2.846-5.284-3.194-5.284-4.936
	c0-0.988,0.116-1.975,0.29-2.15c0.349-0.29,10.337,0.117,10.743,0.524V458.163z M-235.899,459.79c2.591,1.367,5.147,2.8,7.665,4.297
	c2.672,1.51,7.317,4.123,10.337,5.75c3.02,1.625,6.62,3.483,7.956,4.238c1.336,0.697,2.323,1.51,2.149,1.8
	c-0.581,0.93-3.136,0.465-5.866-1.16c-1.51-0.872-6.155-3.253-10.336-5.285c-4.182-2.033-9.698-4.879-12.37-6.272
	c-4.646-2.555-4.762-2.672-3.833-3.717C-238.977,458.106-239.325,458.047-235.899,459.79L-235.899,459.79z"/>
</svg>
