<?xml version="1.0" encoding="iso-8859-1"?>
<!-- Generator: Adobe Illustrator 19.0.0, SVG Export Plug-In . SVG Version: 6.00 Build 0)  -->
<svg version="1.2" baseProfile="tiny" id="Layer_1" xmlns="http://www.w3.org/2000/svg" xmlns:xlink="http://www.w3.org/1999/xlink"
	 x="0px" y="0px" viewBox="-247 369.89 100 103" xml:space="preserve">
<title>face_00090</title>
<path d="M-218.454,370.95c8.257,1.031,10.665,2.407,14.908,8.6c4.129,6.078,5.39,6.766,2.638,1.376
	c-4.473-8.142-9.633-11.238-18.463-11.009l-5.39,0.23l6.307,0.802V370.95z M-177.169,371.064c-3.212,0.688-2.753,0.803,2.064,0.344
	c3.325-0.344,7.913-0.115,10.32,0.344c4.13,0.917,4.13,0.917-2.637,1.605l-6.88,0.689l6.995,0.114
	c5.963,0.23,7.34,0.688,9.862,3.326c5.39,5.848,6.996,10.321,6.422,18.693c-0.573,6.995-2.637,13.532-4.013,12.27
	c-0.23-0.344,0-1.605,0.688-2.867c0.688-1.376,1.261-5.963,1.261-10.32c0-9.29-2.752-14.45-9.289-17.776
	c-3.555-1.72-4.931-1.835-10.894-0.574c-5.62,1.147-6.308,1.491-3.9,2.18c2.638,0.687,2.638,0.802,0.345,0.917
	c-1.377,0.114-2.867,0.573-3.211,1.261c-0.345,0.574-1.606,1.147-2.638,1.147c-1.72-0.115-1.72-0.23,0.23-1.72
	c1.26-0.918,1.834-1.72,1.146-1.72c-1.605,0.114-5.62,3.44-4.128,3.44c1.146,0,1.146,0.344,0,1.606
	c-0.803,0.917-1.835,1.376-2.294,1.146c-0.459-0.344-0.803,0.46-0.688,1.491c0,1.147-0.803,4.129-1.835,6.652l-1.835,4.587
	l0.459-4.587c0.344-2.523,0.23-3.67,0-2.638c-0.344,1.147-1.147,2.064-1.72,2.064c-1.491,0-1.376-0.688,1.261-5.734
	c2.409-4.816,7.57-9.174,13.188-11.353l3.44-1.261l-3.44,0.688c-4.243,0.688-10.55,5.619-14.105,10.78
	c-3.9,5.733-7.454,5.733-10.321,0c-0.803-1.606-1.032-1.835-0.688-0.574c0.458,1.262,0.917,8.716,1.146,16.628l0.23,14.335
	l-0.803-13.188c-0.459-8.83-1.376-14.335-2.638-16.628c-2.178-4.129-7.912-10.092-8.715-9.174c-0.344,0.344,1.032,1.95,2.981,3.555
	c4.817,4.013,7.225,11.811,6.881,21.789c-0.344,7.798-0.344,7.798-4.931,10.435c-5.39,2.982-13.417,3.44-17.775,0.803
	c-2.753-1.605-2.638-1.605,2.752-0.917c3.9,0.573,5.39,0.344,4.817-0.46c-0.46-0.802,0.458-1.031,2.981-0.687
	c3.097,0.573,4.358,0,7.11-2.752c3.555-3.9,5.16-11.354,3.211-16.285c-0.802-2.293-1.032-1.376-0.917,4.473
	c0.115,6.88,0,7.34-3.9,10.55c-3.669,3.096-6.88,4.358-6.88,2.638c0-0.344,1.262-1.72,2.867-2.982
	c4.129-3.21,6.537-8.257,5.275-11.353c-0.802-2.294-1.032-2.064-1.49,2.064c-0.689,4.702-3.212,8.257-7.684,10.55
	c-6.651,3.67-13.761-0.802-14.679-9.403c-0.803-6.307,1.147-10.092,6.422-12.27c1.95-0.804,3.555-1.95,3.555-2.524
	c0-1.605-6.766,2.638-9.289,5.849c-2.408,2.982-2.867,9.633-1.032,14.45c0.688,1.72,0.688,2.752,0.115,2.293
	c-2.523-1.49-3.785-8.716-2.523-13.876c0.688-2.867,1.032-5.734,0.573-6.307c-0.344-0.689,0-2.065,0.918-3.211
	c0.802-1.033,0.344-0.803-1.032,0.688c-2.638,2.752-4.932,9.173-4.932,13.761c0,3.211,3.44,10.78,5.734,12.73
	c4.243,3.554,6.881,4.93,11.583,5.848l5.046,1.032l-4.931,0.115c-7.11,0.115-12.386-2.752-15.94-8.716
	c-2.638-4.472-2.868-5.963-2.294-12.614c0.344-4.588,0.114-6.881-0.46-5.964c-0.573,0.918-1.031,4.129-1.031,7.225
	c0,7.34-1.262,6.078-2.294-2.408c-0.803-6.422-0.803-6.537-0.917-1.491c-0.115,2.867,0.802,7.913,1.95,11.353
	c1.949,5.62,2.063,6.652,0.573,10.78c-1.95,5.505-1.376,7.11,0.688,1.72c1.376-3.784,1.376-3.784,2.293-0.917
	c0.688,2.408,0.918,2.523,1.72,0.917c0.46-1.032,0.345-2.637-0.114-3.44c-0.688-1.147-0.459-1.262,0.803,0
	c1.261,1.147,1.261,2.293,0.114,6.536c-4.243,15.94,1.376,29.588,15.482,37.5c4.128,2.294,6.078,4.129,6.078,5.734
	c0,1.147,0.459,1.95,1.032,1.491c0.573-0.344,1.376-0.114,1.835,0.574c0.344,0.573,1.147,1.146,1.72,1.146s-0.23-1.834-1.72-4.128
	c-1.606-2.294-2.867-5.849-2.867-7.913c0-3.44,3.44-8.6,5.734-8.6c1.605,0,1.376,1.949-0.23,2.752c-0.802,0.344,0,0.229,1.835-0.115
	c2.294-0.459,3.097-0.23,2.523,0.573c-0.688,1.262,4.702,2.753,8.487,2.294c6.65-0.688,11.238,1.72,5.504,2.867
	c-1.605,0.344-0.803,0.573,1.95,0.688l4.587,0.23l-4.014,1.72c-4.587,1.949-13.876,1.72-14.679-0.46
	c-0.23-0.917,1.032-1.375,4.014-1.49l4.358-0.115l-4.587-0.917c-5.276-1.032-6.308-0.688-6.308,2.293
	c0,4.129,10.78,5.16,18.349,1.72c5.39-2.408,5.848-4.243,1.49-6.192c-2.178-1.032-2.637-1.72-1.72-2.638
	c1.835-1.835,7.11,3.097,7.11,6.537c0,5.046-8.6,10.894-15.94,10.894c-4.128,0-5.734-1.95-2.179-2.637
	c2.18-0.344,2.065-0.574-0.688-0.688c-1.835,0-4.358-0.918-5.504-2.064c-1.606-1.491-2.065-1.491-2.065-0.23
	c-0.114,1.032-0.917,0.574-2.293-1.147c-1.262-1.49-2.294-4.013-2.18-5.734c0.116-3.21,0.345-2.637,1.492,2.523
	c0.458,1.72,1.261,3.097,1.835,3.097c0.688,0,0.573-0.918-0.23-2.18c-1.032-1.72-1.032-2.637,0.344-4.242
	c0.918-1.147,1.032-1.72,0.23-1.262c-0.688,0.459-1.606,0.344-2.065-0.344c-1.49-2.408-2.867-0.917-2.867,3.097
	c0.115,7.224,7.11,12.958,15.94,12.958c5.85,0,9.634-1.49,15.138-5.848c2.523-1.95,4.473-2.982,4.473-2.294
	c0,1.606,7.683-2.179,12.5-6.193c1.95-1.72,3.555-3.67,3.555-4.357c0-0.918-0.344-0.918-0.917-0.23
	c-3.556,4.817-12.844,10.321-12.844,7.569c0-0.573,1.032-1.49,2.293-1.835c1.262-0.344,2.294-1.261,2.294-1.835
	c0-0.688-1.032-0.802-2.523-0.458c-1.95,0.688-2.294,0.458-1.72-1.033c0.458-1.032,0.229-1.834-0.344-1.834
	c-1.606,0-1.377-1.835,0.344-3.67c3.21-3.211,4.587-8.945,3.899-16.514c-0.688-8.715,1.032-8.486,2.637,0.23
	c1.032,5.504,1.032,5.39,0.574-1.835l-0.344-7.455l2.178,4.588c1.606,3.21,2.065,6.192,1.835,10.206
	c-0.344,4.129-0.229,5.046,0.688,3.555c1.033-1.95,0.46-12.156-1.032-15.94c-0.344-1.032-0.229-1.835,0.459-1.835
	c2.064,0,4.014,8.027,3.211,14.22c-0.344,3.9-0.23,5.046,0.459,3.555c0.573-1.261,1.032-5.62,1.032-9.633
	c0.115-5.504,0.459-7.11,1.376-6.193c0.803,0.803,1.147,4.588,0.803,9.863c-0.23,4.816,0,8.027,0.458,7.34
	c0.46-0.803,0.918-5.964,0.918-11.583c0-8.257,0.23-9.977,1.49-8.83c0.918,0.917,1.377,4.816,1.377,11.123
	c0,6.881,0.23,8.83,0.917,6.537c0.459-1.72,0.688-7.225,0.344-12.156c-0.573-8.83,0.688-12.041,2.065-5.275
	c1.261,6.422,0.688,16.514-1.147,22.018c-2.294,6.652-4.587,8.601-3.555,2.982l0.688-3.9l-2.294,4.588
	c-1.147,2.523-3.899,6.193-5.848,8.371c-4.244,4.244-14.909,9.748-15.94,8.143c-0.345-0.574-2.18,0.229-4.015,1.834l-3.325,2.982
	l3.44-0.803c1.95-0.458,4.931-1.49,6.652-2.408c1.834-0.917,3.899-1.376,4.587-1.147c2.867,0.918-10.207,5.39-17.431,6.078
	c-9.06,0.688-16.17,0.574-17.661-0.344c-0.688-0.344-3.211-0.802-5.849-0.917c-6.766-0.23-15.137-4.702-22.477-12.041
	c-7.11-7.225-10.091-14.22-10.78-25.803c-0.229-4.243-0.344-3.326-0.229,2.408c0.115,7.913,0.573,10.206,3.555,15.94
	c6.193,12.042,22.821,21.79,41.4,24.083c9.976,1.261,27.293-4.243,38.417-12.156c5.504-3.899,3.784-4.702-1.95-0.917
	c-2.867,1.95-5.39,3.325-5.734,3.096c-0.23-0.344,1.491-1.95,4.014-3.555c2.523-1.72,5.39-4.587,6.537-6.537
	c1.146-1.835,2.523-3.44,2.981-3.44c1.376,0,1.147,3.21-0.23,4.014c-1.375,0.802-1.49,2.867-0.228,2.867
	c0.458,0,2.293-3.211,4.243-7.225c3.899-8.257,5.16-20.298,2.981-29.129c-1.032-3.67-1.032-5.619-0.229-6.422
	c0.688-0.688,1.261-2.064,1.261-3.096c-0.114-1.261-0.458-1.147-1.376,0.573c-1.95,3.555-9.289,10.895-10.894,10.895
	c-0.803,0-1.491-0.803-1.491-1.72c0-2.065-0.115-2.065-4.128,0c-1.835,0.917-5.505,1.72-8.143,1.72h-4.93l1.834,4.587
	c1.261,3.096,1.72,6.422,1.261,9.518c-0.458,3.785-0.344,4.358,0.574,2.638c0.688-1.261,0.917-4.931,0.459-9.06
	c-0.574-5.619-0.46-6.766,0.688-5.619c0.917,0.918,1.49,4.243,1.376,8.028c-0.115,6.422-0.344,7.798-2.18,11.926
	c-1.26,2.982-3.21,2.523-2.178-0.458c0.688-2.409,0.688-2.409-1.147-0.574c-1.147,1.032-1.605,2.408-1.261,3.096
	c1.376,2.294,1.605,10.207,0.344,11.01c-0.803,0.458-0.918,0.344-0.459-0.574c0.459-0.688-0.573-2.752-2.523-4.702l-3.44-3.325
	l3.21-3.555c5.276-5.964,5.276-21.79,0-20.07c-1.26,0.345-2.293-0.114-2.752-1.26c-0.458-1.033-1.49-1.606-2.408-1.147
	c-1.147,0.458-1.72-0.115-1.72-1.72c0-1.835,0.344-2.065,2.179-1.033c1.261,0.574,3.21,1.147,4.358,1.147
	c1.376-0.115,0.688-0.917-2.18-2.638c-4.128-2.408-6.192-6.307-2.637-4.93c2.294,0.802,2.18,0.458-0.573-2.753
	c-1.262-1.49-2.294-4.243-2.294-6.193l0.115-3.555l1.835,3.44c3.555,6.767,9.633,10.895,15.825,10.78
	c5.046-0.114,4.588-0.458-2.064-1.605c-8.257-1.376-15.137-11.697-12.843-19.037c1.606-4.816,5.505-9.747,9.06-11.353
	c4.014-1.835,11.238-2.179,15.596-0.803c2.638,0.803,2.638,0.803,0.574-0.573c-1.262-0.688-4.358-1.72-6.881-2.179
	c-4.473-0.688-4.473-0.803,1.605-0.917c5.62-0.115,6.422,0.229,10.55,4.357c4.359,4.358,4.473,4.702,4.473,12.5
	c0,7.913-2.637,16.858-4.702,15.711c-0.458-0.344-1.146,0.23-1.49,1.147c-0.46,1.491-0.23,1.606,1.605,0.574
	c1.262-0.688,2.294-0.803,2.294-0.344c0,1.261,4.013-3.326,5.16-5.964c0.574-1.261,1.376-5.619,1.835-9.747l0.803-7.455
	l-0.344,8.945c-0.115,5.16,0.23,8.487,0.803,7.913c1.376-1.376,1.72-12.27,0.573-17.775c-0.688-3.211-1.376-4.243-2.638-3.784
	c-1.261,0.458-1.49,0-0.917-2.18c0.917-3.898-4.587-9.059-11.468-10.78c-5.734-1.375-8.486-1.375-14.45,0V371.064z
	 M-243.225,425.536c-2.178,15.024,4.129,27.982,17.661,35.895c6.422,3.784,7.11,4.014,7.11,2.637c0-0.458-2.179-1.834-4.816-2.981
	c-6.078-2.867-12.96-9.977-16.285-16.743c-1.95-4.129-2.408-7.11-2.293-14.68c0.114-5.16,0-9.403-0.23-9.403
	C-242.192,420.261-242.766,422.555-243.225,425.536z M-169.027,445.032c-0.803,1.835-1.72,4.587-1.95,6.192l-0.459,2.867
	l2.294-2.867c3.211-4.013,6.193-9.862,4.128-8.142c-1.261,1.032-1.72,1.032-2.064,0
	C-167.308,442.394-168.225,443.312-169.027,445.032L-169.027,445.032z M-168.569,448.702c-1.72,1.834-1.834,1.72-0.458-1.377
	c0.802-1.72,1.72-2.637,1.95-1.835c0.343,0.803-0.345,2.18-1.492,3.211V448.702z M-160.999,445.032c0,1.261,0.343,1.605,0.687,0.688
	c0.344-0.803,0.23-1.835-0.114-2.18c-0.344-0.458-0.688,0.23-0.574,1.492H-160.999z M-183.477,447.784
	c0.344,0.573,1.262,1.147,1.835,1.147c0.688,0,0.803-0.574,0.459-1.147c-0.344-0.688-1.262-1.147-1.835-1.147
	C-183.706,446.637-183.821,447.096-183.477,447.784z M-196.092,463.839c-2.178,0.918-2.178,1.032,0.23,1.032
	c1.376,0.115,2.867-0.459,3.21-1.032C-191.848,462.463-192.881,462.463-196.092,463.839z M-230.725,372.211
	c-2.064,0.573-3.784,1.72-3.784,2.408c0,1.032,0.344,1.032,1.376,0c0.803-0.803,2.18-1.376,3.097-1.376
	c1.032,0-0.345,2.064-3.44,4.816c-2.868,2.753-3.9,3.9-2.294,2.523c6.192-4.931,9.289-6.192,15.252-6.192
	c4.014,0,7.454,0.802,10.092,2.293l4.013,2.408l-3.44-2.981c-2.638-2.18-4.702-2.867-8.83-2.867c-2.982,0-5.734-0.574-6.078-1.147
	C-225.564,370.834-225.793,370.834-230.725,372.211z M-240.358,379.779l-3.899,4.358l4.358-3.899c3.9-3.784,4.817-4.702,3.9-4.702
	C-236.229,375.536-238.179,377.486-240.358,379.779z M-231.183,379.779c-1.491,1.95-1.491,1.95,0.688,0.344
	c1.261-0.917,2.523-1.834,2.752-1.95c0.23-0.228,0-0.343-0.688-0.343s-1.95,0.917-2.752,1.95V379.779z M-230.381,382.302
	c-0.458,0.574,0.345,0.803,1.606,0.46c2.638-0.689,2.982-1.492,0.688-1.492C-229.004,381.27-230.037,381.729-230.381,382.302z
	 M-218.454,385.169c0,0.23,0.803,0.803,1.835,1.147c0.917,0.344,1.376,0.23,1.032-0.459
	C-216.275,384.711-218.454,384.252-218.454,385.169z M-226.481,388.724c-3.785,2.18-2.409,2.18,2.408,0
	c2.179-0.917,3.096-1.605,2.179-1.605C-222.812,387.119-224.876,387.807-226.481,388.724z M-213.293,389.298
	c0.344,0.573,0.917,1.147,1.261,1.147c0.23,0,0.459-0.574,0.459-1.147c0-0.688-0.574-1.147-1.262-1.147
	C-213.408,388.151-213.637,388.61-213.293,389.298z M-232.33,394.344c-2.752,5.848,3.67,14.335,9.633,12.844
	c4.816-1.147,7.683-4.358,8.257-9.29l0.573-4.586l-1.147,4.587c-1.49,5.848-6.536,9.174-10.894,7.224
	c-1.606-0.688-2.867-1.72-2.867-2.293s0.573-0.688,1.147-0.344c0.688,0.344,1.147,0.23,1.147-0.459c0-0.573-0.46-1.49-1.147-1.835
	c-0.574-0.344-1.147-1.72-1.147-2.981c0-1.262-0.573-1.95-1.147-1.606c-0.688,0.344-0.917,2.064-0.573,3.785
	c0.573,2.867,0.573,2.867-0.459,0.458c-0.803-1.605-0.803-3.555-0.115-5.39C-229.692,390.788-230.725,390.674-232.33,394.344z
	 M-227.399,392.509c-1.835,1.261-0.115,6.422,2.408,7.454c2.409,0.917,4.588-0.917,4.014-3.326c-0.23-1.49-1.376-2.179-3.44-2.179
	c-2.408,0.115-2.752-0.229-1.835-1.376C-224.876,391.362-225.22,391.247-227.399,392.509z M-223.041,397.325
	c0,0.574-0.23,1.147-0.459,1.147c-0.344,0-0.917-0.573-1.261-1.147c-0.344-0.688-0.115-1.146,0.458-1.146
	C-223.614,396.179-223.041,396.637-223.041,397.325z M-219.027,394.688c0.917,3.325-1.262,7.224-4.014,7.224
	c-1.262,0-2.294,0.46-2.294,1.033c0,0.688,1.377,0.688,3.44-0.115c3.9-1.262,5.505-5.275,3.441-8.601
	C-219.601,392.394-219.601,392.394-219.027,394.688z M-192.766,378.862c-6.651,6.766-7.454,7.913-6.192,8.716
	c0.688,0.344,1.49-0.23,1.95-1.377c0.343-1.146,2.866-4.243,5.618-6.995c2.638-2.638,4.358-4.816,3.9-4.816
	C-187.95,374.39-190.358,376.454-192.766,378.862z M-219.6,376.683c0.918,0.574,2.294,1.147,2.867,1.147
	c0.688,0,0.344-0.573-0.573-1.147c-0.918-0.573-2.179-1.147-2.867-1.147C-220.746,375.536-220.517,376.11-219.6,376.683z
	 M-171.664,383.449c5.39,0.918,6.193,1.491,8.716,6.422c1.376,2.638,1.835,2.982,1.835,1.147c-0.115-4.817-5.505-8.716-11.698-8.486
	C-176.251,382.646-176.136,382.762-171.664,383.449z M-183.934,388.724c-4.817,7.225-3.097,16.285,3.784,20.07
	c7.454,3.898,18.578-2.294,19.725-10.895l0.573-4.587l-1.72,4.587c-2.408,6.307-7.684,10.894-12.73,10.894
	c-4.128,0-8.6-2.867-8.6-5.39c0-0.802-0.46-1.49-1.147-1.49c-2.18,0-1.262-9.863,1.261-13.074c1.376-1.72,2.294-3.326,1.95-3.555
	C-181.068,385.054-182.444,386.546-183.934,388.724L-183.934,388.724z M-179.462,389.298c-3.211,3.21-3.211,11.353,0,14.105
	c8.027,6.881,19.725-5.275,13.073-13.646c-1.605-2.065-1.72-2.065-0.458,0.458c0.802,1.606,1.032,4.587,0.573,7.11
	c-0.917,5.734-5.505,8.028-10.55,5.276l-3.211-1.72l3.784,0.687c6.078,1.033,10.321-4.243,6.995-8.83
	c-0.917-1.376-1.032-1.032-0.573,1.376c0.459,1.95,0.115,3.67-1.147,4.817c-2.981,2.981-5.963,2.179-8.027-2.18
	c-1.835-4.013-1.835-4.128,0.688-6.88C-175.105,386.431-176.136,385.972-179.462,389.298z M-157.902,392.623
	c0.688,8.028-1.377,13.189-6.996,17.317c-2.523,1.835-4.128,3.44-3.44,3.44c2.064,0,8.257-5.734,10.092-9.289
	c1.834-3.44,2.408-15.367,0.802-16.399C-158.017,387.348-158.246,389.527-157.902,392.623z M-175.908,393.77
	c-2.179,1.376-0.688,4.702,2.064,4.702c2.982,0,4.129-1.95,2.408-4.014C-173.041,392.508-173.729,392.394-175.908,393.77z
	 M-172.582,395.49c0,0.344-0.46,0.918-1.147,1.262c-0.574,0.344-1.147,0.115-1.147-0.459c0-0.688,0.573-1.261,1.147-1.261
	C-173.041,395.032-172.582,395.262-172.582,395.49z M-184.51,415.674c0.573,0.573,2.867,1.376,5.046,1.72l4.014,0.688l-4.587-1.72
	C-185.427,414.298-186.001,414.183-184.51,415.674z M-172.813,417.624c0.803,0.344,1.835,0.229,2.18-0.115
	c0.458-0.344-0.23-0.688-1.492-0.574c-1.261,0-1.605,0.344-0.688,0.688V417.624z M-153.088,377.944c1.95,3.441,0.688,3.9-1.605,0.46
	c-1.033-1.606-1.377-2.868-0.803-2.868c0.688,0,1.72,1.032,2.408,2.409L-153.088,377.944z M-238.523,393.886
	c-0.802,3.44-1.605,5.275-1.605,4.014c-0.115-2.523,2.179-11.353,2.752-10.665C-237.146,387.349-237.72,390.445-238.523,393.886z
	 M-195.059,396.868c0.344,2.981,0.688,9.862,0.688,15.252v9.862l-3.44,0.115c-1.95,0.115-3.441-0.459-3.556-1.147
	c-0.23-5.62,0.344-26.376,0.918-27.752c0.344-0.918,1.49-1.606,2.637-1.606C-196.321,391.592-195.632,392.854-195.059,396.868z
	 M-207.101,417.05c-1.605,1.376-1.95,2.064-0.917,1.72c1.49-0.458,1.835,0.23,1.72,3.211c0,2.065-0.459,3.555-0.917,3.211
	c-0.574-0.23-0.918,0-0.918,0.688c0,0.574,0.459,1.377,1.032,1.72c0.574,0.345,1.032,2.753,1.032,5.276
	c0.115,5.39,1.262,7.913,2.638,5.619c0.688-1.147,1.49-1.147,3.67-0.23c2.179,1.033,3.325,0.918,5.16-0.343
	c1.376-0.918,2.638-1.147,3.097-0.574c0.344,0.574-0.344,1.606-1.377,2.294c-1.146,0.688-1.49,1.147-0.917,1.261
	c1.72,0,3.44-1.49,4.931-4.013c1.72-2.982,1.835,0,0.115,3.096c-0.917,1.72-0.917,2.179,0,1.605
	c0.688-0.458,1.261-0.344,1.261,0.344c0,0.574-0.688,1.377-1.376,1.606c-1.032,0.459-1.032,0.688-0.114,0.688
	c0.688,0.115,2.637-1.49,4.243-3.44c1.605-1.95,2.981-2.982,2.981-2.294c0,2.064-6.766,8.945-10.32,10.436
	c-5.505,2.293-13.418,0.803-17.432-3.097c-4.014-4.013-5.39-11.123-3.211-16.399c1.262-3.096,1.606-3.21,2.867-1.605
	c0.688,1.032,1.147,3.096,0.803,4.587c-0.918,5.046,1.835,9.518,6.766,10.78c2.408,0.688,5.848,0.803,7.569,0.459l3.096-0.803
	l-2.752-1.032c-1.606-0.574-4.014-0.688-5.505-0.344c-1.95,0.458-2.523,0.23-1.835-0.688c0.574-1.032,0.23-1.147-1.032-0.688
	c-2.982,1.146-5.504-2.294-5.16-7.11c0.114-2.409-0.574-5.39-1.491-6.767c-1.72-2.408-1.835-2.408-3.67,1.606
	c-2.179,4.472-2.523,10.321-0.803,14.679c0.688,1.95,0.688,2.981,0,2.981c-1.72,0-3.44-5.16-3.44-9.862
	c0-4.702,2.293-10.665,4.931-12.959c1.147-0.802,1.95-2.064,1.95-2.752c0-2.523-4.588,3.211-6.422,7.913
	c-1.835,4.931-1.835,11.812,0.229,18.807l0.803,2.867l-2.523-2.637c-1.72-1.72-2.867-4.932-3.555-9.748l-1.032-7.11l0.344,7.798
	c0.344,5.39,1.032,8.486,2.408,10.092c1.147,1.147,1.72,2.523,1.261,2.981c-0.344,0.46-1.605-0.458-2.752-1.95
	c-6.307-8.83-6.307-21.559,0-27.866c2.523-2.523,4.817-2.523,3.9,0c-0.689,1.605-0.345,1.605,1.834-0.459
	c1.49-1.261,4.358-3.21,6.422-4.243c1.95-1.032,3.67-2.523,3.784-3.326c0-0.917,0.23-0.802,0.689,0.23
	C-204.692,414.183-205.61,415.903-207.101,417.05L-207.101,417.05z M-230.61,419.114c1.491,0,1.835,0.574,1.376,1.835
	c-2.064,5.275-3.21,12.5-2.637,16.4c0.688,5.39,5.619,13.073,9.633,14.908c1.605,0.688,2.637,1.605,2.293,1.95
	c-0.344,0.343-3.096-1.033-6.192-3.097l-5.505-3.67l3.44,3.67c1.835,1.95,4.588,3.899,5.964,4.243
	c1.49,0.459,2.637,1.49,2.637,2.408c0,1.376-0.573,1.376-3.325-0.459c-6.881-4.472-10.436-8.371-13.418-14.908
	c-2.408-5.39-2.867-7.913-2.523-13.761c0.459-7.34,1.376-9.519,3.097-7.684c0.688,0.574,0.573,3.44-0.115,6.88
	c-0.918,4.703-0.803,7.226,0.688,12.386c1.032,3.555,2.408,6.422,2.982,6.422c1.49,0,1.49-0.114-0.688-4.472
	c-1.835-3.785-1.835-15.826,0-19.954c0.688-1.377,0.458-1.95-0.918-1.95c-1.032,0-1.835-0.23-1.835-0.459s-0.344-1.49-0.802-2.637
	c-0.689-1.95-0.689-1.95,1.605-0.115C-233.592,418.197-231.642,419.114-230.61,419.114L-230.61,419.114z M-225.45,424.848
	c-2.637,5.39-2.752,11.812-0.458,18.349c2.408,6.766,1.49,6.88-2.064,0.115c-3.326-6.078-3.785-10.207-1.835-16.285
	c1.605-4.816,3.096-6.766,5.046-6.766C-223.614,420.261-223.844,421.523-225.45,424.848L-225.45,424.848z M-193.683,423.701
	c0.917,0,1.605,0.574,1.605,1.262c0,0.803-1.261,1.032-3.096,0.688c-1.72-0.344-4.243-0.115-5.734,0.459
	c-1.49,0.573-2.638,0.573-2.638,0c0-1.376,4.932-3.44,6.652-2.867c0.917,0.23,2.293,0.458,3.21,0.458H-193.683z M-186.343,425.307
	c0.687,0.917,1.949,1.49,2.751,1.147c0.918-0.344,1.835,0.573,2.294,2.064c1.147,4.358,0.688,5.16-1.147,2.064
	c-1.605-2.637-1.605-2.752-1.032-0.23c0.918,3.327-0.344,9.06-2.064,9.749c-0.917,0.344-1.376-1.147-1.147-5.161
	c0.115-4.243-0.459-6.307-2.064-7.913c-1.147-1.147-2.179-2.408-2.179-2.752C-190.931,423.013-187.72,423.816-186.343,425.307
	L-186.343,425.307z M-193.11,429.435c1.491,1.147,2.179,2.18,1.491,2.294c-0.688,0-1.835,1.261-2.523,2.867
	c-1.49,3.211-4.587,3.784-5.62,0.917c-0.458-1.146,0.23-2.637,1.836-4.013c2.637-1.95,2.637-2.065,0.344-2.065
	c-1.376,0-2.753,0.46-3.097,1.147c-1.032,1.72-2.867,1.376-2.867-0.459C-203.546,426.683-196.894,426.224-193.11,429.435z
	 M-189.784,434.023c0,0.573-0.574,1.146-1.262,1.146c-0.573,0-0.802-0.573-0.458-1.146c0.344-0.689,0.917-1.147,1.261-1.147
	C-190.013,432.876-189.784,433.334-189.784,434.023z"/>
</svg>
