<?xml version="1.0" encoding="iso-8859-1"?>
<!-- Generator: Adobe Illustrator 19.0.0, SVG Export Plug-In . SVG Version: 6.00 Build 0)  -->
<svg version="1.2" baseProfile="tiny" id="Layer_1" xmlns="http://www.w3.org/2000/svg" xmlns:xlink="http://www.w3.org/1999/xlink"
	 x="0px" y="0px" viewBox="-247 356.89 100 128" xml:space="preserve">
<title>face_00018</title>
<path d="M-168.421,357.192c-0.342,0.341-13.098,0.91-28.474,1.366c-15.376,0.456-32.46,1.14-38.155,1.595l-10.25,0.683
	l-0.228,20.501c-0.114,11.276-0.57,37.7-1.025,58.77c-0.456,20.957-0.456,39.636,0,41.458l0.797,3.19l25.285-0.798
	c51.822-1.594,69.02-2.847,71.526-5.125c2.164-1.936,2.164-3.417,1.367-51.48c-0.342-27.222-0.798-54.101-0.798-59.682l-0.114-10.25
	l-9.68-0.343c-5.355-0.113-10.024-0.113-10.252,0.115H-168.421z M-152.818,374.845l0.342,14.01l-3.53-2.05
	c-1.937-1.14-5.24-3.531-7.404-5.24c-3.758-3.189-3.872-3.417-3.872-11.617v-8.428l4.328-0.342c2.278-0.228,5.467-0.342,7.061-0.342
	h2.848l0.227,14.01V374.845z M-171.838,369.948c0,4.67,0.114,8.884,0.228,9.34c0.114,0.569-4.556,5.01-10.479,9.908
	c-5.922,5.012-10.592,9.567-10.25,10.25c0.228,0.684,0.57,8.999,0.57,18.566c0,16.628,0.113,17.312,2.733,20.16
	c3.53,3.758,2.505,4.897-5.809,6.605c-5.011,1.025-7.175,1.025-9.567-0.114l-3.075-1.367l2.847-3.075
	c5.125-5.467,5.467-6.947,4.67-22.665c-0.456-10.592-0.342-15.034,0.683-15.603c2.392-1.595,1.14-4.67-3.075-7.29
	c-2.278-1.48-6.72-5.011-9.909-7.859l-5.695-5.239l-0.455-9.453l-0.342-9.453l10.023-0.456c5.58-0.114,16.173-0.455,23.576-0.57
	l13.326-0.227C-171.838,361.406-171.838,369.948-171.838,369.948z M-223.091,372.681v8.884l-8.542,5.24
	c-4.67,2.96-8.656,4.897-8.884,4.441c-0.455-0.683-0.342-8.086,0.114-20.956c0.228-6.037,0.57-6.265,10.82-6.492l6.492-0.114
	C-223.091,363.684-223.091,372.681-223.091,372.681z M-160.335,388.855c3.759,2.62,6.72,4.783,6.492,5.011
	c-1.139,0.911-27.22,1.595-26.879,0.797c0.57-1.594,11.162-10.478,12.415-10.478C-167.737,384.185-164.207,386.349-160.335,388.855z
	 M-213.865,391.019l5.011,4.442h-13.667l-13.668,0.113l6.834-4.442c3.758-2.505,7.63-4.555,8.656-4.555
	C-219.674,386.463-216.599,388.513-213.865,391.019z M-152.704,399.561c0.228,0.114,0.456,1.708,0.57,3.53
	c0.228,3.19,0,3.303-5.125,3.645l-5.467,0.342v-3.988c0-2.164,0.683-4.214,1.48-4.441c1.253-0.57,7.631,0.113,8.542,0.91V399.561z
	 M-207.374,401.269c2.392,0,2.62,0.456,2.279,4.214c-0.342,4.214-0.456,4.328-5.126,4.67l-4.897,0.342v-5.353
	c0-4.898,0.228-5.24,2.62-4.556c1.366,0.341,3.644,0.683,5.125,0.683H-207.374z M-177.533,404.686v4.556h-4.556
	c-4.1,0-4.555-0.342-4.555-2.734c-0.006-3.517,2.841-6.372,6.358-6.378c0.007,0,0.013,0,0.02,0
	C-177.874,400.13-177.533,400.586-177.533,404.686z M-229.925,405.825v4.556h-5.011c-4.556,0-5.011-0.228-5.467-3.19
	c-0.683-5.125,0-5.922,5.467-5.922h5.011V405.825z M-151.337,421.543v10.022l-4.328,4.214c-3.189,3.19-5.922,4.556-10.592,5.581
	c-7.859,1.595-11.731,0.684-16.629-4.214c-3.645-3.644-3.758-3.986-3.758-13.553v-9.681l3.758-0.57
	c5.467-1.025,11.731-1.367,22.21-1.594l9.34-0.228L-151.337,421.543L-151.337,421.543z M-205.095,423.593
	c0.341,8.314,0.113,8.997-2.848,12.073c-4.897,5.239-10.82,7.744-17.995,7.744c-6.948,0-12.301-2.164-14.237-5.58
	c-0.57-1.253-1.14-6.834-1.14-12.529c0-12.073-1.935-11.048,20.502-10.706l15.376,0.114L-205.095,423.593z M-151.906,468.126
	l-0.798,8.2l-6.947,0.683c-3.873,0.456-9.112,0.57-11.618,0.342l-4.555-0.342l-0.342-6.833c-0.228-3.759-0.114-10.592,0.342-15.148
	l0.797-8.2h3.645c5.58,0,14.806-3.076,17.312-5.81c2.164-2.391,2.164-2.391,2.505,8.201
	C-151.337,455.142-151.565,463.569-151.906,468.126z M-226.28,449.106h4.328v30.75h-19.362l0.228-17.996l0.114-17.995l5.125,2.62
	c2.847,1.48,7.175,2.62,9.567,2.62V449.106z M-201.11,449.902c3.19,0.342,7.176-0.227,11.618-1.822
	c8.542-2.961,9.681-2.961,9.681,0.114c0,5.125-1.025,5.353-19.704,6.15l-17.881,0.798v-3.873c0-5.353,3.758-7.175,8.314-4.1
	C-207.259,448.422-203.615,449.675-201.11,449.902L-201.11,449.902z M-181.064,472.454l-0.227,6.15l-16.629,0.342
	c-9.112,0.227-17.084,0-17.654-0.456c-0.683-0.455-1.139-3.303-1.139-6.264l-0.114-5.467l9.112-0.57
	c5.011-0.341,13.098-0.455,17.995-0.227l8.77,0.455C-180.95,466.417-181.064,472.454-181.064,472.454z"/>
</svg>
