<?xml version="1.0" encoding="iso-8859-1"?>
<!-- Generator: Adobe Illustrator 19.0.0, SVG Export Plug-In . SVG Version: 6.00 Build 0)  -->
<svg version="1.2" baseProfile="tiny" id="Layer_1" xmlns="http://www.w3.org/2000/svg" xmlns:xlink="http://www.w3.org/1999/xlink"
	 x="0px" y="0px" viewBox="-247 378.89 100 85" xml:space="preserve">
<title>face_00014</title>
<path d="M-174.499,379.109c-6.173,0.882-12.346,3.792-18.607,8.907l-3.703,2.91l-5.732-4.41c-12.434-9.346-21.87-8.906-33.07,1.764
	c-4.408,4.145-4.85,4.321-6.26,3.087c-1.94-1.764-4.41-1.852-5.027-0.177c-0.529,1.323,3.528,8.466,4.762,8.466
	c0.353,0,2.47,1.587,4.586,3.615c5.203,4.762,9.7,6.967,14.021,6.967c3.968,0,11.905-2.646,17.548-5.997
	c2.117-1.146,3.88-2.028,3.969-1.852c0.176,0.177,0.088,5.997-0.088,12.875l-0.353,12.522l-2.557,0.53
	c-7.496,1.674-24.868,19.487-22.84,23.455c1.146,2.028,4.145,2.998,5.644,1.764c0.882-0.706,1.94-0.177,4.409,2.204
	c5.38,5.291,12.081,7.849,20.37,7.849c6.526,0,7.496-0.265,12.787-3.263c3.174-1.764,8.642-5.644,12.17-8.642
	c4.761-3.968,6.877-5.203,8.2-4.85c1.147,0.353,1.852,0.088,2.293-0.97c0.44-1.146-0.617-2.646-3.88-5.556
	c-7.32-6.702-14.903-10.67-26.455-13.844c-0.882-0.177-1.146-3.351-1.146-11.729V403.36l5.379,2.646
	c3.527,1.764,7.23,2.822,10.67,3.086c4.585,0.441,5.908,0.089,10.846-2.292c3.792-1.94,7.232-4.498,10.406-8.025
	c2.646-2.91,5.467-5.291,6.261-5.291c1.058,0,1.5-0.617,1.323-2.028c-0.176-1.058,0.264-3.44,0.882-5.291
	c0.97-2.999,0.97-3.616-0.441-5.115c-2.118-2.38-3.528-2.117-4.674,1.057c-0.529,1.5-1.234,2.558-1.587,2.381
	c-0.441-0.088-2.91-1.323-5.556-2.645C-164.975,379.373-170.002,378.492-174.499,379.109z M-162.771,386.869
	c3.351,1.5,4.674,2.646,4.41,3.616c-0.265,1.499-10.67,10.053-12.258,10.053c-0.44,0-0.794-3.528-0.794-7.937
	c0-7.672,0.089-7.936,2.029-7.936C-168.326,384.665-165.328,385.635-162.771,386.869z M-210.125,388.104
	c4.497,2.91,8.2,6.702,7.584,7.76c-0.706,1.058-11.905,6.878-12.346,6.437c-0.265-0.264-0.706-4.144-1.058-8.642
	C-216.739,384.312-216.475,384.047-210.125,388.104z M-177.674,393.571l-0.088,8.025l-3.88-0.53
	c-4.233-0.528-10.935-3.88-10.935-5.467c0-1.41,12.081-9.876,14.286-10.053C-177.938,385.546-177.674,389.162-177.674,393.571z
	 M-221.765,396.746c0.088,7.319,0.088,7.319-2.205,7.319c-2.822,0-7.584-2.205-9.612-4.41c-1.499-1.675-1.41-1.851,0.882-4.85
	c1.323-1.763,4.056-4.408,5.996-5.82c3.351-2.379,3.704-2.468,4.234-1.057c0.353,0.882,0.706,4.85,0.706,8.819L-221.765,396.746z
	 M-187.903,433.518c4.057,1.235,9.436,4.498,9.436,5.732c0,0.353-6.614,0.97-14.727,1.323c-8.201,0.264-16.226,0.794-17.901,1.058
	l-3.087,0.53l2.117-2.294c1.234-1.322,4.585-3.527,7.495-4.938c5.82-2.998,10.318-3.35,16.667-1.41L-187.903,433.518z
	 M-176.88,446.57c-0.705,2.029-8.907,7.76-13.933,9.612c-3.527,1.323-5.908,1.676-8.73,1.323c-6.261-0.882-18.254-7.32-16.667-8.995
	c0.353-0.264,8.025-1.058,16.931-1.587c8.995-0.529,17.813-1.058,19.577-1.234C-177.409,445.512-176.615,445.777-176.88,446.57z"/>
</svg>
