<?xml version="1.0" encoding="iso-8859-1"?>
<!-- Generator: Adobe Illustrator 19.0.0, SVG Export Plug-In . SVG Version: 6.00 Build 0)  -->
<svg version="1.2" baseProfile="tiny" id="Layer_1" xmlns="http://www.w3.org/2000/svg" xmlns:xlink="http://www.w3.org/1999/xlink"
	 x="0px" y="0px" viewBox="-247 363.89 100 114" xml:space="preserve">
<title>face_00052</title>
<path d="M-220.642,364.39l-25.95,0.464l-0.278,31.046c-0.185,17.053,0,42.447,0.37,56.441l0.557,25.394l49.305-0.556
	c27.062-0.278,49.305-0.556,49.49-0.556c0.37-0.186-0.093-68.026-0.649-90.454l-0.556-22.242h-23.17
	C-184.218,363.927-206.37,364.112-220.642,364.39L-220.642,364.39z M-160.864,391.638c0,0.648-1.669,1.575-3.893,2.039
	c-3.614,0.741-4.17,1.297-8.341,8.619c-2.502,4.356-4.727,8.063-4.912,8.34c-0.649,0.557-7.414-6.116-10.01-9.823
	c-2.038-2.966-2.13-3.059-9.082-3.059h-7.043l-5.005,6.488c-2.78,3.522-5.468,6.487-6.024,6.487c-1.39,0-3.244-2.317-7.322-9.545
	c-2.595-4.45-4.17-6.21-5.56-6.21c-3.337,0-6.024-1.112-6.024-2.41c0-1.019,4.448-1.297,23.91-1.575
	c13.068-0.093,29.565-0.278,36.609-0.464C-163.367,390.34-160.864,390.618-160.864,391.638z M-200.253,432.88
	c0.278,0.463,0.093,1.112-0.463,1.482c-0.464,0.278-0.927-0.092-0.927-0.834C-201.643,431.86-201.087,431.582-200.253,432.88z
	 M-190.8,433.528c-0.278,0.278-1.112,0.371-1.76,0.093c-0.742-0.278-0.464-0.556,0.556-0.556
	C-190.984,432.972-190.429,433.25-190.8,433.528z M-172.635,443.167c1.39,0,2.503,0.278,2.503,0.649
	c0,0.741-8.99,7.136-19.74,14.087c-5.747,3.707-6.58,3.985-8.805,2.965c-3.615-1.668-25.209-16.126-25.209-16.96
	c0-0.834,17.516-1.297,35.681-1.02C-181.068,443.074-174.117,443.167-172.635,443.167z"/>
</svg>
