<?xml version="1.0" encoding="iso-8859-1"?>
<!-- Generator: Adobe Illustrator 19.0.0, SVG Export Plug-In . SVG Version: 6.00 Build 0)  -->
<svg version="1.2" baseProfile="tiny" id="Layer_1" xmlns="http://www.w3.org/2000/svg" xmlns:xlink="http://www.w3.org/1999/xlink"
	 x="0px" y="0px" viewBox="-247 366.89 100 109" xml:space="preserve">
<title>face_00033</title>
<path d="M-180.453,367.809c0,0.428,0.428,0.856,0.856,0.856c0.472-0.001,0.855-0.384,0.856-0.856c0-0.514-0.343-0.857-0.856-0.857
	C-180.07,366.953-180.452,367.336-180.453,367.809z M-177.03,367.723c0,0.514,0.428,1.113,0.856,1.37
	c0.514,0.257,0.857-0.086,0.857-0.77c0-0.771-0.343-1.37-0.857-1.37C-176.602,366.953-177.03,367.295-177.03,367.723z
	 M-173.605,367.809c0,0.428,0.428,0.856,0.856,0.856c0.472-0.001,0.855-0.384,0.856-0.856c0-0.514-0.342-0.857-0.856-0.857
	C-173.222,366.953-173.604,367.336-173.605,367.809z M-170.18,368.237c0,0.685,0.428,1.284,0.856,1.284
	c0.513,0,0.856-0.6,0.856-1.284c0-0.685-0.343-1.285-0.856-1.285C-169.752,366.952-170.18,367.552-170.18,368.237z
	 M-166.756,367.809c0,0.428,0.428,0.856,0.856,0.856c0.473-0.001,0.856-0.383,0.857-0.856c0-0.514-0.343-0.857-0.857-0.857
	C-166.373,366.953-166.755,367.336-166.756,367.809z M-162.389,368.322c0,0.942,0.256,1.199,0.513,0.514
	c0.257-0.6,0.172-1.37-0.085-1.627C-162.218,366.867-162.475,367.38-162.389,368.322z M-159.905,367.81
	c0,0.428,0.428,0.856,0.856,0.856c0.472-0.001,0.855-0.384,0.856-0.856c0-0.514-0.343-0.857-0.856-0.857
	C-159.522,366.954-159.904,367.337-159.905,367.81z M-153.912,367.81c0,0.428,0.428,0.856,0.856,0.856
	c0.473-0.001,0.855-0.384,0.856-0.857c0-0.514-0.342-0.857-0.856-0.857c-0.473,0.001-0.855,0.384-0.856,0.857V367.81z
	 M-196.721,368.666c0,0.428,0.429,0.856,0.942,0.856c0.428,0,0.6-0.428,0.343-0.856c-0.257-0.514-0.685-0.856-0.942-0.856
	C-196.549,367.81-196.721,368.152-196.721,368.666z M-193.296,368.666c0,0.428,0.428,0.856,0.856,0.856
	c0.472-0.001,0.855-0.384,0.856-0.856c0-0.514-0.342-0.856-0.856-0.856C-192.912,367.811-193.295,368.194-193.296,368.666z
	 M-186.875,368.666c0.343,0.513,0.942,0.685,1.37,0.428c1.199-0.77,0.942-1.284-0.6-1.284
	C-186.789,367.81-187.132,368.238-186.875,368.666z M-183.45,368.666c0.257,0.428,0.685,0.856,0.942,0.856
	c0.171,0,0.342-0.428,0.342-0.856c0-0.514-0.428-0.856-0.942-0.856C-183.536,367.81-183.707,368.152-183.45,368.666z
	 M-212.988,369.522c0,0.428,0.428,0.856,0.856,0.856c0.473-0.001,0.856-0.383,0.857-0.856c0-0.514-0.343-0.856-0.857-0.856
	C-212.604,368.667-212.987,369.05-212.988,369.522z M-206.995,369.522c0,0.428,0.429,0.856,0.857,0.856
	c0.472-0.001,0.855-0.384,0.856-0.856c0-0.514-0.343-0.856-0.856-0.856C-206.611,368.667-206.994,369.049-206.995,369.522z
	 M-200.573,369.522c0.342,0.514,0.941,0.685,1.37,0.428c1.198-0.77,0.941-1.284-0.6-1.284
	C-200.488,368.666-200.83,369.094-200.573,369.522z M-230.111,370.378c0,0.428,0.428,0.856,0.856,0.856
	c0.472-0.001,0.855-0.384,0.856-0.856c0-0.514-0.342-0.856-0.856-0.856C-229.727,369.523-230.11,369.906-230.111,370.378z
	 M-226.686,370.378c0,0.428,0.428,0.856,0.856,0.856c0.472-0.001,0.855-0.384,0.856-0.856c0-0.514-0.342-0.856-0.856-0.856
	C-226.302,369.523-226.685,369.906-226.686,370.378z M-223.69,370.378c0.257,0.428,0.685,0.856,0.942,0.856
	c0.171,0,0.343-0.428,0.343-0.856c0-0.514-0.429-0.856-0.942-0.856C-223.775,369.522-223.947,369.864-223.69,370.378z
	 M-220.693,370.378c0,0.428,0.428,0.856,0.856,0.856c0.472-0.001,0.855-0.384,0.856-0.856c0-0.514-0.342-0.856-0.856-0.856
	C-220.309,369.523-220.692,369.906-220.693,370.378z M-217.268,370.378c0,0.428,0.428,0.856,0.856,0.856
	c0.472-0.001,0.855-0.384,0.856-0.856c0-0.514-0.343-0.856-0.856-0.856C-216.884,369.523-217.267,369.906-217.268,370.378z
	 M-246.806,371.233c-0.257,0.428-0.086,0.856,0.342,0.856c0.514,0,0.942-0.428,0.942-0.856c0-0.513-0.171-0.856-0.342-0.856
	C-246.121,370.377-246.549,370.72-246.806,371.233z M-234.392,371.233c0,0.428,0.428,0.856,0.856,0.856
	c0.473-0.001,0.856-0.383,0.857-0.856c0-0.513-0.343-0.856-0.857-0.856C-234.008,370.378-234.391,370.761-234.392,371.233z
	 M-200.145,372.089c0,0.428,0.428,0.857,0.942,0.857c0.428,0,0.599-0.429,0.342-0.857c-0.257-0.513-0.685-0.856-0.942-0.856
	C-199.974,371.233-200.145,371.576-200.145,372.089z M-197.577,372.089c0,0.428,0.428,0.857,0.856,0.857
	c0.473-0.001,0.856-0.384,0.857-0.857c0-0.513-0.343-0.856-0.857-0.856C-197.193,371.234-197.576,371.617-197.577,372.089z
	 M-165.47,373.802c-0.256,0.428-0.085,0.856,0.343,0.856c0.514,0,0.942-0.428,0.942-0.856c0-0.514-0.172-0.856-0.343-0.856
	C-164.785,372.946-165.213,373.288-165.47,373.802z M-160.932,373.63c-2.226,0.429-1.883,1.884,0.428,1.542
	c1.028-0.086,1.798-0.514,1.713-0.857c-0.172-0.941-0.514-1.113-2.14-0.685H-160.932z M-153.055,374.144
	c0,0.77,0.428,1.37,0.856,1.37c0.514,0,0.856-0.342,0.856-0.77c0-0.514-0.342-1.114-0.856-1.37
	C-152.627,373.117-153.055,373.459-153.055,374.144z M-192.867,374.572c-0.257,0.428-0.085,1.028,0.428,1.37
	c0.428,0.257,0.856-0.085,0.856-0.77C-191.583,373.63-192.096,373.374-192.867,374.572z M-189.014,375.172
	c0,0.685,0.428,1.027,0.856,0.77c0.514-0.342,0.685-0.942,0.428-1.37C-188.5,373.374-189.014,373.63-189.014,375.172z
	 M-186.446,374.658c0,0.428,0.429,0.856,0.857,0.856c0.472-0.001,0.855-0.384,0.856-0.856c0-0.514-0.343-0.856-0.856-0.856
	C-186.062,373.803-186.445,374.185-186.446,374.658z M-183.021,374.658c0,0.428,0.428,0.856,0.942,0.856
	c0.428,0,0.6-0.428,0.342-0.856c-0.257-0.514-0.685-0.856-0.941-0.856C-182.85,373.802-183.021,374.144-183.021,374.658z
	 M-178.741,374.658c0,0.428,0.429,0.856,0.943,0.856c0.428,0,0.599-0.428,0.342-0.856c-0.257-0.514-0.685-0.856-0.942-0.856
	c-0.17,0-0.342,0.342-0.342,0.856H-178.741z M-175.315,374.829c0,0.343,0.428,0.685,0.856,0.685c0.599,0,0.599,0.514,0,1.712
	c-0.685,1.199-0.685,1.713,0,1.713c0.599,0,0.77,0.685,0.428,1.883c-0.514,1.37-0.343,1.713,0.685,1.285
	c0.77-0.257,1.54-0.086,1.798,0.513c0.257,0.685,0.685,0.6,1.37-0.428c0.513-0.77,1.455-2.055,2.226-2.74
	c1.113-1.198,1.027-1.54-0.6-3.167C-170.435,374.401-175.315,373.374-175.315,374.829z M-168.466,374.658
	c0,0.428,0.428,0.856,0.856,0.856c0.472-0.001,0.855-0.384,0.856-0.856c0-0.514-0.342-0.856-0.856-0.856
	C-168.082,373.803-168.465,374.186-168.466,374.658z M-205.709,375.514c-0.257,0.428-0.086,0.856,0.342,0.856
	c0.514,0,0.942-0.428,0.942-0.856c0-0.514-0.171-0.856-0.342-0.856C-205.024,374.658-205.452,375-205.709,375.514z
	 M-199.288,375.514c0,0.428,0.428,0.856,0.856,0.856c0.472-0.001,0.855-0.384,0.856-0.856c0-0.514-0.342-0.856-0.856-0.856
	C-198.904,374.659-199.287,375.042-199.288,375.514z M-196.72,375.514c0,0.428,0.429,0.856,0.857,0.856
	c0.472-0.001,0.855-0.384,0.856-0.856c0-0.514-0.343-0.856-0.856-0.856C-196.336,374.659-196.719,375.041-196.72,375.514z
	 M-223.175,376.884c0,0.942,0.257,1.199,0.514,0.514c0.257-0.6,0.17-1.37-0.086-1.627
	C-223.004,375.428-223.261,375.942-223.175,376.884z M-220.692,376.884c0,0.685,0.428,1.027,0.856,0.77
	c0.514-0.256,0.856-0.856,0.856-1.37c0-0.427-0.342-0.77-0.856-0.77C-220.264,375.514-220.692,376.114-220.692,376.884z
	 M-216.839,376.37c-0.257,0.428-0.086,0.856,0.342,0.856c0.514,0,0.942-0.428,0.942-0.856c0-0.513-0.171-0.856-0.343-0.856
	C-216.154,375.514-216.583,375.857-216.839,376.37z M-212.987,376.37c0,0.428,0.428,0.856,0.856,0.856
	c0.473-0.001,0.856-0.383,0.857-0.856c0-0.513-0.343-0.856-0.857-0.856C-212.603,375.515-212.986,375.898-212.987,376.37z
	 M-208.706,376.456c0,0.428,0.428,0.6,0.856,0.342c0.514-0.257,0.856-0.685,0.856-0.941c0-0.172-0.342-0.343-0.856-0.343
	C-208.278,375.514-208.706,375.942-208.706,376.456z M-202.713,376.884c0,0.685,0.428,1.027,0.856,0.77
	c0.514-0.256,0.857-0.856,0.857-1.37c0-0.427-0.343-0.77-0.857-0.77C-202.285,375.514-202.713,376.114-202.713,376.884z
	 M-236.873,377.74c0,0.942,0.256,1.199,0.513,0.514c0.257-0.6,0.171-1.37-0.086-1.627c-0.256-0.342-0.513,0.171-0.428,1.113
	H-236.873z M-234.391,377.226c0,0.428,0.428,0.857,0.856,0.857c0.473-0.001,0.856-0.384,0.857-0.857
	c0-0.513-0.343-0.856-0.857-0.856C-234.007,376.371-234.39,376.754-234.391,377.226z M-230.966,377.056
	c0,0.513,0.514,1.027,1.113,1.283c0.77,0.257,0.77,0.6-0.171,1.713c-0.77,1.027-0.857,1.455-0.172,1.455
	c0.685,0,0.857,0.685,0.514,1.713c-0.6,1.883,0.856,2.397,1.627,0.599c0.428-0.856,0.6-0.856,1.027,0
	c0.77,1.627,1.884,1.37,2.483-0.6c0.257-0.941,1.113-1.712,1.798-1.712s1.199-0.428,1.199-0.856c0-0.514-0.428-0.856-0.942-0.856
	c-0.514,0-1.627-0.856-2.569-1.97c-1.284-1.54-1.712-1.712-2.397-0.684c-0.685,1.027-1.027,1.027-2.14,0.171
	c-0.77-0.685-1.37-0.77-1.37-0.257V377.056z M-165.041,377.74c0,0.685,0.428,1.027,0.856,0.77c0.513-0.256,0.856-0.856,0.856-1.37
	c0-0.427-0.343-0.77-0.856-0.77C-164.613,376.37-165.041,376.97-165.041,377.74z M-245.949,378.083
	c-0.257,0.428-0.086,0.856,0.342,0.856c0.514,0,0.942-0.428,0.942-0.856c0-0.514-0.171-0.857-0.342-0.857
	C-245.264,377.226-245.692,377.569-245.949,378.083z M-178.312,378.083c-0.257,0.428-0.086,0.856,0.342,0.856
	c0.514,0,0.942-0.428,0.942-0.856c0-0.514-0.171-0.857-0.342-0.857C-177.627,377.226-178.055,377.569-178.312,378.083z
	 M-162.473,378.083c0,0.428,0.428,0.856,0.856,0.856c0.472-0.001,0.855-0.384,0.856-0.856c0-0.514-0.342-0.857-0.856-0.857
	C-162.09,377.227-162.472,377.61-162.473,378.083z M-219.836,379.795c0,0.428,0.428,0.856,0.942,0.856
	c0.428,0,0.6-0.428,0.342-0.856c-0.257-0.514-0.685-0.856-0.942-0.856C-219.664,378.939-219.836,379.281-219.836,379.795z
	 M-212.559,379.795c0.343,0.514,0.942,0.685,1.37,0.428c1.199-0.77,0.942-1.284-0.599-1.284c-0.685,0-1.027,0.428-0.77,0.856
	H-212.559z M-202.285,379.795c-0.256,0.428-0.085,0.856,0.343,0.856c0.514,0,0.942-0.428,0.942-0.856
	c0-0.514-0.172-0.856-0.343-0.856C-201.6,378.939-202.028,379.281-202.285,379.795z M-195.863,379.795
	c0,0.428,0.428,0.856,0.856,0.856c0.472-0.001,0.855-0.384,0.856-0.856c0-0.514-0.343-0.856-0.856-0.856
	C-195.479,378.94-195.862,379.323-195.863,379.795z M-216.411,380.737c0,0.428,0.428,0.599,0.856,0.342
	c0.514-0.257,0.856-0.685,0.856-0.942c0-0.17-0.342-0.342-0.856-0.342C-215.983,379.795-216.411,380.223-216.411,380.737z
	 M-239.528,381.593c0,0.428,0.428,0.6,0.856,0.342c0.514-0.257,0.857-0.685,0.857-0.941c0-0.172-0.343-0.343-0.857-0.343
	C-239.1,380.651-239.528,381.079-239.528,381.593z M-181.737,381.422c-0.257,0.428-0.085,1.027,0.428,1.37
	c0.428,0.256,0.857-0.086,0.857-0.771c0-1.541-0.514-1.798-1.285-0.6V381.422z M-167.952,381.422
	c-0.343,0.599-0.429,1.284-0.172,1.54c0.77,0.771,1.627-0.342,1.199-1.54C-167.267,380.48-167.439,380.48-167.952,381.422z
	 M-162.131,381.678c-0.513,0.771-0.513,0.771,2.055,1.028c1.028,0.171,1.884-0.171,1.884-0.77
	C-158.192,380.908-161.532,380.651-162.131,381.678z M-153.055,382.021c0,0.685,0.428,1.027,0.856,0.77
	c0.514-0.342,0.685-0.941,0.428-1.37C-152.541,380.223-153.055,380.48-153.055,382.021z M-200.744,382.107
	c-0.599,0.17-1.113,0.941-1.113,1.54c0,0.6,0.514,1.37,1.113,1.542c0.771,0.342,0.685,0.685-0.256,1.37
	c-0.685,0.428-0.942,1.113-0.6,1.54c0.428,0.343,1.028,0.086,1.456-0.599c0.428-0.685,1.027-0.941,1.37-0.599
	c0.342,0.343,0,1.284-0.77,2.14c-1.97,2.14-1.799,2.826,1.112,5.223c1.456,1.113,2.569,2.397,2.569,2.825
	c0,0.514-0.6,0.428-1.285-0.17c-0.77-0.6-1.626-0.857-1.883-0.515c-0.343,0.343-0.257,0.857,0.171,1.2
	c2.397,1.711,3.168,3.595,2.14,4.88c-0.599,0.77-0.856,1.626-0.513,1.883c0.342,0.342,1.027,0.085,1.455-0.6
	c0.685-1.027,0.77-0.941,0.6,0.429c-0.257,1.113-0.857,1.626-1.97,1.455c-1.027-0.171-1.37,0-0.77,0.428
	c0.514,0.343,1.113,1.284,1.37,1.97c0.257,0.855,0.856,0.427,1.883-1.627c1.199-2.226,1.37-3.34,0.6-4.88
	c-0.685-1.456-0.685-2.055,0-2.055c0.684,0,0.684-0.343,0.085-1.113c-0.6-0.685-0.6-1.541-0.171-2.312
	c1.284-2.055,0.942-2.911-0.514-1.627c-1.284,1.028-1.37,0.942-0.856-0.77c0.428-1.113,0.257-1.884-0.257-1.884
	c-0.513,0-0.942,0.428-0.942,0.856c0,0.6-0.513,0.6-1.712,0c-0.942-0.513-1.712-1.37-1.712-1.883c0-0.77,0.257-0.77,1.027,0
	c1.37,1.37,2.397,1.284,2.397-0.257c0-0.685-0.428-1.284-0.941-1.284c-0.685,0-0.6-0.428,0.17-1.37
	c0.857-1.113,0.857-1.456-0.17-2.14c-0.685-0.429-1.456-0.771-1.798-0.771c-0.428,0-0.685-0.428-0.685-0.856
	c0-0.514,0.513-0.856,1.198-0.685c0.685,0.171,1.285-0.171,1.37-0.6C-197.49,381.85-199.202,381.421-200.744,382.107
	L-200.744,382.107z M-191.154,382.277c-0.257,0.429-0.086,1.028,0.428,1.37c0.428,0.257,0.856-0.085,0.856-0.77
	C-189.87,381.336-190.384,381.079-191.154,382.277z M-185.589,382.363c0,0.428,0.428,0.857,0.856,0.857
	c0.473-0.001,0.855-0.384,0.856-0.857c0-0.513-0.343-0.856-0.856-0.856C-185.205,381.508-185.588,381.891-185.589,382.363z
	 M-178.74,382.363c0,0.428,0.428,0.857,0.856,0.857c0.473-0.001,0.855-0.384,0.856-0.857c0-0.513-0.342-0.856-0.856-0.856
	C-178.356,381.508-178.739,381.891-178.74,382.363z M-165.041,382.363c0,0.428,0.428,0.857,0.856,0.857
	c0.473-0.001,0.855-0.384,0.856-0.857c0-0.513-0.343-0.856-0.856-0.856C-164.657,381.508-165.04,381.891-165.041,382.363z
	 M-216.411,383.22c0,0.428,0.428,0.856,0.856,0.856c0.472-0.001,0.855-0.384,0.856-0.856c0-0.514-0.342-0.857-0.856-0.857
	C-216.028,382.364-216.41,382.747-216.411,383.22z M-212.131,383.22c0,0.428,0.429,0.856,0.857,0.856
	c0.472-0.001,0.855-0.384,0.856-0.856c0-0.514-0.343-0.857-0.856-0.857C-211.747,382.364-212.13,382.747-212.131,383.22z
	 M-205.281,383.22c0,0.428,0.428,0.856,0.856,0.856c0.472-0.001,0.855-0.384,0.856-0.856c0-0.514-0.342-0.857-0.856-0.857
	C-204.898,382.364-205.28,382.747-205.281,383.22z M-195.863,383.22c0,0.428,0.428,0.856,0.856,0.856
	c0.472-0.001,0.855-0.384,0.856-0.856c0-0.514-0.343-0.857-0.856-0.857C-195.48,382.364-195.862,382.747-195.863,383.22z
	 M-237.559,383.819c-1.54,0.514-1.37,1.969,0.086,1.969c1.456,0,2.569-1.37,1.627-1.97c-0.428-0.17-1.199-0.17-1.713,0V383.819z
	 M-223.261,384.076c0,0.428,0.428,0.856,0.857,0.856c0.472-0.001,0.855-0.384,0.856-0.856c0-0.514-0.343-0.856-0.856-0.856
	C-222.877,383.221-223.26,383.603-223.261,384.076z M-219.836,384.076c0,0.428,0.428,0.856,0.856,0.856
	c0.472-0.001,0.855-0.384,0.856-0.856c0-0.514-0.342-0.856-0.856-0.856C-219.452,383.221-219.835,383.604-219.836,384.076z
	 M-245.949,384.932c-0.257,0.428-0.086,0.856,0.342,0.856c0.514,0,0.942-0.428,0.942-0.856c0-0.514-0.171-0.856-0.342-0.856
	C-245.264,384.076-245.692,384.418-245.949,384.932z M-233.535,384.932c0,0.428,0.428,0.856,0.857,0.856
	c0.472-0.001,0.855-0.384,0.856-0.856c0-0.514-0.343-0.856-0.856-0.856C-233.151,384.077-233.534,384.459-233.535,384.932z
	 M-195.007,387.5c0,0.428,0.428,0.857,0.856,0.857c0.473-0.001,0.855-0.384,0.856-0.857c0-0.513-0.342-0.856-0.856-0.856
	C-194.623,386.645-195.006,387.028-195.007,387.5z M-159.048,389.213c0,0.428,0.428,0.856,0.856,0.856
	c0.472-0.001,0.855-0.384,0.856-0.856c0-0.514-0.342-0.856-0.856-0.856C-158.664,388.358-159.047,388.741-159.048,389.213z
	 M-153.398,389.127c-0.342,0.6-0.428,1.284-0.17,1.541c0.77,0.77,1.626-0.342,1.198-1.54
	C-152.713,388.185-152.884,388.185-153.398,389.127L-153.398,389.127z M-185.076,389.983c-0.342,0.6-0.428,1.284-0.17,1.541
	c0.77,0.77,1.626-0.342,1.198-1.54c-0.343-0.943-0.514-0.943-1.028,0V389.983z M-171.035,390.069c0,0.428,0.428,0.856,0.857,0.856
	c0.472-0.001,0.855-0.384,0.856-0.856c0-0.514-0.343-0.856-0.856-0.856C-170.651,389.214-171.034,389.596-171.035,390.069z
	 M-212.131,390.925c0,0.428,0.429,0.856,0.857,0.856c0.472-0.001,0.855-0.384,0.856-0.856c0-0.514-0.343-0.856-0.856-0.856
	C-211.747,390.07-212.13,390.452-212.131,390.925z M-204.339,391.439c0,0.941,0.256,1.198,0.513,0.513
	c0.257-0.599,0.172-1.37-0.085-1.626C-204.168,389.983-204.425,390.496-204.339,391.439z M-190.641,391.439
	c0,0.941,0.257,1.198,0.514,0.513c0.257-0.599,0.171-1.37-0.086-1.626C-190.47,389.983-190.726,390.496-190.641,391.439z
	 M-177.884,390.925c0,0.428,0.428,0.856,0.856,0.856c0.472-0.001,0.855-0.384,0.856-0.856c0-0.514-0.342-0.856-0.856-0.856
	C-177.5,390.07-177.883,390.453-177.884,390.925z M-232.678,391.781c0,0.428,0.428,0.856,0.856,0.856
	c0.472-0.001,0.855-0.384,0.856-0.856c0-0.514-0.343-0.856-0.856-0.856C-232.294,390.926-232.677,391.309-232.678,391.781z
	 M-225.829,391.781c0,0.428,0.428,0.856,0.942,0.856c0.428,0,0.599-0.428,0.342-0.856c-0.257-0.514-0.685-0.856-0.942-0.856
	C-225.657,390.925-225.829,391.267-225.829,391.781z M-219.836,391.781c0,0.428,0.428,0.856,0.856,0.856
	c0.472-0.001,0.855-0.384,0.856-0.856c0-0.514-0.342-0.856-0.856-0.856C-219.452,390.926-219.835,391.309-219.836,391.781z
	 M-246.377,392.637c0,0.428,0.428,0.857,0.856,0.857c0.473-0.001,0.855-0.384,0.856-0.857c0-0.513-0.342-0.856-0.856-0.856
	C-245.993,391.782-246.376,392.165-246.377,392.637z M-238.672,392.637c0,0.428,0.428,0.857,0.942,0.857
	c0.428,0,0.6-0.429,0.343-0.857c-0.257-0.513-0.685-0.856-0.942-0.856C-238.5,391.781-238.672,392.124-238.672,392.637z
	 M-201.428,395.206c-0.257,0.428-0.086,0.856,0.342,0.856c0.514,0,0.942-0.428,0.942-0.856c0-0.514-0.171-0.856-0.343-0.856
	C-200.744,394.35-201.172,394.692-201.428,395.206z M-154.768,397.346c0,0.685,0.429,1.284,0.857,1.284
	c0.513,0,0.856-0.599,0.856-1.284s-0.343-1.284-0.856-1.284C-154.339,396.062-154.767,396.662-154.768,397.346L-154.768,397.346z
	 M-184.733,398.116c0,0.771,0.428,1.37,0.856,1.37c0.514,0,0.856-0.342,0.856-0.77c0-0.514-0.342-1.113-0.856-1.37
	C-184.305,397.089-184.733,397.432-184.733,398.116z M-171.891,397.774c0,0.428,0.428,0.856,0.856,0.856
	c0.473-0.001,0.856-0.383,0.857-0.856c0-0.513-0.343-0.856-0.857-0.856C-171.507,396.919-171.89,397.302-171.891,397.774z
	 M-164.185,397.774c0,0.428,0.428,0.856,0.856,0.856c0.472-0.001,0.855-0.384,0.856-0.856c0-0.513-0.342-0.856-0.856-0.856
	C-163.801,396.919-164.184,397.302-164.185,397.774z M-219.408,398.63c-0.257,0.429-0.086,0.857,0.343,0.857
	c0.513,0,0.941-0.428,0.941-0.857c0-0.513-0.17-0.856-0.342-0.856C-218.723,397.774-219.151,398.117-219.408,398.63z
	 M-204.425,399.144c0,0.685,0.428,1.028,0.856,0.77c0.514-0.342,0.685-0.941,0.428-1.37
	C-203.911,397.346-204.425,397.604-204.425,399.144z M-201.428,398.63c0.256,0.429,0.684,0.857,0.941,0.857
	c0.172,0,0.343-0.428,0.343-0.857c0-0.513-0.428-0.856-0.942-0.856C-201.514,397.774-201.686,398.117-201.428,398.63z
	 M-191.925,398.545c-0.342,0.6-0.428,1.284-0.171,1.541c0.77,0.77,1.626-0.342,1.198-1.541
	C-191.24,397.603-191.411,397.603-191.925,398.545z M-178.74,398.63c0,0.429,0.428,0.857,0.856,0.857
	c0.473-0.001,0.855-0.384,0.856-0.857c0-0.513-0.342-0.856-0.856-0.856C-178.356,397.775-178.739,398.158-178.74,398.63z
	 M-212.13,399.487c0,0.428,0.428,0.856,0.856,0.856c0.472-0.001,0.855-0.384,0.856-0.856c0-0.514-0.343-0.857-0.856-0.857
	C-211.747,398.631-212.13,399.014-212.13,399.487L-212.13,399.487z M-245.435,400.857c0,0.941,0.257,1.198,0.513,0.513
	c0.257-0.6,0.172-1.37-0.085-1.626C-245.264,399.401-245.521,399.914-245.435,400.857z M-233.107,400.343
	c0.343,0.514,0.942,0.685,1.37,0.428c1.199-0.77,0.942-1.284-0.599-1.284c-0.685,0-1.027,0.428-0.77,0.856H-233.107z
	 M-198.86,401.199c-0.257,0.428-0.086,0.856,0.343,0.856c0.513,0,0.941-0.428,0.941-0.856c0-0.514-0.17-0.856-0.342-0.856
	C-198.175,400.343-198.603,400.685-198.86,401.199z M-161.617,402.911c0,0.428,0.428,0.856,0.942,0.856
	c0.428,0,0.6-0.428,0.342-0.856c-0.256-0.513-0.684-0.856-0.941-0.856C-161.446,402.055-161.617,402.398-161.617,402.911z
	 M-200.144,403.767c0,0.429,0.428,0.857,0.856,0.857c0.473-0.001,0.855-0.384,0.856-0.857c0-0.513-0.342-0.856-0.856-0.856
	C-199.76,402.912-200.143,403.295-200.144,403.767z M-174.459,403.767c0,0.429,0.428,0.857,0.856,0.857
	c0.473-0.001,0.855-0.384,0.856-0.857c0-0.513-0.342-0.856-0.856-0.856C-174.075,402.912-174.458,403.295-174.459,403.767z
	 M-229.254,405.137c0,0.685,0.428,1.028,0.856,0.77c0.514-0.342,0.685-0.94,0.428-1.369c-0.77-1.199-1.284-0.942-1.284,0.6V405.137z
	 M-163.244,406.85c0,0.941,0.257,1.198,0.514,0.513c0.257-0.599,0.171-1.37-0.085-1.626
	C-163.072,405.394-163.329,405.907-163.244,406.85z M-203.484,407.706c0,0.942,0.258,1.198,0.514,0.514
	c0.257-0.6,0.172-1.37-0.085-1.627c-0.257-0.343-0.514,0.171-0.428,1.113H-203.484z M-190.726,407.706
	c0,0.685,0.428,1.027,0.856,0.77c0.513-0.256,0.856-0.856,0.856-1.37c0-0.428-0.343-0.77-0.856-0.77
	C-190.298,406.336-190.726,406.936-190.726,407.706z M-183.791,407.706c0,0.942,0.256,1.198,0.513,0.514
	c0.257-0.6,0.171-1.37-0.085-1.627C-183.62,406.25-183.877,406.764-183.791,407.706z M-177.884,407.192
	c0,0.428,0.428,0.856,0.856,0.856c0.472-0.001,0.855-0.384,0.856-0.856c0-0.514-0.342-0.856-0.856-0.856
	C-177.5,406.337-177.883,406.72-177.884,407.192z M-171.034,407.192c0,0.428,0.427,0.856,0.941,0.856c0.428,0,0.6-0.428,0.343-0.856
	c-0.257-0.514-0.685-0.856-0.942-0.856C-170.863,406.336-171.035,406.678-171.034,407.192L-171.034,407.192z M-159.048,407.192
	c0,0.428,0.428,0.856,0.856,0.856c0.472-0.001,0.855-0.384,0.856-0.856c0-0.514-0.342-0.856-0.856-0.856
	C-158.664,406.337-159.047,406.72-159.048,407.192z M-154.339,407.192c0.342,0.514,0.941,0.685,1.37,0.428
	c1.198-0.77,0.941-1.284-0.6-1.284C-154.254,406.336-154.596,406.764-154.339,407.192z M-231.737,408.562
	c0,0.942,0.257,1.199,0.514,0.514c0.257-0.6,0.171-1.37-0.086-1.627C-231.565,407.107-231.822,407.62-231.737,408.562z
	 M-225.829,408.476c0,0.685,0.428,1.285,0.856,1.285c0.514,0,0.856-0.6,0.856-1.285s-0.342-1.284-0.856-1.284
	C-225.401,407.192-225.829,407.792-225.829,408.476z M-218.979,407.963c0,0.513,0.427,1.113,0.855,1.37
	c0.514,0.256,0.857-0.086,0.857-0.771c0-0.77-0.343-1.37-0.857-1.37c-0.428,0-0.856,0.343-0.856,0.77L-218.979,407.963z
	 M-211.274,408.048c0,0.428,0.428,0.856,0.941,0.856c0.429,0,0.6-0.428,0.343-0.856c-0.257-0.513-0.685-0.856-0.942-0.856
	C-211.103,407.192-211.274,407.535-211.274,408.048z M-194.151,408.22c0,0.599-0.428,1.712-0.856,2.397
	c-0.685,0.942-1.028,1.027-1.541,0.257c-0.514-0.77-0.942-0.6-1.627,0.513c-0.77,1.285-0.514,1.97,1.627,4.281l2.568,2.74
	l-2.397,2.568c-1.284,1.37-2.14,2.74-1.798,2.997c0.514,0.514,5.736-4.452,5.736-5.48c0-0.428-0.513-1.198-1.027-1.797
	c-0.942-0.942-0.77-1.028,0.856-0.514c2.226,0.685,2.226,0.6,0.514-2.825c-0.685-1.542-1.113-3.51-0.77-4.453
	c0.342-0.941,0.17-1.712-0.343-1.712C-193.723,407.192-194.151,407.706-194.151,408.22z M-194.836,414.213
	c-0.6,0.599-1.027,0.685-1.027,0.17c0-1.198,1.027-2.225,1.626-1.626C-194.065,413.014-194.322,413.699-194.836,414.213z
	 M-200.144,408.904c0,0.429,0.428,0.857,0.856,0.857c0.473-0.001,0.855-0.384,0.856-0.857c0-0.513-0.342-0.856-0.856-0.856
	C-199.76,408.049-200.143,408.432-200.144,408.904z M-244.664,409.761c0,0.428,0.427,0.856,0.855,0.856
	c0.473-0.001,0.856-0.383,0.857-0.856c0-0.514-0.343-0.857-0.857-0.857C-244.282,408.905-244.664,409.288-244.664,409.761
	L-244.664,409.761z M-167.61,410.617c0,0.428,0.428,0.856,0.856,0.856c0.472-0.001,0.855-0.384,0.856-0.856
	c0-0.514-0.342-0.856-0.856-0.856C-167.226,409.762-167.609,410.145-167.61,410.617z M-174.374,411.987
	c0,0.941,0.257,1.198,0.514,0.513c0.257-0.599,0.171-1.37-0.086-1.626C-174.202,410.531-174.459,411.044-174.374,411.987z
	 M-222.833,413.185c0.257,0.428,0.685,0.856,0.942,0.856c0.171,0,0.343-0.428,0.343-0.856c0-0.513-0.428-0.856-0.942-0.856
	C-222.918,412.329-223.09,412.672-222.833,413.185z M-151.343,413.528c0,0.77,0.428,1.37,0.856,1.37c0.514,0,0.856-0.343,0.856-0.77
	c0-0.515-0.342-1.114-0.856-1.37C-150.915,412.5-151.343,412.843-151.343,413.528z M-235.247,414.128
	c0,0.427,0.428,0.598,0.856,0.342c0.514-0.257,0.856-0.685,0.856-0.942c0-0.171-0.342-0.343-0.856-0.343
	C-234.819,413.185-235.247,413.613-235.247,414.128L-235.247,414.128z M-163.757,413.956c-0.257,0.428-0.086,1.027,0.428,1.37
	c0.428,0.257,0.856-0.086,0.856-0.77C-162.473,413.014-162.987,412.757-163.757,413.956z M-157.336,414.041
	c0,0.429,0.428,0.857,0.856,0.857c0.473-0.001,0.855-0.384,0.856-0.857c0-0.513-0.342-0.856-0.856-0.856
	C-156.952,413.186-157.335,413.569-157.336,414.041z M-189.014,415.754c0,1.626,0.257,1.798,1.027,1.027
	c0.77-0.77,0.77-1.284,0-2.055C-188.757,413.956-189.014,414.127-189.014,415.754z M-183.021,415.411
	c0,0.685,0.428,1.028,0.856,0.77c0.514-0.342,0.685-0.94,0.428-1.369c-0.77-1.199-1.284-0.942-1.284,0.6V415.411z M-177.028,414.812
	c0,0.514,0.428,1.113,0.856,1.37c0.514,0.257,0.857-0.086,0.857-0.77c0-0.771-0.343-1.37-0.857-1.37
	C-176.6,414.042-177.028,414.384-177.028,414.812z M-170.178,414.898c0,0.428,0.428,0.856,0.856,0.856
	c0.472-0.001,0.855-0.384,0.856-0.856c0-0.514-0.343-0.857-0.856-0.857C-169.795,414.042-170.177,414.425-170.178,414.898z
	 M-199.288,415.754c0,0.428,0.428,0.856,0.856,0.856c0.472-0.001,0.855-0.384,0.856-0.856c0-0.514-0.342-0.856-0.856-0.856
	C-198.904,414.899-199.287,415.282-199.288,415.754z M-210.418,416.61c0,0.428,0.428,0.856,0.856,0.856
	c0.472-0.001,0.855-0.384,0.856-0.856c0-0.514-0.342-0.856-0.856-0.856C-210.034,415.755-210.417,416.138-210.418,416.61z
	 M-202.713,416.61c0,0.428,0.428,0.856,0.856,0.856c0.473-0.001,0.856-0.383,0.857-0.856c0-0.514-0.343-0.856-0.857-0.856
	C-202.329,415.755-202.712,416.138-202.713,416.61z M-224.973,417.98c0,0.685,0.428,1.027,0.856,0.77
	c0.514-0.342,0.685-0.941,0.428-1.37C-224.459,416.182-224.973,416.439-224.973,417.98z M-218.98,417.466
	c0,0.428,0.428,0.856,0.856,0.856c0.473-0.001,0.856-0.383,0.857-0.856c0-0.514-0.343-0.856-0.857-0.856
	C-218.596,416.611-218.979,416.994-218.98,417.466z M-244.665,418.836c0,0.685,0.428,1.027,0.856,0.77
	c0.514-0.342,0.685-0.941,0.428-1.37C-244.151,417.038-244.665,417.295-244.665,418.836z M-231.395,418.236
	c-0.256,0.429-0.085,1.028,0.429,1.37c0.428,0.257,0.856-0.085,0.856-0.77c0-1.541-0.514-1.798-1.284-0.6H-231.395z
	 M-198.175,418.75c-1.456,1.627-1.37,2.14,0.171,2.14c0.685,0,1.284-0.17,1.284-0.342c0-0.17,0.257-0.941,0.514-1.712
	C-195.521,417.124-196.806,417.124-198.175,418.75z M-171.805,418.836c0,0.942,0.257,1.199,0.514,0.514
	c0.256-0.6,0.17-1.37-0.086-1.627C-171.634,417.38-171.891,417.894-171.805,418.836z M-165.898,418.322
	c0,0.428,0.428,0.856,0.857,0.856c0.472-0.001,0.855-0.384,0.856-0.856c0-0.513-0.343-0.856-0.856-0.856
	C-165.514,417.467-165.897,417.849-165.898,418.322z M-192.011,420.035c0.257,0.428,0.685,0.856,0.942,0.856
	c0.171,0,0.343-0.428,0.343-0.856c0-0.514-0.428-0.857-0.942-0.857C-192.096,419.178-192.268,419.521-192.011,420.035z
	 M-185.589,421.405c1.113,2.74,1.113,3.767,0,3.767c-0.428,0-0.857-0.771-0.857-1.798c0-0.942-0.342-1.541-0.856-1.199
	c-0.428,0.257-0.513,1.113-0.257,1.884c0.6,1.626-0.77,1.027-3.767-1.627c-1.798-1.712-1.798-1.712-3.253,0.514
	c-0.856,1.198-2.055,2.226-2.654,2.226c-0.685,0-1.199,0.342-1.199,0.856c0,0.428,0.514,0.856,1.113,0.856
	c0.77,0,0.685,0.257-0.171,0.77c-0.856,0.6-0.856,0.857-0.086,1.37c0.6,0.343,1.37,0.172,1.713-0.428
	c0.342-0.6,0.856-0.685,1.113-0.257c0.599,1.028,4.024,0.77,6.335-0.428c1.199-0.685,2.055-0.77,2.398-0.17
	c0.342,0.513,0.941,0.684,1.37,0.342c0.427-0.257,0.599-0.857,0.342-1.285c-0.343-0.428,0-0.77,0.685-0.77
	c1.455,0,3.681-2.398,2.91-3.168c-0.342-0.257-1.112-0.086-1.712,0.514c-1.027,0.77-1.37,0.513-1.712-1.627
	c-0.342-1.37-0.942-2.569-1.455-2.569c-0.514,0-0.514,0.771,0,2.226V421.405z M-192.011,423.459
	c0.257,0.428,0.086,0.856-0.342,0.856c-0.514,0-0.942-0.428-0.942-0.856c0-0.513,0.171-0.856,0.343-0.856
	C-192.696,422.603-192.267,422.946-192.011,423.459z M-202.884,420.463c-0.257,0.257-0.171,1.712,0.171,3.082
	c0.856,2.91,0.856,2.91,0.856,4.623c0,0.77,0.514,1.028,1.285,0.77c1.626-0.684,1.712-4.28,0.085-4.88
	c-0.685-0.256-1.37-1.284-1.54-2.311C-202.199,420.72-202.541,420.12-202.884,420.463z M-183.021,420.976
	c0,0.428,0.428,0.6,0.856,0.343c0.514-0.257,0.856-0.685,0.856-0.942c0-0.171-0.342-0.342-0.856-0.342
	C-182.593,420.035-183.021,420.463-183.021,420.976z M-233.535,421.746c0,0.429,0.428,0.857,0.942,0.857
	c0.428,0,0.6-0.428,0.343-0.856c-0.257-0.514-0.685-0.856-0.942-0.856c-0.171,0-0.343,0.342-0.343,0.856V421.746z M-220.265,421.746
	c0.258,0.429,0.686,0.857,0.943,0.857c0.17,0,0.342-0.428,0.342-0.856c0-0.514-0.428-0.856-0.942-0.856
	c-0.428,0-0.599,0.342-0.342,0.856L-220.265,421.746z M-169.322,422.261c0,0.685,0.428,1.027,0.856,0.77
	c0.514-0.342,0.685-0.942,0.428-1.37C-168.808,420.463-169.322,420.72-169.322,422.261z M-162.473,421.747
	c0,0.428,0.428,0.856,0.856,0.856c0.472-0.001,0.855-0.384,0.856-0.856c0-0.514-0.342-0.856-0.856-0.856
	C-162.089,420.892-162.472,421.275-162.473,421.747z M-157.336,421.747c0,0.428,0.428,0.856,0.942,0.856
	c0.428,0,0.6-0.428,0.342-0.856c-0.257-0.514-0.685-0.856-0.942-0.856C-157.164,420.891-157.336,421.233-157.336,421.747z
	 M-150.486,421.747c0,0.428,0.427,0.856,0.941,0.856c0.428,0,0.6-0.428,0.343-0.856c-0.257-0.514-0.685-0.856-0.942-0.856
	C-150.315,420.891-150.487,421.233-150.486,421.747L-150.486,421.747z M-207.764,423.117c0,0.942,0.257,1.198,0.514,0.513
	c0.256-0.599,0.17-1.37-0.086-1.626C-207.593,421.661-207.85,422.175-207.764,423.117z M-175.315,423.117
	c0,0.685,0.428,1.027,0.856,0.77c0.513-0.257,0.856-0.856,0.856-1.37c0-0.428-0.343-0.77-0.856-0.77
	C-174.887,421.747-175.315,422.347-175.315,423.117z M-218.124,424.315c0,0.429,0.428,0.857,0.857,0.857
	c0.473-0.001,0.855-0.384,0.856-0.857c0-0.513-0.343-0.856-0.856-0.856C-217.74,423.46-218.123,423.842-218.124,424.315z
	 M-210.418,424.315c0,0.429,0.428,0.857,0.856,0.857c0.473-0.001,0.855-0.384,0.856-0.857c0-0.513-0.342-0.856-0.856-0.856
	C-210.034,423.46-210.417,423.843-210.418,424.315z M-205.966,426.028c0.085,2.996,1.113,4.11,1.883,2.055
	c0.429-1.2-0.77-4.624-1.626-4.624C-205.881,423.459-205.966,424.658-205.966,426.028z M-236.959,425.172
	c0,0.428,0.428,0.856,0.856,0.856c0.472-0.001,0.855-0.384,0.856-0.856c0-0.514-0.342-0.857-0.856-0.857
	C-236.576,424.316-236.958,424.699-236.959,425.172z M-231.309,425.6c-0.256,0.685-0.085,1.284,0.343,1.284
	c0.514,0,0.856-0.6,0.856-1.284c0-0.685-0.171-1.285-0.342-1.285C-230.624,424.315-230.966,424.915-231.309,425.6z
	 M-224.973,425.172c0,0.428,0.428,0.856,0.856,0.856c0.472-0.001,0.855-0.384,0.856-0.856c0-0.514-0.342-0.857-0.856-0.857
	C-224.59,424.316-224.972,424.699-224.973,425.172z M-165.898,425.172c0,0.428,0.428,0.856,0.857,0.856
	c0.472-0.001,0.855-0.384,0.856-0.856c0-0.514-0.343-0.857-0.856-0.857C-165.514,424.316-165.897,424.699-165.898,425.172z
	 M-208.278,426.028c-0.257,0.428-0.085,0.856,0.343,0.856c0.513,0,0.941-0.428,0.941-0.856c0-0.514-0.17-0.856-0.342-0.856
	C-207.593,425.172-208.021,425.514-208.278,426.028z M-227.541,429.538c0,0.428,0.428,0.6,0.856,0.342
	c0.513-0.256,0.856-0.684,0.856-0.941c0-0.172-0.343-0.343-0.856-0.343C-227.113,428.596-227.541,429.024-227.541,429.538z
	 M-169.322,430.651c0,0.77,0.428,1.37,0.856,1.37c0.514,0,0.856-0.343,0.856-0.77c0-0.514-0.342-1.114-0.856-1.37
	C-168.894,429.624-169.322,429.966-169.322,430.651z M-197.148,431.079c-0.256,0.428-0.085,1.028,0.428,1.37
	c0.429,0.257,0.857-0.086,0.857-0.77C-195.863,430.137-196.377,429.88-197.148,431.079z M-185.846,430.908
	c-0.343,0.257-0.6,0.942-0.6,1.455c0,0.514,0.429,0.428,1.028-0.17c0.514-0.515,0.77-1.2,0.6-1.456
	c-0.258-0.257-0.771-0.172-1.028,0.17V430.908z M-180.452,431.165c0,0.428,0.428,0.856,0.856,0.856
	c0.472-0.001,0.855-0.384,0.856-0.856c0-0.514-0.343-0.856-0.856-0.856C-180.068,430.31-180.451,430.693-180.452,431.165z
	 M-174.459,431.165c0,0.428,0.428,0.856,0.856,0.856c0.472-0.001,0.855-0.384,0.856-0.856c0-0.514-0.342-0.856-0.856-0.856
	C-174.075,430.31-174.458,430.693-174.459,431.165z M-161.617,431.165c0,0.428,0.428,0.856,0.856,0.856
	c0.473-0.001,0.856-0.383,0.857-0.856c0-0.514-0.343-0.856-0.857-0.856C-161.233,430.31-161.616,430.693-161.617,431.165z
	 M-158.192,431.165c0,0.428,0.428,0.856,0.856,0.856c0.472-0.001,0.855-0.384,0.856-0.856c0-0.514-0.342-0.856-0.856-0.856
	C-157.808,430.31-158.191,430.693-158.192,431.165z M-150.059,431.165c0.257,0.428,0.685,0.856,0.942,0.856
	c0.171,0,0.343-0.428,0.343-0.856c0-0.514-0.428-0.856-0.942-0.856C-150.144,430.309-150.316,430.651-150.059,431.165z
	 M-217.267,432.021c0,0.428,0.428,0.856,0.856,0.856c0.472-0.001,0.855-0.384,0.856-0.856c0-0.514-0.343-0.856-0.856-0.856
	C-216.883,431.166-217.266,431.549-217.267,432.021z M-209.904,432.449c0.342,0.685,0.856,1.027,1.284,0.77
	c0.942-0.513,0.171-2.054-0.942-2.054C-209.99,431.165-210.162,431.765-209.904,432.449z M-205.281,432.021
	c0,0.428,0.428,0.856,0.856,0.856c0.472-0.001,0.855-0.384,0.856-0.856c0-0.514-0.342-0.856-0.856-0.856
	C-204.897,431.166-205.28,431.549-205.281,432.021z M-193.723,432.021c0.257,0.428,0.685,0.856,0.942,0.856
	c0.171,0,0.342-0.428,0.342-0.856c0-0.514-0.428-0.856-0.942-0.856C-193.809,431.165-193.98,431.507-193.723,432.021z
	 M-190.726,432.021c0,0.428,0.428,0.856,0.856,0.856c0.472-0.001,0.855-0.384,0.856-0.856c0-0.514-0.343-0.856-0.856-0.856
	C-190.342,431.166-190.725,431.549-190.726,432.021z M-230.538,432.877c-0.257,0.428-0.086,0.856,0.342,0.856
	c0.514,0,0.942-0.428,0.942-0.856c0-0.514-0.171-0.856-0.342-0.856C-229.853,432.021-230.281,432.363-230.538,432.877z
	 M-224.117,432.877c0,0.428,0.428,0.856,0.856,0.856c0.473-0.001,0.856-0.383,0.857-0.856c0-0.514-0.343-0.856-0.857-0.856
	C-223.733,432.022-224.116,432.405-224.117,432.877z M-243.98,434.333c0.6,0.256,1.37,0.17,1.627-0.086
	c0.342-0.257-0.171-0.514-1.113-0.428C-244.408,433.819-244.665,434.076-243.98,434.333z M-189.785,435.959
	c0,0.942,0.257,1.199,0.514,0.514c0.257-0.6,0.171-1.37-0.086-1.627C-189.613,434.504-189.87,435.017-189.785,435.959z
	 M-201,436.387c0,0.428,0.428,0.6,0.856,0.343c0.513-0.257,0.856-0.685,0.856-0.942c0-0.171-0.343-0.342-0.856-0.342
	C-200.572,435.446-201,435.874-201,436.387z M-196.976,439.727c-0.257,0.941-0.086,1.969,0.342,2.225
	c0.428,0.257,0.77-0.513,0.77-1.712C-195.864,437.586-196.377,437.33-196.976,439.727L-196.976,439.727z M-193.124,440.326
	c-1.027,1.284-1.883,2.91-1.883,3.681c0,1.541,4.195-3.253,4.28-4.966C-190.727,437.586-191.069,437.757-193.124,440.326z
	 M-189.014,440.326c0,1.883,0.171,2.14,0.856,1.113c1.113-1.713,1.113-3.425,0-3.425
	C-188.586,438.014-189.014,439.041-189.014,440.326z M-185.932,440.496c-1.541,2.912-1.627,3.511-0.685,3.511
	c0.856,0,3.082-5.137,2.483-5.736c-0.257-0.171-1.113,0.77-1.798,2.226V440.496z M-172.747,439.213c0,0.77,0.428,1.37,0.856,1.37
	c0.514,0,0.856-0.343,0.856-0.771c0-0.514-0.342-1.113-0.856-1.37c-0.428-0.257-0.856,0.086-0.856,0.77V439.213z M-166.754,439.298
	c0,0.685,0.428,1.285,0.856,1.285c0.514,0,0.857-0.6,0.857-1.285s-0.343-1.284-0.857-1.284
	C-166.326,438.014-166.754,438.614-166.754,439.298z M-160.761,438.87c0,0.428,0.428,0.856,0.857,0.856
	c0.472-0.001,0.855-0.384,0.856-0.856c0-0.513-0.343-0.856-0.856-0.856C-160.377,438.015-160.76,438.397-160.761,438.87z
	 M-151.343,438.87c0,0.428,0.428,0.856,0.856,0.856c0.472-0.001,0.855-0.384,0.856-0.856c0-0.513-0.342-0.856-0.856-0.856
	C-150.959,438.015-151.342,438.398-151.343,438.87z M-215.983,439.726c-0.343,0.6-0.171,1.37,0.428,1.713
	c0.6,0.342,0.77,1.113,0.514,1.626c-0.685,1.028,1.797,4.024,2.568,3.254c0.257-0.257-0.257-2.055-1.199-4.024
	C-214.785,439.898-215.555,439.041-215.983,439.726z M-211.788,441.61c0.942,4.623,2.312,4.709,1.627,0
	c-0.257-1.456-0.856-2.74-1.285-2.74C-211.959,438.87-212.131,439.983-211.788,441.61z M-208.706,440.668
	c0,1.97,2.312,4.71,3.254,3.767c0.342-0.342,0.085-0.856-0.429-1.027c-0.599-0.257-1.113-1.37-1.113-2.483
	c0-1.113-0.342-2.055-0.856-2.055C-208.278,438.87-208.706,439.64-208.706,440.668z M-204.853,439.983
	c-0.343,0.856-0.428,1.798-0.086,2.055c0.856,0.856,1.541-0.342,1.113-2.055C-204.168,438.528-204.168,438.528-204.853,439.983z
	 M-201.343,439.47c-0.257,0.256-0.514,1.198-0.514,2.054c0,0.77-0.513,1.627-1.027,1.884c-0.6,0.171-0.77,0.685-0.428,1.113
	c0.342,0.428,1.027,0.171,1.541-0.514c0.685-1.113,1.027-1.027,2.055,0.343c1.113,1.455,1.284,1.54,1.284,0.257
	c0-0.771-0.428-1.456-0.942-1.456c-0.513,0-0.77-0.77-0.513-1.712C-199.459,439.726-200.315,438.442-201.343,439.47L-201.343,439.47
	z M-179.425,440.24c-0.685,0.77-1.027,2.74-0.77,5.308l0.256,4.024l0.172-4.11c0.085-2.739,0.599-4.28,1.455-4.537
	c0.685-0.342,1.284-0.856,1.284-1.284c0-1.113-1.113-0.856-2.397,0.6L-179.425,440.24z M-222.833,440.583
	c0.257,0.428,0.857,0.856,1.37,0.856c0.428,0,0.77-0.428,0.77-0.856c0-0.514-0.598-0.857-1.369-0.857
	c-0.685,0-1.027,0.343-0.77,0.857H-222.833z M-243.81,441.953c0,0.684,0.428,1.027,0.857,0.77c0.513-0.343,0.685-0.942,0.428-1.37
	C-243.295,440.154-243.81,440.411-243.81,441.953z M-235.676,441.439c0.257,0.428,0.685,0.856,0.942,0.856
	c0.171,0,0.342-0.428,0.342-0.856c0-0.514-0.428-0.856-0.942-0.856C-235.762,440.583-235.933,440.925-235.676,441.439z
	 M-183.279,441.182c-0.342,0.257-0.6,1.113-0.6,1.712c0,1.713,1.97,0.942,2.227-0.856
	C-181.481,440.583-182.252,440.154-183.279,441.182z M-191.584,443.151c0,0.428,0.429,0.856,0.857,0.856
	c0.472-0.001,0.855-0.384,0.856-0.856c0-0.514-0.343-0.856-0.856-0.856C-191.2,442.296-191.583,442.678-191.584,443.151z
	 M-177.884,443.151c0,0.428,0.427,0.856,0.855,0.856c0.472-0.001,0.855-0.384,0.856-0.856c0-0.514-0.342-0.856-0.856-0.856
	c-0.472,0.001-0.855,0.384-0.856,0.856H-177.884z M-174.46,443.151c0,0.428,0.428,0.856,0.856,0.856
	c0.472-0.001,0.855-0.384,0.856-0.856c0-0.514-0.342-0.856-0.856-0.856C-174.076,442.296-174.459,442.679-174.46,443.151z
	 M-218.553,444.863c0.257,0.428,0.685,0.857,0.942,0.857c0.171,0,0.343-0.429,0.343-0.857c0-0.513-0.429-0.856-0.942-0.856
	C-218.638,444.007-218.81,444.35-218.553,444.863z M-149.632,444.863c0,0.428,0.429,0.857,0.857,0.857
	c0.473-0.001,0.855-0.384,0.856-0.857c0-0.513-0.343-0.856-0.856-0.856C-149.248,444.008-149.631,444.39-149.632,444.863z
	 M-171.378,445.633c-0.343,0.6-0.428,1.285-0.171,1.542c0.77,0.77,1.626-0.342,1.198-1.541c-0.342-0.942-0.513-0.942-1.027,0
	V445.633z M-191.07,446.49c-0.342,0.6-0.428,1.284-0.171,1.541c0.77,0.77,1.627-0.342,1.199-1.54c-0.343-0.943-0.514-0.943-1.028,0
	V446.49z M-183.45,446.49c-0.257,0.428-0.086,1.027,0.428,1.37c0.428,0.257,0.856-0.086,0.856-0.77
	C-182.166,445.548-182.679,445.291-183.45,446.49z M-177.457,446.576c-0.257,0.428-0.085,0.856,0.343,0.856
	c0.513,0,0.941-0.428,0.941-0.856c0-0.514-0.17-0.856-0.342-0.856C-176.772,445.72-177.2,446.062-177.457,446.576z M-174.46,446.576
	c0,0.428,0.428,0.856,0.942,0.856c0.428,0,0.599-0.428,0.342-0.856c-0.257-0.514-0.685-0.856-0.942-0.856
	C-174.289,445.72-174.46,446.062-174.46,446.576z M-166.755,446.576c0,0.428,0.428,0.856,0.856,0.856
	c0.473-0.001,0.856-0.383,0.857-0.856c0-0.514-0.343-0.856-0.857-0.856C-166.371,445.721-166.754,446.104-166.755,446.576z
	 M-160.334,446.576c0.343,0.513,0.942,0.685,1.37,0.428c1.199-0.77,0.942-1.284-0.599-1.284c-0.685,0-1.027,0.428-0.77,0.856
	L-160.334,446.576z M-156.481,446.576c0,0.428,0.428,0.856,0.856,0.856c0.473-0.001,0.856-0.383,0.857-0.856
	c0-0.514-0.343-0.856-0.857-0.856C-156.097,445.721-156.48,446.104-156.481,446.576z M-218.553,447.432
	c-0.257,0.428-0.085,0.856,0.343,0.856c0.513,0,0.942-0.428,0.942-0.856c0-0.514-0.172-0.856-0.343-0.856
	C-217.868,446.576-218.296,446.918-218.553,447.432z M-211.275,447.432c0,0.428,0.428,0.856,0.856,0.856
	c0.472-0.001,0.855-0.384,0.856-0.856c0-0.514-0.342-0.856-0.856-0.856C-210.891,446.577-211.274,446.96-211.275,447.432z
	 M-206.995,447.946c0,0.684,0.429,1.027,0.857,0.77c0.513-0.257,0.856-0.856,0.856-1.37c0-0.428-0.343-0.77-0.856-0.77
	C-206.566,446.576-206.995,447.175-206.995,447.946z M-199.632,447.346c-0.342,0.6-0.428,1.284-0.17,1.541
	c0.77,0.77,1.626-0.342,1.198-1.54c-0.343-0.943-0.514-0.943-1.028,0V447.346z M-221.977,448.288
	c0.256,0.428,0.685,0.856,0.941,0.856c0.172,0,0.343-0.428,0.343-0.856c0-0.514-0.428-0.856-0.942-0.856
	C-222.063,447.432-222.235,447.774-221.977,448.288z M-215.557,448.288c0,0.428,0.429,0.856,0.857,0.856
	c0.472-0.001,0.855-0.384,0.856-0.856c0-0.514-0.342-0.856-0.856-0.856c-0.472,0.001-0.855,0.384-0.856,0.856H-215.557z
	 M-243.382,449.058c-0.256,0.429-0.085,1.028,0.429,1.37c0.428,0.257,0.856-0.085,0.856-0.77
	C-242.097,448.117-242.611,447.86-243.382,449.058z M-229.597,449.058c-0.343,0.429-0.171,1.028,0.257,1.285
	c0.428,0.342,1.027,0.171,1.284-0.257c0.342-0.428,0.171-1.027-0.257-1.284c-0.428-0.343-1.027-0.172-1.284,0.257V449.058z
	 M-213.673,449.315c-1.198,1.2-1.37,2.398-0.256,2.398c0.77,0,2.054-2.569,1.54-3.083
	C-212.559,448.46-213.159,448.802-213.673,449.315z M-173.518,449.658c0,0.942,0.256,1.199,0.513,0.514
	c0.257-0.6,0.171-1.37-0.085-1.627C-173.347,448.202-173.604,448.716-173.518,449.658z M-235.248,450.086
	c0,0.428,0.428,0.6,0.856,0.342c0.514-0.256,0.856-0.684,0.856-0.941c0-0.172-0.342-0.343-0.856-0.343
	C-234.82,449.144-235.248,449.572-235.248,450.086z M-211.275,450.856c0,0.429,0.428,0.857,0.941,0.857
	c0.429,0,0.6-0.428,0.343-0.856c-0.257-0.514-0.685-0.857-0.942-0.857C-211.104,450-211.275,450.343-211.275,450.856
	L-211.275,450.856z M-206.909,451.37c0,0.942,0.257,1.199,0.514,0.514c0.257-0.6,0.171-1.37-0.086-1.627
	C-206.738,449.915-206.995,450.428-206.909,451.37z M-195.009,451.199c0,0.77,0.429,1.37,0.857,1.37c0.514,0,0.856-0.343,0.856-0.77
	c0-0.514-0.342-1.114-0.856-1.37c-0.428-0.257-0.856,0.085-0.856,0.77H-195.009z M-190.727,450.857c0,0.428,0.428,0.856,0.856,0.856
	c0.472-0.001,0.855-0.384,0.856-0.856c0-0.514-0.343-0.857-0.856-0.857C-190.344,450.001-190.726,450.384-190.727,450.857z
	 M-187.731,451.798c-0.514,1.627,0,3.254,0.77,2.398c0.857-1.028,1.37-4.196,0.6-4.196C-186.789,450-187.474,450.77-187.731,451.798
	z M-184.649,452.654c-1.455,1.97-1.712,2.911-1.027,3.596c0.685,0.685,0.942,0.514,0.942-0.599c0-1.113,0.428-1.37,1.626-0.942
	c1.2,0.343,1.97,0,2.569-1.198c1.455-2.654,1.113-3.083-0.856-1.285c-1.798,1.627-1.884,1.627-1.284-0.342
	C-181.823,449.315-182.337,449.487-184.649,452.654z M-177.029,450.942c0,0.428,0.428,0.6,0.856,0.343
	c0.514-0.257,0.857-0.685,0.857-0.942c0-0.171-0.343-0.343-0.857-0.343C-176.601,450-177.029,450.428-177.029,450.942z
	 M-202.714,451.798c0,0.428,0.428,0.6,0.856,0.343c0.514-0.257,0.857-0.685,0.857-0.942c0-0.171-0.343-0.342-0.857-0.342
	C-202.286,450.857-202.714,451.285-202.714,451.798z M-199.289,451.628c0,0.513,0.428,1.112,0.856,1.369
	c0.514,0.257,0.856-0.086,0.856-0.77c0-0.771-0.342-1.37-0.856-1.37c-0.428,0-0.856,0.342-0.856,0.77V451.628z M-204.854,453.425
	c-0.257,0.428-0.086,0.856,0.342,0.856c0.514,0,0.942-0.428,0.942-0.856c0-0.514-0.171-0.856-0.342-0.856
	C-204.169,452.569-204.597,452.911-204.854,453.425z M-197.405,453.596c-1.2,1.199-1.37,3.254-0.172,3.254
	c1.113,0,2.74-3.254,1.884-3.767C-196.121,452.826-196.892,453.083-197.405,453.596z M-192.44,453.254
	c0,0.342,0.77,1.113,1.713,1.712c1.455,0.856,1.712,0.856,1.712-0.342c0-0.685-0.343-1.028-0.856-0.77
	c-0.428,0.256-0.856,0.085-0.856-0.343c0-0.514-0.343-0.942-0.857-0.942C-192.012,452.569-192.44,452.826-192.44,453.254z
	 M-209.99,454.28c0.342,0.514,0.942,0.685,1.37,0.428c1.198-0.77,0.942-1.284-0.6-1.284
	C-209.904,453.424-210.247,453.852-209.99,454.28z M-201.685,455.136c-0.6,0.942-0.685,1.713-0.172,1.713
	c0.429,0,1.2-0.77,1.713-1.713c0.513-0.941,0.6-1.712,0.257-1.712C-200.315,453.424-201.086,454.194-201.685,455.136z
	 M-177.028,454.28c0,0.428,0.428,0.856,0.856,0.856c0.473-0.001,0.856-0.383,0.857-0.856c0-0.514-0.343-0.856-0.857-0.856
	C-176.644,453.425-177.027,453.808-177.028,454.28z M-171.035,454.794c0,0.685,0.428,1.027,0.857,0.77
	c0.513-0.342,0.684-0.941,0.428-1.37C-170.52,452.996-171.035,453.253-171.035,454.794z M-150.059,454.194
	c-0.256,0.429-0.085,1.028,0.428,1.37c0.429,0.257,0.857-0.085,0.857-0.77C-148.774,453.253-149.288,452.996-150.059,454.194z
	 M-165.469,455.136c0.342,0.514,0.941,0.685,1.37,0.428c1.198-0.77,0.941-1.284-0.6-1.284
	C-165.384,454.28-165.726,454.708-165.469,455.136z M-159.049,455.65c0,0.685,0.429,1.027,0.857,0.77
	c0.514-0.256,0.856-0.856,0.856-1.37c0-0.427-0.342-0.77-0.856-0.77c-0.428,0-0.856,0.6-0.856,1.37H-159.049z M-155.624,455.136
	c0,0.428,0.428,0.857,0.857,0.857c0.473-0.001,0.855-0.384,0.856-0.857c0-0.513-0.343-0.856-0.856-0.856
	C-155.24,454.281-155.623,454.663-155.624,455.136z M-206.137,456.335c0,0.77,0.428,1.37,0.856,1.37c0.514,0,0.856-0.343,0.856-0.77
	c0-0.514-0.342-1.114-0.856-1.37C-205.709,455.308-206.137,455.65-206.137,456.335z M-194.151,455.993
	c0,0.428,0.428,0.856,0.856,0.856c0.472-0.001,0.855-0.384,0.856-0.856c0-0.514-0.342-0.857-0.856-0.857
	C-193.768,455.137-194.15,455.52-194.151,455.993z M-213.843,456.849c0,0.428,0.428,0.856,0.856,0.856
	c0.472-0.001,0.855-0.384,0.856-0.856c0-0.514-0.342-0.856-0.856-0.856C-213.459,455.994-213.842,456.377-213.843,456.849z
	 M-228.826,457.619c-0.257,0.428-0.085,1.028,0.428,1.37c0.428,0.257,0.857-0.086,0.857-0.77
	C-227.541,456.677-228.055,456.421-228.826,457.619z M-221.548,457.705c0,0.428,0.428,0.856,0.856,0.856
	c0.472-0.001,0.855-0.384,0.856-0.856c0-0.514-0.342-0.856-0.856-0.856C-221.164,456.85-221.547,457.233-221.548,457.705z
	 M-198.432,459.417c0,0.428,0.6,0.856,1.284,0.856c0.685,0,1.285-0.428,1.285-0.856c0-0.514-0.6-0.856-1.285-0.856
	S-198.432,458.903-198.432,459.417z M-189.87,459.417c0,0.428,0.428,0.856,0.856,0.856c0.472-0.001,0.855-0.384,0.856-0.856
	c0-0.514-0.342-0.856-0.856-0.856C-189.486,458.562-189.869,458.945-189.87,459.417z M-185.59,459.417
	c0,0.428,0.429,0.856,0.857,0.856c0.472-0.001,0.855-0.384,0.856-0.856c0-0.514-0.343-0.856-0.856-0.856
	C-185.205,458.562-185.588,458.945-185.59,459.417L-185.59,459.417z M-193.723,460.273c0.257,0.428,0.942,0.856,1.37,0.856
	c0.514,0,0.6-0.428,0.342-0.856c-0.256-0.513-0.941-0.856-1.37-0.856C-193.894,459.417-193.98,459.76-193.723,460.273z
	 M-201.857,461.129c0,0.429,0.429,0.857,0.857,0.857c0.473-0.001,0.855-0.384,0.856-0.857c0-0.513-0.343-0.856-0.856-0.856
	C-201.473,460.274-201.856,460.656-201.857,461.129z M-174.459,461.9c0,0.514,0.428,1.113,0.856,1.37
	c0.514,0.257,0.856-0.086,0.856-0.77c0-0.771-0.342-1.37-0.856-1.37C-174.031,461.13-174.459,461.472-174.459,461.9z
	 M-166.754,462.414c0,0.685,0.428,1.284,0.856,1.284c0.514,0,0.857-0.6,0.857-1.284c0-0.685-0.343-1.285-0.857-1.285
	C-166.326,461.129-166.754,461.729-166.754,462.414z M-160.761,461.9c0,0.514,0.428,1.113,0.857,1.37
	c0.513,0.257,0.856-0.086,0.856-0.77c0-0.771-0.343-1.37-0.856-1.37C-160.333,461.13-160.761,461.472-160.761,461.9z
	 M-154.767,461.986c0,0.428,0.428,0.856,0.856,0.856c0.472-0.001,0.855-0.384,0.856-0.856c0-0.514-0.343-0.857-0.856-0.857
	C-154.384,461.13-154.766,461.513-154.767,461.986z M-148.774,462.071c0,0.428,0.428,0.6,0.856,0.343
	c0.514-0.257,0.856-0.685,0.856-0.942c0-0.171-0.342-0.343-0.856-0.343C-148.346,461.129-148.774,461.558-148.774,462.071z
	 M-196.72,463.184c0,0.77,0.429,1.37,0.857,1.37c0.513,0,0.856-0.342,0.856-0.77c0-0.514-0.343-1.113-0.856-1.37
	C-196.291,462.157-196.72,462.499-196.72,463.184z M-189.014,462.756c0,0.514,0.428,1.113,0.856,1.37
	c0.514,0.257,0.856-0.086,0.856-0.77c0-0.771-0.342-1.37-0.856-1.37C-188.586,461.986-189.014,462.328-189.014,462.756z
	 M-181.309,462.842c0,0.428,0.428,0.856,0.857,0.856c0.472-0.001,0.855-0.384,0.856-0.856c0-0.514-0.343-0.856-0.856-0.856
	C-180.925,461.987-181.308,462.369-181.309,462.842z M-205.624,463.527c-0.257,0.513-0.085,1.198,0.428,1.455
	c1.285,0.856,2.14-0.257,1.028-1.37C-204.768,463.013-205.281,463.013-205.624,463.527z M-228.398,464.469
	c0,0.513,0.428,1.113,0.857,1.37c0.513,0.256,0.856-0.086,0.856-0.771c0-0.77-0.343-1.37-0.856-1.37
	c-0.429,0-0.857,0.342-0.857,0.77V464.469z M-220.264,464.639c-0.856,1.285,0.257,2.141,1.37,1.028c0.6-0.6,0.6-1.113,0.085-1.455
	C-219.322,463.955-220.007,464.126-220.264,464.639L-220.264,464.639z M-212.131,465.068c0,0.685,0.429,1.027,0.857,0.77
	c0.513-0.342,0.685-0.941,0.428-1.37C-211.616,463.27-212.131,463.527-212.131,465.068z M-242.952,465.924
	c0,0.685,0.428,1.027,0.856,0.77c0.513-0.342,0.685-0.941,0.428-1.37C-242.438,464.126-242.952,464.383-242.952,465.924z
	 M-234.391,465.41c0,0.428,0.428,0.856,0.942,0.856c0.428,0,0.6-0.428,0.342-0.856c-0.256-0.513-0.684-0.856-0.941-0.856
	C-234.22,464.554-234.391,464.897-234.391,465.41z M-153.055,466.78c0,0.685,0.428,1.028,0.856,0.77
	c0.514-0.342,0.685-0.941,0.428-1.37C-152.541,464.982-153.055,465.24-153.055,466.78z M-193.295,467.979
	c0,0.428,0.428,0.856,0.856,0.856c0.472-0.001,0.855-0.384,0.856-0.856c0-0.514-0.342-0.856-0.856-0.856
	C-192.911,467.124-193.294,467.507-193.295,467.979z M-238.586,470.205c0,0.942,0.257,1.198,0.514,0.514
	c0.257-0.6,0.17-1.37-0.086-1.627C-238.415,468.749-238.672,469.263-238.586,470.205z M-163.757,470.462
	c-0.257,0.428-0.086,1.027,0.428,1.37c0.428,0.256,0.856-0.086,0.856-0.771c0-1.541-0.514-1.798-1.284-0.6L-163.757,470.462z
	 M-157.336,470.547c0,0.428,0.428,0.856,0.856,0.856c0.472-0.001,0.855-0.384,0.856-0.856c0-0.513-0.342-0.856-0.856-0.856
	C-156.952,469.692-157.335,470.075-157.336,470.547z M-151.343,470.462c0,0.513,0.428,1.113,0.856,1.37
	c0.514,0.256,0.856-0.086,0.856-0.771c0-0.77-0.342-1.37-0.856-1.37c-0.428,0-0.856,0.343-0.856,0.77V470.462z M-187.302,471.403
	c0,0.429,0.428,0.857,0.856,0.857c0.473-0.001,0.856-0.384,0.857-0.857c0-0.513-0.343-0.856-0.857-0.856
	C-186.918,470.548-187.301,470.931-187.302,471.403z M-178.74,471.917c0,0.685,0.428,1.028,0.856,0.77
	c0.514-0.256,0.856-0.855,0.856-1.37c0-0.427-0.342-0.77-0.856-0.77C-178.312,470.547-178.74,471.147-178.74,471.917z
	 M-171.035,471.317c0,0.515,0.428,1.114,0.857,1.37c0.513,0.258,0.856-0.085,0.856-0.77c0-0.77-0.343-1.37-0.856-1.37
	C-170.607,470.547-171.035,470.89-171.035,471.317z M-211.617,472.174c-0.342,0.6-0.428,1.284-0.171,1.541
	c0.77,0.77,1.627-0.342,1.199-1.541C-210.932,471.232-211.103,471.232-211.617,472.174z M-204.425,472.774
	c0,0.684,0.428,1.027,0.856,0.77c0.514-0.257,0.856-0.856,0.856-1.37c0-0.428-0.342-0.77-0.856-0.77
	C-203.997,471.404-204.425,472.003-204.425,472.774z M-195.863,472.26c0,0.428,0.428,0.856,0.856,0.856
	c0.472-0.001,0.855-0.384,0.856-0.856c0-0.514-0.343-0.857-0.856-0.857C-195.48,471.404-195.862,471.787-195.863,472.26z
	 M-233.535,473.458c0,0.77,0.428,1.37,0.857,1.37c0.513,0,0.856-0.342,0.856-0.77c0-0.514-0.343-1.113-0.856-1.37
	C-233.107,472.431-233.535,472.773-233.535,473.458z M-226.685,473.544c0,0.685,0.428,1.284,0.856,1.284
	c0.514,0,0.856-0.6,0.856-1.284c0-0.685-0.342-1.284-0.856-1.284C-226.257,472.26-226.685,472.859-226.685,473.544z
	 M-219.665,473.201c0.171,0.514,0.685,0.857,1.113,0.857c0.428,0,0.942-0.343,1.113-0.857c0.172-0.513-0.342-0.941-1.113-0.941
	C-219.322,472.26-219.836,472.688-219.665,473.201z M-243.295,473.886c-0.342,0.428-0.171,1.028,0.257,1.285
	c0.428,0.342,1.027,0.17,1.284-0.257c0.343-0.428,0.171-1.028-0.257-1.285C-242.439,473.287-243.038,473.459-243.295,473.886z"/>
</svg>
