<?xml version="1.0" encoding="iso-8859-1"?>
<!-- Generator: Adobe Illustrator 19.0.0, SVG Export Plug-In . SVG Version: 6.00 Build 0)  -->
<svg version="1.2" baseProfile="tiny" id="Layer_1" xmlns="http://www.w3.org/2000/svg" xmlns:xlink="http://www.w3.org/1999/xlink"
	 x="0px" y="0px" viewBox="-247 357.89 100 126" xml:space="preserve">
<title>face_00102</title>
<path d="M-177.087,359.165c0,0.603,1.689,1.206,3.74,1.206c7.84,0,13.268,2.654,18.093,8.806c5.911,7.479,6.394,11.46,0.845,6.031
	c-3.86-3.619-6.997-4.584-14.475-4.222c-3.981,0.241-11.58,6.635-12.546,10.736c-0.603,2.05-1.206,2.533-2.05,1.689
	c-0.724-0.724-1.81-1.327-2.292-1.327c-0.483,0-0.965,14.596-0.965,32.328v32.328l-3.498,0.241c-1.93,0.12-3.981-0.362-4.343-0.965
	c-0.483-0.723-2.292-1.085-4.101-0.603l-3.257,0.724l0.12-31.725c0-19.18-0.482-31.966-1.206-32.328
	c-0.603-0.362-1.93,2.171-3.016,5.67c-2.17,7.116-4.342,10.132-3.015,4.221c1.085-5.307-0.242-10.615-3.74-14.113
	c-3.74-3.74-7.358-4.705-14.837-3.98c-10.494,1.084-16.767,8.321-15.44,18.092c0.482,3.257,0.241,4.463-0.483,3.257
	c-2.774-4.341,0.12-16.887,5.187-22.797c3.378-3.981,12.184-8.565,17.612-9.289c3.136-0.362,6.514-1.085,7.479-1.688
	c4.101-2.172-2.654-2.534-10.012-0.483c-8.927,2.413-18.939,9.53-21.713,15.44c-2.533,5.187-2.654,17.853-0.362,22.316
	c6.755,12.787,26.176,14.958,36.188,3.86l4.343-4.825V419.6c0,19.542-0.242,21.713-1.93,21.11c-7.48-2.895-12.304-1.207-17.009,5.67
	c-9.53,14.233-0.724,29.794,19.904,35.102c10.012,2.654,17.611,2.412,26.538-0.724c10.132-3.498,15.922-8.685,18.697-16.405
	c3.257-8.927,2.05-14.717-4.343-20.145c-6.031-5.187-12.062-6.514-16.767-3.86l-3.377,1.93v-40.049l2.774,2.412
	c2.654,2.413,7.358,4.463,13.028,5.67c2.05,0.482,5.307-0.362,9.288-2.413c4.825-2.412,6.393-3.98,8.082-8.082
	c2.413-5.91,3.619-17.008,2.533-22.798c-0.965-5.55-8.444-13.993-14.475-16.768C-167.196,357.838-177.088,357.114-177.087,359.165
	L-177.087,359.165z M-156.22,377.259c1.81,2.05,3.257,4.342,3.257,5.066c0,0.844-1.688-0.482-3.74-3.016
	c-3.256-3.98-4.342-4.463-9.287-4.583c-4.343,0-5.067-0.242-3.257-1.086C-165.267,371.83-159.838,373.399-156.22,377.259z
	 M-216.05,378.103c1.567,1.086,2.774,2.413,2.774,3.016c0,0.603-1.568,0-3.498-1.327c-4.584-3.257-10.857-3.257-15.923,0.241
	c-7.359,4.946-7.48,15.682-0.12,21.351c1.567,1.327,2.412,2.413,1.809,2.413c-2.654,0-7.48-5.067-8.806-9.047
	C-244.277,381.24-228.234,370.142-216.05,378.103L-216.05,378.103z M-159.477,379.309c2.051,2.654,2.172,4.946,0.242,3.016
	c-1.689-1.689-10.374-1.93-12.907-0.362c-0.965,0.603-2.051,3.137-2.534,5.67l-0.965,4.704l-0.12-5.066
	c-0.12-4.102,0.482-5.428,3.015-7.48c3.981-3.135,11.098-3.377,13.27-0.482H-159.477z M-218.1,382.084
	c3.257,3.257,3.377,11.46,0.12,13.269c-2.292,1.085-2.292,0.965-0.482-2.413c0.965-1.93,1.327-4.704,0.965-6.031
	c-0.965-3.136-6.032-6.514-8.444-5.549c-0.965,0.362-1.81,0.12-1.81-0.482C-227.751,378.706-220.513,379.671-218.1,382.084
	L-218.1,382.084z M-230.163,382.687c-0.844,1.086-1.81,1.568-2.292,1.206c-0.362-0.362,0.12-1.206,1.086-1.81
	C-228.836,380.395-228.474,380.636-230.163,382.687z M-162.491,383.29c1.206,0.724,2.292,2.171,2.292,3.136
	c0,1.569-0.242,1.569-2.05-0.12c-1.207-1.327-3.258-1.81-5.43-1.568c-4.1,0.603-4.342,0.12-0.602-1.448
	C-164.783,381.963-165.145,381.963-162.491,383.29z M-221.72,385.1c2.292,2.653,0.965,3.015-1.448,0.361
	c-1.206-1.206-1.688-2.17-1.085-2.17C-223.65,383.291-222.565,384.135-221.72,385.1z M-166.594,391.252
	c0.965-0.362,1.327-0.121,0.965,0.482c-1.206,1.93-4.1,1.327-5.428-1.086c-1.93-3.618-1.447-4.583,0.724-1.568
	C-169.247,390.769-167.679,391.613-166.594,391.252L-166.594,391.252z M-223.77,393.543c2.533-0.603,2.413-0.482-0.12,0.845
	c-2.292,1.085-3.016,1.085-3.981-0.362c-0.603-0.965-1.086-2.292-1.086-2.895c0.12-0.724,0.603-0.241,1.327,0.965
	C-226.786,393.543-225.459,394.026-223.77,393.543z M-172.986,400.66c4.343,2.051,9.289,1.69,12.666-0.965
	c1.327-0.965,1.568-0.965,1.086,0.483c-0.845,2.654-7.117,4.584-11.34,3.498c-4.1-1.206-10.132-6.152-10.132-8.564
	c0-0.845,0.844-0.362,1.81,0.965C-177.931,397.524-175.278,399.575-172.986,400.66z M-217.376,398.851
	c-1.207,1.93-7.48,3.498-9.289,2.413c-1.206-0.724-0.603-1.086,1.93-1.086c2.05,0,4.463-0.603,5.428-1.206
	C-217.015,397.524-216.532,397.524-217.376,398.851L-217.376,398.851z M-157.184,404.4c-1.93,1.689-4.342,3.016-5.307,3.016
	c-1.81,0,5.79-5.79,7.72-5.911C-154.047,401.505-155.133,402.832-157.184,404.4z M-209.054,442.397
	c0.363,0.724-0.602,1.207-2.291,1.207c-1.568,0-3.86,0.844-4.825,1.93c-1.69,1.689-1.93,1.689-1.93,0
	c0-3.257,7.358-5.91,9.047-3.137H-209.054z M-170.935,443.242c1.568,1.81,1.447,1.81-0.724,0.724
	c-1.327-0.724-3.257-1.569-4.222-1.93c-1.206-0.483-0.965-0.724,0.724-0.724C-173.71,441.192-171.779,442.036-170.935,443.242z
	 M-174.675,445.292c0,0.242-0.844,0.845-1.93,1.207c-0.965,0.362-1.447,0.241-1.085-0.483
	C-176.966,444.81-174.675,444.328-174.675,445.292L-174.675,445.292z M-166.231,454.34c-2.05,5.066-9.167,8.564-16.284,7.961
	c-7.6-0.603-10.977-3.74-9.41-8.565c1.448-4.222,5.188-5.428,5.188-1.809c0,1.81,0.723,2.533,2.774,2.533
	c1.448-0.12,4.463,0.241,6.635,0.724c5.428,1.086,9.53-1.327,10.735-6.031c0.724-3.378,0.845-3.499,1.327-0.965
	C-165.024,449.756-165.386,452.53-166.231,454.34z M-212.672,448.429c0.362,0.603,0.12,1.206-0.483,1.206
	c-0.723,0-1.327-0.603-1.327-1.206c0-0.724,0.242-1.206,0.483-1.206C-213.637,447.223-213.034,447.705-212.672,448.429z
	 M-195.182,451.083c0,4.825-2.894,8.805-6.634,9.409c-7.72,1.447-18.697-3.378-18.697-8.082c0-1.448,0.362-1.327,1.93,0.12
	c2.654,2.654,7.72,3.74,10.253,2.171c1.207-0.844,2.896-1.085,3.86-0.723c0.966,0.362,2.172-0.724,3.016-2.533
	c1.81-3.981,6.273-4.222,6.273-0.362H-195.182z M-210.983,462.783c4.222,1.327,10.856,0.724,14.957-1.326
	c1.569-0.845,2.895-0.604,4.222,0.603c4.946,4.463,16.406,3.98,23.643-0.965c2.413-1.568,4.343-2.533,4.343-2.051
	c-0.12,2.05-4.705,6.273-9.65,8.926c-4.825,2.413-7.117,2.775-19.904,2.775c-12.907,0-14.958-0.362-19.3-2.775
	c-4.343-2.533-10.253-9.167-10.253-11.58c0-0.482,1.809,0.483,3.98,2.05C-216.895,460.01-213.275,461.94-210.983,462.783z
	 M-212.069,471.227c11.339,4.825,36.55,3.378,44.39-2.653c3.137-2.413,2.655,0.12-0.723,3.739
	c-11.46,12.183-44.753,9.047-53.438-5.066c-3.257-5.308-2.895-6.394,0.724-2.172C-219.548,467.005-215.446,469.78-212.069,471.227z"
	/>
</svg>
