<?xml version="1.0" encoding="iso-8859-1"?>
<!-- Generator: Adobe Illustrator 19.0.0, SVG Export Plug-In . SVG Version: 6.00 Build 0)  -->
<svg version="1.2" baseProfile="tiny" id="Layer_1" xmlns="http://www.w3.org/2000/svg" xmlns:xlink="http://www.w3.org/1999/xlink"
	 x="0px" y="0px" viewBox="-247 360.89 100 120" xml:space="preserve">
<title>face_00012</title>
<path d="M-213.268,404.426c0.403,23.867,0.805,43.706,1.107,44.008c0.202,0.403,3.022,0.604,6.244,0.504
	c3.223-0.101,9.769-0.302,14.703-0.302l8.761-0.101v-87.613h-31.52C-213.973,360.922-213.268,404.426-213.268,404.426z
	 M-246.904,386.601v14.703l14.401-0.302l14.3-0.302l0.302-14.4l0.302-14.3h-29.305v14.6V386.601z M-176.612,380.257
	c-0.1,4.028-0.201,10.07-0.201,13.394l-0.1,6.042l14.5-0.201c7.956-0.101,14.603-0.403,14.804-0.504
	c0.302-0.302,0.605-13.998,0.504-21.752l-0.1-4.23h-29.205C-176.41,373.006-176.612,380.257-176.612,380.257z M-238.545,451.355
	c-2.316,0.302-2.316,0.604-2.316,14.904v14.501h88.519l0.302-9.869c0.202-5.337,0.202-11.883,0-14.501l-0.302-4.834l-41.994-0.201
	c-23.061-0.202-43-0.202-44.21,0H-238.545z"/>
</svg>
