<?xml version="1.0" encoding="iso-8859-1"?>
<!-- Generator: Adobe Illustrator 19.0.0, SVG Export Plug-In . SVG Version: 6.00 Build 0)  -->
<svg version="1.2" baseProfile="tiny" id="Layer_1" xmlns="http://www.w3.org/2000/svg" xmlns:xlink="http://www.w3.org/1999/xlink"
	 x="0px" y="0px" viewBox="-247 370.89 100 101" xml:space="preserve">
<title>face_00024</title>
<path d="M-204.94,371.434c0,0.426,1.531,2.298,3.403,4.086c1.873,1.787,3.405,2.978,3.405,2.553c0-0.34-1.532-2.213-3.405-4
	C-203.409,372.2-204.94,371.009-204.94,371.434z M-190.474,371.35c0,0.511-1.532,1.702-3.404,2.809
	c-1.872,1.021-3.404,2.298-3.404,2.723c0,0.936,1.276,0.34,3.66-1.617c0.765-0.68,1.701-1.021,2.127-0.596
	c0.34,0.34,0.085,0.852-0.51,1.022c-0.597,0.255-2.214,1.361-3.66,2.553l-2.554,2.213l-4.085-4c-2.127-2.128-4.34-3.915-4.766-3.915
	c-0.425,0,1.107,1.872,3.405,4.255c2.298,2.298,3.83,4.255,3.319,4.255c-0.51,0-1.787-1.02-2.979-2.212
	c-1.106-1.192-2.808-2.554-3.745-3.064c-0.936-0.426,0.511,1.276,3.234,3.915l4.852,4.68l5.531-4l5.447-3.914l7.064,0.255
	c6.553,0.17,6.894,0.085,5.362-1.106c-1.022-0.766-3.404-1.277-5.958-1.362c-3.234,0-3.915,0.255-2.978,0.936
	c0.936,0.681,0.595,0.766-1.447,0.34c-1.532-0.34-2.894-0.17-3.234,0.341c-0.256,0.51-0.936,0.936-1.532,0.936
	c-0.51,0-0.34-0.68,0.51-1.532c1.022-0.936,3.405-1.617,7.66-1.957l6.128-0.51l-6.128-0.086c-3.32-0.085-6.383,0.17-6.638,0.68
	c-0.256,0.426-0.936,0.852-1.447,0.852c-0.51,0-0.51-0.51,0.17-1.277c0.596-0.766,0.851-1.532,0.51-1.872
	C-190.219,370.84-190.474,370.925-190.474,371.35z M-177.452,375.69c-0.595,0.171-1.787,0.171-2.553,0
	c-0.85-0.255-0.34-0.425,1.022-0.425c1.446,0,2.042,0.17,1.531,0.426V375.69z M-217.282,372.542c-2.467,0.596-2.382,0.68,0.852,0.68
	c1.872,0,4.17-0.255,5.106-0.68c1.447-0.596,1.277-0.766-0.851-0.681c-1.362,0-3.66,0.34-5.106,0.68L-217.282,372.542z
	 M-214.302,375.095c3.659,0.596,3.744,0.596,0.765,0.68c-2.042,0.171-3.064,0.597-3.064,1.448c0,0.68,0.34,1.276,0.766,1.276
	c0.426,0,0.511,0.34,0.256,0.851c-0.256,0.426,0,0.851,0.68,0.851c0.681,0,2.213,0.766,3.49,1.788l2.213,1.787l-0.256-2.043
	c-0.255-1.361-1.106-2.127-2.808-2.468c-2.383-0.51-2.383-0.596-0.34-0.766c1.957-0.085,1.957-0.17,0.425-0.85
	c-1.277-0.597-1.362-0.767-0.34-0.767c0.766-0.085,1.872-0.68,2.468-1.361c0.936-1.107,0.425-1.277-3.49-1.107l-4.595,0.085
	C-218.132,374.499-214.302,375.095-214.302,375.095z M-192.941,381.563c-2.894,2.213-5.106,4.17-4.851,4.34
	c0.255,0.256,0.936,0,1.532-0.51c3.574-3.064,9.362-6.979,9.702-6.638c0.255,0.255-1.702,2.042-4.425,4.085
	c-2.639,2.042-5.618,4.425-6.554,5.361c-1.617,1.532-1.702,1.447-6.298-2.978c-2.553-2.554-4.34-4-4.085-3.234
	c0.596,1.532-1.702,3.915-2.468,2.553c-0.34-0.51-1.106-0.681-1.702-0.426c-0.596,0.256-1.787-0.17-2.553-1.021
	c-0.766-0.766-1.617-1.191-1.872-0.936c-0.511,0.51,4.766,4.425,6.042,4.425c0.51,0.085,0.766,0.511,0.681,1.022
	c-0.17,0.936,7.404,7.915,8.68,7.915c0.256,0,0.341-1.362,0.086-2.98c-0.51-2.978-0.085-3.489,1.702-2.297
	c1.106,0.68,1.192,3.574,0.17,3.574c-0.425,0-0.17,0.596,0.596,1.362c0.766,0.766,1.192,1.958,0.936,2.638
	c-0.255,0.681,1.702-0.34,4.426-2.212c2.723-1.958,5.191-3.49,5.617-3.49c0.34,0,1.872-0.936,3.404-2.127
	c3.66-2.809,4.68-2.724,2.128,0.17c-1.873,2.127-1.873,2.213-0.085,0.766c1.02-0.936,2.127-1.447,2.383-1.107
	c0.255,0.256-0.681,1.277-2.128,2.383c-1.447,1.107-2.638,2.298-2.638,2.639c0,0.425,0.51,0.34,1.106-0.17
	c1.114-0.906,2.249-1.786,3.404-2.639c1.702-1.276,2.128-2.042,1.447-2.468c-0.68-0.425,0-1.447,2.043-2.979
	c1.702-1.276,2.893-2.553,2.723-2.808c-0.255-0.255-1.106,0.085-1.957,0.766c-1.277,1.021-1.362,1.021-0.766-0.426
	c0.595-1.702,0.51-1.702-1.192-0.085c-1.021,0.936-3.064,1.617-4.68,1.617c-1.618,0-3.065,0.426-3.15,0.851
	c0,0.51-0.17,1.277-0.255,1.787c-0.17,0.426-0.255,1.362-0.34,1.873c0,0.596-0.596,1.106-1.192,1.106
	c-0.68,0-2.808,1.107-4.68,2.553c-1.958,1.362-3.916,2.554-4.426,2.554c-1.873,0-0.596-1.447,3.744-4
	c4.681-2.894,5.447-4.596,3.234-6.98c-0.936-1.02-0.766-1.531,1.192-3.233c1.277-1.107,2.894-1.787,3.574-1.532
	c0.596,0.255,1.617,0.425,2.128,0.425c0.596,0.086,0.085,0.596-1.106,1.277c-2.128,1.192-2.043,1.192,1.532,1.277
	c1.957,0,3.574-0.34,3.574-0.766s2.043-1.107,4.51-1.447l4.426-0.681l-5.106-0.68c-2.809-0.426-6.128-0.597-7.404-0.426
	c-1.362,0.17-2.383,0-2.383-0.34c0-0.426,2.978-0.852,6.638-1.022l6.553-0.255l-8.17-0.17l-8.085-0.17
	C-187.579,377.649-192.941,381.563-192.941,381.563z M-204.175,386.243c1.447,1.448,2.638,2.724,2.638,2.81
	c0,0.51-3.404-0.086-4-0.767c-0.425-0.34-0.17-0.425,0.426-0.085c0.51,0.34,1.021,0.256,1.021-0.255c0-0.51-0.766-1.277-1.702-1.787
	c-1.617-0.851-1.702-0.681-1.362,1.276c0.256,1.277,0.085,1.958-0.425,1.703c-0.426-0.34-0.596-0.852-0.34-1.277
	c0.255-0.426,0.084-0.936-0.426-1.277c-0.681-0.425,0.425-2.723,1.447-2.978C-206.813,383.606-205.622,384.797-204.175,386.243
	L-204.175,386.243z M-190.643,387.606c-0.68,0.85-0.596,1.106,0.255,1.106c1.532,0-0.255,1.617-4.425,4.085
	c-2.383,1.447-3.064,1.617-3.064,0.596c0-0.681,0.936-2.128,2.042-3.15c1.703-1.616,2.213-1.701,2.809-0.68
	c0.425,0.68,1.021,0.936,1.447,0.596c0.34-0.426,0.085-1.021-0.596-1.447c-0.851-0.596-0.936-0.851-0.17-0.851
	c0.51,0,1.021-0.426,1.021-0.851c0-0.51-1.617,0.17-3.574,1.447c-2.554,1.532-3.234,1.787-2.383,0.68
	c2.212-2.638,6.212-4.765,6.978-3.659C-189.963,386.074-190.133,387.01-190.643,387.606z M-177.963,386.755
	c-0.765,0.766-1.701,1.106-2.042,0.766c-0.34-0.34-0.085-0.937,0.596-1.362c2.128-1.362,2.979-0.936,1.447,0.596H-177.963z
	 M-196.09,391.69c-0.85,0.68-1.191,1.276-0.68,1.276c0.51,0,1.446-0.595,2.042-1.276
	C-193.366,390.073-193.962,390.073-196.09,391.69z M-204.515,382.668c1.787,1.873,3.66,3.49,4.17,3.49
	c1.106,0-3.66-5.021-5.873-6.128C-207.154,379.52-206.388,380.711-204.515,382.668z M-218.898,383.775
	c1.957,2.128,2.127,2.553,0.766,2.042c-0.937-0.34,0.595,1.532,3.404,4.086c2.808,2.553,4.68,4.68,4.085,4.765
	c-0.51,0-1.277-0.425-1.532-0.85c-0.255-0.511-0.936-0.852-1.362-0.852c-0.51,0-0.595,0.34-0.34,0.851
	c0.34,0.511-0.085,0.596-1.021,0.34c-1.362-0.425-1.362-0.34,0.085,0.852c0.936,0.766,1.361,1.617,1.106,1.957
	c-0.34,0.256-1.447-0.255-2.553-1.191c-1.021-0.936-2.383-1.532-3.064-1.277c-0.68,0.17-0.936,0.085-0.68-0.34
	c0.255-0.426-0.426-0.851-1.362-0.936c-1.022-0.085-2.809-0.34-4-0.511c-0.915-0.132-1.824-0.302-2.724-0.51
	c-0.425,0-0.68-0.511-0.68-1.022c0-0.51,0.765-0.68,1.957-0.255c1.276,0.34,0.936-0.256-1.447-2.128
	c-3.49-2.808-5.702-3.66-2.383-0.936c1.872,1.532,1.872,1.702,0.425,3.32c-1.787,2.127-3.063,2.212-4.51,0.51
	c-0.681-0.766-0.766-1.277-0.17-1.277c0.51,0,1.191,0.34,1.446,0.851c0.256,0.426,1.022,0.851,1.532,0.851
	c1.107-0.085-1.191-2.042-4.085-3.574c-1.532-0.851-1.617-0.851-0.51,0.425c1.191,1.532,0.17,2.043-1.277,0.596
	c-0.51-0.51-1.106-0.255-1.787,0.766c-0.851,1.362-0.681,1.447,0.936,1.192c1.191-0.256,2.383,0.255,3.149,1.191
	c1.106,1.362,1.021,1.447-0.255,0.426c-1.703-1.362-3.234-0.681-3.32,1.361c0,0.936-0.255,1.022-0.51,0.34
	c-1.192-2.893-5.362,0.596-5.362,4.511c0,0.681-0.34,1.277-0.766,1.277c-0.425,0-0.936,1.191-1.106,2.638
	c-0.426,2.979,0.085,3.66,6.723,8.596c2.553,1.872,4.426,3.574,4.17,3.83c-0.255,0.34-1.276-0.17-2.127-0.936
	c-0.936-0.851-2.043-1.277-2.554-1.022c-0.425,0.256-0.936,0-1.191-0.51c-0.17-0.596-0.68-0.851-1.021-0.511
	c-0.681,0.68,4.085,6.553,6.298,7.83c0.766,0.425,0.51-0.17-0.511-1.362c-2.553-2.723-2.468-3.574,0.17-1.872
	c1.192,0.766,2.383,1.191,2.724,0.85c0.255-0.254,0.085-0.51-0.426-0.51c-0.51,0-0.851-0.766-0.766-1.702
	c0.17-2.042,2.128-2.213,3.575-0.255c1.02,1.361,1.191,1.361,3.234,0c1.446-0.936,3.319-1.277,5.191-1.107
	c2.043,0.34,3.575-0.085,5.021-1.276c1.192-0.851,2.724-1.362,3.49-1.107c0.766,0.256,1.361,0.17,1.361-0.34
	c0-0.426,0.596-1.021,1.192-1.277c2.468-0.936,0.425,1.788-2.128,2.809c-1.361,0.596-2.468,1.362-2.468,1.787
	c0,1.532,0.766,1.106,5.958-3.49c1.617-1.446,2.383-2.552,1.702-2.467c-3.32,0.34-3.745-0.17-1.617-1.617
	c1.191-0.766,2.042-1.958,1.787-2.639c-0.255-0.68,0-0.936,0.51-0.595c0.511,0.255,1.022,0.085,1.192-0.511
	c0.255-0.68,1.532-0.085,3.745,1.702c1.787,1.532,3.574,2.723,4,2.723c0.34,0,1.787-0.85,3.149-1.872
	c3.83-2.808,3.915-1.362,0.085,1.702l-3.234,2.639l-2.894-2.469c-1.617-1.361-3.234-2.468-3.66-2.553
	c-0.425,0,0.256,0.766,1.532,1.788c1.192,0.936,2.213,2.127,2.213,2.638c0,0.51-0.766,0.255-1.702-0.596s-1.957-1.362-2.213-1.106
	c-0.68,0.766,6.724,6.723,7.83,6.298c0.596-0.256,1.192,0,1.362,0.425c0.17,0.51,2.128-0.51,4.34-2.213
	c2.298-1.702,3.915-3.404,3.66-3.66c-0.255-0.255-2.043,0.852-4,2.384c-2.128,1.702-3.745,2.468-4.085,1.872
	c-0.256-0.51-1.277-0.851-2.128-0.766c-0.851,0.085-1.787-0.425-2.042-1.106c-0.34-1.107-0.256-1.107,0.85-0.17
	c1.192,0.936,1.533,0.85,2.554-0.426c1.787-2.468,8.17-7.149,8.68-6.383c0.256,0.426-1.531,2.128-3.83,3.915
	c-2.382,1.787-4.084,3.404-3.914,3.66c0.255,0.17,2.213-1.022,4.425-2.724l4.086-3.064l2.383,2.298
	c2.808,2.638,3.66,2.383,2.808-0.85c-0.34-1.533-0.936-2.129-1.702-1.873c-0.68,0.255-1.192-0.085-1.192-0.851
	s-0.425-1.022-1.02-0.681c-0.682,0.425-0.767,0-0.426-1.447c0.34-1.106,0.595-2.383,0.595-2.809c0-0.34,0.511-0.51,1.192-0.255
	c0.68,0.255,1.447,0.085,1.702-0.51c0.255-0.596,0.255-0.086,0,1.106c-0.34,1.702,0,1.447,1.447-1.106
	c1.106-1.703,2.383-3.064,2.893-2.894c0.426,0.17,1.788-0.34,2.98-1.106c1.957-1.362,2.212-1.362,3.403-0.17
	c1.107,1.19,1.022,1.276-0.34,0.765c-2.128-0.85-3.32,0.17-1.872,1.617c1.02,0.936,1.02,1.702,0.255,3.745
	c-0.766,2.128-0.766,3.064,0.255,4.936c1.447,2.468,5.277,3.49,7.15,1.958c0.68-0.511,1.701-0.766,2.467-0.426
	c0.681,0.255,1.532,0.085,1.873-0.425c0.255-0.596,0-0.681-0.851-0.426c-1.022,0.426-1.192,0.17-0.681-1.021
	c0.51-1.362,0.255-1.362-1.787,0.34c-2.554,1.958-5.192,2.468-6.043,1.021c-0.34-0.51,0.51-0.85,1.957-0.85
	c1.703,0,2.724-0.596,3.575-2.128c1.021-1.958,0.936-2.383-0.936-4.34c-1.958-2.128-1.958-2.213-0.17-1.277
	c3.148,1.617,3.404,0.936,0.255-0.851c-2.553-1.447-2.638-1.617-0.851-1.362c1.191,0.255,2.893,0.68,3.83,1.021
	c1.361,0.596,1.276,0.34-0.34-1.021l-2.129-1.702l1.873-0.681c1.191-0.34,2.468-0.17,3.234,0.51
	c1.702,1.362,2.553,0.256,1.106-1.446c-1.106-1.362-0.936-1.447,1.107-0.936c1.446,0.425,3.66,0.085,5.872-0.766
	c3.49-1.447,3.49-1.447,1.532-2.554c-1.362-0.766-1.617-1.191-0.766-1.276c0.68,0,0.17-0.426-1.192-0.766
	c-1.446-0.51-3.063-0.426-3.83,0c-0.85,0.51-0.936,0.851-0.255,0.851c1.958,0,1.022,1.362-2.127,2.979
	c-3.745,1.787-15.32,2.638-11.915,0.85c1.021-0.51,4.425-2.723,7.49-4.765l5.701-3.83l-3.149-0.085
	c-1.702-0.085-3.574,0.34-4.17,0.851c-0.851,0.68-1.277,0.68-1.702,0c-0.426-0.596-2.043,0.085-4.596,2.043
	c-3.404,2.468-3.915,3.234-3.234,4.51c0.596,1.107,0.426,1.787-0.596,2.638c-1.191,1.022-1.361,1.022-0.766,0
	c0.511-0.766,0.426-1.02-0.425-0.766c-0.68,0.256-1.106,0.937-0.936,1.447c0.085,0.596-0.17,0.766-0.766,0.51
	c-0.51-0.34-1.958,0.341-3.15,1.533c-1.276,1.106-3.318,2.723-4.595,3.49c-1.276,0.85-2.128,1.957-1.872,2.552
	c0.51,1.277-1.958,3.575-2.809,2.724c-0.34-0.256,0.17-1.107,1.107-1.873c1.532-1.191,1.532-1.276-0.34-0.34
	c-3.065,1.532-3.32,0.255-0.256-1.447c1.447-0.85,2.638-1.787,2.638-2.213c0-0.34,0.51-0.595,1.192-0.595
	c0.595,0,1.617-0.596,2.212-1.277c0.596-0.68,0.681-1.276,0.256-1.276c-1.107,0-10.979,7.319-11.83,8.68
	c-0.426,0.851-0.34,0.937,0.596,0c0.595-0.51,1.447-1.02,1.787-1.02c1.277,0,0.596,1.276-1.447,2.808
	c-2.553,1.872-3.83,1.276-8.936-3.745c-2.468-2.383-3.745-3.234-4.17-2.553c-0.51,0.766-0.936,0.68-1.787-0.34
	c-1.107-1.362-1.873-4.682-1.022-4.682c0.17,0,2.979,2.298,6.128,5.107c5.617,4.936,8.596,6.808,5.532,3.404
	c-1.532-1.702-0.681-2.468,1.021-0.766c0.596,0.596,2.553-0.34,6.638-3.404c3.15-2.383,5.532-4.34,5.192-4.34
	c-0.596,0-4.936,2.638-5.617,3.404c-0.255,0.34-1.021,0.766-1.702,1.106c-0.681,0.34-1.873,1.021-2.639,1.532
	c-1.02,0.766-1.872,0.68-3.574-0.51c-1.277-0.767-2.298-1.873-2.298-2.298c0-0.511,0.936-0.256,2.128,0.51
	c1.106,0.766,2.298,1.362,2.468,1.362c0.68,0-9.447-9.277-14.383-13.192c-2.298-1.872-4.766-3.915-5.362-4.51
	C-221.622,379.945-221.366,381.137-218.898,383.775L-218.898,383.775z M-233.026,395.094c0,0.255-1.021,1.362-2.213,2.468
	c-2.638,2.213-3.744,9.192-2.042,12.426c0.85,1.532,0.766,1.787-0.17,1.532c-0.596-0.17-1.788-1.703-2.639-3.32
	c-0.85-1.617-1.276-2.042-1.021-1.02c0.34,1.105,0.17,1.957-0.34,1.957c-0.511,0-0.937-1.362-0.937-2.98
	c0-1.616-0.425-2.978-0.85-2.978c-0.511,0-0.682,0.936-0.341,2.213c0.425,1.617,0.34,2.128-0.426,1.702
	c-1.361-0.851-1.191-4.34,0.34-5.617c0.682-0.596,1.277-0.766,1.277-0.34c0.085,0.425,0.681-0.34,1.362-1.617
	c0.766-1.362,1.532-2.298,1.787-2.043c0.17,0.255,0,1.191-0.51,2.128c-0.511,1.02-0.937,2.638-0.852,3.744
	c0.086,2.043,0.34,1.617,1.107-1.957c0.51-2.383,4.17-6.724,5.617-6.724C-233.452,394.668-233.026,394.838-233.026,395.094z
	 M-221.026,395.349c0.766,0.085,2.043,1.447,2.808,3.064c1.532,3.32,1.788,5.107,0.511,4.34c-0.425-0.255-0.851-1.276-0.851-2.127
	c0-1.787-3.83-5.106-5.872-5.106c-0.766,0-0.17,0.68,1.447,1.702c1.531,0.936,3.148,2.638,3.574,3.744
	c0.766,2.213,0.255,5.617-0.936,5.617c-0.426,0-0.766,0.511-0.766,1.107c0,1.702-5.362,3.319-7.83,2.383
	c-2.894-1.107-3.915-2.639-4.34-6.468l-0.34-3.405l-0.086,3.915c-0.17,4.51,1.958,7.234,6.213,7.83c2.383,0.34,2.383,0.34-0.51,0.51
	c-2.299,0.086-3.575-0.51-5.362-2.382c-2.213-2.298-2.298-2.724-1.532-6.383c0.425-2.128,0.51-3.915,0.17-3.915
	c-0.34,0-0.936,2.042-1.362,4.425c-0.596,4.085-0.68,4.256-1.021,1.617c-0.255-2.893,1.191-7.744,2.383-7.744
	c0.34,0,0.936,0.595,1.191,1.447c0.511,1.191,0.766,1.191,2.298-0.426c0.936-1.021,2.298-1.872,3.15-1.872
	c1.02,0.085,0.765,0.425-0.852,1.361c-2.979,1.617-3.83,4.766-2.042,7.575c1.361,2.042,5.617,3.064,5.617,1.362
	c0-0.426-0.681-0.596-1.617-0.34c-1.703,0.425-4.34-1.703-4.34-3.66c0-0.681,0.68-1.192,1.531-1.107
	c0.766,0,1.021,0.255,0.426,0.426c-1.447,0.595-0.34,2.893,1.361,2.893c0.851,0,1.958-1.021,2.553-2.212
	c0.511-1.277,1.192-2.043,1.447-1.788c0.256,0.256,0.085,1.362-0.51,2.468c-0.937,1.873-0.851,1.873,0.34,0.34
	c1.787-2.212,1.702-2.723-0.34-4.765c-1.022-1.021-1.277-1.702-0.596-1.702c0.51,0,0.17-0.681-0.936-1.532l-1.958-1.532l2.809,0.085
	C-223.664,395.179-221.792,395.264-221.026,395.349z M-214.643,402.073l0.596,3.234l0.595-2.553c0.596-2.383,0.681-2.298,0.766,1.02
	c0.085,2.81-0.255,3.66-1.617,4.086c-0.936,0.255-1.702,0.851-1.702,1.191c0,0.852-3.915,2.639-4.51,2.043
	c-0.256-0.255,0.51-1.277,1.702-2.298c1.787-1.532,2.127-2.638,2.212-6.213C-216.515,397.563-215.664,397.392-214.643,402.073z
	 M-210.047,403.86c0,0.766-0.426,2.043-0.851,2.723c-0.596,0.937-0.851,0.426-0.851-1.957c0-1.958,0.34-3.064,0.85-2.723
	C-210.388,402.158-210.047,403.094-210.047,403.86z M-218.132,406.498c-0.256,1.022-0.851,1.787-1.277,1.787
	c-0.34,0-0.255-0.936,0.255-2.042C-217.962,403.775-217.281,403.945-218.132,406.498z M-233.366,413.137
	c-0.34,0.34-1.192-0.086-1.873-0.937c-1.872-2.638-1.447-3.66,0.681-1.617C-233.537,411.69-233.026,412.796-233.366,413.137z
	 M-238.983,415.094c0,0.426-0.34,0.851-0.852,0.851c-0.425,0-0.85-0.425-0.85-0.851c0-0.51,0.425-0.851,0.85-0.851
	C-239.324,414.243-238.983,414.583-238.983,415.094z M-169.707,385.477c-0.425,0.68-0.085,0.766,1.021,0.426
	c1.192-0.511,1.107-0.17-0.51,1.106c-1.192,0.936-2.894,2.128-3.83,2.638c-1.106,0.596-1.021,0.256,0.425-0.85
	c2.554-2.129,1.703-2.299-1.957-0.426c-3.404,1.787-2.468,0.68,1.702-1.873c3.745-2.298,4-2.383,3.15-1.021H-169.707z
	 M-153.026,389.987c0,0.086-0.68,0.426-1.532,0.596c-0.936,0.256-1.617,0-1.617-0.595c0-0.596,0.68-0.851,1.617-0.596
	c0.851,0.17,1.532,0.51,1.532,0.596V389.987z M-172.601,398.073c0,0.425-0.425,0.85-0.936,0.85c-0.425,0-0.595-0.425-0.34-0.85
	c0.255-0.51,0.68-0.851,0.936-0.851c0.17,0,0.34,0.34,0.34,0.85V398.073z M-171.579,403.264c-1.022,0.34-1.107,0.596-0.256,1.107
	c1.788,1.106,3.234-0.937,1.958-2.894c-0.851-1.362-0.766-1.532,0.17-1.192c2.043,0.766,2.213,2.639,0.51,4.17
	c-2.297,2.128-4.595,1.022-3.914-1.787c0.425-1.617,0.255-2.042-0.426-1.531c-0.68,0.425-0.766,0.255-0.425-0.426
	c0.51-0.766,1.021-0.68,2.213,0.51C-170.473,402.583-170.473,402.839-171.579,403.264z M-213.366,388.115
	c6.383,5.447,9.361,8.426,8.936,8.851c-0.426,0.426-1.362-0.34-9.022-7.234C-217.366,386.072-217.282,384.626-213.366,388.115z
	 M-205.792,397.647c1.532,1.617,2.723,3.15,2.468,3.32c-0.34,0.425-6.723-5.192-6.723-5.873
	C-210.047,393.988-208.43,394.924-205.792,397.647z M-223.409,399.264c0.766,0.596,1.447,2.043,1.447,3.064
	c0,1.106-0.681,2.723-1.447,3.66c-1.192,1.361-1.277,1.617-0.255,1.276c0.68-0.17,1.702-1.702,2.212-3.319
	c0.851-2.383,0.766-3.149-0.34-4.425c-0.68-0.766-1.702-1.447-2.213-1.447C-224.515,398.073-224.26,398.668-223.409,399.264z
	 M-222.813,382.839c0,0.51-0.596,0.68-1.362,0.425c-1.191-0.51-1.277-0.34-0.34,0.766c0.595,0.766,1.957,1.787,2.893,2.213
	c1.617,0.766,1.702,0.766,0.34-0.34c-1.957-1.532-1.957-2.639-0.17-1.958c1.192,0.426,1.277,0.34,0.34-0.766
	C-222.388,381.647-222.813,381.562-222.813,382.839z M-229.196,385.988c4.936,4.425,6.808,5.532,2.723,1.617
	c-2.298-2.213-4.34-4-4.68-4C-231.494,383.605-230.558,384.625-229.196,385.988z M-225.026,386.583
	c1.872,1.617,3.66,2.98,4.085,2.98c0.34,0-0.766-1.363-2.638-2.98c-1.787-1.617-3.575-2.978-4-2.978
	C-228.005,383.69-226.813,384.966-225.026,386.583z M-188.771,384.541c0,0.425,0.426,0.596,0.851,0.34
	c0.511-0.255,0.851-0.68,0.851-0.936c0-0.17-0.34-0.34-0.85-0.34C-188.345,383.605-188.771,384.03-188.771,384.541z
	 M-164.431,387.434c-0.935,0.681-1.276,1.277-0.765,1.277c0.51,0,1.361-0.596,1.957-1.277c1.362-1.617,0.936-1.617-1.191,0H-164.431
	z M-162.983,389.137c-1.022,0.68-2.554,1.02-3.405,0.766c-1.447-0.426-1.447-0.426-0.085,0.51c1.192,0.681,1.958,0.596,3.66-0.51
	c1.191-0.766,2.127-1.532,2.127-1.703C-160.686,387.605-161.111,387.775-162.983,389.137z M-217.026,390.498
	c1.617,1.702,1.191,2.894-0.51,1.362c-0.852-0.851-1.873-1.447-2.299-1.447c-0.34,0,0.17,0.766,1.192,1.617
	c1.106,0.936,2.468,1.447,3.149,1.192c1.702-0.596,1.532-1.362-0.681-2.724C-217.707,389.648-217.877,389.562-217.026,390.498z
	 M-151.494,392.711c0.596,0.255,1.362,0.17,1.617-0.085c0.34-0.255-0.17-0.51-1.106-0.426
	C-151.92,392.2-152.175,392.456-151.494,392.711z M-155.834,393.903c-0.852,0.51-2.128,0.68-2.81,0.425
	c-1.02-0.425-1.02,0,0.256,2.298c0.851,1.447,1.702,2.808,1.958,2.979c0.255,0.085,0.425,1.617,0.34,3.404l-0.255,3.149l0.68-2.979
	l0.682-2.979l0.17,3.49c0.085,2.468-0.426,4.17-1.702,5.532l-1.703,2.042l0.426-2.383c0.34-1.276,0.17-2.298-0.34-2.298
	c-0.426,0-0.851,0.34-0.851,0.766c0,1.702-4.511,6.043-6.213,6.043c-1.617-0.085-1.702-0.17-0.426-0.851
	c0.766-0.51,2.298-2.128,3.32-3.66l1.872-2.723l-2.639,2.638c-3.234,3.234-7.149,4.936-9.957,4.255
	c-2.468-0.595-5.532-3.404-5.532-5.02c0.085-0.682,0.426-0.597,1.106,0.34c2.554,3.319,7.575,4.255,10.469,1.957
	c1.617-1.277,1.617-1.362-0.086-0.766c-3.83,1.362-4.595,1.362-7.149,0.085c-2.978-1.617-4-4.51-2.893-7.915
	c0.936-2.638,0.596-4.51-0.766-4.51c-0.51,0-0.681,1.02-0.34,2.298c0.255,1.361,0.255,1.872,0,1.276
	c-0.256-0.51-0.852-0.85-1.277-0.596c-0.426,0.34-0.51-0.17-0.17-1.02c0.425-1.277,0.34-1.363-0.681-0.426
	c-0.766,0.68-1.277,3.063-1.362,6.127c0,2.724-0.255,5.362-0.51,5.702c-1.107,1.958,0.17,4.766,3.319,6.809
	c1.787,1.276,2.808,1.617,2.127,0.85c-0.85-1.105-0.85-1.446-0.085-1.446c0.766,0,0.766-0.34-0.085-1.532
	c-1.106-1.276-1.021-1.361,0.34-0.255c0.766,0.68,1.277,1.362,1.107,1.617c-0.596,0.596,10.808,8.766,11.745,8.425
	c0.425-0.17,1.02-0.766,1.191-1.446c0.255-0.766-0.085-0.937-1.021-0.596c-1.787,0.68-3.915-0.17-3.915-1.532
	c0-1.106-2.383-2.553-3.575-2.298c-0.425,0.085-0.595-0.255-0.425-0.766c0.085-0.51-0.34-1.191-1.021-1.447
	c-0.766-0.255-0.937,0-0.511,0.766c0.425,0.681,0.34,0.851,0,0.51c-0.936-0.765-1.362-3.148-0.596-3.148
	c0.34,0,1.532,0.766,2.724,1.702c2.638,2.043,3.489,2.128,2.808,0.17c-0.596-1.361-0.51-1.361,0.936,0
	c1.617,1.702,2.639,2.043,1.788,0.681c-0.766-1.191,1.276-2.979,4.17-3.744c1.276-0.34,3.49-1.362,4.766-2.383
	c2.212-1.617,2.468-2.213,2.383-6.98c0-8.765-0.085-8.68,2.978-9.701l2.724-0.936l-2.894,0.425c-1.957,0.34-2.638,0.255-2.298-0.425
	C-152.771,392.711-153.792,392.711-155.834,393.903L-155.834,393.903z M-154.132,395.179c-0.256,0.255-1.022,0.34-1.617,0.085
	c-0.681-0.255-0.426-0.51,0.51-0.51C-154.303,394.668-153.792,394.924-154.132,395.179z M-179.324,406.5
	c0.68-0.852,0.766-0.682,0.34,0.68c-0.34,1.106,0.086,2.724,0.937,4.085c1.191,1.787,1.191,2.043,0.17,1.702
	c-1.872-0.766-3.234-4.255-3.064-7.915l0.085-3.148l0.34,2.893c0.341,2.298,0.596,2.638,1.192,1.702V406.5z M-178.814,404.201
	c-0.255,0.681-0.51,0.426-0.51-0.51c-0.085-0.936,0.17-1.447,0.426-1.107c0.255,0.256,0.34,1.022,0.085,1.617H-178.814z
	 M-178.558,415.521c0.596,0.68,0.68,1.276,0.17,1.276c-0.425,0-1.276-0.596-1.872-1.276c-0.596-0.681-0.68-1.277-0.17-1.277
	C-180.005,414.244-179.154,414.84-178.558,415.521z M-165.792,395.01c0,0.17,0.596,0.596,1.362,0.851
	c0.68,0.255,1.021,0.17,0.766-0.34C-164.175,394.669-165.792,394.329-165.792,395.01z M-161.282,396.201
	c-0.68,0.426-0.765,1.107-0.255,1.873c0.511,0.68,0.851,2.638,0.936,4.255c0.17,2.894,0.17,2.894,0.596,0.426
	c0.34-2.213,0.426-2.383,1.022-0.851l0.765,1.702v-1.702C-158.218,399.095-160.175,395.435-161.282,396.201L-161.282,396.201z
	 M-151.324,396.371c-0.68,0.426-1.021,0.937-0.851,1.192c0.255,0.17,1.192-0.17,2.043-0.851c1.872-1.277,0.85-1.617-1.192-0.34
	V396.371z M-151.324,398.584c-0.936,0.256-1.277,1.702-1.277,5.447c0,2.809,0.256,5.107,0.511,5.107c1.021,0,3.49-3.32,2.979-4.086
	c-0.255-0.51,0.085-1.02,0.766-1.361c0.68-0.256,1.276-0.851,1.276-1.277c0-0.51-0.51-0.68-1.191-0.425
	c-1.192,0.51-2.553-1.873-1.702-3.15c0.255-0.425,0.34-0.68,0.17-0.68C-149.962,398.244-150.643,398.414-151.324,398.584z
	 M-164.77,399.945c-1.361,1.362-1.276,3.064,0.17,4.51c1.022,1.022,1.277,1.022,1.703-0.084c0.255-0.681,0.17-1.107-0.256-0.851
	c-0.425,0.255-1.021-0.086-1.276-0.852c-0.766-2.042-0.596-2.638,0.34-1.191c0.681,1.021,0.851,0.936,0.851-0.68
	C-163.238,398.668-163.408,398.583-164.77,399.945z M-148.94,400.371c0.596,0.255,1.362,0.17,1.617-0.086
	c0.34-0.255-0.17-0.51-1.106-0.425c-0.936,0-1.192,0.255-0.51,0.51L-148.94,400.371z M-188.94,411.52
	c-0.766,0.34-2.468,1.531-3.83,2.723c-4.936,4.34-5.447,4.68-4.85,3.064c0.425-1.022,0.17-1.277-0.937-0.851
	c-0.936,0.34-2.383-0.34-4.34-2.213c-1.532-1.617-3.064-2.638-3.32-2.383c-0.255,0.255,1.532,2.213,4,4.425
	c2.469,2.128,4.086,3.915,3.575,3.915c-0.596,0-1.447-0.595-2.043-1.276c-1.361-1.617-2.893-1.617-2.212,0
	c0.34,0.936-0.34,0.68-2.298-0.596c-1.447-1.106-2.894-2.213-3.15-2.553c-0.255-0.34-2.552,0.68-5.02,2.383
	c-6.128,4.17-6.469,3.064-0.34-1.277c2.723-1.872,4.51-3.49,4-3.49c-0.597,0-3.746,2.129-7.15,4.767
	c-3.319,2.638-6.298,4.51-6.553,4.255c-0.34-0.255-0.34-0.596-0.17-0.766c4.68-3.234,6.638-5.106,6.213-5.872
	c-0.34-0.51,0.085-1.447,0.936-2.128c0.936-0.596,1.361-1.106,1.106-1.106c-1.191,0-16.851,12.17-16.851,13.106
	c0,0.596,0.255,0.681,0.68,0.085c0.937-1.361,8-6.893,10.214-8c3.319-1.787,3.063-0.425-0.34,1.532
	c-2.043,1.277-2.894,2.213-2.554,3.15c0.34,0.935,0.085,1.19-1.021,0.85c-1.022-0.34-2.128,0.17-3.234,1.362l-1.617,1.957
	l1.787-1.532c3.234-2.723,3.32-1.446,0.085,1.532c-3.149,2.809-3.66,5.192-1.021,4.085c0.68-0.255,1.276-0.085,1.276,0.426
	c0,0.851-2.468,2.213-3.66,1.957c-0.34-0.085-1.446,0.426-2.382,1.107c-1.447,1.021-1.532,1.191-0.34,1.702
	c0.936,0.34,1.19,0.17,0.765-0.51c-0.425-0.596-0.17-0.767,0.766-0.426c0.681,0.255,1.788-0.085,2.298-0.766
	c0.596-0.681,1.447-1.192,1.958-1.192c0.51,0-0.17,1.192-1.617,2.724c-2.128,2.383-0.851,1.957,1.872-0.596
	c0.51-0.51,5.362-3.915,10.723-7.49c6.468-4.425,10.213-6.382,11.15-6.042c1.616,0.596,1.957,2.043,0.51,2.043
	c-0.51,0-0.766,0.595-0.426,1.276c0.34,0.936-0.085,1.277-1.446,1.277c-1.022,0-2.809,0.766-4,1.702
	c-2.554,1.957-1.192,2.298,1.531,0.34c2.383-1.617,4-1.106,8.256,2.724c1.872,1.787,3.49,2.723,3.66,2.127
	c0.17-0.51,0.765-0.936,1.276-0.936c0.596,0.085,0.085,0.851-1.021,1.702c-1.107,0.937-1.447,1.703-0.851,1.703
	c0.595,0,1.787-0.596,2.638-1.447c0.936-0.851,1.532-1.022,1.532-0.34c0,0.595,0.68,0.51,2.127-0.426
	c2.469-1.617,2.894-3.15,0.681-2.298c-1.361,0.51-1.361,0.425-0.34-0.851c0.766-1.021,0.851-1.447,0.17-1.447
	c-0.596,0-0.766-0.426-0.51-0.851c0.85-1.362-0.511-1.021-2.213,0.51c-1.447,1.277-1.532,1.277-1.362-0.34
	c0.085-1.106,0.51-1.532,1.362-1.191c0.85,0.34,1.021,0.085,0.51-0.681c-0.425-0.681-0.34-0.936,0.256-0.51
	c0.85,0.51,2.212-0.852,2.298-2.214c0-0.255,0.34-0.85,0.766-1.276c0.425-0.426,0.51-0.255,0.17,0.34
	c-0.34,0.596-0.17,1.107,0.34,1.107c0.596,0,0.851-0.511,0.596-1.192c-0.255-0.68-0.085-1.447,0.51-1.617
	c0.596-0.17,0.766-0.596,0.511-0.936c-0.68-0.766-9.362,7.149-8.85,8c0.254,0.425,0.084,0.936-0.426,1.277
	c-0.851,0.51-7.064-4.681-6.383-5.362c0.255-0.255,1.361,0.425,2.553,1.532l2.042,1.957l2.809-2.808
	c1.532-1.532,4.255-3.745,6.128-4.936c1.787-1.277,2.808-2.383,2.297-2.554c-0.51-0.17-2.808,1.277-5.106,3.15
	c-2.638,2.212-4.68,3.318-5.532,2.978c-0.766-0.255-1.362-0.085-1.362,0.426c0,0.51,0.426,0.936,1.022,0.936
	c0.51,0,0.766,0.255,0.51,0.51c-0.34,0.256-2.127-0.68-4.17-2.127c-1.957-1.447-4-2.639-4.596-2.639
	c-0.51,0-3.744,1.958-7.234,4.256c-3.404,2.383-6.298,4.17-6.553,4c-0.17-0.17,2.979-2.724,6.979-5.702
	c7.49-5.362,7.745-5.447,10.638-2.554c0.255,0.256,1.192,1.022,2.043,1.703c1.532,1.191,1.617,1.106,1.021-0.34
	c-0.51-1.618-0.51-1.618,1.021-0.256c1.532,1.361,1.702,1.361,3.15-0.256c0.85-0.936,2.978-2.553,4.595-3.574
	c5.106-3.149,6.723-5.362,2.383-3.149c-1.277,0.596-1.021,0.17,0.68-1.277C-186.557,410.839-186.472,410.583-188.94,411.52
	L-188.94,411.52z M-209.62,417.647c-0.341,0.51-2.554,2.213-4.937,3.83c-8.68,5.872-11.745,8.255-11.234,8.766
	c0.255,0.255,0.936,0,1.447-0.51c0.596-0.596,1.447-1.022,1.957-1.022c1.022,0-3.915,4.17-5.021,4.255
	c-0.426,0-0.255-0.51,0.255-1.191c0.766-0.936,0.681-1.277-0.425-1.702c-0.766-0.256-1.787-0.256-2.298,0
	c-1.192,0.51,1.872-2.128,7.064-6.383c1.957-1.532,3.66-2.639,3.915-2.383c0.255,0.17-1.022,1.617-2.809,3.064
	c-1.787,1.446-2.894,2.638-2.553,2.638c0.766,0,10.808-7.149,12.51-8.936c1.362-1.447,2.98-1.788,2.128-0.426H-209.62z
	 M-197.62,429.903c1.531-0.596,1.531-0.511,0.084,1.02c-1.446,1.533-1.532,1.448-4.68-1.701l-3.15-3.32l3.064,2.298
	c2.043,1.447,3.66,2.043,4.681,1.703H-197.62z M-193.195,430.923c0,1.533-0.426,2.043-1.277,1.703
	c-0.68-0.255-1.447-0.51-1.702-0.51c-0.34,0,0.17-0.767,1.021-1.703C-193.195,428.285-193.195,428.285-193.195,430.923z
	 M-227.07,428.286c-0.595,0.681-0.68,1.277-0.17,1.277c0.426,0,1.277-0.596,1.873-1.277c0.595-0.68,0.68-1.276,0.17-1.276
	C-225.623,427.01-226.474,427.606-227.07,428.286z M-228.77,417.051c-1.532,1.022-2.383,1.958-1.787,2.128
	c0.766,0.255,0.596,0.851-0.51,2.128l-1.533,1.702l2.383-1.532c1.532-0.936,2.043-1.787,1.447-2.128
	c-0.595-0.34-0.17-1.106,1.192-1.957c2.978-1.958,3.66-1.787,1.702,0.425c-1.447,1.703-1.277,1.703,0.936-0.17
	c1.447-1.191,2.638-2.213,2.809-2.213c0.17-0.085-0.681-0.17-1.788-0.17c-1.191,0-3.319,0.851-4.85,1.787H-228.77z M-206.642,415.52
	c0,0.17,0.851,0.85,1.957,1.361c1.703,0.936,1.788,0.936,0.681-0.34C-205.11,415.179-206.642,414.583-206.642,415.52z
	 M-185.791,415.69c0.51,0.425,6.383,4.766,13.191,9.532c6.809,4.766,13.618,9.702,15.15,10.893c1.446,1.192,2.723,1.958,2.723,1.702
	c0-1.02-21.958-17.191-28.51-21.02C-185.11,415.69-186.217,415.179-185.791,415.69z M-158.387,420.54
	c-4.68,5.277-6.298,7.916-3.49,5.533c1.107-0.936,1.277-0.936,1.022,0.255c-0.085,0.68,1.021,2.298,2.553,3.575
	c1.447,1.276,2.724,1.957,2.724,1.531c0-0.51,1.021-2.042,2.213-3.489c1.191-1.447,1.872-3.064,1.531-3.574
	c-0.425-0.766-0.17-0.851,0.937-0.426c1.532,0.51,1.532,0.51,0.17-1.021c-1.107-1.277-1.192-1.787-0.34-2.724
	c0.595-0.68,0.085-0.595-1.277,0.256c-3.064,1.872-3.064,1.021-0.085-2.298c1.276-1.447,0.34-0.766-2.128,1.617
	c-2.383,2.298-4.425,3.745-4.425,3.234c0-0.51,0.595-1.362,1.276-1.958c1.447-1.191,5.021-5.957,4.426-5.957
	c-0.17,0-2.468,2.468-5.107,5.447V420.54z M-152.344,424.2c0,1.022-0.936,2.724-2.043,3.745c-1.191,1.106-2.042,1.447-2.042,0.851
	c0-0.596-0.34-0.85-0.766-0.596c-0.426,0.34-1.447,0.256-2.213,0c-1.106-0.425-1.192-0.766-0.255-1.276
	c0.936-0.596,0.85-0.936-0.17-1.532c-0.681-0.51-0.937-1.107-0.596-1.532c0.425-0.34,0.936-0.17,1.361,0.425
	c0.426,0.681,0.937,0.596,1.873-0.51c1.872-2.213,4.85-1.958,4.85,0.425L-152.344,424.2z M-157.11,425.392
	c-1.107,1.362-1.702,2.468-1.277,2.468c0.34,0,1.192-0.766,1.787-1.787c0.596-1.022,1.362-1.532,1.618-1.277
	c0.255,0.255,0,1.192-0.681,1.958c-0.937,1.276-0.851,1.276,0.766-0.086c1.02-0.936,1.617-1.872,1.276-2.127
	c-0.425-0.34-0.85-0.766-1.106-1.021C-154.982,423.18-156.004,424.115-157.11,425.392z M-240.6,420.115
	c4.937,5.447,6.128,5.532,1.532,0.085c-1.957-2.383-4-4.255-4.425-4.255C-243.919,415.945-242.643,417.817-240.6,420.115z
	 M-158.557,416.796c-0.255,0.426-0.085,0.851,0.34,0.851c0.511,0,0.937-0.425,0.937-0.85c0-0.512-0.17-0.852-0.34-0.852
	C-157.876,415.945-158.302,416.285-158.557,416.796z M-243.749,419.69c1.531,2.383,1.531,2.468,0,1.872
	c-0.937-0.34-0.17,0.851,1.702,2.809c1.872,1.872,3.149,3.744,2.808,4c-0.255,0.34-1.532-0.681-2.808-2.128
	c-1.192-1.532-2.468-2.468-2.724-2.298c-0.255,0.255,1.362,2.383,3.49,4.68c2.212,2.384,4,3.916,4,3.49
	c0-0.425-0.34-1.021-0.851-1.276c-1.447-0.851-0.937-2.128,0.68-1.532c1.362,0.51,1.362,0.425,0-1.192
	c-0.85-0.936-1.531-1.957-1.531-2.383c0-0.34,0.68-0.085,1.531,0.51c1.277,1.107,1.362,1.022,0.256-0.254
	c-0.596-0.851-1.447-1.277-1.958-1.022c-0.85,0.596-3.234-1.191-3.234-2.383c0-0.51,0.681-0.34,1.447,0.256
	c1.021,0.766,0.851,0.255-0.425-1.532C-243.835,417.817-245.877,416.456-243.749,419.69z M-186.218,418.498
	c0,0.426,0.34,0.851,0.852,0.851c1.106,0,19.744,13.702,19.234,14.213c-0.17,0.17-3.745-1.957-7.915-4.851
	c-5.192-3.574-8-5.021-9.022-4.596c-1.191,0.426-1.276,0.766-0.51,1.702c0.51,0.681,1.361,1.192,1.787,1.192
	c0.51,0,0.426-0.596-0.17-1.277c-1.787-2.127-0.256-1.447,5.787,2.553c6.894,4.596,11.49,8.426,9.192,7.745
	c-1.362-0.51-1.447-0.34-0.511,0.766c0.596,0.681,0.766,1.277,0.425,1.277c-1.106,0-5.106-3.575-5.106-4.51
	c0-0.597-0.68-0.937-1.532-0.767c-0.766,0.17-3.66-1.362-6.383-3.404c-7.83-5.872-8.255-6.043-10.553-4
	c-1.617,1.447-1.702,1.702-0.34,1.276c1.361-0.51,1.446-0.34,0.51,0.766c-1.362,1.617-0.51,1.617,2.043-0.085
	c1.191-0.68,2.298-0.936,2.553-0.51c0.255,0.425-0.596,1.276-1.958,1.872c-1.446,0.596-2.383,1.447-2.127,2.128
	c0.51,1.276-3.745,4.85-4.936,4.17c-0.426-0.255-1.532,0.17-2.383,0.936c-1.532,1.447-1.788,1.362-5.107-1.277
	c-1.872-1.446-3.83-2.553-4.255-2.383c-0.51,0.17,1.106,1.788,3.49,3.575c3.404,2.553,4.51,2.979,5.106,2.128
	c0.595-1.022,0.766-1.022,0.766,0c0,0.936,0.255,0.936,1.276,0.085c1.022-0.851,1.107-1.277,0.34-1.788
	c-0.595-0.34-0.084-0.51,1.192-0.51c1.192,0.085,1.958,0.51,1.702,0.936c-0.255,0.426,0,0.596,0.681,0.34
	c0.681-0.255,1.192-1.106,1.192-1.957c0-0.936,0.936-2.128,1.957-2.638c1.447-0.681,1.702-1.192,0.936-1.702
	c-0.766-0.426-0.596-0.766,0.681-1.277c1.872-0.68,5.277-0.17,5.447,0.851c0.596,3.149,0.51,5.277-0.17,5.617
	c-0.426,0.34-0.766-0.596-0.766-1.872c0-2.468-1.277-4.51-2.894-4.51c-0.425,0-0.085,0.765,0.766,1.701
	c1.447,1.532,1.447,1.702,0.17,1.192c-1.532-0.51-6.212,1.957-5.361,2.893c0.34,0.256-0.34,1.362-1.362,2.468
	c-1.021,1.107-1.447,1.958-0.936,1.958c0.425,0,1.702-0.936,2.808-2.128c1.362-1.447,1.617-2.127,0.766-2.127
	c-1.021,0-0.936-0.17,0.085-0.852c1.788-1.191,2.383-1.02,2.724,0.596c0.17,1.021-0.511,1.873-2.213,2.639
	c-1.362,0.595-2.298,1.276-1.958,1.531c0.256,0.256,1.277-0.085,2.298-0.68c1.532-0.851,2.043-0.851,2.298-0.086
	c0.51,1.532,1.958,1.362,1.958-0.17c0-0.68,0.425-1.276,0.85-1.276c0.596,0,0.596,0.595,0,1.702
	c-0.68,1.276-1.446,1.617-2.723,1.191c-1.106-0.34-1.532-0.17-1.191,0.34c0.255,0.511,0.17,1.107-0.34,1.448
	c-0.426,0.255-0.852,0.085-0.852-0.426c0-0.596-0.595-0.851-1.276-0.51c-0.681,0.255-1.277,0.17-1.277-0.256
	c0-0.426-1.191-0.596-2.723-0.426l-2.639,0.34l1.617-1.871c1.703-1.873,0.256-1.447-2.212,0.68
	c-1.362,1.192-2.468,0.681-8.256-3.574c-1.957-1.362-1.957-1.362-1.957,2.128c0,2.553-0.34,3.489-1.362,3.489
	c-0.766,0-1.021-0.426-0.68-0.936c0.34-0.51,0.595-3.15,0.68-5.787c0.085-2.639,0.426-5.277,0.766-5.873
	c1.107-1.702-0.596-1.191-4.85,1.617c-3.065,2.043-3.746,2.894-2.894,3.49c0.765,0.595,0.68,0.68-0.511,0.34
	c-1.021-0.34-2.638,0.255-4.426,1.617c-2.893,2.213-3.744,2.553-3.744,1.447c0-0.34,1.617-1.447,3.489-2.553
	c1.872-1.107,3.234-2.213,2.979-2.468c-0.51-0.511-11.15,6.893-12.085,8.425c-0.34,0.596,0.51,0.17,1.957-0.85
	c3.234-2.299,4.851-2.384,2.043-0.171c-1.107,0.936-1.617,1.702-1.192,1.702c0.426,0,1.192-0.426,1.702-0.936
	c0.51-0.51,2.383-0.936,4.085-0.936c1.958,0,2.809-0.256,2.128-0.681c-0.68-0.426-0.34-0.681,1.106-0.596
	c3.32,0.255,2.809,1.277-0.85,1.872c-5.107,0.851-5.277,1.192-0.681,1.107c2.382-0.085,5.02,0.34,5.957,0.85
	c1.702,0.937,1.702,0.937-0.085,1.022c-1.021,0-2.298,0.596-2.894,1.277c-0.766,0.936-2.978,1.276-7.574,1.447
	c-6.128,0.085-6.213,0.17-1.958,0.595l4.511,0.51l-4.34,4.256c-4,3.915-5.277,6.383-3.405,6.383c0.51,0,0.766,0.34,0.681,0.851
	c-0.51,1.787,10.298,10.043,11.575,8.766c0.255-0.34,0.51-0.17,0.51,0.34c0,2.043,11.404,4.086,21.787,3.916
	c13.277-0.17,24.596-5.277,31.32-14.043l2.383-3.234l-2.98-2.979c-1.616-1.617-4.17-3.234-5.701-3.49
	c-1.447-0.34-2.894-1.106-3.15-1.701c-0.255-0.681-1.616-1.192-3.148-1.192c-2.043,0-2.298-0.255-1.362-0.85
	c0.936-0.597,0.426-0.852-2.127-0.937c-1.873,0-4.17-0.34-5.107-0.766c-1.362-0.596-1.021-0.766,2.128-1.362
	c2.979-0.51,3.404-0.766,2.127-1.276c-1.02-0.426,1.107-0.681,5.362-0.596c3.83,0,7.234,0.426,7.575,0.936
	c0.255,0.51,0.085,0.596-0.426,0.255c-0.596-0.34-1.702-0.17-2.468,0.34c-1.362,0.767-1.277,0.852,0.426,0.426
	c1.191-0.34,1.872-0.17,1.872,0.426c0,0.596,0.596,0.766,1.362,0.51c0.766-0.34,2.042-0.084,2.808,0.511
	c1.192,1.022,1.192,0.936,0.17-0.425c-1.447-1.788,0.17-1.958,1.958-0.085c0.766,0.68,1.361,0.936,1.361,0.51
	c0-0.425-1.361-1.702-2.978-2.808c-2.639-1.787-3.83-3.32-2.553-3.32c0.255,0,2.553,1.533,5.02,3.405
	c2.469,1.872,4.852,3.404,5.192,3.404c0.766,0-3.83-3.66-6.383-5.106c-0.68-0.426-1.021-1.022-0.68-1.362
	c0.34-0.34,1.191-0.085,1.957,0.51c0.68,0.596,1.277,0.852,1.277,0.596c0-0.425-6.554-5.787-10.128-8.255
	c-1.021-0.68-4.596-3.32-7.83-5.787C-184.09,418.413-186.218,417.222-186.218,418.498z M-201.537,444.2
	c0,0.596-0.425,0.511-1.106-0.085c-0.68-0.51-1.532-0.595-1.872-0.255c-0.426,0.34-0.426,0.17-0.086-0.426
	C-203.92,442.243-201.537,442.924-201.537,444.2z M-189.877,443.52c-0.17,0.51-1.277,0.85-2.298,0.68
	c-1.957-0.17-1.957-0.17-0.51,1.447c0.936,1.107,1.19,1.787,0.51,2.213c-0.426,0.255-0.68,0.936-0.426,1.362
	c0.766,1.191-0.085,0.936-3.148-0.937c-1.532-0.936-2.383-1.702-1.788-1.702c0.596,0,0.851-0.51,0.596-1.191
	s-0.085-1.447,0.426-1.787c0.595-0.256,0.68,0,0.425,0.766c-0.34,0.766,0.085,1.532,0.851,1.872
	c0.766,0.255,1.107,0.851,0.851,1.277c-0.255,0.425,0,0.765,0.426,0.765c1.276,0,1.191-1.106-0.085-2.468
	c-0.936-0.85-0.851-1.276,0.34-2.127C-191.92,442.413-189.452,442.243-189.877,443.52z M-203.41,446.413
	c2.723,2.298,3.49,3.575,3.064,4.681c-0.51,1.447-0.596,1.447-2.128,0.085c-1.191-1.021-1.362-1.702-0.68-2.128
	c0.68-0.34-0.086-1.276-2.043-2.553c-1.702-1.106-3.15-2.298-3.15-2.723C-208.347,442.583-206.984,443.265-203.41,446.413z
	 M-187.495,444.03c-0.681,1.107,0.085,1.107,2.383-0.085c1.872-1.021,1.872-1.021,0.255,0.851c-1.957,2.213-1.276,2.298,1.787,0.34
	c2.213-1.446,2.298-1.446,1.703,0.086c-0.511,1.191-0.34,1.446,0.765,1.02c0.852-0.34,2.809-0.084,4.426,0.426
	c2.213,0.766,2.638,1.192,1.787,1.788c-0.766,0.51-0.255,0.595,1.617,0.255c1.702-0.34,2.724-0.255,2.724,0.34
	c0,0.511-0.936,0.937-2.128,0.937c-1.191,0-2.128,0.255-2.128,0.68c0,0.34-1.191,1.107-2.553,1.788
	c-2.638,1.106-2.979,2.638-0.85,3.319c0.595,0.255,0.85,0,0.51-0.596c-0.34-0.51-0.256-0.936,0.255-0.936
	c0.426,0,1.106,0.34,1.362,0.851c0.255,0.426,0.085,0.851-0.51,0.851c-0.597,0-0.171,0.936,0.935,2.128
	c2.213,2.383,4.34,2.978,2.468,0.766c-1.02-1.277-0.936-1.362,0.937-0.766c1.957,0.595,1.957,0.51-0.426-1.532
	c-1.447-1.277-2.128-2.298-1.617-2.298c0.51,0,2.213,1.106,3.745,2.553c1.532,1.362,3.064,2.553,3.319,2.553
	c0.17,0-0.681-1.191-2.043-2.553c-2.723-2.808-1.447-3.574,1.277-0.85c1.872,1.871,2.042,2.467,0.936,4.17
	c-0.68,1.106-1.021,1.106-2.383,0c-1.362-1.107-1.447-1.022-0.425,0.17c0.936,1.276,0.595,1.702-2.724,3.66
	c-2.128,1.19-4.34,2.212-5.106,2.212c-0.681,0-1.617,0.51-1.958,1.191c-0.34,0.681-2.298,1.362-4.255,1.532
	c-2.043,0.256-3.915,0.596-4.255,0.936c-1.022,1.022-2.894,0.596-5.107-1.106c-1.191-0.936-2.638-1.702-3.149-1.702
	c-0.51,0,0,0.596,1.022,1.362c1.02,0.68,1.872,1.702,1.872,2.212c0,0.596-0.51,0.511-1.277-0.17c-1.02-0.85-1.532-0.85-2.468-0.085
	c-0.85,0.68-1.361,0.766-1.787,0.085c-0.255-0.425,0-0.85,0.68-0.85c0.767,0,1.107-0.852,1.022-2.554
	c-0.17-2.468-0.085-2.553,1.873-1.277c2.723,1.788,2.468,0.766-0.34-1.702c-1.363-1.106-2.129-2.298-1.703-2.638
	c0.34-0.34,1.957,0.596,3.574,2.213c2.894,2.808,2.98,2.808,4.681,1.276c1.702-1.532,1.617-1.532-2.808-4.85
	c-4.51-3.32-5.787-4.937-4-4.937c0.51,0,0.766-0.34,0.425-0.766c-0.255-0.51,0.681-1.702,2.043-2.723
	c1.447-1.022,2.383-2.213,2.128-2.554c-0.17-0.34,0.085-0.936,0.595-1.276c0.681-0.426,0.766-0.255,0.34,0.425
	c-0.51,0.851-0.255,0.937,1.192,0.17c2.128-1.19,2.383-1.957,0.34-1.19c-0.936,0.34-1.19,0.254-0.765-0.426
	c0.425-0.681,0.085-0.851-0.937-0.426c-1.446,0.51-1.446,0.426,0.086-1.277C-188.516,443.179-186.473,442.413-187.495,444.03
	L-187.495,444.03z M-205.027,447.775c0.68,0.766,0.936,1.362,0.68,1.362c-1.106,0-6.552-3.66-6.552-4.34
	C-210.899,443.775-206.474,446.073-205.027,447.775z M-210.133,446.754c1.702,1.02,4,2.808,5.191,3.83
	c1.192,1.106,2.383,1.957,2.723,1.957c0.426,0,0.681,0.596,0.681,1.362c0,1.02-0.936,0.51-3.319-1.618
	c-1.872-1.617-4.255-3.489-5.276-4.085c-2.213-1.191-4.596-3.319-3.66-3.319C-213.538,444.881-211.836,445.732-210.133,446.754z
	 M-209.367,450.073c2.893,1.957,5.276,3.915,5.276,4.255c0,1.277-0.85,0.851-4.51-2.043c-4.17-3.148-7.405-5.106-7.915-4.595
	c-0.17,0.17,1.787,1.787,4.34,3.574c2.638,1.787,4.51,3.404,4.255,3.66c-0.255,0.255-0.936,0-1.446-0.51
	c-1.107-1.107-2.724-1.363-2.128-0.426c0.255,0.425-1.277,0.68-3.32,0.766c-2.382,0-3.659-0.256-3.489-0.851
	c0.17-0.511,1.107-0.766,1.958-0.596c1.532,0.255,1.532,0.17,0.085-1.362c-0.766-0.936-1.192-1.957-0.851-2.213
	c0.255-0.34-0.426-0.595-1.532-0.595c-1.958-0.086-1.958-0.086-0.426-1.277C-216.516,445.903-214.984,446.243-209.367,450.073z
	 M-194.899,451.86c-1.788,1.106-2.639,0.766-1.532-0.596c0.85-1.021,0.766-1.276-0.34-1.276c-0.852,0-1.192-0.426-0.937-0.937
	c0.426-0.595,1.192-0.34,2.213,0.596C-194.219,450.754-194.048,451.264-194.899,451.86z M-167.75,451.69
	c0.766,0,1.106,0.255,0.766,0.595c-0.852,0.937-6.469,1.107-6.469,0.256c0-0.936,1.873-1.617,3.234-1.192
	c0.681,0.17,1.788,0.34,2.469,0.34V451.69z M-220.516,454.413c-0.256,0.681-0.511,0.426-0.511-0.51
	c-0.085-0.937,0.17-1.447,0.425-1.107C-220.346,453.051-220.262,453.817-220.516,454.413z M-198.984,453.392
	c0,0.425-0.34,0.85-0.852,0.85c-0.425,0-0.85-0.425-0.85-0.85c0-0.51,0.425-0.851,0.85-0.851c0.511,0,0.852,0.34,0.852,0.85V453.392
	z M-174.559,453.052c-0.255,0.255-1.021,0.34-1.617,0.085c-0.68-0.256-0.426-0.511,0.51-0.511c0.937-0.085,1.447,0.17,1.107,0.425
	L-174.559,453.052z M-163.665,455.094c0.255,0.51-0.085,0.596-0.766,0.34c-1.532-0.595-1.788-1.191-0.596-1.191
	C-164.517,454.243-163.921,454.583-163.665,455.094z M-216.09,458.498c0.34,0,1.362-0.595,2.298-1.276
	c1.872-1.447,3.234-1.702,2.468-0.426c-0.255,0.426-0.17,0.851,0.34,0.851c0.426,0,1.107-0.425,1.362-0.85
	c0.256-0.512,1.021-0.852,1.532-0.852c0.596,0-0.17,1.192-1.702,2.553c-2.979,2.809-4.085,3.234-3.32,1.277
	c0.597-1.702,0.341-1.617-2.552,0.936c-1.788,1.617-1.958,1.957-0.596,1.277c2.468-1.277,2.723-1.192,2.468,0.51
	c-0.17,0.766-0.766,1.617-1.447,1.787c-0.936,0.256-0.936,0.086,0.085-0.595c0.681-0.51,0.851-0.936,0.34-0.936
	c-0.51,0-1.446,0.595-2.042,1.276c-1.362,1.617-2.893,1.702-2.298,0.085c0.34-0.85,0-1.021-1.191-0.766
	c-0.936,0.256-1.787-0.085-2.128-0.936c-0.255-0.766-0.85-1.106-1.276-0.85c-1.958,1.19-0.511-1.192,1.957-3.15
	c2.298-1.957,2.894-2.128,3.915-1.106C-217.281,457.987-216.43,458.498-216.09,458.498z M-215.154,456.796
	c0,0.426-0.425,0.851-0.936,0.851c-0.425,0-0.596-0.425-0.34-0.85c0.255-0.512,0.68-0.852,0.936-0.852
	C-215.324,455.945-215.154,456.285-215.154,456.796z M-198.473,458.243c0.085,1.362-0.766,2.468-2.723,3.745
	c-1.617,0.936-2.894,1.957-2.894,2.212c0,0.17,1.277-0.425,2.894-1.361l2.893-1.788l-0.255,3.15
	c-0.085,1.702-0.596,3.319-1.191,3.489c-0.511,0.17-0.766,0.68-0.426,1.106c0.255,0.426-0.17,0.766-0.851,0.766
	c-1.617,0-2.553-1.447-1.192-1.872c0.681-0.256,0.511-0.596-0.425-0.936c-0.766-0.256-1.362-0.256-1.362,0.085
	c0.256,1.617-0.17,2.723-1.021,2.723c-0.51,0-0.68-0.596-0.426-1.447c0.511-1.276,0.34-1.276-1.191,0.17
	c-2.298,2.128-2.213,0.596,0.255-2.042c1.873-2.043,1.787-2.043-1.191,0.17c-3.234,2.468-4.681,2.979-3.66,1.277
	c0.426-0.681,0.17-0.766-0.85-0.426c-1.618,0.681-4.767-0.68-4.767-2.042c0-0.511,0.34-0.596,0.851-0.34
	c1.022,0.68,4.34-1.107,4-2.128c-0.085-0.511,1.362-2.128,3.234-3.745c2.639-2.298,4-2.809,6.809-2.724
	c2.893,0.086,3.404,0.34,3.49,1.958H-198.473z M-173.452,456.796c0,0.426-0.34,0.851-0.85,0.851c-0.426,0-0.852-0.425-0.852-0.85
	c0-0.512,0.426-0.852,0.851-0.852C-173.792,455.945-173.452,456.285-173.452,456.796z M-187.069,448.711
	c-1.617,1.192-3.319,2.809-3.744,3.66c-0.596,1.191-0.51,1.276,0.425,0.34c1.532-1.447,2.894-1.277,1.617,0.17
	c-0.51,0.681-1.787,1.447-2.808,1.617c-1.362,0.256-1.107,0.426,0.85,0.51c2.469,0.086,4.171,1.192,12.086,7.916
	c1.617,1.361,1.957,1.447,1.532,0.34c-0.681-1.617,0.255-1.787,1.957-0.255c0.936,0.766,0.936,0.68,0-0.596
	c-1.191-1.532-1.106-1.617,0.426-1.106c0.936,0.34-0.17-1.107-2.553-3.234c-3.83-3.49-6.298-4.936-5.192-3.064
	c0.766,1.106-2.213,1.957-3.234,0.936c-0.596-0.596-0.425-0.851,0.596-0.851c0.766,0,1.447-0.51,1.447-1.191
	c0-0.596,0.936-1.788,2.127-2.554c2.383-1.532,3.32-1.787,2.554-0.51c-0.852,1.361,0.936,1.021,2.127-0.426
	c0.936-1.106,0.851-1.276-0.51-0.766c-1.532,0.426-1.532,0.426-0.086-0.766c1.447-1.191,1.362-1.276-0.34-1.702
	c-1.277-0.34-3.149,0.34-5.617,2.128c-2.128,1.361-4,2.298-4.34,1.957c-0.34-0.255,0-0.85,0.68-1.276
	c0.681-0.426,2.043-1.362,2.98-2.043C-181.196,445.732-184.005,446.413-187.069,448.711L-187.069,448.711z M-181.962,450.839
	c-3.49,2.978-6.809,4.595-5.617,2.638c0.596-0.851,8.17-6.043,8.936-6.043C-178.388,447.434-179.835,448.966-181.962,450.839
	L-181.962,450.839z M-178.218,458.158c1.277,1.191,2.213,2.298,2.043,2.468c-0.17,0.255-1.702-0.766-3.32-2.128
	c-1.616-1.361-2.467-2.468-2.042-2.468C-181.026,456.03-179.579,456.966-178.218,458.158L-178.218,458.158z M-179.068,460.115
	c2.638,2.894,0.255,2.043-2.554-0.85c-1.787-1.958-1.957-2.469-0.766-1.788C-181.452,457.903-179.92,459.179-179.068,460.115z
	 M-188.601,457.817c4.426,3.83,9.192,7.575,9.192,7.15c0-0.767-3.745-4-7.66-6.639
	C-189.707,456.626-190.132,456.456-188.601,457.817L-188.601,457.817z M-187.069,461.392c0,0.17,0.681,0.85,1.532,1.447
	c1.277,1.106,1.362,1.021,0.256-0.34C-186.388,461.137-187.069,460.711-187.069,461.392z M-187.579,465.477
	c-0.34,0.51-0.256,0.68,0.255,0.426c1.192-0.681,2.979,1.446,2.213,2.468c-0.34,0.425-0.085,0.34,0.51-0.256
	c1.022-0.85,1.022-1.276,0.086-2.383C-185.792,464.2-186.728,464.115-187.579,465.477z M-216.005,450.839
	c0.681,0.51,2.043,1.276,2.979,1.787c1.362,0.68,1.277,0.51-0.34-0.851c-1.107-1.021-2.383-1.787-2.98-1.787
	C-216.856,449.988-216.686,450.413-216.005,450.839L-216.005,450.839z M-221.537,459.349c-0.85,0.936-1.191,1.702-0.68,1.702
	c0.425,0,1.531-0.766,2.382-1.702c0.852-0.936,1.192-1.702,0.681-1.702C-219.579,457.647-220.686,458.413-221.537,459.349z
	 M-220.175,461.051c-2.638,2.213-1.447,2.213,1.362,0c1.191-0.936,1.872-1.702,1.447-1.702
	C-217.792,459.434-219.069,460.2-220.175,461.051z M-206.388,458.754c-0.85,0.85-1.447,1.872-1.276,2.127
	c0.17,0.34-0.17,0.681-0.766,0.936c-0.596,0.17-0.766-0.085-0.34-0.766c0.425-0.766,0.34-0.936-0.341-0.51
	c-0.51,0.34-0.766,0.936-0.51,1.362c0.255,0.34-0.767,1.702-2.214,2.893c-1.446,1.192-2.212,2.213-1.702,2.213
	c0.426,0,1.107-0.426,1.362-0.936c0.34-0.51,1.106-0.681,1.787-0.426c0.681,0.256,0.936,0,0.681-0.766
	c-0.51-1.191,2.809-3.49,3.66-2.638c0.255,0.255-0.17,0.68-0.936,1.021c-0.766,0.256-1.362,0.851-1.362,1.362
	c0,0.425,1.447-0.34,3.234-1.617c4.85-3.66,5.191-4,4.085-5.021C-202.558,456.626-204.771,456.881-206.388,458.754z
	 M-202.898,460.285c-0.766,0.937-1.703,1.618-1.958,1.618c-0.34,0-0.596-0.681-0.68-1.618c-0.086-1.106,0.425-1.617,1.957-1.617
	c2.042,0,2.042,0.086,0.68,1.617H-202.898z M-202.388,465.222c0,0.425,0.596,1.02,1.362,1.276c1.191,0.426,1.277,0.34,0.34-0.766
	C-201.877,464.285-202.388,464.115-202.388,465.222z M-175.154,419.945c0,0.851,3.405,3.064,3.915,2.553
	c0.256-0.17-0.596-1.021-1.787-1.787C-174.218,419.945-175.154,419.605-175.154,419.945z M-185.962,421.392
	c1.106,0.85,1.276,1.276,0.425,1.617c-0.595,0.17-0.85,0.68-0.51,1.021c0.34,0.34,1.191,0.085,1.872-0.596
	c1.106-1.191,1.021-1.446-1.021-2.297C-187.239,420.285-187.324,420.285-185.962,421.392z M-212.601,425.562
	c-2.042,1.532-6.042,4.34-8.85,6.298c-2.81,2.043-4.681,3.66-4.256,3.66c0.51,0,2.468-1.192,4.51-2.724
	c2.98-2.128,3.83-2.383,4.426-1.447c0.596,1.022,0.936,0.936,2.213-0.425c1.447-1.447,1.447-1.532-0.34-0.936
	c-3.064,0.85-2.298-0.17,1.787-2.554c3.745-2.212,6.468-4.68,5.106-4.68C-208.43,422.839-210.473,424.03-212.601,425.562z
	 M-169.451,424.541c0.595,0.596,1.276,0.85,1.531,0.596c0.256-0.256-0.17-0.766-1.02-1.022c-1.192-0.51-1.278-0.425-0.512,0.426
	H-169.451z M-179.92,428.285c0.681,0.681,1.532,1.277,1.873,1.277c0.34,0,1.361,0.596,2.212,1.447
	c0.852,0.766,1.703,1.191,1.958,0.936c0.51-0.425-5.617-4.936-6.724-4.936C-180.941,427.009-180.686,427.605-179.92,428.285z
	 M-163.92,428.371c0.851,0.85,1.702,1.276,2.043,1.02c0.255-0.34-0.426-1.02-1.532-1.531c-1.872-1.021-1.872-1.021-0.51,0.51
	L-163.92,428.371z M-151.58,428.541c-1.786,1.957-1.872,3.319-0.255,1.957c0.937-0.766,1.277-0.766,1.532,0.085
	c0.256,0.681,0.596,0.511,0.937-0.51c0.425-0.936,0.255-1.277-0.426-0.851c-0.68,0.425-0.766,0.17-0.426-0.766
	C-149.537,426.583-149.878,426.668-151.58,428.541L-151.58,428.541z M-244.09,428.371c0,0.51,1.362,2.212,3.064,3.83
	c1.872,1.702,2.723,2.212,2.213,1.19C-239.92,431.264-244.09,427.264-244.09,428.371z M-204.09,432.115
	c1.617,1.362,3.404,2.468,3.83,2.468c0.51,0-0.51-1.106-2.128-2.468c-1.617-1.361-3.319-2.468-3.83-2.468
	C-206.643,429.647-205.707,430.754-204.09,432.115z M-160.686,430.754c0,0.17,0.596,0.595,1.362,0.85
	c0.68,0.256,1.021,0.17,0.766-0.34C-159.068,430.414-160.686,430.073-160.686,430.754z M-243.749,432.115
	c0.255,0.681,0.766,1.958,1.02,2.724c0.597,1.617,1.703,1.957,2.384,0.766c0.255-0.34-0.51-1.617-1.787-2.724
	C-243.324,431.775-244.09,431.434-243.749,432.115z M-154.729,432.455c0,0.17,0.682,0.852,1.533,1.448
	c1.276,1.106,1.361,1.02,0.255-0.34c-1.106-1.363-1.787-1.788-1.787-1.107L-154.729,432.455z M-171.749,434.158
	c0,0.17,0.595,0.596,1.361,0.85c0.681,0.256,1.022,0.171,0.766-0.34C-170.132,433.818-171.749,433.477-171.749,434.158z
	 M-155.579,435.008c0,0.171,0.596,0.597,1.361,0.852c0.681,0.255,1.022,0.17,0.766-0.34c-0.51-0.852-2.127-1.192-2.127-0.511
	V435.008z M-149.962,436.626c0.255,0.851,0.766,1.277,1.021,1.021c0.255-0.255,0-0.936-0.596-1.532
	c-0.85-0.766-0.936-0.68-0.425,0.51V436.626z M-231.41,439.52c-1.106,1.446-1.106,1.446,0.51,0.255
	c0.937-0.681,1.873-1.362,2.043-1.447c0.17-0.17,0-0.255-0.51-0.255C-229.878,438.073-230.814,438.753-231.41,439.52z
	 M-156.857,439.775c0.851,0.936,1.702,1.702,1.958,1.702c0.255,0-0.256-0.766-1.107-1.702c-0.85-0.936-1.702-1.702-1.957-1.702
	C-158.219,438.073-157.708,438.839-156.857,439.775z M-152.261,440.03c2.213,2.383,2.638,2.724,2.638,1.617
	c0-0.34-1.106-1.362-2.383-2.213l-2.298-1.617L-152.261,440.03z M-177.282,440.54c0.255,0.511-1.022,0.937-2.724,1.192
	c-1.957,0.17-1.106,0.34,2.043,0.34c2.979,0.086,5.106-0.255,4.936-0.68c-0.255-0.34-1.021-0.51-1.702-0.17
	c-0.681,0.255-1.277,0-1.277-0.511c-0.004-0.515-0.421-0.932-0.936-0.936C-177.367,439.775-177.622,440.115-177.282,440.54
	L-177.282,440.54z M-224.262,443.434c-1.786,0.937-1.531,1.107,2.554,1.192c3.149,0.085,3.83-0.085,2.298-0.51l-2.128-0.682
	l2.554-0.425c2.468-0.426,2.468-0.426-0.426-0.51C-221.027,442.413-223.24,442.839-224.262,443.434L-224.262,443.434z
	 M-167.07,444.881c-0.255,0.426,0.256,0.851,1.277,0.851c1.021,0,1.532-0.425,1.277-0.85c-0.256-0.511-0.851-0.852-1.277-0.852
	C-166.219,444.03-166.814,444.37-167.07,444.881z M-156.857,445.732c0.255,0.426,0.681,0.851,0.936,0.851
	c0.17,0,0.34-0.425,0.34-0.85c0-0.511-0.425-0.852-0.935-0.852c-0.426,0-0.596,0.34-0.34,0.851H-156.857z M-228.09,448.03
	c1.021,0.17,2.724,0.17,3.83,0c1.021-0.17,0.17-0.34-1.958-0.34C-228.345,447.69-229.196,447.86-228.09,448.03z M-163.239,448.285
	c0,0.426,0.766,0.852,1.787,0.852c0.937,0,1.447-0.426,1.192-0.852c-0.255-0.51-1.106-0.85-1.787-0.85
	S-163.239,447.775-163.239,448.285z"/>
</svg>
