<?xml version="1.0" encoding="iso-8859-1"?>
<!-- Generator: Adobe Illustrator 19.0.0, SVG Export Plug-In . SVG Version: 6.00 Build 0)  -->
<svg version="1.2" baseProfile="tiny" id="Layer_1" xmlns="http://www.w3.org/2000/svg" xmlns:xlink="http://www.w3.org/1999/xlink"
	 x="0px" y="0px" viewBox="-247 370.89 100 100" xml:space="preserve">
<title>face_00106</title>
<path d="M-225.935,373.504c-1.23,1.792-1.127,2.56,0.307,2.867c1.485,0.308,2.509,0.973,2.509,1.588c0,1.126-1.69,2.202-2.816,1.792
	c-1.895-0.768-4.762-0.512-6.605,0.563c-1.025,0.615-1.844,1.229-1.844,1.485c0,0.205-0.921,1.536-2.048,2.97
	c-1.126,1.381-2.048,2.765-2.048,3.071c0,0.87,1.382,1.075,3.277,0.563c1.843-0.512,2.867-0.307,2.867,0.615
	c0,0.256-0.358,0.46-0.819,0.46c-0.512,0-0.717,0.308-0.563,0.769c0.205,0.41,0.102,0.87-0.154,1.024
	c-0.307,0.204-0.512,0.972-0.512,1.843c0,0.973-0.256,1.485-0.768,1.485c-0.42-0.01-0.758-0.348-0.768-0.768
	c0-1.075-2.458-2.612-3.123-1.946c-0.41,0.41-0.41,0.87,0,1.587c0.41,0.768,0.307,1.23-0.461,2.15c-1.383,1.588-1.28,2.049,0.41,2.1
	c0.768,0,1.843,0.205,2.406,0.41c0.973,0.41,0.973,0.41-0.205,1.024c-0.665,0.358-1.74,0.563-2.406,0.41
	c-0.973-0.154-1.23,0-1.23,0.768c0,0.563-0.204,0.819-0.511,0.665c-0.256-0.153-0.512-0.87-0.512-1.587
	c0-1.383-1.383-1.741-1.844-0.46c-0.204,0.409-0.768,0.767-1.28,0.767c-1.536,0-2.56,2.612-2.201,5.479
	c0.204,1.331,0.665,2.714,1.126,3.072c0.666,0.512,0.666,0.973,0.103,3.072c-1.23,4.455-1.127,8.295,0.256,11.009
	c0.716,1.331,1.382,3.328,1.587,4.455c0.205,1.177,0.512,2.099,0.768,2.099s0.46,0.41,0.46,0.87c0,0.513,0.564,1.844,1.28,2.97
	c0.666,1.127,1.844,3.226,2.561,4.711c0.87,1.74,1.587,2.56,1.997,2.407c0.41-0.154,0.87-0.052,1.024,0.256
	c0.205,0.256,2.048,1.33,4.147,2.304c2.51,1.177,3.84,2.099,3.84,2.662c0,0.461,0.36,1.127,0.871,1.485
	c0.768,0.563,0.666,0.768-0.717,1.997c-0.819,0.717-1.894,1.639-2.355,1.997c-0.87,0.666-1.28,2.867-0.717,3.79
	c0.205,0.357,0.154,1.074-0.154,1.638c-0.41,0.819-0.307,1.177,0.615,1.792c0.614,0.46,1.434,0.819,1.74,0.819
	c0.718,0,1.23,1.178,1.23,2.714c0,0.973,2.816,3.43,3.891,3.43c0.154,0,0.87,0.461,1.587,1.024c0.717,0.564,1.741,1.024,2.253,1.024
	c0.564,0,1.434,0.256,1.997,0.615c0.768,0.512,1.23,0.46,2.253-0.051c0.717-0.41,1.178-0.922,1.024-1.178
	c-0.153-0.205,0-0.41,0.359-0.41c0.307,0,1.331-0.87,2.253-1.894c2.048-2.407,3.43-2.15,2.97,0.563
	c-0.205,1.229-0.103,1.843,0.307,1.843c0.358,0,0.46,0.461,0.256,1.23c-0.359,1.484,1.177,2.508,3.584,2.457
	c0.87,0,1.792,0.154,2.1,0.41c0.87,0.717,1.894-0.256,1.689-1.536c-0.102-0.87-0.768-1.383-2.304-1.997
	c-2.816-1.024-2.765-1.588,0.102-1.588c1.28,0,2.304-0.204,2.304-0.46c0-0.256,0.615-0.564,1.332-0.717
	c1.024-0.205,1.843,0.307,4.198,2.509c1.588,1.536,3.277,2.765,3.738,2.765s1.127,0.358,1.485,0.768
	c0.768,0.87,2.867,1.024,3.38,0.204c0.153-0.307,0.972-0.46,1.74-0.307c1.23,0.256,1.383,0.154,1.178-0.87
	c-0.205-0.87,0.256-1.792,1.587-3.277c1.024-1.127,1.844-2.356,1.844-2.816c0-0.41,0.358-0.922,0.819-1.076
	c0.41-0.153,0.666-0.46,0.563-0.717c-0.153-0.204,0.051-1.075,0.41-1.945c0.563-1.383,0.973-1.639,3.277-1.946
	c1.587-0.205,3.482-0.922,4.864-1.843c1.229-0.87,2.407-1.536,2.612-1.536c1.228,0,5.376-2.51,6.656-3.994
	c1.178-1.434,1.536-2.304,1.638-4.506c0.052-1.536-0.102-2.765-0.358-2.765c-0.307,0-0.512,0.41-0.512,0.87
	c-0.051,0.973-4.967,6.042-7.27,7.476c-1.435,0.87-1.435,0.87-1.435-0.41c0-0.716,0.256-1.28,0.564-1.28
	c0.358,0,0.46-0.563,0.307-1.485c-0.307-1.587,0.666-4.147,2.202-5.837c0.512-0.512,1.126-1.843,1.485-2.97
	c0.665-2.201,2.355-3.328,3.584-2.355c0.563,0.461,0.358,0.82-0.922,1.997c-1.331,1.229-1.485,1.587-1.075,2.714
	c0.256,0.717,0.717,1.28,1.024,1.28c0.717,0,0.614-1.434-0.103-1.69c-1.228-0.358,0.666-1.997,1.946-1.69
	c1.536,0.41,2.048-0.563,0.973-1.74c-0.973-1.076-0.768-1.28,1.536-1.639c0.563-0.102,1.229-0.666,1.536-1.331
	c0.256-0.615,0.615-1.127,0.768-1.127c1.127-0.05,1.485-0.973,1.024-2.56c-0.41-1.382-0.307-1.894,0.308-2.611
	c0.512-0.615,0.87-2.048,0.921-4.404c0.103-3.072,0-3.584-1.075-4.557c-0.973-0.921-1.075-1.177-0.41-1.433
	c1.076-0.41,0.973-1.485-0.153-1.127c-0.615,0.205-1.434-0.205-2.458-1.28l-1.485-1.587l1.946,0.358
	c1.28,0.256,1.894,0.205,1.894-0.205c0-0.307-0.153-0.563-0.358-0.563c-0.256,0-0.41-1.075-0.41-2.407
	c0-1.894,0.256-2.662,1.383-3.789c1.28-1.28,1.433-1.28,1.69-0.41c0.46,1.383,2.508,1.23,4.147-0.306
	c1.024-0.922,1.229-1.434,0.82-1.946c-0.308-0.359-0.462-1.946-0.36-3.584c0.103-1.588-0.05-3.073-0.306-3.226
	c-0.256-0.154-0.359-0.461-0.205-0.717c0.153-0.256-0.512-1.024-1.434-1.74c-1.434-1.127-1.69-1.588-1.485-2.868
	c0.154-1.024-0.102-1.895-0.665-2.56c-0.769-0.87-0.82-1.127-0.205-1.844c0.563-0.717,0.512-0.921-0.308-1.382
	c-0.563-0.307-1.228-0.615-1.536-0.666c-0.256,0-0.819-0.102-1.126-0.102c-1.075-0.154-0.717-0.973,0.512-1.332
	c0.666-0.153,2.1-0.972,3.175-1.843c1.075-0.82,2.201-1.536,2.56-1.536c0.563,0,1.28-1.075,1.28-1.843
	c0-0.359-3.584-0.205-3.584,0.153c-0.052,0.87-1.434,2.15-2.663,2.458c-1.229,0.307-1.28,0.205-1.024-1.126
	c0.102-0.768,0.614-1.895,1.126-2.458c0.82-0.922,1.383-2.765,1.69-5.633c0.103-1.023-0.205-1.023-36.405-1.074l-36.508-0.102
	l-1.23,1.843H-225.935z M-202.228,385.23c0.307,0.46,0.666,1.433,0.666,2.15c0.102,1.997,0.153,2.253,0.87,3.482
	c0.41,0.717,0.46,1.229,0.102,1.434c-0.256,0.153-0.512,0.87-0.512,1.587c0,0.666-0.46,1.485-1.024,1.843
	c-0.563,0.359-1.024,1.024-1.024,1.485s-0.358,1.127-0.768,1.485c-0.41,0.359-0.768,0.46-0.768,0.256
	c0-0.205-0.307-0.102-0.717,0.205c-0.512,0.46-0.819,0.41-1.331-0.256c-0.46-0.512-1.126-0.666-1.946-0.46
	c-0.665,0.153-1.536,0.05-1.945-0.308c-0.41-0.359-1.383-0.461-2.51-0.256c-1.433,0.307-1.894,0.153-2.406-0.717
	c-0.358-0.563-0.87-1.024-1.178-1.024c-0.512,0-1.485-1.843-3.072-5.837c-0.973-2.458-0.973-2.56,0.051-2.15
	c0.512,0.204,1.127-0.052,1.485-0.564c0.512-0.666,1.23-0.82,3.021-0.717c1.485,0.051,2.356-0.102,2.356-0.46
	c0-1.076,3.328-2.049,5.171-1.537c2.1,0.615,1.997,0.615,1.997-0.051c0-0.256-0.205-0.358-0.512-0.205
	c-0.256,0.154-0.512,0.051-0.512-0.205C-206.734,383.54-202.996,384.206-202.228,385.23z M-210.83,391.476
	c0,0.564,0.256,1.178,0.512,1.332c0.307,0.205,0.512-0.256,0.512-0.973c0-0.717-0.205-1.331-0.512-1.331
	C-210.574,390.504-210.83,390.964-210.83,391.476z M-245.034,396.136c-0.87,1.434-0.82,1.536,0.82,1.536
	c1.791,0,2.099-0.307,1.791-1.587C-242.781,394.805-244.215,394.805-245.034,396.136L-245.034,396.136z M-153.124,410.831
	c-0.205,0.307-0.205,0.922-0.051,1.383c0.153,0.46,0.05,0.819-0.256,0.819c-0.308,0-0.564,0.41-0.564,0.87
	c0.052,0.87,0.052,0.87,0.512,0.052c0.359-0.564,0.973-0.768,2.049-0.615c0.87,0.154,1.536,0.051,1.536-0.256
	c-0.003-0.31-0.254-0.561-0.564-0.563c-0.307,0-0.972-0.512-1.433-1.126c-0.564-0.666-1.024-0.87-1.23-0.564H-153.124z
	 M-160.14,440.683c0,0.256,0.46,0.717,1.024,1.024c0.82,0.41,1.024,0.41,1.024-0.205c0-0.358-0.358-0.87-0.82-1.024
	C-159.986,440.068-160.14,440.068-160.14,440.683z M-198.285,466.08c0.41,2.201,0.972,3.123,1.484,2.304
	c0.461-0.717-0.153-2.97-1.075-3.687C-198.541,464.134-198.593,464.287-198.285,466.08L-198.285,466.08z M-154.61,374.989
	c0.46,0.358,0.563,0.666,0.256,0.666c-0.82,0-2.202-1.434-2.202-2.253c0-1.23,0.768-1.434,0.922-0.205
	C-155.532,373.811-155.071,374.682-154.61,374.989z M-153.074,373.35c-0.154,0.154-0.46-0.102-0.614-0.614
	c-0.308-0.717-0.256-0.768,0.256-0.307C-153.074,372.787-152.92,373.197-153.074,373.35z M-216.104,378.01
	c0.87,0.87,0.87,0.87,0.051,0.563c-0.614-0.205-0.922-0.102-0.922,0.41c0,0.41-0.358,0.768-0.768,0.768
	c-0.41,0-0.768-0.46-0.768-1.075c0-0.564-0.205-0.922-0.46-0.768c-0.205,0.153-0.871-0.103-1.383-0.512
	c-0.922-0.717-0.82-0.769,1.178-0.564C-217.999,376.986-216.616,377.498-216.104,378.01z M-190.298,381.799
	c0,0.973,0.256,2.355,0.461,3.072c0.359,1.127,0.41,1.127,0.46,0.205c0.052-1.434,0.564-1.843,1.435-1.178
	c0.921,0.82,0.87,7.578-0.103,12.34c-0.46,2.048-0.87,4.916-0.973,6.452c-0.204,2.611-0.153,2.816,2.1,5.07
	c1.894,1.996,2.253,2.61,1.945,3.686c-0.204,0.717-0.307,2.457-0.307,3.84c0.051,1.894-0.153,2.765-0.973,3.635
	c-0.614,0.615-1.126,1.793-1.229,2.56c-0.102,1.025-0.768,1.844-2.304,2.92c-1.843,1.228-2.304,1.33-3.277,0.87
	c-1.945-1.024-3.584-2.97-3.226-3.79c0.564-1.587,1.946-10.445,1.895-12.442c-0.051-0.665,0.205-1.69,0.512-2.253
	c0.614-1.126,0.717-13.517,0.205-20.686c-0.256-3.43-0.205-4.301,0.512-5.018c0.46-0.46,0.666-1.075,0.512-1.331
	c-0.205-0.307-0.051-0.922,0.307-1.331c0.563-0.666,0.717-0.666,1.28,0.41C-190.656,379.495-190.349,380.826-190.298,381.799z
	 M-169.151,382.413c0.615,1.537,1.536,2.305,3.277,2.714c2.202,0.563,3.021,1.383,4.148,4.199c0.614,1.536,0.563,1.69-1.485,3.584
	c-2.663,2.407-5.172,3.38-6.964,2.714c-1.74-0.666-1.69-0.666-2.253,0.717c-0.358,0.973-0.717,1.177-1.587,0.973
	c-0.615-0.154-1.229-0.717-1.331-1.178c-0.154-0.512-1.178-1.075-2.714-1.485c-2.663-0.666-4.045-1.74-3.072-2.355
	c0.307-0.205,0.512-0.973,0.41-1.69c-0.103-1.024,0.255-1.587,1.587-2.509c0.972-0.666,1.587-1.178,1.382-1.178
	s0.205-0.563,0.922-1.28c0.717-0.717,1.536-1.28,1.843-1.28s0.46-0.205,0.256-0.46c-0.512-0.871,1.895-2.1,3.738-1.844
	C-170.021,382.157-169.202,382.362-169.151,382.413z M-157.067,384.923c0,0.46-0.358,1.023-0.82,1.177
	c-0.716,0.256-0.767,0.205-0.204-0.46c0.512-0.615,0.512-1.127,0.051-2.202c-0.512-1.28-0.512-1.332,0.205-0.41
	c0.41,0.563,0.768,1.382,0.768,1.894V384.923z M-159.729,385.639c0.204,0.307-0.052,0.154-0.512-0.41
	c-0.512-0.563-0.717-1.28-0.512-1.791c0.256-0.717,0.41-0.615,0.512,0.41C-160.139,384.564-159.883,385.383-159.729,385.639z
	 M-223.939,383.796c0.154,0.205-0.153,0.82-0.665,1.28c-1.075,0.973-0.87,2.867,0.256,2.867c0.41,0,0.717,0.256,0.717,0.564
	c0,0.307-0.46,0.41-1.127,0.204c-0.87-0.307-1.024-0.204-0.768,0.461c0.308,0.717,0.154,0.82-0.665,0.564
	c-0.768-0.256-0.922-0.154-0.717,0.46c0.154,0.461,0.051,0.82-0.256,0.82c-0.307,0-1.639,0.972-2.867,2.099
	c-2.049,1.894-2.305,1.997-2.305,1.024c0-0.563-0.256-1.075-0.614-1.075c-0.307,0-0.154-0.461,0.358-1.024
	c0.512-0.615,1.28-0.922,1.639-0.82c0.973,0.41,1.434-0.819,0.563-1.433c-0.512-0.41-0.717-1.076-0.563-1.946
	c0.256-1.382,0.82-1.382,3.84-0.154c0.768,0.308,0.82,0.154,0.41-1.382c-0.307-0.922-0.512-1.741-0.512-1.843
	c0-0.154,2.15-1.024,2.662-1.076C-224.348,383.336-224.092,383.54-223.939,383.796L-223.939,383.796z M-172.428,401.512
	c0,0.82,0.307,1.28,0.768,1.28c1.28,0,0.87,1.536-0.563,2.1c-2.56,0.921-4.352-2.304-2.1-3.892
	C-172.786,399.925-172.428,400.027-172.428,401.512z M-235.408,402.127c0,0.256-0.768,1.229-1.69,2.253
	c-1.228,1.382-1.894,1.74-2.662,1.485c-0.82-0.308-0.87-0.41-0.256-0.82c0.41-0.256,1.075-1.075,1.485-1.894
	c0.512-0.922,1.126-1.383,1.945-1.383C-235.92,401.768-235.408,401.922-235.408,402.127z M-207.246,404.584
	c0,0.256-0.256,0.154-0.512-0.256c-0.256-0.41-0.512-1.024-0.512-1.28c0-0.307,0.256-0.153,0.512,0.256
	C-207.502,403.714-207.246,404.277-207.246,404.584z M-205.864,403.919c-0.153,0.41-0.307,0.256-0.307-0.307
	c-0.051-0.564,0.103-0.87,0.256-0.666C-205.761,403.1-205.71,403.56-205.864,403.919z M-186.253,405.865
	c0,0.256-0.256,0.512-0.563,0.512c-0.256,0-0.358-0.256-0.205-0.512c0.154-0.308,0.41-0.512,0.563-0.512
	C-186.355,405.353-186.253,405.557-186.253,405.865z M-241.399,407.964c-0.153,0.512-0.614,1.229-1.075,1.587
	c-0.614,0.512-0.717,0.512-0.41,0c0.205-0.307,0.103-0.614-0.153-0.614c-0.82,0-0.666-0.666,0.307-1.895
	C-241.757,405.813-240.989,406.377-241.399,407.964z M-167.307,406.377c-0.001,0.283-0.23,0.512-0.513,0.512
	c-0.256,0-0.512-0.256-0.512-0.512c0-0.308,0.256-0.512,0.512-0.512C-167.512,405.865-167.307,406.069-167.307,406.377z
	 M-237.456,411.343c-0.46,0.768-0.512,0.615-0.307-0.819c0.153-0.922,0.358-2.1,0.41-2.56c0-0.46,0.153-0.051,0.255,0.82
	c0.103,0.92-0.05,2.098-0.358,2.56V411.343z M-166.591,408.578c0.717,0.512,0.768,0.922,0.359,2.048
	c-0.615,1.588-1.844,1.793-3.226,0.512C-171.66,409.142-169.048,406.786-166.591,408.578z M-242.73,412.368
	c0.46,0.716,0.563,1.177,0.256,1.177c-0.82,0-1.638-1.74-1.587-3.175c0.051-1.024,0.102-1.024,0.307-0.153
	c0.154,0.512,0.614,1.485,1.024,2.15V412.368z M-239.094,413.289c-0.154,0.154-0.461-0.102-0.615-0.614
	c-0.307-0.717-0.256-0.768,0.256-0.308C-239.094,412.726-238.941,413.135-239.094,413.289z M-166.488,414.313
	c-0.051,1.843-0.82,2.611-0.82,0.82c0-0.922,0.461-2.612,0.717-2.612C-166.488,412.521-166.488,413.341-166.488,414.313z
	 M-163.723,415.286c0,0.256-0.359,0.051-0.768-0.512c-0.41-0.512-0.717-1.229-0.717-1.485c0-0.307,0.307-0.051,0.717,0.46
	C-164.081,414.313-163.723,414.979-163.723,415.286z M-197.005,430.954c0,0.307,1.587,0.461,3.737,0.461
	c5.684-0.051,5.94,0,7.067,1.126c0.614,0.615,1.843,1.178,2.713,1.28c0.87,0.052,3.175,0.257,5.12,0.41
	c1.946,0.154,3.534,0.359,3.585,0.41c0.051,0.102,0.563,0.87,1.178,1.74c0.614,0.922,0.972,1.793,0.768,1.998
	c-0.359,0.307-0.41,0.563-0.512,2.713c-0.052,0.615-0.512,1.332-0.973,1.485c-0.512,0.205-1.178,0.666-1.485,1.076
	c-0.461,0.614-1.434,0.665-5.377,0.307c-5.632-0.461-7.834-0.461-14.03,0.051c-7.168,0.614-13.824,0.87-17.152,0.614l-1.741-0.102
	l0.153-2.611c0.052-1.639-0.102-2.817-0.46-3.021c-0.461-0.256-0.513-0.052-0.257,0.768c0.205,0.717,0.154,1.024-0.153,0.819
	c-0.256-0.154-0.615-1.024-0.717-1.843c-0.205-1.178-0.051-1.536,0.46-1.332c0.41,0.154,0.564,0.103,0.41-0.153
	c-0.153-0.256-0.05-0.615,0.257-0.82c0.256-0.153,0.512,0.154,0.512,0.717c0,0.615,0.256,1.076,0.512,1.076
	c0.283-0.001,0.511-0.229,0.512-0.512c0-0.308,0.563-0.512,1.28-0.512c0.717,0,1.28,0.153,1.28,0.41
	c0,0.204,0.921,0.306,1.997,0.204c1.997-0.205,2.56-0.87,2.816-3.175c0-0.46,0.717-0.819,1.74-0.921
	c0.922-0.103,1.844-0.512,1.998-0.973C-201.255,431.313-197.005,429.776-197.005,430.954z M-159.371,431.978
	c1.383,1.536,0.614,1.741-0.768,0.256c-0.666-0.717-0.973-1.28-0.666-1.28C-160.549,430.954-159.883,431.415-159.371,431.978z
	 M-167.307,435.562c-0.308,0.615-0.41,1.537-0.205,2.151c0.205,0.717,0.102,0.922-0.256,0.717c-0.308-0.205-0.564-0.717-0.564-1.127
	c0-0.87,0.922-2.765,1.332-2.765C-166.898,434.538-167,434.999-167.307,435.562z"/>
</svg>
