<?xml version="1.0" encoding="iso-8859-1"?>
<!-- Generator: Adobe Illustrator 19.0.0, SVG Export Plug-In . SVG Version: 6.00 Build 0)  -->
<svg version="1.2" baseProfile="tiny" id="Layer_1" xmlns="http://www.w3.org/2000/svg" xmlns:xlink="http://www.w3.org/1999/xlink"
	 x="0px" y="0px" viewBox="-247 367.89 100 106" xml:space="preserve">
<title>face_00076</title>
<path d="M-225.427,368.094c-0.106,0.106-4.685,0.316-10.158,0.474c-5.948,0.21-10.21,0.58-10.632,0.948
	c-0.526,0.42-0.526,0.842-0.053,1.894c0.527,1.21,0.685,1.263,3.737,0.895c1.79-0.21,12.474-0.474,23.737-0.684l20.526-0.316
	l0.158-1.263c0.106-0.684-0.105-1.474-0.526-1.684c-0.632-0.421-26.368-0.632-26.79-0.264H-225.427z M-195.06,369.726
	c-0.684,1.895,0.474,2.632,4.263,2.632c5,0.052,32.58,0.894,35.158,1.052c1.158,0.106,2.737,0.21,3.579,0.21
	c0.79,0.053,1.421,0.317,1.421,0.632c0,0.369-2.526,0.421-7.737,0.264c-22.524-0.843-86.894-1.264-87.999-0.632
	c-0.79,0.526-0.737,2.263,0.053,2.737c0.368,0.263,9.79,0.473,20.947,0.473c17.316,0.106,48.421,0.527,70.684,1
	c4.842,0.106,6.421,0,7-0.578c1-1.053,0.948-1.527-0.42-2.79c-0.632-0.579-0.843-1.053-0.527-1.053c0.684,0,0.895-2.947,0.21-3.368
	c-0.42-0.263-4.105-0.368-33.842-1.158C-193.585,368.884-194.743,368.937-195.06,369.726L-195.06,369.726z M-159.06,379.463
	c-4.474,0.21-25.895,0.316-47.526,0.263c-36.264-0.053-39.421,0-39.842,0.842c-0.316,0.58-0.211,1.21,0.263,1.842
	c0.684,0.948,2.105,1,40.894,1c22.106,0,43.79-0.105,48.21-0.21c7.896-0.158,8.054-0.158,8.633-1.421
	c0.684-1.421-0.211-2.895-1.632-2.737c-0.474,0.052-4.526,0.263-9,0.42V379.463z M-245.113,386.463
	c-0.947,0.526-1.052,2.158-0.105,2.842c0.368,0.316,5.158,0.526,11.632,0.474c9.842-0.053,11.052-0.158,11.579-1
	c0.368-0.58,0.42-1.158,0.052-1.737c-0.473-0.684-2.105-0.842-11.473-0.948C-239.428,386.042-244.692,386.2-245.113,386.463z
	 M-216.955,386.253c-1.631,0.263-1.842,0.526-1.842,1.894c0,1.526,0.053,1.58,2.632,1.58c2.368,0,2.631-0.106,2.79-1.211
	c0.157-1.158-0.685-2.79-1.422-2.685C-214.955,385.884-215.955,386.041-216.955,386.253L-216.955,386.253z M-197.745,386.305
	c-6.63,0.158-12.157,0.368-12.21,0.421c-0.579,0.421,0,2.79,0.79,3.105c0.473,0.21,6.526,0.369,13.368,0.263
	c11.947-0.157,12.526-0.21,13.105-1.21c0.685-1.316-0.052-2.368-1.79-2.632C-185.112,386.147-191.06,386.147-197.745,386.305
	L-197.745,386.305z M-167.218,386.305c-2.79,0.263-3.632,1.368-2.316,2.947c0.527,0.685,2.158,0.79,9.842,0.632
	c8.106-0.158,9.264-0.263,9.79-1.105c0.42-0.632,0.42-1.158,0-1.842c-0.526-0.79-1.526-0.895-7.632-0.895
	C-161.428,386.042-165.744,386.147-167.218,386.305z M-180.113,387.305c-0.42,0.842-0.368,1.263,0.421,2.053
	c0.79,0.79,1.474,0.894,3.79,0.631c2.79-0.263,2.895-0.316,2.895-1.842c0-1.579,0-1.579-3.264-1.737
	C-179.113,386.252-179.586,386.41-180.113,387.305z M-240.48,392.515c-4.58,0.158-5.58,0.685-5.053,2.632
	c0.263,1.105,0.474,1.158,7.737,1.158c4.053,0,13.58,0,21.105,0.053c17.369,0.105,16.053,0.21,16.053-1.316
	c0-0.684-0.316-1.474-0.684-1.79c-0.474-0.42-6.263-0.579-17.421-0.631c-9.21,0-16.895-0.053-17.106-0.158
	C-236.006,392.41-238.112,392.41-240.48,392.515L-240.48,392.515z M-197.112,392.515c-1.315,0.158-1.473,0.369-1.315,1.843
	c0.157,1.526,0.368,1.684,2.052,1.842c2.316,0.21,3.474-0.895,2.632-2.421C-194.375,392.569-195.164,392.252-197.112,392.515
	L-197.112,392.515z M-161.375,392.515c-0.105,0.053-6.79,0.106-14.947,0.106c-9.58,0-14.895,0.21-15.158,0.579
	c-0.158,0.316-0.158,1.105,0,1.842l0.316,1.263h17.052c19.948,0,23.316-0.21,23.79-1.684c0.631-2.053-0.632-2.58-5.948-2.421
	C-159.006,392.305-161.322,392.41-161.375,392.515L-161.375,392.515z M-184.059,398.41c-6.526,0.21-7.368,0.369-7.526,1.21
	c-0.474,2.422-0.158,2.474,20.684,2.474c16.474,0,19.737-0.105,20.263-0.789c0.579-0.737,0.316-2.842-0.421-2.947
	C-152.112,398.148-177.691,398.2-184.059,398.41z M-228.849,398.831c-16.947,0.106-17.368,0.21-16.473,2.632l0.473,1.263
	l21.422-0.158c11.842-0.052,21.894-0.21,22.42-0.316c1.264-0.315,1.106-2.105-0.263-2.947c-0.842-0.526-2.79-0.737-6.473-0.684
	C-210.638,398.621-220.164,398.726-228.849,398.831z M-198.112,398.989c-2.052,1.158-0.631,3.58,2.053,3.369
	c1.895-0.158,2.79-0.737,2.79-1.737C-193.269,398.621-195.954,397.726-198.112,398.989z M-242.902,404.621
	c-1.683,0.21-2.262,1.21-1.525,2.579c0.526,0.894,1.894,0.947,22.052,1c17.842,0.052,21.632-0.053,22.316-0.684
	c1.158-1,0.684-2.79-0.79-2.843c-2.631-0.157-40.736-0.21-42.052-0.052H-242.902z M-198.375,405.147
	c-0.631,0.632-0.631,0.895,0,1.842c1.526,2.316,6.421,1.21,5.105-1.21C-193.901,404.569-197.322,404.094-198.375,405.147z
	 M-172.638,404.621c-19.842,0.105-19.895,0.158-18.579,2.684c0.579,1.053,0.947,1.053,19.158,0.895
	c10.158-0.106,19.21,0.052,20.053,0.263c1.894,0.526,2.947-0.158,2.947-2C-149.059,404.41-149.112,404.41-172.638,404.621z
	 M-211.428,409.831c-0.842,0.106-8.789,0.369-17.631,0.58c-15.842,0.368-16.053,0.368-16.21,1.473
	c-0.158,1.158,1.263,3.053,1.894,2.632c0.316-0.211,20.105-0.685,38.158-0.948c3.105-0.052,4.895-0.316,5.368-0.737
	c0.58-0.579,0.79-0.579,1.316,0.053c1.316,1.579,6.316,0.579,6.316-1.263c0-1.684-5.105-2.79-6.474-1.421
	c-0.684,0.737-0.842,0.737-1.105,0.052c-0.21-0.631-1.316-0.79-5.158-0.684c-2.684,0-5.579,0.158-6.473,0.263H-211.428z
	 M-189.059,409.989c-0.579,0.369-0.632,0.79-0.263,1.895l0.526,1.421l18.474,0.21c16.947,0.158,18.526,0.106,18.842-0.684
	c0.842-2.158-0.053-2.684-4.842-3.052C-163.322,409.305-188.164,409.41-189.059,409.989z M-246.059,416.41
	c-0.105,0.369-0.053,1.21,0.21,1.842l0.422,1.21l14.368,0.106c23.79,0.158,31.632,0,32.053-0.737c0.315-0.473,0.526-0.42,0.79,0.263
	c0.262,0.685,0.946,0.895,3.104,0.895c3.263,0,4.369-0.842,3.421-2.631c-0.526-0.948-1.052-1.106-4.105-1.106
	c-1.947,0-14-0.105-26.737-0.263C-241.059,415.779-245.849,415.884-246.059,416.41z M-189.059,417.779
	c0,0.894,0.21,1.737,0.421,1.894c0.21,0.106,8.474,0.421,18.368,0.58c17.737,0.368,17.948,0.368,18.527-0.685
	c0.473-0.842,0.42-1.263-0.263-1.895c-0.685-0.684-2.21-0.842-8.527-0.842c-4.263,0-12.42-0.158-18.105-0.368l-10.421-0.316
	C-189.059,416.147-189.059,417.779-189.059,417.779z M-245.796,423.884c0.105,1.158,0.474,1.632,1.58,1.947
	c2.21,0.58,43.578,0.158,44.21-0.473c0.263-0.264,0.42-1.053,0.315-1.737l-0.158-1.263H-222.9l-23.053-0.053l0.158,1.579H-245.796z
	 M-197.691,422.937c-0.158,0.42-0.052,1.263,0.21,1.842c0.475,0.79,1.159,1,3.422,1c3.105,0,3.684-0.421,3.21-2.421
	c-0.315-1.158-0.578-1.264-3.42-1.264C-196.585,422.094-197.427,422.305-197.691,422.937z M-188.375,422.673
	c-0.368,0.369-0.684,1.106-0.684,1.58c0,0.473,0.316,1.105,0.684,1.368c0.526,0.473,12.421,0.79,34.79,0.947
	c2.894,0,3.736-0.21,4.21-0.895c0.421-0.736,0.369-1.105-0.263-1.736c-0.684-0.685-3.263-0.843-16.579-1.053
	c-8.632-0.158-17.053-0.368-18.632-0.526C-186.849,422.148-187.954,422.252-188.375,422.673z M-246.427,428.673
	c-0.422,0.527-0.474,1,0,1.79c0.526,1.053,1,1.105,10.684,1.158c27.368,0.105,33.79-0.053,34.368-0.79
	c0.421-0.631,0.632-0.631,1.053-0.052c0.737,1.052,13.158,1.42,14.21,0.42c0.895-0.947,0.948-1.841,0.106-2.683
	c-0.79-0.79-13.895-0.895-14.369-0.106c-0.263,0.421-0.579,0.421-1,0.053c-0.42-0.369-8.42-0.526-22.526-0.526
	C-242.111,427.937-245.901,428.042-246.427,428.673z M-183.533,428.726c-0.684,0.684-0.526,2.842,0.21,2.842
	c0.159,0,4.37,0.158,9.264,0.316c5.737,0.158,9.526,0.053,10.421-0.263c0.842-0.316,1.368-0.421,1.263-0.158
	c-0.158,0.21,2.421,0.42,5.737,0.42c5.526,0.054,6,0,6.316-0.946c0.21-0.632,0-1.369-0.474-1.895
	c-0.737-0.684-3.158-0.79-16.42-0.895C-179.533,428.094-183.006,428.2-183.533,428.726L-183.533,428.726z M-200.849,433.516
	c-0.052,0.105-10.473,0.157-23.105,0.157c-21.79,0-23,0.053-23,0.948c0,0.526,0.316,1.368,0.684,1.895
	c0.737,1,5.527,1.052,72.21,0.684l24.738-0.106l0.158-1.473c0.105-0.842-0.106-1.527-0.527-1.632
	C-150.481,433.726-200.585,433.252-200.849,433.516L-200.849,433.516z M-192.375,438.463c-1.052,0.631-1.158,2.21-0.21,3
	c0.736,0.631,39.736,1.053,40.79,0.42c0.894-0.525,0.789-1.578-0.317-2.578c-0.79-0.737-3.158-0.842-19.105-0.895
	c-10,0-18.632-0.105-19.21-0.21C-191.007,438.094-191.901,438.2-192.375,438.463z M-207.533,438.673
	c-0.158,0.106-8.894,0.316-19.473,0.421l-19.158,0.158l-0.158,1.421c-0.158,1.107,0.105,1.527,1.052,1.895
	c1.79,0.632,49.737,0,50.895-0.684c0.79-0.474,0.737-2.053-0.052-2.842C-195.059,438.41-206.954,438.094-207.533,438.673z
	 M-178.48,444.305c-1.21,0.421-1.263,0.632-0.632,2.263c0.369,0.895,0.895,1.053,4.053,1.053c2,0,8.263,0.105,13.895,0.21
	c9.631,0.106,10.315,0.053,10.947-0.894c0.526-0.843,0.474-1.106-0.263-1.79c-0.79-0.684-3.105-0.895-13.947-1.053
	C-171.533,443.989-177.901,444.042-178.48,444.305z M-245.585,444.621c-0.58,0.526-0.316,2.579,0.368,3.105
	c0.368,0.316,6.368,0.474,14.263,0.474c12.369-0.053,13.684-0.158,14.21-0.948c0.422-0.684,0.422-1.21,0-1.842
	c-0.526-0.842-1.894-0.947-14.578-1.052C-239.006,444.305-245.427,444.41-245.585,444.621z M-231.691,449.094
	c-0.158,0.106-3.315,0.369-7.052,0.527s-7,0.526-7.316,0.842c-0.368,0.368-0.368,1,0.105,1.947c0.632,1.421,0.684,1.421,4.684,1.053
	c6.895-0.526,49-0.895,55.369-0.421c5.842,0.42,5.526,0.42-8.421,0.842c-7.948,0.21-22.527,0.421-32.369,0.474l-17.894,0.105
	l-0.158,1.684c-0.158,1.58-0.053,1.737,1.158,1.737c0.736,0,1.368,0.21,1.368,0.421c0,0.263-0.526,0.421-1.158,0.421
	c-0.895-0.053-1.263,0.263-1.368,1.158c-0.369,2.526,0.105,2.632,14.263,2.79c21.053,0.157,34.263-0.106,34.947-0.685
	c0.842-0.684,0.895-2.368,0.053-2.842c-0.316-0.21-3.58-0.316-7.21-0.21c-14.58,0.368-37.948,0-37.948-0.58
	c0-0.263,10.842-0.473,24.105-0.473c13.21-0.053,26.316-0.263,29.053-0.474c2.737-0.21,12.105-0.316,20.79-0.316
	c8.684,0.053,16.263-0.052,16.789-0.263c1.105-0.368,1.579-1.894,0.737-2.42c-0.316-0.211,0.105-0.843,0.894-1.474
	c1.264-1,1.369-1.316,0.843-2.316c-0.58-1.053-1.053-1.158-5.211-1.158c-2.526,0-21.263-0.158-41.684-0.316
	C-214.743,448.937-231.532,448.937-231.691,449.094z M-177.111,453.463c-0.159,0.158-0.632,0.21-1,0.053
	c-0.422-0.158-0.264-0.316,0.315-0.316C-177.216,453.147-176.901,453.305-177.111,453.463L-177.111,453.463z M-165.006,453.463
	c-0.158,0.158-0.632,0.21-1,0.053c-0.421-0.158-0.264-0.316,0.315-0.316C-165.111,453.147-164.796,453.305-165.006,453.463z
	 M-155.533,453.463c-0.158,0.158-0.631,0.21-1,0.053c-0.42-0.158-0.263-0.316,0.316-0.316
	C-155.638,453.147-155.322,453.305-155.533,453.463z M-184.323,458.41c-8.63,0.263-8.683,0.263-8.841,1.527
	c-0.106,0.684,0.052,1.473,0.315,1.736c0.474,0.474,8.053,0.58,12.737,0.158c0.737-0.052,7.895-0.158,15.895-0.158
	c14.474-0.105,14.579-0.105,14.947-1.263c0.737-2.316-0.579-2.526-13.947-2.42c-6.842,0.052-16.316,0.262-21.105,0.42H-184.323z
	 M-243.323,464.2c-0.736,0.473-1,2.21-0.42,2.947c0.579,0.737,22.263,1,62.316,0.842c16.789-0.105,30.842-0.158,31.21-0.105
	c0.474,0,0.632-0.579,0.526-1.737l-0.158-1.684l-32.894-0.105c-18.106,0-39-0.158-46.421-0.264
	c-7.474-0.157-13.842-0.052-14.158,0.106H-243.323z M-243.27,469.2c-0.315,0.42-0.368,1.105-0.105,1.894l0.474,1.264l13.631,0.052
	c34.106,0.21,73.843,0.842,76.106,1.21c1.315,0.211,2.79,0.211,3.263-0.052c1.105-0.631,1.105-2.21,0-3.105
	c-0.842-0.684-3.895-0.737-80.053-1.79C-239.849,468.516-242.796,468.621-243.27,469.2z"/>
</svg>
