<?xml version="1.0" encoding="iso-8859-1"?>
<!-- Generator: Adobe Illustrator 19.0.0, SVG Export Plug-In . SVG Version: 6.00 Build 0)  -->
<svg version="1.2" baseProfile="tiny" id="Layer_1" xmlns="http://www.w3.org/2000/svg" xmlns:xlink="http://www.w3.org/1999/xlink"
	 x="0px" y="0px" viewBox="-247 380.89 100 81" xml:space="preserve">
<title>face_00083</title>
<path d="M-222.302,381.429c1.458,0.161,4.049,0.161,5.668,0c1.7-0.162,0.567-0.324-2.59-0.324
	C-222.302,381.105-223.678,381.267-222.302,381.429z M-173.8,381.59c-0.324,0.486-0.971,0.648-1.457,0.405
	c-0.567-0.324-0.648-0.162-0.324,0.324c0.405,0.648,1.214,0.648,2.996,0c2.51-0.89,8.664-0.567,11.66,0.567
	c1.295,0.486,1.457,0.405,0.647-0.405c-1.295-1.376-12.792-2.186-13.522-0.89V381.59z M-210.318,384.424
	c2.915,2.51,3.239,3.158,3.644,7.45c0.485,5.02-0.73,8.42-4.13,12.146c-1.538,1.7-2.024,3.562-0.89,3.562
	c0.323,0,0.971-0.647,1.376-1.538c4.21-7.935,5.425-9.798,6.478-9.798c0.647,0,1.214-0.405,1.214-0.89
	c0-0.486-0.567-0.73-1.214-0.405c-0.81,0.243-1.215-0.081-1.296-0.972c-0.162-4.777-2.186-9.069-5.101-11.012
	C-213.72,380.781-213.72,381.51-210.318,384.424z M-225.136,383.858c-1.943,0.647-3.32,1.376-3.158,1.538
	c0.162,0.162,2.025-0.243,4.13-0.972c2.996-1.052,4.453-1.133,7.206-0.485c4.21,1.133,5.02,0.566,0.81-0.567
	C-220.035,382.238-220.844,382.319-225.136,383.858z M-182.14,385.072c-1.376,1.053-2.996,2.591-3.482,3.482
	c-0.567,0.89,0.162,0.486,1.7-0.972c1.54-1.457,3.644-2.915,4.778-3.4c1.134-0.405,1.458-0.81,0.81-0.81
	C-178.982,383.291-180.682,384.101-182.14,385.072z M-175.5,384.505c-1.782,0.648-3.32,1.215-3.401,1.215
	c-0.162,0-0.243,0.405-0.243,0.89c0,0.649,0.324,0.649,1.134,0c0.647-0.485,2.672-1.457,4.615-2.024
	c1.943-0.647,2.996-1.133,2.348-1.214C-171.695,383.372-173.719,383.858-175.5,384.505z M-165.54,383.858
	c0.566,0.243,1.295,0.162,1.538-0.081c0.324-0.243-0.162-0.486-1.053-0.405C-165.945,383.372-166.189,383.615-165.54,383.858
	L-165.54,383.858z M-156.958,385.72c3.077,3.725,3.563,8.097,1.7,16.194c-0.323,1.7-0.242,1.7,0.73-0.404
	c0.728-1.377,1.214-4.05,1.295-6.073c0.08-3.401,0.162-3.563,1.296-2.025c2.753,3.725,4.858,17.41,3.481,23.725
	c-0.486,2.348-0.728,4.534-0.486,4.777c0.243,0.162,0.891-1.7,1.458-4.291c1.457-6.397-0.486-17.814-4.534-26.72
	c-2.915-6.318-3.887-7.613-5.912-7.613c-0.73,0-0.324,0.89,0.971,2.429L-156.958,385.72z M-159.468,386.854
	c2.51,2.267,2.996,3.239,2.996,6.073c0,1.862-0.567,4.534-1.295,5.83c-0.648,1.376-1.053,2.672-0.81,2.914
	c0.81,0.81,2.915-5.668,2.915-9.068c0-2.834-0.486-3.887-2.591-5.992c-1.377-1.377-2.915-2.51-3.401-2.51
	C-162.059,384.101-161.087,385.315-159.468,386.854z M-232.423,385.882c-1.215,1.215-1.215,2.834,0,3.563
	c0.566,0.405,0.728,0.162,0.405-0.729c-0.324-0.89-0.162-1.134,0.728-0.81c0.729,0.243,1.134-0.162,1.134-1.295
	C-230.156,384.667-230.966,384.424-232.423,385.882z M-211.857,385.72c0.324,0.648,1.296,2.024,2.187,2.996
	c1.781,1.943,1.457,5.83-0.81,10.202c-0.648,1.296-0.972,2.51-0.81,2.672c0.648,0.648,2.915-4.858,3.482-8.34
	c0.405-2.915,0.243-3.562-2.105-5.991C-211.29,385.72-212.18,385.072-211.857,385.72z M-182.302,389.04
	c-2.51,2.672-3.482,7.773-2.024,11.093c1.295,3.158,2.753,4.534,6.72,6.235c5.102,2.267,14.575,1.133,17.49-2.024
	c0.81-0.891,1.053-1.62,0.648-1.62c-0.486,0-1.052,0.486-1.295,1.134c-1.134,2.996-11.984,3.805-17.328,1.376
	c-6.316-2.915-8.017-11.012-3.32-16.032c0.971-1.053,1.538-1.863,1.214-1.863c-0.243,0-1.214,0.73-2.105,1.7V389.04z
	 M-236.067,390.82c-1.62,2.51-0.567,9.393,2.024,12.308c4.292,4.94,11.174,6.964,17.571,5.263c4.615-1.214,3.968-1.7-0.89-0.648
	c-9.96,2.349-20-5.91-18.057-14.817c0.81-3.644,1.7-2.754,1.376,1.295c-0.728,8.421,8.26,13.927,17.652,10.931
	c1.215-0.405-0.162-0.486-3.4-0.243c-4.616,0.405-5.75,0.243-8.26-1.376c-3.806-2.348-5.668-5.83-5.101-9.798
	C-232.666,389.768-234.286,388.067-236.067,390.82z M-225.379,391.468c-1.133,1.134-1.538,2.43-1.376,4.21
	c0.243,2.43,0.486,2.592,3.481,2.754l3.24,0.08l-2.835-0.485c-2.267-0.486-2.915-0.972-3.077-2.591
	c-0.243-2.834,0.81-4.13,3.968-4.859c2.591-0.566,2.591-0.647,0.567-0.728C-222.707,389.768-224.407,390.496-225.379,391.468z
	 M-175.014,390.901c-0.567,0.648-0.891,2.43-0.648,3.887l0.324,2.672l0.08-2.996c0.082-1.62,0.648-3.077,1.215-3.32
	c0.486-0.162,0.729-0.567,0.486-0.89C-173.8,389.93-174.529,390.254-175.014,390.901z M-218.172,391.549
	c0.566,0.567,0.971,1.7,0.971,2.591c0,0.81,0.243,1.377,0.486,1.053c0.81-0.81-0.405-4.616-1.457-4.616
	C-218.902,390.577-218.902,390.82-218.172,391.549z M-187.889,392.521c-0.729,1.62-1.62,2.105-4.372,2.348l-3.482,0.324l3.886,0.08
	c3.644,0.163,3.806,0.244,3.806,2.51c0,1.215,1.134,4.616,2.43,7.45c1.376,2.834,2.267,4.373,2.024,3.32
	c-0.648-2.186-0.324-2.186,3.643-0.162c1.782,0.89,3.806,1.62,4.616,1.62c0.81-0.081,0.162-0.567-1.458-1.134
	c-4.13-1.458-8.502-5.02-9.635-7.773c-0.567-1.377-0.81-4.21-0.648-6.478c0.243-2.267,0.324-4.049,0.243-4.049
	C-186.917,390.577-187.403,391.468-187.889,392.521z M-223.516,392.359c-1.377,1.376-1.215,3.643,0.323,4.21
	c2.106,0.81,2.349,0.567,0.648-0.729c-1.457-1.133-1.457-1.295-0.08-2.348c0.728-0.566,1.376-1.295,1.376-1.62
	C-221.249,391.063-222.464,391.306-223.516,392.359z M-169.023,392.197c0.243,0.405,0.648,0.81,0.891,0.81
	c0.162,0,0.324-0.405,0.324-0.81c0-0.486-0.405-0.81-0.89-0.81C-169.103,391.387-169.265,391.711-169.023,392.197z M-220.116,394.14
	c0,1.053,0.324,1.781,0.73,1.539c0.809-0.486,0.728-2.51-0.163-2.996C-219.954,392.44-220.197,393.087-220.116,394.14z
	 M-173.476,393.735c0,1.296,0.972,3.32,1.62,3.32c0.323,0,0.404-0.89,0.161-2.024C-172.018,393.168-173.476,392.116-173.476,393.735
	z M-239.063,394.625c0,0.406,0.405,0.81,0.81,0.81c0.486,0,0.81-0.404,0.81-0.81c0-0.485-0.324-0.809-0.81-0.809
	c-0.447,0.001-0.809,0.363-0.81,0.81V394.625z M-201.816,395.598c0,0.323,0.81,0.647,1.7,0.647c1.7,0,1.7,0.162,1.296,13.523
	c-0.405,11.902-0.324,12.388,0.243,4.291c0.405-5.101,0.81-11.579,0.971-14.332l0.324-5.02l-2.267,0.08
	c-1.214,0.082-2.267,0.406-2.267,0.81L-201.816,395.598z M-240.844,397.623c-2.51,2.834-4.616,8.016-5.587,13.603
	c-0.73,4.858-0.73,6.559,0.404,10.931c1.944,7.612,4.292,11.741,10.446,18.3c7.53,8.097,17.085,14.25,29.312,19.028
	c4.453,1.7,5.587,1.863,4.939,0.81c-0.243-0.405-1.458-0.972-2.672-1.296c-4.292-1.052-16.923-7.61-21.863-11.255
	c-7.287-5.506-13.684-12.954-17.085-19.919c-2.59-5.425-2.915-6.72-2.834-12.145c0.081-6.56,1.539-11.498,4.778-16.438
	C-238.901,396.003-238.82,395.356-240.844,397.623L-240.844,397.623z M-173.881,398.676c0.243,0.404,0.648,0.81,0.89,0.81
	c0.163,0,0.325-0.406,0.325-0.81c0-0.486-0.405-0.81-0.89-0.81C-173.962,397.866-174.124,398.19-173.881,398.676z M-158.496,405.963
	c-0.81,0.89-1.134,1.62-0.648,1.62c0.405,0,1.458-0.73,2.267-1.62c0.81-0.89,1.134-1.62,0.648-1.62
	C-156.634,404.343-157.686,405.073-158.496,405.963z M-163.759,408.878c-1.539,0.567-4.454,1.134-6.478,1.215
	c-2.024,0.08-2.996,0.242-2.105,0.485c1.943,0.486,9.473-0.405,11.012-1.376c1.943-1.215,0.567-1.377-2.43-0.324H-163.759z
	 M-213.476,409.607c-0.729,2.105-0.567,2.59,0.405,0.971c0.486-0.81,0.729-1.7,0.486-1.862c-0.162-0.243-0.567,0.162-0.891,0.89
	V409.607z M-216.31,416.975c0,0.89,0.243,1.134,0.486,0.486c0.243-0.567,0.162-1.296-0.081-1.539
	C-216.148,415.599-216.391,416.084-216.31,416.975z M-182.22,422.157c0,3.32-0.082,6.397-0.082,6.72
	c-0.08,0.406-1.133-0.08-2.429-0.97c-3.239-2.349-7.773-2.187-11.093,0.323c-1.458,1.134-2.834,2.024-3.077,2.024
	c-0.243,0-0.567-1.538-0.729-3.481c-0.243-3.24-0.324-3.158-0.405,0.89l-0.162,4.292l-1.781-1.7c-0.972-0.891-2.43-1.62-3.239-1.62
	c-0.81,0-1.457-0.405-1.457-0.81c0-1.214-5.75-0.971-8.421,0.405c-2.996,1.539-3.158,1.539-2.672-0.405
	c0.242-0.89,0.08-1.62-0.324-1.62c-0.405,0-0.73,1.944-0.73,4.292c0,4.697,2.106,11.174,4.86,15.304
	c2.266,3.239,13.036,13.765,13.602,13.198c0.243-0.162-2.186-2.834-5.425-5.749c-4.939-4.534-8.178-8.664-8.178-10.364
	c0-0.243,2.834-0.567,6.316-0.729l6.235-0.243l-6.802-0.162c-5.992-0.162-6.64-0.323-5.668-1.457
	c0.567-0.648,2.105-1.781,3.401-2.43c1.296-0.728,2.105-1.457,1.862-1.7c-0.243-0.243-1.862,0.486-3.562,1.7
	c-1.7,1.134-3.32,2.106-3.563,2.106c-1.053,0-2.186-7.611-1.377-9.069c2.187-4.13,15.304-2.105,15.304,2.348
	c0,0.648-0.89,1.053-2.348,1.053c-1.377,0-2.672,0.405-2.915,0.81c-0.324,0.567,0.162,0.728,1.376,0.405
	c1.614-0.259,3.234-0.475,4.859-0.648c3.077-0.324,5.344-1.377,2.834-1.377c-1.863,0-1.7-0.728,0.566-2.834
	c4.373-4.048,9.393-4.453,12.713-1.133c1.377,1.376,1.62,2.348,1.296,4.939c-0.486,3.563-2.106,5.91-2.754,4.049
	c-0.647-1.782-9.959-5.911-9.959-4.373c0,0.405,1.134,0.972,2.51,1.296c3.482,0.647,6.964,3.32,7.53,5.83
	c0.73,2.915,1.62,1.781,3.24-4.535c1.538-6.073,1.943-11.822,1.214-17.004c-0.405-3.077-0.486-2.672-0.567,2.43L-182.22,422.157z
	 M-217.525,420.943c-0.242,0.728-0.485,2.105-0.404,3.077c0.08,1.133,0.323,0.728,0.728-1.053
	C-216.471,419.971-216.634,418.757-217.525,420.943z M-151.614,426.287c-0.971,1.862-1.619,3.482-1.457,3.644
	c0.243,0.162,1.134-1.377,2.105-3.32C-148.78,422.076-149.346,421.752-151.614,426.287z M-155.176,432.279
	c-0.73,2.105-0.567,2.59,0.405,0.971c0.485-0.81,0.728-1.7,0.485-1.862c-0.162-0.243-0.566,0.162-0.89,0.89V432.279z
	 M-161.736,440.133c-5.343,5.182-25.262,16.761-29.068,16.842c-1.133,0.081-9.23,3.968-8.259,3.968
	c2.024,0.162,23.563-8.907,24.777-10.446c0.243-0.243,2.106-1.457,4.21-2.672c4.13-2.348,11.823-9.069,11.175-9.716
	c-0.243-0.162-1.458,0.728-2.834,2.024H-161.736z M-197.525,441.348c2.106,0.162,5.426,0.162,7.288,0
	c1.862-0.162,0.162-0.243-3.887-0.243c-3.967,0-5.506,0.08-3.4,0.243H-197.525z M-190.48,450.093
	c-0.567,0.728-0.648,1.214-0.162,1.214c0.405,0,0.972-0.567,1.296-1.214c0.243-0.648,0.323-1.215,0.162-1.215
	C-189.346,448.878-189.914,449.445-190.48,450.093z M-194.529,455.437c0,0.404,0.405,0.566,0.81,0.324
	c0.486-0.243,0.81-0.648,0.81-0.891c0-0.162-0.324-0.324-0.81-0.324c-0.405,0-0.81,0.405-0.81,0.89V455.437z M-198.09,457.38
	c-0.891,0.648-1.215,1.215-0.73,1.215c1.54,0,3.483-0.972,3.483-1.7C-195.337,455.841-196.309,456.003-198.09,457.38z"/>
</svg>
