<?xml version="1.0" encoding="iso-8859-1"?>
<!-- Generator: Adobe Illustrator 19.0.0, SVG Export Plug-In . SVG Version: 6.00 Build 0)  -->
<svg version="1.2" baseProfile="tiny" id="Layer_1" xmlns="http://www.w3.org/2000/svg" xmlns:xlink="http://www.w3.org/1999/xlink"
	 x="0px" y="0px" viewBox="-247 360.89 100 120" xml:space="preserve">
<title>face_00127</title>
<path d="M-203.25,363.088c-2.772,4.968-4.274,10.457-4.39,16.06c0,2.889-0.23,5.2-0.404,5.084c-0.231-0.115-1.387-2.195-2.6-4.622
	c-2.542-4.968-6.181-9.474-7.683-9.474c-1.849,0-7.857,4.39-11.265,8.204c-3.813,4.332-8.204,10.571-10.052,14.326
	c-0.602,1.153-1.199,2.309-1.791,3.467c-2.658,4.737-4.622,11.9-5.488,19.526c-0.29,2.888,0.924,12.305,2.31,17.62
	c1.157,4.621,4.045,11.611,5.951,14.558c0.81,1.27,1.907,3.062,2.37,3.986c1.155,2.195,7.51,9.648,11.727,13.75
	c3.235,3.119,3.524,3.292,6.47,3.292c4.564,0,11.438,3.929,13.345,7.684c0.866,1.79,2.946,3.87,3.755,3.928
	c0.231,0,2.253-1.79,4.506-3.986c5.026-4.91,12.478-8.723,16.811-8.723c1.271,0,2.83-1.271,7.395-5.893
	c3.177-3.293,6.412-6.76,7.163-7.683c0.693-0.982,1.675-2.08,2.08-2.542c5.315-5.546,10.86-14.674,13.403-22.184
	c1.848-5.546,2.253-7.741,2.541-13.98c0.463-10.688-1.906-20.682-6.354-26.806c-5.2-7.22-15.425-15.135-25.477-19.7
	c-2.83-1.27-5.546-2.599-6.066-2.888c-0.577-0.346-1.155-0.577-1.328-0.577c-0.867,0-6.066,13.749-6.066,16.117
	c0,0.578-0.405,1.387-0.867,1.791c-0.462,0.405-0.866,1.213-0.866,1.849c0,0.635-0.405,2.08-0.925,3.235
	c-0.547,1.287-1.086,2.577-1.617,3.87c-1.791,4.333-2.369,5.489-2.716,5.489c-0.173,0-0.404-2.658-0.462-5.95
	c-0.057-3.236-0.173-7.222-0.289-8.782c-0.115-1.617-0.404-6.816-0.577-11.554l-0.405-8.665l1.676,1.849
	c2.368,2.715,4.101,6.47,5.026,10.976l0.866,3.928l-0.289-3.64c-0.23-3.292-2.888-10.11-4.275-11.091
	c-0.23-0.173-0.982-1.156-1.733-2.195c-0.693-0.983-1.502-1.85-1.733-1.85c-0.23,0-0.982,0.983-1.675,2.196H-203.25z
	 M-201.112,379.958c0.982,19.699,1.098,19.121-2.195,13.113c-3.062-5.72-4.275-10.341-3.87-14.443
	c0.52-4.275,1.79-8.954,3.408-12.536l1.213-2.542l0.462,1.965c0.231,1.097,0.694,7.625,0.982,14.442V379.958z M-183.492,371.06
	c0.925,1.85,1.907,3.871,2.196,4.391c0.693,1.502,0.577,6.124-0.232,7.568c-0.346,0.693-2.253,3.35-4.275,5.95
	c-4.506,5.893-7.22,11.034-8.087,15.54l-0.694,3.467l-0.057-3.755c-0.058-3.698,1.155-13.98,2.195-19.065
	c1.617-7.972,5.43-18.14,6.643-17.735c0.347,0.116,1.387,1.733,2.311,3.64V371.06z M-177.83,370.483
	c11.67,5.892,22.76,15.597,25.996,22.761c6.008,13.403,5.026,31.427-2.484,44.888c-1.27,2.31-5.777,8.78-6.99,10.11
	c-0.404,0.404-1.906,2.021-3.293,3.581c-1.386,1.56-2.426,2.31-2.195,1.733c2.426-8.088,2.83-10.167,2.773-14.558
	c0-6.701-1.387-11.092-4.968-16.349l-3.062-4.333l2.542-1.386c3.524-1.849,5.719-4.564,6.932-8.377
	c0.751-2.426,1.271-3.177,2.138-3.177c0.982,0,0.866-0.231-0.694-1.849c-0.982-0.982-1.79-2.022-1.79-2.253
	c0-0.23-1.33-1.444-2.89-2.715c-2.541-2.022-3.465-2.369-6.758-2.773c-2.253-0.231-4.564-0.115-5.777,0.231
	c-3.697,1.156-6.47-0.809-6.528-4.564c0-1.56,0.577-2.83,2.195-4.91c2.08-2.773,2.138-2.946,2.138-7.8
	c0-2.888-0.29-5.314-0.636-5.776c-0.404-0.462-1.098-1.791-1.56-2.946l-0.924-2.138l1.386,0.52
	C-181.528,368.692-179.506,369.616-177.83,370.483L-177.83,370.483z M-220.291,374.238c-2.022,4.16-1.271,12.305,1.444,15.02
	c0.52,0.462,1.098,1.675,1.27,2.657c0.579,2.542-1.328,4.333-6.412,5.95c-2.31,0.752-4.217,1.56-4.217,1.792
	c0,0.173,1.098,0,2.484-0.462c3.409-1.214,8.377-1.56,11.15-0.81c2.542,0.694,7.163,4.276,7.163,5.604
	c0,0.636-0.462,0.81-1.848,0.578c-1.04-0.173-3.466-0.578-5.43-0.924c-7.106-1.213-13.98-0.636-18.371,1.56
	c-1.502,0.808-1.618,0.75-1.33-0.058c0.579-1.444,0.059-1.098-1.328,0.809c-1.213,1.733-1.213,1.733-0.115,3.292
	c0.635,0.925,1.79,2.773,2.6,4.218c1.617,2.946,5.545,6.239,7.971,6.759c1.791,0.346,2.138,0.982,0.867,1.733
	c-0.404,0.231-1.733,1.906-3.004,3.64c-1.213,1.733-2.369,3.292-2.6,3.466c-0.462,0.346-0.982,3.581-1.444,8.55
	c-0.578,6.123,1.387,13.864,5.893,22.877c3.177,6.354,2.253,5.892-4.795-2.369c-10.514-12.247-15.54-25.419-15.425-40.324
	c0.058-8.55,0.867-11.842,5.084-20.797c4.68-9.82,11.958-19.41,17.966-23.57C-219.482,371.234-218.905,371.407-220.291,374.238z
	 M-215.265,374.18c2.888,3.235,11.323,21.028,11.323,23.975c0,0.23-1.387-0.982-3.062-2.716c-2.6-2.715-9.301-6.816-11.15-6.816
	c-0.289,0-0.982-1.04-1.617-2.311c-1.387-2.889-1.098-10.399,0.462-12.883c0.578-0.866,1.27-1.56,1.502-1.56
	C-217.577,371.869-216.421,372.909-215.265,374.18z M-194.353,391.338c-1.906,11.67-1.733,17.389,0.751,30.618
	c0.347,1.675,0.463,3.466,0.29,3.928c-0.232,0.462-0.058,0.867,0.288,0.867c0.347,0,0.636,0.52,0.636,1.097
	c0,0.636,0.289,1.33,0.577,1.502c0.347,0.174,0.578,0.81,0.578,1.33c0,0.52,0.404,1.732,0.924,2.714
	c0.751,1.445,0.751,1.907,0.116,3.12c-1.098,2.022-5.604,5.257-7.337,5.257c-1.79,0-8.145-4.448-8.145-5.72
	c0-0.461,0.346-2.137,0.808-3.754c1.965-7.106,2.253-9.301,2.542-19.469c0.231-10.63,0.058-12.42-2.022-18.255
	c-0.577-1.675,0.694-0.173,2.311,2.715c0.751,1.387,1.733,2.658,2.08,2.773c0.346,0.116,1.733-2.137,3.062-5.026
	c1.386-2.888,2.541-5.257,2.657-5.257C-194.179,389.778-194.237,390.471-194.353,391.338z M-213.359,391.858
	c1.907,0.982,4.333,2.888,6.24,4.968c2.714,3.004,3.177,3.87,3.523,6.586c0.462,3.986-0.173,9.127-1.386,11.207
	c-1.04,1.618-6.875,9.474-8.608,11.554c-1.329,1.56-1.618,1.444-2.542-0.635c-0.404-1.04-1.329-2.6-2.137-3.467
	c-1.213-1.502-1.271-1.675-0.29-1.675c1.33,0,7.28-3.928,8.724-5.777c0.636-0.809,1.849-2.773,2.658-4.448
	c1.097-2.022,1.848-2.889,2.426-2.658c1.502,0.578,0.809-0.982-1.907-4.332c-3.177-3.871-4.621-4.91-8.723-5.893
	c-2.946-0.693-3.004-0.75-2.08-1.79c0.636-0.694,0.867-1.734,0.694-3.12c-0.116-1.098-0.116-2.022,0.057-2.022
	C-216.594,390.356-215.092,391.049-213.359,391.858z M-183.896,396.018c0.809,0.75,1.386,1.386,1.27,1.501
	c-0.115,0.116-0.808,0.462-1.501,0.867c-0.693,0.346-2.369,2.137-3.755,3.986l-2.542,3.293l1.213,3.466
	c1.618,4.795,3.524,8.203,5.2,9.3c1.964,1.272,4.91,1.85,6.816,1.33c0.925-0.231,1.56-0.29,1.444-0.058
	c-1.444,2.715-2.253,5.257-2.08,6.586c0.174,0.924,0.116,1.56-0.115,1.502c-0.578-0.231-7.914-6.76-10.225-9.128
	c-2.195-2.195-3.582-4.68-4.795-8.492c-0.636-2.022-0.636-3.12-0.058-5.777c0.751-3.466,3.409-9.186,5.488-11.785l1.214-1.502
	l0.462,1.79c0.23,0.983,1.097,2.37,1.964,3.12L-183.896,396.018z M-168.703,397.635c1.502,0.808,3.813,2.83,5.026,4.275
	c0.578,0.75-0.693,0.866-9.82,0.866c-7.684,0-11.035,0.231-12.421,0.809c-1.04,0.404-2.022,0.693-2.138,0.52
	c-0.52-0.52,4.218-4.91,6.413-5.95C-177.426,396.133-171.88,395.902-168.703,397.635z M-170.378,404.394
	c1.387,1.502,1.444,4.564,0.116,5.72c-1.907,1.732-8.32,2.772-10.803,1.848c-1.387-0.52-1.214-4.969,0.23-6.297
	C-177.715,402.834-172.458,402.199-170.378,404.394z M-163.792,404.336c0.346,0.347-0.231,1.213-1.733,2.426l-2.253,1.907
	l-0.751-2.08c-1.156-3.235-1.04-3.466,1.733-3.12C-165.467,403.643-164.139,404.047-163.792,404.336z M-214.63,405.318
	c1.444,0.809,1.733,1.329,1.733,3.235c0,3.178-2.426,4.506-8.55,4.564c-3.87,0.058-4.68-0.115-5.372-1.04
	c-1.849-2.6-0.116-7.51,2.83-7.972C-221.389,403.701-216.305,404.394-214.63,405.318L-214.63,405.318z M-181.296,404.798
	c-0.694,0.693-1.445,2.253-1.618,3.466c-0.231,1.271-0.636,2.311-0.982,2.311c-0.867,0-4.448-3.524-4.448-4.39
	c0-0.982,3.697-2.311,6.874-2.484l1.444-0.058C-180.026,403.643-181.296,404.798-181.296,404.798z M-227.397,405.434
	c-0.809,0.924-1.04,1.964-0.982,4.044c0.115,2.426,0,2.715-0.867,2.426c-2.195-0.809-6.47-3.755-6.181-4.275
	c0.52-0.751,6.528-3.235,8.319-3.35C-226.53,404.221-226.588,404.567-227.397,405.434z M-207.582,406.358
	c0.231,0.635-0.23,1.444-1.56,2.6c-2.426,1.964-3.004,2.022-2.542,0.23c0.174-0.75,0.058-1.963-0.346-2.599
	c-0.578-1.155-0.462-1.213,1.733-1.213C-208.622,405.376-207.813,405.665-207.582,406.358z M-163.272,407.802
	c-1.329,4.449-3.178,6.528-7.568,8.724c-8.088,4.101-12.652,3.004-16.118-3.756c-2.137-4.159-1.79-5.026,0.867-2.6
	c5.141,4.622,12.593,3.987,19.7-1.559C-163.33,406.185-162.695,406.069-163.272,407.802z M-208.506,410.98
	c-2.253,4.448-7.51,8.087-12.247,8.434c-3.755,0.347-6.76-0.751-9.36-3.408c-1.675-1.676-3.639-4.853-3.003-4.853
	c0.23,0,1.848,0.693,3.64,1.56c2.714,1.27,4.101,1.56,7.914,1.56c3.87,0,5.141-0.29,7.741-1.56c1.675-0.867,3.755-2.08,4.506-2.715
	C-207.293,408.438-207.235,408.495-208.506,410.98z M-191.696,415.024c0.983,2.021,2.774,4.506,4.103,5.719
	c1.892,1.648,3.76,3.323,5.603,5.026l3.178,2.888l-2.6-0.462c-2.31-0.347-6.008-1.27-9.59-2.31c-1.04-0.347-1.329-1.214-2.195-6.818
	c-0.578-3.581-1.098-7.394-1.271-8.492c-0.231-1.848-0.231-1.906,0.404-0.577c0.347,0.808,1.387,3.061,2.369,5.026L-191.696,415.024
	z M-202.96,415.89c-0.867,10.63-0.925,10.745-3.524,12.016c-2.542,1.213-7.626,2.889-8.84,2.889c-1.212,0-0.866-0.809,1.33-3.235
	c3.755-4.16,9.59-11.959,10.167-13.634C-202.902,411.384-202.671,412.019-202.96,415.89z M-169.685,423.285
	c3.409,4.968,3.467,5.777,0.405,5.834c-1.271,0.058-3.12,0.116-4.102,0.174c-3.755,0.115-4.91-4.275-2.022-7.973
	c0.867-1.155,1.849-2.08,2.253-2.08S-171.244,421.09-169.685,423.285z M-219.251,422.534c2.6,2.657,3.35,5.834,1.733,7.51
	c-0.694,0.693-1.907,0.809-5.488,0.635c-5.2-0.23-6.24-0.809-5.2-2.83c1.04-1.907,5.835-6.875,6.644-6.875
	C-221.158,420.974-220.118,421.667-219.251,422.534L-219.251,422.534z M-188.864,428.311c1.848,1.097,2.137,2.715,0.75,4.506
	c-0.75,0.982-0.924,1.04-1.386,0.289c-0.578-0.867-1.733-4.507-1.733-5.373C-191.233,427.097-190.713,427.213-188.864,428.311z
	 M-177.079,430.275c0.346,0.173,2.773,0.115,5.488-0.058c2.715-0.231,5.084-0.231,5.315,0c0.924,0.693,1.733,7.337,1.444,10.976
	c-0.751,8.03-3.408,14.79-7.799,19.642c-1.618,1.733-3.004,3.062-3.177,2.889c-0.116-0.174,0.057-1.618,0.52-3.178
	c0.404-1.617,0.75-5.95,0.808-9.82c0-9.07-1.617-14.443-5.546-18.487c-1.444-1.444-2.83-2.6-3.12-2.6
	c-0.346,0-0.577-0.23-0.577-0.462C-183.723,428.715-178.235,429.582-177.079,430.275z M-205.271,430.621
	c-0.173,0.925-0.578,2.369-0.924,3.236l-0.636,1.617l-1.386-1.617c-0.751-0.867-1.618-1.445-1.849-1.156
	c-0.52,0.52,2.253,3.524,6.817,7.395l3.293,2.773l-3.293,0.346c-5.257,0.636-9.821,1.849-12.074,3.178
	c-1.098,0.635-2.195,1.097-2.369,0.924c-0.52-0.578,2.369-8.723,4.102-11.323c1.56-2.484,6.76-6.932,8.088-6.932
	c0.289,0,0.404,0.693,0.23,1.56L-205.271,430.621z M-179.563,434.434c1.964,2.6,3.812,8.146,4.217,12.536
	c0.462,5.084-0.462,12.999-1.964,16.35l-1.214,2.83l-2.772-2.542c-3.409-3.004-7.164-4.968-12.248-6.297l-3.755-0.982l2.6-0.635
	c3.813-0.982,6.701-2.369,10.225-4.795c1.676-1.213,3.813-2.542,4.737-3.004c1.502-0.81,1.618-1.04,1.213-3.12
	c-0.173-1.213-0.808-3.062-1.328-4.16c-0.52-1.04-0.982-2.368-0.982-2.888c0-0.52-0.925-2.426-2.022-4.275
	c-1.098-1.848-2.022-3.466-2.022-3.64C-184.878,429.235-180.777,432.759-179.563,434.434z M-219.54,431.661
	c2.715,0,5.546-0.23,6.354-0.52c1.098-0.346,0.636,0.347-1.848,2.831c-1.849,1.791-3.35,3.524-3.35,3.755
	c0,0.289-0.347,0.867-0.81,1.271c-1.155,1.155-2.368,3.813-3.235,6.99c-0.75,2.715-0.52,12.999,0.347,16.754
	c1.444,6.297-5.373-7.222-7.221-14.27c-1.33-5.026-1.618-13.576-0.636-16.233c0.578-1.444,0.751-1.502,3.062-1.04
	C-225.548,431.43-222.255,431.661-219.54,431.661z M-181.123,439.402c1.733,4.738,1.848,6.009,0.462,5.604
	c-3.408-0.982-6.181-1.444-10.11-1.79l-4.506-0.405l2.773-2.542c1.56-1.329,3.64-4.044,4.68-6.008l1.906-3.524l1.675,2.369
	C-183.318,434.376-181.874,437.265-181.123,439.402z M-215.265,436.976c-1.502,3.293-3.698,9.763-3.698,11.15
	c0,0.52,0.578,1.502,1.33,2.137c1.79,1.676,8.896,5.2,11.495,5.662c2.427,0.462,2.427,1.444,0.058,1.444
	c-2.715,0-8.78,3.524-11.727,6.76l-2.715,3.06l-0.636-4.447c-0.866-5.777-0.866-14.674,0-17.736
	c0.751-2.542,3.178-6.586,5.546-9.185c0.809-0.867,1.502-1.56,1.56-1.56S-214.514,435.474-215.265,436.976z M-189.789,444.371
	c4.737,0.462,8.955,1.386,8.955,2.022c0,0.75-4.969,2.195-10.977,3.235c-8.838,1.502-24.84,0.577-24.84-1.502
	c0-1.618,14.442-4.737,19.93-4.275C-195.104,443.966-191.984,444.197-189.789,444.371z M-184.012,449.281
	c-0.635,0.982-4.332,3.12-8.087,4.68c-2.831,1.155-4.391,1.386-8.666,1.328c-5.315-0.058-8.897-1.097-13.287-3.87
	c-1.618-1.04-1.618-1.098-0.289-0.751c0.809,0.173,4.333,0.52,7.799,0.693c6.528,0.404,13.75-0.289,19.064-1.733
	C-183.723,448.588-183.608,448.588-184.012,449.281z M-205.56,459.738c-1.386,1.444-1.849,2.484-2.137,5.141
	c-0.231,1.906-0.231,4.16,0,5.142l0.346,1.675l-3.64-1.964c-2.021-1.04-4.274-1.964-5.083-1.964c-2.657-0.058-2.946-0.751-1.213-2.6
	c2.368-2.484,3.582-3.409,6.47-4.91c1.386-0.694,2.946-1.503,3.408-1.791c0.463-0.231,1.502-0.463,2.253-0.463
	C-203.826,457.947-203.826,457.947-205.56,459.738L-205.56,459.738z M-200.938,463.839c-0.116,3.293-0.405,7.741-0.636,9.994
	l-0.346,4.044l-2.138-2.888c-3.062-4.16-3.697-6.875-2.542-10.86c0.636-2.138,1.502-3.698,2.715-4.68
	C-200.881,456.907-200.649,457.253-200.938,463.839z M-194.872,459.218c2.715,3.004,3.235,6.643,1.56,10.63
	c-0.983,2.31-6.298,8.896-7.222,8.896c-0.289,0-0.404-1.502-0.231-3.293c0.173-1.849,0.404-6.066,0.578-9.417
	c0.173-3.35,0.462-6.528,0.635-7.105C-199.09,457.485-196.317,457.658-194.872,459.218z M-188.46,460.026
	c1.79,0.751,6.817,4.449,7.741,5.72c0.231,0.346-1.04,1.097-3.177,1.79c-1.964,0.694-4.622,1.791-5.893,2.427
	c-1.27,0.635-2.426,1.04-2.542,0.924c-0.115-0.115,0.116-1.27,0.52-2.484c0.81-2.542,0.52-5.546-0.808-8.146
	c-0.81-1.733-0.81-1.733,0.693-1.386C-191.06,459.102-189.5,459.622-188.46,460.026z M-177.253,405.434
	c-1.675,0.635-1.79,3.697-0.173,4.564c1.791,0.924,2.83,0.693,3.813-0.81C-171.938,406.705-174.249,404.336-177.253,405.434z
	 M-175.635,408.034c0,0.461-0.289,0.693-0.578,0.52c-0.346-0.232-0.462-0.636-0.289-0.925c0.52-0.809,0.867-0.636,0.867,0.404
	V408.034z M-222.255,406.531c-1.734,0.694-1.791,3.467-0.174,4.506c0.982,0.578,1.502,0.578,2.889-0.173
	c1.906-0.982,2.253-2.6,0.809-3.986C-219.714,405.838-220.407,405.78-222.255,406.531z M-220.06,409.015
	c-0.751,0.751-1.502,0.174-0.925-0.693c0.174-0.346,0.636-0.462,0.983-0.289C-219.656,408.264-219.656,408.611-220.06,409.015z
	 M-194.006,381.69c0,0.809,0.116,1.098,0.289,0.693c0.115-0.346,0.115-1.04,0-1.444C-193.89,380.593-194.006,380.881-194.006,381.69
	z"/>
</svg>
