<?xml version="1.0" encoding="iso-8859-1"?>
<!-- Generator: Adobe Illustrator 19.0.0, SVG Export Plug-In . SVG Version: 6.00 Build 0)  -->
<svg version="1.2" baseProfile="tiny" id="Layer_1" xmlns="http://www.w3.org/2000/svg" xmlns:xlink="http://www.w3.org/1999/xlink"
	 x="0px" y="0px" viewBox="-247 377.89 100 87" xml:space="preserve">
<title>face_00097</title>
<path d="M-183.688,378.387c-0.072,0.36-0.144,6.911-0.216,14.686l-0.144,14.183l3.6,0.432c4.247,0.504,5.111,1.152,4.463,3.528
	c-0.432,1.944,0.432,1.872-11.375,0.792c-2.664-0.216-5.04-0.72-5.328-1.08c-0.216-0.36-0.216-1.656,0.072-2.808
	c0.36-1.656,0.864-2.088,2.736-2.304c2.232-0.216,2.304-0.36,2.448-3.6c0.216-3.671,0.144-3.743-5.04-4.463
	c-2.303-0.36-2.807-0.216-3.311,1.224c-0.504,1.368-1.224,15.479-0.864,18.286c0.072,0.72,3.6,1.872,6.191,2.016
	c0.432,0,0.792,1.224,0.936,2.736c0.144,1.944-0.072,2.808-0.936,3.096c-1.512,0.648-17.062-1.152-18.142-2.088
	c-0.504-0.36-0.936-1.728-0.936-3.096c0-2.304,0.072-2.376,3.456-2.592l3.383-0.216l0.144-10.079l0.216-10.15l-2.016,0.143
	c-1.08,0.072-3.6,0.144-5.543,0.216l-3.672,0.072v3.888c-0.072,3.743,0,3.887,2.016,4.32c2.376,0.503,3.312,2.16,1.944,3.743
	c-0.72,0.864-1.8,1.008-5.616,0.576c-5.183-0.504-6.551-1.224-6.551-3.24c0-1.368,0.576-1.656,3.456-1.368
	c1.583,0.072,1.583,0,1.583-8.495c0-10.655-0.648-17.423-1.727-17.423c-2.376,0.072-17.711,12.096-17.711,13.895
	c0,0.432-0.648,1.44-1.368,2.232c-6.191,6.768-10.151,20.231-9.36,32.254c0.36,5.76,0.793,7.487,3.097,12.239
	c1.943,4.031,3.671,6.335,6.12,8.495c1.943,1.584,3.815,2.88,4.247,2.88c0.432,0,0.936,0.576,1.152,1.296
	c0.432,1.367,0.432,1.367,9.143,5.615c4.032,1.944,9,3.6,14.975,4.896c4.823,1.08,8.999,1.872,9.143,1.656
	c0.144-0.144,0.36-5.04,0.432-10.943l0.216-10.728l-10.44-1.656c-5.759-0.935-10.87-2.16-11.374-2.663
	c-0.72-0.648-0.792-1.584-0.288-3.384c0.576-2.304,0.792-2.448,3.455-2.232c1.512,0.072,9.144,0.36,16.847,0.504
	c12.24,0.36,14.759,0.216,19.438-0.936c2.952-0.792,5.616-1.224,5.976-1.08c0.936,0.576,0.504,3.6-0.72,5.184
	c-1.368,1.584-6.191,3.672-13.535,5.687l-4.32,1.224v20.879l2.52-0.216c1.368-0.072,2.952-0.648,3.6-1.224
	c0.648-0.576,1.44-0.864,1.656-0.648c0.648,0.648,11.447-4.824,12.599-6.336c0.504-0.72,1.368-1.296,1.872-1.296
	c1.008,0,7.847-4.895,8.207-5.903c0.144-0.288,0.648-0.576,1.152-0.576c1.152,0,8.351-7.92,8.351-9.215
	c0-0.504,0.504-1.656,1.08-2.592c2.16-3.312,4.608-11.735,5.04-17.71c0.504-5.616,0.36-6.552-1.44-11.16
	c-1.152-2.808-2.448-5.543-3.024-6.191c-0.504-0.576-0.936-1.656-0.936-2.232c0-0.648-0.216-1.296-0.504-1.44
	c-0.36-0.144-1.512-1.512-2.735-3.096c-4.464-6.047-8.496-9.647-13.607-12.167c-2.88-1.44-5.832-2.592-6.624-2.592
	c-0.72-0.072-2.16-0.504-3.168-1.08C-181.24,377.811-183.544,377.595-183.688,378.387z M-226.813,387.242
	c0,0.36-0.144,0.72-0.288,0.72c-0.216,0-0.576-0.36-0.792-0.72c-0.216-0.432-0.072-0.72,0.288-0.72
	C-227.173,386.522-226.813,386.81-226.813,387.242z M-175.193,403.512c-0.216,0.217-0.864,0.289-1.368,0.073
	c-0.576-0.216-0.36-0.432,0.432-0.432c0.792-0.072,1.224,0.144,0.936,0.36L-175.193,403.512z"/>
</svg>
