<?xml version="1.0" encoding="iso-8859-1"?>
<!-- Generator: Adobe Illustrator 19.0.0, SVG Export Plug-In . SVG Version: 6.00 Build 0)  -->
<svg version="1.2" baseProfile="tiny" id="Layer_1" xmlns="http://www.w3.org/2000/svg" xmlns:xlink="http://www.w3.org/1999/xlink"
	 x="0px" y="0px" viewBox="-247 369.89 100 103" xml:space="preserve">
<title>face_00088</title>
<path d="M-245.733,378.308c0,4.673,0.415,8.62,0.83,8.93c0.52,0.312,2.804-0.415,4.985-1.557c2.284-1.038,7.892-2.492,12.565-3.219
	c7.684-1.142,8.619-1.038,11.838,0.83c1.973,1.143,4.361,3.843,5.503,5.92c1.558,3.323,1.662,4.361,0.623,7.061
	c-3.634,8.723-20.041,9.242-29.699,0.83c-5.192-4.465-6.645-4.984-6.645-2.284c-0.104,1.039-0.312,5.192-0.623,9.346l-0.624,7.477
	l3.531,0.519c3.635,0.623,28.557,2.7,32.503,2.7c2.077,0,2.388,0.415,2.077,3.842c-0.208,2.18-0.416,8.723-0.416,14.538
	l-0.104,10.696h-11.318c-6.335,0-11.63,0.415-11.942,0.934c-0.831,1.35-0.935,25.026-0.104,25.857
	c0.934,1.038,41.017,1.869,55.452,1.246l11.838-0.52l-0.208-8.307c-0.104-4.569,0.208-10.488,0.727-13.084l0.934-4.777l-8.826-0.726
	c-4.88-0.312-9.865-0.935-11.111-1.247c-3.012-0.726-3.635-3.842-3.635-17.445V415.38h17.342c9.657,0,18.691-0.312,20.249-0.83
	c2.804-0.728,2.804-0.832,2.596-8.516l-0.208-7.788l-3.634,0.623c-1.973,0.415-4.361,1.038-5.192,1.454
	c-3.22,1.661-13.604,3.011-18.588,2.388c-7.165-0.83-11.007-4.257-11.007-9.865c0-3.427,0.623-4.673,3.427-7.165
	c1.869-1.661,4.672-3.115,6.23-3.115c8.596-0.517,17.154,1.505,24.61,5.815l4.674,2.804v-9.97c0-9.76-0.104-9.968-2.596-10.591
	c-1.454-0.312-3.843-0.312-5.4,0.104c-3.427,0.83-76.636,0.727-84.632-0.104l-6.022-0.727V378.308z M-193.085,373.635h43.82
	l-0.207,6.023c-0.207,5.815-1.142,7.27-3.323,5.192c-3.426-3.115-23.364-5.4-28.972-3.219c-3.633,1.35-6.853,6.959-6.853,11.839
	c0,10.384,14.745,14.746,32.19,9.554c3.116-0.935,5.712-1.662,5.92-1.662c0.208,0,0.311,2.492,0.311,5.608v5.607l-8.93,0.727
	c-4.984,0.415-13.811,0.415-19.626,0.104c-10.592-0.727-10.592-0.727-11.008,1.661c-0.623,3.843,0.52,28.66,1.35,29.492
	c0.52,0.415,5.504,1.246,11.32,1.765l10.487,1.142l-0.623,3.635c-0.311,2.076-0.623,7.165-0.623,11.215v7.58h-24.61
	c-13.604,0-27.934-0.311-31.776-0.727l-7.061-0.623l0.311-11.007l0.312-11.007l10.384-0.208c5.711-0.104,11.215-0.208,12.15-0.312
	c1.557,0,1.765-0.83,1.246-6.022c-0.312-3.22-0.104-10.592,0.415-16.304c0.52-5.711,0.83-10.488,0.83-10.488
	c-0.103-0.104-8.618-0.83-19.002-1.557c-21.288-1.455-19.834-0.624-19.107-10.593l0.311-5.089l1.973,2.181
	c7.996,8.515,26.895,9.346,33.126,1.454c6.126-7.788-2.492-20.042-14.019-20.042c-3.842,0-13.292,1.87-18.9,3.635
	c-2.284,0.727-2.388,0.52-2.388-5.192v-5.92l3.427,0.831C-238.464,373.324-217.177,373.635-193.085,373.635z M-214.373,452.66
	c-4.88,1.662-9.554,4.362-9.554,5.712c0,1.142,6.23,3.738,14.02,5.919c6.749,1.869,17.652,1.557,26.998-0.935
	c6.957-1.87,6.957-4.258,0.104-8.515c-4.777-2.908-5.92-3.115-16.096-3.323C-206.066,451.31-211.466,451.726-214.373,452.66z
	 M-184.674,456.19c2.388,1.247,4.361,2.805,4.361,3.324c0,2.804-18.9,5.088-27.103,3.115c-7.996-1.869-12.876-4.465-11.11-5.919
	C-213.75,452.764-191.943,452.453-184.674,456.19z M-226.004,389.836c-1.246,2.492-0.415,4.984,2.181,6.438
	c4.258,2.284,9.346-4.258,5.504-7.061C-221.019,387.24-224.757,387.551-226.004,389.836L-226.004,389.836z M-220.811,392.016
	c-0.001,0.574-0.465,1.038-1.039,1.039c-0.519,0-1.038-0.52-1.038-1.039c0-0.623,0.519-1.038,1.038-1.038
	C-221.227,390.978-220.811,391.393-220.811,392.016z M-177.613,389.213c-3.946,2.907,1.038,8.826,6.127,7.58
	c5.192-1.35,3.946-8.93-1.35-8.93C-174.498,387.863-176.575,388.486-177.613,389.213z M-172.006,392.016
	c0,0.52-0.726,1.039-1.557,1.039c-0.83,0-1.558-0.52-1.558-1.039c0-0.623,0.727-1.038,1.558-1.038
	C-172.733,390.978-172.006,391.393-172.006,392.016z"/>
</svg>
