<?xml version="1.0" encoding="iso-8859-1"?>
<!-- Generator: Adobe Illustrator 19.0.0, SVG Export Plug-In . SVG Version: 6.00 Build 0)  -->
<svg version="1.2" baseProfile="tiny" id="Layer_1" xmlns="http://www.w3.org/2000/svg" xmlns:xlink="http://www.w3.org/1999/xlink"
	 x="0px" y="0px" viewBox="-247 358.89 100 125" xml:space="preserve">
<title>face_00025</title>
<path d="M-205.934,360.878c-2.587,2.388-2.985,8.06-0.696,9.95c1.79,1.493,2.09,11.94,0.398,11.94c-0.597,0-3.782-0.696-7.165-1.591
	c-8.258-2.09-19.104-2.19-24.08,0c-4.477,1.89-8.258,5.77-9.153,9.253c-1.493,6.269,2.587,18.707,6.169,18.707
	c2.288,0,4.477-3.184,2.885-4.279c-3.88-2.587-4.577-11.642-1.094-14.826c3.383-3.084,6.169-4.278,10.05-4.278
	c3.482,0,3.582,0.1,3.582,3.98c0,2.189-0.398,3.98-0.896,3.98c-1.592,0-4.08,3.084-4.08,5.075c0,3.084,3.583,5.87,7.463,5.87
	c3.98,0,7.463-2.786,7.463-5.97c0-1.194-1.194-3.184-2.587-4.478c-1.791-1.691-2.488-3.184-2.19-5.174
	c0.3-2.686,0.498-2.786,5.473-2.686c2.886,0.1,6.369,0.497,7.762,0.796l2.487,0.597v47.76h-2.287c-4.379,0-6.568-5.273-2.687-6.467
	c2.289-0.696,2.687-3.681,0.697-5.273c-1.891-1.592-6.966,1.79-8.558,5.572c-1.094,2.587-0.995,3.582,0.498,6.666
	c0.895,1.99,2.288,3.881,3.084,4.18c0.697,0.298,1.294,0.995,1.294,1.492c0,0.597-0.697,0.796-1.493,0.398
	c-2.686-0.995-6.467,1.294-12.04,7.363c-3.084,3.284-6.766,6.567-8.258,7.264c-1.692,0.796-2.587,1.99-2.587,3.682
	c0,1.99-0.597,2.487-2.488,2.487c-2.09,0-2.487,0.498-2.487,2.985c0,2.488,0.497,2.985,3.482,3.682
	c4.08,0.796,17.314-0.597,25.97-2.786c3.384-0.896,6.27-1.294,6.568-1.095c0.199,0.299,0.1,2.587-0.2,5.075
	c-1.094,6.766-3.681,7.164-16.218,2.487c-5.373-1.99-6.368-2.09-7.165-0.895c-1.393,2.288-0.895,2.885,5.374,6.866
	c6.07,3.681,7.661,3.98,21.492,3.084c1.89-0.1,5.771,0.1,8.557,0.498c6.568,0.895,10.647-0.398,18.408-6.07
	c5.174-3.88,5.97-4.876,5.473-6.965c-0.597-2.09-0.299-2.388,3.383-2.985c2.19-0.398,4.776-1.194,5.672-1.99
	c1.592-1.095,1.592-1.393,0.298-2.786c-1.293-1.393-2.388-1.393-7.263-0.398c-4.876,0.995-7.065,0.995-14.428-0.498
	c-4.776-0.995-9.95-1.89-11.642-2.09c-1.592-0.198-3.085-0.796-3.184-1.293c-0.697-1.89,1.592-6.17,4.08-7.86
	c3.581-2.29,6.467-1.195,12.338,4.477c5.174,5.075,9.751,6.866,12.935,5.174c1.095-0.597,1.99-2.09,1.99-3.582
	c0-2.19-0.497-2.488-3.383-2.488c-2.488,0-4.577-1.194-8.955-4.975c-6.766-5.87-10.746-6.965-16.418-4.477
	c-3.781,1.79-5.672,1.592-4.478-0.299c0.299-0.497,1.89-1.194,3.483-1.492c4.676-0.995,8.955-5.473,9.652-10.349
	c0.597-3.582,0.298-4.477-1.99-6.766c-3.284-3.283-7.861-3.184-8.359,0.2c-0.298,1.69,0.299,2.387,2.289,2.885
	c3.482,0.895,3.084,4.477-0.697,5.77c-1.492,0.498-2.985,0.797-3.184,0.498c-0.199-0.199-0.597-10.746-0.696-23.283l-0.299-22.886
	l5.373-1.691c7.662-2.488,17.015-4.08,18.01-3.085c0.498,0.498,0.597,2.985,0.299,5.572c-0.498,3.284-1.294,5.075-2.985,6.17
	c-2.786,1.79-3.184,5.572-0.796,7.86c2.487,2.488,8.955,2.09,11.84-0.895c2.986-2.886,3.185-5.871,0.498-8.16
	c-1.194-1.094-1.99-2.985-1.99-4.776c0-4.875,0.896-5.373,6.17-3.88c6.765,2.09,8.855,5.77,7.66,14.129
	c-0.497,3.483-1.094,6.766-1.492,7.264c-0.298,0.497,0.697,1.393,2.09,2.09c3.084,1.392,3.781,0.696,5.97-6.568
	c1.791-5.87,0.697-12.14-3.085-17.114c-5.77-7.563-18.905-10.15-33.432-6.567c-14.528,3.582-13.732,3.482-13.831,0.995
	c-0.2-3.782,0.199-5.175,2.09-7.264c0.994-1.095,2.089-3.383,2.487-5.174C-192.402,360.679-200.96,356.3-205.934,360.878z
	 M-204.441,366.848c0.1,1.791-0.2,2.786-0.697,2.488c-1.194-0.697-1.393-5.473-0.199-5.473
	C-204.939,363.863-204.541,365.256-204.441,366.848z M-198.571,366.748c-0.995,1.593-3.582,1.294-3.582-0.298
	c0-1.691,2.09-2.686,3.383-1.592C-198.372,365.356-198.272,366.152-198.571,366.748L-198.571,366.748z M-200.561,372.221
	c0.299,1.294,0.498,3.184,0.398,4.18c-0.1,1.094-0.199,3.383-0.1,5.174c0.1,2.686,0.399,3.184,1.891,2.786
	c5.771-1.692,6.965-1.393,2.19,0.696c-2.986,1.294-5.573,2.289-5.672,2.19c-0.1,0-0.398-3.98-0.597-8.757
	C-202.949,370.33-201.954,366.948-200.561,372.221z M-160.262,381.475c8.557,3.781,12.637,12.736,9.85,21.294
	c-1.393,4.179-3.582,5.472-2.587,1.393c1.89-7.563,1.791-11.344-0.298-14.727c-2.289-3.681-9.751-7.661-14.428-7.661
	c-2.289,0-2.587,0.398-2.587,3.88c0,2.09-0.299,5.174-0.597,6.866c-0.498,2.587-0.299,3.084,1.691,3.383
	c3.085,0.398,3.384,2.288,0.996,4.677c-3.682,3.681-11.045,1.89-9.453-2.19c0.298-0.895,1.393-1.89,2.388-2.189
	c1.99-0.597,2.985-4.477,2.985-11.044v-4.378l-4.677-0.1c-3.78,0-4.378-0.199-2.786-0.995
	C-176.581,378.291-165.237,379.286-160.262,381.475z M-221.058,383.764c0,2.388-0.597,2.487-2.687,0.398
	c-2.985-2.886-15.721,0.995-18.209,5.472c-1.492,2.985-1.194,10.747,0.697,14.329c1.293,2.686,1.393,2.985,0.1,1.89
	c-0.896-0.696-2.09-3.184-2.787-5.671c-3.184-11.244,3.284-18.11,17.214-18.309c5.075-0.1,5.672,0.1,5.672,1.89V383.764z
	 M-200.262,419.883c0.1,18.507,0.199,18.806,6.368,16.219c4.08-1.692,5.771-5.572,3.781-8.756c-0.597-0.995-0.697-1.791-0.1-1.791
	c1.792,0,3.085,3.88,2.19,7.164c-0.896,3.681-4.578,6.667-9.254,7.662c-2.886,0.597-3.383,1.094-3.682,3.98
	c-0.597,5.671,0.299,6.368,4.378,3.582c1.99-1.393,4.18-2.488,4.776-2.587c2.289-0.2,6.17,0.298,7.463,1.094
	c0.796,0.398-0.497,0.597-2.985,0.299c-3.781-0.398-4.975-0.1-7.662,2.189c-3.582,2.985-5.174,8.557-3.184,10.945
	c0.697,0.796,2.687,1.493,4.577,1.493c1.791,0,6.269,0.696,10.05,1.592c6.667,1.592,15.722,1.492,19.702-0.1
	c1.691-0.796,1.79-0.696,0.696,0.697c-2.09,2.587-9.751,2.786-22.487,0.597c-13.632-2.289-13.93-2.19-12.936,5.671
	c0.796,6.17,0.697,6.07,4.975,7.463c4.776,1.592,9.254,0.597,15.324-3.582c5.572-3.88,8.159-3.781,3.482,0.1
	c-7.363,6.069-18.01,8.756-23.383,5.97c-2.487-1.294-3.283-1.294-6.567,0.099c-4.876,2.09-11.244,1.194-17.015-2.189
	c-5.373-3.085-4.875-4.279,0.697-1.99c4.477,1.791,15.423,2.189,16.418,0.597c0.298-0.597,0.796-3.483,1.094-6.468
	c0.299-4.179,0.1-5.671-0.995-6.07c-0.696-0.298-6.269,0.399-12.14,1.493c-11.641,2.19-21.79,2.687-22.785,1.095
	c-0.398-0.597,2.09-0.995,6.865-0.995c11.94,0,28.657-4.18,29.254-7.264c0.2-0.995-0.398-3.085-1.194-4.876
	c-1.99-3.88-1.99-3.98,0.1-3.582c1.492,0.299,1.691-0.398,1.393-3.681c-0.1-2.19-0.398-4.08-0.597-4.279
	c-0.299-0.398-3.184-0.995-5.075-1.094c-2.09-0.2-6.368-5.374-6.368-7.762c0-2.985,1.691-6.268,3.184-6.268
	c0.597,0,0.398,0.796-0.498,1.79c-4.378,4.777,0.299,9.851,8.558,9.254c1.592-0.099,1.691-2.09,1.89-24.776
	c0.1-16.915,0.299-22.288,0.796-17.114C-200.76,399.784-200.362,410.729-200.262,419.883L-200.262,419.883z M-220.063,395.405
	c4.08,1.095,2.985,5.871-1.493,6.27c-3.482,0.397-4.378,0-5.472-1.991c-0.896-1.692-0.697-2.189,1.492-3.184
	c1.692-0.697,2.488-1.99,2.587-3.682c0.2-2.487,0.2-2.487,0.597-0.199C-222.053,393.913-221.058,395.107-220.063,395.405z
	 M-206.133,443.465c0.796,0.498,1.194,1.194,0.896,1.493c-0.796,0.796-3.881-0.498-3.881-1.592c0-1.095,1.095-1.095,2.985,0.1
	V443.465z M-210.013,446.152c3.78,2.288,3.78,3.78-0.1,1.79c-5.373-2.785-7.761-1.492-14.03,7.662
	c-1.492,2.09-8.657,5.374-9.652,4.379c-0.1-0.2,1.194-1.294,3.085-2.488c1.89-1.194,4.975-4.08,6.766-6.567
	c5.075-6.567,8.756-7.86,13.93-4.776H-210.013z M-172.203,455.107c3.682,0.696,4.777,2.288,1.692,2.288
	c-2.587,0-7.065-2.686-9.254-5.572c-2.587-3.482-1.492-3.88,1.592-0.597c1.692,1.791,4.378,3.582,5.97,3.88V455.107z
	 M-208.72,451.525c3.682,2.885,3.284,6.865-0.896,8.159c-6.965,1.99-15.223,3.582-18.905,3.582l-3.98-0.1l4.478-1.89
	c3.184-1.393,5.373-3.383,7.76-6.866c2.588-4.08,3.782-4.975,6.07-4.975C-212.7,449.435-210.213,450.43-208.72,451.525z
	 M-178.471,467.246c4.278,0.1,3.98,1.493-0.796,4.677c-4.378,2.885-10.15,4.278-13.93,3.383c-1.99-0.498-2.588-1.393-2.986-4.577
	c-0.298-2.289-0.398-4.577-0.298-5.075c0.199-0.597,2.985-0.497,7.562,0.299C-184.939,466.649-180.262,467.246-178.471,467.246z"/>
</svg>
