<?xml version="1.0" encoding="iso-8859-1"?>
<!-- Generator: Adobe Illustrator 19.0.0, SVG Export Plug-In . SVG Version: 6.00 Build 0)  -->
<svg version="1.2" baseProfile="tiny" id="Layer_1" xmlns="http://www.w3.org/2000/svg" xmlns:xlink="http://www.w3.org/1999/xlink"
	 x="0px" y="0px" viewBox="-247 372.89 100 97" xml:space="preserve">
<title>face_00007</title>
<path d="M-188.21,379.977c-5.14,22.89-8.73,38.215-9.311,38.894c-0.291,0.388-4.656-8.923-9.7-20.66
	c-4.946-11.832-9.31-21.629-9.602-21.823c-0.388-0.194-2.812,0.776-5.625,2.037c-6.499,3.104-15.713,12.9-19.69,21.048
	c-4.559,9.214-4.268,9.602,7.08,11.25l9.603,1.262l2.619-2.522c4.752-4.559,10.766-2.328,10.766,3.88
	c-0.097,4.17-2.037,6.207-6.11,6.207c-3.395,0-4.268-0.485-7.663-4.752c-1.552-1.843-2.716-2.037-10.96-2.037h-9.215l-0.679,2.619
	c-1.163,4.752,1.261,19.3,4.365,25.897c5.82,12.318,18.332,22.6,32.202,26.285c7.08,1.94,20.66,1.843,27.255-0.097
	c12.803-3.783,25.024-13.773,30.262-24.83c2.716-5.82,6.401-21.63,5.237-22.794c-0.388-0.388-5.82-1.26-12.027-1.94l-11.347-1.163
	l-2.134,2.327c-4.364,4.656-11.057,2.037-11.057-4.267c0-7.469,8.244-10.573,13.482-5.044c2.328,2.425,3.977,3.007,12.61,4.462
	c5.43,0.97,10.183,1.358,10.571,1.067c1.067-1.164-2.618-13.288-5.82-18.817c-4.46-7.857-12.123-15.034-20.368-19.01
	c-3.881-1.845-8.439-3.686-10.184-3.978l-3.008-0.581L-188.21,379.977z M-196.842,433.517c0.388,0.776,4.268,3.201,8.535,5.529
	c4.268,2.23,7.954,4.268,8.245,4.462c0.97,0.873-2.328,1.94-11.057,3.588l-9.02,1.843l-7.47-4.267
	c-4.073-2.231-7.37-4.462-7.37-4.85c0-0.485,14.84-7.275,16.682-7.566C-197.909,432.159-197.23,432.741-196.842,433.517z"/>
</svg>
