<?xml version="1.0" encoding="iso-8859-1"?>
<!-- Generator: Adobe Illustrator 19.0.0, SVG Export Plug-In . SVG Version: 6.00 Build 0)  -->
<svg version="1.2" baseProfile="tiny" id="Layer_1" xmlns="http://www.w3.org/2000/svg" xmlns:xlink="http://www.w3.org/1999/xlink"
	 x="0px" y="0px" viewBox="-247 372.89 100 97" xml:space="preserve">
<title>face_00028</title>
<path d="M-192.217,373.21c-5.433,1.319-17.203,5.763-21.893,8.232c-18.52,9.711-32.84,30.369-32.84,47.242
	c0,16.626,12.346,33.498,28.395,39.012c5.68,1.976,17.202,2.634,23.622,1.4c2.88-0.577,8.148-2.223,11.769-3.786
	c3.621-1.482,8.066-3.21,9.877-3.787c12.51-3.868,19.423-9.876,21.07-18.436c0.329-1.81,1.646-6.09,2.963-9.465
	c2.057-5.514,2.304-7.16,2.222-15.638c0-8.065-0.33-10.452-2.305-15.967c-2.963-8.642-5.596-12.921-11.687-19.012
	c-7.16-7.243-12.593-9.712-22.14-9.959c-4.033-0.164-8.148-0.082-9.053,0.165L-192.217,373.21z M-181.353,380.618
	c5.432,1.81,9.053,4.692,9.712,7.82c0.905,3.95-0.247,4.279-7.408,2.468c-7.901-2.057-19.917-2.304-23.374-0.494
	c-3.869,1.976-4.362,4.939-1.564,8.642c2.634,3.622,1.317,4.527-5.185,3.293c-2.88-0.494-6.831-1.153-8.724-1.4
	c-2.058-0.247-3.622-0.905-3.951-1.646c-0.576-1.646,1.728-5.267,3.786-5.761c0.823-0.247,1.4-0.658,1.152-0.988
	c-0.329-0.576,5.68-4.856,10.288-7.407c4.115-2.222,15.309-5.844,18.272-5.844C-186.621,379.301-183.493,379.877-181.353,380.618z
	 M-163.987,386.708c4.362,4.28,9.63,14.815,10.947,21.976c0.987,5.35,0.576,17.284-0.824,21.646
	c-1.893,5.926-4.032,6.996-2.469,1.152c0.823-2.798,0.576-15.72-0.329-25.514c-0.33-3.292-7.325-14.815-12.263-20.494
	c-2.14-2.387-3.95-4.609-3.95-4.938C-172.875,379.466-167.691,383.087-163.987,386.708L-163.987,386.708z M-165.88,392.964
	c0.74,1.152,1.152,2.304,0.988,2.551c-0.906,0.823-3.869-1.564-3.869-3.045C-168.761,390.165-167.608,390.412-165.88,392.964z
	 M-180.777,393.046c3.21,0.74,6.173,1.564,6.502,1.893c0.411,0.33-0.33,1.4-1.646,2.305c-3.95,2.798-9.547,4.197-15.391,3.95
	c-4.527-0.247-5.761-0.576-6.75-2.057c-0.658-0.906-1.974-1.729-2.88-1.729c-1.81,0-2.14-2.633-0.494-3.95
	C-198.884,391.318-188.926,391.153-180.777,393.046z M-167.937,397.326c0,0.74-1.976,1.728-3.457,1.728
	c-0.494,0-0.494-0.493,0.164-1.234C-170.078,396.503-167.938,396.174-167.937,397.326L-167.937,397.326z M-194.769,404.486
	c1.893,1.811,1.646,2.799-0.658,2.799c-1.4,0-2.305,0.74-3.128,2.469c-1.152,2.634-2.716,3.457-1.975,0.988
	c0.247-0.741,0.658-2.552,0.987-3.869c0.33-1.399,0.741-2.716,0.906-3.127C-198.061,402.758-196.086,403.087-194.769,404.486z
	 M-160.53,405.721c0,1.4-3.54,3.95-5.35,3.95c-1.4,0-1.235-0.329,1.07-2.386C-162.012,404.733-160.53,404.157-160.53,405.721z
	 M-239.213,414.281c-4.857,15.389-0.988,31.029,10.617,42.633c3.045,3.128,5.103,5.35,4.527,5.021
	c-6.996-4.198-12.346-9.959-16.132-17.53c-2.716-5.515-3.045-6.915-3.292-13.747c-0.247-5.679,0.082-8.806,1.07-12.016
	c1.481-4.362,4.28-10.535,4.856-10.535c0.164,0-0.576,2.798-1.646,6.173V414.281z M-186.538,409.671
	c0.576,0.824-1.811,3.046-2.47,2.305c-0.74-0.658,0.247-3.045,1.235-3.045C-187.361,408.931-186.785,409.261-186.538,409.671z
	 M-213.698,411.811c-0.577,2.223,0.74,4.527,2.55,4.527c0.659,0,2.223-0.987,3.622-2.14l2.551-2.14v1.976
	c-0.082,0.987-0.493,4.115-1.07,6.831l-1.07,4.938l-5.679,0.494c-3.21,0.33-8.148,1.152-11.11,1.975
	c-8.313,2.223-7.82,2.47-7.737-4.526c0-3.375,0.494-7.737,0.987-9.63l1.07-3.457l4.692-0.329c12.18-0.74,11.77-0.823,11.193,1.482
	L-213.698,411.811z M-158.638,413.211c0.742,5.267,0.66,14.732-0.246,17.448l-0.905,2.716l-5.515-1.975
	c-4.609-1.728-6.996-2.058-14.732-2.058h-9.3v-7.407c0-5.926,0.246-7.325,1.151-6.996c0.577,0.247,3.046-0.494,5.433-1.646
	l4.362-2.058l6.502,1.4c6.337,1.316,6.502,1.316,9.136-0.33c3.456-2.222,3.621-2.222,4.115,0.906H-158.638z M-195.18,416.75
	c-1.235,6.913-1.564,7.819-2.799,7.819c-1.317,0-1.646-2.47-0.576-3.786c0.412-0.412,1.4-2.552,2.14-4.692
	c0.823-2.222,1.646-3.868,1.728-3.703C-194.522,412.552-194.769,414.528-195.18,416.75z M-208.514,429.754
	c0.247,0.33,0.165,1.564-0.082,2.634c-0.412,1.481-1.975,2.798-5.597,4.527c-2.798,1.399-6.749,3.868-8.724,5.514
	c-1.975,1.564-3.704,2.798-3.786,2.634c-0.74-0.823-3.21-6.255-3.786-8.23c-0.494-1.647-0.33-2.552,0.658-3.375
	C-226.045,430.33-209.913,427.532-208.514,429.754z M-199.214,431.154c0,0.41-0.329,0.822-0.822,0.822
	c-0.412,0-0.823-0.411-0.823-0.823c0-0.494,0.411-0.823,0.823-0.823c0.493,0,0.823,0.33,0.823,0.823L-199.214,431.154z
	 M-165.634,433.787c2.388,0.905,4.61,2.14,4.775,2.716c0.411,1.07-4.363,9.3-6.667,11.687c-1.728,1.729-2.552,1.317-4.774-2.469
	c-2.387-4.033-8.148-9.63-12.18-11.77l-2.8-1.563l3.293-0.494c4.938-0.823,13.416,0.082,18.354,1.893L-165.634,433.787z
	 M-198.39,434.775c0,0.247-0.33,0.658-0.823,0.905c-0.412,0.247-0.823,0.082-0.823-0.33c0-0.493,0.411-0.905,0.823-0.905
	C-198.72,434.445-198.39,434.61-198.39,434.775z M-184.234,437.244c4.774,3.045,8.395,6.584,7.984,7.654
	c-0.165,0.412-1.811,0.412-3.786,0.082c-2.634-0.576-3.457-1.152-3.704-2.551c-0.165-1.235-0.988-1.893-2.716-2.222
	c-2.058-0.33-2.47-0.823-2.716-3.128c-0.165-1.399-0.082-2.634,0.164-2.634C-188.761,434.445-186.621,435.68-184.234,437.244z
	 M-211.724,442.84c0.247,1.976-0.082,2.223-3.292,2.799c-1.975,0.411-3.95,0.74-4.527,0.74c-1.975,0.083-2.963,1.811-1.975,3.54
	c1.4,2.716,7.325,3.786,17.613,3.21c12.593-0.741,19.342-2.058,20.576-3.951c1.153-1.893,3.704-1.975,7.572-0.412
	c2.881,1.235,3.622,3.046,2.223,5.186c-1.07,1.728-9.877,4.362-17.367,5.185c-15.72,1.81-21.481,0.576-28.56-6.008
	c-4.28-3.951-4.608-4.527-3.703-6.173c1.4-2.634,7.49-6.832,9.547-6.585c1.07,0.165,1.729,0.988,1.893,2.47V442.84z
	 M-205.798,443.499c0,0.411-0.329,0.823-0.823,0.823c-0.411,0-0.823-0.412-0.823-0.823c0-0.494,0.412-0.823,0.823-0.823
	C-206.127,442.676-205.798,443.006-205.798,443.499z M-157.156,449.013c-0.823,1.646-4.691,5.185-5.596,5.185
	c-0.33,0,0.905-1.481,2.633-3.292C-156.579,447.285-156.003,446.873-157.156,449.013z M-198.226,449.425
	c-1.893,0.658-3.21,0.658-4.526,0c-1.564-0.74-1.07-0.906,2.716-0.823C-195.674,448.602-195.592,448.684-198.226,449.425z"/>
</svg>
