<?xml version="1.0" encoding="iso-8859-1"?>
<!-- Generator: Adobe Illustrator 19.0.0, SVG Export Plug-In . SVG Version: 6.00 Build 0)  -->
<svg version="1.2" baseProfile="tiny" id="Layer_1" xmlns="http://www.w3.org/2000/svg" xmlns:xlink="http://www.w3.org/1999/xlink"
	 x="0px" y="0px" viewBox="-247 358.89 100 124" xml:space="preserve">
<title>face_00064</title>
<path d="M-199.678,359.51c-1.736,0.173,7.865,0.289,21.341,0.173c13.477-0.115,24.697-0.347,24.87-0.52
	C-153.062,358.7-195.746,359.047-199.678,359.51z M-228.423,359.857c0.52,0.115,1.33,0.115,1.735,0
	c0.347-0.174-0.058-0.29-1.041-0.29C-228.655,359.567-229.002,359.683-228.423,359.857z M-209.048,359.857
	c0.405,0.173,0.925,0.115,1.099-0.058c0.231-0.174-0.116-0.347-0.752-0.29C-209.337,359.509-209.511,359.683-209.048,359.857z
	 M-204.421,359.857c0.405,0.173,0.925,0.115,1.099-0.058c0.231-0.174-0.116-0.347-0.752-0.29
	C-204.71,359.509-204.884,359.683-204.421,359.857z M-196.787,365.236c-5.841,0.231-1.503,0.347,12.724,0.404
	c11.915,0.058,21.458,0,21.11-0.115c-1.04-0.405-24.638-0.579-33.834-0.29V365.236z M-207.89,365.64c0.347,0.116,1.04,0.116,1.446,0
	c0.347-0.173,0.057-0.289-0.752-0.289C-208.006,365.351-208.296,365.467-207.89,365.64L-207.89,365.64z M-225.126,366.392
	c-0.578,0.405,1.62,0.463,6.652,0.232c4.164-0.232,7.634-0.463,7.75-0.579C-210.146,365.525-224.374,365.872-225.126,366.392z
	 M-159.596,366.219c1.503,0.116,3.932,0.116,5.494,0c1.504-0.116,0.231-0.174-2.776-0.174
	C-159.886,366.045-161.158,366.103-159.596,366.219L-159.596,366.219z M-231.026,366.797c0.695,0.116,1.852,0.116,2.604,0
	c0.694-0.115,0.115-0.231-1.33-0.231c-1.447,0-2.025,0.116-1.273,0.231H-231.026z M-197.364,370.499
	c-2.718,0.173,7.23,0.289,22.094,0.289c14.922-0.058,27.067-0.29,27.067-0.52c0-0.521-41.642-0.348-49.161,0.23V370.499z
	 M-215.872,371.598c-2.429,0.405-2.371,0.405,1.157,0.405c2.082,0,5.61-0.174,7.808-0.405l4.048-0.405h-5.205
	C-210.898,371.193-214.426,371.366-215.872,371.598z M-228.307,372.754l-2.313,0.405l2.602,0.058c1.446,0,3.933-0.173,5.495-0.463
	l2.892-0.404h-3.181C-224.547,372.35-227.034,372.523-228.307,372.754z M-235.652,373.738c0.694,0.115,1.735,0.115,2.313,0
	c0.521-0.174-0.057-0.29-1.33-0.232C-235.941,373.506-236.404,373.622-235.652,373.738z M-193.315,376.803
	c-5.9,0.29-5.38,0.347,5.09,0.463c6.766,0.058,11.682-0.116,11.682-0.405C-176.543,376.282-182.731,376.282-193.315,376.803z
	 M-176.022,377.093c0,0.288-1.677,1.676-3.702,2.949l-3.701,2.429l-10.99,0.405c-9.542,0.347-10.988,0.29-11.451-0.52
	c-0.231-0.463-1.909-1.504-3.644-2.256l-3.18-1.446l4.048-0.347c6.998-0.694,6.593-0.81-1.735-0.579
	c-4.454,0.058-9.833,0.463-11.973,0.752c-5.147,0.81-5.32,0.868-5.668,1.33c-0.173,0.232-1.966,1.446-3.932,2.719
	c-4.165,2.718-4.743,4.569-1.273,4.222c3.239-0.29,19.896-1.215,24.292-1.33c2.313-0.058,3.99-0.405,4.337-0.868
	c0.694-0.925,20.359-1.33,21.863-0.463c0.462,0.29,3.701,0.347,7.172,0.174c3.412-0.174,9.716-0.231,13.938-0.174
	c4.454,0.058,7.808-0.115,7.982-0.462c0.462-0.752-1.735-3.008-4.28-4.28c-1.157-0.579-2.603-1.504-3.24-1.967
	c-0.809-0.636-2.66-0.867-7.923-0.867C-173.304,376.514-175.964,376.745-176.022,377.093L-176.022,377.093z M-159.307,377.208
	c0.405,0.173,0.925,0.116,1.099-0.058c0.23-0.173-0.116-0.347-0.752-0.29C-159.597,376.86-159.77,377.034-159.307,377.208z
	 M-233.917,380.1c0.405,0.173,0.925,0.115,1.099-0.058c0.231-0.174-0.116-0.347-0.752-0.29
	C-234.206,379.752-234.38,379.926-233.917,380.1z M-193.373,389.758c-0.116,0.116-5.321,0.348-11.51,0.579
	c-15.153,0.463-23.713,0.983-23.713,1.504c0,0.231,0.925,0.347,2.024,0.173c1.735-0.231,2.256,0,3.528,1.504
	c0.81,0.983,1.851,1.793,2.314,1.793s0.81,0.231,0.81,0.578c0,0.347-2.025,0.579-4.743,0.636c-2.66,0-5.957,0.232-7.403,0.463
	l-2.603,0.463l2.198,0.115c1.446,0.058,2.14,0.347,2.14,0.926c0,1.793,5.552,5.494,8.328,5.494c0.81,0,1.62,0.29,1.793,0.637
	c0.29,0.404,3.933,0.52,11.683,0.289c6.189-0.174,11.741-0.347,12.378-0.347c0.578,0,1.098-0.232,1.098-0.52
	c0-0.753-2.891-1.331-3.643-0.753c-0.405,0.29-4.165,0.694-8.444,0.81l-7.75,0.29l2.313-1.215c3.76-1.967,7.114-4.627,7.114-5.61
	c0-1.215,3.354-1.62,15.21-1.678l9.14-0.058l1.445,1.793c1.909,2.256,5.9,5.032,7.75,5.38c0.81,0.115-2.313,0.288-6.998,0.346
	c-5.842,0.058-8.618-0.173-9.08-0.636c-0.521-0.52-0.868-0.52-1.389,0c-0.404,0.405-1.619,0.752-2.718,0.752
	c-1.908,0.115-1.908,0.115,0.52,0.463c1.447,0.173,9.37,0.23,17.64,0.057c8.619-0.173,12.552-0.405,9.255-0.52
	c-5.205-0.232-5.437-0.29-2.603-0.579c5.148-0.636,11.625-4.51,10.816-6.593c-0.29-0.81-1.273-0.983-6.015-1.041
	c-4.685-0.058-5.321-0.174-3.702-0.636c2.603-0.752,5.263-2.776,5.263-4.049c0-0.983-0.867-1.04-15.442-0.925
	c-10.41,0.115-12.493,0.173-6.362,0.289c8.328,0.174,9.08,0.29,9.08,1.272c0,1.273,1.446,2.603,3.76,3.413
	c1.272,0.462-2.892,0.636-16.484,0.752c-10.006,0.057-18.855,0.173-19.665,0.289c-3.817,0.347-9.89,0.347-10.237,0.058
	c-0.173-0.232,0.116-0.405,0.637-0.405c1.098,0,3.18-2.14,3.238-3.239c0-0.81,5.842-1.388,14.055-1.388
	c3.701,0,6.188-0.231,6.188-0.578C-192.159,389.527-192.911,389.296-193.373,389.758L-193.373,389.758z M-233.63,392.245
	c0.868,0.116,2.256,0.116,3.181,0c0.868-0.115,0.116-0.23-1.62-0.23c-1.734,0-2.486,0.115-1.56,0.23H-233.63z M-240.57,392.824
	c0.867,0.116,2.14,0.116,2.892,0c0.694-0.116,0-0.232-1.62-0.232C-240.859,392.592-241.496,392.708-240.57,392.824z
	 M-242.768,398.203c-0.173,0.289,0.058,0.578,0.578,0.578s0.752-0.29,0.579-0.578c-0.174-0.347-0.463-0.579-0.579-0.579
	C-242.305,397.624-242.594,397.856-242.768,398.203z M-238.835,398.029c0.52,0.116,1.446,0.116,2.024,0
	c0.52-0.173,0.058-0.289-1.04-0.289c-1.1,0-1.562,0.116-0.984,0.29V398.029z M-151.791,404.391c1.042,0.116,2.603,0.116,3.47,0
	c0.868-0.115,0-0.231-1.908-0.231C-152.138,404.16-152.832,404.276-151.791,404.391z M-225.243,405.548
	c0.694,0.116,1.85,0.116,2.602,0c0.694-0.116,0.116-0.231-1.33-0.231S-225.995,405.432-225.243,405.548z M-232.473,406.126
	c0.52,0.116,1.446,0.116,2.024,0c0.52-0.173,0.058-0.289-1.04-0.289c-1.1,0-1.562,0.116-0.984,0.29V406.126z M-199.217,409.944
	c-0.578,0.578-3.76,0.925-11.451,1.156c-5.842,0.232-10.816,0.579-11.105,0.868c-0.232,0.231,2.487,0.231,6.073,0
	c9.138-0.579,41.122-0.694,56.217-0.174c6.998,0.232,12.609,0.29,12.435,0.116c-0.173-0.173-5.263-0.463-11.278-0.694
	c-24.928-0.752-27.704-0.925-28.456-1.562c-0.578-0.462-1.099-0.462-2.082,0.058c-1.909,0.983-7.403,1.157-7.75,0.232
	C-197.019,408.96-198.234,408.96-199.217,409.944z M-231.43,411.042c-0.058,1.215-0.405,1.62-1.62,1.793
	c-0.925,0.116,0.984,0.116,4.165-0.057c6.709-0.29,8.04-0.694,2.371-0.694c-3.47,0-3.933-0.116-4.395-1.33
	C-231.372,409.539-231.429,409.539-231.43,411.042L-231.43,411.042z M-243.635,413.876c0,0.29,0.29,0.405,0.579,0.232
	c0.347-0.174,0.578-0.463,0.578-0.636c0-0.116-0.231-0.232-0.578-0.232C-243.346,413.24-243.635,413.53-243.635,413.876z
	 M-241.148,413.646c0.521,0.115,1.446,0.115,2.025,0c0.52-0.174,0.058-0.29-1.041-0.29
	C-241.264,413.356-241.726,413.472-241.148,413.646z M-200.835,417c-1.157,1.214-1.851,1.446-4.8,1.446
	c-3.066,0-13.419,0.636-24.524,1.503c-2.313,0.174-4.222,0.52-4.222,0.752c0,0.174,4.107,0.058,9.139-0.405
	c5.725-0.462,20.416-0.81,39.676-0.867c16.772-0.058,29.554-0.29,28.34-0.463c-1.273-0.231-7.461-0.405-13.823-0.463
	c-10.642-0.115-11.625-0.23-12.609-1.272c-1.33-1.446-3.412-1.388-4.742,0.058c-0.81,0.867-1.793,1.157-4.049,1.157
	c-2.66,0-3.065-0.174-3.644-1.446c-0.462-0.926-1.156-1.446-2.024-1.446C-198.869,415.554-200.083,416.19-200.835,417z
	 M-240.743,420.817c-7.75,0.694-8.386,1.099-1.156,0.694c3.354-0.174,6.304-0.52,6.65-0.81c0.29-0.289,0.406-0.462,0.29-0.462
	C-235.133,420.296-237.735,420.586-240.743,420.817z M-204.016,422.783c-1.273,0.463-2.834,1.504-3.47,2.256l-1.157,1.504
	l-13.303,0.347c-7.345,0.173-14.748,0.578-16.483,0.81c-1.735,0.23,2.14,0.289,8.675,0.057c16.021-0.462,44.303-0.405,59.862,0.174
	c6.998,0.231,12.608,0.347,12.434,0.173c-0.347-0.289-10.757-0.925-15.616-0.983c-3.007,0-3.238-0.116-4.106-1.909
	c-1.157-2.37-3.701-3.18-6.94-2.197c-1.504,0.462-2.545,1.214-2.95,2.14c-0.636,1.272-0.925,1.388-5.205,1.388
	c-3.702,0-4.512-0.174-4.512-0.868c0-1.272-2.602-3.76-3.875-3.76C-201.24,421.974-202.744,422.321-204.016,422.783z
	 M-244.04,428.104c0.52,0.116,1.33,0.116,1.735,0c0.347-0.173-0.058-0.289-1.041-0.289c-0.926,0-1.273,0.116-0.694,0.29V428.104z
	 M-152.947,428.683c0.405,0.173,0.925,0.115,1.099-0.058c0.231-0.174-0.116-0.347-0.752-0.29
	C-153.236,428.335-153.41,428.509-152.947,428.683z M-215.064,434.466c0.231,0.232,3.933,0.347,8.328,0.29
	c6.362-0.058,7.635,0.057,6.478,0.578c-5.784,2.603-7.981,3.875-8.328,4.8c-0.232,0.694-1.851,0.868-8.56,0.868
	c-4.8,0-8.618,0.29-9.138,0.636c-0.695,0.463-0.637,0.52,0.404,0.232c2.14-0.579,46.328-0.405,56.276,0.23
	c10.526,0.695,13.65,0.753,13.244,0.348c-0.173-0.116-5.205-0.52-11.22-0.868c-9.485-0.578-11.105-0.81-11.972-1.735
	c-0.52-0.578-2.719-1.908-4.8-2.95c-2.14-1.04-3.529-2.024-3.182-2.255s-5.783-0.405-13.65-0.463
	c-7.807-0.058-14.111,0.116-13.88,0.29V434.466z M-232.357,435.218c-2.198,0.232,0.52,0.29,6.073,0.174
	c5.552-0.174,10.237-0.405,10.352-0.52C-215.527,434.524-227.788,434.813-232.357,435.218z M-182.849,434.871
	c0.116,0.116,5.148,0.405,11.163,0.636c5.957,0.174,11.22,0.521,11.625,0.637c0.405,0.173,0.925,0.058,1.099-0.232
	c0.173-0.289-2.834-0.694-7.056-0.867c-8.098-0.463-17.236-0.52-16.83-0.174H-182.849z M-244.619,436.201
	c0.868,0.116,2.256,0.116,3.181,0c0.868-0.115,0.116-0.23-1.62-0.23c-1.734,0-2.486,0.115-1.56,0.23H-244.619z M-232.762,441.985
	c0.983,0.116,2.718,0.116,3.76,0c0.982-0.115,0.173-0.231-1.91-0.231C-232.994,441.754-233.803,441.87-232.762,441.985z
	 M-241.727,442.564c0.868,0.115,2.256,0.115,3.181,0c0.868-0.116,0.116-0.232-1.62-0.232c-1.734,0-2.486,0.116-1.56,0.232H-241.727z
	 M-153.237,443.142c0.521,0.116,1.33,0.116,1.736,0c0.347-0.174-0.058-0.29-1.041-0.29c-0.926,0-1.273,0.116-0.694,0.29H-153.237z
	 M-150.055,443.142c0.404,0.173,0.925,0.116,1.098-0.058c0.232-0.173-0.115-0.347-0.751-0.29
	C-150.345,442.794-150.518,442.968-150.055,443.142z M-214.427,448c-3.47,0.29-11.452,0.868-17.64,1.33l-11.278,0.868l9.138-0.29
	c5.032-0.115,9.832-0.404,10.7-0.52c3.586-0.578,14.517-0.81,14.806-0.347c0.173,0.232,1.909,1.1,3.817,1.793
	c3.644,1.33,4.107,2.43,0.983,2.256c-3.007-0.174-22.672,0.752-22.96,1.04c-0.174,0.174,5.031,0.117,11.567-0.115
	c14.285-0.52,36.784-0.52,49.45,0.058c5.09,0.174,9.138,0.231,8.907,0.058c-0.174-0.231-4.974-0.52-10.7-0.694
	c-5.668-0.174-12.261-0.463-14.633-0.636l-4.28-0.347l4.165-2.025c2.255-1.099,3.99-2.197,3.817-2.544
	C-178.973,447.248-205.347,447.306-214.427,448z M-174.346,448.347c0.405,0.174,0.925,0.116,1.099-0.058
	c0.231-0.173-0.116-0.347-0.752-0.289C-174.635,448-174.809,448.174-174.346,448.347z M-169.719,448.347
	c1.62,0.116,4.396,0.116,6.073,0c1.62-0.115,0.29-0.173-3.065-0.173S-171.396,448.232-169.719,448.347z M-234.207,454.71
	c0.867,0.116,2.14,0.116,2.892,0c0.694-0.115,0-0.231-1.62-0.231C-234.496,454.479-235.133,454.595-234.207,454.71z
	 M-197.076,456.445c-1.04,0.29-2.718,1.851-3.644,3.413c-0.289,0.462-5.725,0.752-16.54,1.04c-8.908,0.174-16.31,0.521-16.484,0.753
	c-0.174,0.173,5.61,0.173,12.897-0.058c7.288-0.174,17.756-0.347,23.308-0.347c8.618,0,10.064-0.116,10.411-0.926
	c0.636-1.735-2.198-3.759-5.668-3.99C-194.531,456.214-196.44,456.272-197.076,456.445z M-186.318,460.957
	c0.405,0.405,15.558,0.462,15.963,0.058c0.231-0.174-3.355-0.347-7.924-0.347s-8.155,0.115-8.04,0.289H-186.318z M-166.828,461.651
	c0.695,0.115,1.736,0.115,2.314,0c0.52-0.174-0.057-0.29-1.33-0.232c-1.272,0-1.735,0.116-0.983,0.232H-166.828z M-195.688,464.08
	c-0.752,0.636-1.214,1.272-0.983,1.504c0.174,0.231,2.95,0.173,6.073-0.174c5.032-0.463,5.263-0.52,2.14-0.636
	c-2.371-0.058-3.817-0.347-4.28-0.925c-0.925-1.1-1.33-1.1-2.95,0.23V464.08z M-199.389,465.294
	c-0.174,0.29,0.058,0.579,0.578,0.579s0.752-0.29,0.578-0.579c-0.173-0.347-0.462-0.578-0.578-0.578
	S-199.216,464.947-199.389,465.294z M-183.599,465.121c0.346,0.116,1.04,0.116,1.445,0c0.347-0.174,0.058-0.29-0.752-0.29
	s-1.099,0.116-0.694,0.29H-183.599z M-212.865,465.699c2.14,0.116,5.783,0.116,8.097,0c2.313-0.058,0.578-0.173-3.875-0.173
	C-213.097,465.526-215.005,465.584-212.865,465.699z M-176.659,465.699c1.33,0.116,3.412,0.116,4.627,0
	c1.156-0.115,0.057-0.231-2.487-0.231C-177.064,465.468-178.047,465.584-176.659,465.699z M-168.851,465.699
	c0.52,0.116,1.33,0.116,1.735,0c0.347-0.173-0.058-0.289-1.041-0.289c-0.926,0-1.273,0.116-0.694,0.29V465.699z M-224.664,466.278
	c1.33,0.115,3.412,0.115,4.627,0c1.157-0.116,0.058-0.232-2.487-0.232S-226.052,466.162-224.664,466.278z M-211.246,471.078
	c-4.338,0.232-0.52,0.405,10.99,0.463c9.716,0.058,21.052,0.231,25.158,0.347l7.519,0.29l-6.651-0.521
	C-182.79,470.962-202.686,470.673-211.246,471.078z M-222.351,471.483c0.405,0.174,0.926,0.116,1.1-0.058
	c0.23-0.173-0.116-0.347-0.753-0.289C-222.64,471.136-222.814,471.31-222.351,471.483z M-219.459,471.483
	c0.405,0.174,0.926,0.116,1.1-0.058c0.23-0.173-0.116-0.347-0.753-0.289C-219.748,471.136-219.922,471.31-219.459,471.483z
	 M-200.835,476.283c-6.189,0.174-10.758,0.405-10.122,0.579c0.637,0.173,8.734,0.173,17.93,0c9.254-0.174,14.459-0.405,11.567-0.52
	c-2.834-0.059-5.841-0.174-6.651-0.232C-188.921,476.052-194.647,476.11-200.835,476.283z M-215.988,477.267
	c0.694,0.115,1.735,0.115,2.313,0c0.52-0.174-0.058-0.29-1.33-0.232C-216.278,477.035-216.74,477.151-215.988,477.267z
	 M-207.776,481.547c-2.313,0.231-1.446,0.347,3.181,0.347c6.189,0.057,7.056-0.174,2.314-0.52
	C-203.554,481.257-206.041,481.374-207.776,481.547z"/>
</svg>
