<?xml version="1.0" encoding="iso-8859-1"?>
<!-- Generator: Adobe Illustrator 19.0.0, SVG Export Plug-In . SVG Version: 6.00 Build 0)  -->
<svg version="1.2" baseProfile="tiny" id="Layer_1" xmlns="http://www.w3.org/2000/svg" xmlns:xlink="http://www.w3.org/1999/xlink"
	 x="0px" y="0px" viewBox="-247 355.89 100 131" xml:space="preserve">
<title>face_00042</title>
<path d="M-203.086,357.715c-3.342,2.941-4.546,3.209-6.016,0.802c-0.802-1.337-3.476-1.737-10.028-1.203
	c-4.947,0.267-8.69,1.07-8.289,1.738s2.14,0.802,4.01,0.401c1.873-0.535,3.21-0.267,3.21,0.668c0,0.803,2.673,1.605,6.417,1.605
	c5.615,0.133,5.882,0.267,2.272,1.203c-2.139,0.535-7.353,1.07-11.363,1.07c-6.551-0.134-6.819-0.134-2.674-1.07l4.679-0.936
	l-4.947-0.267c-2.807,0-4.946-0.535-4.679-1.204c0.134-0.534-0.4-0.935-1.07-0.935c-0.801,0-1.202,0.4-1.069,0.935
	c0.268,0.669-0.802,1.07-2.272,1.07c-2.273,0-2.407,0.535-1.337,3.342c1.203,3.209,1.07,3.342-4.68,3.342
	c-4.946,0-6.015,0.402-6.015,2.54c0,1.338,2.139,3.878,4.679,5.616s4.679,3.61,4.679,4.144c0,0.668,1.203,1.07,2.674,1.07
	c1.47,0,2.673,0.534,2.673,1.336c0,1.738,9.893,4.278,10.428,2.674c0.268-0.802,1.604-1.337,3.075-1.337
	c1.47,0,4.144-0.936,5.882-2.139c3.075-2.005,3.744-2.005,7.62-0.133c2.407,1.07,6.017,1.738,8.156,1.336
	c2.005-0.4,4.545,0,5.615,0.936s3.476,1.337,5.214,0.802c2.005-0.534,3.476-0.133,3.877,0.936c0.267,0.936,3.075,1.738,6.417,1.872
	c15.909,0.802,19.117,1.738,22.326,6.55c1.604,2.407,2.941,5.08,2.941,5.883c0,1.47,1.738,1.738,2.941,0.535
	c0.535-0.401,0.401-2.407-0.267-4.546c-0.668-2.272-0.535-4.278,0.401-5.214c0.936-0.935,0.669-3.074-0.936-7.352
	c-3.476-9.091-6.684-12.567-10.829-11.765c-1.871,0.267-3.342,0-3.075-0.535c0.669-2.005-5.614-9.225-6.684-7.754
	c-1.604,2.54-8.289,3.476-9.09,1.337c-0.402-1.07-1.739-1.604-3.21-1.203c-1.336,0.4-2.807,0-3.208-0.802
	c-0.535-0.803-3.342-1.471-6.283-1.471c-2.808,0-5.214-0.535-5.214-1.203c0-0.669-1.07-1.604-2.273-1.872
	c-1.872-0.535-1.604-0.668,0.668-0.802c1.605,0,2.942,0.401,2.942,1.203c0,0.669,1.203,1.337,2.807,1.337
	c2.273,0,2.406-0.267,0.936-1.738C-194.13,355.31-199.878,355.041-203.086,357.715z M-200.947,361.325
	c0.4,0.668-0.134,1.203-1.203,1.203c-1.07,0-1.605-0.535-1.204-1.203c0.401-0.535,0.936-1.07,1.204-1.07
	C-201.883,360.255-201.348,360.79-200.947,361.325z M-196.803,364.935c-3.075,1.069-11.363,1.336-11.363,0.4
	c0-0.534,2.807-1.07,6.417-0.936c3.476,0,5.748,0.268,4.946,0.535V364.935z M-158.969,374.56c-1.336,0.267-3.476,0.267-4.679,0
	c-1.337-0.401-0.267-0.669,2.273-0.669C-158.835,373.891-157.765,374.159-158.969,374.56z M-222.872,400.63
	c0,1.47-2.14,2.272-8.155,2.807c-4.412,0.401-8.423,1.07-8.824,1.337c-0.668,0.802,4.68,11.096,7.22,13.904
	c0.801,0.935,2.406,1.336,3.475,0.935c1.203-0.4,3.342-0.133,4.813,0.803c2.005,0.935,4.278,1.07,7.487,0.133
	c3.208-0.802,4.679-0.802,5.214,0.268c0.4,1.07,1.07,0.935,2.005-0.401c1.337-1.738,1.738-1.738,2.807,0.267
	c0.803,1.203,2.273,3.208,3.476,4.412c1.605,1.47,1.605,2.005,0.268,2.139c-0.936,0-0.535,0.534,0.936,1.203
	c2.54,0.936,2.406,1.07-0.803,2.005c-2.94,0.669-3.475,1.605-3.342,5.749c0.268,6.016,4.145,12.3,7.62,12.3
	c1.471,0,2.54,0.534,2.54,1.203c0,0.802,1.605,1.07,3.744,0.935c2.005-0.267,6.016-0.668,8.957-0.802
	c2.941-0.133,4.546-0.534,3.743-0.936c-0.935-0.267-1.737-1.47-1.737-2.54c0-3.476-9.225-16.577-11.631-16.577
	c-1.872,0-2.006-0.268-0.669-1.203c1.47-0.936,1.47-1.204,0-1.738c-0.936-0.401-2.807-3.744-4.144-7.353
	c-3.209-8.824-10.562-16.444-16.043-16.444c-2.273,0-5.214-0.936-6.55-2.273c-2.006-1.872-2.407-1.872-2.407-0.134V400.63z
	 M-175.012,402.902c-0.935,0.268-2.406,1.337-3.475,2.273c-0.936,0.936-2.54,1.47-3.476,1.07c-2.941-1.07-3.744,1.737-2.006,6.684
	c1.738,4.679,4.145,6.15,10.696,6.15c1.871,0,4.01,0.668,4.946,1.604c1.203,1.203,2.14,1.07,4.01-0.669
	c2.407-2.139,8.29-1.738,8.29,0.535c0,0.669,0.668,1.203,1.336,1.203c0.803,0,1.337-0.935,1.337-2.005s-0.534-2.005-1.203-2.005
	c-0.535,0-0.936-2.407-0.802-5.348c0.134-2.941-0.267-5.347-1.07-5.347c-0.668,0-2.005-1.07-2.94-2.273
	C-160.974,402.634-170.599,401.432-175.012,402.902L-175.012,402.902z M-212.846,459.186c0.535,0.802-0.668,1.336-2.673,1.336
	c-3.209,0-3.343,0.134-1.471,2.14c1.203,1.069,2.14,2.807,2.005,3.61c0,1.202-0.267,1.069-0.802-0.135
	c-0.267-0.802-1.47-1.604-2.54-1.604c-1.07,0-1.872-0.936-1.872-2.139c0-1.738-0.935-2.005-4.278-1.337
	c-2.272,0.401-4.545,1.07-4.812,1.47c-0.402,0.402,0.802,3.343,2.54,6.685c2.94,5.482,3.61,6.016,8.288,6.016
	c3.209,0,4.813,0.535,4.279,1.471c-0.535,0.802,0.267,1.203,2.272,1.07c1.605-0.134,4.546-0.134,6.417,0
	c2.674,0.133,2.942,0.4,1.337,1.47c-1.47,0.936-0.936,1.337,2.407,1.337c3.208,0,4.144-0.535,3.476-1.738
	c-0.803-1.337-0.535-1.337,0.935,0c0.936,0.936,3.61,1.872,5.883,1.872c2.139,0.133,2.941,0.4,1.738,0.802
	c-3.342,0.802-2.941,4.412,0.4,4.412c1.471,0,2.407-0.535,2.006-1.204c-0.4-0.668,1.738-1.47,4.813-1.871
	c2.941-0.401,5.882-1.337,6.283-2.006c0.401-0.802,3.075-1.337,5.75-1.337c6.283,0,7.753-0.935,7.753-5.213
	c0-3.476-5.749-9.76-8.957-9.76c-0.936,0-1.738-0.668-1.738-1.47c0-1.204-2.941-1.337-10.027-0.803
	c-7.888,0.535-10.027,0.402-10.027-1.07c0-1.336-1.738-1.603-7.219-1.069c-4.545,0.535-7.486,0.268-8.021-0.802
	c-0.535-0.802-1.872-1.47-2.941-1.47C-212.712,457.849-213.247,458.383-212.846,459.186z M-206.428,472.154
	c-0.936,0.267-2.54,0.267-3.343,0c-0.936-0.402-0.267-0.669,1.605-0.669C-206.295,471.485-205.626,471.752-206.428,472.154z
	 M-203.488,475.228c-0.4,0.669-1.737,1.337-2.807,1.337c-1.07,0-1.871-0.668-1.871-1.337c0-0.802,1.203-1.337,2.807-1.337
	c1.47,0,2.273,0.535,1.872,1.337H-203.488z"/>
</svg>
