<?xml version="1.0" encoding="iso-8859-1"?>
<!-- Generator: Adobe Illustrator 19.0.0, SVG Export Plug-In . SVG Version: 6.00 Build 0)  -->
<svg version="1.2" baseProfile="tiny" id="Layer_1" xmlns="http://www.w3.org/2000/svg" xmlns:xlink="http://www.w3.org/1999/xlink"
	 x="0px" y="0px" viewBox="-247 378.89 100 85" xml:space="preserve">
<title>face_00062</title>
<path d="M-164.274,379.475c-0.164,0.327,0.872,1.854,2.344,3.38c4.908,5.126,6.707,8.016,9.488,15.104
	c1.581,4.035,1.8,5.289,1.8,9.542c0,5.725-1.037,8.342-4.417,11.123c-1.69,1.418-2.509,1.69-4.908,1.69
	c-3.217,0-5.234-0.98-7.415-3.598c-2.781-3.326-3.544-6.107-3.708-13.413c-0.11-3.654-0.382-6.98-0.654-7.361
	c-0.273-0.382-0.327-0.873-0.164-1.145c0.164-0.328-0.327-1.69-1.09-3.054c-4.526-8.123-14.777-10.033-18.757-3.49
	c-1.254,2.072-1.472,6.816-0.491,10.47c1.036,3.87,2.726,9.65,4.362,14.721c5.78,17.721,4.035,27.7-6.434,37.787
	c-6.161,5.888-13.85,9.05-21.974,8.996c-6.488,0-10.305-1.854-13.086-6.38c-1.145-1.853-2.454-9.76-1.527-9.214
	c0.218,0.164,0.437-0.382,0.437-1.254c0-2.018,2.562-7.361,5.18-10.796c1.145-1.527,4.089-4.962,6.543-7.634
	c4.362-4.798,9.16-11.45,10.578-14.722c0.381-0.927,0.981-3.217,1.363-5.18c0.872-4.634-0.11-8.724-2.508-10.414
	c-2.509-1.8-7.689-2.017-10.797-0.382c-2.562,1.309-3.108,2.127-7.306,11.342c-2.017,4.362-4.744,7.47-7.306,8.124
	c-4.035,1.145-8.834-2.617-8.834-6.925c0-2.835,2.727-8.124,7.525-14.45c2.454-3.27,4.635-6.16,4.798-6.433
	c0.436-0.763-0.818-2.127-2.017-2.127c-1.581,0-11.614,14.177-12.705,17.994c-1.254,4.198-1.308,5.125-0.545,7.579
	c1.145,3.98,4.635,6.652,9.542,7.415c5.889,0.873,11.341-4.253,14.995-14.122c1.254-3.49,3.87-6.052,6.488-6.488
	c3.054-0.491,4.362,0.272,5.071,2.944c0.763,3.054,0.055,6.652-2.4,11.669c-2.017,4.253-2.67,5.125-9.814,13.086
	c-5.561,6.27-7.633,9.105-9.705,13.358c-4.362,8.997-2.508,18.158,4.58,22.574c4.144,2.617,11.56,3.871,16.957,2.835
	c3.599-0.708,6.761-1.58,7.252-2.017c0.327-0.273,0.873-0.49,1.2-0.49c1.308,0,7.306-3.981,10.796-7.144
	c10.469-9.596,12.759-20.556,7.906-37.513c-0.927-3.163-1.908-6.761-2.18-7.961c-0.328-1.2-0.764-2.563-1.037-3.053
	c-1.09-2.072-2.126-8.07-1.908-10.851c0.109-1.636,0.218-3.163,0.272-3.38c0-0.219,0.546-0.873,1.2-1.527
	c0.872-0.764,1.908-1.09,3.871-1.09c2.4,0,2.945,0.217,4.744,2.071c2.726,2.726,3.38,4.962,3.762,13.74
	c0.273,6.544,0.49,7.689,1.8,10.415c6.052,12.268,21.046,12.65,25.354,0.709c0.382-1.2,0.709-4.144,0.709-6.707
	c0-5.234-1.581-11.069-4.526-16.576c-1.854-3.49-7.906-10.905-9.596-11.832C-162.529,378.711-163.784,378.711-164.274,379.475z
	 M-237.284,403.248c-1.472,1.636-1.8,4.144-0.654,5.289c1.908,1.908,4.144,1.418,5.561-1.309c1.145-2.18,1.036-3.598-0.382-4.58
	C-234.503,401.394-235.703,401.558-237.284,403.248z M-165.747,406.083c-0.49,0.873-0.926,1.909-0.926,2.345
	c0,1.145,2.344,3.162,3.707,3.162c2.618,0,3.817-4.689,1.636-6.215C-163.184,404.065-164.71,404.284-165.747,406.083z
	 M-213.457,425.876c-1.09,1.09-0.763,2.508,0.764,3.544c1.527,0.982,2.617,0.655,3.708-1.09c1.2-1.909-2.781-4.144-4.471-2.454
	H-213.457z M-196.335,427.676c-0.164,0.436,0.327,1.472,1.036,2.29c1.09,1.254,1.472,1.417,2.29,0.927
	c1.254-0.764,1.526-2.236,0.709-3.218c-0.873-1.035-3.6-1.035-4.035,0V427.676z M-226.434,441.906
	c0.164,0.491,0.328,0.928,0.328,1.037c0,0.109,0.818,0.709,1.799,1.308c5.889,3.654,23.282,3.872,32.715,0.436
	c1.09-0.381,1.473-0.872,1.363-1.69c-0.218-1.527-1.908-1.69-6.379-0.654c-7.525,1.745-8.833,1.963-13.25,1.963
	c-4.798,0-10.85-1.2-12.813-2.454C-224.361,440.707-226.87,440.762-226.434,441.906L-226.434,441.906z"/>
</svg>
