<?xml version="1.0" encoding="iso-8859-1"?>
<!-- Generator: Adobe Illustrator 19.0.0, SVG Export Plug-In . SVG Version: 6.00 Build 0)  -->
<svg version="1.2" baseProfile="tiny" id="Layer_1" xmlns="http://www.w3.org/2000/svg" xmlns:xlink="http://www.w3.org/1999/xlink"
	 x="0px" y="0px" viewBox="-247 358.89 100 125" xml:space="preserve">
<title>face_00054</title>
<path d="M-212.26,360.19c0.387,0.644,2.58,2.45,4.903,4.128c3.613,2.452,3.87,2.58,2.194,0.387c-2.323-3.097-5.42-5.677-6.84-5.806
	c-0.644,0-0.773,0.516-0.257,1.29V360.19z M-198.325,364.576c2.58,2.58,5.032,4.645,5.29,4.645c0.388,0,2.84,1.42,5.549,3.226
	c2.71,1.807,5.935,4,7.355,4.903c3.097,1.936,7.226,6.323,7.226,7.484c0,0.516,0.903,1.29,2.064,1.678
	c1.548,0.516,1.936,0.258,1.29-1.162c-0.387-1.032-0.258-1.935,0.258-1.935c1.549,0.129,9.807,7.613,9.033,8.387
	c-0.258,0.387-1.936-0.516-3.613-1.935c-3.484-2.968-5.161-2.452-2.065,0.645c1.162,1.161,2.065,3.225,2.065,4.387
	c0,1.29,0.774,3.097,1.806,3.87c0.904,0.775,2.452,5.033,3.355,9.55c0.903,4.386,2.58,9.031,3.742,10.322
	c1.548,1.806,1.548,2.58,0.387,3.355c-2.968,1.806,1.42,17.935,4.903,18.193c0.387,0,0.775-4.903,1.033-10.839
	c0.387-8-0.13-11.87-1.549-14.838c-2.322-4.258-2.58-5.807-1.032-4.775c2.323,1.42,0.645-5.29-2.194-9.419
	c-2.838-4-2.967-4.387-0.774-3.484c2.323,0.774,2.323,0.645-0.258-2.064c-1.548-1.678-2.968-3.871-3.226-4.903
	c-0.258-1.033-0.903-2.323-1.677-2.84c-0.645-0.515-0.774-1.29-0.258-1.806c0.516-0.516,2.064,0.13,3.484,1.42
	c1.42,1.29,2.58,1.935,2.58,1.29c0-0.516-4.387-5.161-9.677-10.194c-5.29-5.16-9.677-9.935-9.677-10.71
	c0-2.064-5.549-3.096-6.71-1.29c-0.774,1.162-1.548,1.162-3.484,0c-1.29-0.774-4.645-2.451-7.355-3.612l-5.032-2.065l4.386,4.516
	c5.161,5.29,4.258,6.065-1.677,1.678c-2.194-1.678-5.42-3.871-7.097-4.775c-2.323-1.16-1.936-0.387,1.548,3.097H-198.325z
	 M-220.647,362.641c0,0.774,1.16,1.935,2.58,2.71c1.42,0.774,2.58,1.935,2.58,2.71c0,0.773-2.709-0.13-6.064-2.194l-6.193-3.484
	l3.226,3.613c1.806,2.064,2.451,3.225,1.677,2.71c-0.903-0.517-3.87-1.033-6.452-1.291c-2.71-0.258-6.451-0.774-8.387-1.29
	c-3.483-1.033-3.483-0.904-2.71,3.742c0.517,2.967,0.259,5.16-0.644,5.677c-4.646,2.839,6.322,12.903,13.806,12.774
	c2.323-0.129,3.484-0.516,2.58-1.032c-2.193-1.42-0.515-3.484,3.355-4.258c2.194-0.387,4.904,0.387,7.484,2.322
	c2.323,1.549,5.678,3.097,7.355,3.613l3.226,0.774l-3.484-2.58c-7.355-5.42-9.42-7.484-8.516-8.258c0.516-0.516,2.452,0,4.387,1.29
	c1.936,1.161,3.742,1.678,4.258,1.161c0.387-0.645,1.678-1.29,2.71-1.548s2.193-1.032,2.322-1.677
	c0.646-1.678,2.323-1.42,4.388,0.645c2.063,1.935,10.063,4.129,10.063,2.58c0-0.516-0.903-2.064-2.194-3.354
	c-2.451-2.84-0.645-3.097,2.968-0.388c1.29,1.033,2.968,1.936,3.613,1.936s-1.677-2.065-5.161-4.516
	c-3.484-2.452-7.355-4.516-8.516-4.516c-1.42,0-2.323-1.033-2.323-2.581c0-1.677-0.645-2.323-1.935-1.806
	c-1.42,0.645-1.678,1.29-0.646,2.451c0.646,0.774,0.904,1.936,0.388,2.323c-1.807,1.806-5.678,0.774-9.678-2.839
	C-215.874,363.544-220.648,360.963-220.647,362.641L-220.647,362.641z M-180.002,387.286c0.516,0.774,1.42,1.032,2.064,0.645
	c1.807-1.161,1.42-1.935-0.903-1.935C-179.873,385.996-180.389,386.641-180.002,387.286z M-200.002,388.576
	c1.032,0.645,2.58,1.29,3.226,1.29c0.774,0,0.387-0.645-0.646-1.29c-1.032-0.645-2.451-1.29-3.225-1.29
	C-201.293,387.286-201.034,387.931-200.002,388.576z M-173.163,390.125c1.548,1.548,3.096,2.451,3.612,1.935
	c1.033-1.032-2.71-4.774-4.903-4.774c-0.903,0-0.516,1.161,1.29,2.839H-173.163z M-193.68,401.867
	c-1.16,0.903-3.483,4.387-5.032,7.741c-2.71,5.678-2.839,7.226-1.935,17.42c0.645,6.193,1.16,13.806,1.16,17.032l0.13,5.807h-7.097
	c-6.58,0-7.097,0.258-6.71,2.838c0.259,2.194-0.387,3.097-3.225,3.742c-7.355,1.549-8.13,2.065-8.13,4.387
	c0,1.29-0.386,3.226-0.774,4.258c-0.774,2.065,0.388,2.194,5.678,0.387c2.064-0.645,3.742-0.387,5.29,1.033
	c1.549,1.419,4,1.935,8.645,1.548c6.581-0.645,17.678,1.42,16.646,3.097c-0.259,0.516-7.871,0.903-16.775,0.903
	c-9.032,0.13-16.645,0.516-17.16,1.032c-1.55,1.42,7.87,8.13,13.29,9.42c2.838,0.774,8.386,1.032,12.257,0.774
	s8.646-0.516,10.71-0.645c3.484-0.258,3.484-0.258,3.097-8.387c-0.258-4.517,0-8.258,0.516-8.258c0.645,0,3.226,1.16,5.806,2.58
	c2.581,1.549,4.904,2.452,5.29,2.194c1.162-1.29-6.193-8.258-11.096-10.71c-6.064-2.839-7.355-5.29-9.161-16.903
	c-0.774-4.645-1.678-8.903-1.936-9.29c-0.258-0.517,0.387-1.807,1.29-3.097c1.42-1.936,2.194-2.065,4.388-1.033
	c1.806,1.033,2.838,1.033,3.484-0.129c0.516-0.774,0.258-1.806-0.517-2.064c-2.967-0.903-1.419-2.839,2.323-2.839
	c2.968,0,3.871-0.516,3.871-2.58c0-2.71,3.097-3.613,4.516-1.29c0.387,0.644,2.065,1.29,3.613,1.29c2.58,0,2.58-0.258-1.032-3.226
	c-2.065-1.678-4.387-3.097-4.903-3.226c-1.678,0-4.388-3.097-5.29-6.194c-0.775-2.322-0.517-2.838,2.064-2.838
	c1.677,0,5.29,1.161,8.129,2.58c2.838,1.42,5.677,2.581,6.322,2.581c1.807,0-4.774-6.58-7.096-6.968
	c-1.033-0.258-3.484-1.161-5.678-1.935C-184.389,400.447-191.357,400.06-193.68,401.867L-193.68,401.867z M-183.615,409.867
	c1.161,3.225-0.516,3.741-2.194,0.774c-0.903-1.936-0.903-2.71,0-2.71C-185.034,407.931-184.131,408.834-183.615,409.867z
	 M-187.1,463.415c0,0.645-0.516,1.29-1.161,1.29c-0.774,0-1.678-0.645-2.065-1.29c-0.387-0.774,0.13-1.29,1.162-1.29
	C-188.004,462.125-187.1,462.641-187.1,463.415z M-236.647,402.899c-13.936,1.806-13.678,3.355,0.645,4.387
	c5.29,0.516,12.645,1.677,16.387,2.839c9.677,2.838,10.064,1.29,1.42-5.162C-223.099,401.221-223.228,401.221-236.647,402.899z
	 M-149.034,413.092c0.387,0.645,1.032,1.29,1.419,1.29c0.258,0,0.516-0.645,0.516-1.29c0-0.774-0.645-1.29-1.42-1.29
	C-149.163,411.802-149.422,412.318-149.034,413.092z M-240.647,415.415c-1.549,1.548-0.387,3.097,3.613,4.903
	c2.193,1.032,5.548,2.839,7.354,3.742c4.387,2.58,10.323,2.452,10.323,0c0-1.032,0.645-1.935,1.29-1.935
	c2.065,0,1.549-3.355-1.032-5.549c-1.548-1.42-4.774-1.935-11.484-1.935C-235.744,414.77-240.26,415.028-240.647,415.415z"/>
</svg>
