<?xml version="1.0" encoding="iso-8859-1"?>
<!-- Generator: Adobe Illustrator 19.0.0, SVG Export Plug-In . SVG Version: 6.00 Build 0)  -->
<svg version="1.2" baseProfile="tiny" id="Layer_1" xmlns="http://www.w3.org/2000/svg" xmlns:xlink="http://www.w3.org/1999/xlink"
	 x="0px" y="0px" viewBox="-247 365.89 100 111" xml:space="preserve">
<title>face_00040</title>
<path d="M-184.513,366.863c-6.22,2.321-9.749,5.664-15.134,14.3c-0.093,0.185-1.393-0.93-2.879-2.415
	c-6.963-7.242-16.341-10.492-24.79-8.635c-4.086,0.928-5.757,1.95-9.193,5.571c-5.292,5.664-6.778,8.635-8.635,16.992
	c-2.507,11.513-2.414,65.366,0.093,79.48c0.464,2.228,1.021,2.97,2.135,2.785c0.929-0.186,1.486-1.114,1.393-2.135
	c-2.6-28.134-2.507-71.31,0-80.78c1.95-6.964,4.736-11.792,9.007-15.692c3.807-3.436,4.085-3.528,10.12-3.157
	c5.2,0.279,6.871,0.836,11.421,3.807c8.728,5.85,8.914,6.22,10.12,31.383c0.558,11.978,0.836,22.934,0.65,24.42
	c-0.278,2.693-0.464,2.693-5.663,2.786l-5.293,0.092v-22.47c0-14.206-0.371-23.305-1.021-24.698
	c-2.228-4.828-9.657-6.778-14.67-3.807c-5.293,3.157-5.2,2.229-5.386,44.94c0,21.727-0.278,40.947-0.464,42.711
	c-0.186,2.414,0.093,3.25,1.114,3.25c2.321,0,2.879-8.17,2.971-41.04l0.093-30.919l2.414,0.65c2.972,0.743,3.436,0.743,7.8-0.093
	l3.435-0.65v23.491c0,28.97,0.836,47.447,2.229,48.283c1.392,0.928,2.32-0.279,2.6-3.25c0.278-2.971,1.02-3.157,15.413-3.807
	l9.47-0.371v4.085c0,3.528,0.279,4.085,1.95,4.085h1.95l-0.278-35.097c-0.186-19.22-0.093-35.098,0.371-35.283
	c0.371-0.093,2.321,0.278,4.364,0.835c2.878,0.836,4.271,0.836,6.128,0.093c1.207-0.65,2.6-1.114,2.971-1.114
	c0.372,0,0.65,15.599,0.65,34.54c0,32.312,0.093,34.634,1.672,34.912c1.485,0.279,1.578-1.207,1.485-23.212
	c0-12.907,0.186-32.22,0.557-42.99l0.743-19.499l-2.6-2.507c-5.106-5.107-14.67-4.085-18.848,2.043
	c-2.229,3.25-2.229,3.25-1.765,24.327l0.465,21.17h-3.25c-1.764,0-3.993,0.464-5.107,1.021c-1.021,0.557-1.95,0.836-2.135,0.65
	c-0.186-0.186-0.557-10.77-0.929-23.677c-0.557-16.992-0.371-24.605,0.464-27.948c1.3-5.478,6.314-11.885,10.864-13.742
	c7.892-3.342,18.291-0.186,25.348,7.707c8.17,9.006,9.192,16.156,9.75,62.952c0.37,31.57,0.835,37.048,2.785,33.89
	c0.743-1.299,0.743-63.88-0.093-72.887c-1.114-12.906-3.621-19.777-9.564-26.555c-6.685-7.614-19.405-11.792-27.298-8.82V366.863z
	 M-216.732,387.847c2.879,2.879,2.507,8.728-0.557,11.607c-4.828,4.457-11.513,2.228-11.513-3.9c0-4.085,1.3-6.407,4.457-8.078
	C-220.91,385.526-218.96,385.619-216.732,387.847z M-168.542,387.755c0.65,0.464,1.392,2.692,1.671,4.92
	c0.464,3.715,0.186,4.55-2.507,7.521c-4.178,4.829-7.985,4.736-11.42-0.278c-2.879-4.178-1.208-10.214,3.435-12.07
	c2.6-1.022,7.15-1.115,8.82-0.093H-168.542z M-186.555,438.544c2.878,2.878,1.392,4.55-4.457,4.828
	c-5.664,0.279-6.314-0.279-3.621-3.25C-191.848,436.872-188.783,436.315-186.555,438.544z M-203.175,439.565
	c2.506,3.436,1.67,4.921-2.879,4.921c-4.642,0-5.478-1.578-2.6-4.828C-206.797,437.522-204.754,437.522-203.175,439.565
	L-203.175,439.565z M-185.163,449.965c0,2.692,0,2.692-7.15,3.25c-3.992,0.278-9.748,0.65-12.812,0.742l-5.571,0.278l-0.279-2.97
	l-0.279-2.972l9.1-0.371c5.014-0.093,10.863-0.372,13.092-0.465C-185.348,447.272-185.162,447.365-185.163,449.965L-185.163,449.965
	z M-185.163,460.735c0,2.971,0,2.971-5.663,3.621c-3.157,0.279-8.821,0.557-12.535,0.557h-6.871V458.6l7.706-0.557
	c4.179-0.278,9.1-0.65,10.864-0.835C-186.184,456.836-185.162,457.393-185.163,460.735L-185.163,460.735z M-224.16,393.697
	c0,1.764,0.929,2.507,2.321,1.857c1.579-0.557,0.743-3.064-1.02-3.064c-0.744,0-1.3,0.557-1.3,1.207H-224.16z M-177.085,393.047
	c-0.928,1.021,0.279,2.228,2.136,2.228c1.207,0,1.578-0.464,1.3-1.392C-174.206,392.49-176.063,392.026-177.085,393.047z"/>
</svg>
