<?xml version="1.0" encoding="iso-8859-1"?>
<!-- Generator: Adobe Illustrator 19.0.0, SVG Export Plug-In . SVG Version: 6.00 Build 0)  -->
<svg version="1.2" baseProfile="tiny" id="Layer_1" xmlns="http://www.w3.org/2000/svg" xmlns:xlink="http://www.w3.org/1999/xlink"
	 x="0px" y="0px" viewBox="-247 380.89 100 80" xml:space="preserve">
<title>face_00057</title>
<path d="M-157.633,381.043c-1.019,0.185-9.722,1.019-19.445,1.944c-15.463,1.39-18.426,1.482-24.537,0.278
	c-7.592-1.389-36.11-1.759-41.852-0.555c-3.148,0.648-3.518,1.018-3.518,3.426c0,2.777,0.092,2.777,5,2.777
	c2.685,0,7.5,0.278,10.648,0.556c5.556,0.648,5.648,0.648,5.648,3.518c0,3.612,0.648,4.445,4.63,6.945
	c3.796,2.315,7.13,2.5,11.574,0.648l3.24-1.389v16.019c0,8.889,0.278,17.315,0.556,18.889c0.556,2.592,0.185,3.055-3.24,5.463
	c-2.13,1.388-5.834,4.351-8.241,6.574l-4.352,3.889l2.315,2.037c2.777,2.314,11.944,6.666,17.407,8.148
	c4.722,1.203,13.519-0.37,25.926-4.908c7.407-2.592,7.685-2.777,7.13-5.185c-0.37-1.296-1.111-2.963-1.667-3.611
	c-1.481-1.76-12.407-6.76-16.296-7.315c-1.852-0.37-3.611-1.018-3.982-1.574c-0.74-1.018-1.018-36.667-0.37-36.667
	c0.185,0,1.944,0.649,3.889,1.482c6.759,2.87,12.778-0.093,15.185-7.5c1.204-3.704,2.407-4.074,14.074-4.815
	c10-0.648,11.204-1.296,10.74-6.018c-0.276-2.963-0.461-3.056-4.443-3.149c-2.315-0.092-5,0-6.018,0.093H-157.633z"/>
</svg>
