<?xml version="1.0" encoding="iso-8859-1"?>
<!-- Generator: Adobe Illustrator 19.0.0, SVG Export Plug-In . SVG Version: 6.00 Build 0)  -->
<svg version="1.2" baseProfile="tiny" id="Layer_1" xmlns="http://www.w3.org/2000/svg" xmlns:xlink="http://www.w3.org/1999/xlink"
	 x="0px" y="0px" viewBox="-247 364.89 100 112" xml:space="preserve">
<title>face_00053</title>
<path d="M-245.282,418.608c0.2,33.901-0.1,53.861-0.702,54.262c-0.602,0.301-1.003,1.304-1.003,2.207
	c0,1.505,2.106,1.505,20.862,0.702c11.435-0.501,33.2-0.903,48.345-0.903c15.146,0,28.185-0.4,28.987-0.902
	c1.204-0.702,1.304-6.62,0.703-36.81c-0.602-26.982-0.502-36.41,0.4-38.015c0.803-1.404,0.803-2.507,0.201-2.908
	c-0.501-0.301-1.203-7.122-1.504-15.046c-0.301-7.923-0.702-14.443-0.903-14.644c-0.2-0.2-21.765-0.601-47.944-1.003l-47.643-0.601
	l0.201,53.66V418.608z M-214.49,371.768c0.301,2.105,0.602,5.616,0.602,7.923v4.112l-13.24,0.602c-7.322,0.3-13.64,0.3-14.042,0.1
	c-0.4-0.3-0.802-4.112-0.802-8.525v-7.924h26.78l0.702,3.711L-214.49,371.768z M-183.697,368.958
	c0.4,0.101,0.702,14.544,0.802,32.197l0.1,32.097h-6.72c-3.811,0-9.83,0.3-13.54,0.702l-6.82,0.601v-17.552
	c0-11.836,0.4-17.854,1.203-18.656c0.802-0.803,0.802-1.505,0.1-2.407c-0.602-0.702-1.404-7.222-1.805-14.544l-0.803-13.24
	l13.44,0.402C-190.317,368.758-183.998,368.958-183.697,368.958L-183.697,368.958z M-152.704,376.481
	c0.3,3.912,0.1,7.423-0.502,8.125c-0.702,0.802-4.814,1.003-13.841,0.702l-12.839-0.401l0.2-7.222
	c0.101-3.912,0.402-7.523,0.703-7.924c0.2-0.401,6.118-0.602,13.039-0.501l12.738,0.3
	C-153.206,369.56-152.704,376.481-152.704,376.481z M-229.936,391.727v3.41h-5.517c-5.015,0-5.516-0.2-6.118-2.608
	c-0.903-3.41,0.2-4.212,5.617-4.613C-230.137,387.514-229.936,387.615-229.936,391.727z M-213.888,391.727
	c0,3.41-0.1,3.51-3.21,3.21c-2.908-0.301-3.31-0.702-3.51-3.611c-0.3-3.01-0.1-3.21,3.21-3.21
	C-214.088,388.116-213.888,388.316-213.888,391.727z M-168.752,391.627v3.51h-11.034v-7.02h11.034V391.627z M-152.202,392.128
	c0,2.207-0.502,2.508-3.712,2.809c-3.41,0.3-3.811,0.1-3.811-2.107c0-3.21,0.902-3.911,4.513-3.51
	C-152.704,389.52-152.202,390.022-152.202,392.128z M-223.918,398.948c1.404-0.1,4.313-0.1,6.52-0.2l4.012-0.1l0.3,10.531
	c0.201,5.818,0,13.842-0.3,17.754l-0.702,7.322h-13.44c-7.423,0-13.441-0.1-13.441-0.301c-0.1-0.1-0.301-8.225-0.702-18.054
	l-0.602-17.954l7.924,0.601c4.413,0.301,9.027,0.402,10.431,0.402V398.948z M-153.908,398.748c2.207,0.602,2.207,0.802,2.207,18.155
	v17.552l-12.739-0.3c-7.12-0.201-13.34-0.502-13.941-0.703c-0.803-0.2-1.204-5.717-1.204-17.853l-0.1-17.453h11.735
	C-161.53,398.146-155.212,398.447-153.908,398.748z M-221.21,438.066c0.803,0.502-2.407,3.01-8.726,7.121
	c-5.517,3.41-10.431,6.018-11.033,5.617c-0.502-0.3-1.003-3.31-1.003-6.52v-5.917l4.814-0.401
	C-228.03,437.264-222.413,437.264-221.21,438.066z M-179.986,439.069c6.218,3.11,16.55,8.827,20.26,11.133l3.511,2.307
	l-11.534-0.601c-6.32-0.301-23.17-0.602-37.312-0.602c-14.243,0-25.878-0.301-25.878-0.803c0-0.702,3.711-3.41,13.54-9.428
	l6.019-3.711l13.841-0.1C-186.105,437.264-183.095,437.564-179.986,439.069z M-151.501,443.282c0.301,3.009,0.402,5.817,0.2,6.218
	c-0.2,0.402-4.814-1.604-10.23-4.413c-15.546-8.225-15.546-7.924-2.206-7.623l11.534,0.301L-151.501,443.282z M-172.965,454.917
	c9.027,0.4,12.237,0.902,12.237,1.905c0,0.702-0.602,1.505-1.405,1.806c-0.702,0.3-5.215,3.31-9.93,6.62l-8.625,6.118h-27.683
	l-9.429-5.517c-5.115-3.009-9.528-5.516-9.83-5.516c-0.3,0-1.905-1.003-3.61-2.207c-2.507-1.805-2.708-2.307-1.304-2.708
	C-230.036,454.515-187.007,454.114-172.965,454.917z M-230.94,462.74c3.063,1.827,6.139,3.633,9.228,5.416
	c2.607,1.505,4.814,3.01,4.814,3.31c0,0.803-23.07,2.006-24.172,1.304c-1.003-0.602-1.204-14.744-0.301-15.747
	c0.4-0.401,1.905,0.2,3.31,1.204C-236.657,459.23-233.448,461.336-230.94,462.74z M-151.2,464.044l0.1,7.121l-4.113,0.402
	c-2.206,0.2-7.422,0.1-11.534-0.201l-7.523-0.502l3.811-3.109c2.107-1.705,5.015-3.811,6.52-4.513
	c1.504-0.803,4.514-2.608,6.72-4.113c2.207-1.504,4.514-2.608,5.015-2.407c0.602,0.1,1.003,3.41,1.003,7.322H-151.2z"/>
</svg>
