<?xml version="1.0" encoding="iso-8859-1"?>
<!-- Generator: Adobe Illustrator 19.0.0, SVG Export Plug-In . SVG Version: 6.00 Build 0)  -->
<svg version="1.2" baseProfile="tiny" id="Layer_1" xmlns="http://www.w3.org/2000/svg" xmlns:xlink="http://www.w3.org/1999/xlink"
	 x="0px" y="0px" viewBox="-247 363.89 100 115" xml:space="preserve">
<title>face_00087</title>
<path d="M-235.7,364.727c-0.254,0.422-0.423,26.12-0.338,57.058c0.169,57.48,0.253,58.58,3.296,55.03
	c1.522-1.861,0.254-112.428-1.267-112.765C-234.601,363.881-235.362,364.22-235.7,364.727z M-240.687,365.403
	c-0.677,1.099-0.93,110.735-0.339,111.411c0.339,0.339,1.184,0.085,1.945-0.507c1.099-0.845,1.268-6.762,1.268-43.871
	c0-23.5,0.253-45.14,0.507-47.93c0.76-7.523-0.338-19.78-1.775-19.78C-239.758,364.726-240.434,365.065-240.687,365.403z
	 M-150.747,370.39c0.085,3.128-0.169,28.318-0.507,55.875c-0.507,48.774-0.507,50.211,1.015,49.873
	c1.521-0.253,1.606-2.282,2.282-47.168c0.423-25.782,0.76-50.719,0.845-55.368c0.17-8.284,0.085-8.453-1.775-8.706
	C-150.83,364.642-150.83,364.81-150.747,370.39z M-246.267,368.7c-0.083,1.774-0.253,26.88-0.506,55.79
	c-0.338,45.9-0.253,52.663,0.846,52.663c0.676,0,1.437-0.339,1.69-0.677c0.254-0.338,0.677-25.443,1.015-55.79l0.591-55.114h-1.86
	c-1.52,0-1.774,0.507-1.774,3.127L-246.267,368.7z M-160.383,366.248c-0.676,1.099-2.113,45.14-2.62,78.952
	c-0.423,26.458-0.339,31.107,0.676,31.107c0.676,0,1.606-0.507,2.028-1.099c0.508-0.591,0.846-13.525,0.93-31.022
	c0.085-16.484,0.592-40.406,1.1-53.086c0.506-12.68,0.675-23.668,0.422-24.345C-158.354,365.487-159.707,365.149-160.383,366.248z
	 M-156.157,391.1c-0.845,40.829-0.845,84.7,0.085,84.954c2.451,0.845,2.705-2.959,3.128-56.213c0.338-51.564,0.338-54.27-1.1-54.27
	c-1.436,0-1.605,1.86-2.113,25.53V391.1z M-230.544,365.318c-0.338,0.846-0.338,26.374,0,56.72
	c0.507,49.874,0.761,55.2,1.945,54.945c1.183-0.253,1.352-4.142,1.437-38.207c0-25.698,0.253-38.124,0.845-38.293
	c1.352-0.423,2.113,16.4,2.029,48.098c-0.085,26.543,0,28.149,1.437,28.149c1.352,0,1.606-1.099,1.944-9.637
	c0.338-7.1,0.76-9.805,1.521-10.059c0.93-0.253,1.1,1.437,0.93,9.214c-0.338,9.13-0.253,9.637,1.353,9.637
	c1.606,0,1.69-0.761,2.113-10.144c0.507-13.187,2.113-12.849,2.113,0.423c0,9.467,0.085,9.72,1.944,9.974
	c1.776,0.254,1.86,0,1.86-5.663c0-4.734,0.254-6.002,1.268-6.002c1.014,0,1.268,1.183,1.268,5.917c0,5.326,0.17,5.917,1.69,5.917
	c1.522,0,1.691-0.591,1.691-4.987c0-2.79,0.423-5.326,0.846-5.58c0.507-0.337,0.845,1.438,0.845,4.566
	c0,4.48,0.169,5.156,1.606,5.156c1.944,0,2.62-1.606,2.62-6.424c0-2.114,0.423-3.72,0.93-3.72c0.592,0,0.846,1.86,0.592,5.241
	c-0.254,4.818-0.085,5.326,1.437,5.326s1.69-0.677,1.944-5.326c0.338-6.593,1.86-6.931,1.86-0.338c0,5.664,0.423,6.424,2.705,5.156
	c1.268-0.676,1.606-1.521,1.268-3.296c-0.76-3.466,0.253-8.453,1.606-8.453c1.183,0,1.099,1.437,0,10.566
	c0,0.423,0.845,0.845,2.029,0.845c2.367,0,2.198,0.677,2.451-11.242c0-5.072,0.423-7.777,1.014-7.777
	c0.677,0,0.846,2.958,0.592,10.144c-0.338,9.89-0.338,10.228,1.353,9.974c1.69-0.253,1.775-0.93,2.028-9.72
	c0.17-5.918,0.592-9.553,1.1-9.553c0.591,0,0.845,3.297,0.676,9.468c-0.254,8.96-0.085,9.552,1.437,9.552
	c1.521,0,1.606-1.1,1.86-38.293c0.168-29.67,0.422-38.208,1.267-38.208c0.761,0,1.015,8.369,1.015,38.124
	c0,20.963,0.338,38.292,0.676,38.546c0.422,0.253,1.268-0.085,1.86-0.677c0.845-0.93,1.183-12.257,1.437-55.536
	c0.338-50.38,0.253-54.27-1.1-54.27c-1.267,0-1.52,1.691-2.028,13.526c-0.507,10.65-0.845,13.525-1.775,13.525
	s-1.184-2.536-1.184-13.525c0-12.933-0.084-13.525-1.69-13.525c-1.522,0-1.69,0.592-1.69,6.678c0,9.636-1.607,9.552-1.86-0.085
	c-0.254-7.185-0.423-7.861-1.945-7.861c-1.606,0-1.69,0.507-1.437,8.2c0.254,7.015,0.085,8.283-1.014,8.283
	c-1.1,0-1.353-1.521-1.522-8.284c-0.169-6.593-0.507-8.2-1.521-8.2c-1.015,0-1.353,1.607-1.69,7.778
	c-0.593,10.397-1.692,10.989-1.692,0.76c0-6.593-0.253-8.284-1.267-8.706c-0.761-0.254-1.522-0.254-1.776,0
	c-0.253,0.253-0.591,14.962-0.76,32.713c-0.17,17.752-0.423,32.376-0.592,32.63c-0.676,0.59-1.522-24.515-1.522-44.633
	c0-18.512-0.084-19.273-1.606-19.273c-1.86,0-2.958,2.536-2.198,4.987c0.592,1.86-0.845,3.128-1.775,1.69
	c-0.338-0.591-0.676-2.535-0.676-4.48c-0.085-2.873-0.423-3.465-1.775-3.465c-1.86,0-1.86-4.311-0.76,43.28
	c0.506,20.879,0.422,23.077-0.846,23.077c-1.1,0-1.353-1.1-1.437-5.749c-0.085-3.127-0.338-17.836-0.676-32.713
	c-0.423-23.246-0.677-27.05-1.776-27.05c-1.014,0-1.352,1.606-1.69,7.777c-0.254,4.227-0.761,8.03-1.1,8.369
	c-0.675,0.76-0.76-0.085-0.59-10.06c0.084-7.354,0.084-7.438-1.86-7.185c-1.86,0.254-1.945,0.592-2.198,8.876
	c-0.338,11.243-1.86,11.496-1.86,0.338c0-6.34-0.254-8.453-1.183-8.791c-2.283-0.93-3.044,1.437-3.044,9.721
	c0,6.678-0.253,8.284-1.268,8.284c-0.93,0-1.267-1.69-1.437-8.707c-0.253-7.946-0.338-8.622-1.944-8.622s-1.69,0.507-1.437,14.709
	c0.254,11.834,0.085,14.539-0.845,14.285c-0.845-0.338-1.099-3.72-1.099-15.13c0-12.765-0.254-14.71-1.352-14.963
	C-229.36,363.881-230.29,364.473-230.544,365.318z M-174.246,387.718c-0.76,0.762-1.015,0.593-1.015-1.013
	c0-1.607,0.254-1.776,1.015-1.015c0.76,0.76,0.76,1.268,0,2.029V387.718z M-185.151,387.128c0.338,0.675,0.17,1.436-0.253,1.69
	c-0.507,0.338-0.846-0.254-0.846-1.184c0-2.113,0.508-2.282,1.1-0.507L-185.151,387.128z M-178.641,390.086
	c0,5.072-2.03,6.001-2.79,1.183c-0.592-3.55,0-5.41,1.606-5.41c0.845,0,1.183,1.184,1.183,4.227H-178.641z M-213.3,390.93
	c0,2.282-0.339,4.227-0.846,4.227c-0.422,0-0.845-1.945-0.845-4.227c0-2.367,0.423-4.226,0.845-4.226
	C-213.639,386.704-213.3,388.564-213.3,390.93z M-218.541,388.986c-0.423,2.198-3.212,2.451-3.212,0.338
	c0-1.268,0.507-1.775,1.775-1.775C-218.795,387.549-218.372,387.972-218.541,388.986z M-207.383,388.901
	c0,0.761-0.423,1.184-1.015,1.015c-1.521-0.507-1.775-2.367-0.338-2.367C-207.975,387.549-207.383,388.141-207.383,388.901z
	 M-178.643,423.051c0,13.441-0.338,24.6-0.676,24.853c-0.845,0.507-2.198-48.183-1.437-49.45c1.69-2.621,2.113,2.45,2.113,24.598
	V423.051z M-213.469,423.644l-0.17,25.19l-0.507-24.514c-0.422-23.415-0.422-25.782,0.507-25.782
	C-213.469,398.538-213.385,409.865-213.469,423.644z M-184.559,405.047c0,1.352,0.253,11.242,0.59,21.978
	c0.508,18.005,0.423,19.695-0.845,19.695c-0.845,0-1.437-0.507-1.521-1.098c0-1.015,0-25.782,0.084-36.771
	c0-3.466,0.339-6.087,0.846-6.087s0.845,1.015,0.845,2.283H-184.559z M-173.57,426.01c0,14.962-0.338,23.246-0.845,23.246
	c-0.507,0-0.846-8.284-0.846-23.246s0.339-23.246,0.846-23.246C-173.908,402.764-173.57,411.048-173.57,426.01z M-218.37,405.471
	c0,1.098,0.253,9.974,0.591,19.864c0.423,17.329,0.085,23.922-1.352,23.922c-0.676,0-1.183-8.79-2.029-36.094
	c-0.338-8.2-0.084-9.214,2.198-9.468c0.338-0.084,0.592,0.761,0.592,1.775V405.471z M-207.381,409.274
	c0,3.212,0.253,13.103,0.591,21.978c0.339,11.581,0.254,16.315-0.422,16.315c-0.507,0-1.1-0.338-1.353-0.761
	c-0.253-0.423-0.676-10.313-0.93-21.978c-0.422-18.681-0.338-21.217,0.846-21.217C-207.635,403.611-207.381,404.794-207.381,409.274
	z M-200.788,441.311c-0.169,1.86-0.592,3.297-1.099,3.297c-1.014,0-1.606-5.072-0.845-7.016c0.845-2.367,2.282,0.254,1.944,3.72
	V441.311z M-195.547,447.144c0,5.917-0.338,9.721-0.845,9.721c-0.507,0-0.846-3.804-0.846-9.72c0-5.918,0.339-9.722,0.846-9.722
	C-195.885,437.423-195.547,441.227-195.547,447.144z M-190.475,441.311c0,2.114-0.338,3.635-0.676,3.382
	c-1.015-0.592-1.184-7.27-0.17-7.27C-190.898,437.423-190.475,439.198-190.475,441.311z M-200.62,455.26
	c0,0.845-0.591,1.606-1.268,1.606c-1.268,0-1.775-2.62-0.76-3.635c0.93-0.845,2.028,0.254,2.028,2.03V455.26z M-190.138,454.837
	c0.676,1.86-0.338,3.382-1.268,1.945c-0.93-1.522-0.93-3.297,0-3.297C-190.983,453.485-190.392,454.077-190.138,454.837z
	 M-206.537,456.02c0,0.422-0.592,0.845-1.268,0.845c-0.676,0-1.268-0.423-1.268-0.845c0-0.507,0.592-0.845,1.268-0.845
	C-207.129,455.175-206.537,455.513-206.537,456.02z M-183.714,455.513c0,0.169-0.591,0.507-1.268,0.845
	c-0.676,0.254-1.268,0.084-1.268-0.338c0-0.507,0.592-0.845,1.268-0.845C-184.305,455.175-183.714,455.344-183.714,455.513z"/>
</svg>
