<?xml version="1.0" encoding="iso-8859-1"?>
<!-- Generator: Adobe Illustrator 19.0.0, SVG Export Plug-In . SVG Version: 6.00 Build 0)  -->
<svg version="1.2" baseProfile="tiny" id="Layer_1" xmlns="http://www.w3.org/2000/svg" xmlns:xlink="http://www.w3.org/1999/xlink"
	 x="0px" y="0px" viewBox="-247 358.89 100 125" xml:space="preserve">
<title>face_00003</title>
<path d="M-195.907,360.126c-0.44,0.66-2.09,0.77-3.85,0.44c-2.53-0.55-3.74-0.11-6.27,2.42c-1.65,1.65-5.281,4.29-8.031,5.72
	c-6.381,3.52-9.681,7.261-16.722,19.032c-3.19,5.39-6.16,9.681-6.6,9.681c-0.44,0-0.88,0.77-0.88,1.65s-0.44,1.65-1.1,1.65
	c-0.551,0-1.101,0.77-1.101,1.65c0,0.991-0.99,3.741-2.09,6.161c-1.54,3.08-2.42,7.921-2.86,16.172
	c-0.33,6.49-0.88,12.981-1.21,14.302c-0.33,1.65-0.11,2.31,0.66,1.87c0.66-0.33,1.1,0.33,1.1,1.54c0,1.32-0.66,2.31-1.32,2.31
	c-0.99,0-1.1,0.22-0.22,0.88c0.66,0.44,1.1,2.42,0.99,4.29c-0.11,1.98,0.11,3.631,0.55,3.631c0.44,0,1.1,1.98,1.54,4.4
	c0.33,2.42,1.1,4.4,1.54,4.4c0.55,0,0.99,0.66,0.99,1.541c0,3.74,11.001,13.311,19.472,16.942c1.87,0.88,7.92,1.76,13.421,2.09
	c8.251,0.55,11.221,0.22,17.052-1.65c3.85-1.21,9.57-2.53,12.541-2.97c5.28-0.66,14.962-4.621,15.732-6.381
	c0.22-0.44,1.1-0.77,1.87-0.77c0.88,0,1.87-0.55,2.2-1.21c0.55-0.77-0.55-0.88-3.52-0.33l-4.18,0.77l4.4-4.29
	c5.28-5.061,10.12-12.212,11.11-16.612c0.441-1.65,1.101-3.63,1.541-4.18c0.44-0.66,1.1-3.851,1.54-7.152
	c1.54-13.75,0.11-29.372-3.74-40.484c-1.98-5.39-1.98-6.38-0.55-7.92c2.09-2.2,2.09-4.84,0.22-6.491c-1.1-0.77-1.87-0.77-2.64,0
	c-0.66,0.66-1.76,0.88-2.42,0.55c-1.76-1.1-1.43-5.06,0.44-5.72c2.09-0.88,2.09-3.63-0.11-6.491c-1.65-2.2-1.65-2.2-3.851,0.55
	l-2.2,2.75l-1.87-2.53c-5.391-7.26-6.711-8.471-7.921-7.26c-1.32,1.32-8.911-1.761-11.991-4.731c-1.1-1.21-1.76-1.21-2.97-0.22
	c-1.21,0.99-2.311,0.99-4.401,0c-3.41-1.54-3.41-1.54-4.29,0H-195.907z M-189.196,385.428c0.33,0.66,1.87,0.88,3.19,0.55
	c1.43-0.33,2.97-0.11,3.3,0.44c0.44,0.66,2.09,0.99,3.631,0.88c2.64-0.33,2.97,0.11,3.3,3.19c0.22,1.98,0.77,3.631,1.32,3.631
	s1.76,0.33,2.86,0.77c1.211,0.44,1.651,0.33,1.211-0.44c-1.54-2.53,2.42-2.2,4.62,0.33c5.501,6.38,8.581,21.562,6.931,33.994
	c-3.19,22.112-10.12,33.223-26.073,41.254c-6.05,3.08-6.93,3.3-10.45,2.09c-6.821-2.42-17.602-10.451-17.602-13.201
	c0-0.55,3.63-0.99,8.03-1.1c4.29,0,8.911-0.33,10.122-0.55c1.21-0.33,3.96-0.77,6.05-0.99c9.351-1.1,11.661-1.54,13.531-2.201
	c1.1-0.55,1.87-0.22,1.87,0.55c0,1.1,0.33,1.1,1.65,0c0.88-0.77,1.651-0.99,1.651-0.44c0,0.44,0.66-0.11,1.54-1.21
	c1.21-1.65,1.32-2.75,0.44-4.4c-2.09-3.74-3.96-4.951-7.92-4.951c-2.09,0-4.181-0.55-4.511-1.1c-0.44-0.66-8.25-1.1-20.022-1.1
	c-18.262,0-19.252,0.11-19.802,2.2c-0.88,3.19-1.87,2.75-3.85-1.98c-4.84-11.001-5.06-16.062-1.76-28.823
	c2.97-11.331,7.48-20.242,10.67-20.682c1.32-0.22,2.31-0.88,2.31-1.43c0-1.43,3.741-1.21,5.281,0.33c0.99,0.99,1.76,0.66,3.52-1.32
	c1.87-2.2,2.64-2.42,4.841-1.32c2.2,0.99,2.97,0.77,5.17-1.54c2.75-2.861,3.74-3.191,4.951-1.43L-189.196,385.428z
	 M-160.153,387.518c0,0.55-0.44,1.1-1.1,1.1c-0.55,0-1.1-0.55-1.1-1.1c0-0.66,0.55-1.1,1.1-1.1
	C-160.593,386.418-160.153,386.858-160.153,387.518z M-157.403,397.419c-0.33,0.55,0.11,3.63,1.1,6.821
	c1.65,5.83,2.31,13.971,0.88,12.541c-0.44-0.44-0.88-2.53-1.1-4.62c-0.11-2.2-0.77-4.62-1.43-5.39c-0.66-0.77-1.1-1.87-0.99-2.31
	c0.11-0.551-0.11-1.871-0.66-2.971c-0.44-1.1-0.22-2.53,0.55-3.52c1.54-1.87,2.64-2.2,1.65-0.55V397.419z M-228.69,413.921
	c-0.11,1.21-0.55,2.2-0.99,2.2c-1.1,0-1.1-0.44-0.22-2.64C-229.02,411.061-228.47,411.281-228.69,413.921z M-234.08,419.091
	c-0.22,0.88,0.88,8.581,1.98,13.862c0.22,1.32,0.99,5.61,1.54,9.46c0.66,3.851,1.65,7.922,2.2,9.022c1.43,2.53,1.32,3.19-0.11,3.19
	c-0.55,0-0.77-0.55-0.44-1.1c0.33-0.66,0.11-1.1-0.55-1.1c-3.96,0-9.24-27.833-6.16-32.783c0.88-1.43,1.87-1.76,1.54-0.55V419.091z
	 M-237.16,451.326c0.33,0.33,2.31,2.97,4.29,5.83c1.98,2.97,4.29,5.61,5.17,5.94c0.77,0.221,1.76,1.431,2.09,2.531
	c0.77,2.53,14.412,11.001,17.602,11.001c0.55,0,2.97,0.55,5.39,1.21c5.941,1.65,3.631,3.52-4.51,3.52
	c-6.05,0-11.44-1.76-18.482-6.16c-4.18-2.53-10.56-10.12-11.22-13.091c-0.33-1.76-1.1-3.08-1.65-3.08c-0.66,0-0.88-0.77-0.55-1.65
	c0.44-0.88,0.33-1.76-0.11-2.09c-0.441-0.33-0.991-2.421-1.101-4.731c-0.22-3.63,0-3.85,1.1-1.98c0.66,1.21,1.54,2.42,1.98,2.75
	H-237.16z M-154.102,450.446c-0.88,3.08-7.371,12.981-8.471,12.981c-0.44,0-0.22-1.21,0.44-2.75s1.65-2.75,2.2-2.75
	c0.44,0,0.88-1.1,0.88-2.53c0-2.311,3.52-7.372,5.06-7.372c0.33,0,0.22,1.1-0.11,2.42L-154.102,450.446z M-210.758,468.377
	c0,0.22-1.76-0.55-3.85-1.76c-3.52-2.09-8.251-8.14-8.251-10.45c0.11-0.99,12.1,11.22,12.1,12.21H-210.758z M-192.606,401.49
	c-1.43,3.52-2.09,34.873-0.66,33.993c0.66-0.44,1.21-0.22,1.21,0.44c0,0.77,0.55,0.77,1.54-0.22c2.2-2.31,3.74-33.773,1.65-35.093
	C-191.066,399.18-191.726,399.4-192.606,401.49z M-213.508,402.04c-3.3,1.87-6.931,6.38-7.481,9.46
	c-0.66,3.631,1.65,8.912,5.28,12.102c2.86,2.53,3.08,2.53,6.821,0.77l3.85-1.87l-0.44-8.25c-0.44-6.822-0.99-8.692-3.19-10.782
	C-210.868,401.27-211.638,401.05-213.508,402.04z M-176.875,405.89c-5.17,6.05-5.39,11.001-0.66,15.622
	c1.87,1.87,3.96,3.41,4.4,3.41c0.55,0,2.2-1.32,3.631-2.86c2.09-2.31,2.75-4.18,2.75-8.141c0-8.03-5.94-12.761-10.12-8.03
	L-176.875,405.89z"/>
</svg>
