<?xml version="1.0" encoding="iso-8859-1"?>
<!-- Generator: Adobe Illustrator 19.0.0, SVG Export Plug-In . SVG Version: 6.00 Build 0)  -->
<svg version="1.2" baseProfile="tiny" id="Layer_1" xmlns="http://www.w3.org/2000/svg" xmlns:xlink="http://www.w3.org/1999/xlink"
	 x="0px" y="0px" viewBox="-247 371.89 100 99" xml:space="preserve">
<title>face_00061</title>
<path d="M-203.668,379.53c-1.606,7.583-2.677,9.01-4.907,6.245c-1.516-1.784-12.31-9.367-13.38-9.367
	c-0.893,0-10.438,4.996-12.043,6.245c-2.855,2.23-8.029,4.46-10.26,4.46c-1.783,0-2.675,0.446-2.675,1.338
	c0,0.714,0.446,1.338,0.98,1.338c0.536,0,6.156,5.174,12.4,11.597c6.334,6.334,11.865,11.597,12.4,11.597
	c0.535,0,3.39-2.498,6.334-5.531c6.155-6.245,6.244-6.066,3.568,5.888c-0.981,4.46-1.784,8.83-1.695,9.812
	c0,1.25,2.409,3.747,6.69,7.137c3.569,2.943,6.602,5.62,6.602,5.887c0,0.982-14.006,6.87-19.18,8.029
	c-2.408,0.624-5.173,1.873-5.976,2.854c-1.517,1.695-1.428,1.874,3.122,5.442c9.277,7.404,23.907,17.574,25.156,17.574
	c0.803,0,4.55-1.606,8.385-3.569c3.836-1.962,7.315-3.568,7.761-3.568s3.836-1.873,7.494-4.103c3.657-2.32,7.76-4.818,9.099-5.62
	c1.427-0.803,2.497-1.606,2.408-1.874c-0.089-0.892-26.583-13.827-27.118-13.202c-0.268,0.267,3.479,2.676,8.385,5.263
	c8.475,4.371,11.508,6.958,7.047,5.888c-1.16-0.268-6.155-0.982-11.15-1.606l-9.189-1.16v-3.39c0-2.676,0.446-3.657,2.498-4.906
	c1.338-0.892,3.211-2.32,4.193-3.211c0.981-0.892,2.944-2.32,4.37-3.033c1.428-0.714,3.034-1.695,3.57-2.141
	c0.534-0.536,1.694-1.338,2.675-2.052c1.606-1.07,1.606-1.427-0.357-12.667c-1.07-6.334-1.962-11.686-1.962-11.954
	c-0.179-2.587,1.249-1.873,8.118,3.925c4.282,3.747,8.207,6.78,8.742,6.78c2.14,0,14.54-15.968,14.54-18.734
	c0-0.802-1.873-3.033-4.192-4.995c-2.32-1.873-6.155-5.174-8.564-7.315l-4.282-3.747l-3.39,2.677
	c-1.873,1.516-4.728,4.55-6.333,6.69c-2.587,3.48-5.085,5.442-5.888,4.639c-0.178-0.09-0.714-4.015-1.338-8.653
	c-0.535-4.639-1.07-8.653-1.249-8.832c-0.178-0.089-1.695,0.803-3.39,2.052c-3.746,2.855-4.103,2.855-10.08-0.09
	c-3.211-1.516-4.817-2.854-4.817-4.013c0-0.892-0.357-1.606-0.714-1.606C-201.706,371.948-202.776,375.338-203.668,379.53
	L-203.668,379.53z M-191.626,384.258c0,1.338-0.356,9.01-0.892,17.128c-0.446,8.118-0.892,19-0.98,24.264
	c-0.09,5.263-0.536,10.08-0.893,10.615c-0.357,0.714-2.587-0.624-6.244-3.746c-3.123-2.676-6.87-5.71-8.386-6.87l-2.587-2.05
	l2.498-12.222c1.338-6.69,3.122-13.113,3.925-14.362c0.803-1.16,1.338-3.3,1.16-4.728c-0.268-2.766,1.338-10.794,2.765-13.381
	c0.714-1.517,1.07-1.427,5.174,0.624C-192.339,381.404-191.626,382.207-191.626,384.258z M-213.124,384.526
	c3.657,3.033,3.211,4.193-0.803,2.14c-2.587-1.337-3.925-1.337-12.132-0.356c-5.174,0.535-9.545,0.803-9.902,0.446
	c-0.803-0.714,1.695-2.498,8.118-5.798l5.263-2.766l3.211,1.874C-217.585,381.046-214.819,383.099-213.124,384.526z
	 M-183.329,381.939c0.267,1.606,0.802,5.352,1.07,8.296c0.357,2.944,1.16,8.564,1.784,12.489c3.39,19.536,4.014,23.104,3.658,23.372
	c-1.16,1.249-14.452,10.08-15.076,10.08c-0.446,0-0.535-4.103-0.268-9.188c1.517-26.851,2.409-41.392,2.676-42.908
	c0.179-1.517,3.747-4.906,5.085-4.996c0.357,0,0.803,1.338,1.07,2.855H-183.329z M-158.798,386.042
	c5.085,4.64,5.353,6.066,0.625,4.104c-2.587-1.07-3.925-1.07-8.92,0c-3.212,0.624-5.8,0.892-5.8,0.535c0-1.16,7.226-8.92,8.297-8.92
	C-163.972,381.85-161.385,383.723-158.798,386.042z M-216.246,389.432c1.605,2.766,2.14,7.494,0.98,8.742
	c-0.624,0.536-2.675,1.785-4.727,2.677l-3.658,1.695l-3.39-2.766c-2.319-1.873-3.478-3.39-3.39-4.817
	c0.18-3.836,1.428-6.066,3.837-6.601c1.338-0.268,2.854-0.625,3.3-0.714C-220.796,386.935-217.228,387.827-216.246,389.432z
	 M-231.858,390.414c0,0.892-0.356,2.408-0.713,3.3c-0.625,1.606-0.981,1.517-4.193-1.516l-3.479-3.212l4.282-0.089
	C-232.571,388.897-231.768,389.165-231.858,390.414z M-209.021,390.86c1.25,0.535,2.23,1.248,2.23,1.605
	c0,0.714-4.46,3.925-4.817,3.39c-0.413-0.88-0.8-1.773-1.16-2.676C-214.284,389.699-213.124,388.986-209.021,390.86L-209.021,390.86
	z M-157.995,392.822c0.535,0.535,1.249,2.32,1.427,3.836c0.357,2.498,0.09,3.211-2.14,4.817c-2.766,1.963-5.264,1.873-8.118-0.357
	c-1.428-1.16-1.874-2.944-1.695-6.601C-168.343,391.127-161.028,389.967-157.995,392.822z M-170.484,395.142
	c-0.446,2.676-1.16,2.943-3.836,1.248l-2.408-1.605l2.587-1.07c3.033-1.25,4.014-0.893,3.657,1.426V395.142z M-150.591,395.052
	c0,0.446-0.624,1.25-1.427,1.963c-1.16,0.892-1.517,0.892-2.23-0.179c-1.25-2.051-0.982-2.587,1.427-2.587
	C-151.572,394.249-150.591,394.606-150.591,395.052z M-207.683,396.836c0,1.25-11.775,13.47-13.024,13.47
	c-1.695,0-14.986-12.845-13.648-13.291c0.624-0.179,1.784,0.446,2.497,1.338c0.803,0.892,2.855,2.765,4.55,4.014
	c3.657,2.766,4.46,2.587,13.827-3.122C-207.504,395.677-207.683,395.765-207.683,396.836z M-172.446,399.602
	c2.14,1.427,4.282,2.676,4.728,2.676s1.338,0.624,1.962,1.338c1.695,2.052,4.282,1.606,9.1-1.427
	c2.408-1.517,4.549-2.587,4.816-2.409c0.446,0.535-5.62,8.475-7.939,10.348c-2.141,1.784-4.014,0.803-11.775-6.423
	C-178.869,396.836-179.315,394.874-172.446,399.602z M-195.64,441.975v3.568l-10.08,0.446c-5.62,0.268-10.348,0.178-10.526-0.178
	c-0.179-0.268,1.16-1.071,2.943-1.695c1.874-0.536,5.442-1.963,7.85-3.033C-196.443,437.068-195.64,437.068-195.64,441.975z
	 M-183.24,449.557c4.906,0.625,9.723,1.338,10.704,1.784c1.606,0.536,1.25,0.803-2.14,1.695c-2.23,0.535-7.672,2.052-12.132,3.3
	l-8.029,2.32l-11.775-4.728c-6.512-2.587-11.508-4.995-11.151-5.352c0.892-0.892,19.447-1.427,23.015-0.625
	C-193.231,448.219-188.058,449.021-183.24,449.557z M-200.725,458.032c2.587,1.16,2.855,1.605,2.855,5.352
	c0,2.23-0.268,4.014-0.535,4.014c-0.625,0-17.039-11.418-19.715-13.737c-1.07-0.892-1.784-1.963-1.606-2.32
	c0.357-0.624,10.973,3.212,19.001,6.69V458.032z M-170.216,455.356c-0.981,1.16-18.466,10.08-23.818,12.132
	c-2.052,0.802-2.141,0.713-1.873-2.944c0.267-3.39,0.535-3.747,3.835-4.996c8.029-2.854,17.128-5.263,20.875-5.441
	C-169.413,454.017-169.324,454.196-170.216,455.356L-170.216,455.356z M-224.632,394.606c0,1.25,0.357,2.498,0.892,2.766
	c1.428,0.892,4.46-1.25,4.46-3.123c0-1.427-0.624-1.784-2.676-1.784C-224.186,392.465-224.632,392.822-224.632,394.606z
	 M-221.064,394.606c0,0.268-0.356,0.714-0.892,0.982c-0.446,0.267-0.892,0.089-0.892-0.357c0-0.536,0.446-0.982,0.892-0.982
	C-221.42,394.249-221.064,394.428-221.064,394.606z M-164.507,395.588c-0.714,1.873,0.178,4.014,1.695,4.014
	c1.784,0,3.568-2.409,2.944-4.014C-160.493,393.893-163.883,393.803-164.507,395.588z"/>
</svg>
