<?xml version="1.0" encoding="iso-8859-1"?>
<!-- Generator: Adobe Illustrator 19.0.0, SVG Export Plug-In . SVG Version: 6.00 Build 0)  -->
<svg version="1.2" baseProfile="tiny" id="Layer_1" xmlns="http://www.w3.org/2000/svg" xmlns:xlink="http://www.w3.org/1999/xlink"
	 x="0px" y="0px" viewBox="-247 376.89 100 89" xml:space="preserve">
<title>face_00118</title>
<path d="M-189.76,378.087c-3.709,1.236-5.335,2.732-6.897,6.44c-1.756,3.97-0.976,7.158,2.733,10.606
	c1.627,1.496,8.783,4.424,10.93,4.424c1.757,0,13.403,3.904,17.372,5.856c4.62,2.277,8.458,5.595,10.084,8.718
	c2.213,4.294-0.455,15.68-5.465,23.032c-2.602,3.774-3.188,5.01-3.383,6.766c-0.065,0.326-0.586,0.52-1.171,0.52
	c-0.586,0-1.692,0.586-2.407,1.237c-1.952,1.822-9.89,6.18-14.77,8.198c-10.214,4.164-27.39,2.017-38.906-4.815
	c-6.311-3.708-13.078-10.28-15.745-15.16c-2.017-3.773-2.212-4.553-2.147-9.368c0.065-4.424,0.39-5.725,1.821-8.198
	c3.839-6.636,11.516-10.93,25.57-14.444c7.156-1.756,9.824-3.578,12.492-8.393c2.082-3.708,1.886-4.619-1.757-10.344
	c-2.668-4.1-10.28-6.376-15.225-4.49c-0.845,0.326-2.667,0.911-4.098,1.367c-3.709,1.17-10.996,6.701-14.704,11.255
	c-4.164,4.946-9.304,15.68-10.607,22.121c-2.016,9.76-0.845,19.194,3.384,27.456c5.985,11.516,21.275,21.34,37.15,23.813
	c9.044,1.366,21.015-0.13,30.124-3.708c7.417-2.993,18.933-14.054,23.292-22.447c4.424-8.523,5.985-17.566,4.554-26.935
	c-1.757-12.232-5.856-20.04-13.468-25.83c-5.334-4.099-11.124-6.506-19.582-8.263C-184.946,376.591-185.531,376.655-189.76,378.087z
	 M-179.48,385.634c2.667,3.383,0.78,8.653-3.514,9.76c-3.383,0.845-7.221-3.254-6.246-6.572
	C-187.808,384.007-182.213,382.186-179.48,385.634z M-205.83,386.935c1.236,1.171,1.236,1.171,0.39,4.23
	c-0.91,3.252-3.578,5.79-6.05,5.79c-5.466,0-6.962-7.482-2.083-10.28C-211.621,385.569-207.001,385.699-205.83,386.935z
	 M-174.86,380.82c17.306,5.335,25.633,17.567,25.568,37.606c0,8.198-1.04,12.492-4.88,19.649
	c-4.358,8.133-13.988,17.306-22.25,21.08c-10.475,4.75-25.765,5.465-37.606,1.756c-7.873-2.472-19.128-9.889-23.683-15.614
	c-1.431-1.692-2.732-3.253-2.992-3.318c-0.326-0.13-0.52-0.716-0.52-1.367c0-0.585-0.261-1.366-0.586-1.756
	c-1.432-1.497-3.384-9.89-3.449-14.574c0-8.914,1.171-13.728,5.465-22.382c4.49-9.173,9.174-14.053,17.047-17.892
	c2.927-1.366,6.31-2.732,7.547-2.927c1.306-0.21,2.607-0.448,3.903-0.716c2.473-0.52,4.685,0.195,6.832,2.147
	c4.75,4.294,4.815,8.263,0.39,13.273c-0.91,1.04-1.886,1.821-2.147,1.821c-0.325,0,0-0.65,0.781-1.431
	c1.562-1.692,2.863-5.986,2.342-7.938c-0.52-2.016-2.342-3.903-4.684-4.88c-1.692-0.65-2.407-0.585-4.554,0.326
	c-1.367,0.65-3.319,1.887-4.295,2.798c-3.773,3.383-1.561,10.995,3.449,12.101c1.106,0.26,1.886,0.586,1.756,0.716
	c-0.13,0.13-2.797,0.976-5.855,1.822c-3.058,0.91-7.287,2.407-9.304,3.318c-4.36,1.887-10.28,6.441-11.45,8.783
	c-0.456,0.911-1.432,2.473-2.083,3.448c-1.691,2.538-1.887,12.102-0.26,15.42c4.294,8.979,10.8,15.29,21.21,20.495
	c8.393,4.229,22.251,6.44,31.034,5.01c3.84-0.651,16.396-6.182,19.324-8.524c3.513-2.797,6.961-6.831,6.31-7.222
	c-0.52-0.325-0.26-0.585,0.586-0.845c0.716-0.13,2.213-1.757,3.319-3.449c3.968-6.376,6.31-15.224,5.53-21.47
	c-0.326-2.863-0.846-3.774-3.579-6.571c-3.513-3.579-9.043-6.767-15.224-8.784c-2.212-0.65-5.205-1.691-6.701-2.277l-2.668-0.976
	l2.147-1.887c3.318-2.927,3.969-5.074,2.537-8.718c-2.081-5.595-6.766-7.157-11.19-3.838c-3.904,2.992-4.75,7.221-2.342,11.125
	c1.3,2.082,0.065,1.822-2.603-0.52c-2.993-2.603-3.578-5.4-1.822-8.849c1.627-3.188,2.603-3.969,6.116-5.14
	C-185.076,378.609-180.912,378.999-174.86,380.82L-174.86,380.82z M-186.767,387.066c-1.692,1.887-1.432,4.49,0.65,5.596
	c3.579,1.821,6.702-1.757,4.49-5.14C-182.929,385.57-185.271,385.375-186.767,387.066z M-212.857,388.823
	c-1.887,1.692-2.017,2.407-1.041,4.294c0.976,1.757,5.53,1.757,6.506-0.065c0.911-1.627,0.195-4.424-1.301-5.205
	C-210.45,386.937-210.905,387.001-212.857,388.823z M-196.201,415.303c-1.952,1.952,0.195,5.01,2.602,3.709
	c1.952-1.041,1.041-4.49-1.106-4.49C-195.095,414.522-195.745,414.848-196.201,415.303z M-203.163,416.083
	c-1.626,1.172-0.715,3.644,1.301,3.644c1.367,0,2.278-1.106,2.278-2.602C-199.584,415.889-201.992,415.173-203.163,416.083
	L-203.163,416.083z M-236.019,429.03c0,1.432,13.728,5.075,23.097,6.181c5.986,0.716,21.47,0.456,27.651-0.39
	c11.256-1.627,23.422-4.23,23.422-5.075c0-1.692-0.52-1.627-9.433,0.325c-9.11,2.017-22.642,3.644-30.254,3.644
	c-8.328-0.065-21.275-1.822-27.977-3.904c-5.27-1.562-6.506-1.757-6.506-0.78V429.03z"/>
</svg>
