<?xml version="1.0" encoding="iso-8859-1"?>
<!-- Generator: Adobe Illustrator 19.0.0, SVG Export Plug-In . SVG Version: 6.00 Build 0)  -->
<svg version="1.2" baseProfile="tiny" id="Layer_1" xmlns="http://www.w3.org/2000/svg" xmlns:xlink="http://www.w3.org/1999/xlink"
	 x="0px" y="0px" viewBox="-247 368.89 100 104" xml:space="preserve">
<title>face_00031</title>
<path d="M-201.034,369.577c0,0.334,0.418,1.085,0.919,1.586c0.75,0.751,0.334,1.502-1.42,3.088
	c-2.837,2.505-5.008,2.421-4.757-0.167c0.167-1.335-0.25-1.836-1.42-1.836c-0.834,0-1.836-0.417-2.086-0.835
	c-1.002-1.67-2.254-0.834-1.753,1.169c0.417,1.67-0.084,2.504-2.17,4.174c-2.087,1.586-3.005,1.836-3.84,1.168
	c-0.584-0.5-0.918-1.419-0.668-2.087c0.25-0.667-0.167-1.085-1.168-1.085c-0.919,0-2.421-1.168-3.506-2.504
	c-1.002-1.418-2.087-2.504-2.505-2.504c-1.252,0-0.667,2.254,1.002,3.756c0.918,0.835,1.67,2.004,1.67,2.588
	c0,1.168-7.596,7.012-9.099,7.012c-1.753,0-0.918-1.586,2.003-3.84c4.09-3.089,2.672-4.257-1.502-1.169l-3.422,2.504l-2.087-1.92
	c-1.169-1.001-2.42-2.17-2.671-2.587c-0.334-0.334-0.835-0.25-1.169,0.334c-0.334,0.584,0.334,1.92,1.67,3.339l2.253,2.337
	l-3.255,2.337c-1.753,1.252-3.506,2.588-3.923,3.005c-0.418,0.334,0.083,1.252,1.168,2.17l1.92,1.503l-2.337,1.836
	c-3.005,2.337-2.087,3.423,1.002,1.252c2.42-1.753,4.424-1.67,4.424,0c0,0.585-1.92,2.338-4.174,3.924
	c-4.257,3.005-5.092,4.173-3.005,4.173c1.753,0,2.337,3.506,0.751,5.175c-1.836,2.087-0.668,2.922,1.503,1.086
	c1.252-1.252,2.003-1.42,3.088-0.752c2.588,1.67,2.004,3.423-2.337,6.595c-4.257,3.172-5.342,4.925-2.671,4.424
	c1.836-0.334,6.01,2.337,6.01,3.84c0,1.669-3.506,4.507-3.923,3.171c-0.585-1.669-2.17-1.168-1.67,0.585
	c0.25,1.001-0.25,2.253-1.168,3.088c-0.835,0.751-1.586,2.004-1.586,2.671c0,1.002,0.417,0.835,1.92-0.5
	c2.504-2.338,2.921-2.338,5.258,0.333c2.588,2.671,2.504,4.007-0.167,5.76c-2.17,1.419-2.253,1.336-4.34-0.918
	c-1.42-1.42-2.254-1.92-2.504-1.252c-0.167,0.584,0.5,1.92,1.586,3.088l1.92,2.004l-1.92,1.752c-2.338,2.17-1.67,3.089,0.918,1.253
	c2.67-1.837,3.422-1.67,5.592,1.252c1.837,2.42,1.837,2.587,0.418,4.173c-1.838,2.004-3.423,2.004-4.508-0.083
	c-0.5-0.918-1.252-1.67-1.67-1.67c-1.251,0-1,2.17,0.418,3.34c0.751,0.667,1.085,1.752,0.751,2.92
	c-0.417,1.67-0.25,1.92,1.169,1.503c1.169-0.25,2.254,0.418,3.923,2.504c2.087,2.838,2.17,3.089,0.835,5.092
	c-1.336,2.004-1.336,2.17-0.084,2.17c0.752,0,1.336-0.417,1.336-0.834c0-1.92,2.42-0.668,4.09,2.087
	c0.918,1.586,2.087,2.921,2.588,2.921c1.419,0,1.001-1.419-1.252-4.007c-2.588-3.088-2.588-3.589,0.167-6.01
	c2.504-2.17,3.756-1.752,5.926,2.004c1.085,1.836,1.169,2.504,0.418,2.754c-1.92,0.668-1.169,2.004,0.834,1.503
	c1.586-0.417,2.421,0.083,4.257,2.504c3.089,4.007,3.757,3.089,1.086-1.502l-2.17-3.673l2.754-2.671l2.754-2.671l2.421,3.171
	c1.336,1.753,2.254,3.84,2.17,4.591c-0.417,2.421,1.586,1.753,5.009-1.586l3.172-3.088l1.67,2.087
	c3.922,4.507,4.674,5.426,6.093,7.68c0.834,1.251,1.836,2.086,2.337,1.836c0.835-0.585-1.169-3.84-5.259-8.598
	c-2.921-3.422-2.921-4.674,0.084-6.761l2.337-1.67l2.254,2.338l2.253,2.42l-2.086,2.087c-1.17,1.252-2.17,2.42-2.17,2.671
	c0,1.002,2.086,0.334,3.839-1.335l1.836-1.67l4.34,5.008c2.422,2.839,4.759,5.092,5.176,5.092c1.085,0-0.5-2.504-4.257-6.677
	c-1.836-2.087-3.339-4.174-3.339-4.591c0-0.501,1.67-2.254,3.756-4.09l3.757-3.173l1.586,1.837c2.17,2.504,2.17,2.754-0.918,5.259
	c-1.42,1.168-2.338,2.504-2.004,3.005c0.334,0.584,1.503,0,3.172-1.586c3.089-2.922,3.339-2.922,4.842-1.169
	c0.834,1.085,0.834,1.586,0,3.005c-1.002,1.586-0.919,1.67,1.001,1.169c1.67-0.418,2.588,0.083,4.675,2.504
	c1.502,1.586,3.088,2.838,3.589,2.67c0.5-0.166-0.334-1.752-1.92-3.505l-2.754-3.172l2.42-2.003c3.84-3.005,4.09-2.922,9.433,3.84
	c0.918,1.168,2.003,1.836,2.337,1.502c0.334-0.334-0.751-2.42-2.504-4.507c-3.506-4.591-3.59-5.009-1.336-6.344
	c1.503-1.002,2.504-3.673,1.085-3.005c-0.417,0.167-1.67,0.834-3.005,1.502c-2.087,1.002-2.42,0.918-3.506-0.5
	c-1.502-2.004-1.335-2.672,1.837-5.093l2.504-1.92l2.838,3.673c1.586,2.087,3.089,3.84,3.506,3.84c1.419,0,0.25-2.337-4.007-8.097
	l-4.674-6.093l2.337-2.004c2.922-2.587,2.003-3.672-1.336-1.669c-2.587,1.503-2.587,1.503-4.507-0.417l-1.836-1.837l2.921-2.504
	c3.422-2.921,5.259-3.088,6.928-0.584c0.668,1.085,2.17,3.005,3.423,4.424c1.168,1.335,2.17,2.754,2.17,3.088
	c0,0.418,0.417,0.668,0.835,0.668c1.67,0,0.75-2.17-3.005-6.928l-3.84-4.925l1.92-2.003c2.504-2.671,3.756-2.505,5.425,0.584
	c0.919,1.836,1.586,2.337,2.17,1.753c1.086-1.085,0.084-2.838-5.508-9.35c-2.087-2.42-3.84-4.757-3.84-5.09
	c0-1.086,4.09-3.256,5.259-2.755c0.667,0.25,1.67,1.335,2.253,2.504c0.752,1.252,1.42,1.753,1.92,1.252
	c0.501-0.501,0.167-1.67-1.001-3.089c-1.086-1.419-1.586-2.838-1.253-3.84c0.418-1.252,0.167-1.585-1.168-1.335
	c-1.837,0.25-5.175-2.254-5.175-3.923c0-0.584,1.001-1.67,2.17-2.504c2.003-1.336,2.254-1.336,3.673,0
	c2.337,2.086,4.09,1.168,1.92-1.002c-1.586-1.586-1.586-1.836-0.418-3.089c1.753-1.752,0.751-2.587-1.419-1.168
	c-1.502,0.918-2.003,0.751-4.257-1.42c-3.005-2.92-3.088-4.006-0.584-5.675c1.92-1.252,2.17-1.169,4.173,0.918
	c2.755,2.755,3.673,2.003,1.252-1.085l-1.752-2.254l1.92-1.502l1.837-1.42l-4.257-4.507c-3.84-4.007-4.424-4.34-5.176-3.089
	c-1.252,2.254-2.838,1.837-5.676-1.419c-1.42-1.585-2.755-2.921-3.006-2.921c-1.085,0-0.25,1.836,2.087,4.424l2.42,2.838
	l-2.086,2.003l-2.087,1.92l-2.588-2.587c-2.253-2.254-2.504-2.838-1.502-4.007c1.419-1.67,0.334-2.671-1.586-1.503
	c-1.336,0.835-1.92,0.585-3.84-1.419c-1.335-1.335-2.67-2.253-3.088-2.003c-0.418,0.334,0.25,1.586,1.502,2.922
	c1.92,2.003,2.087,2.587,1.169,3.672c-1.586,1.92-2.504,1.586-6.845-2.67c-3.255-3.256-4.007-3.674-4.007-2.255
	c0,1.586-4.006,5.343-5.76,5.343c-0.416,0-2.42-1.67-4.423-3.757C-199.698,369.076-201.034,368.158-201.034,369.577z
	 M-195.942,375.754c2.087,2.337,2.004,2.755-1.001,4.925l-2.588,1.836l-2.087-2.17l-2.17-2.087l2.42-2.17
	C-198.362,373.5-197.862,373.417-195.942,375.754z M-181.418,376.422c1.336,1.335,2.254,2.587,2.004,2.754
	c-0.167,0.167-1.67,1.336-3.34,2.504l-3.004,2.254l-2.42-2.587l-2.422-2.588l2.921-2.42c1.586-1.336,3.089-2.421,3.339-2.421
	c0.334,0,1.586,1.085,2.921,2.504H-181.418z M-207.795,376.756c0.835,0.918,0.418,1.586-1.836,3.339
	c-3.59,2.754-4.09,2.754-3.005-0.084C-211.05,375.671-209.464,374.669-207.795,376.756z M-152.786,378.342
	c2.504,2.504,2.587,2.921,1.419,3.923c-1.17,1.001-1.67,0.751-3.84-1.336c-1.67-1.67-2.337-3.005-1.92-3.923
	C-156.376,375.003-155.791,375.17-152.786,378.342L-152.786,378.342z M-169.982,378.675c2.755,2.672,2.922,3.673,0.668,5.092
	c-1.753,1.085-3.756,0.668-2.922-0.667c0.25-0.334-0.584-1.253-1.752-2.087c-2.087-1.336-2.087-1.42-0.668-3.005
	C-172.82,376.004-172.736,376.004-169.982,378.675z M-219.064,379.343c0.501,1.503-6.677,7.179-8.68,6.845
	c-2.171-0.334-1.336-2.003,2.503-5.092C-221.151,377.841-219.815,377.423-219.064,379.343z M-201.868,383.517
	c0,1.085-4.424,4.59-5.843,4.59c-0.418,0-0.835-0.416-0.835-0.917c0-0.585-0.668-1.503-1.42-2.087
	c-1.418-1.085-1.335-1.336,1.336-3.673l2.922-2.504l1.92,1.836C-202.703,381.764-201.868,383.016-201.868,383.517z
	 M-155.124,384.352c0,0.5-0.918,1.502-2.087,2.086c-1.92,1.002-2.253,0.919-4.173-1.335c-2.588-2.922-2.588-3.256-0.25-4.842
	c1.752-1.252,2.003-1.168,4.173,0.919C-156.209,382.432-155.124,383.85-155.124,384.352z M-189.764,386.856
	c-1.42,1.085-2.922,2.003-3.423,2.087c-0.751,0-4.508-4.341-4.508-5.343c0-0.167,1.252-1.085,2.755-2.086l2.671-1.67l2.504,2.42
	l2.504,2.505L-189.764,386.856L-189.764,386.856z M-176.409,382.348c0.417,1.169,0.083,2.087-1.002,2.922
	c-3.339,2.67-4.173,2.838-5.593,1.252c-1.252-1.42-1.168-1.586,1.753-3.673c3.757-2.671,4.174-2.754,4.842-0.5V382.348z
	 M-233.839,384.518c0.168,0.501-1,2.004-2.67,3.256c-2.338,1.753-3.256,2.003-4.007,1.252c-0.751-0.835-0.334-1.586,1.92-3.422
	c2.921-2.504,4.257-2.755,4.758-1.085L-233.839,384.518z M-162.553,386.522l1.837,2.671l-2.004,1.503
	c-2.337,1.752-3.672,1.669-3.672-0.418c0-0.751-0.501-1.753-1.17-2.087c-1.585-1.001-0.333-4.257,1.587-4.257
	C-165.14,383.934-163.555,385.103-162.553,386.522z M-196.86,389.193c0,3.673-5.342,5.175-7.93,2.254
	c-1.67-1.837-1.67-1.92,2.254-4.591c2.504-1.753,2.921-1.837,4.257-0.585C-197.528,386.939-196.859,388.275-196.86,389.193
	L-196.86,389.193z M-229.998,387.607c0.333,0.751-0.668,2.087-2.421,3.422c-2.42,1.92-3.089,2.087-4.257,1.169
	c-1.169-1.002-1.002-1.419,1.502-3.422C-232.085,386.188-230.666,385.854-229.998,387.607z M-184.005,388.358
	c0.668,1.085,0.5,1.67-0.751,2.588c-0.919,0.668-1.753,0.918-1.92,0.5c-0.167-0.417-0.835-0.5-1.503-0.25
	c-1.67,0.668-1.502-2.253,0.334-3.589C-186.175,386.271-185.174,386.438-184.005,388.358z M-177.828,389.11
	c-0.167,0.5-0.835,1.168-1.336,1.335c-0.584,0.167-0.834-0.167-0.5-1.002C-179.08,387.941-177.327,387.607-177.828,389.11z
	 M-213.554,392.365c0,0.5-0.334,0.584-0.835,0.334c-0.418-0.25-0.835-0.918-0.835-1.336c0-0.5,0.417-0.584,0.835-0.334
	C-213.889,391.279-213.554,391.948-213.554,392.365z M-156.042,393.116c3.089,3.005,3.172,3.59,0.5,5.342
	c-2.42,1.586-3.004,1.67-2.837,0.25c0.25-2.336-0.167-4.006-0.918-3.505c-0.418,0.25-0.835,0.083-0.835-0.334
	c0-0.5-0.835-0.918-1.836-0.918l-1.92-0.084l2.003-1.586C-159.381,390.111-159.214,390.195-156.042,393.116z M-181,391.781
	c0,0.25-0.334,0.667-0.835,0.918c-0.417,0.25-0.835,0.083-0.835-0.334c0-0.5,0.418-0.918,0.835-0.918
	C-181.335,391.447-181,391.614-181,391.781z M-216.06,393.95c0,1.085-2.337,2.087-3.172,1.335c-0.25-0.333,0-0.918,0.668-1.335
	C-216.894,392.865-216.06,392.948-216.06,393.95z M-171.4,396.622c0.501,0.334,0.167,0.668-0.584,0.668
	c-0.835,0-1.503-0.584-1.503-1.42c0-0.75,0.25-1,0.668-0.584C-172.485,395.704-171.817,396.288-171.4,396.622L-171.4,396.622z
	 M-213.553,396.372c0,1.001-1.67,2.086-2.254,1.502c-0.584-0.584,0.5-2.254,1.502-2.254
	C-213.887,395.62-213.553,395.954-213.553,396.372z M-234.422,397.29c1.002,0.584,0.585,1.335-2.086,3.673
	c-3.84,3.422-3.673,3.339-5.843,1.753c-1.586-1.253-1.586-1.253,0-2.421c0.918-0.668,2.42-1.753,3.338-2.504
	C-237.093,396.288-236.174,396.205-234.422,397.29z M-220.232,397.206c0,0.835-2.503,2.004-3.088,1.42
	c-0.25-0.251-0.167-0.752,0.167-1.253C-222.485,396.288-220.231,396.121-220.232,397.206L-220.232,397.206z M-174.322,398.542
	c0,0.668-0.5,1.252-1.085,1.252c-0.667,0-1.168-0.584-1.168-1.252s0.5-1.252,1.168-1.252
	C-174.822,397.29-174.321,397.874-174.322,398.542L-174.322,398.542z M-217.727,399.293c0,1.169-2.42,2.588-3.089,1.837
	c-0.5-0.501,1.586-2.922,2.505-3.005C-217.977,398.125-217.727,398.625-217.727,399.293z M-198.528,402.966
	c0,0.584-1.169,2.17-2.672,3.506c-2.838,2.587-3.923,2.504-6.844-0.668c-1.67-1.92-1.169-3.506,1.168-3.506
	c0.919,0,2.254-0.918,3.005-2.087l1.336-2.086l2.003,1.92C-199.447,401.046-198.528,402.382-198.528,402.966z M-228.828,403.383
	c-0.168,0.501-1.67,2.004-3.34,3.423c-3.005,2.42-3.088,2.42-4.758,0.918c-2.337-2.087-2.087-3.005,1.42-5.51
	c2.92-2.086,3.255-2.17,5.091-0.917c1.002,0.667,1.753,1.669,1.586,2.086H-228.828z M-185.006,402.048
	c1.753,0.751,3.172,1.67,3.172,2.003c0,0.417-1.335,1.67-2.921,2.922c-3.506,2.587-4.925,1.92-5.092-2.421
	C-190.097,400.128-189.764,399.961-185.006,402.048z M-155.624,405.387l1.586,2.17l-2.337,2.003l-2.337,2.004l-2.337-2.254
	c-1.837-1.753-2.17-2.504-1.42-3.423c0.502-0.584,1.587-0.918,2.421-0.667c1.086,0.334,1.586,0.083,1.586-0.752
	C-158.462,402.548-157.46,402.882-155.624,405.387z M-225.24,406.054c0,0.668,0.334,1.253,0.835,1.253
	c0.418,0,1.169,0.75,1.67,1.586c0.667,1.335,0.25,2.003-2.588,4.34l-3.422,2.671l-2.588-2.67l-2.671-2.672l3.339-2.838
	C-227.076,404.635-225.24,404.051-225.24,406.054z M-206.709,409.394c1.002,1.335,0.835,1.502-2.587,3.923l-3.174,2.253
	l-2.254-2.253c-2.755-2.922-2.755-4.341,0-4.341c1.252,0,1.92-0.334,1.586-0.835c-0.334-0.5-0.084-1.502,0.5-2.17
	c0.835-1.085,1.253-1.002,3.173,0.668c1.168,1.085,2.42,2.254,2.754,2.754L-206.709,409.394z M-176.826,410.812
	c0,0.835,0.501,1.503,1.086,1.503c0.5,0-0.334,1.168-1.92,2.504l-2.922,2.42l-2.67-2.67c-3.423-3.256-3.423-4.675,0-6.929
	l2.67-1.836l1.92,1.753C-177.66,408.475-176.826,409.977-176.826,410.812z M-162.886,409.978c2.505,2.337,2.421,3.255-0.75,5.425
	l-2.672,1.92l-2.337-2.254c-1.252-1.252-2.337-2.504-2.337-2.838c0-0.5,4.924-4.006,5.76-4.09
	C-164.972,408.141-163.971,408.976-162.886,409.978z M-231.083,416.989c0,0.585-1.168,1.92-2.587,2.922l-2.588,1.836l-2.588-2.67
	l-2.67-2.589l2.92-2.504l2.839-2.42l2.337,2.17C-232.084,414.986-231.083,416.405-231.083,416.989z M-216.558,413.901
	c1.335,1.335,2.17,2.754,1.92,3.172c-0.251,0.417-2.087,1.92-4.174,3.339l-3.673,2.67l-2.671-2.754l-2.671-2.754l3.59-3.005
	c2.002-1.67,4.006-3.089,4.507-3.089c0.417,0,1.92,1.085,3.172,2.42V413.901z M-182.668,418.325c0,1.002-3.59,2.921-6.345,3.422
	c-2.253,0.418-2.754,0.25-3.171-1.335c-0.25-1.169,0.166-2.421,1.168-3.506c0.918-1.002,1.67-2.337,1.67-3.005
	c0-2.588,1.168-2.337,3.923,0.751c1.502,1.67,2.754,3.339,2.754,3.673H-182.668z M-202.62,413.65c1.252,1.086,1.335,1.67,0.5,3.506
	c-0.5,1.252-1.586,2.922-2.337,3.673c-1.335,1.252-1.502,1.252-3.59-0.918c-2.837-2.922-2.754-3.756,0.585-5.843
	c3.255-2.087,3.005-2.087,4.841-0.418H-202.62z M-170.15,415.82c0.918,1.002,1.67,2.088,1.67,2.421c0,0.334-1.42,1.753-3.172,3.172
	l-3.256,2.505l-2.42-2.505l-2.421-2.587l2.921-2.421c3.423-2.922,4.424-3.005,6.678-0.584V415.82z M-156.627,417.073
	c2.921,2.754,2.921,3.84,0.083,6.093l-2.17,1.753l-2.838-2.754c-3.339-3.256-3.422-4.007-0.417-5.843
	c3.005-1.753,2.67-1.837,5.342,0.75V417.073z M-209.883,420.663c2.505,3.088,2.254,3.839-2.086,7.01l-3.423,2.422l-2.587-2.672
	l-2.672-2.67l3.757-3.256c2.086-1.837,4.006-3.34,4.34-3.34c0.25,0,1.503,1.17,2.671,2.505V420.663z M-226.661,421.663
	c2.338,2.922,2.254,3.924-0.333,5.593c-1.586,0.919-2.087,0.752-4.174-1.252c-2.922-2.754-3.005-3.923-0.5-5.592
	c2.503-1.837,2.67-1.753,5.007,1.252V421.663z M-178.664,422.332l1.836,2.42l-1.836,1.753c-2.337,2.17-4.507,2.17-5.092-0.083
	c-0.334-1.336-0.918-1.586-2.17-1.169c-1.002,0.25-1.753,0.25-1.753-0.167c0.084-0.668,5.843-5.175,6.761-5.259
	C-180.668,419.827-179.666,420.913-178.664,422.332z M-161.469,426.839c-0.167,0.5-1.67,1.836-3.339,2.922l-3.005,2.086
	l-2.838-3.005c-1.586-1.669-2.838-3.338-2.838-3.756c0-0.334,1.586-1.67,3.59-3.005l3.506-2.254l2.587,3.089
	C-162.303,424.586-161.302,426.338-161.469,426.839z M-233.255,426.589c2.755,2.17,2.755,3.672,0,5.425
	c-2.087,1.42-2.17,1.336-4.758-1.168c-2.504-2.588-2.504-2.671-1.002-4.34C-237.095,424.418-236.01,424.418-233.255,426.589z
	 M-219.398,429.009l1.752,2.421l-1.752,1.753c-2.254,2.254-3.34,2.087-5.76-1.002l-2.087-2.587l1.92-1.503
	C-222.654,425.921-221.485,426.088-219.398,429.009z M-170.15,433.099c0,1.253-5.843,5.426-6.51,4.675
	c-0.334-0.334-0.084-0.835,0.5-1.002c1.753-0.667,1.085-2.087-0.751-1.502c-1.336,0.417-1.67,0.25-1.419-1.002
	c0.167-0.918-0.167-1.419-0.918-1.252c-0.751,0.167-0.918-0.25-0.585-1.169c0.418-1.001,0.167-1.252-0.918-0.834
	c-1.67,0.667-1.085,0.083,2.671-2.755l2.505-1.92l2.67,3.005c1.503,1.67,2.755,3.34,2.755,3.757V433.099z M-225.74,434.186
	l2.086,2.754l-2.253,1.753l-2.254,1.837l-2.254-1.837c-3.255-2.504-3.59-3.923-1.335-5.676
	C-229.08,430.93-228.161,431.097-225.74,434.186z M-195.94,435.354l2.003,2.17l-3.673,3.256c-3.005,2.755-3.84,3.172-5.009,2.254
	c-1.752-1.252-3.422-3.34-3.422-4.09c0-0.668,6.678-5.76,7.513-5.76c0.334,0,1.419,1.002,2.587,2.17L-195.94,435.354z
	 M-165.14,438.694c0,1-4.924,5.341-6.093,5.341c-0.334,0-1.169-0.918-1.92-2.086c-1.502-2.254-1.168-2.838,2.922-5.677
	c1.92-1.252,2.17-1.252,3.59,0c0.834,0.752,1.502,1.837,1.502,2.421L-165.14,438.694z M-232.669,439.111
	c2.838,3.088,2.838,3.672-0.25,5.592c-2.254,1.336-2.337,1.336-4.841-1.502l-2.59-2.923l2.337-1.836
	c1.252-1.085,2.504-1.92,2.588-1.92c0.167,0,1.419,1.169,2.754,2.588L-232.669,439.111z M-180.164,436.857
	c0,0.25-0.334,0.668-0.835,0.918c-0.418,0.25-0.835,0.083-0.835-0.334c0-0.5,0.417-0.918,0.835-0.918
	C-180.499,436.523-180.164,436.69-180.164,436.857z M-219.73,441.197l2.921,3.089l-1.836,1.92c-2.004,2.17-2.671,1.92-6.26-2.17
	l-1.92-2.087l1.752-1.92c1.002-1.002,1.92-1.837,2.087-1.837C-222.819,438.192-221.4,439.528-219.73,441.197z M-187.677,439.027
	c0,0.417-0.417,0.835-0.918,0.835c-0.418,0-0.584-0.418-0.334-0.835c0.25-0.5,0.668-0.835,0.918-0.835
	C-187.844,438.192-187.677,438.526-187.677,439.027z M-185.173,441.03c0,0.25-0.334,0.668-0.835,0.919
	c-0.417,0.25-0.834,0.083-0.834-0.334c0-0.501,0.417-0.918,0.834-0.918C-185.507,440.697-185.173,440.863-185.173,441.03z
	 M-174.321,442.95c2.337,2.004,2.086,2.838-1.586,5.426l-3.256,2.17l-1.753-1.836c-1.001-1.002-1.753-2.254-1.753-2.838
	c0-1.336,3.005-2.755,4.508-2.17c1.002,0.417,1.252,0.166,0.835-0.835C-177.994,441.114-176.408,441.197-174.321,442.95z
	 M-161.3,442.95c0.919,1.252,0.752,1.837-1.168,3.757c-1.169,1.335-2.588,2.337-3.089,2.337c-1.085,0-4.257-3.172-3.673-3.59
	c0.167-0.167,1.42-1.085,2.755-2.086C-163.553,441.114-162.719,441.114-161.3,442.95z M-225.49,446.456l2.671,3.172l-2.337,2.254
	l-2.254,2.17l-2.671-2.754c-1.502-1.503-2.671-3.089-2.671-3.506c0-0.835,3.339-4.591,4.09-4.591
	C-228.412,443.201-226.992,444.703-225.49,446.456z M-211.967,448.96l1.752,2.421l-2.253,1.753l-2.17,1.753l-2.004-1.837
	c-2.337-2.17-2.42-3.005-0.417-4.924C-215.056,446.039-213.887,446.206-211.967,448.96z M-182.585,449.545l2.003,2.17l-3.59,3.255
	c-2.002,1.753-3.922,3.256-4.256,3.256s-1.503-0.918-2.504-2.004l-1.837-2.003l3.506-3.422c2.003-1.92,3.84-3.423,4.09-3.423
	c0.334,0,1.42,1.002,2.588,2.17L-182.585,449.545z M-169.23,449.127c0.752,1.503,0.585,2.17-1.419,4.174
	c-2.754,2.921-3.422,3.005-5.425,0.584c-1.586-1.753-1.586-1.836,1.085-4.09c3.339-2.838,4.507-3.005,5.76-0.668H-169.23z
	 M-229.413,455.304c0,0.501-1.085,1.753-2.504,2.755l-2.421,1.836l-2.588-3.673l-2.504-3.756l2.254-1.753l2.17-1.753l2.838,2.755
	c1.503,1.419,2.755,3.088,2.755,3.59V455.304z M-218.813,453.384c2.422,2.254,2.422,3.005,0.084,5.426
	c-2.337,2.504-3.339,2.42-5.425-0.5l-1.753-2.338l2.17-2.254C-221.066,451.131-221.233,451.131-218.813,453.384L-218.813,453.384z
	 M-196.442,453.217c0.25,0.418,0.084,0.835-0.333,0.835c-0.501,0-0.919-0.417-0.919-0.835c0-0.5,0.167-0.834,0.334-0.834
	C-197.11,452.383-196.692,452.717-196.442,453.217z M-205.707,455.972c2.671,3.506,2.671,3.59,0,5.342
	c-2.17,1.336-2.254,1.336-4.591-1.419c-2.838-3.172-2.838-3.172-1.002-5.175C-209.38,452.55-208.044,452.8-205.707,455.972z
	 M-164.639,454.636c1.586,2.17,1.503,2.421-1.836,4.508c-3.005,1.836-3.005,1.836-4.674,0.167c-1.586-1.67-1.586-1.67,1.001-3.923
	c3.089-2.588,4.007-2.671,5.51-0.752H-164.639z"/>
</svg>
