<?xml version="1.0" encoding="iso-8859-1"?>
<!-- Generator: Adobe Illustrator 19.0.0, SVG Export Plug-In . SVG Version: 6.00 Build 0)  -->
<svg version="1.2" baseProfile="tiny" id="Layer_1" xmlns="http://www.w3.org/2000/svg" xmlns:xlink="http://www.w3.org/1999/xlink"
	 x="0px" y="0px" viewBox="-247 377.89 100 87" xml:space="preserve">
<title>face_00100</title>
<path d="M-212.152,379.298c0,1.161,0.249,1.161,1.244,0.332c0.663-0.58,1.243-1.16,1.243-1.327c0-0.166-0.58-0.331-1.243-0.331
	C-211.572,377.972-212.152,378.552-212.152,379.298z M-187.111,381.04c1.244,1.326,2.405,3.4,2.57,4.809
	c0.25,1.824,0.332,1.658,0.25-0.663l-0.166-3.068l5.058,0.331l4.975,0.415l-4.395-0.746c-2.405-0.498-5.473-1.41-6.8-2.073
	C-189.1,378.22-189.514,378.469-187.111,381.04L-187.111,381.04z M-218.951,380.21c0.58,0.25,1.326,0.166,1.575-0.083
	c0.332-0.248-0.166-0.497-1.078-0.414C-219.366,379.713-219.614,379.962-218.951,380.21L-218.951,380.21z M-246.979,381.786
	c0,0.497,0.912,1.99,2.073,3.317c1.16,1.326,2.653,3.482,3.317,4.809c1.575,3.068,1.575,9.701,0.083,13.35
	c-0.664,1.575-0.913,2.902-0.498,2.902c1.327,0,2.653-6.882,2.322-11.692c-0.249-3.482-0.912-5.472-2.57-7.628
	c-2.986-3.897-2.82-4.56,0.911-4.892c2.737-0.25,2.654-0.332-1.326-0.664C-245.487,381.04-246.979,381.205-246.979,381.786z
	 M-230.395,381.786l-7.047,1.078l6.55-0.498c3.649-0.248,7.38-0.746,8.292-1.078c2.239-0.912,0.746-0.829-7.794,0.498H-230.395z
	 M-151.208,382.118c-1.327,0.331-1.99,0.663-1.327,0.746c0.83,0.083,0.58,0.746-0.995,2.322c-2.902,3.068-4.726,7.711-4.726,11.94
	c0,3.565,3.565,12.355,4.975,12.355c0.332,0,1.907,0.995,3.317,2.156c4.312,3.648,3.731,1.575-0.746-2.57
	c-4.976-4.644-7.214-9.62-6.385-14.512c0.663-4.477,3.565-8.789,6.965-10.365c1.41-0.746,2.653-1.658,2.653-2.072
	C-147.477,381.205-147.642,381.205-151.208,382.118L-151.208,382.118z M-214.971,383.444c-0.83,2.239-0.58,3.566,1.326,5.307
	c2.322,2.073,2.985,1.493,0.83-0.83c-0.996-1.077-1.41-2.487-1.161-3.73C-213.562,381.869-214.226,381.371-214.971,383.444z
	 M-169.201,383.527c2.82,0.166,7.298,0.166,9.95,0c2.571-0.166,0.25-0.249-5.223-0.249c-5.473,0-7.628,0.083-4.726,0.25
	L-169.201,383.527z M-207.342,391.82c0.58,0.249,1.327,0.166,1.576-0.083c0.331-0.249-0.166-0.497-1.078-0.414
	C-207.757,391.323-208.005,391.571-207.342,391.82z M-193.246,391.82c0.58,0.249,1.327,0.166,1.576-0.083
	c0.331-0.249-0.166-0.497-1.078-0.414C-193.66,391.323-193.909,391.571-193.246,391.82z M-199.879,392.65
	c0.497,0.165,1.492,0.165,2.073,0c0.497-0.25,0.083-0.415-1.078-0.415c-1.161,0-1.576,0.165-0.995,0.414V392.65z M-176.496,392.898
	c-0.664,0.497-2.156,0.663-3.317,0.415c-1.99-0.415-2.073-0.25-2.156,3.565v3.98h4.395c2.405,0,4.395-0.332,4.395-0.663
	c0-0.332-0.415-0.664-0.913-0.664c-0.663,0-0.829-1.16-0.497-3.73C-174.009,391.986-174.34,391.488-176.496,392.898z
	 M-229.98,396.131c-2.985,0.414-3.317,0.663-3.068,2.736c0.083,1.327-0.166,2.985-0.58,3.897c-0.83,1.493-0.58,1.576,3.234,1.493
	c3.731-0.166,4.063-0.332,3.98-2.239c-0.083-1.16,0.166-3.068,0.497-4.395c0.415-1.243,0.332-2.156,0-2.156
	C-227.266,395.722-228.62,395.943-229.98,396.131z M-217.542,402.018c-0.58,0.995,0.166,0.995,2.488,0
	c1.575-0.663,1.575-0.746-0.166-0.746C-216.215,401.189-217.293,401.521-217.542,402.018z M-211.572,403.428
	c1.824,1.326,3.566,6.799,3.566,11.36c0,5.14-0.995,8.374-3.4,10.945c-1.244,1.326-1.327,1.741-0.415,1.741
	c1.99,0,4.976-7.877,5.058-13.018c0-4.892-2.321-10.863-4.56-11.443C-212.235,402.847-212.318,402.93-211.572,403.428z
	 M-220.859,404.671c-0.166,0.58-0.414,2.156-0.58,3.566l-0.249,2.487l-10.78-0.331c-5.97-0.166-10.613-0.083-10.364,0.166
	c0.249,0.165,5.472,0.58,11.608,0.829l11.277,0.497l-0.331-2.902c-0.166-1.575,0.083-3.4,0.663-4.063
	c0.746-0.912,0.746-1.244,0.083-1.244C-220.03,403.676-220.692,404.174-220.859,404.671z M-245.07,409.15
	c-2.322,2.156-2.405,2.82-0.166,2.82c0.912,0,1.41-0.332,1.161-0.83c-0.332-0.497-0.083-1.492,0.498-2.156
	C-242.002,407.077-243.08,407.16-245.07,409.15z M-194.572,411.72c-0.332,0.83-0.58,3.483-0.58,5.805
	c0,3.814,0.33,4.726,2.653,6.965c2.072,2.073,3.482,2.736,6.799,3.068l4.312,0.415l-4.644,4.228c-2.902,2.737-4.56,4.976-4.56,6.136
	c0,1.659,0.165,1.742,1.824,0.913c2.736-1.493,9.453-0.332,17.247,2.902c3.897,1.575,8.706,3.316,10.696,3.814
	c1.908,0.497,3.4,1.16,3.151,1.327c-0.248,0.248-2.238,0.995-4.477,1.575c-2.156,0.58-3.4,1.161-2.737,1.161
	c0.664,0.083,2.488-0.249,3.98-0.746c1.576-0.415,4.644-0.83,6.883-0.912c3.814-0.166,5.97-1.576,2.404-1.576
	c-3.068,0-13.681-3.15-19.485-5.887c-4.146-1.907-7.463-2.736-11.775-3.068c-5.97-0.415-5.97-0.415-4.975-2.322
	c0.58-0.995,2.902-3.317,5.14-5.058l4.147-3.15l-5.639-0.581c-4.394-0.415-6.053-0.995-7.296-2.405
	c-2.24-2.653-3.317-7.214-2.488-10.945c0.746-3.234,0.415-4.063-0.58-1.658V411.72z M-206.597,428.304
	c-0.331,0.498-1.741,1.161-3.068,1.493c-2.819,0.58-3.234,1.741-0.995,2.404c0.747,0.25,2.073,1.493,2.82,2.737l1.326,2.321
	l0.58-2.155C-205.27,432.284-205.767,426.978-206.597,428.304z M-194.076,432.119c-0.497,5.804-0.083,6.218,2.488,2.736
	c1.16-1.659,2.57-2.985,3.233-2.985c0.58,0,1.078-0.415,1.078-0.83c0-0.497-0.663-0.829-1.492-0.829c-0.83,0-2.239-0.58-3.234-1.243
	C-193.744,427.807-193.744,427.807-194.076,432.119L-194.076,432.119z M-217.127,429.714c0,0.166,1.575,1.824,3.4,3.731
	c2.321,2.322,3.316,3.897,2.984,4.975c-0.248,1.161,0,1.41,1.161,1.161c1.659-0.497,2.239-1.907,0.747-1.907
	c-0.415,0-0.83-0.497-0.83-1.078C-209.748,434.606-217.127,427.724-217.127,429.714z M-200.047,445.8
	c-0.248,0.415-4.062,0.83-8.54,0.912c-9.535,0.166-11.608,0.912-2.487,0.912c5.887,0,10.53,1.078,10.53,2.57
	c0,1.41,2.82,1.493,4.063,0.084c1.908-2.156,3.815-2.82,10.448-3.483l5.804-0.58l-7.877-0.166c-4.312-0.083-8.706-0.332-9.618-0.58
	C-198.719,445.219-199.714,445.303-200.047,445.8L-200.047,445.8z M-243.661,446.712c0,1.576,10.613,5.887,16.583,6.717
	c3.317,0.497,6.22,0.663,6.385,0.497c0.249-0.249-1.41-0.58-3.648-0.912c-5.473-0.663-11.609-2.736-15.34-5.058
	C-243.164,445.717-243.661,445.634-243.661,446.712z M-171.522,450.942c-0.912,0.662-0.58,0.745,1.244,0.33
	c3.068-0.663,3.731-1.16,1.575-1.16c-0.829,0-2.156,0.414-2.82,0.83H-171.522z M-177.078,452.599
	c-0.995,0.415-3.731,2.654-6.136,4.893c-3.98,3.897-4.394,4.063-6.053,2.985c-1.078-0.83-3.4-1.161-6.301-1.078l-4.561,0.166
	l4.478,0.248c3.316,0.25,5.223,0.912,7.048,2.405l2.487,2.156l1.078-2.902c1.161-2.737,6.302-7.214,10.365-8.79
	c0.995-0.497,1.327-0.829,0.663-0.829C-174.673,451.853-176.083,452.185-177.078,452.599z M-216.464,455.667
	c1.493,0.664,3.814,2.737,5.224,4.478c1.41,1.824,3.068,3.234,3.731,3.234c1.327,0-5.058-6.8-7.711-8.21
	c-0.995-0.497-2.322-0.911-2.902-0.911S-217.957,454.921-216.464,455.667L-216.464,455.667z M-205.104,460.89
	c-2.073,0.912,0.083,0.912,2.902,0c1.658-0.497,1.741-0.663,0.415-0.663C-202.7,460.227-204.192,460.476-205.104,460.89z"/>
</svg>
