<?xml version="1.0" encoding="iso-8859-1"?>
<!-- Generator: Adobe Illustrator 19.0.0, SVG Export Plug-In . SVG Version: 6.00 Build 0)  -->
<svg version="1.2" baseProfile="tiny" id="Layer_1" xmlns="http://www.w3.org/2000/svg" xmlns:xlink="http://www.w3.org/1999/xlink"
	 x="0px" y="0px" viewBox="-247 360.89 100 120" xml:space="preserve">
<title>face_00023</title>
<path d="M-189.506,361.65c-0.373,0.28-0.653,2.239-0.653,4.198c0,3.451-0.187,3.638-2.519,3.358
	c-1.866-0.187-2.705-0.84-2.892-2.426c-0.373-2.705-2.798-2.611-3.824,0.094c-0.84,2.145-1.12,2.145-13.806,2.239
	c-7.09,0-13.34-0.28-13.806-0.747c-0.56-0.373-2.612-0.186-4.664,0.56c-4.944,1.772-9.795,1.772-11.754-0.093
	c-3.546-3.173-3.918-1.026-3.266,18.19c0.373,10.075,0.653,31.25,0.746,47.202c0,15.951,0.28,32.462,0.653,36.753l0.56,7.93
	l7.463,0.093c4.104,0,8.209,0.466,9.141,0.84c0.933,0.466,2.146,0.372,2.799-0.187c1.306-1.027,15.298-0.933,17.724,0.186
	c1.026,0.467,2.145,0.373,2.798-0.28c1.306-1.306,7.183-1.399,7.183-0.093c0,0.466,0.84,0.933,1.866,0.933s1.865-0.373,1.865-0.84
	c0-1.026,13.993-0.84,15.579,0.187c0.653,0.373,1.959,0.28,2.985-0.187c0.933-0.56,3.171-0.933,4.944-0.84
	c1.679,0.094,7.65,0.094,13.246,0l10.075-0.186l-0.56-50.56c-0.28-27.891-0.746-52.425-1.12-54.664l-0.557-3.918h-4.478
	c-3.638,0-4.57-0.373-4.944-1.865c-0.28-1.026-0.933-1.866-1.492-1.866c-0.56,0-1.4,0.84-1.96,1.866
	c-0.559,1.12-1.958,1.865-3.264,1.865c-1.959,0-2.332-0.466-2.332-2.798c0-2.146-0.373-2.799-1.866-2.799
	c-1.492,0-1.866,0.653-1.866,2.799c0,2.332-0.373,2.798-2.332,2.798c-1.865,0-2.332-0.466-2.332-2.238
	c0-1.306-0.466-2.612-1.12-2.985c-1.305-0.84-3.544,2.145-2.89,3.917c0.372,0.933-0.28,1.306-2.333,1.306
	c-2.892,0-3.918-1.585-3.918-6.343C-186.428,361.09-188.2,360.251-189.506,361.65z M-230.458,376.202
	c0.28,2.425,0.094,2.612-2.332,2.332c-2.892-0.28-4.104-3.265-1.959-4.57C-232.603,372.564-230.738,373.497-230.458,376.202z
	 M-220.476,375.922c0,3.265-3.825,3.825-5.038,0.747c-1.12-2.892-0.466-3.732,2.519-3.359
	C-221.036,373.497-220.476,374.057-220.476,375.922z M-210.682,375.922c0,2.426-0.28,2.799-2.705,2.799
	c-2.798,0-4.198-1.773-3.265-4.198c0.373-0.84,1.773-1.4,3.265-1.4c2.426,0,2.705,0.374,2.705,2.8V375.922z M-190.159,375.456
	c0,1.959-0.467,2.332-2.799,2.332c-1.492,0-2.798-0.373-2.798-0.84c0-2.332,1.306-3.824,3.358-3.824
	C-190.626,373.124-190.159,373.59-190.159,375.456z M-179.898,375.456c0,1.959-0.466,2.332-2.799,2.332
	c-2.332,0-2.798-0.373-2.798-2.332c0-1.96,0.466-2.332,2.798-2.332C-180.364,373.124-179.898,373.497-179.898,375.456z
	 M-171.129,374.616c0.932,2.519,0.653,3.172-1.68,3.172c-2.611,0-3.73-1.306-2.985-3.265
	C-175.141,372.657-171.876,372.751-171.129,374.616z M-162.361,375.736c0.28,1.679-0.093,2.052-2.052,2.052
	c-1.772,0-2.425-0.466-2.425-1.68C-166.838,372.471-162.828,372.098-162.361,375.736z M-153.032,375.176
	c0.373,1.772-3.265,3.265-4.665,1.866c-0.56-0.56-0.746-1.68-0.373-2.519C-157.323,372.564-153.406,373.03-153.032,375.176z
	 M-239.6,376.482c0,3.078-3.078,2.798-3.544-0.373c-0.28-1.586,0.186-2.052,1.586-2.052
	C-240.066,374.057-239.6,374.617-239.6,376.482z M-199.488,383.758c0,1.586-0.653,2.425-2.332,2.799
	c-1.306,0.373-2.798,0.373-3.265,0.093c-1.585-0.933-1.026-4.011,0.747-4.478C-200.514,381.146-199.488,381.519-199.488,383.758z
	 M-189.693,383.851c0,1.213-0.746,1.96-2.239,2.146c-2.612,0.373-4.29-1.026-3.451-3.078
	C-194.543,380.586-189.693,381.426-189.693,383.851z M-179.898,383.851c0,1.96-0.466,2.332-2.799,2.332
	c-2.332,0-2.798-0.373-2.798-2.332c0-1.959,0.466-2.332,2.798-2.332C-180.364,381.519-179.898,381.892-179.898,383.851z
	 M-170.57,383.851c0,1.866-0.466,2.332-2.238,2.332c-2.24,0-3.825-2.145-2.799-3.824c0.28-0.467,1.493-0.84,2.799-0.84
	C-171.036,381.519-170.57,381.986-170.57,383.851z M-162.174,383.385c0,1.213-0.653,1.866-1.866,1.866s-1.866-0.653-1.866-1.866
	c0-1.213,0.653-1.866,1.866-1.866S-162.174,382.172-162.174,383.385z M-152.566,382.639c0.746,2.145-0.373,3.358-2.425,2.798
	c-2.24-0.56-3.545-2.052-2.892-3.171C-157.137,381.053-153.033,381.426-152.566,382.639z M-239.6,384.784
	c0,1.68-0.466,2.332-1.865,2.332c-1.4,0-1.866-0.653-1.866-2.332c0-1.679,0.467-2.332,1.866-2.332S-239.6,383.105-239.6,384.784z
	 M-229.525,385.064c0.28,1.68-0.093,2.052-2.052,2.052c-1.773,0-2.426-0.466-2.426-1.679
	C-234.003,381.799-229.991,381.426-229.525,385.064z M-220.01,384.784c0,1.96-0.466,2.332-2.798,2.332
	c-2.333,0-2.799-0.373-2.799-2.332c0-1.959,0.466-2.332,2.799-2.332C-220.476,382.452-220.01,382.825-220.01,384.784z
	 M-210.402,383.572c0.746,2.238-0.466,3.544-3.171,3.544c-2.24,0-2.706-0.373-2.706-2.332c0-1.959,0.467-2.332,2.706-2.332
	C-212.081,382.452-210.682,383.012-210.402,383.572z M-199.58,391.78c1.493,2.892,0.653,4.198-2.892,4.478
	c-3.358,0.28-3.544,0.187-3.544-2.425c0-1.493,0.186-2.892,0.466-3.079C-204.617,389.728-200.233,390.474-199.58,391.78z
	 M-189.412,393.366c0.28,2.892,0.093,3.079-2.425,3.079c-2.146,0-2.892-0.467-3.172-2.146c-0.653-3.358,0.187-4.477,2.892-4.198
	C-190.158,390.288-189.599,390.941-189.412,393.366z M-169.636,392.62c0,2.146-0.466,2.799-2.332,3.172
	c-1.679,0.28-2.705-0.094-3.265-1.306c-1.4-2.519-0.093-4.571,2.892-4.571C-170.009,389.915-169.636,390.288-169.636,392.62z
	 M-161.706,392.713c0,3.545-3.639,3.265-4.012-0.28c-0.28-2.332,0-2.611,1.866-2.332c1.586,0.187,2.145,0.84,2.145,2.612
	L-161.706,392.713z M-152.099,392.433c-0.186,2.053-0.746,2.612-2.611,2.612c-1.866,0-2.426-0.56-2.612-2.612
	c-0.28-2.238,0-2.518,2.612-2.518C-152.099,389.915-151.819,390.195-152.099,392.433z M-237.267,393.646
	c0,1.866-0.56,2.426-2.52,2.612c-2.331,0.28-2.611,0-2.611-2.612s0.28-2.892,2.612-2.612
	C-237.827,391.221-237.267,391.78-237.267,393.646z M-229.338,393.646c0,2.146-0.373,2.799-1.866,2.799
	c-1.493,0-1.866-0.653-1.866-2.799c0-2.145,0.373-2.798,1.866-2.798C-229.711,390.848-229.338,391.501-229.338,393.646z
	 M-209.935,393.366c-0.28,2.24-0.747,2.612-3.079,2.612s-2.798-0.373-3.078-2.612c-0.28-2.332-0.093-2.518,3.078-2.518
	C-209.842,390.848-209.656,391.034-209.935,393.366z M-160.961,401.576c0.466,2.704,0,3.264-2.333,3.264
	c-2.425,0-2.425-5.13,0.094-5.317C-161.988,399.43-161.335,400.083-160.961,401.576L-160.961,401.576z M-151.447,402.042
	c0,3.171-4.664,3.918-5.597,1.026c-0.84-2.705,0.28-4.011,3.079-3.638C-152.006,399.616-151.447,400.176-151.447,402.042z
	 M-236.801,402.508c0,1.96-0.466,2.332-2.799,2.332c-2.332,0-2.798-0.373-2.798-2.332c0-1.959,0.466-2.332,2.798-2.332
	C-237.267,400.176-236.801,400.549-236.801,402.508z M-219.544,401.108c1.12,1.867-0.466,4.385-2.798,4.385
	c-1.959,0-2.332-0.373-2.332-2.612c0-2.239,0.373-2.705,2.239-2.705c1.306,0,2.612,0.466,2.891,0.933V401.108z M-198.741,402.695
	c0.28,1.959-0.094,2.145-3.452,2.145c-3.451,0-3.824-0.186-3.824-2.425c0-2.146,0.28-2.332,3.544-2.052
	C-199.674,400.549-198.928,401.016-198.741,402.695z M-178.965,402.508c0,2.052-0.373,2.332-3.265,2.332s-3.265-0.28-3.265-2.332
	s0.373-2.332,3.265-2.332S-178.965,400.456-178.965,402.508z M-236.521,410.344c0.28,1.306-0.093,1.866-1.586,2.145
	c-2.892,0.56-4.291-0.093-4.291-2.145C-242.398,407.825-237.174,407.825-236.521,410.344z M-228.592,410.997
	c0.28,1.679-0.093,1.959-2.052,1.586c-1.4-0.28-2.426-1.026-2.426-1.586C-233.07,407.919-229.058,407.919-228.592,410.997z
	 M-209.749,410.437c0,1.493-0.653,1.866-2.798,1.866c-1.68,0-2.799-0.467-2.799-1.213c0-1.865,0.933-2.518,3.452-2.518
	C-210.402,408.572-209.749,409.132-209.749,410.437z M-189.413,410.624c0.28,1.306-0.28,1.679-2.519,1.679
	c-2.705,0-3.824-1.586-2.238-3.172C-192.958,407.919-189.693,409.038-189.413,410.624z M-168.704,410.904
	c0,0.932-1.026,1.399-3.265,1.399s-3.265-0.467-3.265-1.4c0-0.932,1.026-1.399,3.265-1.399S-168.704,409.971-168.704,410.904z
	 M-160.308,410.904c0,0.84-0.84,1.399-2.333,1.399c-1.492,0-2.332-0.56-2.332-1.4c0-0.839,0.84-1.399,2.332-1.399
	C-161.148,409.504-160.308,410.064-160.308,410.904z M-150.98,411.464c0,1.492-0.467,1.865-2.519,1.585
	c-1.586-0.186-2.705-0.933-2.892-1.959c-0.28-1.213,0.28-1.586,2.52-1.586C-151.54,409.504-150.981,409.877-150.98,411.464
	L-150.98,411.464z M-236.988,417.154c2.146,2.145,1.213,3.544-2.145,3.544c-2.612,0-3.265-0.373-3.265-1.772
	C-242.398,416.221-238.947,415.195-236.988,417.154z M-228.592,419.113c0.28,1.959-0.093,2.518-1.586,2.518
	c-2.332,0-3.172-1.306-2.425-3.824c0.933-2.706,3.638-1.866,4.01,1.306H-228.592z M-220.01,418.366c0,2.892-1.68,3.825-3.451,2.053
	c-1.866-1.866-1.12-3.918,1.492-4.105C-220.476,416.221-220.01,416.687-220.01,418.366z M-209.749,418.366
	c0,2.053-0.373,2.332-3.265,2.332c-2.518,0-3.265-0.373-3.265-1.679c0-2.332,0.84-2.985,3.918-2.985
	C-210.215,416.034-209.749,416.407-209.749,418.366z M-189.039,418.273c0.372,1.68,0,2.425-1.307,2.799
	c-2.612,0.653-4.477-0.28-4.477-2.146c0-2.146,0.84-2.892,3.358-2.892c1.399,0,2.145,0.653,2.425,2.239H-189.039z M-179.432,418.833
	c0,2.798-3.265,3.731-5.037,1.492c-1.866-2.239-0.56-4.198,2.425-4.01C-179.898,416.501-179.432,416.967-179.432,418.833z
	 M-169.17,418.833c0,1.959-0.467,2.332-2.799,2.332s-2.798-0.373-3.078-2.612c-0.28-2.519-0.094-2.612,2.798-2.332
	C-169.637,416.407-169.17,416.874-169.17,418.833z M-160.308,419.393c0,1.958-0.374,2.332-2.053,2.052
	c-1.399-0.187-2.239-1.026-2.425-2.426c-0.28-1.679,0.093-2.052,2.052-2.052c1.96,0,2.426,0.466,2.426,2.425V419.393z
	 M-151.447,419.299c0,2.892-4.57,2.612-4.944-0.28c-0.28-1.865,0-2.145,2.333-1.865C-152.193,417.34-151.447,417.9-151.447,419.299z
	 M-236.8,427.23c0,2.518-0.28,2.798-2.799,2.798c-2.332,0-2.798-0.373-2.798-2.146c0-2.798,0.653-3.451,3.451-3.451
	c1.773,0,2.146,0.466,2.146,2.798V427.23z M-227.658,427.416c0.28,2.332,0,2.612-2.519,2.612c-2.892,0-3.545-1.026-2.332-4.198
	C-231.483,423.311-228.031,424.524-227.658,427.416L-227.658,427.416z M-220.196,427.509c0.28,2.052-0.093,2.519-1.585,2.519
	c-1.586,0-1.96-0.56-1.96-2.892c0-2.239,0.374-2.799,1.68-2.519C-221.128,424.804-220.382,425.923-220.196,427.509z
	 M-209.002,427.416c0.28,2.518,0.094,2.612-3.451,2.612c-3.358,0-3.825-0.28-3.825-2.146c0-2.985,0.84-3.545,4.198-3.265
	C-209.841,424.804-209.188,425.364-209.002,427.416z M-179.617,426.949c-0.653,0.187-0.84,1.027-0.56,1.773
	c0.373,0.933-0.186,1.306-1.959,1.306c-1.959,0-2.425-0.467-2.425-2.24c0-1.678,0.56-2.424,2.145-2.611
	C-180.176,424.804-177.752,426.297-179.617,426.949z M-188.479,427.882c0.28,1.866-0.093,2.146-2.519,2.146
	c-2.518,0-2.892-0.373-2.892-2.426c0-2.052,0.374-2.332,2.612-2.052C-189.505,425.737-188.666,426.39-188.479,427.882z
	 M-168.889,427.416c-0.187,1.679-1.027,2.239-3.266,2.425c-2.798,0.28-3.078,0.093-3.078-2.052c0-2.146,0.373-2.425,3.358-2.425
	C-168.983,425.364-168.61,425.644-168.889,427.416L-168.889,427.416z M-160.494,427.416c-0.187,1.4-1.026,2.239-2.332,2.425
	c-1.773,0.28-2.146-0.093-2.146-2.052c0-1.959,0.467-2.425,2.426-2.425C-160.587,425.364-160.214,425.737-160.494,427.416z
	 M-151.725,433.759c0.466,0,0.746,0.933,0.56,2.052c-0.374,2.612-4.198,3.545-5.038,1.306c-0.84-2.239,0.373-4.57,2.052-3.918
	C-153.311,433.479-152.285,433.759-151.725,433.759z M-236.8,435.625c0,1.492-0.653,1.865-2.799,1.865
	c-2.145,0-2.798-0.373-2.798-1.865c0-1.493,0.653-1.866,2.798-1.866C-237.453,433.759-236.8,434.132-236.8,435.625z
	 M-227.658,435.811c0.28,1.306-0.28,1.68-2.519,1.68c-2.705,0-3.825-1.586-2.239-3.172
	C-231.203,433.106-227.938,434.226-227.658,435.811z M-220.009,435.625c0,1.212-0.653,1.865-1.866,1.865
	c-1.212,0-1.865-0.653-1.865-1.865c0-1.213,0.653-1.866,1.865-1.866C-220.662,433.759-220.009,434.412-220.009,435.625z
	 M-178.964,435.531c0,1.027-0.467,2.146-0.933,2.426c-1.68,1.026-4.664-0.56-4.664-2.426c0-1.305,0.653-1.772,2.798-1.772
	C-179.617,433.759-178.964,434.226-178.964,435.531z M-168.703,435.625c0,1.492-0.653,1.865-3.265,1.865s-3.265-0.373-3.265-1.865
	c0-1.493,0.653-1.866,3.265-1.866S-168.703,434.132-168.703,435.625z M-160.307,435.438c0,2.332-0.653,2.892-2.892,2.332
	c-2.706-0.746-2.332-4.01,0.56-4.01C-160.96,433.76-160.307,434.226-160.307,435.438z M-236.8,443.554
	c0,1.959-0.466,2.332-2.799,2.332c-2.332,0-2.798-0.373-2.798-2.332c0-1.96,0.466-2.332,2.798-2.332
	C-237.266,441.222-236.8,441.595-236.8,443.554z M-228.218,441.781c1.306,1.213-0.56,4.105-2.612,4.105
	c-1.772,0-2.239-0.466-2.239-2.332s0.467-2.332,2.146-2.332c1.213,0,2.425,0.28,2.705,0.56V441.781z M-220.009,443.554
	c0,2.892-3.265,3.265-4.011,0.56c-0.56-2.24,0-2.892,2.332-2.892C-220.475,441.222-220.009,441.875-220.009,443.554z
	 M-209.002,443.74c0.28,1.866-0.093,2.146-2.891,2.146c-2.146,0-3.452-0.56-3.825-1.493c-0.84-2.332,0.28-3.265,3.452-2.985
	C-210.028,441.595-209.188,442.155-209.002,443.74z M-197.807,443.74c0.28,1.96-0.094,2.146-3.452,2.146
	c-3.078,0-3.825-0.373-3.825-1.68c0-2.518,0.933-3.078,4.198-2.798C-198.834,441.595-197.994,442.248-197.807,443.74z
	 M-188.479,443.834c0.28,1.679-0.187,2.052-2.052,2.052c-2.612,0-3.825-1.306-2.985-3.265
	C-192.77,440.476-188.852,441.501-188.479,443.834z M-179.151,443.834c0.28,1.772-0.186,2.052-2.518,2.052
	c-2.24,0-2.892-0.373-2.892-1.772C-184.561,440.849-179.617,440.569-179.151,443.834z M-169.169,443.554
	c0,1.213-0.747,1.959-2.24,2.145c-2.611,0.374-4.29-1.026-3.45-3.078C-174.02,440.289-169.169,441.128-169.169,443.554z
	 M-160.307,443.554c0,0.746-0.374,1.4-0.84,1.4c-0.466,0-1.493,0.279-2.332,0.559c-1.12,0.373-1.493,0-1.493-1.4
	c0-1.492,0.56-1.958,2.332-1.958C-161.147,442.155-160.307,442.715-160.307,443.554z M-150.979,444.114
	c0,1.399-0.373,1.772-1.493,1.399c-0.84-0.28-1.772-0.56-2.238-0.56c-0.374,0-0.933-0.653-1.306-1.4
	c-0.374-1.025,0.186-1.398,2.238-1.398C-151.538,442.155-150.979,442.528-150.979,444.114z M-151.166,450.737
	c-0.373,2.518-4.477,3.171-4.477,0.653c0-1.4,1.212-2.24,4.01-2.612C-151.166,448.778-150.979,449.618-151.166,450.737z
	 M-237.266,451.949c0,2.053-2.892,3.079-4.385,1.586c-1.586-1.586-0.093-4.104,2.239-3.731
	C-238.012,449.99-237.266,450.737-237.266,451.949z M-228.125,450.177c0.28,0.373,0.187,1.4-0.373,2.425
	c-1.772,3.265-6.436,1.026-4.85-2.332C-232.882,449.43-228.964,449.337-228.125,450.177z M-219.263,451.577
	c0.187,0.932-0.56,1.772-1.865,2.051c-2.519,0.747-4.012-0.466-3.172-2.611C-223.554,449.057-219.636,449.524-219.263,451.577z
	 M-178.498,451.483c0,2.145-5.504,1.866-5.877-0.28c-0.28-1.4,0.187-1.679,2.799-1.4
	C-179.617,449.99-178.498,450.55-178.498,451.483z M-169.356,450.177c1.12,1.12-0.56,3.172-2.705,3.172
	c-1.586,0-2.239-0.56-2.239-1.866s0.653-1.866,2.145-1.866C-170.942,449.617-169.729,449.897-169.356,450.177z M-160.307,451.483
	c0,1.4-0.653,1.866-2.333,1.866c-1.306,0-2.332-0.187-2.332-0.373c0-0.187-0.28-1.027-0.56-1.866
	c-0.466-1.213,0.094-1.493,2.333-1.493S-160.307,449.99-160.307,451.483z M-228.405,459.039c0,0.466-1.026,0.84-2.332,0.84
	c-2.425,0-3.171-1.4-1.119-2.146C-230.363,457.267-228.405,458.013-228.405,459.039z M-219.263,458.666
	c0.187,0.84-0.653,1.212-2.518,1.212c-2.892,0-3.918-1.305-1.68-2.145C-221.688,456.987-219.729,457.453-219.263,458.666z
	 M-197.621,458.479c0,0.933-1.026,1.4-3.265,1.4s-3.265-0.467-3.265-1.4c0-0.933,1.026-1.399,3.265-1.399s3.265,0.466,3.265,1.4
	V458.479z M-178.218,458.666c0.187,0.84-0.653,1.212-2.519,1.212c-2.798,0-4.29-1.026-3.171-2.238
	C-182.882,456.614-178.684,457.453-178.218,458.666z M-169.636,458.479c0,0.84-0.84,1.4-2.332,1.4s-2.332-0.56-2.332-1.4
	c0-0.84,0.84-1.399,2.332-1.399c1.493,0,2.332,0.56,2.332,1.4V458.479z M-160.307,458.479c0,1.493-4.198,1.96-5.038,0.56
	c-0.746-1.12,0.373-1.959,2.892-1.959c1.306,0,2.146,0.56,2.146,1.4V458.479z M-151.166,461.931c-0.28,4.104-0.56,4.85-2.332,5.037
	c-1.586,0.28-2.145-0.093-2.145-1.492c0-1.027,0.653-1.866,1.399-1.866s1.4-0.84,1.4-1.866s-0.654-1.866-1.4-1.866
	s-1.4-0.652-1.4-1.399c0-0.84,0.934-1.399,2.426-1.399c2.239,0,2.332,0.187,2.052,4.85L-151.166,461.931z M-237.266,458.946
	c-0.28,0.466-1.4,0.932-2.333,0.932c-0.932,0-2.052-0.466-2.332-0.932c-0.373-0.56,0.653-0.933,2.332-0.933
	C-237.919,458.013-236.893,458.386-237.266,458.946z M-236.986,465.196c0.186,0.84-0.654,1.212-2.52,1.212
	c-2.798,0-3.637-0.84-2.238-2.238c1.026-0.933,4.291-0.28,4.757,1.026H-236.986z M-228.405,465.009c0,0.84-0.84,1.4-2.332,1.4
	s-2.332-0.56-2.332-1.4s0.84-1.4,2.332-1.4C-229.244,463.609-228.405,464.169-228.405,465.009z M-219.076,465.009
	c0,0.933-0.933,1.4-2.799,1.4c-1.865,0-2.798-0.467-2.798-1.4c0-0.933,0.933-1.4,2.798-1.4
	C-220.009,463.609-219.076,464.076-219.076,465.009z M-178.031,465.476c0,1.492-0.653,1.865-3.172,1.865
	c-2.985,0-3.358-0.56-2.519-3.545c0.094-0.093,1.4-0.186,2.892-0.186C-178.684,463.61-178.031,463.983-178.031,465.476z
	 M-169.636,465.476c0,1.399-0.653,1.865-2.332,1.865s-2.332-0.466-2.332-1.865c0-1.4,0.653-1.866,2.332-1.866
	C-170.288,463.61-169.636,464.076-169.636,465.476z M-159.375,465.476c0,1.492-0.653,1.865-3.265,1.865s-3.265-0.373-3.265-1.865
	c0-1.493,0.653-1.866,3.265-1.866S-159.375,463.983-159.375,465.476z M-236.987,472.752c0.28,1.679-0.093,2.052-1.959,2.052
	c-2.425,0-4.197-3.265-2.145-4.105S-237.266,470.699-236.987,472.752z M-228.405,472.472c0,1.865-0.466,2.332-2.332,2.332
	c-1.865,0-2.332-0.467-2.332-2.332c0-1.866,0.467-2.332,2.332-2.332C-228.871,470.14-228.405,470.606-228.405,472.472z
	 M-219.076,472.472c0,1.959-0.467,2.332-2.799,2.332c-2.052,0-2.798-0.467-2.798-1.68c0-2.331,0.84-2.984,3.451-2.984
	C-219.542,470.14-219.076,470.606-219.076,472.472z M-208.069,472.658c0.28,1.866-0.093,2.146-2.985,2.146
	c-3.451,0-4.757-1.12-3.918-3.358c0.373-0.933,1.493-1.306,3.545-1.12C-209.095,470.513-208.255,471.073-208.069,472.658z
	 M-197.621,472.472c0,2.052-0.373,2.332-3.265,2.332c-2.612,0-3.265-0.373-3.265-1.773c0-1.679,1.213-2.332,5.41-2.798
	C-198.087,470.233-197.621,471.166-197.621,472.472z M-187.546,472.658c-0.187,1.12-1.306,1.773-3.359,1.96
	c-2.518,0.28-2.985,0-2.985-1.587c0-1.585,0.56-1.958,3.359-1.958C-187.919,471.073-187.266,471.353-187.546,472.658z
	 M-178.031,472.938c0,1.493-0.653,1.866-2.799,1.866c-2.145,0-2.798-0.373-2.798-1.866c0-1.492,0.653-1.865,2.798-1.865
	C-178.684,471.073-178.031,471.446-178.031,472.938z M-169.822,473.218c0.28,1.12-0.28,1.586-2.053,1.586
	c-2.332,0-3.265-1.68-1.772-3.172C-172.527,470.512-170.102,471.446-169.822,473.218z M-159.562,472.658
	c-0.186,1.12-1.305,1.773-3.357,1.96c-2.52,0.28-2.986,0-2.986-1.587c0-1.585,0.56-1.958,3.359-1.958
	C-159.934,471.073-159.281,471.353-159.562,472.658L-159.562,472.658z M-151.166,472.658c-0.186,0.933-1.12,1.68-2.145,1.68
	c-1.026,0-1.96-0.747-2.146-1.68c-0.28-1.212,0.28-1.585,2.146-1.585C-151.446,471.073-150.886,471.446-151.166,472.658z"/>
</svg>
