<?xml version="1.0" encoding="iso-8859-1"?>
<!-- Generator: Adobe Illustrator 19.0.0, SVG Export Plug-In . SVG Version: 6.00 Build 0)  -->
<svg version="1.2" baseProfile="tiny" id="Layer_1" xmlns="http://www.w3.org/2000/svg" xmlns:xlink="http://www.w3.org/1999/xlink"
	 x="0px" y="0px" viewBox="-247 362.89 100 117" xml:space="preserve">
<title>face_00117</title>
<path d="M-201.12,366.07c-6.376,4.23-19.195,13.423-36.78,26.175c-3.221,2.349-6.376,4.228-7.114,4.228
	c-1.208,0-2.416,2.148-1.812,3.155c1.208,2.013,2.013,40.805,1.007,46.71c-0.403,2.216-0.269,2.618,1.006,3.088
	c2.08,0.806,19.799,11.141,31.678,18.457c5.57,3.422,11.946,7.382,14.295,8.724l4.296,2.55l1.745-1.677
	c1.745-1.61,3.221-2.685,12.215-8.86c2.416-1.677,7.852-5.435,12.08-8.456c4.228-2.953,8.188-5.57,8.725-5.838
	c0.537-0.202,2.349-1.343,4.027-2.417c1.678-1.14,3.758-2.483,4.698-2.953c4.362-2.282,4.295-2.013,3.691-10.67
	c-0.738-9.867-0.738-37.585-0.067-39.598c0.47-1.275,0.268-1.544-1.342-1.946c-1.074-0.269-4.027-2.014-6.645-3.893
	c-4.563-3.289-5.503-4.094-9.06-7.114c-1.477-1.342-7.114-5.436-15.1-11.074c-4.699-3.356-11.007-7.92-13.558-9.933
	c-1.341-1.007-2.615-1.812-2.885-1.812C-196.288,362.916-198.637,364.326-201.12,366.07z M-189.98,369.963
	c7.517,5.436,8.927,6.443,13.155,9.396c4.765,3.289,20.403,15.705,20.403,16.175c0,0.335-8.725-0.269-11.074-0.739
	c-0.738-0.134-7.383-0.335-14.765-0.402c-9.06-0.067-13.557-0.336-13.893-0.873c-1.007-1.476-0.268-27.248,0.738-27.248
	c0.202,0,2.685,1.678,5.437,3.691H-189.98z M-199.174,393.856c-0.336,0.335-4.094,0.604-8.456,0.67
	c-4.363,0.068-10.068,0.336-12.752,0.605c-2.618,0.335-7.718,0.738-11.208,1.007c-3.49,0.2-6.913,0.604-7.517,0.738
	c-0.671,0.201-1.208,0.067-1.208-0.336c0-0.402,0.268-0.738,0.537-0.738c0.268,0,4.497-2.953,9.329-6.577
	c12.483-9.262,16.241-11.88,24.295-17.383l7.114-4.832l0.201,13.154C-198.771,387.413-198.906,393.587-199.174,393.856z
	 M-200.449,397.279c-2.35,4.026-16.175,20-17.383,20c-0.201,0-0.335-4.497-0.335-10V397.21l2.886-0.2
	c1.543-0.135,5.637-0.337,9.127-0.404C-201.12,396.405-199.979,396.539-200.449,397.279L-200.449,397.279z M-174.141,397.346
	c0.135,0.47,0.202,5.369,0.135,10.872l-0.202,10.067l-7.718-7.785c-4.228-4.228-8.993-8.725-10.537-10
	c-4.899-3.96-4.765-4.027,7.249-4.027C-177.094,396.473-174.409,396.674-174.141,397.346z M-160.181,397.748
	c4.027,0.336,7.517,0.873,7.852,1.208c0.336,0.336-3.288,4.43-8.053,9.195l-8.59,8.59l-0.404-4.63
	c-0.604-5.772-0.604-14.631-0.067-15.168c0.202-0.201,0.739-0.269,1.141-0.134C-167.832,396.943-164.208,397.413-160.181,397.748
	L-160.181,397.748z M-223.402,398.621c0.201,0.47,0.402,2.819,0.47,5.235c0,2.416,0.268,6.577,0.47,9.194
	c0.268,2.685,0.2,4.9-0.068,4.9c-0.335,0-4.094-3.49-8.39-7.718c-4.294-4.296-8.455-8.188-9.26-8.792
	c-0.806-0.537-1.477-1.276-1.477-1.544c0-0.537,9.06-1.812,14.496-1.946c2.282-0.067,3.557,0.134,3.759,0.67V398.621z
	 M-240.92,403.654c1.61,1.41,6.51,6.04,10.94,10.336c7.047,6.846,7.919,7.987,7.047,8.792c-0.537,0.604-2.618,2.953-4.631,5.302
	c-2.014,2.349-5.235,5.906-7.114,7.986c-1.88,2.014-4.43,4.833-5.705,6.175c-1.208,1.41-2.35,2.55-2.55,2.55
	c-0.202,0-0.403-5.973-0.403-13.221c0-7.316-0.269-17.114-0.604-21.88c-0.336-4.697-0.403-8.523-0.202-8.523
	C-243.94,401.171-242.464,402.312-240.92,403.654L-240.92,403.654z M-199.78,409.224c0.74,15.437,1.276,33.222,0.873,32.887
	c-3.69-3.088-19.261-19.33-19.261-20.067c0-0.537,2.953-4.027,6.577-7.718c3.624-3.759,7.584-8.188,8.859-9.933
	c1.208-1.812,2.282-3.155,2.349-3.02c0.134,0.067,0.335,3.624,0.604,7.852L-199.78,409.224z M-149.98,419.292
	c0.067,9.195,0.335,17.987,0.603,19.53c0.403,2.282,0.269,2.685-0.536,2.483c-0.604-0.067-5.437-4.563-10.873-9.865l-9.731-9.665
	l3.49-3.758c6.107-6.443,16.241-16.108,16.577-15.84C-150.316,402.379-150.115,410.03-149.98,419.292L-149.98,419.292z
	 M-184.209,412.044c5.302,5.235,9.665,9.798,9.665,10.201c0,0.336-4.296,4.765-9.53,9.866l-9.598,9.261l-0.47-6.174
	c-0.805-11.41-1.073-32.685-0.402-32.685c0.335,0,4.966,4.296,10.335,9.53V412.044z M-217.564,426.474
	c1.208,1.409,5.839,6.24,10.268,10.737c4.497,4.564,7.718,8.323,7.181,8.323c-0.537,0.067-1.543,0.2-2.282,0.268
	c-5.167,0.537-38.657,0.94-38.523,0.47c0.134-0.336,3.154-3.759,6.778-7.584c3.558-3.826,8.054-8.725,9.933-10.873
	c1.947-2.08,3.759-3.825,4.027-3.825c0.269,0,1.477,1.14,2.618,2.483V426.474z M-161.524,434.527
	c5.436,5.168,9.597,9.664,9.262,9.866c-0.336,0.201-9.799,0.604-20.94,0.805c-17.114,0.336-20.201,0.268-19.731-0.47
	c2.08-3.557,19.194-20.067,20.47-19.866C-171.86,424.93-166.96,429.292-161.524,434.527z M-153.739,447.547
	c0,0.201-1.14,1.208-2.483,2.08l-11.275,7.517c-4.765,3.222-12.35,8.39-16.779,11.544c-4.43,3.087-8.255,5.638-8.456,5.638
	c-0.47,0-1.275-13.625-1.275-20.94c0-3.087,0.268-4.698,0.872-4.9C-190.652,447.547-153.739,446.607-153.739,447.547z
	 M-197.362,450.97c0.067,3.624,0.537,12.215,1.074,18.456c0.268,3.691,0.201,4.9-0.47,4.9c-0.872,0-9.799-4.766-12.685-6.779
	c-3.557-2.483-11.275-7.181-15.1-9.329c-1.934-1.063-3.837-2.182-5.705-3.356c-0.94-0.67-3.356-2.013-5.369-3.087l-3.691-1.879
	l4.362-0.47c2.416-0.268,7.852-0.47,12.08-0.537c4.229-0.067,7.719-0.201,7.786-0.268c0.067-0.067,4.094-0.202,8.926-0.336
	l8.792-0.201C-197.362,448.084-197.362,450.97-197.362,450.97z"/>
</svg>
