<?xml version="1.0" encoding="iso-8859-1"?>
<!-- Generator: Adobe Illustrator 19.0.0, SVG Export Plug-In . SVG Version: 6.00 Build 0)  -->
<svg version="1.2" baseProfile="tiny" id="Layer_1" xmlns="http://www.w3.org/2000/svg" xmlns:xlink="http://www.w3.org/1999/xlink"
	 x="0px" y="0px" viewBox="-247 362.89 100 116" xml:space="preserve">
<title>face_00072</title>
<path d="M-175.191,363.625c-6.967,1.93-11.737,5.413-18.114,13.237c-1.876,2.304-3.483,4.18-3.59,4.18
	c-0.108,0-1.019-1.286-2.09-2.894c-5.361-8.092-14.845-13.987-23.367-14.47c-8.467-0.535-14.362,2.09-19.99,8.79
	c-4.662,5.627-6.002,14.523-3.161,21.65c2.143,5.306,7.18,10.29,12.915,12.701c4.823,2.036,12.647,4.18,14.577,3.966
	c1.125-0.107,9.164-1.233,10.986-1.5c0.75-0.162,0.375,6.805-0.536,9.967c-0.429,1.393-0.75,2.626-0.75,2.787
	c-0.054,0.16-0.43,1.125-0.858,2.197c-0.429,1.072-0.804,2.144-0.804,2.358c0,0.214-0.321,0.643-0.696,0.965
	c-0.536,0.482-1.18,0.268-2.68-0.697c-2.304-1.608-3.323-1.661-5.466-0.322c-3.108,1.876-3.43,6.11-0.697,9.004
	c0.643,0.696,1.072,1.286,0.911,1.393c-0.107,0.107-1.608,0.429-3.322,0.804c-4.877,0.964-8.36,2.84-12.005,6.538
	c-4.34,4.34-5.788,7.824-4.93,11.897c1.233,5.734,3.323,8.896,8.896,13.451c4.609,3.752,12.272,6.86,18.65,7.61
	c7.824,0.911,18.327,0.911,22.775,0.054c5.627-1.126,14.095-3.859,16.614-5.36c1.116-0.69,2.261-1.333,3.43-1.929
	c0.857-0.428,3.536-2.518,5.948-4.662c3.751-3.27,4.716-4.502,6.752-8.521c2.305-4.555,2.358-4.716,2.358-10.075
	c0-5.68-0.16-6.216-3.483-10.129c-2.358-2.84-10.825-4.555-14.791-3.054c-1.769,0.696-2.25,0.268-1.393-1.072
	c1.179-1.876,0.803-4.609-0.75-5.841c-1.984-1.555-4.449-1.394-7.235,0.428c-1.287,0.858-2.52,1.447-2.734,1.34
	c-1.607-1.018-3.483-7.235-3.965-13.13c-0.375-4.555-0.054-5.144,2.304-4.18c0.858,0.375,4.502,0.643,8.735,0.59
	c6.485,0,7.61-0.161,10.986-1.394c8.039-3.054,13.773-7.985,16.989-14.683c1.554-3.216,1.768-4.073,1.768-8.146
	c-0.053-7.664-1.876-12.97-6.163-17.846c-4.929-5.573-14.307-8.092-22.023-6.002H-175.191z M-170.315,388.92
	c0,0.482-3.162,4.77-4.233,5.734c-1.876,1.715-4.556,2.412-7.128,1.822c-2.733-0.536-5.037-2.144-4.502-3.055
	c0.75-1.232,7.074-4.072,10.236-4.608C-172.941,388.277-170.315,388.33-170.315,388.92z M-220.208,390.688
	c3.591,0.59,9.808,3.162,10.504,4.288c0.483,0.803-1.983,3.215-3.162,3.215c-0.428,0-0.857,0.375-1.071,0.804
	c-0.644,1.715-3.109,0.91-8.253-2.68c-1.394-1.018-3.484-4.876-3.055-5.627C-224.816,390.045-224.441,390.045-220.208,390.688z
	 M-150.647,392.403c-0.16,0.429-0.322,0.268-0.322-0.321c-0.053-0.59,0.108-0.911,0.268-0.697
	C-150.54,391.545-150.486,392.028-150.647,392.403z M-181.569,448.995c0,1.822-3.108,4.823-6.323,6.056
	c-4.556,1.714-13.13,1.768-17.417,0.053c-1.715-0.697-3.752-1.822-4.556-2.519l-1.393-1.232l2.09-0.59
	c3.751-1.071,8.092-1.34,10.022-0.59c5.84,2.198,5.305,2.144,8.092,0.751c2.036-1.072,7.074-2.626,9.11-2.84
	C-181.73,448.03-181.569,448.459-181.569,448.995L-181.569,448.995z M-215.33,458.48c0.59,0.697,0.59,0.965,0.054,1.5
	c-0.536,0.483-0.643,0.43-0.483-0.374c0.054-0.536-0.16-1.126-0.589-1.286c-0.536-0.161-0.643,0.053-0.429,0.964
	c0.215,0.858,0.161,1.072-0.268,0.643c-0.643-0.643-0.214-2.25,0.536-2.25c0.268,0,0.804,0.375,1.18,0.803L-215.33,458.48z"/>
</svg>
