<?xml version="1.0" encoding="iso-8859-1"?>
<!-- Generator: Adobe Illustrator 19.0.0, SVG Export Plug-In . SVG Version: 6.00 Build 0)  -->
<svg version="1.2" baseProfile="tiny" id="Layer_1" xmlns="http://www.w3.org/2000/svg" xmlns:xlink="http://www.w3.org/1999/xlink"
	 x="0px" y="0px" viewBox="-247 368.89 100 105" xml:space="preserve">
<title>face_00111</title>
<path d="M-221.392,369.116c-5.533,0.2-10.267,0.467-10.4,0.667c-0.2,0.2,4.333,0.333,10.067,0.333
	c5.733-0.067,10.6-0.333,10.666-0.6c0.134-0.267,0.134-0.533,0-0.6C-211.125,368.849-215.792,368.916-221.392,369.116z
	 M-240.859,372.25c0.067,1.534,0.134,1.6,0.4,0.4c0.267-1.266,0.8-1.533,3.734-1.733l3.466-0.2l-3.8-0.133
	C-240.859,370.45-240.925,370.45-240.859,372.25z M-176.192,371.317c0.867,0.267,5.333,0.533,9.933,0.467
	c4.6-0.134,9.867-0.134,11.8-0.067l3.467,0.067l0.267,3.8l0.2,3.866l0.133-4.133l0.133-4.067l-3.133-0.4
	C-158.725,370.25-177.992,370.584-176.192,371.317z M-245.325,381.45c0.066,5.134-0.134,13.8-0.4,19.334
	c-0.4,9.666-0.4,9.533,0.6-3.134c0.8-9.733,0.866-14.733,0.4-19.333l-0.6-6.2C-245.325,372.117-245.325,381.45-245.325,381.45z
	 M-232.392,373.65c-3.733,0.134-5.867,0.467-5.867,0.934c0,0.466,1.4,0.6,4.534,0.333c2.466-0.267,8.733-0.467,14-0.467
	c5.2,0,9.466-0.2,9.466-0.533C-210.259,373.45-221.659,373.317-232.392,373.65z M-241.392,376.784c0,1.466,0.133,2,0.267,1.133
	c0.133-0.8,0.133-2,0-2.667C-241.325,374.65-241.459,375.317-241.392,376.784z M-172.592,375.717c3.667,0.667,8.533,1.6,10.8,2.067
	c2.933,0.533,4.467,0.6,5.333,0.066c1-0.533,0.667-0.666-1.8-0.733c-1.666,0-4.8-0.467-7-0.933c-2.2-0.534-6.266-1.134-9-1.334
	l-5-0.4C-179.259,374.45-172.592,375.717-172.592,375.717z M-147.459,376.784c0,1.066,0.134,1.466,0.334,0.8
	c0.133-0.6,0.133-1.534,0-2C-147.325,375.184-147.459,375.65-147.459,376.784z M-188.592,378.249c0.067,1.067,0.2,3.067,0.267,4.534
	l0.2,2.666l0.933-2.2c0.533-1.2,1.333-2.333,1.8-2.533c0.867-0.333,4.667,0.267,11,1.6c1.533,0.333,2.8,0.467,2.8,0.2
	c0-0.533-9.8-2.733-12.4-2.733c-1.067,0-2.333,0.333-2.8,0.8c-0.6,0.6-0.8,0.266-0.8-1.667c0-1.333-0.267-2.467-0.6-2.467
	C-188.459,376.449-188.659,377.249-188.592,378.249z M-237.592,377.249c0,0.134-0.2,8.934-0.467,19.6l-0.4,19.4l4.334,0.8
	c2.333,0.4,4.8,0.734,5.4,0.734c0.933,0,1.133,0.733,1.133,4c0,2.2,0.2,4,0.533,4c0.267,0,0.4-2,0.334-4.467l-0.067-4.533
	l-4.667-0.4c-2.6-0.267-5.066-0.667-5.533-0.934c-0.6-0.4-0.733-4.733-0.333-19.466c0.2-10.334,0.266-18.867,0.066-18.867
	C-237.459,377.116-237.592,377.183-237.592,377.249z M-206.592,382.583l0.333,5.533l-1.066-2.867c-1-2.8-1.067-2.8-4.134-2.733
	c-1.733,0.067-2.4,0.2-1.466,0.4c3.8,0.6,4.666,0.933,4.666,2c0,0.533,0.334,2.267,0.8,3.733c0.667,2.134,0.867,2.4,1.267,1.4
	c0.733-1.866,0.667-12.133-0.067-12.6C-206.659,377.183-206.792,379.116-206.592,382.583z M-183.592,377.916
	c0,0.8,1.4,1.067,6.533,1.4c3.534,0.267,8.867,0.6,11.8,0.867c2.934,0.266,5.2,0.266,5,0.066c-0.2-0.2-2.4-0.533-5-0.8
	c-2.533-0.266-7.066-0.666-10-1c-2.933-0.333-5.533-0.4-5.866-0.2c-0.267,0.134-0.934-0.066-1.467-0.466
	C-183.392,377.116-183.592,377.183-183.592,377.916z M-234.459,378.183c-0.733,0.8-0.533,17.733,0.334,27.133l0.8,8.533l3-0.066
	c1.666-0.067,6.066-0.067,9.733-0.067l6.667,0.067l0.066,5.133c0.067,2.867,0.334,8.933,0.6,13.4c0.6,9.467,0.8,9.133-5,9.933
	c-2,0.267-3.866,0.534-4.133,0.6c-0.333,0.067-1,0.134-1.533,0.2c-0.867,0.067-1,2.067-1,13.934v13.933l1.666,0.733
	c1,0.467,5.134,0.8,9.867,0.8c4.467,0,11.133,0.334,14.8,0.734c8.067,0.8,24.6,0.866,27.333,0.066
	c2.334-0.666,2.734-2.133,3.267-11.466c0.333-6.267-0.133-4.534-1.133,4c-0.8,6.733-0.734,6.666-6.067,6.8
	c-8.933,0.266-16.067,0.2-21.4-0.267c-2.933-0.2-10-0.667-15.667-0.867c-5.666-0.266-10.733-0.8-11.133-1.133
	c-0.667-0.533-0.867-4.067-0.867-13.467v-12.733l4.334-0.867c2.333-0.4,5.266-0.8,6.4-0.8h2.066l-0.4-3.466
	c-0.2-1.934-0.533-8.467-0.8-14.534c-0.266-6.066-0.466-11.066-0.533-11.133c-0.067-0.067-4.467-0.267-9.733-0.333l-9.667-0.2
	l-0.867-8.334c-0.8-7.533-0.8-24.933,0-25.733c0.2-0.133,3,0,6.267,0.4c6.933,0.8,14.933,0.867,16.067,0.133
	c0.4-0.266-1.867-0.466-5-0.466c-3.2,0-8.534-0.267-11.8-0.534C-231.259,377.916-234.192,377.916-234.459,378.183z
	 M-204.192,386.449c0,4.067,0.2,7.267,0.467,7.067c0.8-0.467,1-13.533,0.2-14C-203.925,379.249-204.192,381.649-204.192,386.449z
	 M-241.325,391.116c0,6.4,0.133,9.067,0.2,5.8c0.133-3.2,0.133-8.4,0-11.667C-241.192,382.049-241.325,384.716-241.325,391.116z
	 M-156.125,385.783c-0.108,4.446-0.263,8.891-0.467,13.333c-0.267,7.067-0.2,7.267,0.4,3c0.333-2.6,0.533-8.6,0.4-13.333
	C-155.925,382.516-155.992,381.649-156.125,385.783z M-147.459,382.783c0,1.066,0.134,1.466,0.334,0.8c0.133-0.6,0.133-1.534,0-2
	C-147.325,381.183-147.459,381.649-147.459,382.783z M-220.925,382.449l-3,0.467l2.8,0.067c1.533,0.066,3-0.2,3.2-0.534
	c0.2-0.4,0.333-0.6,0.2-0.533C-217.859,381.916-219.259,382.183-220.925,382.449z M-190.592,385.916
	c0.6,5.6,0.667,5.867,2.667,5.867c1.533,0,1.666-0.2,1.666-3.4v-3.467l8.2,0.333c4.467,0.2,6.934,0.134,5.467-0.133
	c-1.467-0.333-5.2-0.6-8.333-0.733l-5.667-0.267l-0.2,3.467c-0.2,3-0.4,3.533-1.533,3.533c-1.134,0-1.267-0.467-1.267-4.267
	c0-2.4-0.333-4.533-0.733-4.733C-190.792,381.783-190.859,382.983-190.592,385.916z M-160.392,386.449
	c-0.133,2.6,0,4.667,0.333,4.667c0.267,0,0.467-2.133,0.467-4.667c0-2.6-0.133-4.666-0.267-4.666
	C-159.992,381.783-160.259,383.916-160.392,386.449z M-232.259,383.649c0,0.667,0.6,3.734,1.4,6.8c0.934,3.6,1.334,6.8,1.134,9.067
	c-0.2,1.933-0.067,3.4,0.266,3.2c0.867-0.533,0.6-9.067-0.4-11.933c-0.533-1.467-1.066-3.734-1.2-5
	c-0.2-2.2-0.066-2.334,1.667-2.134c1,0.067,1.8-0.133,1.8-0.533c0-0.333-1.067-0.667-2.333-0.667
	C-231.725,382.449-232.259,382.716-232.259,383.649z M-167.859,383.116c5,0.733,5.134,0.933,4.667,5.267
	c-0.267,2.066-0.533,5.666-0.733,8.066l-0.267,4.334l0.6-3.667c0.267-2,0.733-5.667,1.067-8.133c0.6-5.8,0.066-6.534-5-6.467
	l-3.734,0.067C-171.259,382.583-167.859,383.116-167.859,383.116z M-168.859,385.316c0.8,0.6,1.134,2.533,1.467,8.067
	c0.267,4,0.667,7.466,0.867,7.666c0.266,0.2,0.266-2.133,0-5.266c-0.2-3.134-0.4-6.934-0.4-8.534c0-2.466-0.2-2.8-1.467-2.8
	C-169.725,384.516-169.792,384.583-168.859,385.316z M-225.525,385.583l-2.934,0.266l0.534,4.134c0.266,2.266,0.6,6.533,0.733,9.4
	c0.2,2.933,0.4,5.466,0.533,5.533c0.134,0.133,2.267-0.067,4.734-0.533c2.466-0.4,6.2-0.6,8.266-0.4c5,0.533,5.667,0.066,5.267-3.8
	l-0.4-3.134l2.267,0.2l2.266,0.2l0.267,15.334c0.133,8.4,0.467,17.333,0.733,19.8l0.534,4.533h-1.8
	c-1.667,0-1.734,0.067-1.734,4.333c0,4.2,0.067,4.334,1.667,4.334c0.933,0,1.667,0.266,1.667,0.533c0,0.533-9.6,2.133-12.867,2.133
	h-1.8l0.133,5.467l0.134,5.533l0.333-5l0.4-5l3-0.466c1.667-0.2,4.867-0.467,7.2-0.467l4.133-0.067v-2c0-1.666-0.266-2-1.666-2
	c-1.534,0-1.667-0.2-1.667-3.333c0-3.267,0-3.333,1.733-2.933l1.8,0.466l-0.533-8.266c-0.667-10.867-0.8-29-0.2-31.8l0.467-2.134
	h-7.267l0.2,3.134l0.133,3.2l-6.333,0.133c-3.467,0.133-7.2,0.467-8.267,0.867c-1.066,0.333-2,0.6-2.066,0.533
	c-0.067-0.133-0.334-3.2-0.534-6.867c-0.266-3.666-0.6-7.6-0.866-8.733l-0.4-2.067l6.933-0.466c3.733-0.2,7.467-0.267,8.2-0.134
	c0.733,0.2,1.733,0.334,2.2,0.334c0.4,0.066,0.8,0.533,0.8,1.2c0,0.6,0.2,0.933,0.4,0.666c0.2-0.2,0.2-1-0.067-1.733
	c-0.4-1.333-0.866-1.4-6.866-1.267C-219.659,385.316-223.925,385.449-225.525,385.583z M-151.792,388.583
	c-0.467,4.133-0.6,37.533-0.133,37.066c0.2-0.2,0.533-9.266,0.733-20.133C-150.859,387.116-150.992,381.849-151.792,388.583z
	 M-200.392,387.583c-0.4,0.666-0.133,58.133,0.2,58.466c0.133,0.134,1.667,0.4,3.4,0.667c2.667,0.4,3.2,0.267,3.8-0.8
	c0.4-0.733,0.533-1.4,0.4-1.6c-0.467-0.467-0.467-19.067,0.067-37.933c0.533-19.8,0.933-18.134-4.6-18.934
	C-198.725,387.183-200.259,387.249-200.392,387.583z M-224.459,388.916c-0.266,0.2-0.466,2.867-0.466,5.933
	c0,6.4-0.134,6.267,6.933,6.267c6.2,0,6.933-0.733,7.133-6.733c0.067-2.4-0.066-4.734-0.333-5.134
	C-211.725,388.383-223.659,388.116-224.459,388.916z M-182.525,389.583c-0.2,0.533-0.4,3.333-0.4,6.2c0,4.4,0.2,5.4,1.2,5.866
	c1.733,0.867,10.2,0.334,11.2-0.666c0.933-1,1.533-10.4,0.666-11.734C-170.659,387.983-182.059,388.249-182.525,389.583z
	 M-209.592,390.783c0,0.533,0.267,1,0.667,1c0.333,0,0.466-0.467,0.266-1c-0.266-0.534-0.533-1-0.666-1
	C-209.459,389.783-209.592,390.249-209.592,390.783z M-160.192,392.849c0,0.734,0.2,0.934,0.4,0.4
	c0.2-0.466,0.133-1.066-0.067-1.266C-160.059,391.716-160.259,392.116-160.192,392.849z M-208.392,393.583
	c0.4,0.133,1.2,0.133,1.667,0c0.4-0.2,0.066-0.334-0.867-0.334S-208.859,393.383-208.392,393.583z M-147.459,396.783
	c-0.733,15-0.733,17.333-0.066,14.133c0.333-1.8,0.533-6.4,0.4-10.333C-147.192,396.649-147.392,394.916-147.459,396.783z
	 M-190.925,395.783c0,0.333,0.2,0.6,0.533,0.6c0.267-0.067,1.267-0.067,2.333,0c1.534,0.066,1.8,0.333,1.867,2.2l0.067,2.2
	l0.6-2.267c0.4-1.2,0.533-2.333,0.4-2.467C-185.725,395.383-190.925,395.183-190.925,395.783z M-160.259,401.583
	c-0.2,1.533-0.133,2.6,0.2,2.266c0.334-0.333,0.467-1.6,0.334-2.8C-159.925,398.849-159.992,398.849-160.259,401.583z
	 M-186.925,401.583c-0.067,2,2,2.666,9.466,3.066c9.067,0.4,11.2,0.134,11.2-1.6c0-0.733-0.266-1.266-0.666-1.266
	c-0.334,0-0.667,0.466-0.667,1.133c0,0.933-0.867,1-8.733,0.6c-7.267-0.333-8.934-0.6-9.667-1.6
	C-186.459,401.316-186.925,401.116-186.925,401.583z M-164.925,405.449v2.334l-5.134,0.133c-2.866,0.067-7.933,0.133-11.333,0.2
	c-3.333,0-6.267,0.133-6.4,0.333s-0.4,5-0.6,10.667c-0.2,5.867-0.133,8.867,0.2,7c0.267-1.867,0.533-5.933,0.533-9.133
	c0.067-3.134,0.267-6.2,0.467-6.8c0.333-0.934,2-1.067,11.667-1.067h11.265v-3c0-1.667-0.133-3-0.333-3
	S-164.926,404.183-164.925,405.449L-164.925,405.449z M-230.125,405.449c0,1.067,0.133,1.467,0.333,0.8c0.133-0.6,0.133-1.533,0-2
	C-229.992,403.849-230.125,404.316-230.125,405.449z M-240.725,407.116c0,1.667,0.133,2.333,0.266,1.467c0.134-0.8,0.134-2.134,0-3
	C-240.592,404.783-240.725,405.449-240.725,407.116z M-160.792,407.783c0,1.266,0.133,1.8,0.333,1.133
	c0.134-0.6,0.134-1.667,0-2.333C-160.659,405.983-160.792,406.516-160.792,407.783z M-157.659,408.449c-0.066,0.734-0.2,1.6-0.266,2
	c-0.067,0.334-0.2,2.2-0.267,4.067l-0.067,3.4l-2.466-0.133c-4.067-0.2-4.734,0.133-1.534,0.733c3.267,0.533,6.667,0.2,6.667-0.733
	c0-0.334-0.4-0.467-0.867-0.267c-0.733,0.267-0.866-0.733-0.6-5.067c0.134-2.933,0.134-5.333-0.133-5.333
	C-157.392,407.116-157.659,407.716-157.659,408.449z M-230.259,408.449c0,0.267,4.867,0.534,10.8,0.6
	c5.934,0.067,10.867,0.2,11,0.334c0.134,0.133,0.334,3.066,0.467,6.466c0.133,3.467,0.467,8.867,0.733,12.067
	c0.4,4.067,0.334,5.867-0.2,5.867c-1.8,0-2.8,2.2-2.8,6.266v4.2l-4.666,0.467c-2.534,0.267-4.8,0.8-5.067,1.2
	c-0.267,0.4,0.067,0.533,0.8,0.267c0.733-0.2,3.133-0.4,5.4-0.467l4.133-0.133l0.2-5.067c0.2-4.667,0.334-5.067,1.734-5.267
	l1.466-0.2l-0.4-12.8c-0.2-7.066-0.466-13.133-0.6-13.533C-207.525,407.849-230.259,407.583-230.259,408.449z M-246.459,412.649
	c-0.733,1.934-0.6,2.867,0.267,2c0.4-0.4,0.6-1.266,0.467-1.933C-245.925,411.516-245.992,411.516-246.459,412.649z
	 M-173.592,412.516c-0.933,0.267-3.2,0.467-5.067,0.533c-3,0.067-3.466,0.267-3.866,1.534c-0.2,0.866-0.4,7.6-0.4,15.066
	c0,10.467,0.2,13.467,0.866,13.4c1.534-0.333,11.467,0.867,12.6,1.467c0.8,0.467,1.2,1.733,1.4,4.467c0.2,3.333,0.267,3.2,0.2-0.867
	l-0.066-4.6l-6.467-0.8c-3.6-0.467-6.8-1-7.133-1.2c-0.6-0.4-0.667-26.733,0-27.333c0.2-0.267,4.933-0.534,10.533-0.667
	c10.6-0.333,14.533-1,6-1.133c-2.733,0-5.4-0.134-5.933-0.2C-171.459,412.049-172.659,412.249-173.592,412.516L-173.592,412.516z
	 M-148.459,414.916c-0.266,0.2-0.4,4.333-0.333,9.133l0.133,8.734l0.4-9C-147.859,413.916-147.859,414.249-148.459,414.916z
	 M-191.792,419.583c-0.6,5.666-0.6,14.066-0.067,16c0.334,1.133,0.934,1.533,2.334,1.533c1.6,0,1.933,0.267,1.933,1.6
	c0,0.867,0.2,2.067,0.4,2.667c0.333,0.866-0.067,1.066-1.667,1.066h-2.133l0.2,3.8l0.2,3.867l7.533-0.2l7.467-0.267v5.267
	c0,2.867-0.2,5.867-0.4,6.667c-0.533,2-1.867,2.2-17.4,2.8c-0.867,0.066-1.533,0.466-1.533,1c0,2.133-2.667,1.8-3.467-0.4
	c-0.267-0.6-6.133-0.934-13.667-0.667c-9.266,0.267-6.133,1.133,3.934,1.133c9.466,0,9.533,0,9.733,1.534
	c0.2,1.066,0.533,1.466,1.267,1.2c0.533-0.2,1.333-0.4,1.866-0.4c0.467,0,1-0.534,1.134-1.2c0.333-1.134,1.333-1.334,8.666-1.667
	c4.6-0.267,8.8-0.6,9.4-0.867c0.934-0.333,1.134-1.533,1.134-7.666c0-7.067-0.067-7.267-1.467-7.334c-3-0.2-4.267-0.133-8.467,0.334
	c-4.733,0.6-5.4,0.2-5.4-3.4c0-1.8,0.267-2.134,1.867-2.334c1.667-0.2,1.8-0.4,1.8-3.2c0-4.2-0.267-4.8-2.267-4.533
	c-1.6,0.2-1.8-0.067-2.2-2.8c-0.266-1.667-0.266-6.4-0.066-10.533C-190.725,414.383-191.125,412.449-191.792,419.583z
	 M-241.392,421.116c0,2,0.133,2.867,0.267,1.8c0.133-1,0.133-2.6,0-3.667C-241.259,418.249-241.392,419.116-241.392,421.116z
	 M-246.725,420.85c0,1.134,0.133,1.467,0.466,0.867c0.334-0.4,0.4-1.2,0.2-1.733C-246.592,418.717-246.725,418.917-246.725,420.85z
	 M-164.192,420.85c0,0.734,0.2,0.934,0.4,0.4c0.2-0.466,0.133-1.066-0.067-1.266C-164.059,419.717-164.259,420.117-164.192,420.85z
	 M-246.459,433.583c0.4,14.133,0.8,14.533,0.8,0.666c-0.066-6.133-0.266-11.133-0.533-11.133S-246.592,427.849-246.459,433.583z
	 M-163.992,433.116c0,4.933,0.067,7,0.2,4.467c0.133-2.467,0.133-6.467,0-9C-163.925,426.116-163.992,428.183-163.992,433.116z
	 M-241.059,435.05c0.2,9.067,0.2,9.2,1.867,10c0.933,0.4,2.533,0.734,3.6,0.734h2l0.067,7.8c0.066,4.333,0.066,10.533,0.133,13.733
	c0,3.667,0.2,5.533,0.6,5c0.533-0.867,0-26.333-0.6-27.4c-0.133-0.267-1.467-0.467-2.867-0.467c-1.8,0-2.8-0.333-3.2-1.2
	c-0.333-0.6-0.666-4.6-0.733-8.8s-0.333-7.866-0.6-8.133C-241.059,426.05-241.192,429.984-241.059,435.05z M-152.925,433.384
	c0,7.533-0.134,7.733-4,7.733c-3.734,0-4,0.4-3.867,5.6l0.067,4.733l0.4-4.333l0.4-4.333l3.533-0.2c2-0.134,3.667-0.534,3.8-1
	c0.533-1.534,0.667-15.134,0.2-15.134C-152.725,426.45-152.925,429.584-152.925,433.384z M-227.459,446.584
	c-0.466,10-1,20.2-1.333,22.666c-0.267,2.467-0.267,4.267,0,4c0.8-0.866,1.8-13.533,2.267-29.333
	c0.266-8.467,0.333-15.467,0.133-15.467C-226.592,428.45-227.059,436.65-227.459,446.584z M-189.592,430.25
	c0,1.667,1.333,4.2,2.267,4.2c0.533,0,1.333,0.534,1.666,1.134c0.6,1.066,0.667,1.066,0.734-0.334c0-1.066-0.4-1.466-1.334-1.466
	c-0.933,0-1.733-0.734-2.333-2.2C-189.125,430.45-189.525,429.784-189.592,430.25z M-147.925,453.917
	c0,10.2,0.2,17.667,0.533,16.667c0.533-1.934,0.4-24.6-0.2-31.134C-147.792,437.25-147.925,443.784-147.925,453.917z
	 M-185.86,444.583c-0.533,2.133-0.533,2.333,0.467,2.733c0.6,0.2,0.8-0.333,0.6-1.933
	C-185.126,442.716-185.326,442.583-185.86,444.583z M-164.66,449.783c0,3.866,0.067,5.4,0.2,3.466c0.134-1.866,0.134-5.066,0-7
	C-164.593,444.383-164.66,445.916-164.66,449.783z M-245.526,448.183c0.066,1.4,0.333,3.466,0.666,4.6
	c0.334,1.333,0.4,0.6,0.2-2.334C-245.06,445.716-245.66,444.049-245.526,448.183z M-180.593,446.449c-2.2,0.4-1.8,0.467,2.467,0.6
	l5.133,0.067l0.4,2.867c0.533,3.533,0.2,18.2-0.467,18.8c-0.266,0.266-7.733,0.4-16.666,0.266
	c-8.934-0.066-19.134-0.133-22.667-0.066l-6.467,0.066l-0.266-2.466c-0.267-2-0.267-1.934-0.2,0.533l0.066,3l3-0.333
	c1.667-0.134,4.2-0.2,5.667-0.2c11.533,0.533,36.867,0.6,37.867,0.066c1-0.533,1.133-1.733,1.133-10.733
	c0-13-0.067-13.133-3.6-13.067C-176.66,445.916-179.126,446.183-180.593,446.449L-180.593,446.449z M-220.126,449.116
	c0,0.933,0.133,1.267,0.333,0.8c0.133-0.4,0.133-1.2,0-1.667C-219.993,447.849-220.126,448.183-220.126,449.116z M-208.193,451.783
	c-7.4,0.4-8.267,1.066-6.8,5.133c1.333,3.8,2,4.333,4.667,3.933c1.333-0.2,8.466-0.533,15.933-0.733
	c18.133-0.533,18.333-0.6,16.8-4.467c-1.667-4.266-2.267-4.466-13.867-4.333C-197.193,451.383-204.726,451.583-208.193,451.783z
	 M-220.06,454.116c0,1.467,0.134,2,0.267,1.133c0.133-0.8,0.133-2,0-2.666C-219.993,451.983-220.126,452.649-220.06,454.116z
	 M-160.326,456.583c0.266,1.866,0.4,1.933,0.6,0.6c0.133-0.867,0-1.8-0.334-2.134C-160.46,454.649-160.526,455.249-160.326,456.583z
	 M-220.06,459.449c0,1.467,0.134,2,0.267,1.134c0.133-0.8,0.133-2,0-2.667C-219.993,457.316-220.126,457.983-220.06,459.449z
	 M-160.126,462.516c-0.067,1.667-0.267,4.533-0.467,6.333l-0.333,3.267l0.733-2.667c0.333-1.466,0.533-4.333,0.4-6.333
	C-159.993,459.516-159.993,459.516-160.126,462.516z M-164.193,461.516c0,0.733,0.2,0.933,0.4,0.4
	c0.2-0.467,0.133-1.067-0.067-1.267C-164.06,460.383-164.26,460.783-164.193,461.516z M-164.193,464.849c0,0.734,0.2,0.934,0.4,0.4
	c0.2-0.466,0.133-1.066-0.067-1.266C-164.06,463.716-164.26,464.116-164.193,464.849z M-244.259,468.383
	c0,1.466-0.2,3.066-0.4,3.666c-0.2,0.6-0.133,1.067,0.2,1.067c0.334,0,0.734-1.667,0.8-3.667c0.067-2,0-3.666-0.2-3.666
	C-244.125,465.783-244.259,466.983-244.259,468.383z M-164.192,469.516c0,0.733,0.2,0.933,0.4,0.4
	c0.2-0.467,0.133-1.067-0.067-1.267C-164.059,468.383-164.259,468.783-164.192,469.516z"/>
</svg>
