<?xml version="1.0" encoding="iso-8859-1"?>
<!-- Generator: Adobe Illustrator 19.0.0, SVG Export Plug-In . SVG Version: 6.00 Build 0)  -->
<svg version="1.2" baseProfile="tiny" id="Layer_1" xmlns="http://www.w3.org/2000/svg" xmlns:xlink="http://www.w3.org/1999/xlink"
	 x="0px" y="0px" viewBox="-247 366.89 100 109" xml:space="preserve">
<title>face_00066</title>
<path d="M-180.454,367.477c-0.435,0.707,0.054,11.31,0.87,18c0.326,2.61,0.49,5.818,0.38,7.068
	c-0.108,1.795,0.055,2.339,0.707,2.502c0.816,0.163,0.87-0.544,0.707-5.873c-0.054-3.263-0.272-6.2-0.435-6.417
	c-0.109-0.217-0.326-3.48-0.38-7.177c-0.055-3.752-0.218-7.233-0.381-7.776C-179.258,366.77-179.965,366.607-180.454,367.477z
	 M-176.974,367.532c-0.055,1.849,0.163,9.57,0.38,11.038c0.11,0.87,0.381,4.894,0.599,8.81c0.272,5.872,0.489,7.232,1.142,7.232
	c0.706,0,0.76-1.251,0.38-9.68c-0.544-13.593-0.979-17.672-1.74-17.943C-176.593,366.88-176.92,367.098-176.974,367.532
	L-176.974,367.532z M-172.896,368.293c-0.217,0.761-0.217,2.501,0,3.915c0.163,1.414,0.326,7.504,0.38,13.54
	c0.055,8.592,0.218,11.039,0.762,11.039c0.924,0,1.196-2.393,1.088-8.646c-0.11-2.882-0.218-8.7-0.272-12.942
	c-0.109-5.873-0.327-7.776-0.87-7.994C-172.298,367.042-172.678,367.423-172.896,368.293z M-226.729,375.145
	c0.163,3.97,0.598,10.223,0.924,13.866c0.598,6.036,0.761,6.688,1.686,6.688c0.87,0,1.033-0.272,0.76-1.522
	c-0.271-1.305-0.597-5.003-1.74-20.772c-0.38-4.949-0.489-5.438-1.413-5.438C-226.892,367.967-226.947,370.197-226.729,375.145z
	 M-223.359,368.402c-0.162,0.272-0.053,4.73,0.218,9.95c0.327,5.221,0.599,10.93,0.707,12.725c0.163,3.372,0.598,4.622,1.577,4.622
	c0.435,0,0.49-1.631,0.218-5.329c-0.163-2.882-0.49-8.591-0.653-12.615c-0.163-4.024-0.38-7.885-0.544-8.592
	c-0.217-1.196-0.978-1.577-1.522-0.761H-223.359z M-220.204,371.284c0.163,1.903,0.49,5.818,0.598,8.646
	c0.49,9.08,1.468,15.77,2.284,15.77c0.815,0,0.761-1.904-0.598-19.577c-0.544-7.014-0.707-7.884-1.632-8.047
	C-220.53,367.858-220.53,368.13-220.204,371.284z M-183.391,377.32c0.218,14.518,0.544,18.053,1.795,18.27
	c0.924,0.218,0.979,0,0.598-1.576c-0.326-1.469-0.816-16.64-0.816-24.579c0-0.979-0.272-1.468-0.815-1.468
	C-183.391,367.967-183.499,369.217-183.391,377.32z M-169.471,368.347c-0.217,0.164-0.38,6.634-0.38,14.302
	c0,11.419,0.163,14.138,0.762,14.627c0.489,0.38,0.924,0.435,1.087,0.109c0.163-0.272,0.272-7.015,0.218-14.954
	c-0.164-13.811-0.327-15.443-1.686-14.084L-169.471,368.347z M-230.373,368.837c-0.326,0.38,0,13.703,0.435,18.706
	c0.109,1.033,0.218,3.752,0.218,5.981c0.054,4.405,0.652,6.145,1.74,5.057c0.49-0.49,0.49-2.719,0-9.516
	c-0.326-4.894-0.707-11.419-0.761-14.519c-0.11-5.274-0.544-6.797-1.632-5.71V368.837z M-216.453,373.513
	c0.762,13.323,1.632,22.513,2.067,23.002c0.816,0.816,1.577-0.816,1.305-2.719c-0.109-0.87-0.49-6.036-0.815-11.42
	c-0.762-12.289-0.925-13.322-1.958-13.322c-0.761,0-0.816,0.653-0.598,4.46L-216.453,373.513z M-186.98,371.338
	c0.218,2.012,0.762,18.652,0.816,23.654c0,1.305,0.272,1.795,0.87,1.795c0.816,0,0.87-1.36,0.598-13.758
	c-0.163-7.504-0.326-13.757-0.326-13.866c-0.054-0.054-0.544-0.109-1.142-0.109C-187.088,369.054-187.197,369.326-186.98,371.338z
	 M-166.316,369.598c-0.163,0.272-0.163,0.816,0,1.142c0.217,0.272,0.435,6.852,0.544,14.519c0.163,11.202,0.326,13.975,0.924,13.975
	c0.924,0,1.196-8.918,0.707-21.37c-0.326-6.798-0.544-8.81-1.088-8.81C-165.664,369.054-166.153,369.272-166.316,369.598z
	 M-212.591,370.305c-0.163,0.49-0.163,2.284,0,4.024c0.163,1.74,0.326,7.395,0.38,12.507c0.055,10.223,0.218,11.582,1.414,11.582
	c0.707,0,0.761-1.686,0.435-12.67c-0.49-15.334-0.49-14.954-1.25-15.715C-212.102,369.543-212.319,369.653-212.591,370.305
	L-212.591,370.305z M-162.455,374.873c0.217,2.61,0.435,9.516,0.435,15.334c0.054,7.124,0.271,10.604,0.652,10.767
	c0.761,0.272,1.305-15.117,0.816-24.035c-0.272-5.764-0.435-6.525-1.305-6.688C-162.837,370.033-162.837,370.359-162.455,374.873z
	 M-190.242,371.229c-0.218,0.327-0.163,3.317,0.054,6.689c0.163,3.371,0.49,9.407,0.707,13.431c0.218,5.329,0.49,7.341,1.033,7.341
	c0.326,0,0.653-0.272,0.707-0.544c0.163-1.414-0.707-25.666-0.924-26.536c-0.327-1.033-1.033-1.196-1.577-0.38V371.229z
	 M-234.234,371.719c-0.217,0.326-0.217,3.045-0.054,6.144c0.326,5.22,1.305,18.924,1.523,21.37c0.054,0.599,0.543,1.143,1.087,1.251
	c0.87,0.164,0.925-0.217,0.653-4.35c-0.163-2.501-0.435-6.09-0.653-8.048c-0.163-1.957-0.435-6.47-0.652-10.005
	c-0.218-4.187-0.544-6.58-0.98-6.688C-233.635,371.283-234.07,371.393-234.234,371.719z M-209.057,372.426
	c-0.109,0.87-0.109,0.108,0.272,8.32c0.707,14.736,0.979,19.575,1.196,19.793c0.11,0.109,0.49,0.054,0.87-0.055
	c0.544-0.217,0.653-2.175,0.381-9.19c-0.38-9.896-1.033-18.488-1.414-19.14C-208.132,371.556-209.002,371.719-209.057,372.426z
	 M-158.757,373.676c-0.218,0.49-0.164,2.012,0.054,3.426c0.163,1.414,0.489,16.966,0.598,34.639
	c0.109,17.618,0.326,32.572,0.435,33.17c0.163,0.598,0.272,2.501,0.272,4.187c0.054,2.338,0.272,3.154,0.815,3.154
	c0.435,0,0.87-0.218,0.98-0.544c0.108-0.272,0-4.513-0.218-9.353c-0.164-4.894-0.381-18.651-0.435-30.614
	c-0.218-27.95-0.599-38.445-1.469-38.772C-158.105,372.861-158.595,373.187-158.757,373.676L-158.757,373.676z M-193.505,373.948
	c-0.163,0.272-0.054,3.915,0.272,8.048c0.326,4.078,0.598,10.114,0.707,13.431c0.109,5.33,0.217,5.982,1.087,6.145
	c0.98,0.218,1.034-0.218,0.653-7.885c-0.761-16.259-1.088-19.902-1.74-20.12C-192.852,373.459-193.287,373.622-193.505,373.948z
	 M-237.822,374.873c0,0.543,0.271,4.024,0.543,7.776c0.272,3.752,0.762,11.419,1.088,17.129c0.272,5.655,0.652,11.8,0.816,13.594
	c0.108,1.794,0.38,8.265,0.543,14.41c0.163,6.145,0.435,12.344,0.598,13.866c0.218,2.665,1.306,18.38,1.306,19.685
	c0,0.38,0.38,0.707,0.87,0.707c0.815,0,0.87-0.653,0.543-5.873c-0.543-9.19-1.36-24.687-1.685-33.551
	c-0.164-4.513-0.544-11.582-0.816-15.77c-0.272-4.186-0.653-10.93-0.816-14.953c-0.598-13.649-1.087-17.945-2.23-17.945
	C-237.496,373.948-237.822,374.383-237.822,374.873z M-206.012,375.036c-0.217,0.652-0.217,2.882-0.054,5.057
	c0.163,2.175,0.435,7.939,0.598,12.887c0.163,4.949,0.435,9.951,0.544,11.148c0.109,1.196,0.38,6.199,0.598,11.147
	c0.326,9.136,0.435,10.006,1.414,9.68c0.544-0.218,0.652-14.139,0.163-16.695c-0.109-0.598-0.49-8.374-0.816-17.292
	c-0.326-8.863-0.707-16.313-0.87-16.585C-204.925,373.622-205.631,373.893-206.012,375.036z M-196.278,387.923
	c0.163,7.124,0.435,15.008,0.598,17.564s0.38,7.45,0.49,10.876c0.163,5.165,0.38,6.307,1.087,6.416
	c1.088,0.218,1.142-2.719,0.326-16.422c-0.435-7.123-1.087-26.155-1.087-30.723c0-0.326-0.381-0.598-0.87-0.598
	C-196.604,375.036-196.604,376.178-196.278,387.923z M-240.487,381.67c0.109,6.525,1.414,27.515,2.12,34.149
	c0.545,4.676,1.034,13.268,2.067,34.801c0.326,5.982,0.544,7.341,1.196,7.341c0.925,0,1.034-1.468,0.435-11.093
	c-0.217-3.48-0.652-11.093-0.924-16.911c-0.326-5.818-0.816-13.05-1.142-16.041c-0.87-9.462-2.066-28.82-2.175-36.324
	c0-0.49-0.38-0.925-0.87-0.925C-240.487,376.667-240.596,377.483-240.487,381.67z M-154.462,412.012
	c0.109,30.126,0.218,34.258,0.924,34.15c1.088-0.218,1.306-14.03,0.816-45.46c-0.326-18.76-0.544-22.947-1.142-22.947
	C-154.462,377.755-154.571,383.465-154.462,412.012z M-151.036,383.084c-0.163,0.217-0.435,11.745-0.598,25.557
	c-0.218,18.053-0.163,25.449,0.272,26.264c0.38,0.598,0.815,0.98,0.978,0.762c0.218-0.218,0.381-6.417,0.435-13.758
	c0-7.395,0.11-19.195,0.218-26.155c0.109-8.7,0-12.833-0.435-12.997C-150.438,382.703-150.873,382.812-151.036,383.084z
	 M-243.586,390.642c0.108,4.133,0.054,6.036-0.11,4.296c-0.217-1.849-0.652-3.317-1.032-3.48c-0.544-0.163-0.707,1.033-0.707,4.73
	c0,4.133-0.163,4.949-0.87,4.949s-0.762,0.979-0.49,7.993c0.163,4.46,0.435,8.755,0.544,9.68c0.163,0.87,0.272,4.187,0.326,7.34
	c0.055,5.982,0.272,7.07,1.142,7.07c0.38,0,0.435-4.242,0.218-13.16c-0.435-13.703-0.163-17.346,0.435-6.416
	c0.761,13.866,0.924,16.313,1.468,22.566c0.652,7.396,0.816,8.32,1.577,7.559c0.544-0.544,0.326-5.71-1.088-26.319
	c-0.272-4.024-0.652-9.298-0.76-11.69l-0.273-4.351l0.761,5.166c0.87,6.036,2.284,23.871,2.774,35.889
	c0.217,4.622,0.598,8.755,0.924,9.135c1.305,1.632,1.631,0.544,1.25-4.078c-0.217-2.665-0.597-8.7-0.87-13.486
	c-0.705-11.963-2.01-27.025-2.445-28.385c-0.109-0.38-0.38-4.404-0.598-8.972c-0.435-10.114-0.816-13.05-1.686-13.322
	C-243.64,383.138-243.749,384.769-243.586,390.642z M-148.372,394.177c-0.108,0.38-0.326,6.688-0.435,14.029
	c-0.108,7.341-0.326,13.649-0.435,14.084c-0.108,0.435,0.163,0.87,0.653,0.979c1.305,0.326,1.468-1.305,1.577-16.314
	c0-9.135-0.163-13.43-0.544-13.43C-147.882,393.525-148.209,393.85-148.372,394.177z M-177.082,401.463
	c-0.871,0.87-0.382,2.393,0.76,2.393c0.816,0,1.088-0.272,0.925-1.196C-175.56,401.463-176.43,400.865-177.082,401.463
	L-177.082,401.463z M-180.019,402.551c-0.435,1.142,0.707,2.284,1.522,1.468c0.707-0.707,0.272-2.338-0.598-2.338
	C-179.421,401.681-179.802,402.061-180.019,402.551z M-222.488,403.693c0.109,0.543,0.544,0.979,0.979,0.979
	c1.196,0,0.979-1.577-0.163-1.795C-222.434,402.714-222.652,402.931-222.488,403.693z M-219.878,403.856
	c0,0.598,0.326,1.087,0.707,1.087c1.033,0,1.468-0.543,1.088-1.413C-218.518,402.388-219.878,402.605-219.878,403.856z
	 M-162.782,404.236c0,0.816,0.218,4.677,0.544,8.592c0.435,6.145,0.925,20.337,1.305,39.696c0.109,4.73,0.272,5.437,1.088,5.6
	c0.924,0.218,0.978-0.543,0.598-13.866c-0.218-7.721-0.49-14.192-0.598-14.355c-0.11-0.164-0.327-5.275-0.49-11.365
	c-0.217-6.09-0.543-12.072-0.707-13.268C-161.531,402.714-162.782,401.898-162.782,404.236z M-192.417,413.21
	c0.543,11.147,0.543,10.984,1.631,11.201c0.816,0.164,0.87-0.108,0.598-1.903c-0.163-1.142-0.435-5.383-0.598-9.407
	c-0.38-7.45-0.49-8.157-1.414-8.157C-192.58,404.944-192.635,407.718-192.417,413.21z M-208.731,405.978
	c-0.217,0.38-0.217,3.153-0.054,6.199c0.163,3.045,0.49,9.08,0.653,13.43c0.435,10.55,0.543,11.366,0.978,11.8
	c1.034,1.088,1.197-2.011,0.762-15.606c-0.327-11.364-0.653-15.117-1.197-15.66C-208.132,405.597-208.459,405.543-208.731,405.978z
	 M-166.588,411.035c0,2.773,0.38,12.017,0.816,20.554c0.435,8.538,0.924,19.087,1.141,23.546c0.272,6.036,0.49,7.993,1.034,7.993
	c0.38,0,0.815-0.217,0.924-0.544c0.218-0.76-0.87-25.503-2.012-44.317c-0.109-1.523-0.217-4.84-0.217-7.504
	c-0.055-3.807-0.218-4.731-0.87-4.731C-166.425,406.032-166.588,406.956-166.588,411.035z M-232.439,408.315
	c-0.109,1.523,0.163,6.635,0.924,20.555c0.49,7.94,1.033,18.978,1.251,24.525c0.218,5.546,0.598,10.386,0.816,10.712
	c0.217,0.38,0.76,0.653,1.25,0.653c0.707,0,0.762-0.49,0.49-2.882c-0.598-5.112-0.816-8.103-1.142-17.782
	c-0.218-5.22-0.49-10.277-0.598-11.147c-0.11-0.925-0.218-3.59-0.272-5.982c-0.055-7.558-1.25-18.923-1.958-19.195
	C-232.058,407.663-232.385,407.881-232.439,408.315L-232.439,408.315z M-212.048,409.947c0.544,4.677,0.925,10.114,1.142,18.38
	c0.218,7.069,0.381,8.483,1.088,8.591c0.761,0.163,0.87-0.652,0.761-6.253c-0.109-7.395-0.87-20.011-1.305-21.805
	c-0.163-0.653-0.652-1.197-1.142-1.197C-212.156,407.663-212.265,408.153-212.048,409.947z M-189.808,409.403
	c0.218,0.98,0.49,5.22,0.708,9.408c0.217,4.187,0.435,8.591,0.49,9.788c0.053,1.196,0.162,3.806,0.217,5.818
	c0.054,2.936,0.217,3.698,0.87,3.698c1.033,0,1.087-5.384,0.217-18.76c-0.652-10.387-0.87-11.692-1.957-11.692
	C-189.916,407.663-190.025,408.043-189.808,409.403L-189.808,409.403z M-170.558,408.043c-0.217,0.218-0.272,1.47-0.108,2.829
	c0.326,3.37,0.924,29.2,0.652,28.874c-0.326-0.38-0.816-8.265-1.25-20.283c-0.327-7.993-0.544-10.332-1.142-10.55
	c-0.435-0.162-0.87-0.162-1.034,0c-0.217,0.218,0.163,8.538,1.142,23.492c0.435,6.797,0.816,18.869,0.816,27.026
	c0,6.307,0.109,7.504,0.816,7.504s0.815-1.414,0.87-9.408l0.108-9.353l0.707,7.885c0.38,4.35,0.707,8.211,0.707,8.537
	c0.055,0.381,0.435,0.707,0.925,0.707c0.76,0,0.815-0.652,0.543-5.546c-0.217-3.1-0.489-6.689-0.598-8.048
	c-0.435-4.948-1.196-27.406-1.305-40.13c-0.054-2.883-0.272-3.916-0.761-3.916C-169.905,407.663-170.395,407.826-170.558,408.043
	L-170.558,408.043z M-215.528,411.959c0,1.795,0.218,5.057,0.49,7.232c0.272,2.175,0.652,7.287,0.815,11.31
	c0.327,6.907,0.925,9.517,1.74,7.396c0.218-0.49,0.218-3.915,0-7.558c-0.163-3.644-0.489-9.68-0.652-13.432
	c-0.326-6.362-0.761-8.156-1.903-8.156C-215.31,408.751-215.528,410.219-215.528,411.959z M-186.436,417.56
	c1.088,23.817,1.033,23.002,1.903,23.002c0.98,0,0.98-3.209,0.272-19.304c-0.435-10.169-0.815-12.507-1.957-12.507
	C-186.708,408.751-186.762,410.926-186.436,417.56z M-179.747,409.62c-0.544,0.49,0.217,34.15,0.706,34.694
	c1.36,1.468,1.523-1.088,1.088-15.172c-0.217-8.102-0.326-15.552-0.217-16.64c0.217-1.794-0.816-3.697-1.577-2.881V409.62z
	 M-228.85,416.418c0.217,3.698,0.49,7.232,0.652,7.83c0.327,1.795,1.251,18.326,1.577,30.452c0.38,10.875,0.653,12.67,2.012,11.854
	c0.272-0.163,0.38-3.535,0.163-7.994c-0.217-4.187-0.489-10.875-0.652-14.736c-0.163-3.915-0.544-9.026-0.816-11.419
	s-0.49-6.308-0.544-8.7c-0.054-6.145-1.142-13.432-2.066-13.758C-229.068,409.784-229.176,410.926-228.85,416.418z
	 M-183.228,413.754c0.599,7.123,0.87,14.192,0.925,21.479c0.054,5.818,0.217,7.232,0.87,7.232c0.38,0,0.87-0.38,1.087-0.87
	c0.327-0.925-0.76-27.026-1.305-30.017c-0.163-1.033-0.598-1.74-1.087-1.74C-183.391,409.838-183.499,410.545-183.228,413.754z
	 M-177.192,414.569c0.218,2.665,0.49,5.655,0.598,6.689c0.164,1.033,0.435,11.908,0.599,24.198
	c0.163,13.703,0.489,22.566,0.815,23.001c1.36,1.631,1.577,0.435,1.197-5.764c-0.218-3.48-0.381-6.634-0.327-6.906
	c0.163-2.23,0.055-27.08-0.108-28.82c-0.164-1.196-0.435-4.84-0.599-8.048c-0.38-7.286-0.706-9.08-1.74-9.08
	C-177.409,409.839-177.517,410.599-177.192,414.569z M-225.152,411.198c-0.164,0.49-0.164,4.024,0.054,7.776
	c0.163,3.806,0.435,10.44,0.598,14.79c0.598,16.205,0.816,21.099,1.414,27.298c0.598,5.71,0.761,6.416,1.686,6.416
	c0.76,0,0.924-0.272,0.76-1.25c-0.706-3.209-1.413-13.758-1.685-24.307c-0.163-6.417-0.38-13.431-0.544-15.498
	c-0.108-2.12-0.38-6.416-0.598-9.679C-223.793,411.198-224.391,409.24-225.152,411.198L-225.152,411.198z M-218.954,410.763
	c-0.108,0.272-0.054,2.61,0.218,5.329c0.218,2.664,0.544,7.993,0.707,11.8c0.38,9.57,0.816,12.398,1.849,12.398
	c0.652,0,0.761-0.707,0.435-4.514c-0.163-2.447-0.598-8.918-0.87-14.41s-0.653-10.168-0.816-10.44
	C-217.811,410.273-218.627,410.219-218.954,410.763z M-222.271,411.361c-0.163,0.272-0.054,3.534,0.218,7.232
	s0.816,10.712,1.142,15.552c0.49,7.178,0.761,8.864,1.414,8.864c0.707,0,0.761-1.088,0.49-7.505
	c-0.817-18.053-1.415-24.143-2.34-24.415C-221.672,410.98-222.107,411.089-222.271,411.361z M-205.305,432.949
	c-0.598,0.598,0.435,3.806,1.197,3.806c1.141,0,1.033-3.752-0.055-3.97C-204.598,432.731-205.142,432.785-205.305,432.949z
	 M-202.368,434.417c0.217,2.338,1.794,2.501,1.794,0.163c0-1.142-0.272-1.686-0.979-1.794
	C-202.368,432.622-202.532,432.894-202.368,434.417L-202.368,434.417z M-194.864,433.982c0,1.903,0.543,3.045,1.468,3.045
	c0.652,0,0.761-0.38,0.49-1.686c-0.164-0.924-0.327-1.903-0.327-2.175s-0.38-0.49-0.816-0.49
	C-194.539,432.676-194.864,433.166-194.864,433.982z M-191.602,435.124c0,2.12,0.163,2.501,0.98,2.338
	c1.304-0.272,1.25-4.404-0.055-4.676C-191.439,432.622-191.602,433.058-191.602,435.124z M-198.562,434.689
	c0.109,0.924,0.544,1.577,1.142,1.686c0.816,0.163,0.979-0.11,0.816-1.36c-0.11-0.924-0.544-1.577-1.142-1.686
	C-198.562,433.166-198.726,433.439-198.562,434.689z M-212.102,445.509c-0.435,1.143,0.707,2.285,1.523,1.47
	c0.707-0.708,0.271-2.34-0.599-2.34C-211.504,444.639-211.884,445.021-212.102,445.509z M-207.752,445.509
	c-0.38,1.034,0.598,2.122,1.414,1.632c0.87-0.544,0.707-1.794-0.217-2.175c-0.49-0.163-0.98,0.055-1.197,0.544V445.509z
	 M-203.837,445.129c-0.435,0.816,0.164,1.686,1.142,1.686c0.49,0,0.762-0.38,0.653-0.924
	C-202.26,444.803-203.347,444.368-203.837,445.129z M-199.65,445.564c0.218,1.142,1.795,1.36,1.795,0.163
	c0-0.435-0.435-0.87-0.979-0.978C-199.595,444.586-199.813,444.803-199.65,445.564z M-195.408,446.054
	c0,1.685,1.25,1.522,1.522-0.218c0.11-0.815-0.108-1.196-0.652-1.196C-195.136,444.64-195.408,445.13-195.408,446.054z
	 M-191.058,445.401c0,1.142,1.142,1.686,1.631,0.816c0.272-0.38,0.327-0.925,0.218-1.142
	C-189.699,444.314-191.058,444.585-191.058,445.401z M-221.02,447.738c-0.054,0.272-0.054,0.544-0.054,0.707
	s0.272,4.514,0.652,9.734c0.327,5.22,0.87,9.95,1.142,10.55c1.033,1.902,1.523,0.217,1.033-3.427
	c-0.271-1.957-0.652-6.47-0.815-10.06c-0.218-3.588-0.435-6.851-0.544-7.232C-219.878,447.303-220.911,447.086-221.02,447.738z
	 M-178.55,459.865c0,10.984,0.054,11.419,1.087,11.419c1.088,0,1.088,0.544,0.599-20.827c-0.055-1.414-0.272-2.012-0.87-2.012
	C-178.441,448.445-178.55,450.077-178.55,459.865z M-217.92,449.968c-0.38,0.598,0.708,18.543,1.197,20.5
	c0.272,0.87,0.761,1.631,1.088,1.631c0.815,0,0.815-0.054,0.435-4.241c-0.599-6.199-0.816-10.386-0.87-14.41
	c0-3.045-0.164-3.915-0.762-3.915C-217.267,449.533-217.756,449.75-217.92,449.968L-217.92,449.968z M-182.52,450.403
	c-0.598,0.598,0.49,19.25,1.197,19.956c0.924,0.925,1.577-0.163,1.305-2.23c-0.11-1.087-0.38-5.546-0.598-9.841
	C-180.943,451.055-181.378,449.315-182.52,450.403z M-214.06,451.545c-0.543,0.544-0.489,6.09,0.218,13.757
	c0.707,8.048,0.816,8.592,1.686,7.722c0.49-0.49,0.49-3.154,0-10.767C-212.7,452.85-213.136,450.566-214.06,451.545z
	 M-186.327,453.176c-0.163,0.272-0.109,3.48,0.109,7.232c0.272,5.547,0.49,6.797,1.142,6.797s0.815-0.706,0.76-3.534
	c-0.053-1.958-0.108-5.166-0.162-7.232c-0.055-2.773-0.218-3.644-0.816-3.644C-185.729,452.795-186.218,452.959-186.327,453.176z
	 M-210.471,456.928c0.218,2.067,0.544,6.417,0.707,9.734c0.38,6.906,0.435,7.395,1.468,7.014c0.816-0.271,0.762-4.513-0.054-15.443
	c-0.326-3.915-0.544-4.622-1.414-4.785C-210.743,453.231-210.743,453.502-210.471,456.928z M-190.297,454.155
	c-0.38,0.924,0.11,10.604,0.544,11.039c0.163,0.108,0.598,0.108,0.979,0c0.979-0.381,0.49-11.365-0.49-11.746
	C-189.644,453.339-190.134,453.666-190.297,454.155z M-206.067,460.517c0.164,3.371,0.273,7.83,0.273,9.842
	c0,3.317,0.109,3.698,0.924,3.535c0.816-0.163,0.979-0.598,0.816-2.882c-0.109-1.523-0.218-4.078-0.272-5.71
	c-0.272-10.766-0.326-10.875-1.196-10.875c-0.762,0-0.816,0.761-0.544,6.09H-206.067z M-202.64,454.807
	c-0.163,0.272-0.109,2.61,0.108,5.33c0.272,4.186,0.49,4.893,1.36,5.057c0.979,0.217,0.979-0.055,0.598-4.84
	c-0.217-2.828-0.49-5.275-0.652-5.492C-201.553,454.318-202.368,454.318-202.64,454.807z M-198.29,455.188
	c-0.163,0.38-0.054,2.61,0.272,4.894c0.49,3.371,0.761,4.133,1.468,3.97c0.49-0.11,0.816-0.435,0.761-0.816
	c-0.108-0.326-0.326-2.338-0.49-4.405C-196.604,455.242-197.638,453.448-198.29,455.188z M-194.32,459.321
	c0,3.97,0.163,4.894,0.815,4.894c0.653,0,0.816-0.925,0.816-4.894c0-3.97-0.163-4.894-0.816-4.894c-0.652,0-0.816,0.924-0.816,4.894
	H-194.32z M-197.583,467.858c0,3.97,0.598,6.688,1.414,6.688c0.598,0,0.76-1.087,0.76-4.622c0-4.241-0.108-4.622-1.087-4.622
	C-197.42,465.302-197.583,465.682-197.583,467.858z M-193.559,466.009c-0.109,0.38-0.055,2.393,0.163,4.46
	c0.326,2.936,0.652,3.806,1.36,3.969c0.815,0.163,0.87-0.272,0.652-3.807c-0.163-2.175-0.38-4.296-0.544-4.676
	C-192.2,465.085-193.178,465.085-193.559,466.009z M-201.716,468.891c0.163,1.414,0.326,3.263,0.326,4.133
	c0,1.25,0.218,1.577,0.98,1.414c1.63-0.327,0.924-8.048-0.816-8.048C-201.933,466.39-202.042,466.825-201.716,468.891z
	 M-189.426,470.468c0,3.208,0.163,4.187,0.815,4.46c0.49,0.162,0.979,0.217,1.088,0.108c0.108-0.163,0.054-2.12-0.11-4.46
	c-0.217-2.99-0.543-4.186-1.032-4.186c-0.598,0-0.762,1.033-0.762,4.078L-189.426,470.468z M-185.62,470.958
	c0,2.392,0.761,3.588,1.631,2.718c0.761-0.76,0-5.111-0.87-5.111C-185.403,468.565-185.62,469.326-185.62,470.958z"/>
</svg>
