<?xml version="1.0" encoding="iso-8859-1"?>
<!-- Generator: Adobe Illustrator 19.0.0, SVG Export Plug-In . SVG Version: 6.00 Build 0)  -->
<svg version="1.2" baseProfile="tiny" id="Layer_1" xmlns="http://www.w3.org/2000/svg" xmlns:xlink="http://www.w3.org/1999/xlink"
	 x="0px" y="0px" viewBox="-247 374.89 100 92" xml:space="preserve">
<title>face_00129</title>
<path d="M-237.225,387.206l-9.74,12.267l3.569,3.123c2.941,2.709,5.865,5.435,8.773,8.179c2.9,2.825,5.725,5.055,6.245,5.055
	c0.595,0,2.528-0.52,4.312-1.264c1.86-0.669,3.42-0.892,3.867-0.52c0.297,0.372,0.818,5.353,1.115,11.152l0.52,10.41l-5.204,4.46
	l-5.279,4.387l0.149,5.13l0.148,5.204l3.346,1.264c1.859,0.744,8.773,3.495,15.39,6.097l12.045,4.758l15.093-5.501
	c8.327-2.974,15.54-6.023,16.06-6.692c0.446-0.67,0.892-3.048,0.892-5.204c0-3.94,0-3.94-5.353-9.071l-5.354-5.13l1.116-10.483
	c0.669-5.8,1.338-10.707,1.561-10.93c0.223-0.148,2.305,0.372,4.61,1.264l4.238,1.636l2.007-1.859
	c1.115-0.966,5.205-4.61,9.07-8.104c3.867-3.42,6.99-6.617,6.99-7.063c-0.075-0.446-4.164-6.022-9.145-12.417l-9.146-11.672h-11.375
	l-9.74,10.185l-9.665,10.186l-2.23-1.561c-1.265-0.892-5.874-5.65-10.335-10.558l-8.03-8.996h-10.855L-237.225,387.206z
	 M-220.795,396.648l0.224,3.197h47.584l0.223-2.825c0.223-2.751,0.297-2.751,3.568-2.751h3.867c0.297,0,0.52,1.561,0.52,3.494v3.57
	l-13.903,0.222l-13.978,0.149l-0.074,5.427c-0.075,2.9-0.298,10.335-0.595,16.506l-0.446,11.152l-3.495,0.223l-3.568,0.224v-33.309
	l-3.42-0.52c-1.934-0.224-8.253-0.447-14.127-0.447h-10.705v-3.197c0-1.784,0.223-3.494,0.52-3.717
	c0.223-0.297,2.082-0.52,4.015-0.52h3.569l0.223,3.122H-220.795z M-191.203,451.592c-2.454,0.967-10.78,0.967-12.416,0
	c-0.967-0.594,0.743-0.743,6.468-0.743C-191.203,450.849-189.791,451.072-191.203,451.592z"/>
</svg>
