<?xml version="1.0" encoding="iso-8859-1"?>
<!-- Generator: Adobe Illustrator 19.0.0, SVG Export Plug-In . SVG Version: 6.00 Build 0)  -->
<svg version="1.2" baseProfile="tiny" id="Layer_1" xmlns="http://www.w3.org/2000/svg" xmlns:xlink="http://www.w3.org/1999/xlink"
	 x="0px" y="0px" viewBox="-247 359.89 100 123" xml:space="preserve">
<title>face_00029</title>
<path d="M-174.25,362.078c-0.597,1.434-1.075,1.673-1.433,0.598c-0.359-0.956-3.226-1.434-8.363-1.434h-7.766l0.478,4.42
	l0.358,4.421l-6.69,0.239l-6.81,0.239l0.597-4.54l0.597-4.42l-11.47,0.119c-6.331,0.12-11.469,0.478-11.469,0.956
	s-1.911,0.478-4.181,0.12c-4.063-0.598-4.182-0.598-4.182,3.105c0,4.063,2.867,5.138,5.854,2.151c1.314-1.195,1.673-1.195,2.15,0
	c0.957,2.509,5.138,1.792,6.333-1.195l1.075-2.628v2.867c0.12,2.868,0.717,2.868,7.169,1.195c0.955-0.239,1.911,0.358,2.15,1.314
	c0.359,1.553-1.792,1.792-14.815,1.553c-8.482-0.239-15.89-0.597-16.726-0.836c-1.792-0.717-2.39,3.226-1.434,10.633
	c0.478,3.226,0.359,6.452-0.12,7.169c-1.074,1.314-1.194,3.345-1.074,13.74c0.119,8.004,0.238,7.526-1.195,15.411
	c-1.434,7.408-1.075,8.483,2.987,8.483c2.748,0,2.867-0.239,2.509-8.363c-0.359-7.646-0.24-8.363,1.911-8.363
	c1.673,0,2.031,0.358,1.075,1.433c-0.597,0.837-1.194,6.333-1.194,12.306c0,14.457-0.12,15.412-1.076,14.457
	c-0.477-0.478-0.836-2.748-0.836-5.257c-0.12-3.943-0.478-4.42-3.106-4.42c-2.987,0-2.987,0.119-3.345,11.947
	c-0.24,6.57-0.478,14.934-0.598,18.518c-0.239,5.735,0,6.571,2.031,6.571c3.107,0,5.496-3.823,3.226-5.257
	c-0.956-0.716-1.195-1.672-0.597-2.628c1.433-2.39,1.792-11.828,0.358-11.828c-0.597,0-0.478-1.075,0.358-2.39
	c1.554-2.508,4.54-3.225,4.54-1.194c0,0.597-0.477,1.195-1.075,1.195c-0.597,0-0.956,4.659-0.836,10.394l0.12,10.514l3.345,0.358
	c2.39,0.239,3.225-0.12,3.225-1.553c0-1.792,0.12-1.792,1.912,0c3.106,2.987,6.93,1.792,7.407-2.27
	c0.478-3.346,0.359-3.465-4.3-2.868c-2.629,0.359-5.496,0.24-6.333-0.358c-1.194-0.717-1.314-1.075-0.12-1.075
	c0.718,0,1.434-0.837,1.434-2.031c0-1.792,0.12-1.792,2.151,0c2.987,2.748,4.898,2.509,6.213-0.598
	c0.836-2.15,1.075-2.27,1.075-0.717c0.12,1.195,0.597,2.15,1.195,2.15c0.717,0,0.836,1.793,0.478,4.063
	c-0.478,3.345-0.24,4.062,2.03,4.66c1.912,0.477,2.749,0,3.465-1.912c1.315-3.345,0.359-5.615-2.15-5.615
	c-1.673-0.12-1.673-0.24,0.239-1.315c2.628-1.553,2.628-5.734,0.12-6.69c-1.076-0.359-2.988-0.12-4.182,0.597
	c-1.434,0.956-2.39,0.956-2.987,0.12c-1.195-1.912,0.597-2.868,5.257-2.868c3.823,0,4.42-0.358,4.54-2.986
	c0.239-5.377,1.672-7.288,4.181-5.855c1.554,0.837,2.987,0.717,4.78-0.239c3.225-1.672,5.017,0,2.867,2.868
	c-0.956,1.433-1.792,1.672-2.39,0.955c-1.433-2.389-6.212-1.433-6.93,1.315c-0.358,1.433-0.477,2.987-0.119,3.584
	c1.076,1.673,6.213,1.075,6.93-0.836c0.597-1.554,1.075-1.554,3.106-0.359c1.792,1.195,2.867,1.195,4.66,0.12
	c1.553-0.956,2.628-0.956,3.464-0.12c2.031,2.031,6.213-0.12,6.213-3.345c0-1.553-0.597-2.867-1.434-2.867
	c-0.717,0-0.358-0.717,0.837-1.673c1.194-0.836,1.911-2.39,1.433-3.465c-0.955-2.509-23.058-2.748-24.492-0.239
	c-1.434,2.748-4.301,0.24-2.867-2.628c2.15-3.943,0.239-5.138-7.288-4.301c-3.704,0.358-6.81,1.194-6.81,1.672
	c0,0.598-0.598,1.076-1.314,1.076c-0.837,0-1.076-1.434-0.598-4.301c0.598-2.51,0.359-4.899-0.478-5.855
	c-0.956-1.075-0.956-1.792,0-2.39c2.39-1.433,1.314-5.376-1.433-5.495h-2.748l2.748-1.075c1.792-0.717,2.628-2.15,2.628-4.182
	c0-2.867-0.358-3.106-4.182-2.867c-2.27,0.239-4.062-0.12-3.823-0.717c0.12-0.598,1.673-0.956,3.584-0.717
	c2.031,0.12,3.346-0.358,3.465-1.314c0.24-2.031,0.956-14.815,1.195-19.116l0.12-3.345l10.513,0.239
	c10.394,0.239,13.023,1.553,4.66,2.39c-3.704,0.357-4.182,0.716-4.301,3.942c-0.24,10.155-0.12,10.036-4.899,10.394
	c-3.704,0.239-4.66,0.836-4.898,2.987c-0.359,2.509,0.12,2.748,5.137,2.748c3.106,0,5.257,0.478,4.779,1.075
	c-0.358,0.597-2.509,0.836-4.779,0.478c-3.465-0.597-4.182-0.359-4.301,1.553c0,1.314-0.12,6.332-0.239,11.23
	c-0.239,8.961-0.239,8.961,3.106,9.32c1.912,0.239,3.226-0.24,3.226-0.956c0-0.956,1.075-1.195,3.107-0.717
	c1.792,0.478,3.823,0.239,4.778-0.597c1.195-0.956,1.673-0.956,1.673,0c0,0.716,1.673,1.314,3.584,1.314
	c3.226,0,3.585-0.359,3.585-3.584c0-2.629-0.598-3.585-2.031-3.585c-1.673,0-1.793-0.239-0.598-1.075
	c0.836-0.478,1.792-3.704,2.15-7.049c0.479-5.974,0.36-6.213-2.389-6.213c-2.509,0-3.106,0.717-3.942,4.421l-0.837,4.54
	l-0.836-4.779c-1.075-5.974-0.478-6.93,3.704-5.974c2.628,0.598,3.703,0.24,4.66-1.553c0.596-1.195,0.716-2.748,0.238-3.345
	c-0.597-0.597-0.478-4.66,0.239-9.2l1.195-8.004l4.898-0.24c10.394-0.477,21.745-0.836,24.015-0.836
	c12.186,0.12,20.908,0.598,21.624,1.315c0.478,0.597-0.12,0.955-1.433,1.075c-11.111,0.478-10.634,0.358-10.634,3.704
	c-0.119,1.792-0.477,3.584-0.955,4.062c-0.478,0.478-0.837,2.15-0.837,3.584c0,2.39-0.478,2.748-3.345,2.15
	c-4.42-0.836-7.407,2.151-5.257,5.496c1.792,2.868,0.12,4.062-4.42,2.987c-4.301-0.956-6.81,1.673-4.899,5.257
	c0.837,1.673,0.837,2.509,0,2.509c-2.03,0-1.314,4.54,0.956,5.854c2.15,1.314,2.15,1.314-2.867,1.314
	c-0.478,0-0.837-3.942-0.837-8.721v-8.602h4.66c3.823,0,4.66-0.359,4.66-2.39c0-1.911-0.956-2.509-4.302-2.748
	c-4.181-0.358-4.3-0.597-3.942-4.181c0.12-2.15,0.358-4.182,0.358-4.78c0.12-0.477,0.597-0.836,1.195-0.836
	c0.597,0,0.956,1.792,0.836,3.824c-0.12,3.225,0.358,4.062,2.629,4.3c1.911,0.359,2.628-0.238,2.628-1.792
	c0-1.194,0.358-4.181,0.836-6.69l0.717-4.54l-7.646,0.358c-7.527,0.359-7.647,0.359-7.886,3.943
	c-1.672,32.139-1.314,39.068,2.39,39.785c1.195,0.239,2.39-0.597,2.987-2.27c0.956-2.39,1.075-2.39,1.792-0.597
	c0.597,1.553,1.911,2.03,4.66,1.792c2.15-0.12,5.017-0.12,6.212,0c2.031,0.12,2.15,0.358,0.478,2.15
	c-1.195,1.434-1.792,4.66-1.912,9.32c0,3.942-0.239,8.004-0.358,8.96c-0.358,1.195,0.478,1.792,2.509,1.792s3.106-0.717,3.345-2.39
	c0.717-4.3,1.434-5.495,2.629-4.779c0.716,0.478,0.836,1.554,0.12,2.868c-1.554,2.867,0.238,5.137,3.583,4.66
	c2.748-0.36,2.868-0.718,2.868-10.514c0-10.036,0-10.156-2.987-10.156c-2.51,0-2.987,0.598-3.106,3.823
	c0,2.151-0.478,3.943-1.076,3.943c-0.717,0-0.956-1.553-0.836-3.465c0.239-1.911-0.12-3.823-0.836-4.181
	c-0.837-0.598-0.717-1.792,0.12-3.823c1.194-2.629,1.074-3.226-0.718-4.302c-1.672-0.955-1.792-1.433-0.597-2.15
	c1.792-1.195,2.748-13.142,0.956-13.142c-0.598,0-0.837-0.598-0.478-1.195c0.358-0.717,1.433-1.195,2.15-1.195
	c1.076,0,1.434,3.226,1.195,11.948c-0.358,12.425,0,13.142,4.898,11.23c2.032-0.717,2.629-4.66,0.956-5.734
	c-1.433-0.837,0.12-9.439,1.553-9.2c0.717,0.12,1.076,2.031,0.837,4.301c-0.359,3.823,0,4.182,2.748,4.182
	c3.345,0,4.062-1.912,0.955-2.748c-1.314-0.359-0.836-0.598,1.195-0.717c1.792,0,3.226-0.597,3.226-1.195
	c0-0.597-1.434-1.434-3.226-1.672c-3.106-0.478-3.226-0.598-0.717-1.434c2.748-0.836,4.42-3.704,3.346-5.496
	c-0.478-0.597-2.868-0.717-5.377-0.478c-5.137,0.717-5.376,0.478-3.584-2.987c0.717-1.194,1.314-4.42,1.434-7.168
	c0.12-2.629,0.836-5.377,1.792-6.093c0.836-0.717,1.553-0.956,1.673-0.359c0.358,2.987-0.478,8.363-1.434,9.439
	c-2.15,2.15-1.195,5.376,1.672,5.376c4.78,0,5.735-1.673,6.213-9.916c0.24-4.42,0.836-10.395,1.314-13.501l0.837-5.496l-4.66,0.24
	c-6.57,0.358-6.69,0.238-5.257-2.27c1.792-3.466,0.24-6.094-3.703-6.094c-2.51,0-3.465,0.597-3.585,2.031
	c0,1.673-0.239,1.553-1.075-0.597C-166.723,359.33-172.935,358.972-174.25,362.078L-174.25,362.078z M-156.687,416.081
	c-1.075,0.597-1.672,4.898-1.911,14.217c-0.24,7.288-0.12,13.62,0.239,13.979c0.955,0.836,0.836,8.96-0.12,8.96h-1.791
	c-0.597,0-0.836-1.553-0.478-3.465l0.478-3.464l-7.885,0.12c-4.301,0.119-7.886,0.716-7.886,1.194s-1.911,0.597-4.181,0.12
	c-4.301-0.717-4.899,0.119-4.301,5.256c0.12,0.956-0.24,2.27-0.837,2.987c-1.433,2.031-0.836,11.948,0.717,12.545
	c0.956,0.239,1.076,1.075,0.24,2.628c-1.315,2.39,1.194,5.974,4.18,5.974c2.151,0,3.585-4.42,2.032-6.332
	c-1.075-1.434-0.836-17.443,0.358-18.519c1.912-1.911,3.226,7.288,1.434,10.156c-0.478,0.717-0.478,3.823,0,6.93
	c0.717,5.973,2.867,7.765,6.332,5.615c1.434-0.837,2.51-0.837,3.345,0c0.717,0.716,2.629,0.955,4.182,0.477
	c2.748-0.597,2.987-1.314,2.987-7.288c0-3.584-0.597-6.57-1.075-6.57c-0.598,0-1.076-0.598-1.076-1.195
	c0-0.717,2.15-1.195,4.66-1.195c3.704,0,4.898-0.478,5.496-2.51c0.597-1.672,0.12-2.986-1.434-4.061
	c-2.031-1.553-2.031-1.673,0-1.792c2.628,0,2.748-4.301,0.12-5.257c-1.673-0.598-1.673-1.075-0.359-2.629
	c2.39-2.867,2.628-10.872,0.478-11.708c-1.434-0.478-1.553-1.195-0.359-3.823c1.195-2.629,1.195-3.346,0-3.823
	c-2.03-0.598-1.792-2.629,0.359-2.629c1.075,0,1.792-1.075,1.792-2.987c0-3.106-2.628-3.942-5.735-1.911H-156.687z M-153.34,418.59
	c0,0.597-0.478,1.194-1.195,1.194c-0.598,0-1.195-0.597-1.195-1.194c0-0.717,0.597-1.195,1.195-1.195
	C-153.818,417.395-153.34,417.873-153.34,418.59z M-155.491,427.192c-0.836,0.836-1.434,0.956-1.434,0.239
	c0-1.673,1.434-3.107,2.27-2.27c0.24,0.358-0.12,1.314-0.836,2.03V427.192z M-153.341,434.122c0,0.597-0.836,1.194-1.911,1.194
	c-0.956,0-1.434-0.597-1.075-1.195c0.358-0.717,1.194-1.194,1.911-1.194c0.598,0,1.076,0.477,1.076,1.194L-153.341,434.122z
	 M-153.341,448.458c0,0.598-0.477,1.195-1.194,1.195c-0.598,0-1.195-0.597-1.195-1.195c0-0.717,0.597-1.195,1.195-1.195
	c0.717,0,1.195,0.478,1.195,1.195H-153.341z M-162.898,448.936c0,0.359-0.478,0.956-1.195,1.314
	c-0.598,0.359-1.195,0.12-1.195-0.478c0-0.716,0.597-1.314,1.195-1.314C-163.376,448.458-162.898,448.698-162.898,448.936z
	 M-180.82,450.848c0,0.597-0.597,1.194-1.314,1.194c-0.597,0-0.836-0.597-0.478-1.194c0.359-0.717,0.956-1.195,1.315-1.195
	C-181.058,449.653-180.82,450.131-180.82,450.848z M-167.08,460.286c0,4.78-0.239,8.841-0.597,9.08
	c-0.359,0.12-1.673-0.12-2.987-0.717c-1.314-0.478-1.673-0.955-0.717-0.955c1.195-0.12,1.434-1.195,0.956-4.301
	c-0.478-2.629-0.24-4.182,0.597-4.182c0.836,0,0.956-1.553,0.597-4.301c-0.477-2.987-0.238-4.062,0.717-3.704
	C-167.558,451.446-167.08,454.671-167.08,460.286z M-171.262,456.821c0,0.598-0.478,1.195-1.194,1.195
	c-0.598,0-1.195-0.597-1.195-1.195c0-0.716,0.597-1.194,1.195-1.194C-171.74,455.627-171.262,456.105-171.262,456.821z
	 M-161.704,456.821c0,0.598-0.836,1.195-1.911,1.195c-0.956,0-1.434-0.597-1.076-1.195c0.359-0.716,1.195-1.194,1.912-1.194
	C-162.182,455.627-161.704,456.105-161.704,456.821z M-180.82,457.777c0,1.553-1.433,2.629-2.628,1.912
	c-1.195-0.717-0.12-2.868,1.553-2.868C-181.297,456.821-180.82,457.299-180.82,457.777z M-162.898,464.707
	c0,0.956-0.478,1.433-1.195,1.075c-0.598-0.358-1.195-1.195-1.195-1.912c0-0.597,0.597-1.075,1.195-1.075
	C-163.376,462.795-162.898,463.631-162.898,464.707z M-171.262,464.467c0,1.315-2.27,1.793-2.986,0.718
	c-0.359-0.598,0.119-1.195,1.075-1.195c1.075,0,1.911,0.239,1.911,0.478V464.467z M-161.704,471.756
	c0,0.956-0.717,1.792-1.672,1.792c-2.39,0-3.465-2.031-1.673-2.748C-162.421,469.725-161.704,469.964-161.704,471.756z
	 M-171.262,472.353c0,0.597-0.478,1.195-1.194,1.195c-0.598,0-1.195-0.598-1.195-1.195c0-0.717,0.597-1.195,1.195-1.195
	C-171.74,471.158-171.262,471.636-171.262,472.353z M-179.625,473.548c0,0.597-0.478,1.195-1.195,1.195
	c-0.597,0-1.194-0.598-1.194-1.195c0-0.717,0.597-1.195,1.194-1.195C-180.103,472.353-179.625,472.831-179.625,473.548z
	 M-184.762,424.205c-0.359,0.597-0.598,5.376-0.598,10.872l-0.119,9.916l3.226-0.358c3.226-0.358,3.226-0.478,3.584-10.872
	s0.358-10.394-2.628-10.394C-182.97,423.369-184.523,423.727-184.762,424.205z M-204.117,465.185
	c-0.956,2.986,0.12,4.779,2.867,4.779c3.346,0,5.496-3.107,3.704-5.377C-199.696,462.078-203.281,462.317-204.117,465.185z
	 M-199.935,466.379c0,0.598-0.598,1.195-1.315,1.195c-0.597,0-0.836-0.597-0.478-1.195c0.359-0.716,0.956-1.194,1.315-1.194
	C-200.174,465.185-199.935,465.663-199.935,466.379z M-194.559,463.87c-0.359,0.717-0.597,2.629-0.478,4.54
	c0.12,1.793,0.12,3.824-0.12,4.54c-0.597,2.39,0,3.943,1.793,4.66c3.942,1.434,5.137-0.478,5.018-7.766
	c0-6.571-0.24-7.049-2.748-7.049C-192.648,462.795-194.081,463.273-194.559,463.87z M-190.377,466.38
	c0,0.597-0.478,1.194-1.195,1.194c-0.598,0-1.195-0.597-1.195-1.195c0-0.716,0.597-1.194,1.195-1.194
	c0.717,0,1.195,0.478,1.195,1.194V466.38z M-190.377,474.145c0,0.956-0.478,1.792-1.195,1.792c-0.598,0-1.195-0.836-1.195-1.792
	c0-0.956,0.597-1.792,1.195-1.792C-190.855,472.353-190.377,473.189-190.377,474.145z M-224.427,465.185
	c-3.824,0.478-4.9,1.194-5.138,3.345c-0.478,3.106,2.628,4.779,5.615,2.987c1.075-0.717,3.704-0.956,5.854-0.598
	c3.465,0.478,3.824,0.24,3.824-2.509C-214.272,465.065-216.782,464.229-224.427,465.185L-224.427,465.185z M-216.662,467.575
	c0,0.596-0.478,1.194-1.195,1.194c-0.597,0-1.194-0.598-1.194-1.195c0-0.717,0.597-1.195,1.194-1.195
	c0.717,0,1.195,0.478,1.195,1.195V467.575z M-225.025,468.769c0,0.597-0.478,1.195-1.195,1.195c-0.597,0-1.195-0.598-1.195-1.195
	c0-0.717,0.598-1.195,1.195-1.195C-225.503,467.574-225.025,468.052-225.025,468.769z M-212.719,466.499
	c-0.12,1.434,0.717,2.748,2.27,3.345l2.628,0.956l-2.628,0.597c-1.912,0.478-2.629,1.673-2.629,3.823
	c0,2.51,0.598,3.107,2.987,3.107c3.584,0,4.182-1.314,4.54-8.841c0.24-5.377,0.12-5.496-3.345-5.496
	C-211.763,463.99-212.6,464.587-212.719,466.499z M-207.701,466.379c0.358,0.598-0.12,1.195-1.195,1.195
	c-1.075,0-1.553-0.597-1.195-1.195c0.359-0.716,0.956-1.194,1.195-1.194S-208.06,465.663-207.701,466.379z M-208.896,474.743
	c0.358,0.597,0.12,1.194-0.478,1.194c-0.717,0-1.314-0.597-1.314-1.194c0-0.717,0.239-1.195,0.478-1.195
	C-209.852,473.548-209.254,474.026-208.896,474.743z M-239.123,469.605c0.478,3.943,3.465,4.899,6.213,2.15
	c3.225-3.345,2.39-5.376-2.39-5.376C-239.242,466.379-239.481,466.619-239.123,469.605z M-222.038,474.743
	c-0.956,3.106,0.717,5.137,3.704,4.54c1.553-0.24,2.27-1.434,2.27-3.346C-216.064,471.875-220.844,471.039-222.038,474.743z
	 M-217.857,475.937c0,0.598-0.239,1.195-0.477,1.195c-0.359,0-0.956-0.597-1.315-1.195c-0.358-0.717-0.12-1.194,0.478-1.194
	C-218.454,474.743-217.857,475.22-217.857,475.937z M-229.804,474.384c0,0.598-2.15,0.836-4.779,0.598
	c-4.66-0.478-4.779-0.359-4.779,3.225c0,3.346,0.358,3.704,3.584,3.704c2.031,0,3.584-0.478,3.584-1.075
	c0-0.717,1.912-0.837,4.302-0.478c4.062,0.717,4.3,0.597,3.823-2.748c-0.24-2.509-1.076-3.584-2.987-3.823
	C-228.609,473.547-229.804,473.787-229.804,474.384z M-168.275,363.631c0.358,0.598-0.12,1.195-1.076,1.195
	c-1.075,0-1.912-0.597-1.912-1.195c0-0.716,0.478-1.194,1.076-1.194c0.717,0,1.553,0.478,1.911,1.194H-168.275z M-214.752,366.857
	c-1.195,1.195-2.27-0.597-1.195-2.15c0.717-1.314,0.956-1.314,1.434,0c0.239,0.836,0.12,1.792-0.24,2.15H-214.752z
	 M-205.912,364.827c0,0.597-0.597,1.194-1.313,1.194c-0.598,0-0.837-0.597-0.478-1.195c0.358-0.717,0.956-1.195,1.314-1.195
	c0.239,0,0.478,0.478,0.478,1.195L-205.912,364.827z M-186.795,364.707c0,0.717-0.478,1.553-1.195,1.911
	c-0.597,0.359-1.195-0.12-1.195-1.075c0-1.075,0.598-1.912,1.195-1.912C-187.273,363.631-186.795,364.109-186.795,364.707z
	 M-178.432,364.707c0,0.717-0.478,1.553-1.195,1.911c-0.597,0.359-1.195-0.12-1.195-1.075c0-1.075,0.598-1.912,1.195-1.912
	C-178.91,363.631-178.432,364.109-178.432,364.707z M-159.316,364.707c0,0.717-0.478,1.553-1.195,1.911
	c-0.597,0.359-1.195-0.12-1.195-1.075c0-1.075,0.598-1.912,1.195-1.912C-159.794,363.631-159.316,364.109-159.316,364.707z
	 M-164.096,368.052c0,0.836-2.27,1.434-6.57,1.434c-5.854,0-7.647-0.717-6.093-2.39c1.194-1.195,12.664-0.358,12.664,0.956H-164.096
	z M-183.211,369.008c0,1.075-0.717,1.433-1.912,0.956c-1.553-0.598-1.553-0.837-0.239-1.673
	C-183.331,366.977-183.211,366.977-183.211,369.008z M-236.974,373.906c0,0.24-1.076,0.478-2.51,0.478
	c-1.314,0-2.15-0.478-1.672-1.195C-240.559,372.234-236.974,372.831-236.974,373.906z M-195.158,373.189
	c0,0.598-1.076,1.195-2.51,1.195c-1.314,0-2.03-0.597-1.672-1.195c0.358-0.716,1.553-1.194,2.509-1.194
	S-195.158,372.473-195.158,373.189z M-186.795,373.189c0,0.598-0.478,1.195-1.195,1.195c-0.597,0-1.195-0.597-1.195-1.195
	c0-0.716,0.598-1.194,1.195-1.194C-187.273,371.995-186.795,372.473-186.795,373.189z M-177.237,373.189
	c0,0.598-0.837,1.195-1.792,1.195c-0.956,0-1.793-0.597-1.793-1.195c0-0.716,0.837-1.194,1.793-1.194
	C-178.074,371.995-177.237,372.473-177.237,373.189z M-168.277,373.189c-0.358,0.598-1.194,1.195-1.911,1.195
	c-0.598,0-1.076-0.597-1.076-1.195c0-0.716,0.837-1.194,1.912-1.194C-168.396,371.995-167.918,372.473-168.277,373.189z
	 M-159.317,373.189c0,0.598-0.835,1.195-1.791,1.195s-1.792-0.597-1.792-1.194c0-0.716,0.836-1.194,1.792-1.194
	s1.792,0.478,1.792,1.194L-159.317,373.189z M-149.758,373.189c0,0.598-0.837,1.195-1.792,1.195c-0.956,0-1.792-0.597-1.792-1.195
	c0-0.716,0.836-1.194,1.792-1.194C-150.595,371.995-149.758,372.473-149.758,373.189z M-229.806,373.667
	c0,0.359-0.478,0.956-1.195,1.315c-0.597,0.358-1.195,0.119-1.195-0.478c0-0.717,0.598-1.315,1.195-1.315
	C-230.284,373.189-229.806,373.429-229.806,373.667z M-213.08,374.384c0,0.598-0.836,1.195-1.792,1.195
	c-0.956,0-1.792-0.597-1.792-1.195c0-0.717,0.836-1.195,1.792-1.195C-213.916,373.189-213.08,373.667-213.08,374.384z
	 M-204.716,373.667c0,1.315-2.27,1.792-2.987,0.717c-0.359-0.597,0.12-1.195,1.075-1.195
	C-205.553,373.189-204.716,373.429-204.716,373.667z M-234.585,378.447c-0.717,0.955-2.15,1.433-3.106,1.075
	c-2.27-0.837-0.837-2.748,2.15-2.748C-233.51,376.774-233.391,377.132-234.585,378.447L-234.585,378.447z M-239.364,381.553
	c0,0.597-0.478,1.194-1.195,1.194c-0.597,0-1.194-0.597-1.194-1.194c0-0.717,0.597-1.195,1.194-1.195
	C-239.842,380.358-239.364,380.836-239.364,381.553z M-231.598,381.553c0.358,0.597,0.12,1.194-0.478,1.194
	c-0.717,0-1.314-0.597-1.314-1.194c0-0.717,0.239-1.195,0.478-1.195C-232.554,380.358-231.957,380.836-231.598,381.553z
	 M-205.911,381.553c0,0.597-0.478,1.194-1.195,1.194c-0.597,0-1.195-0.597-1.195-1.194c0-0.717,0.598-1.195,1.195-1.195
	C-206.389,380.358-205.911,380.836-205.911,381.553z M-186.795,381.553c0,0.597-0.478,1.194-1.076,1.194
	c-0.716,0-1.553-0.597-1.911-1.194c-0.359-0.717,0.12-1.195,1.075-1.195C-187.632,380.358-186.795,380.836-186.795,381.553z
	 M-179.627,381.553c0,0.597-0.239,1.194-0.478,1.194c-0.358,0-0.955-0.597-1.314-1.194c-0.358-0.717-0.12-1.195,0.478-1.195
	C-180.224,380.358-179.627,380.836-179.627,381.553z M-159.317,381.553c0,0.597-0.835,1.194-1.791,1.194
	c-0.956,0-1.792-0.597-1.792-1.194c0-0.717,0.836-1.195,1.792-1.195s1.792,0.478,1.792,1.195H-159.317z M-234.585,385.017
	c0,1.434-2.39,2.987-3.226,2.15c-0.836-0.835,0.717-3.225,2.15-3.225c0.591-0.003,1.073,0.473,1.076,1.064
	C-234.585,385.01-234.585,385.013-234.585,385.017z M-210.212,385.734c-0.478,0.956-1.195,1.434-1.792,1.075
	c-1.315-0.716-0.24-2.867,1.314-2.867C-210.093,383.942-209.854,384.778-210.212,385.734z M-188.587,388.721
	c0.358,0.597,0.12,1.195-0.478,1.195c-0.717,0-1.314-0.598-1.314-1.195c0-0.717,0.238-1.195,0.477-1.195
	C-189.543,387.526-188.946,388.004-188.587,388.721z M-161.706,389.438c0,0.956-0.597,1.434-1.194,1.075
	c-0.717-0.478-0.956-1.314-0.598-1.911C-162.423,386.929-161.706,387.287-161.706,389.438z M-150.953,388.721
	c0,0.597-0.478,1.195-1.195,1.195c-0.597,0-1.194-0.598-1.194-1.195c0-0.717,0.597-1.195,1.194-1.195
	C-151.431,387.526-150.953,388.004-150.953,388.721z M-239.363,389.916c0,0.597-0.597,1.195-1.314,1.195
	c-0.598,0-0.837-0.598-0.478-1.195c0.358-0.717,0.956-1.195,1.314-1.195C-239.601,388.721-239.363,389.199-239.363,389.916z
	 M-214.273,389.199c0,0.358-0.478,0.956-1.195,1.314c-0.597,0.359-1.195,0.12-1.195-0.478c0-0.717,0.598-1.314,1.195-1.314
	C-214.751,388.721-214.273,388.96-214.273,389.199z M-209.494,392.425c0,0.597-0.478,1.075-1.195,1.075
	c-0.597,0-1.195-0.836-1.195-1.912c0-0.955,0.598-1.433,1.195-1.075C-209.972,390.872-209.494,391.708-209.494,392.425z
	 M-235.181,393.5c-0.359,0.597-1.315,1.195-1.912,1.195c-0.717,0-0.836-0.598-0.478-1.195c0.359-0.717,1.314-1.195,1.912-1.195
	C-234.942,392.305-234.823,392.783-235.181,393.5z M-170.068,394.695c0,0.597-0.836,1.195-1.911,1.195
	c-0.956,0-1.434-0.598-1.076-1.195c0.359-0.717,1.195-1.195,1.912-1.195C-170.546,393.5-170.068,393.978-170.068,394.695z
	 M-161.705,396.009c0,0.597-0.836,1.075-1.792,1.075c-1.792,0-2.39-1.433-1.075-2.748
	C-163.616,393.381-161.705,394.456-161.705,396.009z M-153.341,394.695c0,0.597-0.598,1.195-1.315,1.195
	c-0.597,0-0.836-0.598-0.478-1.195c0.359-0.717,0.956-1.195,1.315-1.195C-153.58,393.5-153.341,393.978-153.341,394.695z
	 M-214.273,397.204c0,0.597-0.478,1.075-1.195,1.075c-0.597,0-1.195-0.836-1.195-1.912c0-0.955,0.598-1.433,1.195-1.075
	C-214.751,395.651-214.273,396.487-214.273,397.204z M-188.586,395.89c-0.359,0.597-1.195,1.194-1.912,1.194
	c-0.597,0-1.075-0.597-1.075-1.194c0-0.717,0.836-1.195,1.911-1.195C-188.706,394.695-188.228,395.173-188.586,395.89z
	 M-239.96,397.084c0.358,0.598,0.12,1.195-0.478,1.195c-0.717,0-1.314-0.597-1.314-1.195c0-0.717,0.238-1.194,0.477-1.194
	C-240.916,395.89-240.319,396.367-239.96,397.084z M-223.234,397.084c-0.358,0.598-1.195,1.195-1.912,1.195
	c-0.597,0-1.075-0.597-1.075-1.195c0-0.717,0.837-1.194,1.912-1.194C-223.353,395.89-222.876,396.367-223.234,397.084z
	 M-189.184,403.655c0,0.956-0.478,1.792-1.194,1.792c-0.598,0-1.195-0.836-1.195-1.792c0-0.955,0.597-1.792,1.195-1.792
	C-189.662,401.863-189.184,402.7-189.184,403.655z M-180.224,403.058c0.36,0.597-0.119,1.195-1.194,1.195s-1.553-0.598-1.195-1.195
	c0.359-0.717,0.956-1.195,1.195-1.195s0.836,0.478,1.195,1.195H-180.224z M-171.263,402.341c0,0.359-0.478,0.956-1.194,1.314
	c-0.598,0.359-1.195,0.12-1.195-0.478c0-0.716,0.597-1.314,1.195-1.314C-171.741,401.863-171.263,402.103-171.263,402.341z
	 M-162.302,403.058c0.358,0.597-0.12,1.195-1.075,1.195c-1.076,0-1.912-0.598-1.912-1.195c0-0.717,0.478-1.195,1.075-1.195
	C-163.497,401.863-162.66,402.341-162.302,403.058z M-222.637,404.253c0,0.597-0.477,1.194-1.194,1.194
	c-0.598,0-1.195-0.597-1.195-1.194c0-0.717,0.597-1.195,1.195-1.195C-223.114,403.058-222.637,403.536-222.637,404.253z
	 M-215.468,404.253c0,0.597-0.478,1.194-1.195,1.194c-0.597,0-1.195-0.597-1.195-1.194c0-0.717,0.598-1.195,1.195-1.195
	C-215.946,403.058-215.468,403.536-215.468,404.253z M-240.558,406.164c0,0.956-0.478,1.434-1.194,1.076
	c-0.598-0.359-1.195-1.195-1.195-1.912c0-0.597,0.597-1.075,1.195-1.075C-241.036,404.253-240.558,405.089-240.558,406.164z
	 M-232.195,405.447c0,0.598-0.477,1.195-1.194,1.195c-0.598,0-1.195-0.597-1.195-1.195c0-0.716,0.597-1.194,1.195-1.194
	C-232.672,404.253-232.195,404.731-232.195,405.447z M-176.758,409.032c-0.598,2.867-0.359,3.584,1.194,3.584
	c1.673,0,1.673,0.358,0.478,2.39c-1.314,2.15-1.672,2.15-3.584,0.358c-1.553-1.314-1.792-2.39-0.956-3.226
	c0.598-0.597,1.195-2.39,1.195-3.943c0-1.553,0.478-2.748,1.195-2.748C-176.639,405.447-176.4,407.001-176.758,409.032z
	 M-219.052,407.837c0,0.597-0.478,1.195-1.195,1.195c-0.597,0-1.195-0.598-1.195-1.195c0-0.717,0.598-1.195,1.195-1.195
	C-219.53,406.642-219.052,407.12-219.052,407.837z M-207.702,410.227c0.358,0.597,0.12,1.194-0.478,1.194
	c-0.717,0-1.314-0.597-1.314-1.195c0-0.716,0.239-1.194,0.478-1.194C-208.658,409.032-208.061,409.51-207.702,410.227
	L-207.702,410.227z M-180.821,410.227c0,0.597-0.597,1.194-1.314,1.194c-0.597,0-0.836-0.597-0.478-1.195
	c0.359-0.716,0.956-1.194,1.315-1.194C-181.059,409.032-180.821,409.51-180.821,410.227L-180.821,410.227z M-172.457,410.227
	c0,0.597-0.24,1.194-0.478,1.194c-0.359,0-0.956-0.597-1.314-1.195c-0.359-0.716-0.12-1.194,0.477-1.194
	C-173.055,409.032-172.457,409.51-172.457,410.227L-172.457,410.227z M-223.234,411.42c0.358,0.598,0.12,1.195-0.478,1.195
	c-0.717,0-1.314-0.597-1.314-1.195c0-0.717,0.239-1.195,0.478-1.195C-224.19,410.225-223.592,410.703-223.234,411.42z
	 M-215.468,411.42c0,0.598-0.478,1.195-1.195,1.195c-0.597,0-1.195-0.597-1.195-1.195c0-0.717,0.598-1.195,1.195-1.195
	C-215.946,410.225-215.468,410.703-215.468,411.42z M-189.184,411.42c0,0.598-0.478,1.195-1.075,1.195
	c-0.717,0-1.553-0.597-1.912-1.195c-0.358-0.717,0.12-1.195,1.076-1.195C-190.02,410.225-189.184,410.703-189.184,411.42z
	 M-232.194,413.81c0,0.597-0.837,1.194-1.793,1.194c-0.955,0-1.792-0.597-1.792-1.194c0-0.717,0.837-1.195,1.792-1.195
	C-233.031,412.615-232.195,413.093-232.194,413.81L-232.194,413.81z M-211.406,416.677c-0.717,1.912-0.956,2.031-1.912,0.239
	c-1.314-2.27,0-5.018,1.554-3.465C-211.048,414.168-210.928,415.601-211.406,416.677z M-220.128,415.363
	c-0.12,0.478-0.358,0.836-0.716,0.836c-4.78,0-4.78,0-2.987-1.195C-221.92,413.81-220.008,413.929-220.128,415.363z
	 M-171.86,417.393c0.358,0.598-0.12,1.196-1.195,1.196c-1.075,0-1.553-0.598-1.194-1.195c0.358-0.717,0.955-1.195,1.194-1.195
	c0.24,0,0.837,0.478,1.195,1.195V417.393z M-162.9,417.393c0,0.598-0.477,1.196-1.194,1.196c-0.598,0-1.195-0.598-1.195-1.195
	c0-0.717,0.597-1.195,1.195-1.195c0.717,0,1.195,0.478,1.195,1.195L-162.9,417.393z M-207.104,418.59
	c0,0.597-0.478,1.194-1.195,1.194c-0.597,0-1.194-0.597-1.194-1.194c0-0.717,0.597-1.195,1.194-1.195
	C-207.582,417.395-207.104,417.873-207.104,418.59z M-222.636,419.784c0,0.598-0.477,1.195-1.194,1.195
	c-0.598,0-1.195-0.597-1.195-1.195c0-0.716,0.597-1.194,1.195-1.194C-223.113,418.59-222.636,419.068-222.636,419.784z
	 M-232.194,422.294c0,1.314-3.225,1.433-4.062,0c-0.358-0.479-0.358-1.315,0-1.673c0.956-0.956,4.062,0.358,4.062,1.672V422.294z
	 M-163.496,425.758c0.359,0.597,0.12,1.195-0.478,1.195c-0.717,0-1.314-0.598-1.314-1.195c0-0.717,0.24-1.195,0.478-1.195
	C-164.452,424.563-163.854,425.041-163.496,425.758z M-171.262,426.953c0,0.597-0.478,1.195-1.194,1.195
	c-0.598,0-1.195-0.598-1.195-1.195c0-0.717,0.597-1.195,1.195-1.195C-171.74,425.758-171.262,426.236-171.262,426.953z
	 M-223.83,428.745c0,0.956-0.478,1.792-1.195,1.792c-0.597,0-1.195-0.836-1.195-1.792c0-0.956,0.598-1.792,1.195-1.792
	C-224.308,426.953-223.83,427.789-223.83,428.745z M-215.467,427.431c0,0.358-0.478,0.956-1.195,1.314
	c-0.597,0.358-1.195,0.12-1.195-0.478c0-0.717,0.598-1.314,1.195-1.314C-215.945,426.953-215.467,427.192-215.467,427.431z
	 M-233.39,429.223c0,0.717-0.478,1.553-1.195,1.911c-0.597,0.359-1.195-0.119-1.195-1.075c0-1.075,0.598-1.911,1.195-1.911
	C-233.868,428.148-233.39,428.625-233.39,429.223z M-241.753,431.015c0,0.358-0.478,0.956-1.195,1.314
	c-0.598,0.359-1.195,0.12-1.195-0.478c0-0.717,0.597-1.314,1.195-1.314C-242.231,430.537-241.753,430.776-241.753,431.015z
	 M-228.013,436.272c0,2.748-0.36,5.018-0.718,5.018c-1.553,0-2.27,3.942-1.194,5.257c1.672,2.03-0.24,4.54-2.748,3.584
	c-1.434-0.478-1.673-1.195-0.717-2.27c0.597-0.836,1.194-2.748,1.194-4.301c0.12-2.39,0.359-5.974,1.076-11.948
	c0-0.717,0.836-1.075,1.553-0.836c0.836,0.358,1.553,2.628,1.553,5.496H-228.013z M-219.89,434.241
	c-0.716,2.509-0.836,2.509-2.39,0.478c-1.194-1.792-1.194-2.51-0.119-3.107c2.15-1.314,3.226-0.239,2.51,2.629H-219.89z
	 M-162.9,432.927c0,0.597-0.478,1.194-1.195,1.194c-0.598,0-1.195-0.597-1.195-1.194c0-0.717,0.597-1.195,1.195-1.195
	C-163.378,431.732-162.9,432.21-162.9,432.927z M-205.91,434.12c0,0.598-0.836,1.195-1.792,1.195c-0.956,0-1.792-0.597-1.792-1.195
	c0-0.717,0.836-1.194,1.792-1.194C-206.746,432.926-205.91,433.403-205.91,434.12z M-197.547,433.403
	c0,0.359-0.478,0.956-1.195,1.315c-0.597,0.358-1.194,0.12-1.194-0.478c0-0.717,0.597-1.314,1.194-1.314
	C-198.025,432.926-197.547,433.165-197.547,433.403z M-190.378,434.12c0,0.598-0.24,1.195-0.478,1.195
	c-0.359,0-0.956-0.597-1.315-1.195c-0.358-0.717-0.12-1.194,0.478-1.194C-190.976,432.926-190.378,433.403-190.378,434.12z
	 M-216.065,435.315c0.358,0.597,0.119,1.195-0.478,1.195c-0.717,0-1.315-0.598-1.315-1.195c0-0.717,0.24-1.195,0.478-1.195
	C-217.021,434.12-216.424,434.598-216.065,435.315z M-193.365,436.39c0.836,1.434-1.434,2.868-2.987,1.912
	c-1.314-0.836-0.478-2.987,1.195-2.987C-194.56,435.315-193.843,435.793-193.365,436.39z M-233.39,437.706
	c0,0.597-0.478,1.194-1.195,1.194c-0.597,0-1.195-0.597-1.195-1.194c0-0.717,0.598-1.195,1.195-1.195
	C-233.868,436.511-233.39,436.989-233.39,437.706z M-219.053,438.9c0,0.598-0.478,1.195-1.195,1.195
	c-0.597,0-1.195,0.956-1.195,2.031c0,1.792-0.239,1.912-1.195,0.359c-0.597-1.076-0.597-2.27,0.24-3.226
	C-220.965,437.467-219.053,437.228-219.053,438.9z M-162.9,440.095c0,0.597-0.478,1.195-1.195,1.195
	c-0.598,0-1.195-0.598-1.195-1.195c0-0.717,0.597-1.195,1.195-1.195C-163.378,438.9-162.9,439.378-162.9,440.095z M-198.742,441.29
	c0,0.597-0.478,1.195-1.194,1.195c-0.598,0-1.195-0.598-1.195-1.195c0-0.717,0.597-1.195,1.195-1.195
	C-199.22,440.095-198.742,440.573-198.742,441.29z M-190.378,441.29c0,0.597-0.478,1.195-1.195,1.195
	c-0.598,0-1.195-0.598-1.195-1.195c0-0.717,0.597-1.195,1.195-1.195C-190.856,440.095-190.378,440.573-190.378,441.29z
	 M-208.3,442.485c0,0.597-0.597,1.194-1.314,1.194c-0.597,0-0.836-0.597-0.478-1.194c0.359-0.717,0.956-1.195,1.314-1.195
	C-208.538,441.29-208.3,441.768-208.3,442.485z M-216.663,442.962c0,0.359-0.478,0.956-1.195,1.315
	c-0.597,0.358-1.194,0.12-1.194-0.478c0-0.717,0.597-1.314,1.194-1.314C-217.141,442.485-216.663,442.723-216.663,442.962z
	 M-234.584,444.874c0,0.597-0.597,1.195-1.314,1.195c-0.598,0-0.837-0.598-0.478-1.195c0.358-0.717,0.956-1.195,1.314-1.195
	C-234.822,443.679-234.584,444.157-234.584,444.874z M-234.584,453.237c0,0.598-0.478,1.195-1.195,1.195
	c-0.597,0-1.194-0.597-1.194-1.195c0-0.717,0.597-1.195,1.194-1.195C-235.062,452.042-234.584,452.52-234.584,453.237z
	 M-243.544,454.432c0.358,0.597,0.119,1.195-0.478,1.195c-0.717,0-1.315-0.598-1.315-1.195c0-0.717,0.24-1.195,0.478-1.195
	c0.359,0,0.956,0.478,1.314,1.195H-243.544z M-234.584,460.406c0,0.597-0.478,1.194-1.195,1.194c-0.597,0-1.194-0.597-1.194-1.194
	c0-0.717,0.597-1.195,1.194-1.195C-235.062,459.211-234.584,459.689-234.584,460.406z M-225.026,460.406
	c0,0.597-0.478,1.194-1.195,1.194c-0.597,0-1.195-0.597-1.195-1.194c0-0.717,0.598-1.195,1.195-1.195
	C-225.504,459.211-225.026,459.689-225.026,460.406z M-180.821,426.953c0,0.597-0.477,1.195-1.194,1.195
	c-0.598,0-1.195-0.598-1.195-1.195c0-0.717,0.597-1.195,1.195-1.195C-181.298,425.758-180.821,426.236-180.821,426.953z
	 M-180.821,434.121c0,0.598-0.477,1.195-1.194,1.195c-0.598,0-1.195-0.597-1.195-1.195c0-0.717,0.597-1.194,1.195-1.194
	C-181.298,432.927-180.821,433.404-180.821,434.121z M-233.987,469.964c-0.358,0.597-1.194,1.194-1.911,1.194
	c-0.598,0-1.075-0.597-1.075-1.194c0-0.717,0.836-1.195,1.911-1.195C-234.106,468.769-233.628,469.247-233.987,469.964z
	 M-233.628,478.088c0.239,0.836-0.359,1.434-1.434,1.434c-1.042,0.013-1.898-0.821-1.911-1.863c0-0.016,0-0.033,0-0.049
	C-236.973,475.579-234.345,475.937-233.628,478.088z"/>
</svg>
