<?xml version="1.0" encoding="iso-8859-1"?>
<!-- Generator: Adobe Illustrator 19.0.0, SVG Export Plug-In . SVG Version: 6.00 Build 0)  -->
<svg version="1.2" baseProfile="tiny" id="Layer_1" xmlns="http://www.w3.org/2000/svg" xmlns:xlink="http://www.w3.org/1999/xlink"
	 x="0px" y="0px" viewBox="-247 340.89 100 160" xml:space="preserve">
<title>face_00063</title>
<path d="M-186.576,345.123c-0.126,2.399-0.315,11.048-0.442,19.318c-0.126,13.762-0.189,15.088-1.325,16.225
	c-1.39,1.388-1.074,3.535,0.694,4.482c1.073,0.505,1.2,1.389,1.2,6.565c0,5.304-0.19,6.187-1.579,8.27
	c-2.272,3.347-2.21,7.892,0.253,11.743c1.83,2.841,1.83,2.904,2.273,16.351c0.252,7.45,0.568,13.636,0.757,13.826
	c0.19,0.19,0.19-5.493,0-12.626c-0.19-7.134-0.126-16.793,0.126-21.465c0.38-6.629,0.253-8.838-0.378-9.912
	c-0.632-1.136-0.821-7.26-0.821-29.23c0-15.277-0.126-27.777-0.253-27.777C-186.197,340.893-186.449,342.787-186.576,345.123z
	 M-192.636,366.208c0.063,11.932,0.252,17.93,0.315,13.321c0.127-4.672,0.505-8.333,0.821-8.333c0.82,0,2.525-3.41,2.525-5.05
	c0-0.695-0.694-2.02-1.578-2.905c-1.578-1.578-1.578-1.83-1.515-9.785c0-4.546-0.126-8.397-0.316-8.586
	C-192.574,344.618-192.699,354.277-192.636,366.208z M-201.727,351.436c-0.126,8.586-0.316,9.722-1.705,11.174
	c-1.704,1.768-1.704,4.798,0,6.944c1.137,1.39,1.326,2.904,1.768,11.553c0.442,8.776,0.505,7.26,0.568-12.31
	c0.063-12.185,0-22.222-0.19-22.222c-0.189,0-0.378,2.21-0.441,4.86V351.436z M-207.851,349.416
	c-0.128,1.113-0.233,2.228-0.316,3.345c-0.126,0.821,0.064,1.2,0.38,0.884c0.315-0.315,0.504-1.83,0.315-3.346
	C-207.662,348.216-207.725,348.027-207.851,349.416z M-178.558,365.198c0.316,12.185,0.253,14.836-0.442,14.836
	c-1.136,0-2.462,2.273-2.02,3.472c0.252,0.569,0.947,1.263,1.578,1.642c0.695,0.315,1.2,1.326,1.263,2.336
	c0.063,1.452,0.126,1.389,0.505-0.505c0.631-3.662,0.063-36.617-0.695-36.617C-178.81,350.362-178.874,355.16-178.558,365.198z
	 M-162.396,358.064c0.252,2.905,0.631,12.059,0.883,20.329c0.19,8.333,0.506,15.278,0.632,15.467
	c0.19,0.126,0.315-1.326,0.315-3.283c0-2.904,0.253-3.661,1.263-4.23c1.578-0.884,1.642-3.346,0.063-4.86
	c-1.01-0.948-1.2-2.526-1.578-9.976c-0.568-12.436-1.073-18.623-1.578-18.623C-162.649,352.888-162.649,355.224-162.396,358.064z
	 M-170.414,354.844c0.19,0.822,0.568,6.314,0.758,12.248c0.252,5.871,0.63,10.985,0.883,11.3c0.316,0.253,0.38-2.966,0.253-7.26
	c-0.379-11.615-0.884-16.919-1.641-17.36c-0.506-0.316-0.569,0.063-0.253,1.073L-170.414,354.844z M-215.616,367.85
	c-0.253,17.803-0.19,18.371,1.705,17.992c0.82-0.126,1.64-0.631,1.83-1.136c0.442-1.2-0.568-3.788-1.83-4.546
	c-0.947-0.505-1.01-1.957-0.821-13.257c0.063-7.008,0-12.753-0.253-12.753C-215.237,354.15-215.553,360.337-215.616,367.85z
	 M-208.419,373.216c0.063,9.848,0.19,16.793,0.316,15.53c0.189-1.578,0.694-2.651,1.515-3.03c1.578-0.884,1.515-3.22-0.127-5.303
	c-1.199-1.578-1.262-2.273-1.073-13.32c0.127-6.44,0-11.68-0.252-11.68C-208.356,355.413-208.482,363.431-208.419,373.216
	L-208.419,373.216z M-221.803,367.913c0,11.111-0.063,11.869-1.263,12.626c-1.64,1.01-1.64,3.536,0.127,5.177
	c0.757,0.694,1.515,1.136,1.641,0.947c0.505-0.505,0.568-30.619,0.063-30.619C-221.55,356.044-221.803,361.347-221.803,367.913z
	 M-156.525,358.443c0.19,0.316,0.505,10.038,0.757,21.591l0.442,21.086l-2.21-2.336c-1.262-1.262-2.524-2.336-2.966-2.336
	c-0.632,0-1.074,5.745-0.947,13.89c0.063,1.578,0.126,10.795,0.252,20.517c0.063,9.722,0.316,17.235,0.505,16.73
	c0.19-0.505,0.632-1.137,0.947-1.39c0.505-0.252,0.442-0.946-0.063-2.083c-0.505-1.136-0.758-6.186-0.758-15.72
	c0-11.805,0.127-14.204,0.947-14.456c0.505-0.253,1.452-1.515,2.21-2.967c0.694-1.39,1.389-2.526,1.515-2.526
	c0.126,0,0.19,7.576,0.126,16.856c0,9.344,0.064,24.748,0.253,34.28c0.19,9.533,0.442-8.522,0.505-40.15
	c0.063-31.63-0.063-58.46-0.252-59.534c-0.253-1.073-0.695-1.957-1.01-1.957C-156.588,357.938-156.715,358.191-156.525,358.443
	L-156.525,358.443z M-237.585,361.853c-0.443,4.04-0.632,54.797-0.253,54.797c0.315,0,0.631-11.679,0.757-27.462
	c0.127-15.088,0.063-27.462-0.19-27.462c-0.188,0-0.315,0.063-0.315,0.126L-237.585,361.853z M-230.641,372.206
	c0,6.818-0.19,8.712-0.947,9.533c-1.01,0.947-0.695,3.409,0.379,3.85c0.315,0.127,0.568,2.147,0.568,4.546
	c0,3.788-0.253,4.735-2.02,7.64c-1.894,3.03-2.084,3.724-2.02,8.396c0.062,5.176,1.388,9.027,3.787,10.858
	c0.695,0.568,0.947,3.914,1.263,15.783c0.19,8.27,0.505,15.215,0.694,15.404c0.379,0.379-0.442-50.505-0.884-57.008
	c-0.189-2.714-0.063-4.608,0.442-5.176c0.505-0.632,0.505-1.452,0-3.283c-0.442-1.452-0.631-5.682-0.505-10.796
	c0.063-4.545,0-8.333-0.252-8.333C-230.452,363.62-230.641,367.471-230.641,372.206z M-246.866,365.136
	c0.19,0.504,0.694,13.067,1.136,27.966c0.442,14.836,1.01,27.273,1.326,27.652c0.379,0.379,0.442,0.252,0.253-0.316
	c-0.127-0.505-0.505-10.164-0.758-21.464c-0.19-11.3-0.505-21.528-0.568-22.728c-0.126-1.2-0.253-4.419-0.253-7.134
	c-0.063-3.093-0.315-4.86-0.757-4.86C-246.866,364.252-247.055,364.63-246.866,365.136L-246.866,365.136z M-147.939,431.36
	c0.063,37.058,0.252,67.361,0.568,67.361c0.568,0,0.379-133.775-0.19-134.343C-147.813,364.188-147.939,394.302-147.939,431.36z
	 M-168.836,397.585c0.127,9.974,0.253,36.805,0.316,59.659c0,22.79,0.252,41.477,0.568,41.477c0.253,0,0.442-19.886,0.442-44.255
	c0-43.308,0-44.255,1.263-45.833c1.767-2.273,1.641-5.303-0.316-7.134c-1.515-1.39-1.578-1.831-1.578-8.27
	c0-6.503,0.063-6.755,1.578-7.766c0.884-0.568,1.578-1.388,1.578-1.893c0-0.821-2.967-4.167-3.724-4.167
	C-168.899,379.403-168.962,387.547-168.836,397.585z M-215.3,390.45c0,2.083,0.126,2.84,0.252,1.704c0.126-1.136,0.126-2.84,0-3.787
	C-215.174,387.42-215.3,388.367-215.3,390.45z M-192.636,389.819c0,1.01,0.126,1.388,0.315,0.757c0.127-0.568,0.127-1.452,0-1.894
	C-192.51,388.303-192.636,388.745-192.636,389.819z M-222.308,396.574c-0.063,3.093-0.379,5.555-0.758,5.555
	c-0.315,0-1.073,0.695-1.64,1.578c-1.264,1.894-0.695,5.872,1.072,7.766c0.632,0.757,1.2,1.83,1.263,2.462
	c0,0.884,0.126,0.884,0.379,0.19c0.126-0.506,0.442-1.39,0.631-1.895c0.568-1.578,0.631-9.09,0.126-9.785
	c-0.315-0.379-0.631-3.094-0.757-5.998l-0.19-5.366C-222.182,391.081-222.308,396.574-222.308,396.574z M-192.699,395.564
	c0,0.694,0.189,0.883,0.378,0.378c0.19-0.442,0.127-1.01-0.063-1.2c-0.19-0.252-0.379,0.127-0.315,0.821V395.564z M-208.103,396.005
	c-0.19,0.442-0.19,1.894-0.127,3.283c0.127,1.39,0.38,8.46,0.632,15.783c0.442,13.826,0.947,18.119,0.947,7.828
	c0-5.176,0.126-6.06,1.2-6.692c1.451-0.883,3.345-6.88,3.345-10.669C-202.043,401.435-207.093,393.354-208.103,396.005z
	 M-177.611,397.331c0,1.768-0.442,2.841-1.894,4.293c-2.525,2.525-2.588,5.43-0.063,7.892c1.704,1.767,1.83,2.146,2.21,9.659
	c0.252,4.356,0.568,18.245,0.694,30.87c0.19,12.627,0.442,23.107,0.631,23.296c0.19,0.19,0.316-1.578,0.316-3.914
	c0-3.661,0.19-4.482,1.578-5.934c0.884-0.947,1.768-2.336,1.957-3.03c0.442-1.642-1.325-5.304-2.525-5.304
	c-1.01,0-1.578-12.941-1.894-42.487c-0.126-9.28-0.379-17.045-0.568-17.298C-177.422,395.184-177.611,396.069-177.611,397.331z
	 M-192.573,399.92c0,1.704,0.126,2.399,0.252,1.388c0.127-0.947,0.127-2.335,0-3.156
	C-192.447,397.394-192.573,398.152-192.573,399.92z M-200.843,400.867c0,0.883,0.126,1.199,0.315,0.757
	c0.127-0.379,0.127-1.136,0-1.578c-0.189-0.379-0.315-0.063-0.315,0.82V400.867z M-214.606,416.082
	c0.253,8.46,0.631,15.53,0.82,15.72c0.19,0.19,0.19-4.04,0.127-9.344c-0.19-6.123,0-9.785,0.379-10.1
	c1.389-0.948,2.84-3.978,2.84-5.935c0-2.462-0.378-2.967-2.777-4.545l-1.83-1.137L-214.606,416.082z M-192.573,406.234
	c0,1.389,0.126,1.894,0.252,1.073c0.127-0.758,0.127-1.894,0-2.525C-192.51,404.213-192.636,404.845-192.573,406.234z
	 M-192.636,410.337c0,0.884,0.126,1.2,0.315,0.758c0.127-0.379,0.127-1.137,0-1.578
	C-192.51,409.137-192.636,409.453-192.636,410.337z M-200.276,411.979c0,0.694,0.19,0.883,0.38,0.378
	c0.19-0.441,0.126-1.01-0.063-1.2c-0.19-0.252-0.38,0.127-0.316,0.822H-200.276z M-192.699,419.996
	c0.063,1.957,0.378,3.599,0.63,3.599c0.57,0,0.317-6.187-0.315-6.755C-192.636,416.587-192.763,417.976-192.699,419.996z
	 M-237.333,443.796c0.252,13.385,0.442,31.503,0.568,40.215c0.063,8.776,0.379,15.973,0.694,15.973c0.253,0,0.38-8.839,0.127-20.076
	c-0.19-10.985-0.568-28.977-0.758-39.9c-0.19-10.92-0.505-20.012-0.694-20.201c-0.19-0.19-0.127,10.606,0.063,23.99V443.796z
	 M-244.467,444.87c0.063,12.816,0.316,25.063,0.568,27.083c0.316,2.02,0.379-8.333,0.19-23.106
	c-0.191-14.772-0.442-26.957-0.569-27.083C-244.467,421.574-244.53,431.991-244.467,444.87L-244.467,444.87z M-221.677,434.453
	c-0.063,7.26,0.063,13.132,0.38,13.132c0.252,0,0.378-5.05,0.252-11.175C-221.298,420.186-221.614,419.365-221.677,434.453z
	 M-192.384,435.085c0.127,5.997,0.38,11.3,0.568,11.679c0.442,1.263,1.516,0.947,3.157-0.82c2.525-2.715,1.894-5.998-1.389-7.766
	c-1.389-0.694-1.452-1.136-1.452-7.007c0-3.41-0.252-6.377-0.568-6.566C-192.384,424.352-192.51,428.708-192.384,435.085z
	 M-199.644,430.035c-0.063,1.704,0.19,3.03,0.442,3.03c0.253,0,0.379-1.074,0.253-2.4
	C-199.265,427.004-199.581,426.751-199.644,430.035z M-213.47,443.796l0.253,11.048l-2.083,1.957
	c-2.715,2.588-2.841,5.619-0.442,8.08c2.146,2.084,3.409,2.084,3.409,0.064c0-1.705,0.884-2.084,1.704-0.758
	c0.632,1.01,3.978,3.599,4.672,3.599c0.316,0,0.568-0.884,0.568-1.894c0-1.073,0.127-1.894,0.316-1.894
	c0.19,0,1.2,0.757,2.273,1.704c3.535,3.157,6.88,3.22,5.87,0.127c-0.252-0.821-0.441-3.22-0.378-5.303
	c0.063-4.356-0.505-9.849-0.947-8.713c-0.19,0.442-0.82,0.821-1.452,0.821c-0.631,0-2.02,0.695-3.093,1.578
	c-1.768,1.516-1.894,1.516-2.526,0.506c-0.568-1.01-0.82-0.947-3.535,0.947c-1.641,1.136-3.093,2.02-3.157,1.893
	c-0.126-0.126-0.378-5.618-0.63-12.184c-0.253-6.629-0.569-12.121-0.758-12.31C-213.596,432.874-213.596,437.735-213.47,443.796z
	 M-199.013,434.326c-0.126,0.505-0.189,1.452-0.126,2.02c0.127,0.758-0.315,1.137-1.136,1.137c-1.642,0-3.851,2.904-3.851,5.05
	c0,2.841,5.113,6.566,5.808,4.23c0.126-0.379,0.063-3.598-0.126-7.07C-198.697,436.22-198.949,433.821-199.013,434.326z
	 M-206.525,439.692c0,1.01,0.126,1.39,0.316,0.758c0.126-0.568,0.126-1.452,0-1.894
	C-206.399,438.177-206.525,438.619-206.525,439.692z M-206.462,445.69c0,2.272,0.126,3.156,0.253,2.02
	c0.126-1.073,0.126-2.967,0-4.104C-206.336,442.533-206.462,443.417-206.462,445.69z M-184.429,452.13
	c-0.063,1.704-0.253,3.03-0.442,3.03c-0.19,0-1.136-0.569-2.083-1.2c-0.947-0.694-2.4-1.326-3.283-1.452
	c-1.452-0.19-1.579,0-1.515,2.146c0,1.326,0.063,6.566,0.126,11.68c0.063,5.05,0.316,9.027,0.505,8.838
	c0.252-0.19,0.379-1.83,0.379-3.535c-0.063-2.589,0.126-3.22,1.136-3.536c0.695-0.252,2.147-1.136,3.157-2.02
	c1.073-0.82,1.957-1.452,2.02-1.326c0.063,0.064,0.252,8.018,0.505,17.55l0.379,17.362v-16.92
	c-0.063-13.762,0.063-16.855,0.82-16.855c1.452,0,5.114-4.167,5.114-5.871c0-2.02-1.957-4.483-4.356-5.493
	c-1.515-0.631-1.957-1.2-2.147-3.03c-0.189-2.083-0.252-1.957-0.315,0.631L-184.429,452.13z M-161.071,463.682
	c-0.126,7.955-0.315,19.192-0.505,24.937c-0.252,7.513-0.189,10.227,0.316,9.722c0.505-0.442,0.631-8.017,0.505-24.937
	C-160.818,455.917-160.945,453.202-161.071,463.682z M-221.045,455.791c0,1.2,0.126,1.704,0.315,1.073
	c0.127-0.568,0.127-1.578,0-2.21C-220.92,454.086-221.045,454.591-221.045,455.791z M-220.919,471.258
	c0,7.323,0.126,10.164,0.19,6.44c0.126-3.725,0.126-9.723,0-13.258C-220.793,460.904-220.919,463.935-220.919,471.258z
	 M-228.558,471.889c0,2.778,0.126,3.851,0.253,2.336c0.126-1.452,0.126-3.725,0-5.05
	C-228.432,467.912-228.558,469.111-228.558,471.889z M-198.128,472.836c0.126,2.336-0.127,3.536-1.01,4.672
	c-1.579,1.957-1.516,4.545,0.062,5.871c1.137,1.01,1.263,1.894,1.263,8.65c0,4.166,0.126,7.386,0.253,7.26
	c0.315-0.316,0.63-16.415,0.441-24.433c0-2.84-0.315-5.176-0.63-5.176c-0.317,0-0.506,1.389-0.38,3.156H-198.128z M-212.333,484.705
	c0,8.018,0.252,14.71,0.568,14.899c0.505,0.379,0.316-28.599-0.253-29.167C-212.207,470.247-212.333,476.687-212.333,484.705z
	 M-175.717,486.283c0,7.387,0.252,12.5,0.631,12.753c0.568,0.379,0.19-24.243-0.379-24.874
	C-175.591,474.036-175.717,479.465-175.717,486.283z M-191.121,487.798c0.252,6.187,0.505,11.364,0.631,11.49
	c0.126,0.127,0.253-3.283,0.253-7.639c0-6.502,0.19-8.017,0.947-8.333c0.631-0.19,0.947-1.2,0.947-2.778
	c0-2.462-0.884-3.914-2.336-3.914C-191.31,476.624-191.437,478.834-191.121,487.798L-191.121,487.798z M-228.684,483
	c0.063,3.283,0.315,6.755,0.631,7.829c0.316,1.136,0.379-1.074,0.19-5.682C-228.243,476.119-228.747,474.667-228.684,483
	L-228.684,483z M-155.515,478.77c0,0.569,0.316,1.01,0.631,1.01c0.38,0,0.632-0.252,0.632-0.568
	c-0.017-0.425-0.257-0.809-0.632-1.01c-0.315-0.189-0.631,0.064-0.631,0.569V478.77z M-205.389,489.124
	c0,5.619,0.253,10.227,0.505,10.227c0.505,0,0.253-19.633-0.252-20.139C-205.263,479.086-205.389,483.505-205.389,489.124
	L-205.389,489.124z M-154.631,489.566c0,5.177,0.126,7.26,0.19,4.545c0.125-2.714,0.125-6.944,0-9.47
	C-154.505,482.117-154.631,484.326-154.631,489.566z M-243.646,491.776c0,3.977,0.063,5.618,0.19,3.598
	c0.125-1.957,0.125-5.24,0-7.26C-243.583,486.157-243.646,487.798-243.646,491.776L-243.646,491.776z M-220.919,492.091
	c0,3.472,0.063,4.798,0.19,2.967c0.126-1.83,0.126-4.671,0-6.313C-220.856,487.104-220.919,488.619-220.919,492.091
	L-220.919,492.091z M-228.116,498.973c0,0.63,0.505,1.01,1.389,1.01c0.757,0,1.2-0.063,1.073-0.19
	c-0.126-0.063-0.757-0.568-1.326-1.01C-227.927,498.026-228.116,498.089-228.116,498.973z M-220.54,499.415
	c0,0.315,0.568,0.568,1.262,0.568c0.695,0,1.263-0.127,1.263-0.253s-0.568-0.379-1.263-0.568
	C-219.972,498.972-220.54,499.099-220.54,499.415z"/>
</svg>
