<?xml version="1.0" encoding="iso-8859-1"?>
<!-- Generator: Adobe Illustrator 19.0.0, SVG Export Plug-In . SVG Version: 6.00 Build 0)  -->
<svg version="1.2" baseProfile="tiny" id="Layer_1" xmlns="http://www.w3.org/2000/svg" xmlns:xlink="http://www.w3.org/1999/xlink"
	 x="0px" y="0px" viewBox="-247 362.89 100 117" xml:space="preserve">
<title>face_00096</title>
<path d="M-231.045,363.764c-4.762,1.438-11.231,5.75-13.298,8.896c-1.527,2.245-2.246,4.851-2.515,8.894
	c-0.36,4.941-0.09,6.02,1.976,9.164c3.235,4.852,8.715,8.715,14.376,9.973c6.379,1.348,13.926-0.718,18.239-5.031
	c3.324-3.324,3.953-2.875,3.504,2.695c-0.09,1.977-0.27,6.29-0.36,9.524c-0.18,5.66-0.27,6.02-2.785,7.098
	c-4.762,1.977-6.559,4.762-7.008,11.051c-0.809,9.704,3.055,14.915,13.657,18.599c9.973,3.414,20.305,2.156,29.29-3.684
	c9.614-6.11,10.332-21.114,1.258-25.427c-1.707-0.808-3.145-1.617-3.145-1.707c-0.539-3.774-0.898-18.598-0.539-18.598
	c0.36,0,2.067,1.078,3.774,2.336c5.93,4.582,18.239,3.683,22.91-1.618c3.145-3.683,4.853-9.523,4.673-16.172
	c-0.36-9.614-7.008-15.993-16.622-15.993c-4.672,0-11.59,2.426-12.758,4.403c-0.899,1.437-2.336,1.258-2.336-0.36
	c0-0.808-0.809-1.347-1.887-1.347c-1.797,0-1.797,0.09-1.348,32.345c0.27,17.88,0.719,32.794,0.989,33.243
	c1.437,2.246-12.49,5.48-19.228,4.403c-7.188-1.079-10.063-3.415-9.883-8.177v-2.066l0.809,2.066
	c0.449,1.079,1.437,1.977,2.066,1.977c0.988,0,1.348-3.324,1.797-15.993c0.54-16.172,0.09-44.744-0.809-46.091
	c-0.808-1.348-3.054-0.899-3.054,0.539c0,1.887-0.54,1.707-3.594-1.168c-4.224-4.043-11.86-5.66-18.15-3.774H-231.045z
	 M-173.723,419.92c0.809,1.168,1.438,3.594,1.438,5.3c0,7.638-4.133,13.118-12.759,16.712c-9.613,3.954-23.72,0.54-29.02-7.188
	c-3.325-4.761-0.63-16.172,3.773-16.172c1.528,0,1.168,0.809-1.258,3.234c-1.796,1.797-2.246,3.145-2.246,6.56
	c0,3.863,0.36,4.761,3.055,7.097c9.165,7.997,34.412,4.133,36.837-5.75c0.63-2.246-1.527-7.547-3.054-7.547
	c-0.54,0-0.899-0.988-0.899-2.246C-177.856,416.955-175.61,416.955-173.723,419.92z M-152.699,390.81
	c-1.078,2.245-10.062,7.097-13.117,7.097c-2.965,0-7.547-3.055-9.524-6.29l-1.977-3.144l2.336,2.426
	c3.504,3.594,7.727,5.48,11.231,4.942c2.696-0.45,10.153-5.301,10.962-7.188c0.09-0.45,0.449-0.54,0.629-0.36
	c0.27,0.18,0,1.348-0.54,2.516V390.81z M-156.382,373.289c4.133,5.211,1.707,13.747-5.032,18.15
	c-2.785,1.886-3.324,1.976-6.29,0.898c-7.726-2.786-7.636-16.173,0.09-19.947C-163.121,370.144-158.539,370.504-156.382,373.289z
	 M-162.132,367.359c-0.989,0.45-2.965,0.719-4.493,0.719c-2.605,0-2.605,0-0.45-0.719c1.259-0.36,3.235-0.719,4.493-0.719
	C-160.515,366.55-160.515,366.64-162.132,367.359z M-157.46,367.899c-0.27,0.269-1.079,0.358-1.708,0.089
	c-0.718-0.27-0.449-0.54,0.54-0.54C-157.64,367.359-157.101,367.628-157.46,367.899L-157.46,367.899z M-173.543,371.85
	c-0.63,0.899-1.258,1.528-1.528,1.348c-0.359-0.36,1.618-3.145,2.247-3.145c0.18,0-0.09,0.81-0.72,1.797H-173.543z M-219.725,372.3
	c5.301,3.504,5.301,12.758,0.09,17.43c-1.617,1.438-3.863,2.875-4.941,3.234c-3.145,0.989-7.458-0.27-10.782-3.054
	c-2.875-2.336-3.145-3.055-3.055-7.188c0-3.594,0.54-5.121,2.246-6.918C-231.944,371.221-223.947,369.604-219.725,372.3z
	 M-218.646,367.358c7.187,2.785,10.781,13.208,7.187,20.845c-3.054,6.469-8.445,9.703-15.903,9.703
	c-6.828-0.09-14.196-5.66-15.992-12.13c-0.989-3.503-0.45-5.93,1.976-10.152c2.426-4.043,2.606-3.594,0.45,1.527
	c-2.247,5.122-1.708,9.884,1.347,12.759c7.817,7.457,12.758,8.355,20.036,3.953c5.211-3.235,7.547-7.278,7.547-13.118
	c0-4.851-2.785-9.613-6.738-11.59c-1.528-0.719-5.122-1.258-8.087-1.258c-3.683,0-4.672-0.18-3.144-0.629
	c3.414-0.988,8.625-0.898,11.32,0.09H-218.646z M-231.136,379.757c-2.874,3.145-1.437,7.457,3.056,9.075
	c2.605,0.898,3.054,0.718,5.84-2.067c3.683-3.684,3.773-4.402,0.718-6.739c-2.965-2.336-7.637-2.425-9.613-0.27L-231.136,379.757z
	 M-223.858,381.913c1.438,1.438-0.27,4.313-2.605,4.313c-2.516,0-3.325-2.695-1.258-4.133
	C-225.655,380.566-225.205,380.566-223.858,381.913z M-168.242,377.87c-0.719,0.899-1.617,2.696-1.977,3.953
	c-0.449,1.887-0.09,2.786,1.887,4.313c2.426,1.887,5.301,2.426,7.278,1.168c2.785-1.797,3.414-8.625,0.808-10.242
	C-162.043,375.804-166.805,376.342-168.242,377.87z M-162.582,381.734c0,2.066-0.36,2.695-1.797,2.695
	c-2.066,0-2.426-2.606-0.718-4.313C-163.39,378.409-162.582,378.858-162.582,381.734z M-204.092,367.088
	c-0.089,0.36-0.089,14.825,0.18,32.166c0.45,30.728,0.45,31.446,2.247,31.446c1.797,0,1.797-0.449,1.437-29.56
	c-0.18-16.262-0.629-30.637-0.898-31.895C-201.756,366.999-203.462,365.741-204.092,367.088L-204.092,367.088z M-186.212,366.998
	c-0.359,0.36-0.629,14.107-0.629,30.459c0,25.337,0.18,30.009,1.348,30.997c1.078,0.899,1.438,0.899,1.797-0.09
	c0.27-0.718,0.36-14.735,0.18-31.267c-0.18-28.66-0.54-32.255-2.696-30.098V366.998z M-189.895,448.67l-3.594,2.426l-3.953-1.977
	c-3.325-1.707-4.942-1.977-9.165-1.527c-7.547,0.808-26.056,8.445-26.056,10.781c0,1.168,3.145,5.122,4.133,5.122
	c0.18,0,1.887-0.63,3.594-1.348c3.055-1.258,3.235-1.258,5.122,0.898c2.964,3.235,13.117,8.266,19.407,9.524
	c11.23,2.156,23.18-0.898,32.614-8.266c3.235-2.605,3.414-2.965,2.156-4.312c-1.617-1.528-1.527-1.528-7.098,2.875
	c-8.176,6.469-22.73,8.715-32.704,4.941c-7.457-2.785-14.196-7.008-12.668-7.996c2.156-1.528,10.871-3.684,14.106-3.684
	c3.324,0.09,9.703,2.516,13.297,5.211c1.887,1.348,2.067,1.258,4.043-1.797c2.336-3.683,5.48-4.672,12.758-3.863
	c4.583,0.45,14.017,3.953,14.017,5.211c0,1.348-12.4,9.614-17.88,11.86c-8.446,3.594-12.489,4.313-19.766,3.414
	c-7.548-0.988-16.083-4.762-21.204-9.344c-1.977-1.797-4.133-3.324-4.672-3.324c-2.426,0-0.989,2.695,3.054,6.199
	c7.997,6.828,16.802,9.973,28.572,9.973c7.098,0,8.985-0.36,15.004-2.875c8.087-3.235,19.228-11.23,19.048-13.567
	c-0.18-1.887-0.18-1.887,3.863-0.18c1.708,0.72,3.954,1.348,4.852,1.348c2.965,0,1.887-1.797-2.066-3.504
	c-2.157-0.898-7.098-3.234-11.052-5.031c-6.558-3.145-7.906-3.504-14.914-3.504c-7.098-0.09-7.907,0.09-10.962,2.336
	c-3.953,3.054-5.21,3.234-2.605,0.449c1.078-1.168,1.797-2.336,1.437-2.606c-0.27-0.27,1.348-1.168,3.504-2.066
	c3.325-1.258,4.762-1.348,9.704-0.45c3.145,0.54,7.008,1.618,8.446,2.247c8.445,3.773,14.465,5.66,15.274,4.851
	c1.527-1.527,0.718-1.886-16.981-8.535c-1.887-0.719-6.56-1.527-10.333-1.797C-185.942,446.243-186.661,446.423-189.895,448.67
	L-189.895,448.67z M-195.465,453.162c3.413,2.246,1.077,3.055-2.966,0.988c-3.953-2.066-10.871-1.796-17.7,0.81
	c-3.324,1.257-6.2,2.066-6.379,1.886c-0.36-0.36,0.899-0.899,10.961-4.582c4.762-1.797,12.759-1.258,16.083,0.898H-195.465z"/>
</svg>
