<?xml version="1.0" encoding="iso-8859-1"?>
<!-- Generator: Adobe Illustrator 19.0.0, SVG Export Plug-In . SVG Version: 6.00 Build 0)  -->
<svg version="1.2" baseProfile="tiny" id="Layer_1" xmlns="http://www.w3.org/2000/svg" xmlns:xlink="http://www.w3.org/1999/xlink"
	 x="0px" y="0px" viewBox="-247 361.89 100 118" xml:space="preserve">
<title>face_00128</title>
<path d="M-208.037,362.691c0.823,0.353,1.88,0.235,2.233-0.117c0.47-0.353-0.235-0.706-1.528-0.588
	C-208.624,361.986-208.977,362.339-208.037,362.691z M-186.885,362.691c0.822,0.353,1.88,0.235,2.233-0.117
	c0.47-0.353-0.235-0.706-1.528-0.588C-187.473,361.986-187.825,362.339-186.885,362.691z M-218.025,365.746
	c-5.993,3.174-12.925,9.401-16.685,14.924c-1.645,2.233,0.117,0.822,3.878-3.173c4.23-4.7,9.165-8.46,13.866-10.81
	c3.995-1.998,6.463-3.643,5.523-3.643c-0.94,0.117-3.878,1.292-6.58,2.702H-218.025z M-172.431,369.506
	c1.762,1.998,4.23,5.406,5.64,7.639c1.293,2.232,2.468,3.525,2.468,2.82c0-1.763-6.11-9.988-8.931-12.221
	C-174.429,366.804-174.077,367.626-172.431,369.506L-172.431,369.506z M-164.206,382.433c0.118,2.232,2.115,5.992,2.115,4.112
	c0-0.94-0.47-2.585-1.057-3.525C-163.736,382.08-164.206,381.727-164.206,382.433z M-238.236,387.25
	c0,1.293,0.352,1.646,0.705,0.705c0.352-0.822,0.235-1.88-0.118-2.232C-238.001,385.253-238.354,385.958-238.236,387.25z
	 M-233.536,391.363c-1.645,0.588-3.408,0.94-4.113,0.705c-0.705-0.235-3.408,1.998-5.993,4.936c-4.348,5.053-4.348,5.17-0.587,1.645
	c5.64-5.17,13.16-7.756,20.564-7.05c3.76,0.47,5.053,0.234,3.525-0.353C-223.313,389.836-230.01,389.953-233.536,391.363z
	 M-161.973,391.481c0,1.41,1.41,2.467,4.465,3.172c2.35,0.706,5.523,2.116,7.05,3.173c1.528,1.058,3.056,1.645,3.408,1.293
	c0.705-0.823-8.343-5.523-10.693-5.523c-0.94,0-2.35-0.94-2.938-2.115C-161.856,389.601-161.856,389.601-161.973,391.481z
	 M-165.733,393.243c0.822,0.353,1.88,0.235,2.232-0.117c0.47-0.353-0.235-0.705-1.527-0.588
	C-166.321,392.538-166.674,392.891-165.733,393.243z M-211.914,396.886c4.112,4.348,4.7,4.583,2.937,1.41
	c-0.705-1.292-2.35-2.937-3.878-3.643c-1.997-1.175-1.88-0.705,0.94,2.233H-211.914z M-172.784,394.418
	c0.705,0.235,2.115,0.235,2.938,0c0.705-0.352,0.117-0.587-1.528-0.587S-173.607,394.066-172.784,394.418z M-179.129,397.004
	c-2.116,1.292-4.113,2.82-4.583,3.525c-0.588,1.057,6.933-3.525,8.695-5.288C-173.842,394.183-175.722,394.888-179.129,397.004z
	 M-229.189,400.294c1.41,0.235,3.526,0.235,4.701,0c1.058-0.353-0.117-0.588-2.703-0.47
	C-229.776,399.824-230.716,400.059-229.189,400.294L-229.189,400.294z M-165.029,400.646c2.703,0.47,5.406,1.998,6.699,3.643
	c1.175,1.528,2.232,2.233,2.232,1.41c0-2.467-6.11-6.228-9.87-6.11c-3.408,0.117-3.408,0.235,0.94,1.057H-165.029z
	 M-237.179,403.584c-1.527,1.645-2.585,3.055-2.233,3.29c0.236,0.118,1.88-1.175,3.643-2.937c1.763-1.763,2.703-3.29,2.233-3.29
	S-235.651,401.939-237.179,403.584z M-177.014,403.819c-1.763,1.88-2.233,2.468-0.823,1.41c1.293-1.057,3.408-2.467,4.7-3.172
	c1.293-0.706,1.646-1.41,0.94-1.41C-173.019,400.647-175.134,402.057-177.014,403.819z M-207.097,404.759
	c0.94,4.348,1.646,5.288,1.646,2.233c0-1.175-0.588-3.055-1.176-3.995C-207.567,401.704-207.684,402.174-207.097,404.759z
	 M-188.295,408.284c-1.058,3.056-0.823,3.76,0.587,1.41c0.705-1.175,1.058-2.467,0.705-2.702
	C-187.238,406.639-187.825,407.227-188.295,408.284z M-229.188,408.519c1.41,0.236,3.76,0.236,5.288,0
	c1.41-0.235,0.235-0.47-2.703-0.47C-229.541,408.049-230.716,408.284-229.188,408.519z M-219.788,408.519
	c0.823,0.353,1.88,0.236,2.233-0.117c0.47-0.353-0.235-0.705-1.527-0.588C-220.375,407.814-220.728,408.167-219.788,408.519z
	 M-215.792,409.107c0.235,0.705,1.175,1.645,1.88,1.88c0.822,0.235,1.175-0.235,0.705-1.41
	C-214.03,407.462-216.497,406.992-215.792,409.107z M-236.592,410.047c-0.352,0.705,0.118,0.823,1.058,0.47
	c2.115-0.822,2.468-1.645,0.823-1.645c-0.705,0-1.528,0.47-1.88,1.175H-236.592z M-184.3,411.222c-1.292,1.293-2.35,3.055-2.35,3.76
	c0,1.058,0.47,0.94,1.175-0.235c1.058-1.527,1.293-1.527,2.468,0c1.057,1.41,1.175,1.41,0.587-0.47
	c-0.47-1.175-0.117-2.937,0.588-3.76C-179.717,408.049-181.597,408.519-184.3,411.222z M-172.196,409.695
	c1.057,0.235,2.702,0.235,3.525,0c0.705-0.353-0.118-0.588-2.115-0.588C-172.666,409.107-173.372,409.342-172.196,409.695z
	 M-240.47,411.457c-1.528,1.528-1.88,3.408-0.47,3.055c0.47-0.117,2.115,0.47,3.76,1.293c2.82,1.528,2.82,1.528,1.058-0.588
	c-1.058-1.175-2.115-2.937-2.35-3.76C-238.825,410.282-239.295,410.282-240.47,411.457z M-205.217,412.985
	c0,1.88,0.235,2.585,0.587,1.41c0.235-1.058,0.235-2.703,0-3.525C-204.982,410.165-205.217,410.987-205.217,412.985z
	 M-177.955,412.985c-0.353,1.527-0.47,3.525-0.118,4.348c0.353,0.822,0.705,0.235,0.705-1.528c0.118-1.645,0.705-3.525,1.528-4.348
	c1.057-1.057,1.057-1.41,0-1.41C-176.545,410.047-177.485,411.34-177.955,412.985z M-166.675,410.517
	c0,1.058,3.526,1.645,4.113,0.705c0.47-0.705-0.352-1.175-1.645-1.175C-165.617,410.047-166.675,410.282-166.675,410.517z
	 M-155.746,412.632c0.235,0.823-0.588,2.82-1.998,4.466c-1.645,1.88-1.763,2.35-0.352,1.292c1.057-0.822,1.997-1.175,1.997-0.587
	c0,0.587,0.588,0.235,1.175-0.705c1.528-2.35,1.528-5.876-0.117-5.876C-155.746,411.222-156.099,411.927-155.746,412.632z
	 M-228.954,413.572c0,0.588,0.822,1.175,1.762,1.175s1.763-0.587,1.763-1.175c0-0.705-0.823-1.175-1.763-1.175
	S-228.954,412.867-228.954,413.572z M-215.206,414.747c-1.762,1.763-1.762,2.116-0.352,2.703c1.057,0.47,1.88-0.235,2.35-1.88
	C-212.385,412.397-212.621,412.28-215.206,414.747z M-233.655,415.687c0,1.646,0.94,2.82,2.82,3.29
	c4.23,1.058,9.284,0.118,9.871-1.88c0.47-1.41,0.235-1.527-1.057-0.352c-2.468,2.468-7.756,1.88-9.753-1.057l-1.88-2.586
	L-233.655,415.687L-233.655,415.687z M-171.375,414.747c-0.94,0.588-1.293,1.41-0.822,1.88c0.47,0.47,1.527,0.236,2.232-0.47
	C-168.202,414.395-169.142,413.337-171.375,414.747z M-181.245,418.507c2.585,4.231,17.743,5.524,17.743,1.528
	c0-1.41-0.47-1.292-2.468,0.118c-3.172,2.233-5.757,2.115-11.398-0.588c-2.468-1.292-4.23-1.762-3.878-1.057L-181.245,418.507z
	 M-185.476,419.917c0,0.94,0.47,1.998,1.058,2.351c0.587,0.47,0.822-0.353,0.47-1.645c-0.705-2.703-1.528-3.055-1.528-0.705V419.917
	z M-158.331,422.151c-1.528,2.467-1.41,2.467,0.587,0.587c1.175-1.175,1.88-2.35,1.528-2.585
	C-156.569,419.8-157.509,420.74-158.331,422.151z M-218.378,421.798c-1.058,0.705-1.176,1.175-0.353,1.175
	c0.705,0,1.763-0.587,2.115-1.175C-215.676,420.388-216.146,420.388-218.378,421.798z M-191.234,422.503
	c0,1.293,0.353,1.645,0.705,0.705c0.353-0.822,0.235-1.88-0.117-2.233C-190.999,420.505-191.351,421.21-191.234,422.503z
	 M-183.126,424.618c0,0.235,0.94,1.175,2.115,1.998c1.763,1.527,1.88,1.41,0.353-0.47
	C-182.186,424.266-183.126,423.678-183.126,424.618z M-163.619,427.086c-1.293,0.94-1.763,1.763-1.058,1.763s1.88-0.823,2.703-1.763
	C-160.094,424.853-160.682,424.853-163.619,427.086z M-192.29,435.664c-0.118,3.29,0.235,4.818,0.94,4.348
	c0.705-0.47,2.115-0.47,3.172-0.118c1.645,0.705,1.528,1.175-0.822,3.643c-1.528,1.528-3.055,2.585-3.525,2.35
	c-0.588-0.352-1.293,0.235-1.646,1.175c-0.94,2.468,2.468,0.588,6.228-3.407c2.703-2.938,2.82-2.938,5.876-0.823
	c4.23,2.938,5.993,3.878,5.993,3.29c0-1.057-9.283-6.58-12.221-7.403c-2.233-0.47-3.055-1.645-3.408-4.348
	C-192.055,431.316-192.173,431.551-192.29,435.664z M-205.686,441.774c0.47,3.643-0.706,4.466-3.056,2.116
	c-1.057-1.058-1.057-1.763,0.118-3.056c1.175-1.527,1.057-1.645-1.293-0.352l-2.82,1.528l3.878,2.82
	c2.115,1.527,3.995,2.82,4.23,2.82s0.353-2.115,0.353-4.7c0-2.586-0.47-4.7-0.94-4.7
	C-205.804,438.25-206.039,439.777-205.686,441.774z M-218.495,446.122c-1.528,1.88-1.41,1.998,0.47,0.47
	c1.88-1.527,2.468-2.467,1.528-2.467C-216.732,444.125-217.672,445.065-218.495,446.122z M-223.665,450.118
	c-1.293,1.88-0.118,2.232,1.527,0.352c0.823-0.94,0.94-1.645,0.353-1.645C-222.373,448.825-223.313,449.413-223.665,450.118z
	 M-197.108,450.705c0,1.293,0.352,1.645,0.705,0.705c0.352-0.822,0.235-1.88-0.118-2.232
	C-196.873,448.708-197.226,449.413-197.108,450.705z M-202.984,454.348c-0.117,0.822-1.292,1.528-2.702,1.645
	c-2.116,0.118-1.88,0.353,1.175,1.175c1.997,0.588,3.76,1.645,3.76,2.233c0,1.762,3.055,1.41,4.7-0.47
	c1.058-1.293,1.058-2.233,0-3.878c-0.94-1.528-1.175-1.645-0.822-0.235c0.822,2.468-0.94,5.053-2.703,3.995
	c-0.705-0.47-1.763-1.997-2.35-3.407C-202.514,454.113-202.984,453.643-202.984,454.348z M-193.584,456.346
	c0.236,0.235,2.586,0.705,5.171,1.057c3.173,0.47,4.113,0.353,2.938-0.352C-187.12,455.993-194.758,455.288-193.584,456.346
	L-193.584,456.346z M-214.03,457.873c-1.057,0.235-2.82,2.35-3.76,4.583c-1.528,3.525-1.41,4.348,0.118,6.11
	c5.993,6.934,6.815,7.756,5.64,6.111c-2.233-2.938-5.405-9.636-4.935-10.106c0.352-0.235,2.232,0.118,4.465,0.705
	c2.233,0.588,4.23,0.94,4.465,0.588c0.235-0.235-1.292-0.94-3.407-1.41c-5.053-1.41-5.523-3.29-1.41-5.523
	C-209.564,457.168-209.917,456.816-214.03,457.873z M-180.775,459.871c2.233,1.292,2.468,1.88,1.175,2.233
	c-0.94,0.352-3.29,1.175-5.287,1.88l-3.526,1.292l3.526-0.587c1.997-0.353,4.582-1.058,5.875-1.41
	c2.115-0.588,1.998-0.353-0.588,2.702c-1.645,1.88-1.997,2.585-0.822,1.763c1.645-1.293,2.35-1.293,3.995,0
	c1.763,1.41,1.88,1.41,1.175-0.588c-0.47-1.175-0.235-2.937,0.588-3.995c1.175-1.528,1.175-1.645,0-0.94
	c-0.823,0.47-1.763,0-2.35-1.293c-0.47-1.175-2.115-2.232-3.76-2.35l-2.938-0.352C-183.712,458.226-180.775,459.871-180.775,459.871
	z M-191.585,466.099c0.822,0.352,1.88,0.235,2.232-0.118c0.47-0.352-0.235-0.705-1.527-0.587
	C-192.173,465.394-192.525,465.746-191.585,466.099z M-203.336,467.274c1.41,0.235,3.76,0.235,5.288,0
	c1.41-0.235,0.235-0.47-2.703-0.47S-204.864,467.039-203.336,467.274z M-199.341,473.149c-0.235,4.818-0.353,5.053-3.995,5.17
	c-2.115,0-3.173,0.353-2.35,0.706c2.115,0.822,10.34-0.823,8.813-1.763c-0.705-0.47-1.528-2.703-1.88-4.935
	C-199.223,468.449-199.223,468.449-199.341,473.149z M-186.18,471.387l-2.233,2.702l2.703-2.232
	c2.468-2.115,3.173-3.055,2.233-3.055C-183.712,468.802-184.887,469.977-186.18,471.387z M-192.525,475.265
	c-1.646,0.94-2.35,1.645-1.646,1.762c0.588,0,2.233-0.822,3.526-1.762C-187.825,473.149-188.765,473.032-192.525,475.265z"/>
</svg>
