<?xml version="1.0" encoding="iso-8859-1"?>
<!-- Generator: Adobe Illustrator 19.0.0, SVG Export Plug-In . SVG Version: 6.00 Build 0)  -->
<svg version="1.2" baseProfile="tiny" id="Layer_1" xmlns="http://www.w3.org/2000/svg" xmlns:xlink="http://www.w3.org/1999/xlink"
	 x="0px" y="0px" viewBox="-247 356.89 100 128" xml:space="preserve">
<title>face_00056</title>
<path d="M-198.37,357.667c-0.407,0.407-2.981,0.949-5.827,1.084c-6.097,0.271-8.4,3.659-2.439,3.659
	c7.453,0,13.957-1.762,13.957-3.523C-192.679,357.125-196.879,356.177-198.37,357.667z M-189.427,359.564
	c0.542,0.813,2.033,1.49,3.388,1.49c1.22,0,5.555,1.627,9.485,3.524c6.64,3.387,9.485,3.658,7.723,0.813
	c-0.406-0.678-3.116-2.44-5.826-3.659C-180.89,358.752-190.782,357.261-189.427,359.564z M-221.812,362.545
	c-5.962,2.981-11.11,7.453-9.891,8.672c0.406,0.407,2.98-0.677,5.69-2.574c2.71-1.762,6.776-3.659,8.944-4.2
	c2.303-0.543,4.065-1.762,4.065-2.846C-213.004,359.022-215.308,359.293-221.812,362.545z M-166.934,370.405
	c0,0.677,1.49,2.574,3.388,4.335c1.761,1.762,3.387,4.065,3.387,4.878c0,0.949,0.949,1.762,2.033,1.762s2.032-0.949,2.032-2.033
	c0-1.084-0.542-2.032-1.22-2.032c-0.812,0-2.438-1.897-3.793-4.065c-2.168-3.794-5.827-5.556-5.827-2.846L-166.934,370.405z
	 M-236.039,377.315c0,1.49-0.949,3.116-2.033,3.523c-1.761,0.677-2.981,5.962-1.49,5.962c2.71,0,4.878-2.168,4.878-4.743
	c0-1.761,0.677-3.658,1.355-4.065c2.032-1.22,1.626-3.387-0.678-3.387C-235.091,374.605-236.039,375.825-236.039,377.315z
	 M-156.5,383.548c-1.084,1.084,0.135,3.252,1.897,3.252c0.677,0,1.22-0.949,1.22-2.033c0-2.032-1.627-2.71-3.117-1.22V383.548z
	 M-241.866,390.458c-0.542,0.407-0.948,2.033-0.948,3.388c0,2.981,3.523,3.252,4.607,0.271
	C-236.852,390.729-239.562,388.019-241.866,390.458z M-154.739,391.542c0,1.084,0.949,2.033,2.033,2.033
	c1.084,0,2.032-0.949,2.032-2.033c0-1.084-0.948-2.032-2.032-2.032C-153.79,389.51-154.739,390.458-154.739,391.542z
	 M-221.269,395.065c-3.66,1.355-7.724,7.318-6.234,8.944c0.542,0.406,2.44-0.813,4.2-2.71c2.169-2.44,4.743-3.659,7.318-3.659
	c4.878,0,13.414,3.388,14.227,5.691c0.542,1.355,0.949,1.355,2.44,0.136c1.49-1.491,1.219-2.168-0.95-3.794
	c-6.774-5.556-14.091-7.182-21.002-4.608H-221.269z M-187.259,398.995c-2.71,2.033-2.981,2.846-1.761,4.2
	c1.355,1.356,2.168,1.22,3.523-0.677c1.49-2.168,3.116-2.439,8.943-1.897c3.794,0.407,7.994,1.626,9.35,2.981
	c2.98,2.575,5.69,2.846,5.69,0.407c0-0.813-2.439-2.981-5.42-4.743C-173.574,395.472-182.516,395.336-187.259,398.995z
	 M-152.029,398.318c0,1.084,0.949,2.032,2.033,2.032s2.032-0.948,2.032-2.032c0-1.085-0.948-2.033-2.032-2.033
	S-152.029,397.233-152.029,398.318z M-242.272,400.079c-0.814,0.542-1.898,3.388-2.44,6.369c-0.542,2.98-1.219,7.046-1.626,9.078
	c-0.542,2.71-0.27,3.794,1.22,3.794c1.22,0,2.439-2.98,3.523-9.62C-239.698,399.808-239.833,398.453-242.272,400.079z
	 M-150.267,408.209c0,2.846-0.407,6.504-0.949,8.13c-0.813,2.44-0.406,2.981,1.626,2.981c2.44,0,2.71-0.948,2.44-8.13
	C-147.286,402.247-150.267,399.402-150.267,408.209L-150.267,408.209z M-221.405,408.887c-5.014,2.98-7.453,7.317-5.15,9.62
	c0.678,0.678,1.898-0.135,2.982-1.761c2.032-3.252,5.149-3.794,5.149-0.813c0,1.084-0.542,2.032-1.355,2.032
	c-2.71,0-1.22,3.794,1.761,4.607c8.13,2.168,14.77-0.813,16.26-7.317c0.678-2.71,0-3.93-3.658-6.504
	c-5.42-3.658-9.62-3.658-15.99,0.136H-221.405z M-206.229,415.255c0,1.49-0.949,2.71-2.033,2.71c-2.303,0-2.439-0.27-1.22-3.252
	C-208.262,411.597-206.229,412.003-206.229,415.255z M-182.381,408.887c-5.962,3.658-7.317,5.555-6.097,8.672
	c0.677,1.897,1.897,2.845,2.98,2.303c1.085-0.406,2.304,0.271,2.71,1.355c1.627,4.2,14.77,1.355,17.48-3.658
	c1.22-2.44,0.813-3.388-2.845-6.64C-172.625,406.854-177.909,406.177-182.381,408.887z M-152.029,424.74
	c0,1.49,0.949,2.71,2.033,2.71s2.032-1.22,2.032-2.71c0-1.49-0.948-2.71-2.032-2.71S-152.029,423.25-152.029,424.74z
	 M-246.879,426.23c0,3.253,3.116,2.846,3.793-0.541c0.272-1.355-0.406-2.304-1.626-2.304c-1.355,0-2.168,1.22-2.168,2.846
	L-246.879,426.23z M-246.202,431.515c-0.949,1.626,0.271,4.065,2.168,4.065c0.677,0,1.22-1.22,1.22-2.71
	C-242.814,430.025-244.847,429.212-246.202,431.515z M-152.571,431.786c-1.626,5.014-1.626,10.57,0.136,10.57
	c1.626,0,2.439-2.169,3.387-8.673C-148.641,430.703-151.758,429.076-152.571,431.786z M-245.525,441c0,1.49,0.949,2.71,2.033,2.71
	s2.033-1.22,2.033-2.71s-0.949-2.71-2.033-2.71S-245.525,439.51-245.525,441z M-204.875,439.374c0,4.336,10.841,5.962,15.719,2.44
	c3.659-2.71,1.355-4.201-4.065-2.575c-2.575,0.813-5.42,0.948-6.369,0.27c-2.439-1.49-5.284-1.49-5.284-0.135H-204.875z
	 M-156.907,449.131c-0.542,2.168-1.355,4.065-2.032,4.065c-0.678,0-1.22,1.22-1.22,2.71s0.949,2.71,2.033,2.71
	c1.084,0,2.032-1.084,2.032-2.575c0-1.355,0.949-3.252,2.033-4.2c2.71-2.168,2.574-6.776,0-6.776
	C-155.281,445.065-156.501,446.691-156.907,449.131z M-243.492,449.131c-0.542,0.948-0.271,2.303,0.542,3.116
	c0.813,0.813,1.49,2.575,1.49,3.93s0.678,2.439,1.356,2.439c0.813,0,1.355,1.22,1.355,2.71c0,1.761,0.948,2.71,2.71,2.71
	c3.523,0,3.387-1.084-0.678-7.046c-1.897-2.846-3.252-5.827-3.116-6.64c0.542-2.168-2.44-3.117-3.659-1.22V449.131z
	 M-209.482,450.757c-8.536,1.084-11.788,2.845-9.484,5.149c0.813,0.813,3.116,0.813,6.64-0.136
	c3.116-0.948,10.297-1.22,16.666-0.813c10.027,0.542,14.363-0.406,11.924-2.71C-185.226,450.757-201.758,449.808-209.482,450.757
	L-209.482,450.757z M-179.806,454.551c-0.949,1.626,0.27,4.065,2.168,4.065c0.677,0,1.22-1.22,1.22-2.71
	C-176.418,453.06-178.451,452.247-179.806,454.551z M-165.036,462.003c-0.407,1.084-0.407,2.575,0.135,3.388
	c1.22,1.897,4.742-0.813,4.742-3.523C-160.159,459.293-164.089,459.428-165.036,462.003L-165.036,462.003z M-233.329,466.881
	c0,2.033,5.69,7.995,7.859,7.995c0.813,0,1.626,0.542,1.626,1.355c0,0.677,1.22,1.355,2.845,1.355c1.626,0,2.575-0.678,2.168-1.762
	c-0.27-0.813-1.355-1.49-2.168-1.22c-0.813,0.136-3.523-1.896-5.962-4.47C-231.432,465.255-233.329,464.307-233.329,466.881z
	 M-170.457,469.591c-1.084,1.897,1.49,4.472,3.388,3.388c2.168-1.355,1.761-4.878-0.407-4.878c-1.084,0-2.439,0.677-2.98,1.49
	H-170.457z M-177.232,475.011c-0.406,0.813-0.27,2.033,0.271,2.575c1.626,1.626,5.15-0.678,4.065-2.575
	C-174.116,473.114-176.012,473.114-177.232,475.011z M-211.92,478.67c-2.168,0.27-3.794,0.948-3.794,1.626
	c0,1.897,1.761,2.303,5.69,1.49C-205.281,480.702-207.042,478.128-211.92,478.67z M-186.581,480.16
	c-0.407,0.678-0.136,1.626,0.542,2.033c1.626,1.084,5.555-0.407,5.555-2.033S-185.497,478.534-186.581,480.16z M-203.926,481.244
	c-1.626,1.49-1.084,3.117,1.084,3.117c1.084,0,2.033-0.949,2.033-2.033C-200.809,480.16-202.435,479.618-203.926,481.244z
	 M-195.389,482.328c0,1.355,0.948,2.033,2.439,1.762c2.846-0.542,2.575-2.981-0.271-3.523
	C-194.576,480.296-195.389,480.973-195.389,482.328z"/>
</svg>
