<?xml version="1.0" encoding="iso-8859-1"?>
<!-- Generator: Adobe Illustrator 19.0.0, SVG Export Plug-In . SVG Version: 6.00 Build 0)  -->
<svg version="1.2" baseProfile="tiny" id="Layer_1" xmlns="http://www.w3.org/2000/svg" xmlns:xlink="http://www.w3.org/1999/xlink"
	 x="0px" y="0px" viewBox="-247 363.89 100 115" xml:space="preserve">
<title>face_00071</title>
<path d="M-162.663,364.5c-7.779,1.556-17.362,7.84-17.362,11.45c0,0.684-0.249,1.369-0.56,1.556
	c-0.31,0.249-0.746,1.555-0.995,3.049c-0.311,1.556-1.12,3.298-2.116,4.356c-0.933,0.933-2.365,3.547-3.174,5.85
	c-1.369,3.92-1.43,4.853-1.306,17.236c0.062,7.219,0.435,14.375,0.746,15.868c0.498,2.116,0.436,2.925-0.249,3.734
	c-1.804,2.054-2.489,5.725-2.053,11.201c0.187,2.862,0.56,5.414,0.684,5.6c0.187,0.187,1.743-0.186,3.485-0.808
	c2.303-0.872,4.107-1.058,6.72-0.81c3.174,0.374,8.153,1.93,8.153,2.614c0,0.125-2.614,0.25-5.725,0.187
	c-6.41,0-12.322,1.556-15.806,4.17c-1.93,1.43-1.93,1.43-3.796,0.31c-1.058-0.622-3.485-1.618-5.414-2.24
	c-2.987-0.933-4.17-0.996-8.899-0.436c-3.049,0.436-6.16,0.934-6.97,1.183c-3.297,0.995-0.497-0.934,3.672-2.552
	c3.61-1.369,4.979-1.617,8.214-1.306c9.21,0.809,8.277,0.933,8.277-1.494c0.124-5.29-0.996-12.134-2.178-13.379
	c-1.058-1.12-1.12-1.68-0.56-5.85c0.87-6.035,0.373-22.152-0.81-28.126c-1.057-5.165-2.24-7.779-4.915-11.201
	c-0.996-1.245-1.805-2.676-1.805-3.174c0-1.742-2.24-7.156-3.734-8.96c-0.87-1.058-2.55-2.614-3.733-3.423
	c-1.183-0.809-2.427-1.805-2.8-2.178c-1.494-1.742-9.895-2.365-14.686-1.12c-4.17,1.12-8.09,3.422-11.948,7.156
	c-2.364,2.302-2.987,3.237-2.489,3.734c0.56,0.56,1.618-0.063,4.294-2.427c3.298-2.987,10.33-6.596,13.628-7.032
	c3.982-0.56,11.387,2.551,15.12,6.223c1.681,1.742,3.797,6.596,3.112,7.28c-0.186,0.187-1.555,0-2.987-0.373
	c-1.866-0.498-3.173-0.498-4.48-0.062c-1.058,0.373-2.49,0.684-3.236,0.684c-1.742,0-7.156,4.17-8.525,6.534
	c-3.672,6.348,2.427,12.26,11.637,11.326c2.302-0.25,4.293-0.934,5.849-1.991c2.365-1.618,2.925-2.49,4.667-6.783
	c0.747-1.93,1.12-2.24,1.805-1.68c0.933,0.746,2.551,5.787,3.173,9.707c0.623,3.734,1.12,24.331,0.685,26.136
	c-0.374,1.493-0.56,1.555-3.36,1.182c-2.427-0.311-3.299-0.124-5.103,1.12c-2.552,1.743-2.987,3.112-1.618,5.165
	c0.871,1.307,1.493,1.556,4.17,1.556c2.177,0,3.733-0.374,4.977-1.245l1.743-1.307l0.373,1.432c1.182,5.413,1.556,7.28,1.556,9.085
	c0,2.053-0.062,2.053-1.992,1.556c-5.413-1.37-13.13,0.249-18.108,3.733c-5.351,3.734-10.392,8.152-10.392,9.148
	c0,0.87,0.56,0.809,6.41-0.685c11.45-2.987,22.09,0.934,24.517,8.899c0.996,3.36,0.996,5.6,0.063,7.778
	c-0.934,2.116-1.867,2.863-5.29,4.543c-3.609,1.68-3.547,2.862,0.062,2.489c1.805-0.187,4.854-2.116,6.223-3.92
	c1.93-2.552,2.178-9.895,0.498-13.628c-2.053-4.667-8.587-8.339-16.117-9.023c-6.783-0.623-4.294-2.054,5.04-2.863
	c4.232-0.373,10.33,1.307,12.695,3.485c0.996,0.933,1.68,1.12,2.24,0.747c3.36-2.49,6.534-4.294,9.023-5.04
	c3.298-0.996,14.375-1.183,14.375-0.25c0,0.312-1.183,0.623-2.614,0.623c-5.227,0-11.947,2.862-15.183,6.347
	c-2.427,2.613-4.605,8.027-4.605,11.325c0.062,3.174,2.862,8.463,5.102,9.583c0.872,0.374,3.36,0.934,5.477,1.183
	c3.484,0.31,3.858,0.249,3.671-0.747c-0.187-0.871-1.245-1.369-4.17-1.929c-4.542-0.933-5.6-1.618-6.782-4.418
	c-1.245-3.05-0.996-6.16,0.809-9.77c2.427-4.854,5.227-7.032,10.827-8.338c5.912-1.37,8.961-1.494,11.824-0.498
	c3.484,1.244,3.484,1.244,3.982-0.063c0.311-0.684-0.622-1.929-3.111-4.169c-4.48-3.982-5.974-4.916-9.894-5.974
	c-3.112-0.87-9.272-0.995-11.575-0.31c-1.369,0.435-1.493-0.499-0.746-7.095c0.435-4.48,1.182-5.102,3.858-3.236
	c2.053,1.494,4.605,1.68,7.094,0.498c1.742-0.746,2.738-2.924,1.991-4.169c-0.809-1.307-4.916-2.614-7.84-2.551l-2.863,0.062
	l-0.436-2.987c-0.684-5.103-0.498-27.007,0.187-27.691c0.373-0.374,0.684-1.183,0.684-1.743c0-1.12,1.93-4.916,2.49-4.916
	c0.186,0,0.808,1.12,1.369,2.427c0.56,1.307,2.302,3.423,3.795,4.667c2.49,1.991,3.112,2.24,6.472,2.24
	c4.294,0,7.779-1.244,10.33-3.609c3.298-3.173,1.618-9.77-3.174-12.134c-3.36-1.68-8.525-2.427-11.45-1.68
	c-1.493,0.435-3.049,1.057-3.422,1.369c-1.182,0.933-1.058-1.432,0.124-2.987c0.498-0.623,0.934-1.618,0.934-2.116
	c0-1.307,5.974-5.476,10.392-7.343c5.414-2.24,12.508-2.178,16.117,0.187c1.804,1.182,3.36,1.182,3.36,0.062
	c0-1.182-3.983-3.423-6.72-3.796c-1.185-0.169-2.368-0.355-3.548-0.56C-157.996,363.816-160.422,364.064-162.663,364.5
	L-162.663,364.5z M-165.09,382.36c3.671,1.368,5.29,4.791,3.983,8.276c-0.498,1.307-3.485,2.8-5.663,2.8
	c-2.303,0-5.538-2.551-4.978-3.92c0.31-0.872,0.622-0.934,1.99-0.312c1.308,0.623,1.806,0.56,2.615-0.31
	c0.933-0.934,0.933-1.12-0.125-2.303c-1.369-1.556-2.738-1.556-5.227-0.187c-1.556,0.934-1.93,1.494-1.93,3.298
	c0,1.245,0.312,2.552,0.748,2.987c0.435,0.436,0.497,0.747,0.186,0.747c-1.244-0.062-3.36-2.24-4.667-4.854
	c-1.804-3.422-1.182-4.854,2.552-6.41C-172.806,380.99-168.512,381.052-165.09,382.36L-165.09,382.36z M-210.454,383.853
	c0.809,0.747,0.871,1.493,0.498,3.92c-0.249,1.68-0.81,3.547-1.182,4.17c-0.996,1.617-5.29,4.604-6.597,4.604
	c-0.995,0-0.933-0.186,0.25-1.43c1.617-1.743,1.804-4.917,0.373-6.348c-1.307-1.307-4.543-0.996-5.476,0.498
	c-0.872,1.369,0.373,2.302,2.551,1.929c1.805-0.311,1.867,0.871,0.187,2.738c-2.738,2.925-8.712,1.493-8.712-2.116
	c0-3.485,5.227-8.09,10.267-9.023C-215.619,382.359-211.636,382.857-210.454,383.853z M-177.847,427.163
	c2.054,0.934,1.68,1.992-0.809,2.24c-2.302,0.25-4.48-0.808-4.48-2.053C-183.136,426.23-180.149,426.106-177.847,427.163
	L-177.847,427.163z M-203.796,428.968c0.187,0.996-2.24,2.427-4.169,2.427c-1.804,0-2.862-1.618-1.929-2.8
	C-208.774,427.288-204.044,427.537-203.796,428.968z"/>
</svg>
