<?xml version="1.0" encoding="iso-8859-1"?>
<!-- Generator: Adobe Illustrator 19.0.0, SVG Export Plug-In . SVG Version: 6.00 Build 0)  -->
<svg version="1.2" baseProfile="tiny" id="Layer_1" xmlns="http://www.w3.org/2000/svg" xmlns:xlink="http://www.w3.org/1999/xlink"
	 x="0px" y="0px" viewBox="-247 367.89 100 107" xml:space="preserve">
<title>face_00105</title>
<path d="M-166.666,368.422c-2.887,0.423-17.817,0.564-36.268,0.352c-17.253-0.21-34.154-0.14-37.676,0.141
	c-6.197,0.493-6.338,0.565-6.267,2.255c0.07,0.986,0.282,8.732,0.563,17.253c0.211,8.521,0.634,23.099,0.916,32.395
	c0.915,26.972,0.352,46.549-1.268,48.662c-0.282,0.352-0.422,1.338-0.211,2.112c0.352,1.409,1.127,1.48,18.098,2.113
	c9.79,0.352,31.057,0.563,47.324,0.423c24.226-0.141,29.719-0.353,30.282-1.127c0.423-0.564,1.55-1.127,2.465-1.268
	c2.042-0.282,1.972,0.141,1.197-18.52c-0.634-13.592-0.634-76.55-0.07-80.423c0.422-2.817,0.281-3.029-1.55-3.803
	C-151.877,367.859-160.68,367.577-166.666,368.422z M-225.89,373.07c-0.775,0.704-4.578,4.226-8.521,7.817
	c-3.944,3.592-7.324,6.268-7.465,5.986c-0.211-0.352-0.352-3.662-0.423-7.394l-0.14-6.831l3.028-0.282
	c1.69-0.14,5.704-0.282,8.943-0.352C-224.693,371.873-224.552,371.944-225.89,373.07z M-201.665,372.507
	c0.986,0.563,1.127,1.55,0.986,6.267l-0.211,5.705l-1.972-1.198c-2.395-1.549-14.156-10.704-14.156-11.126
	C-217.018,371.591-202.793,371.873-201.665,372.507L-201.665,372.507z M-184.482,372.577c3.24,0,3.45,0.141,2.606,1.127
	c-0.564,0.634-3.38,2.958-6.268,5.211c-2.887,2.254-5.704,4.578-6.267,5.212c-1.831,2.183-2.254,1.126-2.043-5.07l0.212-6.128
	l3.169-0.422c1.76-0.211,3.591-0.282,4.084-0.141C-188.425,372.436-186.454,372.577-184.482,372.577z M-151.876,376.803
	c0,2.535-0.141,5.774-0.352,7.183l-0.352,2.676l-3.522-1.76c-3.802-1.973-7.323-4.578-12.183-9.156l-3.099-2.816l2.042-0.422
	c1.056-0.282,5.493-0.423,9.718-0.352l7.747,0.07L-151.876,376.803L-151.876,376.803z M-215.186,378.07
	c11.83,9.085,14.296,11.057,14.366,11.48c0,0.492-7.253,1.337-11.408,1.337c-2.043,0-3.451-0.563-5.564-2.253l-2.746-2.184v-5.915
	c0-3.24,0.211-5.845,0.563-5.845C-219.693,374.69-217.51,376.24-215.186,378.07z M-177.58,380.183c0,4.577-0.916,6.338-4.507,8.521
	c-1.831,1.127-3.522,1.479-7.395,1.479c-2.746,0-5-0.282-5-0.634c0-0.986,15.211-13.45,16.338-13.45
	C-177.792,376.099-177.58,377.929-177.58,380.183z M-171.806,377.366c0.493,1.127,9.366,8.099,12.958,10.14
	c2.113,1.128,3.803,2.254,3.803,2.466c0,0.493-13.521-0.352-15-0.916c-2.113-0.775-3.31-3.662-3.31-8.028
	c0-2.324,0.282-4.225,0.634-4.225C-172.369,376.803-171.947,377.084-171.806,377.366z M-224.764,382.506
	c0,5.142-0.281,5.775-3.52,7.818c-1.832,1.197-12.043,1.83-11.902,0.774c0.07-0.704,14.155-13.52,14.93-13.591
	C-224.975,377.507-224.764,379.76-224.764,382.506L-224.764,382.506z M-179.834,395.676l2.254,1.62v18.873l-9.507-0.07
	c-10.141-0.071-9.719,0.07-9.719-3.733c0-0.986,0.07-5.352,0.141-9.789l0.07-8.098l2.677-0.212
	C-186.454,393.634-182.158,394.057-179.834,395.676z M-153.214,395.183c0.493,0.422,0.704,2.958,0.634,6.83
	c-0.07,3.381-0.212,7.959-0.282,10.212l-0.07,4.085l-10-0.212l-10.07-0.21l-0.212-9.438c-0.141-9.014-0.07-9.507,1.408-11.126
	c1.55-1.69,1.76-1.69,9.719-1.268C-157.651,394.338-153.637,394.831-153.214,395.183z M-201.454,405.323
	c-0.07,5.775-0.281,10.635-0.352,10.705c0,0-3.873,0.211-8.52,0.352l-8.452,0.211l-0.493-3.873c-0.21-2.113-0.422-5.986-0.493-8.591
	c-0.07-4.367,0.07-4.86,2.254-7.043l2.254-2.324h14.084l-0.282,10.564V405.323z M-226.594,397.366l2.464,2.324l0.212,8.45
	l0.21,8.451l-8.52,0.212l-8.521,0.14l-0.493-2.183c-0.212-1.197-0.423-5.986-0.423-10.563v-8.31l4.789-0.282
	c2.605-0.14,5.422-0.281,6.338-0.352C-229.623,395.183-228.003,396.028-226.594,397.366z M-184.411,420.394l4.788,0.07L-187.51,428
	c-4.296,4.225-8.099,7.676-8.45,7.817c-0.634,0.281-0.916-14.789-0.353-15.423c0.141-0.14,1.831-0.211,3.733-0.14
	C-190.75,420.324-187.017,420.394-184.411,420.394z M-223.425,422.084c0.352,0.845,0.633,5.282,0.704,9.789
	c0.14,8.24,0.14,8.31-1.48,8.31c-0.915,0-4.788,0.211-8.732,0.493l-7.112,0.422l-0.423-5.915c-0.281-3.24-0.493-7.747-0.493-9.93
	c0-4.648-0.563-4.436,10.07-4.648c6.55-0.07,6.902,0,7.466,1.48V422.084z M-201.525,420.958c0.071,0.352,0.212,3.52,0.353,7.183
	l0.282,6.62l-1.902-1.761c-9.93-9.296-12.042-11.409-11.69-11.902c0.423-0.774,12.958-0.845,12.958-0.14H-201.525z
	 M-152.792,422.155c0.212,0.915,0.423,5.634,0.493,10.422l0.141,8.662l-9.718-0.211c-5.352-0.07-10.07-0.282-10.493-0.493
	c-0.845-0.211-1.409-18.169-0.634-19.366c0.282-0.423,4.718-0.704,10.14-0.704C-153.073,420.465-153.073,420.465-152.792,422.155
	L-152.792,422.155z M-205.61,435.535c1.972,1.972,3.17,3.732,2.817,4.085c-0.352,0.352-3.943,0.492-7.957,0.422l-7.324-0.211
	l-0.212-8.45l-0.21-8.452l4.717,4.578C-211.173,430.042-207.511,433.634-205.61,435.535L-205.61,435.535z M-177.581,432.577v7.958
	l-7.747-0.211c-4.225-0.141-7.746-0.493-7.746-0.775c0-0.563,14.436-14.86,15.07-14.86
	C-177.793,424.689-177.581,428.281-177.581,432.577z M-222.651,446.17c0.28,0.774,0.633,6.338,0.774,12.324l0.282,10.915
	l-4.226-0.07c-15.14-0.211-16.62-0.282-16.127-1.127c0.282-0.422,0.564-2.113,0.634-3.662c0.986-17.183,1.197-18.732,2.747-19.084
	c1.197-0.282,8.591-0.634,14.084-0.705c0.704,0,1.55,0.634,1.831,1.409L-222.651,446.17z M-200.539,447.649
	c0.211,1.83,0.422,4.084,0.422,5v1.69l-8.591-0.211l-8.592-0.212l-0.211-3.803c-0.14-2.112-0.07-4.295,0.07-4.788
	c0.282-0.704,2.465-0.916,8.38-0.916h8.029L-200.539,447.649z M-177.652,445.536c0.211,0.14,0.352,2.254,0.352,4.718l0.07,4.367
	l-8.802-0.282c-4.86-0.07-8.944-0.352-9.155-0.493c-0.14-0.211-0.423-2.395-0.563-5l-0.282-4.578l9.014,0.423
	C-182.018,444.973-177.793,445.325-177.652,445.536z M-152.088,446.733c0.281,0.423,0.493,5.775,0.493,11.76v10.916l-10.07,0.212
	l-10.071,0.21l-0.423-5.844c-0.282-3.24-0.493-8.803-0.493-12.465v-6.62l10,0.493C-156.032,445.677-152.441,446.17-152.088,446.733
	L-152.088,446.733z M-202.37,459.127l2.958,0.07v11.268l-4.719-0.07c-2.676-0.071-6.549-0.283-8.662-0.494l-3.873-0.493l-0.352-5.14
	c-0.211-2.888-0.211-5.353,0-5.494c0.14-0.21,2.817-0.21,5.986,0C-207.934,458.915-204.06,459.127-202.37,459.127z
	 M-177.863,459.549c0.493,0.14,0.845,2.254,0.915,5.14c0.141,5.846,0.353,5.776-10.281,5.776h-7.113l-0.493-5.212
	c-0.282-2.887-0.282-5.563-0.07-5.986C-194.483,458.634-180.046,458.845-177.863,459.549z"/>
</svg>
