<?xml version="1.0" encoding="iso-8859-1"?>
<!-- Generator: Adobe Illustrator 19.0.0, SVG Export Plug-In . SVG Version: 6.00 Build 0)  -->
<svg version="1.2" baseProfile="tiny" id="Layer_1" xmlns="http://www.w3.org/2000/svg" xmlns:xlink="http://www.w3.org/1999/xlink"
	 x="0px" y="0px" viewBox="-247 351.89 100 138" xml:space="preserve">
<title>face_00039</title>
<path d="M-169.01,353.897c-1.187,1.005-3.196,2.74-4.475,3.927c-2.504,2.127-5.031,4.227-7.58,6.301l-5.297,4.292h-10.593
	c-11.69,0-15.617-1.187-21.005-6.21c-4.11-3.926-8.584-7.488-9.315-7.488c-1.005,0-17.717,12.511-18.904,14.246
	c-1.827,2.285-0.091,76.165,1.735,76.165c0.64,0,0.73-3.562,0.274-10.685c-0.457-5.936-0.913-22.649-1.096-37.078
	c-0.274-20.822-0.091-26.21,0.822-25.662c2.01,1.279,9.224,7.032,12.694,10.32l3.38,3.105l0.09,32.055
	c0,17.625,0.274,35.25,0.64,39.086c0.365,4.567,0.182,7.124-0.366,7.124c-0.913,0-13.698-13.608-15.16-16.073
	c-0.365-0.731-1.095-1.279-1.552-1.279c-2.192,0-0.457,2.648,6.119,9.59c9.04,9.405,12.146,13.058,15.616,17.99
	c1.553,2.192,5.297,6.484,8.31,9.68l5.389,5.754l13.516-0.274l13.516-0.274l6.758-8.95c3.744-4.931,6.484-9.224,6.119-9.589
	c-0.731-0.73-4.475,3.288-9.59,10.32c-2.191,3.013-4.383,5.753-4.931,6.118c-0.548,0.366-6.119,0.73-12.42,0.73h-11.507
	l-6.393-6.574c-3.561-3.653-7.397-8.128-8.401-9.955l-2.01-3.287l5.845-7.672c3.288-4.2,6.667-8.584,7.58-9.771
	c1.553-1.918,2.466-2.1,13.06-2.466l11.415-0.457l5.48,6.94c3.013,3.837,6.575,8.311,7.945,9.864l2.465,2.831l-26.666,0.457
	c-14.703,0.274-26.21,0.73-25.662,1.096c1.187,0.821,51.324,1.187,52.146,0.365c0.365-0.274,1.278,0.091,2.192,0.913
	c1.735,1.553,3.926,0.913,3.287-0.822c-0.182-0.548,2.831-5.205,6.667-10.228c3.835-5.023,7.488-10.046,8.036-11.142
	c0.64-1.187,1.096-6.758,1.188-14.155c0-6.667,0.365-19.178,0.822-27.671c2.283-43.014,2.283-40.64,0.547-40.64
	c-1.278,0-6.666-3.378-8.767-5.479c-2.465-2.465-8.401-7.305-8.95-7.305c-0.456,0-1.826,0.822-3.013,1.918V353.897z
	 M-158.782,360.38c3.927,3.105,7.215,6.027,7.215,6.575c0,0.548-3.197,3.38-7.032,6.393l-7.032,5.297l-4.11-2.01
	c-5.48-2.556-12.968-7.58-12.602-8.401c0.273-1.004,14.611-13.424,15.525-13.424c0.365-0.091,4.018,2.466,8.036,5.571V360.38z
	 M-223.53,359.924c1.644,1.462,3.47,3.014,3.927,3.562c0.548,0.457,2.466,2.1,4.384,3.47l3.47,2.557l-6.21,4.84
	c-9.863,7.763-9.589,7.672-14.612,3.836c-8.31-6.301-10.32-8.128-10.32-9.224c0-0.639,1.918-2.557,4.293-4.292
	c2.283-1.735,5.48-4.018,7.032-5.205C-228.005,356.911-227.274,356.911-223.53,359.924z M-149.193,376.82
	c-1.004,13.06-2.374,46.393-2.374,57.717v10.868l-6.393,8.584c-3.562,4.658-6.758,8.493-7.215,8.493c-0.365,0-0.639-4.2-0.456-9.315
	c0.183-5.205,0.548-23.287,0.73-40.274c0.366-19.543,0.914-31.506,1.462-32.694c1.004-1.826,12.602-10.867,13.972-10.867
	C-149.01,369.332-148.919,372.711-149.193,376.82z M-185.813,407.688v36.986l-11.599,0.274l-11.69,0.274v-23.106
	c0-12.694,0.275-29.589,0.64-37.534l0.548-14.43l11.05,0.275l11.05,0.274L-185.813,407.688L-185.813,407.688z M-210.928,409.058
	v36.986l-3.379,4.749c-1.918,2.648-3.744,5.205-4.11,5.753c-0.365,0.457-2.009,2.557-3.744,4.567l-3.196,3.561l-0.548-12.237
	c-0.365-6.758-0.548-25.206-0.365-41.005l0.274-28.676l6.849-5.296c3.744-2.923,7.123-5.297,7.58-5.389
	c0.365,0,0.64,16.621,0.64,36.987L-210.928,409.058z M-176.133,375.724c3.561,2.01,6.849,3.653,7.306,3.653
	c2.374,0,2.922,4.293,2.191,17.809c-0.456,7.488-0.822,25.753-0.913,40.365c0,14.703-0.365,26.94-0.64,27.306
	c-0.638,0.548-6.483-5.57-8.949-9.224c-0.73-1.187-2.466-3.47-3.836-5.205l-2.465-3.105l-0.092-18.63
	c-0.182-38.448,0-56.622,0.457-56.622c0.274,0,3.379,1.644,6.94,3.653H-176.133z M-163.439,366.409
	c0.548,1.188,1.278,1.918,1.643,1.644c0.274-0.365-0.182-1.278-1.095-2.192C-164.535,364.401-164.535,364.401-163.439,366.409z
	 M-168.462,370.245c0.274,0.457,1.278,0.913,2.1,0.913c1.37,0,1.37-0.182,0.183-0.913
	C-168.006,369.058-169.193,369.058-168.462,370.245z M-228.28,365.769c0,0.457,0.457,0.64,0.914,0.365
	c0.548-0.274,0.913-0.73,0.913-1.004c0-0.183-0.365-0.365-0.913-0.365C-227.823,364.765-228.28,365.221-228.28,365.769z
	 M-225.083,368.874c0,1.644,0.274,1.918,1.187,1.187c0.548-0.548,1.096-1.278,1.096-1.644c0-0.365-0.548-0.913-1.096-1.187
	C-224.626,366.956-225.083,367.596-225.083,368.874z M-230.654,370.701c1.553,1.187,3.105,1.917,3.653,1.643
	c0.457-0.365,0-0.913-1.005-1.278c-1.095-0.365-2.191-1.096-2.557-1.644c-0.274-0.548-1.096-1.005-1.643-1.005
	C-232.846,368.509-232.116,369.513-230.654,370.701z"/>
</svg>
