<?xml version="1.0" encoding="iso-8859-1"?>
<!-- Generator: Adobe Illustrator 19.0.0, SVG Export Plug-In . SVG Version: 6.00 Build 0)  -->
<svg version="1.2" baseProfile="tiny" id="Layer_1" xmlns="http://www.w3.org/2000/svg" xmlns:xlink="http://www.w3.org/1999/xlink"
	 x="0px" y="0px" viewBox="-247 366.89 100 108" xml:space="preserve">
<title>face_00045</title>
<path d="M-204.567,367.741c0.853,0.64,3.305,1.173,5.33,1.28c2.026,0,3.093,0.32,2.453,0.64c-2.452,0.959-1.493,2.238,2.345,2.878
	c3.732,0.746,4.904,2.238,2.452,3.091c-0.746,0.214,2.133,1.493,6.397,2.772c7.57,2.346,8.955,3.412,6.397,5.117
	c-0.747,0.427-1.386,1.6-1.386,2.452c0,0.96-1.173,1.706-3.092,1.92c-2.132,0.32-2.772,0-2.239-0.96
	c0.533-0.853,0.427-1.066-0.32-0.533c-0.64,0.426-0.96,1.28-0.746,2.025c0.213,0.747-1.28,2.666-3.518,4.265
	c-3.092,2.452-4.691,2.985-7.57,2.452c-2.025-0.32-4.05-1.173-4.584-1.92c-0.64-0.959-0.746-0.532-0.32,0.96
	c0.853,2.985-1.705,3.305-7.889,0.747c-2.345-0.96-4.904-1.493-5.65-1.173c-0.746,0.213-2.985-0.213-4.797-0.96
	c-2.985-1.172-3.518-1.172-3.518,0.214c0,0.746,0,1.812-0.107,2.239c-0.107,0.533,1.28,0.746,3.092,0.533
	c4.797-0.533,5.117,1.599,0.32,2.345c-3.305,0.533-4.691,1.493-6.504,4.371c-1.28,2.026-2.025,4.158-1.599,4.797
	c0.427,0.64,0.32,2.559,0,4.478c-0.533,2.345-0.96,2.878-1.706,1.812c-0.746-1.172-0.96-1.172-0.96,0.214
	c0,0.96,0.64,2.345,1.493,2.985c0.747,0.64,1.706,2.985,2.133,5.224c0.746,5.117,3.838,15.458,4.37,14.925
	c0.214-0.213-0.213-2.772-1.066-5.65c-0.852-2.772-1.599-6.61-1.599-8.423v-3.304l8.636,0.426c5.863,0.213,8.422,0,7.995-0.746
	c-0.32-0.64,0.427-1.92,1.706-2.772c2.665-1.92,4.478-2.239,3.518-0.64c-0.32,0.533-0.213,1.066,0.427,1.066
	c0.533,0,1.386-1.492,1.706-3.305c0.533-2.132,1.066-2.878,1.599-2.132c0.426,0.746,1.386,1.173,2.132,0.96
	c2.025-0.427,3.731,5.437,2.345,7.782c-0.853,1.386-0.96,2.132-0.106,2.665c0.853,0.427,0.746,0.96-0.214,1.6
	c-2.452,1.599-3.304,1.066-2.452-1.386c0.64-2.133,0.533-2.24-1.066-0.96c-1.492,1.28-1.705,1.066-1.812-1.599l-0.107-3.092
	l-1.066,2.985c-0.64,1.706-2.132,3.199-3.624,3.519c-1.92,0.533-2.56,1.385-2.56,3.518c0,1.599,0.32,3.305,0.747,3.731
	c1.706,1.6,0.96,4.904-1.066,4.904c-1.386,0-1.812-0.533-1.386-1.706c0.32-0.853,0.213-1.279-0.426-0.96
	c-0.64,0.32-1.066,1.28-1.066,2.133c0,0.96-1.493,1.6-4.478,1.812c-3.092,0.214-4.584,0.853-4.69,1.92
	c-0.107,0.852-0.32,2.025-0.427,2.665c-0.107,0.533-0.214,1.812-0.107,2.878c0.107,0.96-0.32,2.026-0.96,2.452
	c-0.532,0.32-1.065-0.107-1.065-0.96c0-0.959-0.427-1.705-0.96-1.705s-1.28-0.853-1.493-1.92c-0.32-1.172-0.533-0.959-0.64,0.854
	c0,1.492,1.174,3.944,2.56,5.543c2.878,3.412,3.73,3.625,3.73,1.386c0-1.386,0.427-1.492,2.346-0.32
	c4.904,2.666,16.738,3.305,23.774,1.28c5.65-1.6,9.915-2.346,17.378-3.305c2.878-0.32,4.477-1.066,4.477-2.026
	c0-0.852,0.64-1.492,1.493-1.492c1.066,0,1.28,0.746,0.853,2.345c-0.747,3.092,1.492,1.6,3.518-2.345c1.28-2.559,1.28-3.092,0-3.518
	c-0.747-0.32-1.6-0.213-1.813,0.32c-0.213,0.426-1.279,1.066-2.452,1.279c-1.599,0.213-2.132-0.32-2.132-2.026
	c0-1.172-0.32-2.665-0.746-3.091c-0.533-0.427-0.853-1.92-0.853-3.305c0-2.559-1.6-3.412-2.452-1.173
	c-0.746,2.026-8.635-2.345-9.062-5.01c-0.853-5.651-1.386-7.037-2.985-6.717c-2.026,0.32-4.158-4.051-2.452-5.01
	c0.533-0.427,1.28,0.106,1.6,0.959c0.852,2.132,2.558,2.239,2.558,0.213c0-0.853-0.96-1.919-2.132-2.239
	c-1.173-0.426-2.133-1.599-2.133-2.878c0-1.92,0.32-1.813,3.092,1.172c1.706,1.813,3.945,3.305,5.117,3.305
	c1.067,0,2.666,0.533,3.519,1.173c1.172,0.853,0.64,0.96-2.346,0.746c-2.132-0.213-3.625,0-3.411,0.427
	c1.066,1.705,8.315,0.746,13.22-1.706c7.035-3.518,7.995-2.452,7.995,10.66c0,5.438,0.32,9.383,0.64,8.636
	c1.066-1.812,1.705-32.729,0.746-32.729c-0.533,0-0.853-0.746-0.853-1.599s-0.426-1.6-0.96-1.6c-0.533,0-1.385-0.959-1.705-2.238
	c-0.533-1.706-1.28-2.026-3.518-1.6c-3.305,0.747-5.757-0.532-5.33-2.664c0.212-0.96-0.427-1.386-1.493-1.173
	c-2.24,0.32-2.559-1.92-0.64-3.838c2.132-2.132,3.625-1.493,6.29,2.345c1.706,2.559,2.772,3.305,3.305,2.452
	c1.173-1.705,5.01,2.879,5.863,6.93c0.32,1.6,0.96,2.985,1.493,2.985c0.426,0,1.173,1.812,1.599,3.945
	c0.746,3.731,0.853,3.838,1.493,1.386c0.64-2.24,0.96-1.706,2.558,3.731c1.92,6.183,1.92,10.554,0.213,24.52
	c-0.426,3.518-0.32,3.199,1.067-1.599c2.132-7.89,1.492-22.495-1.173-28.252c-3.732-7.995-10.128-17.377-12.26-17.91
	c-1.173-0.32-2.132-1.173-2.132-1.812c0-0.96,0.426-0.96,1.812,0.106c1.599,1.28,1.706,1.28,0.853-0.106
	c-2.879-5.011-5.544-7.57-8.955-8.636c-2.133-0.746-5.65-2.345-7.783-3.731c-2.132-1.386-5.117-2.772-6.61-3.198
	c-1.599-0.32-3.091-1.173-3.411-1.706c-0.853-1.28,7.036,0.106,8.955,1.599c0.746,0.533,1.6,0.853,1.919,0.533
	c0.213-0.32-1.066-1.386-2.985-2.239c-1.92-0.96-2.772-1.812-1.813-1.812c3.838,0,12.474,3.838,17.058,7.676
	c2.665,2.239,5.33,4.051,5.864,4.051c0.533,0,1.919,1.706,2.985,3.731c1.172,2.026,2.665,4.265,3.518,4.904
	c0.746,0.64,0.106-1.172-1.386-3.944l-2.772-5.224l3.305,3.518c4.264,4.478,4.37,2.559,0.106-2.345
	c-1.812-2.026-7.462-5.757-13.113-8.53c-9.488-4.796-10.234-5.009-21.535-5.542c-8.422-0.426-11.3-0.32-10.128,0.533V367.741z
	 M-173.117,383.839c1.066,1.173,1.493,2.132,0.853,2.132c-0.533,0-1.919-0.959-2.985-2.132c-1.066-1.172-1.492-2.132-0.853-2.132
	C-175.569,381.707-174.182,382.667-173.117,383.839z M-185.803,392.901c-2.666,2.026-4.371,2.026-2.559,0
	c0.746-0.853,2.132-1.492,2.985-1.492C-184.204,391.409-184.311,391.729-185.803,392.901z M-182.179,394.501
	c0,0.532-0.852,1.065-1.812,1.065c-1.6,0-1.706-0.213-0.32-1.066c2.026-1.28,2.132-1.28,2.132,0V394.501z M-193.053,397.805
	c-2.345,1.28-2.558,3.305-0.32,2.452c1.92-0.746,2.026-0.32,0.32,3.305c-0.64,1.493-1.706,2.665-2.239,2.665
	c-0.64,0-0.746-0.32-0.426-0.746c0.426-0.32,0-1.812-0.96-3.305c-1.492-2.345-1.492-2.665,0.32-4.051
	c1.066-0.746,2.666-1.386,3.518-1.386C-191.56,396.739-191.667,396.952-193.053,397.805z M-209.897,398.765
	c1.386,0.853,1.386,1.066-0.213,1.066c-0.96,0-2.133-0.533-2.452-1.066C-213.415,397.379-212.029,397.379-209.897,398.765z
	 M-202.221,401.323c-0.213,1.386,0.106,1.813,1.172,1.386c0.747-0.32,2.133-0.106,2.986,0.427c1.279,0.746,1.279,0.96-0.107,1.066
	c-0.853,0.106-2.345,0.213-3.198,0.32c-1.813,0.106-4.158-2.346-4.265-4.478c0-0.853,0.853-1.28,1.92-1.066
	C-202.648,399.191-202.008,400.151-202.221,401.323z M-174.716,399.831c0,0.533-0.426,1.066-1.066,1.066
	c-0.533,0-1.066-0.533-1.066-1.066c0-0.64,0.533-1.066,1.066-1.066C-175.142,398.765-174.716,399.191-174.716,399.831z
	 M-223.436,403.881c-0.32,1.174,0.106,0.96,1.172-0.639c1.066-1.28,2.346-2.132,2.879-1.812c1.066,0.746-4.691,6.93-6.397,6.93
	c-1.6,0-1.493-2.772,0.107-5.224c1.492-2.452,3.198-1.92,2.238,0.746L-223.436,403.881z M-175.996,402.176
	c0.747,0.746,1.28,2.239,1.28,3.305c0,1.812-0.213,1.812-2.132-0.64c-1.173-1.492-2.132-2.985-2.132-3.305
	C-178.98,400.47-177.381,400.79-175.996,402.176L-175.996,402.176z M-168.319,402.922c1.386,2.666,1.386,3.625-0.107,2.666
	c-0.64-0.427-0.96,0.106-0.853,1.279c0.213,1.173-0.213,3.092-0.96,4.371c-0.746,1.386-0.959,2.452-0.532,2.452
	c0.426,0,0.106,0.533-0.747,1.066c-0.852,0.533-2.558,1.066-3.73,0.96c-2.027,0-2.027,0,0.106-1.28
	c1.279-0.746,2.025-1.919,1.812-2.665c-0.32-0.64,0-1.28,0.64-1.28c1.172,0,0.96-2.984-0.427-7.462
	C-174.077,400.151-169.918,400.044-168.319,402.922z M-181.112,407.826c0,0.853-0.427,1.6-0.96,1.6c-0.533,0-1.173-0.747-1.6-1.6
	c-0.319-0.959,0-1.599,0.96-1.599c0.853,0,1.6,0.747,1.6,1.6V407.826z M-174.716,409.106c0,1.28-3.518,4.584-5.01,4.584
	c-2.026,0-1.706-0.96,1.066-3.305c2.452-2.025,3.944-2.559,3.944-1.28V409.106z M-206.592,412.517
	c-1.813,3.412-4.584,4.478-6.503,2.452c-1.386-1.492-1.28-1.599,0.426-0.96c1.386,0.534,2.559,0,4.051-1.918
	C-206.166,408.893-204.886,409.212-206.592,412.517z M-218.212,416.035c-0.96,0.96-1.6,0.96-2.56,0
	c-0.959-0.96-0.746-1.279,1.28-1.279S-217.253,415.076-218.212,416.035L-218.212,416.035z M-189.642,425.417
	c0,1.173-0.426,2.132-1.065,2.132c-0.533,0-1.066-0.213-1.066-0.426c0-0.213-0.32-1.173-0.64-2.132
	c-0.427-1.173-0.107-1.706,1.066-1.706C-190.387,423.285-189.641,424.138-189.642,425.417L-189.642,425.417z M-198.703,430.747
	c0.32,0.534,0.107,1.067-0.427,1.067c-0.64,0-1.172-0.533-1.172-1.066c0-0.64,0.213-1.067,0.426-1.067
	C-199.556,429.681-199.023,430.108-198.703,430.747L-198.703,430.747z M-186.443,431.814c0,0.533-1.28,1.066-2.878,1.066
	c-2.346,0-2.666-0.213-1.386-1.066C-188.575,430.428-186.443,430.428-186.443,431.814z M-182.179,435.012
	c0,1.386-1.172,1.386-3.198,0c-1.28-0.853-1.173-1.066,0.853-1.066C-183.244,433.946-182.179,434.372-182.179,435.012z
	 M-217.359,446.952c0,1.386-2.453,0.533-2.986-1.066c-0.213-0.746,0.213-1.066,1.28-0.64c0.959,0.32,1.705,1.173,1.705,1.706
	H-217.359z M-213.095,445.672c0.852,0.534,1.172,1.28,0.746,1.707c-0.427,0.426-1.6,0-2.559-0.96
	c-1.919-1.919-0.853-2.452,1.813-0.746V445.672z M-174.715,445.672c0,0.534-0.96,1.067-2.24,1.067c-1.172,0-1.812-0.533-1.492-1.066
	c0.32-0.64,1.386-1.066,2.239-1.066c0.852,0,1.492,0.426,1.492,1.066L-174.715,445.672z M-209.046,370.727
	c0.64,0.213,1.92,0.213,2.666,0c0.64-0.32,0.107-0.533-1.386-0.533C-209.258,370.194-209.792,370.407-209.046,370.727z
	 M-219.491,374.244c-0.853,0.533-1.28,1.173-0.96,1.493c0.32,0.32,1.493-0.107,2.666-0.96
	C-215.546,373.072-216.932,372.645-219.491,374.244z M-180.791,374.991c0.959,0.96,2.025,1.492,2.451,1.172
	c1.066-1.066-0.64-2.985-2.558-2.985C-182.498,373.178-182.498,373.285-180.791,374.991L-180.791,374.991z M-196.251,374.991
	c0.747,0.32,1.707,0.213,2.027-0.107c0.426-0.32-0.214-0.64-1.386-0.533c-1.173,0-1.493,0.32-0.64,0.64H-196.251z M-223.222,388.104
	c-0.214,0.426,2.452,1.386,6.183,2.132c3.625,0.64,7.143,1.706,7.89,2.345c0.745,0.533,2.131,0.853,3.197,0.64
	c1.6-0.427,1.493-0.64-0.746-1.706C-210.749,389.596-222.583,387.145-223.222,388.104z M-155.525,389.703
	c0.746,0.96,1.599,1.386,1.812,1.173c0.747-0.747-0.746-2.772-2.025-2.772C-156.378,388.104-156.378,388.744-155.525,389.703z
	 M-157.657,391.622c0,0.426,0.853,2.558,2.025,4.797c1.066,2.132,2.559,5.97,3.305,8.529c0.746,2.452,1.6,4.264,1.92,4.051
	c0.639-0.746-3.945-13.86-5.651-16.205C-156.911,391.728-157.658,391.195-157.657,391.622L-157.657,391.622z M-151.261,396.846
	c0.427,3.198,4.158,13.432,4.158,11.727c0.107-3.625-2.132-11.94-3.198-11.94C-150.834,396.633-151.261,396.739-151.261,396.846z
	 M-235.483,406.44c0,1.919,0.533,4.264,1.172,5.117c0.747,1.173,0.853,0.426,0.427-2.665c-0.427-3.092-0.32-3.732,0.426-2.133
	c0.96,1.92,1.066,1.813,1.066-0.853c0.107-1.918-0.426-2.878-1.492-2.878C-234.95,403.028-235.484,404.094-235.483,406.44
	L-235.483,406.44z M-149.556,414.222c0.213,1.173,0.426,6.93,0.533,12.793c0.107,13.753,1.706,10.235,1.92-4.264
	c0.106-6.717-0.214-10.128-0.854-9.169c-0.853,1.28-1.066,1.28-1.492,0C-149.663,412.73-149.769,413.049-149.556,414.222z
	 M-200.622,415.502c-1.066,0.959-0.96,2.451,0.213,2.451c0.533,0,1.173-0.746,1.6-1.599c0.532-1.599-0.534-2.132-1.813-0.853
	V415.502z M-157.552,418.593c0,1.173,0.32,1.493,0.64,0.64c0.32-0.747,0.213-1.706-0.107-2.026
	C-157.339,416.781-157.659,417.42-157.552,418.593z M-246.997,422.22c0,2.025,0.213,2.878,0.533,1.812
	c0.213-0.96,0.213-2.665,0-3.731C-246.784,419.341-246.997,420.194-246.997,422.22z M-236.337,426.484
	c0,2.665,0.64,6.503,1.493,8.529c1.386,3.411,1.493,3.411,0.746,0.533c-0.32-1.812-0.959-5.65-1.385-8.529l-0.747-5.33l-0.106,4.797
	H-236.337z M-240.707,424.992c0,1.172,0.32,1.492,0.64,0.64c0.32-0.747,0.213-1.706-0.107-2.026
	C-240.494,423.179-240.814,423.819-240.707,424.992z M-239.535,431.815c0,1.492,0.214,2.025,0.533,1.279
	c0.214-0.64,0.214-1.919,0-2.665C-239.322,429.789-239.535,430.322-239.535,431.815z M-160.75,432.455
	c0,1.172,0.32,1.492,0.64,0.639c0.32-0.746,0.213-1.706-0.107-2.026c-0.32-0.426-0.64,0.214-0.533,1.386V432.455z M-164.375,443.22
	c-0.426,0.32-0.746,1.173-0.746,1.812c0,0.64,0.533,0.533,1.28-0.213c0.639-0.64,0.959-1.492,0.746-1.812
	C-163.415,442.687-164.055,442.793-164.375,443.22z M-158.191,444.5c-0.32,1.172-2.026,3.837-3.732,5.97
	c-3.624,4.584-4.157,6.503-1.172,4.69c2.025-1.28,4.797-6.077,5.97-10.34C-156.272,441.94-157.232,441.62-158.191,444.5z
	 M-232.285,445.459c0,1.386,3.731,6.29,9.062,11.94c5.117,5.437,6.93,7.25,11.727,11.62c4.05,3.732,11.194,5.544,19.723,5.118
	c8.102-0.427,13.859-2.026,13.859-3.838c0-0.533,1.386-1.493,2.985-2.132c1.599-0.64,4.37-2.772,6.077-4.585
	c3.305-3.518,0.853-2.771-3.199,0.96c-6.076,5.544-17.27,9.382-23.987,8.209c-6.503-1.173-13.86-3.838-13.22-4.798
	c0.32-0.533-0.852-1.492-2.665-2.132c-1.812-0.64-3.305-1.599-3.305-2.132c0-1.493,1.173-1.173,4.904,1.706
	c2.772,2.132,4.691,2.665,9.382,2.665c3.198,0,6.077-0.32,6.397-0.853c0.213-0.426-1.386-0.64-3.732-0.426
	c-7.676,0.746-14.925-3.305-27.292-15.459C-229.3,447.698-232.285,445.139-232.285,445.459L-232.285,445.459z M-237.615,447.804
	c0.639,1.173,1.598,2.132,2.238,2.132s0.64-0.746-0.106-2.132c-0.64-1.173-1.6-2.132-2.24-2.132
	C-238.362,445.672-238.362,446.418-237.615,447.804L-237.615,447.804z M-176.741,453.561c-1.28,2.026-3.092,3.945-4.052,4.371
	c-1.492,0.533-1.599,0.853-0.426,1.493c1.173,0.746,0.96,1.172-0.853,2.132c-2.772,1.492-20.576-0.107-26.013-2.452
	c-3.624-1.493-4.477-1.706-5.97-1.706c-0.533,0-2.452-1.28-4.264-2.772c-1.813-1.492-3.305-2.239-3.305-1.706
	c0,4.371,20.256,11.408,34.435,11.94c0.533,0,0.64,0.427,0.32,0.854c-0.533,0.852-8.423,2.878-14.5,3.838
	c-1.492,0.213-0.213,0.426,2.88,0.533c2.984,0,5.863-0.427,6.182-0.96c0.32-0.64,1.813-1.066,3.305-1.066
	c1.386,0,2.559-0.426,2.559-1.066c0-0.533,1.919-2.239,4.264-3.731c2.346-1.493,4.265-3.199,4.265-3.838
	c0-0.64,1.173-2.666,2.665-4.585c2.879-3.731,3.198-4.904,1.706-4.904C-174.076,449.936-175.569,451.536-176.741,453.561
	L-176.741,453.561z M-234.417,451.322c0,2.772,8.102,12.9,9.488,11.94c0.64-0.32,3.198,0.96,5.863,2.879
	c2.666,1.812,5.118,3.092,5.438,2.772c0.32-0.213-2.666-2.665-6.61-5.224c-3.945-2.559-8.316-6.397-9.702-8.422
	C-232.179,451.962-234.417,449.937-234.417,451.322z M-169.812,457.079c-0.64,1.493-0.533,1.6,0.533,0.64
	c0.746-0.746,1.066-1.6,0.746-1.92C-168.853,455.48-169.492,456.013-169.812,457.079z M-188.788,457.079
	c0.746,0.32,1.705,0.213,2.025-0.106c0.427-0.32-0.213-0.64-1.386-0.533c-1.172,0-1.492,0.32-0.64,0.64L-188.788,457.079z
	 M-194.118,458.145c0.639,0.214,1.918,0.214,2.664,0c0.64-0.32,0.107-0.533-1.386-0.533
	C-194.332,457.612-194.865,457.825-194.118,458.145L-194.118,458.145z M-174.183,460.597c-1.599,1.813-1.706,2.133-0.32,2.133
	c0.96,0,1.92-0.96,2.24-2.133c0.319-1.172,0.426-2.132,0.319-2.132C-172.157,458.465-173.117,459.425-174.183,460.597z
	 M-180.579,465.395c-1.706,0.746-2.452,1.492-1.6,1.492c0.853,0,2.772-0.64,4.265-1.492
	C-174.503,463.475-176.422,463.475-180.579,465.395z M-220.345,468.7c1.066,1.066,2.132,1.705,2.346,1.386
	c0.32-0.32-0.534-1.173-1.813-1.92C-222.051,466.781-222.051,466.887-220.345,468.7z"/>
</svg>
