<?xml version="1.0" encoding="iso-8859-1"?>
<!-- Generator: Adobe Illustrator 19.0.0, SVG Export Plug-In . SVG Version: 6.00 Build 0)  -->
<svg version="1.2" baseProfile="tiny" id="Layer_1" xmlns="http://www.w3.org/2000/svg" xmlns:xlink="http://www.w3.org/1999/xlink"
	 x="0px" y="0px" viewBox="-247 352.89 100 137" xml:space="preserve">
<title>face_00082</title>
<path d="M-179.8,353.143c-0.708,2.83-0.59,8.02,0.235,8.02c0.59,0,1.062-0.59,1.062-1.18c0-0.708,0.825-1.18,1.887-1.18
	c0.943,0,1.415-0.589,1.06-1.179c-0.47-0.707-1.178-0.943-1.768-0.59c-0.472,0.355-0.707-0.47-0.354-1.768
	c0.354-1.297,0-2.359-0.707-2.359C-179.093,352.907-179.682,353.025-179.8,353.143z M-172.017,354.087
	c-0.354,0.59-0.118,1.179,0.471,1.179c0.708,0,1.298-0.59,1.298-1.18c0-0.707-0.236-1.179-0.472-1.179
	C-171.074,352.907-171.664,353.379-172.017,354.087z M-194.777,357.624c-1.533,2.477-0.707,3.066,1.77,1.416
	c0.825-0.472,1.06-1.533,0.589-2.241C-193.126,355.738-193.715,356.091-194.777,357.624z M-184.399,357.624
	c0,0.59,0.59,1.18,1.179,1.18c0.707,0,1.18-0.59,1.18-1.18c0-0.707-0.473-1.179-1.18-1.179c-0.59,0-1.18,0.472-1.18,1.18
	L-184.399,357.624z M-172.253,358.45c0.472,0.354,0,1.769-1.18,2.948c-1.06,1.18-1.297,2.123-0.59,2.123
	c0.708,0,1.652-0.59,2.006-1.18c1.179-2.004,2.594-1.297,3.302,1.416c0.471,1.415,1.06,2.24,1.533,1.768
	c0.353-0.353,0.353-1.65-0.118-2.83c-0.59-1.18-0.826-2.83-0.708-3.655c0.118-0.708-0.943-1.416-2.358-1.416
	C-171.781,357.624-172.607,357.978-172.253,358.45z M-189.116,359.983c0,0.59,0.59,1.18,1.179,1.18c0.707,0,1.18-0.59,1.18-1.18
	c0-0.708-0.473-1.18-1.18-1.18c-0.59,0-1.18,0.472-1.18,1.18H-189.116z M-165.414,361.87c0,1.297,0.354,1.65,0.708,0.707
	c0.354-0.825,0.236-1.887-0.118-2.24C-165.178,359.865-165.531,360.573-165.414,361.87z M-159.635,362.813
	c0,0.354,0.59,2.005,1.297,3.892c0.943,2.594,0.825,3.537-0.708,4.717c-1.179,0.707-1.65,2.004-1.179,2.712
	c0.59,0.943,1.415,0.59,2.594-1.061c0.944-1.416,2.477-2.477,3.42-2.477c0.944,0,1.651-0.59,1.651-1.18
	c0-0.707-1.061-1.178-2.358-1.178c-1.77,0-2.359-0.826-2.359-2.948c0-1.651-0.471-2.949-1.179-2.949c-0.59,0-1.18,0.236-1.18,0.472
	H-159.635z M-166.711,369.417c0,2.24,0.354,2.476,1.415,1.415c1.062-1.061,1.062-1.769,0-2.83
	C-166.357,366.94-166.711,367.176-166.711,369.417z M-154.565,372.601c-0.825,0.354-1.533,1.061-1.533,1.769
	c0,0.707,0.826,0.943,1.77,0.471c0.943-0.353,1.768-0.118,1.768,0.472c0,0.59-1.297,1.415-2.948,1.887
	c-2.24,0.59-2.712,1.18-1.887,2.712c0.472,1.061,1.062,4.128,1.18,6.84c0.117,4.01-0.236,5.07-1.77,5.07
	c-1.414,0-1.768-0.707-1.414-2.948c0.471-2.476,0.353-2.712-1.062-1.65c-2.004,1.768-3.655,0.353-1.769-1.534
	c2.477-2.476,1.533-3.42-1.297-1.533c-1.533,0.944-3.184,1.416-3.538,0.944c-0.471-0.354-0.825-0.236-0.825,0.354
	c0,0.707-1.297,1.179-2.948,1.179s-2.948-0.708-2.948-1.533c0-0.826-0.59-1.533-1.297-1.533c-1.533,0-8.49,3.773-9.434,5.189
	c-0.472,0.471-1.062,0.235-1.415-0.59c-0.472-1.415-0.826-1.297-1.887,0.118c-0.826,1.061-1.297,1.18-1.297,0.354
	c0-2.005-9.67,2.948-12.147,6.368c-1.179,1.533-1.768,2.712-1.179,2.594c3.184-0.59,3.774,0.236,2.594,3.302
	c-0.707,2.004-0.707,3.537,0,4.245c0.826,0.825,0.826,2.005,0,3.42c-0.825,1.533-0.825,2.712,0,3.773
	c0.944,1.18,0.826,2.005-0.353,3.066c-1.062,0.826-1.651,3.066-1.533,5.66c0.118,2.713-0.472,4.954-1.533,5.78
	c-1.533,1.296-1.533,1.65,0,2.711c0.943,0.59,1.179,1.18,0.471,1.18c-0.825,0-1.65,1.061-2.004,2.358s-0.118,2.123,0.353,1.769
	c1.77-1.061,2.595,1.769,1.18,3.538c-0.944,1.179-2.123,1.297-4.01,0.59c-1.533-0.59-3.42-0.472-4.717,0.235
	c-3.066,1.651-3.773,0.118-1.297-2.594c1.18-1.297,1.533-2.359,0.943-2.359c-0.707,0-1.886,0.826-2.712,1.77
	c-0.825,1.06-2.24,1.65-2.948,1.296c-2.358-0.825-3.656,0.708-7.547,9.316c-0.236,0.59,1.061,0.118,2.83-1.06
	c2.005-1.416,3.538-1.77,3.774-1.062c0.236,0.707,1.533,1.061,2.712,0.707c1.887-0.471,2.358,0,2.358,2.477
	c0,1.887-0.471,2.948-1.179,2.476c-0.707-0.472-2.594,0-4.01,1.062c-1.532,0.943-3.89,1.533-5.188,1.297
	c-2.476-0.472-7.311,2.358-7.311,4.245c0,0.59,1.061,1.061,2.476,1.061c1.297,0,2.005,0.472,1.651,1.18
	c-0.354,0.59,1.18,0.353,3.538-0.708c2.358-0.943,4.717-1.415,5.189-1.18c0.59,0.355,4.48,0.826,8.726,1.18
	c4.245,0.236,8.255,0.825,8.962,1.18c0.59,0.353,2.477,0.235,4.128-0.472c3.42-1.298,4.009,0.117,1.179,2.476
	c-1.061,0.825-5.543,1.533-10.85,1.769c-7.428,0.118-8.608,0-6.957-1.297c1.062-0.826,2.005-1.77,2.005-2.24
	c0-0.473-1.533,0.235-3.42,1.532c-1.887,1.415-4.363,2.359-5.66,2.24c-4.128-0.353-5.66,0.237-7.194,2.713
	c-1.533,2.358-1.415,2.476,1.415,1.769c2.359-0.59,3.066-0.354,3.066,1.179c0,1.415,0.708,1.651,3.538,1.061
	c2.005-0.471,3.538-0.353,3.538,0.236c0,0.59,2.005,0.826,4.481,0.59c4.127-0.472,4.245-0.354,2.005,1.297
	c-1.297,1.061-2.005,2.24-1.415,2.712c0.471,0.472,2.004-0.236,3.537-1.65c1.533-1.416,3.184-2.595,3.774-2.595
	c0.59,0,2.005-0.825,3.184-2.005c1.415-1.297,2.123-1.415,2.123-0.354c0,0.826,0.825,1.18,1.769,0.708
	c0.943-0.354,1.768-0.118,1.768,0.472c0,0.707-0.59,1.179-1.415,1.179c-0.707,0-1.061,0.236-0.707,0.59
	c1.415,1.415,4.599-1.062,4.127-3.066c-0.354-1.18,0.236-3.302,1.297-4.835c1.77-2.595,1.77-2.595-0.354-0.944
	c-1.297,0.944-2.948,2.595-3.773,3.538c-0.826,1.061-1.415,1.18-1.533,0.472c0-0.826,1.887-3.066,4.245-5.189
	c3.774-3.302,4.128-4.01,3.066-6.486c-0.943-2.122-2.122-2.712-5.424-2.594c-2.24,0-3.774,0.59-3.42,1.297
	c0.354,0.59,0.118,0.708-0.708,0.236c-1.061-0.708-0.943-1.651,0.59-3.892l1.887-3.066l-2.713,2.005
	c-3.066,2.123-5.07,2.476-4.009,0.708c0.354-0.708-0.118-1.18-1.061-1.18c-1.062,0-1.887-0.59-1.887-1.297s1.061-0.943,2.358-0.472
	c1.416,0.472,3.184,0.236,4.01-0.471c0.825-0.708,2.948-0.944,4.717-0.59c3.891,0.708,6.722-1.769,5.778-5.306
	c-0.354-1.416-0.118-2.477,0.708-2.477c0.707,0,1.297-0.59,1.297-1.297c0-0.708-0.826-0.943-1.887-0.59
	c-2.83,1.062-4.245-0.353-2.24-2.358c0.943-1.061,1.533-2.359,1.179-2.948c-1.18-1.77-3.892-1.18-4.481,0.943
	c-0.472,2.005-0.59,2.005-0.708,0c0-1.061,0.943-3.066,2.359-4.481c2.712-2.712,2.24-4.6-0.59-2.359
	c-1.415,1.18-1.651,1.062-1.415-0.471c0.118-1.062,0.943-2.359,1.769-2.948c1.061-0.59,1.179-1.18,0.236-1.651
	c-0.708-0.472-1.887-0.472-2.713,0c-0.825,0.471-0.236-1.18,1.18-3.656c1.533-2.594,2.24-4.835,1.65-5.189
	c-1.65-1.06-0.59-7.9,1.651-11.32c2.123-3.184,4.01-3.892,4.01-1.533c0,1.06,0.472,0.943,1.18-0.236
	c0.942-1.533,1.178-1.415,1.296,0.59c0.118,1.297,0.118,3.42,0,4.598c-0.236,3.656,3.066,6.368,6.722,5.543
	c4.127-0.943,10.849-6.132,8.844-6.84c-0.825-0.353-1.533-1.65-1.533-2.948c0-1.533,0.59-2.122,1.651-1.769
	c0.944,0.354,1.887,0.118,2.123-0.59c0.354-0.825,1.297-0.707,3.066,0.354c2.24,1.416,2.83,1.416,3.656,0
	c0.59-0.825,1.65-1.179,2.358-0.825c0.708,0.472,1.061,1.415,0.708,2.005c-0.354,0.59,0,0.707,0.943,0.353
	c1.061-0.353,1.533-1.533,1.18-2.948c-0.355-1.179-0.119-2.948,0.47-3.773c0.708-0.708,1.062-3.774,0.826-6.722
	c-0.118-3.656,0.354-5.66,1.651-6.604c1.415-1.061,1.651-2.004,0.826-3.655C-152.678,373.19-153.857,372.365-154.565,372.601
	L-154.565,372.601z M-164.352,388.285c0,0.59-0.472,1.18-1.18,1.18c-0.59,0-1.179-0.59-1.179-1.18c0-0.708,0.59-1.18,1.18-1.18
	C-164.824,387.105-164.352,387.577-164.352,388.285z M-160.815,393.002c0,0.59-0.471,1.179-1.179,1.179
	c-0.59,0-1.179-0.59-1.179-1.18c0-0.707,0.59-1.178,1.18-1.178C-161.286,391.823-160.815,392.294-160.815,393.002z
	 M-191.475,453.615c0,0.354-0.472,0.943-1.18,1.297c-0.589,0.354-1.178,0.118-1.178-0.472c0-0.707,0.59-1.297,1.179-1.297
	c0.707,0,1.18,0.236,1.18,0.472H-191.475z M-149.022,385.455c0,0.943,0.59,1.415,1.18,1.06c0.707-0.47,0.943-1.296,0.589-1.886
	c-1.062-1.65-1.77-1.297-1.77,0.826H-149.022z M-235.579,388.875c-1.769,0.943-3.773,1.532-4.245,1.179
	c-0.59-0.354-1.297-0.118-1.769,0.59c-0.354,0.589-1.769,1.179-3.066,1.179c-1.415,0-2.24,0.825-2.24,2.358
	c0,1.887,0.825,2.359,3.537,2.359c2.005,0,3.538,0.471,3.538,1.06c0,0.59,1.297,0.944,2.948,0.944c4.245,0,5.189,1.415,2.359,3.42
	c-1.887,1.415-2.005,1.887-0.708,2.712c0.826,0.59,1.297,1.533,0.944,2.24c-1.18,1.652,3.301,5.072,5.542,4.246
	c1.061-0.354,1.887-1.18,1.887-1.65c0-0.59,1.179-1.18,2.712-1.416c1.651-0.236,2.712-1.297,2.948-3.066
	c0.236-1.415,0.944-2.24,1.651-1.887c0.708,0.472,0.943-0.118,0.472-1.65c-0.708-2.005-0.354-2.241,1.65-1.77
	c2.005,0.59,2.36,0.118,2.36-3.066c0-2.004-0.472-3.655-1.18-3.655c-0.59,0-1.18-1.18-1.18-2.477c0-1.886-0.353-2.24-1.414-1.415
	c-2.123,1.651-5.66,1.415-5.66-0.236c0-0.707-0.826-1.415-1.77-1.415c-0.943,0-1.768,0.59-1.768,1.298
	c0,0.707-0.59,0.471-1.18-0.472c-1.061-1.533-1.179-1.533-1.179,0c0,1.297-0.236,1.415-0.943,0.354
	c-0.708-1.18-1.651-1.062-4.246,0.235V388.875z M-153.739,395.007c0,0.59,0.59,1.768,1.18,2.712
	c0.943,1.415,1.178,1.297,1.178-0.944c0-1.415-0.471-2.594-1.179-2.594C-153.15,394.181-153.739,394.535-153.739,395.007z
	 M-153.031,401.847c-1.77,0.943-3.774,1.414-4.364,1.06c-0.59-0.353-1.061,0.472-1.061,1.887c0,2.123,0.354,2.24,2.594,1.062
	c2.595-1.416,7.783-5.779,6.722-5.779C-149.376,400.077-151.145,400.903-153.031,401.847z M-163.763,409.51
	c-0.353,0.59-0.235,1.18,0.472,1.18c0.59,0,1.533-0.59,1.887-1.18c0.354-0.707,0.236-1.179-0.472-1.179
	C-162.466,408.331-163.409,408.803-163.763,409.51L-163.763,409.51z M-154.918,410.1c0,1.061,0.59,1.769,1.297,1.533
	s1.297-0.944,1.297-1.533c0-0.59-0.59-1.297-1.297-1.533C-154.329,408.331-154.918,409.039-154.918,410.1z M-163.763,417.411
	c-1.886,1.651-2.948,2.83-2.358,2.595c4.835-2.241,7.665-3.892,7.665-4.835C-158.456,413.52-160.107,414.227-163.763,417.411z
	 M-154.093,415.053c-1.415,1.415-0.825,2.594,0.944,2.004c0.943-0.471,1.768-1.179,1.768-1.768
	C-151.381,413.991-153.031,413.873-154.093,415.053z M-160.225,418.944c-0.354,0.708,0.118,2.123,1.297,3.184
	c1.77,1.887,1.77,2.123-0.471,3.774c-1.298,1.061-3.302,2.476-4.482,3.184c-1.297,0.825-1.768,1.769-1.179,2.358
	c0.59,0.59,1.297,0.472,1.533-0.472c0.354-0.707,1.297-1.415,2.123-1.415c0.943,0,2.123-0.707,2.594-1.533
	c0.472-0.943,2.005-2.004,3.302-2.476c2.123-0.826,2.123-1.061,0.59-2.24c-1.062-0.826-1.651-2.36-1.415-3.538
	C-155.862,417.647-158.928,416.94-160.225,418.944z M-167.3,424.841c-0.944,1.533,0.59,1.533,2.948,0
	c1.533-0.943,1.533-1.179-0.236-1.179c-1.061,0-2.359,0.472-2.712,1.18V424.841z M-155.508,429.441
	c-0.707,1.297,1.061,2.712,2.24,1.65c1.062-1.06,0.826-2.712-0.353-2.712c-0.708,0-1.415,0.472-1.887,1.061V429.441z
	 M-220.956,432.035c0,0.825-0.943,2.122-2.005,2.948c-1.887,1.415-1.887,1.415,0.59,0.825c1.415-0.353,2.594-1.06,2.594-1.65
	c0-0.708,1.18-1.651,2.712-2.241c2.477-0.944,2.477-1.061-0.59-1.061C-219.541,430.738-220.956,431.327-220.956,432.035z
	 M-161.05,434.393c-2.24,2.359-1.77,3.42,1.415,2.595c1.179-0.354,2.004-1.298,1.887-2.24
	C-158.102,432.271-158.928,432.153-161.05,434.393z M-167.182,438.874c-0.472,0.59-0.236,1.416,0.353,1.77
	c0.59,0.471,1.415,0.235,1.77-0.354c0.47-0.59,0.235-1.416-0.355-1.77C-166.004,438.049-166.829,438.285-167.182,438.874z
	 M-157.277,440.054c0,0.707-0.59,1.297-1.179,1.297c-0.708,0-2.476,1.297-4.01,2.948c-1.532,1.65-3.301,2.948-4.009,2.948
	c-0.707,0-1.65,0.59-2.123,1.297c-0.59,1.062,0.118,1.18,2.359,0.59c2.948-0.708,3.066-0.59,3.066,3.891
	c0,3.42-0.59,4.835-2.005,5.307c-1.179,0.472-4.363,2.83-7.193,5.425c-2.83,2.594-5.543,4.716-6.014,4.716
	c-0.59,0-1.297,0.826-1.77,1.77c-0.353,0.943-1.296,1.768-2.004,1.768c-0.707,0-2.594,1.297-4.127,2.948
	c-1.533,1.651-2.948,2.948-3.302,2.948c-0.354,0-2.005,1.298-3.774,2.949c-5.306,4.952-2.594,4.363,3.42-0.708
	c3.656-3.184,5.543-4.127,5.543-2.948c0,1.887-3.066,5.424-4.835,5.424c-0.59,0-1.062,0.472-1.062,1.18
	c0,1.769,2.477,1.415,4.01-0.472c1.769-2.359,4.717-2.83,4.835-0.825c0,2.358,2.948,3.066,2.948,0.825
	c0-1.061-0.472-1.887-1.18-1.887c-0.59,0-1.179-1.061-1.179-2.358s-0.471-2.359-1.179-2.359c-1.415,0-1.061-2.594,0.59-3.773
	c2.122-1.651,3.066-0.944,2.358,1.415c-0.59,1.65-0.236,2.358,1.062,2.358c1.06,0,1.886-0.707,1.886-1.533
	c0-0.825,1.651-2.358,3.774-3.302c2.005-0.943,4.01-2.358,4.245-3.184c0.59-2.122-3.302-1.769-4.01,0.354
	c-0.471,1.061-1.768,2.359-2.947,3.066c-1.77,0.826-2.24,0.708-2.24-0.707c0-0.944,0.825-1.77,1.768-1.77s1.769-0.825,1.769-1.768
	c0-0.944,0.707-1.769,1.533-1.769c0.825,0,2.122-1.061,2.948-2.476c0.825-1.416,1.887-2.123,2.24-1.77
	c0.472,0.354,1.416,0.119,2.359-0.589c1.887-1.65,2.005,0.354,0.118,2.24c-1.18,1.18-1.18,1.77,0.236,2.595
	c2.122,1.297,3.655-1.65,2.712-5.542c-0.354-1.651,0.236-2.949,1.533-3.656c1.769-0.944,1.887-1.533,0.59-3.066
	c-1.651-2.005-0.826-4.245,1.65-4.245c2.713,0,4.246-8.491,1.77-10.024C-156.687,439.228-157.277,439.464-157.277,440.054
	L-157.277,440.054z M-157.159,446.54c-0.825,0.943-2.24,1.415-3.066,1.179c-1.297-0.59-1.18-1.062,0.354-2.948
	c1.18-1.415,2.358-1.77,3.066-1.062c0.707,0.708,0.59,1.77-0.354,2.83V446.54z M-182.513,443.238
	c-1.297,0.943-1.886,1.65-1.179,1.65c1.533,0,4.6-2.122,4.01-2.83C-180.036,441.823-181.333,442.294-182.513,443.238
	L-182.513,443.238z M-171.428,442.53c-1.533,0.943-1.533,1.18,0.236,1.18c1.061,0,2.359-0.59,2.712-1.18
	C-167.536,440.997-169.07,440.997-171.428,442.53z M-177.914,447.247c-1.179,1.297-1.65,2.359-0.943,2.359
	c0.59,0,2.123-1.062,3.302-2.359c1.18-1.297,1.65-2.358,0.943-2.358C-175.202,444.889-176.734,445.949-177.914,447.247z
	 M-189.116,447.837c-1.062,1.297-1.062,2.476,0.118,5.188c1.533,3.302,1.65,3.302,4.245,1.415c1.415-1.06,2.712-2.358,2.712-2.948
	s-0.825-0.353-1.769,0.472c-2.712,2.24-4.717-0.118-3.066-3.42C-185.343,445.714-186.876,445.242-189.116,447.837z
	 M-239.588,449.016c-0.826,0.943-1.061,1.769-0.472,1.769c0.59,0,1.77-0.826,2.595-1.77
	C-235.579,446.775-237.583,446.775-239.588,449.016L-239.588,449.016z M-173.197,452.318c-1.415,1.061-1.65,1.887-0.825,2.476
	c0.707,0.354,1.887-0.354,2.594-1.65C-169.895,450.314-170.248,450.195-173.197,452.318z M-169.069,454.558
	c0,0.826-1.887,2.713-4.01,4.128c-3.302,2.122-4.127,2.24-4.717,0.943c-0.353-0.943-0.118-2.005,0.472-2.358
	c0.708-0.472,1.18-1.298,1.18-1.887c0-1.061-2.36,0.472-9.199,6.132c-0.825,0.707-1.297,1.65-0.943,2.005
	c0.471,0.353,2.005-0.59,3.655-2.123c2.83-2.594,3.184-2.594,3.42,0.825c0.236,2.241,0.826,2.123,6.84-1.533
	c4.953-3.066,7.665-7.547,4.481-7.547c-0.59,0-1.18,0.708-1.18,1.415L-169.069,454.558z M-185.579,468.473
	c-0.943,0.59-1.415,1.298-1.061,1.651c0.236,0.354,1.297,0.118,2.24-0.471c0.944-0.59,1.416-1.297,1.062-1.651
	c-0.236-0.354-1.297-0.118-2.24,0.471H-185.579z M-171.428,474.37c-1.65,1.297-2.24,2.358-1.415,2.358
	c1.651,0,5.543-3.302,4.835-4.127C-168.362,472.365-169.777,473.191-171.428,474.37z M-201.498,474.37
	c-0.354,0.59,0.117,1.179,1.06,1.179c1.062,0,1.888-0.59,1.888-1.18c0-0.707-0.472-1.179-1.062-1.179
	C-200.319,473.19-201.145,473.662-201.498,474.37z M-195.248,475.785c-10.378,9.552-15.095,12.382-15.095,9.198
	c0-0.708,0.59-1.18,1.18-1.18c0.707,0,1.179-0.589,1.179-1.296c0-0.708-0.944-1.062-2.005-0.826
	c-1.18,0.236-2.005,1.297-2.005,2.476c0.118,1.18-0.59,2.005-2.004,2.005c-1.18,0-2.241,0.708-2.241,1.533
	c0,1.062,2.005,1.533,6.486,1.651c5.424,0,6.486-0.236,6.486-2.005c0-1.179,0.825-2.712,1.769-3.537
	c1.533-1.297,1.768-0.944,1.768,1.65c0,1.887,0.472,2.949,1.18,2.477c0.707-0.354,1.179-2.594,1.179-4.835
	c0-2.594,0.59-4.01,1.65-4.01c0.944,0,1.888-0.825,2.36-1.768c0.353-0.944,1.414-1.769,2.476-1.769c0.943,0,1.769-0.59,1.769-1.18
	C-189.116,472.365-192.182,473.073-195.248,475.785z M-230.39,476.846c0,0.59,0.59,0.826,1.18,0.472
	c0.707-0.354,1.179-0.944,1.179-1.297c0-0.236-0.472-0.472-1.18-0.472C-229.801,475.549-230.39,476.139-230.39,476.846z
	 M-227.088,479.676l-3.184,2.713l2.83-0.236c1.533,0,2.477-0.354,2.24-0.59c-0.235-0.236,0.119-1.18,0.944-2.123
	C-222.018,476.728-223.786,476.846-227.088,479.676L-227.088,479.676z M-216.239,478.497c-0.943,0.943-3.538,3.184-5.542,4.835
	c-2.123,1.65-3.892,3.538-3.892,4.245c0,0.826,0.59,0.826,1.533-0.118c0.943-0.707,2.005-0.943,2.359-0.471
	c0.471,0.353,0.825,0,0.825-0.944c0-0.943,2.24-3.42,4.953-5.542c2.712-2.123,4.127-3.774,3.184-3.774
	c-0.944,0-2.477,0.826-3.42,1.77V478.497z M-206.333,478.025c-1.062,1.77-0.236,2.123,2.358,1.062
	c2.005-0.708,2.123-0.826,0.354-1.533C-204.682,477.2-205.861,477.318-206.333,478.025z M-176.145,479.087
	c0,0.59,0.826,1.179,1.77,1.179c0.943,0,1.768-0.59,1.768-1.18c0-0.707-0.825-1.179-1.769-1.179
	C-175.319,477.907-176.145,478.379-176.145,479.087z M-174.965,483.804c0,0.59,0.471,1.179,1.06,1.179
	c0.708,0,1.534-0.59,1.888-1.18c0.353-0.707-0.118-1.179-1.062-1.179C-174.14,482.624-174.965,483.096-174.965,483.804z"/>
</svg>
