<?xml version="1.0" encoding="iso-8859-1"?>
<!-- Generator: Adobe Illustrator 19.0.0, SVG Export Plug-In . SVG Version: 6.00 Build 0)  -->
<svg version="1.2" baseProfile="tiny" id="Layer_1" xmlns="http://www.w3.org/2000/svg" xmlns:xlink="http://www.w3.org/1999/xlink"
	 x="0px" y="0px" viewBox="-247 374.89 100 93" xml:space="preserve">
<title>face_00005</title>
<path d="M-175.787,376.406c-3.88,1.616-4.85,4.85-1.509,4.85c3.987,0,8.836-2.371,8.513-4.203
	C-169.214,374.79-171.585,374.574-175.787,376.406z M-167.49,376.298c0,2.048,3.233,3.88,7.004,3.88c1.617,0,4.31,1.185,6.143,2.694
	c1.724,1.508,4.094,2.694,5.28,2.694c3.448,0,2.263-3.125-1.94-5.173c-2.263-0.97-4.526-2.37-5.172-3.125
	c-0.54-0.646-3.34-1.616-6.143-1.94C-166.628,374.682-167.49,374.79-167.49,376.298z M-234.085,381.363
	c-1.4,0.539-2.37,1.616-2.155,2.263c0.539,1.724,8.297,2.478,9.698,1.077c0.755-0.754,2.155-0.754,4.203,0
	c1.724,0.54,3.664,0.863,4.418,0.54c0.754-0.216,2.155,0.107,3.017,0.861c0.862,0.755,2.91,1.617,4.526,2.048
	c2.263,0.539,3.233,0.215,4.095-1.509c1.078-1.94,0.754-2.37-2.802-3.88c-5.495-2.37-14.008-3.124-15.948-1.616
	c-1.078,0.863-1.724,0.97-2.263,0.108C-228.05,379.962-230.744,379.962-234.085,381.363z M-185.593,382.548
	c-3.449,2.155-4.526,5.496-2.263,6.897c0.646,0.323,2.91-0.97,4.957-3.017c3.017-3.018,3.448-3.987,2.262-4.957
	C-181.714,380.609-183.007,380.824-185.593,382.548z M-243.675,385.781c-5.927,4.203-3.34,7.004,3.448,3.88
	c2.802-1.294,3.125-1.833,2.047-4.526C-239.042,382.872-239.58,382.979-243.675,385.781z M-170.723,384.488
	c-2.37,0.323-3.771,1.185-3.771,2.155c0,1.185,1.293,1.617,5.388,1.617c3.663,0,6.573,0.754,9.267,2.37
	c4.418,2.802,7.435,3.233,7.435,1.078C-152.404,388.368-164.58,383.518-170.723,384.488z M-179.883,391.492
	c-1.616,2.048-2.585,4.203-2.154,4.957c0.43,0.647,0.107,1.617-0.647,2.155c-2.047,1.186-0.215,2.91,7.328,6.897l5.71,3.017
	l4.419-2.047c2.478-1.078,5.603-1.832,6.897-1.724c2.586,0.215,5.926-3.664,5.926-6.79c0-2.585-3.771-1.939-5.28,0.97
	c-1.078,1.94-2.37,2.587-4.957,2.587c-1.94,0-4.526,0.539-5.819,1.293c-2.047,1.078-2.91,0.754-6.142-1.616
	c-2.047-1.51-3.664-3.018-3.664-3.341s0.97-1.832,2.155-3.448c2.156-2.91,2.048-6.681-0.107-6.681c-0.431,0-2.156,1.724-3.664,3.771
	H-179.883z M-229.45,389.876c-0.323,0.539-1.617,1.077-2.802,1.077c-1.077,0-3.556,1.294-5.28,2.91
	c-2.91,2.478-3.233,3.448-2.802,7.22c0.323,2.478,0.539,4.526,0.539,4.633c0.108,0.108,2.155,1.617,4.741,3.34
	c4.526,3.018,8.082,3.45,13.578,1.725c2.694-0.862-0.97-3.664-4.957-3.664c-3.88,0-10.021-3.556-10.021-5.71
	c0.107-0.755,1.508-2.91,3.125-4.85c2.155-2.479,3.34-3.233,3.879-2.263c0.539,0.754,0.108,1.616-0.97,2.263
	c-1.078,0.646-1.724,2.37-1.724,4.741c0,3.556,0.215,3.772,3.556,3.556c1.832-0.107,4.095,0,4.957,0.216
	c0.862,0.215,2.478-1.185,3.556-3.125c1.832-2.91,1.94-3.772,0.754-5.173c-0.754-0.97-2.263-1.4-3.556-1.077
	c-1.293,0.323-3.017,0.108-3.88-0.431c-1.185-0.754-0.322-1.078,3.018-1.078c3.125,0,5.927,0.862,8.944,2.91
	c3.987,2.586,4.418,2.694,6.142,1.077c2.048-2.155,1.509-2.91-5.495-6.573C-219.428,388.69-228.158,387.72-229.45,389.876z
	 M-205.204,392.57c-0.863,2.802-0.97,4.31-0.216,5.065c1.832,1.831,4.526,0.107,4.741-2.91c0-1.509,0.108-3.34,0.216-3.987
	c0.108-0.754-0.647-1.509-1.724-1.724C-203.373,388.798-204.342,389.876-205.204,392.57z M-191.196,395.372
	c0,5.064,0.216,5.388,2.479,5.064c4.202-0.539,3.34-10.56-0.862-10.56C-190.765,389.876-191.196,391.276-191.196,395.372z
	 M-171.261,392.893c-0.97,2.586-0.538,7.651,0.755,8.405c0.646,0.431,1.832-0.107,2.586-1.077c0.862-1.293,1.509-1.509,2.047-0.647
	c1.294,2.155,3.772-1.077,3.772-4.957c0-3.448-0.108-3.556-4.31-3.34C-168.89,391.385-170.937,392.031-171.261,392.893z
	 M-206.821,400.652c-0.323,0.646-0.539,2.801-0.43,4.849c0.215,2.047,0,3.987-0.432,4.418c-0.431,0.431-0.754,2.694-0.754,4.957
	c0,2.802,0.43,4.095,1.508,4.095c2.263,0,2.802-1.293,3.556-7.759c1.078-9.698,0.97-10.991-0.97-11.422
	C-205.313,399.574-206.39,400.005-206.821,400.652z M-215.873,403.777c-2.586,2.155-3.448,3.556-3.017,4.849
	c0.862,2.263,4.418,1.509,8.082-1.832c2.802-2.586,3.017-4.526,0.647-5.496C-212.317,400.436-211.562,400.221-215.873,403.777z
	 M-189.041,404.423c-1.293,3.34-1.4,7.759-0.215,8.405c0.43,0.324,0.539,3.233,0.43,6.466c-0.322,5.28-0.753,6.034-3.232,7.004
	c-1.616,0.647-5.496,1.078-8.62,1.078h-5.604l0.646-3.664c0.54-3.233,0.432-3.664-1.616-3.664c-2.802,0-5.065,4.85-3.34,7.005
	c0.862,0.97,0.646,1.508-0.54,2.047c-2.909,1.078-0.107,4.741,3.126,4.203c2.586-0.54,2.586-0.431,1.616,3.987
	c-0.539,2.478-0.646,5.064-0.215,5.71c0.43,0.755,0.754,2.264,0.862,3.45c0,1.723,0.862,2.262,4.633,2.478
	c3.449,0.215,4.526,0,4.526-1.293c0-1.94-3.125-3.772-5.172-3.125c-1.293,0.538-1.293-1.078,0.43-7.436
	c0.324-0.97,0-2.047-0.646-2.478c-0.754-0.431-0.107-1.293,1.617-2.263c3.125-1.617,6.357-0.862,3.34,0.862
	c-1.077,0.646-1.724,2.37-1.724,5.172c0,3.556,0.323,4.31,2.155,4.31c2.155,0,2.263-0.538,2.586-7.327
	c0.108-0.97,1.94-3.017,4.203-4.31c2.91-1.832,3.987-3.125,3.448-4.31c-0.323-0.863,0-2.048,0.755-2.48
	c1.508-0.969,1.293-8.297-0.216-10.128c-0.539-0.647-0.539-1.832,0-2.694c1.616-2.479,1.293-7.112-0.539-8.621
	C-187.64,401.729-188.071,401.945-189.041,404.423z M-194.43,444.51c0,2.262,3.018,3.556,9.59,4.202
	c5.497,0.647,6.574,0.431,6.574-0.97c0-2.047-2.047-2.801-9.914-3.664C-192.167,443.648-194.43,443.863-194.43,444.51z
	 M-216.197,447.096c-2.694,1.4-3.771,2.586-3.448,3.664c0.43,0.862,1.077,1.616,1.724,1.616c1.832,0,0.323,3.771-1.832,4.31
	c-1.185,0.324-2.155,1.509-2.155,2.586c0,1.51,1.4,2.371,5.927,3.449c3.232,0.862,7.22,2.263,8.836,3.125
	c3.233,1.832,6.896,2.155,7.866,0.539c0.539-0.863,1.186-0.755,2.263,0c1.078,0.97,2.155,0.754,4.85-1.078
	c2.909-2.155,3.124-2.586,1.723-3.987c-1.185-1.293-2.047-1.293-3.771-0.431c-3.34,1.832-11.961,1.4-16.487-0.754
	c-2.263-0.97-4.203-2.156-4.203-2.587c0-0.43,2.91-1.077,6.466-1.508c5.28-0.54,6.465-1.078,6.25-2.479
	c-0.324-1.293-1.724-1.724-6.142-1.616c-4.526,0-5.388-0.216-3.988-1.078c4.31-2.586,5.28-3.664,4.526-4.741
	C-208.869,444.294-211.563,444.617-216.197,447.096z M-196.585,451.19c-2.37,0.43-3.771,1.293-3.771,2.262
	c0,1.294,1.293,1.617,6.25,1.401c3.448-0.107,7.112-0.43,8.082-0.862c1.616-0.646,1.616-0.862-0.216-2.263
	C-188.503,450.112-190.227,450.004-196.585,451.19z M-184.624,454.961c-2.263,2.37-3.34,4.418-3.017,5.388
	c0.97,2.478,2.91,2.047,7.22-1.616c3.017-2.587,3.556-3.556,2.586-4.957C-179.667,450.866-180.852,451.082-184.624,454.961z"/>
</svg>
