<?xml version="1.0" encoding="iso-8859-1"?>
<!-- Generator: Adobe Illustrator 19.0.0, SVG Export Plug-In . SVG Version: 6.00 Build 0)  -->
<svg version="1.2" baseProfile="tiny" id="Layer_1" xmlns="http://www.w3.org/2000/svg" xmlns:xlink="http://www.w3.org/1999/xlink"
	 x="0px" y="0px" viewBox="-247 365.89 100 111" xml:space="preserve">
<title>face_00058</title>
<path d="M-212.412,366.232c-0.128,0.515,0,2.32,0.13,3.866c0.257,3.35-2.191,3.995-3.351,1.03c-0.516-1.03-1.804-1.932-3.093-1.932
	s-3.222,0.902-4.381,1.933c-2.449,2.448-3.351,2.448-3.351,0c0-1.547-0.515-1.675-3.35-0.387c-2.836,1.289-3.222,2.19-2.578,5.284
	c0.645,3.221,0.387,3.608-1.546,2.835c-1.16-0.516-4.253-1.16-6.572-1.547l-4.51-0.773l2.834,4.769c3.48,5.8,3.48,5.928,0.387,5.928
	c-1.289,0-2.706,0.902-3.222,1.933c-0.386,1.16,0,1.933,1.16,1.933c2.32,0,2.32,9.923,0.129,13.53
	c-2.448,3.738-3.866,18.429-2.062,20.62c1.031,1.288,1.031,2.448,0.129,4.38c-0.773,1.418-1.289,4.769-1.289,7.475
	c0.13,2.706,0.387,3.866,0.774,2.577c0.902-3.479,3.479-1.933,3.994,2.32c0.258,2.062,1.933,4.768,3.609,6.057
	c1.675,1.417,3.092,3.35,3.092,4.381s0.902,1.804,1.933,1.804c1.16,0,1.933,1.16,1.933,3.222c0,2.32,0.902,3.35,3.222,3.995
	c1.804,0.386,3.222,1.675,3.222,2.706c0,1.546,1.03,1.804,4.381,1.16c3.093-0.645,4.768-0.258,5.928,1.16
	c1.417,1.675,1.16,1.933-1.675,1.933c-5.67,0-5.026,2.19,0.773,3.092c6.185,0.774,13.917-0.515,13.917-2.448
	c0-0.773-1.933-1.546-4.252-1.933c-2.32-0.387-6.315-2.19-8.892-4.124c-2.577-2.062-5.155-3.608-5.799-3.608
	s-4.897-3.866-9.407-8.634c-6.315-6.701-8.376-9.794-8.763-13.273c-0.258-2.449-0.902-5.67-1.546-7.088
	c-3.222-6.959-3.737-10.438-1.933-12.886c1.03-1.29,1.804-3.995,1.804-6.057c0-1.933,0.644-3.608,1.417-3.608
	c0.773,0,1.031-1.031,0.645-2.32c-0.516-1.418,0.902-3.737,3.866-6.701c4.51-4.253,4.639-4.381,6.443-1.933
	c2.062,2.835,7.732,3.995,10.051,2.062c0.902-0.773,1.933-1.031,2.449-0.644c0.386,0.386,1.933,0.128,3.35-0.774
	c2.191-1.16,2.707-1.03,2.707,0.645c0,1.03,0.644,1.933,1.288,1.933c0.773,0,1.289-0.645,1.289-1.418
	c0-0.644,0.515-1.03,1.289-0.515c2.19,1.288,7.99-0.774,7.216-2.707c-0.902-2.448,5.541-2.448,7.474,0
	c1.418,1.933,8.505,1.418,8.505-0.515c0-1.675-4.381-2.835-4.896-1.418c-0.774,2.32-2.836,1.547-2.449-0.902
	c0.773-5.412,2.32-5.67,7.732-1.16c6.83,5.413,9.536,6.444,10.438,3.995c1.16-3.092,7.861,2.32,10.825,8.892
	c3.222,7.346,5.412,16.366,3.737,16.366c-0.644,0-0.773,1.933-0.258,4.768c2.191,12.114,2.062,15.593-0.773,16.495
	c-2.062,0.644-2.448,1.546-1.933,3.995c0.644,2.448,0.258,3.093-1.546,3.093c-1.547,0-3.35,2.062-5.413,6.314
	c-2.448,5.413-3.866,6.701-8.891,8.634c-3.222,1.289-7.346,2.449-9.15,2.577c-12.371,1.29-13.789,1.933-13.917,5.928
	c-0.13,3.737,0.128,3.866,3.994,3.093c2.32-0.515,5.413-0.902,7.088-0.773c1.546,0,2.835-0.516,2.835-1.031
	c0-1.418,7.86-4.253,9.278-3.35c1.418,0.902,10.052-5.542,10.052-7.604c0-0.902,1.546-2.577,3.608-3.994
	c5.284-3.48,10.696-11.212,9.923-13.79c-0.387-1.288,0.258-5.67,1.417-9.664c1.547-5.284,1.676-7.603,0.645-7.99
	c-2.32-0.773-1.547-3.866,1.16-4.768c2.061-0.644,2.448-1.546,1.804-3.608c-0.387-1.546-1.547-3.48-2.449-4.253
	c-1.03-0.644-2.19-2.835-2.577-4.768c-0.516-1.933-1.418-3.866-2.062-4.123c-0.515-0.387-0.773-1.547-0.387-2.578
	c0.387-1.03-1.417-3.995-4.51-7.087c-2.964-2.964-5.283-5.8-5.283-6.444c0-0.644-0.902-2.062-2.062-3.221
	c-1.675-1.547-1.804-2.449-0.516-3.866c1.289-1.547,1.16-1.933-0.386-1.933c-1.031,0-2.191,0.644-2.449,1.288
	c-0.257,0.902-1.417,0.645-2.964-0.515c-2.577-1.933-2.577-1.933,0.387-2.062c1.546,0,2.835-0.644,2.835-1.289
	c0-0.773-1.03-1.288-2.19-1.288c-2.578,0-18.686-5.413-19.717-6.572c-1.031-1.16-7.99-2.707-12.114-2.578
	c-2.061,0-4.768-0.515-6.056-1.288c-1.418-0.645-2.449-0.774-2.578-0.258L-212.412,366.232z M-220.015,375.639
	c0,0.644-0.257,1.289-0.515,1.289c-0.387,0-1.031-0.645-1.418-1.289c-0.386-0.773-0.129-1.289,0.516-1.289
	c0.773,0,1.417,0.516,1.417,1.29V375.639z M-207.772,378.216c0.386,0.645,0.128,1.29-0.516,1.29c-0.773,0-1.417-0.645-1.417-1.29
	c0-0.773,0.257-1.288,0.515-1.288C-208.803,376.928-208.159,377.443-207.772,378.216z M-197.077,383.113
	c1.805,2.32,1.547,4.382-0.773,5.155c-0.902,0.258-1.546-0.387-1.546-1.546c0-1.16-1.418-2.32-3.222-2.835
	c-1.804-0.387-3.221-1.676-3.221-2.707C-205.839,378.603-199.396,380.02-197.077,383.113z M-225.169,387.108
	c0,1.547-2.578,3.222-3.48,2.32c-0.902-0.902,0.773-3.48,2.32-3.48C-225.685,385.948-225.169,386.464-225.169,387.108z
	 M-201.973,391.361c0,0.773-0.903,0.644-1.933-0.258c-1.031-0.902-1.933-2.19-1.933-2.835c0-0.773,0.902-0.644,1.933,0.258
	C-202.876,389.428-201.973,390.716-201.973,391.361z M-209.061,389.943c1.289,1.804,0.129,2.706-2.449,1.675
	c-1.16-0.386-1.675-1.288-1.288-1.933C-211.896,388.139-210.092,388.268-209.061,389.943z M-223.107,412.366
	c-1.16,1.804-3.738,3.222-7.088,3.737c-5.928,0.902-7.217,3.222-1.675,3.222c1.933,0,7.216,0.129,11.855,0.129
	c4.64,0,9.923-0.645,11.856-1.418c5.541-2.19,7.732-0.773,6.83,4.51c-0.773,3.609-0.516,4.382,1.289,4.253
	c3.35-0.387,3.994,2.964,0.773,3.866c-1.804,0.386-2.706,1.675-2.706,3.737c0,2.706-0.645,3.093-5.026,3.093
	c-2.835,0-5.928,0.386-7.088,0.773c-3.35,1.289-2.32,2.964,1.547,2.706c2.706-0.258,3.479,0.258,3.479,2.32
	c0,1.804,0.773,2.448,2.577,2.19c6.057-0.902,13.016-1.03,14.175-0.128c1.547,1.16,13.531-1.418,13.531-2.964
	c0-0.516-1.546-1.031-3.35-1.031c-2.835,0-3.093-0.258-1.804-1.933c2.19-2.706,0.515-4.51-4.51-4.51
	c-5.026,0-5.413-0.903-4.769-11.212c0.387-4.252,1.031-6.83,1.933-6.7c0.902,0.128,2.578-0.13,3.738-0.645
	c1.16-0.516,3.35-0.13,5.154,1.03c1.675,1.032,4.768,1.805,7.088,1.805c3.48-0.13,4.252-0.773,4.897-3.866
	c0.515-2.062,0.515-4.124,0.129-4.51c-0.387-0.387-11.985-0.903-25.902-1.031C-220.788,409.531-221.304,409.531-223.107,412.366
	L-223.107,412.366z M-218.339,445.484c-0.258,0.645,1.288,1.031,3.35,1.031c2.19,0,3.995-0.386,3.995-1.03
	c0-0.516-1.546-0.903-3.35-0.903C-216.149,444.582-217.953,444.969-218.339,445.484z"/>
</svg>
