<?xml version="1.0" encoding="iso-8859-1"?>
<!-- Generator: Adobe Illustrator 19.0.0, SVG Export Plug-In . SVG Version: 6.00 Build 0)  -->
<svg version="1.2" baseProfile="tiny" id="Layer_1" xmlns="http://www.w3.org/2000/svg" xmlns:xlink="http://www.w3.org/1999/xlink"
	 x="0px" y="0px" viewBox="-247 359.89 100 123" xml:space="preserve">
<title>face_00089</title>
<path d="M-229.476,368.864c-12.374,6.39-17.344,9.533-17.445,10.852c-0.202,1.318,2.029,3.854,6.39,7.505
	c3.752,3.042,8.418,7.1,10.446,8.925c2.029,1.927,6.288,5.476,9.534,8.012c7.302,5.882,7.606,8.52,1.724,17.444
	c-2.232,3.347-4.057,6.592-4.057,7.2c0,0.508-0.304,1.015-0.71,1.015c-0.507,0-1.318,1.014-1.927,2.333
	c-0.609,1.217-3.245,6.186-5.882,11.156c-5.68,10.345-5.984,9.128,5.476,18.053c4.159,3.245,12.07,9.33,17.546,13.489
	c5.477,4.26,10.75,7.707,11.765,7.707c1.014,0,2.84-1.217,4.26-2.637c1.318-1.42,8.721-7.707,16.43-13.894
	c7.606-6.187,13.894-11.562,13.894-11.866c0-0.812-5.375-12.78-9.534-21.298c-5.375-10.852-10.75-23.428-10.75-25.152
	c0-2.029,3.042-4.97,8.62-8.317c2.13-1.318,4.666-3.144,5.579-4.057c0.912-0.811,4.97-3.854,9.026-6.592
	c13.895-9.533,14.706-10.75,7.607-12.17c-5.173-0.913-21.197-9.027-26.37-13.185c-4.766-3.955-6.896-4.361-9.33-1.826
	c-1.319,1.319-1.623,3.246-1.522,8.621l0.305,6.897h-19.169l-0.304-8.418c-0.304-7.404-0.506-8.317-2.333-8.521
	c-1.115-0.1-9.736,3.753-19.27,8.723L-229.476,368.864z M-213.756,371.602v5.68l-10.04-0.406c-5.579-0.102-9.839-0.609-9.433-0.913
	c0.71-0.71,18.661-10.04,19.168-10.04c0.203,0,0.305,2.535,0.305,5.68V371.602z M-176.941,368.762c2.333,1.623,5.68,3.55,7.505,4.26
	c1.724,0.811,2.941,1.826,2.739,2.231c-0.305,0.406-3.956,0.812-8.114,0.812h-7.505v-5.071c0-2.84,0.304-5.071,0.608-5.071
	c0.305,0,2.434,1.318,4.767,2.84V368.762z M-231.2,382.657c0.203,0.203,0.203,1.825,0,3.651l-0.304,3.347l-3.752-3.347
	c-2.13-1.826-3.854-3.753-3.854-4.26C-239.11,381.237-232.214,381.845-231.2,382.657z M-159.698,383.772
	c-2.333,1.725-3.854,1.725-5.274,0c-1.015-1.217-0.71-1.52,2.13-1.825C-158.38,381.44-157.467,382.048-159.698,383.772z
	 M-218.319,383.164c-0.304,0.507-1.521,1.014-2.536,1.014c-1.014,0-2.23-0.507-2.535-1.014c-0.406-0.609,0.71-1.014,2.535-1.014
	C-219.029,382.15-217.914,382.555-218.319,383.164z M-188.197,406.084c0.304,13.084,0.304,24.747,0.1,25.863
	c-0.506,1.724-1.52,1.927-8.924,1.927c-4.665,0-9.128-0.304-10.04-0.609c-1.42-0.507-1.623-3.55-1.623-23.123
	c0-12.272,0.304-23.428,0.608-24.645c0.71-2.739,1.927-3.043,11.664-3.246l7.707-0.101L-188.197,406.084L-188.197,406.084z
	 M-173.593,383.772c-0.304,0.913-0.609,2.029-0.609,2.637c0,0.609-0.912,0.305-2.028-0.71c-2.738-2.434-2.535-3.55,0.609-3.55
	C-173.593,382.149-173.086,382.555-173.593,383.772z M-213.756,394.22c0,4.462-0.406,8.316-0.913,8.62
	c-0.507,0.406-2.434-0.608-4.361-2.13c-6.288-5.273-6.288-5.476-1.014-10.141c2.637-2.333,5.07-4.26,5.578-4.361
	C-214.061,386.208-213.756,389.858-213.756,394.22z M-177.854,390.366l2.942,4.158l-2.942,2.434
	c-1.622,1.318-3.245,2.333-3.65,2.434c-0.508,0-0.812-2.941-0.812-6.592c0-3.651,0.304-6.592,0.811-6.592
	C-181.099,386.208-179.476,388.135-177.854,390.366z M-179.78,425.963c1.015,2.434,2.029,4.665,2.232,4.97
	c0.202,0.405-0.812,0.912-2.232,1.115c-1.825,0.406-2.535,0.102-2.535-1.115c0-0.913-0.304-3.347-0.609-5.477
	C-183.836,420.385-182.112,420.689-179.78,425.963z M-213.755,426.774c0,2.84-0.203,3.043-2.029,2.029
	c-1.724-0.913-1.825-1.42-0.71-3.043C-214.769,422.92-213.755,423.225-213.755,426.774z M-217.711,432.86
	c1.015,0.608,1.927,1.622,1.927,2.332c0,1.319-8.722,8.824-10.243,8.824c-0.507,0,0.507-2.333,2.13-5.071
	c1.724-2.84,3.042-5.578,3.042-6.085C-220.855,431.541-220.145,431.643-217.711,432.86z M-173.187,439.96
	c2.535,4.969,1.217,5.171-4.26,0.81c-3.651-2.84-3.854-3.346-2.231-3.955c3.55-1.42,4.36-0.913,6.49,3.144L-173.187,439.96z
	 M-202.802,438.54c2.028,0.608,2.231,1.318,2.231,6.591v5.984l-5.274-0.101c-2.94-0.102-8.519-0.406-12.474-0.812
	c-6.288-0.507-6.897-0.71-4.868-1.825c1.217-0.71,2.738-1.927,3.55-2.637c0.71-0.71,3.346-2.84,5.78-4.564
	c4.463-3.245,6.694-3.752,11.055-2.637V438.54z M-178.765,444.726l7.707,5.882l-11.359,0.304c-6.288,0.102-12.069,0-12.88-0.304
	c-0.913-0.304-1.318-1.927-1.115-5.274c0.1-2.738,0.405-5.172,0.608-5.68c0.203-0.405,2.434-0.71,4.868-0.71
	c3.956,0,5.578,0.812,12.17,5.782H-178.765z M-200.571,465.314c0,5.578-0.203,10.142-0.507,10.142
	c-0.913,0-11.257-7.81-16.531-12.475c-2.637-2.332-5.984-5.07-7.302-5.983c-2.435-1.623-2.029-1.725,10.953-1.725l13.387-0.101
	V465.314z M-174.101,455.984c1.725,0.71,0.508,2.13-9.533,10.141c-6.389,5.173-11.866,9.331-12.17,9.331
	c-0.304,0-0.406-1.724-0.203-3.753c0.102-2.13,0.304-6.49,0.406-9.634c0.101-4.564,0.406-5.781,1.927-6.086
	C-190.327,455.172-176.129,455.273-174.101,455.984L-174.101,455.984z"/>
</svg>
