<?xml version="1.0" encoding="iso-8859-1"?>
<!-- Generator: Adobe Illustrator 19.0.0, SVG Export Plug-In . SVG Version: 6.00 Build 0)  -->
<svg version="1.2" baseProfile="tiny" id="Layer_1" xmlns="http://www.w3.org/2000/svg" xmlns:xlink="http://www.w3.org/1999/xlink"
	 x="0px" y="0px" viewBox="-247 363.89 100 115" xml:space="preserve">
<title>face_00120</title>
<path d="M-224.092,364.256c-8.486,1.415-13.26,5.245-19.152,15.38c-1.826,3.124-2.71,5.364-2.828,7.073
	c-0.06,1.355-0.354,2.475-0.59,2.475c-0.235,0-0.353,2.475-0.294,5.421l0.177,5.48l21.154,0.177
	c13.73,0.06,21.391-0.059,21.804-0.471c0.294-0.295,0.648-2.888,0.766-5.657c0.059-2.829,0.235-5.186,0.294-5.245
	c0.53-0.471,15.204-0.648,15.852-0.236c0.59,0.354,0.943,2.18,1.12,5.952l0.294,5.48l18.268-0.235
	c10.076-0.06,18.503-0.354,18.798-0.472c0.766-0.471-0.06-11.667-1.12-15.498c-1.473-5.244-3.713-9.192-6.836-12.02
	c-3.948-3.537-8.132-5.481-14.673-6.895c-4.95-1.002-7.778-1.12-28.52-1.061C-212.248,363.963-223.268,364.14-224.092,364.256
	L-224.092,364.256z M-229.985,374.451c0,0.295-0.118,0.59-0.236,0.59c-0.177,0-0.471-0.295-0.648-0.59
	c-0.177-0.354-0.059-0.59,0.236-0.59C-230.28,373.861-229.985,374.097-229.985,374.451z M-184.788,402.029l-1.709,0.177
	l0.472,14.614l0.412,14.614l-2.77,0.412c-1.473,0.236-2.769,0.766-2.769,1.12c-0.059,0.707-0.059,2.24,0,8.19l0.059,2.83
	l11.668,0.117l11.608,0.177l0.177,4.537l0.177,4.597h-4.891c-2.71,0-14.79,0.177-26.871,0.412l-21.98,0.354l0.177-4.655l0.177-4.656
	l1.767-0.059c2.18-0.176,21.155-0.766,23.454-0.825h1.59V432.2h-7.542l-0.236-4.302c-0.118-2.298-0.294-8.721-0.412-14.26
	c-0.06-5.48-0.295-10.195-0.53-10.43c-0.236-0.236-10.077-0.53-21.922-0.59l-21.508-0.176l-0.06,1.767
	c-0.293,8.486-0.293,41.839,0,43.901c0.237,1.474,0.531,3.595,0.59,4.715c1.12,11.314,6.423,19.387,14.85,22.628
	c6.894,2.651,9.251,2.77,36.77,2.593l26.223-0.177l4.597-1.768c3.535-1.355,5.421-2.534,8.014-5.009
	c4.066-3.83,5.716-6.423,7.13-11.255c1.002-3.3,1.12-5.893,1.002-30.82l-0.118-27.165h-17.973
	C-175.065,401.852-183.904,401.912-184.788,402.029z M-219.968,436.443c0-0.354,0.236-0.707,0.53-0.707
	c0.472,0,0.472,0.471,0.119,2.298c-0.118,0.471-1.827-1.297-1.827-1.945c0-0.353,0.295-0.236,0.59,0.236
	c0.353,0.59,0.589,0.648,0.589,0.118H-219.968z M-222.5,463.726c0,0.472-0.236,0.884-0.472,0.884c-0.648,0-1.178-0.943-0.707-1.414
	C-223.031,462.548-222.5,462.783-222.5,463.726z"/>
</svg>
