<?xml version="1.0" encoding="iso-8859-1"?>
<!-- Generator: Adobe Illustrator 19.0.0, SVG Export Plug-In . SVG Version: 6.00 Build 0)  -->
<svg version="1.2" baseProfile="tiny" id="Layer_1" xmlns="http://www.w3.org/2000/svg" xmlns:xlink="http://www.w3.org/1999/xlink"
	 x="0px" y="0px" viewBox="-247 373.89 100 94" xml:space="preserve">
<title>face_00043</title>
<path d="M-227.267,374.884c-10.753,0.956-19.713,4.779-19.713,8.602c0,2.748,1.553,2.748,10.155-0.239
	c3.823-1.314,7.168-2.15,7.527-1.911c0.836,0.955-0.956,3.106-2.51,3.106c-1.91,0-5.614,6.213-5.614,9.2
	c0,2.986,6.332,6.332,12.066,6.332c3.824,0,5.496,0.836,9.2,4.54l4.66,4.66l-0.598,12.663l-0.597,12.784h3.226
	c2.867,0,3.225,0.478,2.867,3.226c-0.359,3.106-0.717,3.345-6.81,3.704c-10.394,0.597-17.682,7.407-9.916,9.319
	c1.792,0.478,4.659,1.911,6.332,3.106l3.106,2.39l-2.15,4.3c-1.315,2.39-1.912,4.66-1.315,5.138
	c0.478,0.597,7.288,1.075,15.173,1.195c12.784,0.239,14.935,0,19.355-2.27c5.018-2.629,7.527-6.69,5.377-8.841
	c-0.837-0.837-3.226-0.717-7.527,0.239c-8.483,2.03-26.165,0.477-26.165-2.39c0-0.478,3.465-0.597,7.766-0.239
	c11.828,0.836,30.466-4.181,30.466-8.244c0-1.911-0.956-2.27-5.018-2.39c-7.169,0-13.381-2.389-13.86-5.136
	c-0.358-1.554,1.076-3.585,3.943-6.094c4.063-3.345,4.42-4.062,3.107-6.332c-1.195-2.15-2.51-2.628-7.169-2.628
	c-8.363,0-9.2-1.434-7.407-13.5c1.075-8.364,1.075-10.873-0.598-16.369c-2.03-7.049-4.54-11.35-8.243-14.815
	c-2.39-2.15-7.169-4.42-8.722-4.062C-217.351,373.928-222.01,374.406-227.267,374.884L-227.267,374.884z M-196.801,438.324
	c0,0.598-0.478,1.076-0.956,1.076c-1.075,0-3.823-5.257-3.823-6.93c0.12-1.194,4.779,4.54,4.779,5.855V438.324z M-178.283,374.407
	c-5.137,1.314-7.766,3.345-8.84,6.93c-1.554,5.257-1.673,13.859-0.12,13.859c0.597,0,1.194,0.717,1.194,1.672
	c0,2.629,11.35,4.301,17.802,2.629c8.483-2.27,13.86-5.855,14.218-9.439c0.358-2.628-0.359-3.345-5.018-5.496
	c-2.987-1.314-5.496-2.747-5.496-3.225c0-1.076,11.828,0.597,14.456,2.03c3.226,1.673,4.182-1.075,1.314-3.703
	c-1.314-1.195-2.628-2.867-2.747-3.465c-0.478-1.315-22.7-2.868-26.763-1.793V374.407z"/>
</svg>
