<?xml version="1.0" encoding="iso-8859-1"?>
<!-- Generator: Adobe Illustrator 19.0.0, SVG Export Plug-In . SVG Version: 6.00 Build 0)  -->
<svg version="1.2" baseProfile="tiny" id="Layer_1" xmlns="http://www.w3.org/2000/svg" xmlns:xlink="http://www.w3.org/1999/xlink"
	 x="0px" y="0px" viewBox="-247 371.89 100 99" xml:space="preserve">
<title>face_00015</title>
<path d="M-209.941,372.075c-3.943,0.269-4.57,0.538-4.122,1.792c0.537,1.255,0.358,1.344-0.717,0.448
	c-0.806-0.627-1.792-0.806-2.599-0.269c-1.075,0.628-0.896,0.986,0.896,1.613l2.24,0.896l-2.508,0.628
	c-1.344,0.358-3.674,0.448-5.197,0.09c-1.882-0.36-3.137,0-4.391,1.254c-1.613,1.613-1.613,1.792-0.18,2.598
	c1.345,0.807,1.255,0.896-0.447,0.986c-1.165,0-2.061,0.448-2.061,0.986c0,0.537-0.717,0.716-1.703,0.358
	c-0.986-0.269-2.15,0.09-2.867,1.075c-1.075,1.344-1.075,1.434,0.269,0.896c1.881-0.716,2.688,0.448,1.881,2.599
	c-0.537,1.434-0.627,1.434-1.254-0.18c-0.717-1.612-0.717-1.612-1.255,0.18c-0.448,1.344-1.075,1.792-2.33,1.523
	c-1.343-0.358-1.702,0-1.702,1.792c0,2.868,1.434,3.943,2.061,1.524c0.358-1.255,0.896-1.613,2.061-1.165
	c0.986,0.358,1.165,0.717,0.538,0.985c-0.628,0.18-1.076,0.897-1.076,1.613c0,0.807,0.448,1.076,1.076,0.717
	c0.627-0.358,0.716-0.269,0.358,0.359c-0.358,0.627-2.06,0.806-4.57,0.448c-3.226-0.448-4.122-0.18-4.57,0.985
	c-0.358,0.807-0.269,1.792,0.09,2.15c0.358,0.36,0.896,0.09,1.075-0.537c0.269-0.537,0.807-1.075,1.255-1.075
	c0.537,0,0.627,0.538,0.268,1.075c-0.448,0.807-0.179,0.807,0.807-0.09c1.344-1.075,1.523-0.985,1.523,0.27
	c0,0.806,0.627,1.433,1.434,1.433c1.254,0,1.254,0.269,0.358,1.434c-0.717,0.717-2.24,1.254-3.494,1.165
	c-3.047-0.18-5.466,0.896-5.466,2.419c0,0.896,0.717,1.165,2.15,0.896c3.226-0.627,6.004,0.359,5.735,1.971
	c-0.18,0.986-1.344,1.434-4.122,1.345c-2.778,0-4.032,0.358-4.66,1.612c-1.433,2.51-1.075,3.764,0.538,2.15
	c1.076-1.074,1.792-1.164,2.51-0.447c0.716,0.717,0.626,1.165-0.27,1.702c-0.716,0.448-0.806,0.986-0.268,1.345
	c0.448,0.268,1.164-0.09,1.433-0.897c0.359-0.806,0.807-1.254,1.076-0.985c0.268,0.269,0,1.344-0.538,2.509
	c-0.986,1.702-0.896,2.15,0.448,3.136c1.613,1.165,1.165,3.047-0.717,3.047c-0.627,0-1.165,0.806-1.165,1.792
	c0,1.881,1.434,2.598,1.434,0.627c0.09-0.717,0.448-0.627,1.165,0.358c0.627,0.807,1.613,1.255,2.24,1.076
	c1.254-0.448,1.434,2.06,0.18,2.867c-0.449,0.269-0.897,0.09-0.897-0.538c0-0.806-0.269-0.806-1.254,0
	c-0.986,0.896-1.344,0.717-1.703-0.537c-0.358-1.524-0.448-1.524-0.538,0c-0.09,1.165-0.537,1.523-1.792,1.075
	c-2.419-0.717-3.136,0.986-1.433,3.315l1.344,2.061l0.537-2.06c0.628-2.24,0.717-2.24,2.868-1.165
	c0.806,0.448,2.33,1.075,3.315,1.433c1.792,0.538,1.792,0.627,0.09,1.792c-1.613,1.165-1.613,1.434-0.18,3.495
	c0.807,1.254,1.434,2.867,1.434,3.674c0,0.806,0.359,1.254,0.807,0.985c0.448-0.268,0.627-1.344,0.358-2.33
	c-0.358-1.343-0.18-1.702,0.896-1.254c0.986,0.359,1.434,1.613,1.344,4.032c0,1.972,0.18,3.854,0.538,4.122
	c0.269,0.359-0.09,1.344-0.986,2.24c-0.806,0.897-1.165,1.613-0.717,1.613c0.359,0,1.434-0.896,2.33-1.97
	c1.971-2.241,3.495-1.435,1.882,1.074c-1.523,2.51-1.344,2.868,1.434,2.688c4.032-0.268,5.555,0,5.555,0.897
	c0,0.537-0.538,0.896-1.075,0.806c-3.495-0.448-4.66,1.523-2.15,3.584c0.716,0.627,1.523,2.42,1.791,4.122
	c0.986,4.928,3.585,6.093,14.248,6.183c6.272,0,9.14-0.359,9.408-1.075c0.18-0.628-0.358-1.076-1.165-1.076
	c-0.806,0-1.164-0.448-0.896-0.985c0.448-0.628,1.255-0.448,2.51,0.537c6.63,4.839,8.87,5.377,10.662,2.778
	c0.448-0.627,0.717-0.269,0.717,0.807c0,1.075,0.27,1.433,0.717,0.806c0.359-0.627,2.061-1.075,3.764-1.075
	c5.466,0,10.752-1.255,10.752-2.51c0-0.716,0.538-0.985,1.344-0.716c0.807,0.358,1.344,0,1.344-0.717s1.076-1.344,2.42-1.434
	c3.315-0.268,4.39-1.523,2.957-3.315c-1.075-1.254-0.986-1.613,0.09-2.33c1.702-1.075,3.315-0.985,3.673,0.27
	c0.359,0.985,5.287-3.227,5.108-4.481c-0.27-1.792,0.269-2.688,1.881-3.136c0.986-0.27,1.793-0.896,1.793-1.434
	c0-1.255-4.391-3.047-5.914-2.42c-0.717,0.27-0.986,0-0.628-0.896c0.27-0.716,0.717-1.164,0.986-0.896
	c0.18,0.27,1.255,0.09,2.15-0.448c1.255-0.716,2.062-0.716,2.689-0.09c3.494,3.495,6.81-11.469,5.197-23.297
	c-1.075-7.616-3.226-14.157-4.66-14.157c-0.448,0-0.537-0.896-0.179-2.061c0.269-1.076,0.269-1.703-0.179-1.255
	c-0.358,0.359-1.792-1.702-3.136-4.66c-1.344-2.867-2.868-5.376-3.405-5.555c-0.538-0.18-2.061-2.509-3.405-5.197
	c-2.33-4.48-3.226-5.287-10.215-9.05c-4.212-2.33-9.857-4.929-12.545-5.825c-4.66-1.523-14.606-2.24-15.681-1.075
	c-0.269,0.269-1.434,0.269-2.51-0.09C-204.386,372.075-207.343,371.896-209.941,372.075z M-204.117,381.125
	c2.957-0.627,5.018-0.448,8.781,0.628c2.778,0.806,5.735,1.254,6.72,0.985c0.897-0.269,1.972-0.09,2.241,0.359
	c0.269,0.448,0.896,0.537,1.434,0.268c0.627-0.358,0.717-0.179,0.358,0.448c-1.075,1.793,1.882,3.674,6.093,3.854
	c2.15,0.09,3.764,0.537,3.495,0.985c-0.269,0.448,0.09,0.717,0.717,0.538c2.509-0.269,3.494,0.09,3.494,1.523
	c0,0.717,0.448,1.075,0.896,0.807c0.538-0.27,0.897,0.358,0.897,1.612c0,1.255,0.627,2.778,1.433,3.405
	c0.807,0.717,2.42,2.778,3.584,4.57c1.255,1.972,2.868,3.405,3.853,3.405c2.33,0,3.764,1.972,2.689,3.585
	c-0.717,1.165-0.896,1.165-1.792,0c-0.717-1.076-0.897-1.076-0.628,0.448c0.18,1.075,1.076,1.881,2.33,2.06
	c1.075,0.18,1.971,0.897,1.971,1.613c0,1.524-1.433,1.703-2.06,0.09c-0.27-0.538-0.538,0.269-0.538,1.792
	c-0.09,1.613,0.358,2.957,0.806,2.957c0.896,0,0.627,4.66-0.896,15.233c-0.806,5.466-0.269,8.154,1.075,6.093
	c0.628-0.806,0.717-0.716,0.538,0.628c-0.18,1.075-0.986,1.792-2.06,1.792c-1.255,0-1.793,0.627-1.793,1.971
	c0,1.165-1.882,3.763-4.301,6.093c-2.33,2.33-4.211,4.57-4.211,5.018s-0.628,0.807-1.345,0.807c-2.24,0-1.523,2.509,1.165,3.494
	c1.882,0.717,0.448,0.896-6.989,0.807c-5.197-0.09-12.634-0.09-16.577,0.09c-9.767,0.358-23.835-3.137-27.42-6.81
	c-3.315-3.316-9.14-19.893-10.752-30.287c-0.627-4.75-1.613-7.975-2.33-8.244c-0.627-0.269-0.896-0.807-0.627-1.344
	c0.269-0.448,0.986-0.359,1.792,0.269c1.075,0.896,1.255,0.268,1.255-3.585c0-2.509,0.358-4.57,0.806-4.57
	c1.434,0,2.15-8.243,0.806-9.14c-0.896-0.627-0.806-0.985,0.538-2.06c0.986-0.717,2.33-1.344,2.957-1.344
	c1.344,0,1.523-1.434,0.269-2.24c-0.448-0.27-0.896-0.986-0.896-1.524c0-0.537,0.537-0.448,1.434,0.269
	c1.164,0.986,1.254,0.806,0.716-1.344c-0.537-2.33-0.537-2.42,1.344-1.255c1.793,1.076,2.151,0.896,3.585-0.985
	c0.896-1.165,2.06-1.882,2.598-1.524c0.538,0.27,1.344-0.09,1.792-0.896c0.538-0.985,1.524-1.344,2.778-0.985
	c0.986,0.269,1.882,0,1.882-0.448c0-0.628,0.358-0.628,1.165,0c0.806,0.627,2.33,0.717,4.928,0.09L-204.117,381.125z
	 M-223.203,381.215c0.269,0.448,0.09,0.896-0.358,0.896c-0.538,0-0.986-0.448-0.986-0.896c0-0.538,0.18-0.896,0.358-0.896
	C-223.919,380.319-223.472,380.677-223.203,381.215z M-175.712,384.889c0.896,1.344,0.18,1.702-2.15,1.075
	c-1.524-0.358-1.703-0.717-0.807-1.254C-177.056,383.634-176.339,383.724-175.712,384.889z M-230.64,402.003
	c-0.627,0.628-1.076,0.717-1.076,0.18c0-1.255,1.076-2.33,1.703-1.703C-229.833,400.749-230.103,401.466-230.64,402.003z
	 M-233.508,420.103c0.717,0.986,0.896,1.524,0.27,1.166c-0.538-0.359-1.166-0.09-1.434,0.448c-0.27,0.896-0.628,0.896-1.524,0.09
	c-0.985-0.897-0.985-1.345,0-2.51c0.627-0.716,1.165-1.254,1.255-1.165c0.09,0.18,0.717,1.076,1.433,1.972V420.103z
	 M-151.966,419.208c0,0.269-0.359,0.717-0.896,0.985c-0.448,0.27-0.897,0.09-0.897-0.358c0-0.538,0.449-0.986,0.897-0.986
	C-152.325,418.849-151.966,419.029-151.966,419.208z M-151.698,425.48c0.538,1.255,0,2.33-1.254,2.33
	c-0.269,0-0.807-0.807-1.075-1.792c-0.538-2.061,1.613-2.51,2.33-0.538H-151.698z M-151.966,432.738c0,0.896-0.896,1.344-2.42,1.344
	c-2.42-0.09-2.42-0.09-0.806-1.344C-152.952,431.036-151.966,431.036-151.966,432.738z M-152.862,439.458
	c-0.001,0.495-0.402,0.896-0.897,0.897c-0.448,0-0.896-0.448-0.896-0.896c0-0.538,0.448-0.896,0.896-0.896
	c0.538,0,0.897,0.358,0.897,0.896V439.458z M-219.171,397.255c0,0.538-1.165,1.524-2.598,2.24
	c-5.108,2.689-3.943,12.904,1.613,15.054c9.856,3.764,17.92,1.882,18.01-4.3c0-0.986,0.448-2.241,0.986-2.779
	c0.717-0.716,0.627-1.881-0.627-4.48c-1.434-2.778-2.33-3.584-5.287-4.211c-1.971-0.359-4.211-0.986-4.928-1.255
	C-214.78,396.538-219.171,396.359-219.171,397.255z M-179.655,397.255c-0.627,0.448-1.881,0.628-2.688,0.448
	c-2.42-0.627-3.853,1.076-3.942,4.66c0,1.971-0.18,2.778-0.359,1.882c-0.269-0.807-0.717-1.524-1.165-1.524
	c-0.358,0-0.985-0.985-1.254-2.24c-0.359-1.344-1.255-2.24-2.24-2.24c-2.957,0-6.631,6.183-5.466,9.409
	c0.358,0.985,0.269,3.136-0.09,4.838c-0.358,1.703-0.448,3.495-0.269,3.853c0.807,1.165-0.537,6.004-2.06,7.438
	c-0.717,0.716-2.24,1.344-3.406,1.344c-2.509,0-2.777,0.358-3.584,4.66c-0.627,3.135-0.448,3.315,4.122,6.45
	c2.688,1.793,4.39,3.316,3.943,3.316c-0.538,0.09-1.255,0.18-1.792,0.27c-1.703,0.178-3.764,1.88-4.84,3.942
	c-0.895,1.702-1.343,1.881-2.419,0.985c-0.985-0.806-1.075-1.254-0.268-1.702c0.716-0.538,0.716-0.807,0-1.255
	c-1.255-0.806-4.57,0.18-4.57,1.344c0,0.449-0.627,0.807-1.344,0.807c-0.717,0-1.344,0.448-1.344,0.986
	c0,0.537,0.537,0.806,1.254,0.537c1.703-0.627,8.244,1.613,6.9,2.42c-1.344,0.896-1.255,2.33,0.179,2.33
	c0.627,0,2.15,0.985,3.495,2.24c2.688,2.508,4.211,2.688,8.512,1.164c1.792-0.627,2.867-1.523,2.599-2.24
	c-0.628-1.523,0.806-1.523,2.06,0.09c0.897,0.985,1.524,0.985,4.391,0c1.792-0.627,4.122-1.165,5.108-1.255
	c3.315,0,5.824-2.509,5.824-5.824c0-1.703-0.448-3.315-0.985-3.674c-0.538-0.358-3.764-0.538-7.169-0.448
	c-3.763,0.09-6.183-0.18-6.183-0.806c0-0.448,0.538-0.896,1.165-0.896c1.523,0,4.212-2.868,4.212-4.48
	c0-0.718-1.076-2.33-2.33-3.675c-2.061-2.15-2.33-3.136-2.42-10.125c-0.179-6.81,0.359-9.588,1.345-6.72
	c0.448,1.254,6.63,3.494,9.856,3.494c1.255,0,2.599-0.537,2.778-1.165c0.358-0.717,0.538-0.537,0.538,0.359
	c0.09,2.24,2.777,1.613,5.734-1.255c2.24-2.15,2.689-3.405,2.689-6.63c0-3.674-0.359-4.391-3.853-7.527
	c-2.151-1.972-4.302-3.495-4.84-3.495c-0.537,0-1.791-0.269-2.777-0.448C-177.594,396.628-178.938,396.807-179.655,397.255z
	 M-209.315,443.044c0,0.448-0.447,0.896-0.985,0.896c-0.448,0-0.627-0.448-0.358-0.896c0.269-0.538,0.717-0.896,0.986-0.896
	c0.179,0,0.358,0.358,0.358,0.896H-209.315z M-246.947,417.863c0,0.897,0.627,1.972,1.433,2.24c1.075,0.449,1.255,0.09,0.717-1.433
	c-0.448-1.523-0.269-1.792,0.896-1.344c0.896,0.358,1.344,0.269,0.986-0.269c-0.986-1.613-4.032-0.985-4.032,0.807V417.863z
	 M-245.603,422.254c-1.613,1.076-1.344,2.689,0.448,3.137c1.075,0.268,1.792,0,1.792-0.538
	C-243.363,423.061-244.707,421.627-245.603,422.254z M-242.467,436.322c-0.896,1.076-0.896,1.345,0.269,1.345
	c0.716,0,1.792-0.628,2.419-1.345c0.896-1.075,0.896-1.344-0.269-1.344c-0.717,0-1.792,0.628-2.42,1.344H-242.467z
	 M-239.331,443.939c-0.269,0.448-0.09,0.896,0.358,0.896c0.538,0,0.986-0.448,0.986-0.896c0-0.538-0.18-0.896-0.358-0.896
	C-238.615,443.043-239.062,443.401-239.331,443.939z"/>
</svg>
