<?xml version="1.0" encoding="iso-8859-1"?>
<!-- Generator: Adobe Illustrator 19.0.0, SVG Export Plug-In . SVG Version: 6.00 Build 0)  -->
<svg version="1.2" baseProfile="tiny" id="Layer_1" xmlns="http://www.w3.org/2000/svg" xmlns:xlink="http://www.w3.org/1999/xlink"
	 x="0px" y="0px" viewBox="-247 380.89 100 80" xml:space="preserve">
<title>face_00032</title>
<path d="M-202.875,383.599c0.212,1.589,1.06,2.224,3.178,2.224c1.59,0.106,3.178,0.424,3.602,0.848
	c1.165,1.059,4.449,0.847,5.19-0.318c0.318-0.636,0.424-1.907,0-3.072c-0.422-1.591-1.693-1.907-6.46-1.907
	c-5.297,0-5.827,0.212-5.509,2.225H-202.875z M-175.968,384.234c-5.932,5.191-6.038,11.441-0.318,17.691
	c4.555,4.979,14.619,2.013,18.115-5.403C-152.77,385.082-166.222,375.76-175.968,384.234z M-229.252,386.035
	c-9.322,4.661-8.474,18.326,1.271,22.14c9.746,3.708,17.797-5.297,14.301-15.89C-216.01,384.975-222.154,382.539-229.252,386.035z
	 M-154.146,390.272c-1.377,2.649,0.318,6.674,2.754,6.674c5.085,0,6.038-7.733,1.06-8.263c-1.907-0.211-3.178,0.318-3.814,1.59
	V390.272z M-244.4,393.45c-3.602,1.377-3.39,5.933,0.318,7.945c1.8,0.954,2.542,0.742,4.13-1.27
	c2.331-2.861,2.331-3.603,0.213-5.721C-241.434,392.603-241.858,392.497-244.4,393.45z M-194.612,428.62
	c-1.59,3.072-1.271,5.19,0.847,6.25c4.661,2.436,8.58-2.86,4.873-6.568C-191.116,426.077-193.235,426.183-194.612,428.62z
	 M-205.841,430.315c-1.06,4.131,0.212,6.038,3.496,5.614c2.119-0.212,3.072-0.953,3.284-2.754
	C-198.32,427.985-204.57,425.336-205.841,430.315z M-202.663,446.205c-2.225,2.224-2.966,2.436-5.19,1.377
	c-3.496-1.59-5.51-0.53-6.357,3.39c-0.53,2.542-0.317,3.707,1.272,4.767c2.542,2.012,3.178,1.906,5.508-0.424
	c1.907-1.907,2.013-1.801,4.767,1.589c1.695,2.118,3.814,3.601,5.19,3.601c2.331,0,7.522-4.025,8.475-6.567
	c0.424-1.06,0.742-1.166,1.907-0.106c2.119,2.118,4.767,1.589,6.674-1.271c2.33-3.496,2.118-4.556-0.954-6.039
	c-2.118-0.953-3.283-0.847-5.296,0.212c-2.33,1.271-2.966,1.166-5.085-0.847C-195.036,442.815-199.379,442.921-202.663,446.205
	L-202.663,446.205z"/>
</svg>
