<?xml version="1.0" encoding="iso-8859-1"?>
<!-- Generator: Adobe Illustrator 19.0.0, SVG Export Plug-In . SVG Version: 6.00 Build 0)  -->
<svg version="1.2" baseProfile="tiny" id="Layer_1" xmlns="http://www.w3.org/2000/svg" xmlns:xlink="http://www.w3.org/1999/xlink"
	 x="0px" y="0px" viewBox="-247 369.89 100 103" xml:space="preserve">
<title>face_00036</title>
<path d="M-236.327,373.05c-4.89,3.144-5.006,5.24-0.233,2.678c3.376-1.862,3.958-1.047,3.027,5.24
	c-0.815,4.772-1.164,5.238-4.191,5.238c-4.89,0-6.985-1.048-6.17-3.26c0.466-1.048,1.28-2.328,1.98-2.794
	c0.698-0.465,0.814-1.164,0.348-1.63c-1.28-1.28-4.074,3.028-5.004,7.334c-3.26,16.764,13.736,26.66,30.15,17.463
	c6.054-3.376,9.198-9.663,8.848-17.463c-0.466-10.593-6.636-15.948-18.278-15.948c-4.074,0-6.868,0.815-10.477,3.143V373.05z
	 M-227.247,379.22c0,6.17-0.233,6.986-2.328,6.986s-2.328-0.815-2.328-6.985c0-6.17,0.233-6.985,2.328-6.985
	s2.328,0.815,2.328,6.985L-227.247,379.22z M-221.426,379.337c0,6.054-0.233,6.985-1.979,6.636c-1.746-0.35-2.095-1.63-2.212-7.101
	c-0.116-5.705,0.117-6.636,1.98-6.636C-221.775,372.236-221.426,373.167-221.426,379.337z M-234.232,390.98
	c0,1.862-0.93,2.212-5.82,2.212c-5.006,0-5.821-0.35-5.821-2.212c0-2.794,1.164-3.143,7.101-2.678
	C-235.279,388.652-234.232,389.233-234.232,390.98z M-221.426,390.863c0,1.514-0.815,2.329-2.328,2.329
	c-1.514,0-2.329-0.815-2.329-2.329c0-1.513,0.815-2.328,2.329-2.328C-222.241,388.535-221.426,389.35-221.426,390.863z
	 M-234.232,398.779c0,1.863-0.349,3.726-0.698,4.075c-1.397,1.397-8.615-3.842-8.615-6.286c0-0.582,2.096-1.048,4.657-1.048
	c4.307,0,4.656,0.233,4.656,3.26V398.779z M-227.829,400.176c0,3.26-0.465,4.075-2.328,4.075c-1.863,0-2.445-0.931-2.678-4.424
	c-0.349-4.074-0.116-4.424,2.329-4.074C-228.294,395.986-227.829,396.8-227.829,400.176z M-221.426,399.594
	c0,3.26-0.466,4.075-2.328,4.075c-1.863,0-2.329-0.815-2.329-4.075s0.466-4.074,2.329-4.074
	C-221.892,395.52-221.426,396.335-221.426,399.594z M-212.113,396.568c0,1.63-5.937,6.053-7.101,5.238
	c-1.048-0.582-1.397-4.307-0.466-5.238C-218.632,395.52-212.113,395.52-212.113,396.568z M-216.303,373.4
	c3.841,1.397,7.683,7.683,7.683,12.456c0,6.287-0.932,7.335-6.52,7.335c-4.307,0-5.122-0.35-5.122-2.329s0.815-2.328,5.239-2.328
	c2.91,0,5.238-0.582,5.238-1.164c0-0.699-2.328-1.164-5.238-1.164h-5.239v-6.986c0-3.842,0.233-6.985,0.466-6.985
	c0.35,0,1.862,0.466,3.492,1.164L-216.303,373.4z M-174.278,372.469c-4.192,2.211-10.012,8.381-11.642,12.107
	c-1.746,4.307-0.465,13.504,2.329,16.298c0.931,1.048,1.746,2.095,1.746,2.561s1.63,1.746,3.609,2.794
	c10.594,6.054,30.151-2.212,30.151-12.573c0-1.862-0.116-1.862-1.397-0.233c-0.815,1.048-3.492,2.329-5.82,2.678
	c-4.191,0.815-4.424,0.698-4.424-2.096c0-3.376,3.958-4.889,9.662-3.608c2.794,0.582,3.376,0.349,2.794-1.048
	c-0.35-1.048-1.048-3.609-1.397-5.82c-0.931-4.774-4.89-9.547-9.197-11.293C-162.054,370.723-171.25,370.839-174.278,372.469z
	 M-160.076,374.33c3.726-0.93,9.197,4.657,10.361,10.71l0.815,3.493l-8.382-0.233l-8.265-0.233v-7.916
	c0-7.567,0.116-7.916,2.328-6.752C-162.055,374.098-160.541,374.447-160.076,374.33z M-166.711,380.966
	c0,6.752-0.233,7.567-2.328,7.567c-2.096,0-2.329-0.815-2.329-7.567c0-6.752,0.233-7.567,2.329-7.567
	C-166.944,373.399-166.711,374.214-166.711,380.966z M-172.531,381.548c0,7.683-0.234,7.8-8.033,6.287
	c-3.027-0.699-3.61-1.165-2.91-3.26c0.698-2.678,7.915-10.012,9.778-10.012C-172.998,374.563-172.532,377.59-172.531,381.548
	L-172.531,381.548z M-175.559,390.396c1.048,0.349,1.863,1.746,1.863,3.026c0,1.98-0.582,2.212-5.472,1.397
	c-6.519-0.93-6.635-0.93-5.82-3.376C-184.29,389.697-179.051,389.115-175.559,390.396L-175.559,390.396z M-160.89,393.772
	c0,2.095-0.583,2.91-2.329,2.91s-2.328-0.815-2.328-2.91c0-2.096,0.582-2.91,2.328-2.91S-160.89,391.676-160.89,393.772z
	 M-176.374,397.381c2.678,0.698,4.657,5.937,2.91,7.683c-1.28,1.28-8.847-3.842-9.312-6.403
	C-183.242,396.566-181.03,396.1-176.374,397.381z M-166.711,402.619c0,2.561-0.582,3.376-2.328,3.376
	c-1.747,0-2.329-0.815-2.329-3.376c0-3.26,1.863-5.122,3.842-3.958C-167.06,398.894-166.711,400.641-166.711,402.619z
	 M-151.577,398.894c0,1.63-4.773,4.773-7.218,4.773c-1.164,0-2.095,0.466-2.095,1.164c0,0.582-1.048,1.164-2.329,1.164
	c-1.862,0-2.328-0.815-2.328-3.609c0-3.26,0.35-3.609,2.91-3.143c1.63,0.35,3.26,0.117,3.61-0.35c0.814-1.396,7.45-1.28,7.45,0
	V398.894z M-161.473,382.712c0.35,0.582,0.932,1.164,1.281,1.164c0.233,0,0.466-0.582,0.466-1.164c0-0.698-0.582-1.164-1.28-1.164
	C-161.589,381.548-161.822,382.014-161.473,382.712z M-208.853,427.765c-4.54,1.164-3.376,10.826,1.164,10.826
	c1.164,0,3.26-1.048,4.657-2.328l2.56-2.328l2.329,2.328c3.027,3.027,3.725,2.91,6.985-0.582c2.328-2.445,2.56-3.26,1.397-5.82
	c-1.28-2.911-3.958-3.61-7.684-2.213c-1.047,0.35-1.862,1.28-1.862,2.096c0,0.698-1.164,1.513-2.561,1.513
	c-1.863,0.233-2.212,0-1.048-0.698c1.28-0.815,1.048-1.28-0.815-2.329c-1.28-0.698-2.561-1.164-2.794-1.164
	C-206.758,427.183-207.805,427.416-208.853,427.765z M-191.158,430.442c0,0.582-0.466,1.164-1.164,1.164
	c-0.582,0-1.164-0.582-1.164-1.164c0-0.698,0.582-1.164,1.164-1.164C-191.624,429.278-191.158,429.744-191.158,430.442z
	 M-192.322,435.099c0,0.582-0.233,1.164-0.466,1.164c-0.35,0-0.931-0.582-1.28-1.164c-0.35-0.699-0.117-1.164,0.465-1.164
	c0.699,0,1.28,0.465,1.28,1.164H-192.322z M-205.942,435.914c-0.816,0.233-2.213,0.233-2.911,0c-0.815-0.35-0.233-0.582,1.397-0.582
	s2.212,0.232,1.513,0.582H-205.942z M-205.826,443.83c-1.98,1.513-1.63,1.63,4.307,1.048c5.704-0.699,6.752-0.466,9.779,2.095
	c3.725,3.26,3.143,5.588-1.28,5.588c-2.096,0-2.795,0.582-2.562,1.863c0.233,1.164-0.233,2.211-1.048,2.444
	c-0.815,0.35-1.047-0.349-0.698-1.862c0.582-2.329,0.116-2.445-6.52-2.445c-7.333,0-8.148-0.582-5.937-4.773
	c2.096-3.725,0.117-2.445-2.328,1.513c-3.26,5.472-3.143,14.436,0.35,18.743c2.91,3.725,9.778,5.588,14.784,4.191
	c2.328-0.699,1.98-0.815-2.095-0.931c-5.588-0.117-11.176-2.561-12.34-5.355c-1.048-2.678-0.932-2.91,1.047-2.91
	c0.932,0,1.747-0.583,1.747-1.165c0-0.698-0.932-1.164-1.98-0.931c-1.513,0.233-2.095-0.466-2.095-2.91
	c-0.116-1.863,0.35-3.61,0.815-3.842c0.466-0.35,0.931,0.815,0.931,2.444c0,2.212,0.582,2.91,2.096,2.678
	c1.28-0.233,1.862,0.35,1.63,1.63c-0.233,1.164,0.232,2.095,0.93,2.095c0.583,0,1.165-1.047,1.165-2.328
	c0-1.28,0.582-2.328,1.164-2.328c0.699,0,1.164,0.698,0.932,1.397c-0.466,1.862,0.232,2.095,5.937,2.095
	c3.841,0,4.656-0.466,5.122-2.677l0.466-2.562l0.232,2.562c0,1.513,0.699,2.677,1.28,2.677c0.7,0,1.165,0.931,1.165,1.98
	c0,3.259,1.397,0.698,2.445-4.541c1.164-6.52-0.582-11.409-5.239-14.668C-195.931,441.735-202.567,441.269-205.826,443.83
	L-205.826,443.83z M-206.292,454.773c0,0.698-0.466,1.513-1.164,1.862c-0.582,0.35-1.164-0.116-1.164-1.047
	c0-1.048,0.582-1.863,1.164-1.863C-206.758,453.725-206.292,454.191-206.292,454.773z M-202.8,455.471
	c0,0.932-0.465,1.747-1.164,1.747c-0.582,0-1.164-0.815-1.164-1.747c0-0.931,0.582-1.746,1.164-1.746
	C-203.265,453.725-202.8,454.54-202.8,455.471z M-199.307,455.471c0,0.932-0.466,1.747-1.164,1.747
	c-0.582,0-1.165-0.815-1.165-1.747c0-0.931,0.583-1.746,1.165-1.746C-199.773,453.725-199.307,454.54-199.307,455.471z
	 M-190.577,454.889c0.35,0.582-0.116,1.164-1.163,1.164c-1.048,0-1.514-0.582-1.164-1.164c0.349-0.698,0.93-1.164,1.164-1.164
	c0.233,0,0.815,0.466,1.164,1.164H-190.577z M-199.307,459.546c0,0.582-0.466,1.164-1.164,1.164c-0.582,0-1.165-0.582-1.165-1.164
	c0-0.699,0.583-1.164,1.165-1.164C-199.773,458.382-199.307,458.847-199.307,459.546z M-194.651,459.546
	c0,0.582-0.465,1.164-1.164,1.164c-0.582,0-1.164-0.582-1.164-1.164c0-0.699,0.582-1.164,1.164-1.164
	C-195.116,458.382-194.651,458.847-194.651,459.546z"/>
</svg>
