<?xml version="1.0" encoding="iso-8859-1"?>
<!-- Generator: Adobe Illustrator 19.0.0, SVG Export Plug-In . SVG Version: 6.00 Build 0)  -->
<svg version="1.2" baseProfile="tiny" id="Layer_1" xmlns="http://www.w3.org/2000/svg" xmlns:xlink="http://www.w3.org/1999/xlink"
	 x="0px" y="0px" viewBox="-247 369.89 100 102" xml:space="preserve">
<title>face_00086</title>
<path d="M-181.42,370.53c-0.222,0.591-0.296,7.988-0.222,16.494l0.222,15.532l5.178,0.074c2.884,0,5.62,0.074,6.139,0.148
	c0.961,0.148,1.183,4.438,0.443,10.06l-0.517,3.401h-18.27v-34.393l-6.804,0.37l-6.879,0.37l0.222,17.085l0.296,17.086l-3.329,0.518
	c-2.588,0.37-19.009-0.074-19.452-0.592c-0.074,0-0.37-3.106-0.592-6.804l-0.518-6.731l7.397-0.518l7.47-0.592v-14.645
	c0-8.062-0.296-14.867-0.666-15.088c-0.295-0.222-2.366,0.295-4.585,1.109c-3.625,1.405-11.021,4.068-24.705,9.024l-5.177,1.849
	l-0.444,16.568c-0.813,28.772-0.961,45.34-0.37,46.302c0.296,0.517,4.438,2.884,9.172,5.251c4.734,2.441,15.015,7.545,22.707,11.465
	c7.766,3.92,14.423,7.1,14.867,7.1c0.518,0,0.887-2.293,0.961-6.435c0-3.624,0.296-9.393,0.518-12.87
	c0.444-5.99,0.37-6.508-1.035-7.248c-0.814-0.444-2.145-0.814-2.959-0.814c-2.663,0-8.802-2.219-10.65-3.846
	c-2.885-2.589-4.439-5.473-4.439-8.284c0-5.473,2.367-6.805,13.832-7.544c15.236-0.962,27.81,4.438,27.736,11.982
	c-0.074,4.142-2.958,5.991-12.204,7.692c-2.81,0.592-5.4,1.184-5.695,1.406c-0.814,0.74-1.48,25.961-0.666,25.961
	c0.444,0,2.663-0.887,5.03-1.923c2.367-1.035,8.432-3.55,13.535-5.621c5.104-1.997,10.725-4.364,12.574-5.178
	c7.988-3.624,13.536-5.621,14.645-5.251c1.11,0.296,1.11,0.222,0.148-0.444c-0.961-0.666-0.961-0.814,0.222-0.814
	c1.184,0,1.258-1.923,1.258-29.881v-29.882l-11.614-7.692c-12.795-8.507-19.969-13.24-21.449-14.127
	C-180.68,369.79-181.199,369.938-181.42,370.53z"/>
</svg>
