<?xml version="1.0" encoding="iso-8859-1"?>
<!-- Generator: Adobe Illustrator 19.0.0, SVG Export Plug-In . SVG Version: 6.00 Build 0)  -->
<svg version="1.2" baseProfile="tiny" id="Layer_1" xmlns="http://www.w3.org/2000/svg" xmlns:xlink="http://www.w3.org/1999/xlink"
	 x="0px" y="0px" viewBox="-247 377.89 100 87" xml:space="preserve">
<title>face_00034</title>
<path d="M-246.479,378.223c-0.227,0.303-0.378,19.243-0.378,42.121l-0.076,41.516l2.424,0.984c5.227,2.197,5.152,2.349,5.379-11.287
	c0.151-6.819,0.379-25.455,0.454-41.516l0.152-29.166l-1.667-1.137C-242.31,378.375-246.024,377.466-246.479,378.223z
	 M-216.327,380.27c-0.606,0.227-0.985,1.666-0.985,3.333c0,2.651-0.227,2.955-1.894,2.955c-1.06,0-1.894,0.303-1.894,0.757
	c0,0.379,0.834,0.758,1.894,0.758c1.743,0,1.894,0.303,1.894,3.03v3.106l-4.318-0.227l-4.394-0.228l-0.227-6.287
	c-0.152-4.773-0.455-6.364-1.364-6.743c-2.803-1.06-3.106,1.44-3.56,30c-0.304,15.227-0.758,33.41-0.985,40.303l-0.53,12.576
	l1.666,0.455c0.985,0.227,2.197,0.227,2.727,0.075c1.515-0.606,1.894-7.803,1.894-34.09v-24.548h4.091
	c2.273,0,4.318,0.227,4.47,0.53c0.227,0.379,0.076,6.894-0.227,14.621c-0.38,7.728-0.834,20.606-1.137,28.637
	c-0.454,13.863-0.379,14.621,0.91,14.394c1.211-0.228,1.439-1.288,1.742-8.56l0.378-8.334l3.637-0.227l3.56-0.228v5.152
	c0,6.136,0.682,10.833,1.591,10.833c0.38,0,0.682-2.045,0.682-4.621v-4.546l3.258,0.228l3.182,0.227l0.454,4.167
	c0.455,4.697,0.91,4.318,0.682-0.53c-0.076-2.122,0.227-3.258,0.758-3.258c0.757,0,0.757-0.228,0.075-1.06
	c-0.606-0.683-0.757-2.122-0.379-3.789c0.455-2.651,0.607-2.727,3.788-2.727h3.334v3.333c0,2.88-0.228,3.41-1.667,3.712
	l-1.742,0.303l1.742,0.152c0.91,0,1.742,0.606,1.742,1.212c0.076,0.606,0.228,1.818,0.303,2.652
	c0.076,0.833,0.228,1.894,0.303,2.348c0,0.379,0.455,0.53,0.91,0.227c0.53-0.303,0.757-2.878,0.53-7.045l-0.227-6.515l4.015-0.227
	l3.94-0.228v7.197c0,5.985,0.226,7.273,1.136,7.273c0.606,0,1.136-0.076,1.136-0.227c0-0.076,0.379-8.712,0.757-19.091
	c0.38-10.455,0.91-22.576,1.213-27.121l0.53-8.107h6.819l-0.456,11.518c-0.38,9.015-0.758,36.515-0.53,41.97
	c0,1.136,3.787,2.12,4.696,1.211c0.379-0.378,0.682-9.318,0.606-20.303c0-10.833,0.303-24.545,0.682-30.606
	c1.668-25.152,1.819-28.789,0.683-28.864c-3.106-0.303-4.394,0.757-4.394,3.636c0,1.591-0.379,1.743-3.788,1.743
	c-3.712,0-3.788-0.076-3.788-2.273c0-1.743-0.303-2.273-1.515-2.273c-1.44,0-1.515,0.53-1.59,10.758c0,10.606-0.228,15-0.986,24.848
	c-0.227,2.727-0.454,9.167-0.53,14.394c-0.076,5.227-0.379,10.076-0.833,10.833c-0.53,1.061-1.44,1.288-4.243,1.137l-3.56-0.228
	l-0.076-3.787c-0.076-2.122-0.227-5.834-0.303-8.334c-0.152-4.09,0.076-12.348,1.136-40.682c0.227-5.303,0.076-9.772-0.303-10
	c-0.379-0.227-0.909,4.697-1.212,11.516c-0.227,6.515-0.682,16.818-0.985,22.878l-0.53,10.91l-2.576,1.742
	c-1.44,0.985-2.879,1.742-3.182,1.742c-0.303,0-0.454-10.681-0.378-23.712c0.303-22.576,0.227-22.879-0.303-6.59
	c-0.304,9.393-0.607,20-0.682,23.636c0,3.712-0.38,6.666-0.682,6.666c-0.379,0-2.121-1.212-3.864-2.803l-3.257-2.727l0.227-21.818
	c0.227-20.303-0.076-25.606-1.212-20.985c-0.303,0.985-0.53,15.227-0.606,31.59c-0.152,22.652-0.379,29.85-1.06,30.228
	c-0.531,0.379-2.198,0.455-3.637,0.303c-2.273-0.303-2.652-0.606-2.652-2.348c0-1.06,0.379-15,0.834-30.985
	c0.53-17.197,0.606-29.243,0.227-29.621C-215.115,380.192-215.873,380.117-216.327,380.27L-216.327,380.27z M-199.737,435.951
	c-0.075,2.349,0.077,3.637,0.455,3.03c0.758-1.136,5.985-1.439,7.046-0.378c0.454,0.455,0.682,1.742,0.53,2.955
	c-0.227,1.97-0.53,2.196-3.03,2.272c-3.258,0.076-4.091-0.303-4.621-2.348c-0.303-1.212-0.38-1.137-0.455,0.454
	c-0.076,1.818-0.379,1.97-3.485,1.894c-3.712,0-4.394-0.757-3.636-4.242c0.303-1.894,0.757-2.197,2.197-1.97
	c0.985,0.227,1.97,0,2.197-0.379c0.303-0.378-0.606-0.681-1.818-0.681h-2.349v-10l3.637,2.727c3.56,2.651,3.56,2.651,3.333,6.666
	H-199.737z M-191.706,432.164l-0.227,4.015l-3.182,0.227c-3.106,0.227-3.258,0.152-3.258-1.97c0-1.666,0.682-2.651,2.804-4.166
	c1.59-1.137,3.106-2.046,3.484-2.046C-191.782,428.224-191.555,430.042-191.706,432.164L-191.706,432.164z M-199.888,449.588v3.257
	l-3.788-0.227c-3.712-0.303-3.787-0.379-3.787-2.727c0-3.182,0.378-3.485,4.318-3.485h3.257
	C-199.888,446.406-199.888,449.588-199.888,449.588z M-168.978,391.254l-0.228,3.258l-3.56,0.227l-3.637,0.228v-6.894h7.653
	C-168.75,388.073-168.978,391.254-168.978,391.254z M-218.525,396.86c0.833,0.303,1.212,1.439,1.212,3.787v3.334h-9.09v-3.258
	c0-1.818,0.227-3.56,0.53-3.788C-225.266,396.253-220.115,396.253-218.525,396.86L-218.525,396.86z M-170.646,397.087
	c0.909,0.076,1.06,0.833,0.909,3.636l-0.227,3.637l-3.561,0.227l-3.636,0.227v-3.03
	C-177.161,396.784-176.934,396.557-170.646,397.087z M-154.812,380.95c-1.288,0.985-1.44,2.122-1.59,10.38
	c-0.152,5.075-0.38,13.181-0.607,17.954c-0.227,4.773-0.454,18.03-0.53,29.47c-0.076,16.666,0.076,20.833,0.909,21.363
	c1.59,0.985,6.44,0.833,7.273-0.303c0.53-0.53,0.984-15.151,1.288-37.273c0.303-20,0.681-37.045,0.909-37.878
	C-146.327,381.329-151.782,378.753-154.812,380.95z M-160.797,417.39c-0.833,0.909-0.454,2.273,0.682,2.273
	c0.606,0,1.136-0.455,1.136-0.985C-158.979,417.541-160.115,416.708-160.797,417.39z M-237.767,418.83
	c0,1.287,1.667,1.06,2.122-0.304c0.151-0.53-0.228-0.909-0.91-0.909c-0.681,0-1.211,0.53-1.211,1.212L-237.767,418.83z"/>
</svg>
