<?xml version="1.0" encoding="iso-8859-1"?>
<!-- Generator: Adobe Illustrator 19.0.0, SVG Export Plug-In . SVG Version: 6.00 Build 0)  -->
<svg version="1.2" baseProfile="tiny" id="Layer_1" xmlns="http://www.w3.org/2000/svg" xmlns:xlink="http://www.w3.org/1999/xlink"
	 x="0px" y="0px" viewBox="-247 356.89 100 129" xml:space="preserve">
<title>face_00116</title>
<path d="M-226.754,362.672l-0.21,5.796l-9.427,0.56c-5.168,0.278-9.707,0.907-10.126,1.256c-0.489,0.559,2.374,0.629,9.637,0.28
	l10.265-0.49v3.562c0,4.12,1.187,3.701-11.871,3.84l-8.031,0.07v3.492l8.38,0.14c10.195,0.21,11.522,0.489,11.522,2.304
	c0,1.607-1.536,1.816-10.125,1.397c-2.654-0.14-6.006-0.21-7.333-0.28l-2.444-0.07l-0.21,6.495l-0.208,6.566l7.542-0.14
	c13.268-0.21,13.478-0.21,13.478,1.466c0,1.397-0.28,1.467-10.266,1.188c-10.196-0.211-10.336-0.211-10.545,1.325
	c-0.28,1.816,0.838,2.165,6.843,2.445l3.84,0.209l-0.139,3.142c-0.07,1.746-0.14,3.702-0.14,4.33
	c-0.07,1.048-0.768,1.257-4.888,1.257c-2.723,0-5.097,0.28-5.307,0.698c-0.28,0.42,3.561,0.769,10.265,0.838l10.685,0.21l0.21,9.637
	l0.209,9.637l-10.196-0.14c-5.586-0.07-10.335,0.07-10.614,0.28c-0.49,0.488,0.768,0.558,13.058,0.767l7.333,0.07l0.349,4.54
	c0.419,4.608,0,5.656-2.095,5.516c-0.559-0.07-5.028-0.07-9.916,0c-8.45,0.07-8.939,0.14-8.939,1.467
	c0,1.326,0.489,1.396,10.475,1.396c5.796,0,10.475,0.07,10.545,0.14c0,0.14,0.21,4.33,0.419,9.357l0.349,9.218l-2.305,0.21
	c-1.326,0.14-6.075,0.28-10.544,0.28h-8.241l0.07,7.68c0,4.19,0.279,8.31,0.628,9.079c0.558,1.327,0.628,1.327,0.628-0.14
	c0.07-1.466,0.35-1.536,9.009-1.746c4.888-0.14,9.287-0.07,9.776,0.07c0.42,0.14,0.838,0.978,0.838,1.886
	c0,1.047,0.42,1.676,1.048,1.676c0.698,0,1.047-0.699,1.047-2.095v-2.095h4.47c4.399,0,4.539,0.07,4.748,1.885
	c0.14,1.537,0.629,2.025,2.095,2.165c1.676,0.21,1.886-0.07,2.095-2.095c0.14-1.746,0.559-2.304,1.606-2.304
	c1.048,0,1.467,0.558,1.606,2.234l0.21,2.305h12.57l-0.21-2.095c-0.14-1.118,0.14-2.095,0.489-2.235
	c0.419-0.14,0.768,0.838,0.908,2.095c0.21,1.955,0.489,2.305,1.746,2.095c1.187-0.14,1.536-0.698,1.536-2.304v-2.095h4.888
	c4.819,0,4.888,0,5.238,2.025c0.488,2.933,1.955,3.072,2.234,0.28l0.21-2.305l10.684-0.21c8.03-0.14,10.615,0,10.615,0.698
	c0,0.629,0.21,0.629,0.838,0c0.488-0.488,2.164-0.838,3.84-0.838s3.003-0.349,3.003-0.698c0-0.419-1.536-0.698-3.422-0.698h-3.491
	l-0.28-2.654l-0.279-2.584l-0.07,2.584l-0.14,2.654h-21.645v-8.38h9.634c5.238,0,9.917,0.28,10.336,0.559
	c0.488,0.279,2.723,0.349,5.097,0.279c4.19-0.28,4.26-0.28,4.26-2.305c0-2.025-0.07-2.025-3.84-2.025h-3.841v-18.156h3.91
	c3.771,0,3.841,0,3.632-1.955c-0.21-1.746-0.49-1.886-3.771-2.095l-3.632-0.21l-0.349-2.933c-0.838-5.866-0.559-6.424,3.352-6.634
	c5.307-0.35,5.587-1.536,0.42-1.536h-4.47l0.419-6.844c0.28-3.7,0.489-8.1,0.489-9.776v-2.933h3.491c1.956,0,3.492-0.35,3.492-0.699
	c0-0.419-1.536-0.698-3.492-0.698h-3.491v-9.776h3.491c3.422,0,3.492-0.07,3.492-2.095c0-2.026-0.07-2.095-3.492-2.095
	c-2.584,0-3.491-0.28-3.491-0.978c0-0.768,0.977-1.117,3.352-1.257l3.282-0.21l0.21-5.865c0.139-3.632-0.07-6.076-0.56-6.355
	c-0.418-0.21-7.332-0.28-15.363-0.14c-14.315,0.28-14.664,0.28-14.664-1.047s0.628-1.467,8.24-1.886
	c4.47-0.21,11.103-0.419,14.734-0.349c6.635,0.07,8.31-0.489,7.542-2.444c-0.488-1.257,0.28-1.187-18.645-1.327l-12.22-0.14v-6.983
	l7.332-0.14c4.05-0.07,9.637,0.14,12.43,0.42c2.793,0.279,5.237,0.349,5.447,0.14c0.21-0.21,1.466-0.28,2.793-0.14
	c1.327,0.07,2.375-0.14,2.375-0.56c0-0.418-1.257-0.767-2.794-0.767h-2.793l-0.14-4.749l-0.14-4.679l-0.209,4.33
	c-0.349,5.237-0.21,5.167-10.335,4.818c-3.84-0.14-8.66-0.349-10.615-0.349l-3.7-0.07v-4.888c0-2.793-0.28-4.888-0.699-4.888
	s-0.698,2.095-0.698,4.958v4.888l-3.632-0.21l-3.7-0.209l-0.21-4.958c-0.21-4.958-0.21-5.028-2.235-5.307
	c-1.187-0.21-2.235-0.14-2.444,0c-0.21,0.21-0.35,2.653-0.35,5.517c0,4.539-0.139,5.097-1.326,5.097
	c-1.746,0-2.025-0.977-1.606-5.377c0.489-5.167-0.21-5.796-6.564-5.796h-5.167l-0.07,2.235c0,1.257,0,3.77,0.07,5.586
	c0.07,3.143,0,3.352-1.676,3.352c-1.816,0-1.816-0.07-1.816-5.586v-5.587h-1.955c-1.117,0-2.165,0.14-2.304,0.28
	c-0.14,0.209-0.14,2.583,0.07,5.307c0.209,2.723,0.14,5.167-0.14,5.447c-0.28,0.279-2.514,0.349-5.028,0.279l-4.61-0.28v-5.515
	c0-7.332-1.256-7.123-1.535,0.21V362.672z M-215.092,373.706v3.84l-4.47,0.21c-3.142,0.14-4.678-0.07-5.028-0.698
	c-0.768-1.117-0.838-6.425-0.14-7.123c0.28-0.28,2.585-0.419,5.099-0.28l4.539,0.21v3.84V373.706z M-207.9,370.354
	c0.49,0.489,0.838,2.165,0.838,3.84c0,2.864-0.07,3.004-2.095,3.004s-2.095-0.07-2.095-3.352c0-1.886,0.21-3.632,0.49-3.841
	C-210.064,369.237-208.807,369.446-207.9,370.354z M-193.095,373.427c0,3.282-0.21,3.84-1.187,3.63
	c-0.978-0.139-1.327-1.047-1.467-3.91c-0.21-3.282-0.07-3.631,1.187-3.631c1.327,0,1.467,0.419,1.467,3.91V373.427z
	 M-180.525,373.357v3.84h-7.681v-7.681h7.68v3.84L-180.525,373.357z M-215.93,382.016c0.698,0.07,1.187,0.628,1.187,1.466
	c0,1.257-0.49,1.397-4.888,1.397c-4.33,0-4.889-0.14-4.889-1.327C-224.52,381.667-223.542,381.527-215.93,382.016z
	 M-208.388,382.086c1.815,0.977,1.675,2.514-0.21,3.003c-1.816,0.488-2.654-0.49-2.165-2.375
	C-210.343,381.178-210.204,381.178-208.388,382.086z M-180.037,382.505c0.56,1.536-0.628,2.095-4.678,2.304
	c-3.352,0.14-3.492,0.07-3.492-1.676c0-1.676,0.21-1.746,3.84-1.746C-181.433,381.387-180.386,381.667-180.037,382.505z
	 M-193.095,383.482c0,0.769-0.489,1.397-1.048,1.397c-0.558,0-1.047-0.628-1.047-1.397c0-0.768,0.489-1.396,1.047-1.396
	C-193.584,382.086-193.095,382.714-193.095,383.482z M-155.385,397.449c0,1.327-0.49,1.397-11.174,1.397
	c-6.983,0-11.173-0.28-11.173-0.699s0.838-0.768,1.955-0.768c1.956-0.14,16.132-0.978,18.855-1.187
	c1.117-0.14,1.536,0.21,1.536,1.257H-155.385z M-214.743,398.776c0,1.187-0.629,1.396-5.098,1.606
	c-4.958,0.21-5.098,0.14-4.818-1.397c0.279-1.396,0.698-1.536,5.097-1.536C-215.302,397.449-214.743,397.589-214.743,398.776z
	 M-207.062,398.846c0,1.047-0.488,1.396-1.745,1.396c-1.257,0-1.746-0.349-1.746-1.396c0-1.048,0.489-1.397,1.746-1.397
	C-207.55,397.449-207.062,397.799-207.062,398.846z M-193.444,399.544c-0.35,0.559-0.768,0.559-1.187,0.14
	c-0.42-0.42-0.49-1.118-0.21-1.537c0.35-0.558,0.768-0.558,1.187-0.14C-193.234,398.427-193.165,399.125-193.444,399.544z
	 M-179.827,398.008c0,0.768-3.352,1.536-6.355,1.536c-2.025,0-3.352-1.048-1.885-1.606
	C-186.252,397.379-179.827,397.379-179.827,398.008z M-172.355,403.175c-0.21,0.489-0.35,0.14-0.35-0.838
	c0-0.977,0.14-1.327,0.35-0.908C-172.215,401.919-172.215,402.756-172.355,403.175z M-179.618,403.664c0.28,0,0.49,2.025,0.35,4.4
	l-0.21,4.399l-4.679,0.21l-4.748,0.209v-4.47c0-2.444,0.14-4.608,0.349-4.818C-188.276,403.314-181.294,403.384-179.618,403.664z
	 M-155.386,407.924v4.888h-12.22l-0.14-4.888l-0.07-4.888h12.43V407.924z M-215.58,404.362c0.628,0.35,0.838,1.746,0.698,4.33
	l-0.21,3.77l-3.98,0.14c-2.234,0.07-4.26-0.279-4.47-0.628c-0.628-1.047-1.116-6.215-0.697-7.332
	C-223.82,403.594-217.047,403.385-215.58,404.362z M-207.06,408.692c0,3.142-0.21,4.12-0.978,4.12c-1.467,0-1.886-0.908-2.025-4.33
	c-0.07-3.491,0.558-4.818,1.955-4.26c0.768,0.28,1.047,1.467,1.047,4.47H-207.06z M-193.513,406.597
	c-0.21,5.726-0.28,6.285-0.978,5.866c-1.047-0.698-0.908-8.939,0.21-8.52C-193.793,404.083-193.513,405.27-193.513,406.597z
	 M-214.393,423.985v9.428l-3.701,0.21c-2.095,0.139-4.19-0.14-4.679-0.56c-0.628-0.558-0.908-3.212-0.908-9.846l-0.07-9.078
	l4.68,0.21l4.678,0.209V423.985z M-206.781,417.142c0.21,1.676,0.419,6.075,0.349,9.846c0,6.704,0,6.844-1.536,6.634
	c-1.467-0.21-1.537-0.489-1.746-9.846c-0.14-9.009-0.07-9.567,1.187-9.567C-207.48,414.209-207.13,414.837-206.781,417.142z
	 M-194.002,423.985c-0.14,11.592-1.397,13.059-1.746,2.025c-0.21-7.751,0.21-11.801,1.257-11.801
	C-194.141,414.209-193.932,418.329-194.002,423.985z M-179.128,424.335v10.195l-5.028-0.21l-5.097-0.21l-0.07-6.633
	c0-3.631,0.07-8.1,0.28-9.986l0.278-3.282h9.637V424.335L-179.128,424.335z M-156.013,423.985c-0.07,5.168-0.28,9.497-0.42,9.707
	c-0.209,0.14-4.957,0.28-10.614,0.35l-10.335,0.069l-0.21-9.986l-0.209-9.986l10.964,0.21l10.894,0.209L-156.013,423.985z
	 M-216.35,435.158h2.374l-0.21,4.68l-0.21,4.748h-8.377l-0.21-5.168l-0.209-5.167l2.235,0.488c1.187,0.21,3.282,0.42,4.609,0.42
	L-216.35,435.158z M-206.364,436.346c0,0.698-0.21,2.933-0.42,4.888c-0.418,3.003-0.698,3.701-1.745,3.701
	c-1.187,0-1.327-0.559-1.327-4.888c0-4.749,0.07-4.889,1.746-4.889C-206.923,435.158-206.364,435.508-206.364,436.346z
	 M-193.794,440.046c0,2.235-0.28,4.33-0.699,4.54c-0.419,0.28-0.698-1.397-0.698-4.54c0-3.142,0.28-4.818,0.698-4.538
	c0.42,0.21,0.698,2.304,0.698,4.539L-193.794,440.046z M-156.085,440.046v4.889h-10.474c-7.89,0-10.475-0.21-10.545-0.908
	c-0.07-0.419-0.14-2.444-0.21-4.33l-0.069-3.491l5.238-0.35c2.863-0.209,7.681-0.418,10.684-0.488l5.377-0.21v4.889
	L-156.085,440.046z M-179.13,440.396v4.539h-4.818c-4.4,0-4.819-0.14-5.238-1.606c-0.558-2.095-0.558-6.425,0.07-6.983
	c0.21-0.28,2.584-0.49,5.238-0.49h4.748V440.396z M-215.582,448.356c0.838,0.07,1.536,0.35,1.536,0.769s-1.955,0.698-4.539,0.698
	c-4.12,0-5.237-0.419-4.12-1.606c0.21-0.21,1.606-0.28,3.003-0.14c1.396,0.14,3.212,0.28,4.12,0.28V448.356z M-207.062,449.125
	c0,0.35-0.63,0.698-1.397,0.698c-0.768,0-1.397-0.349-1.397-0.698c0-0.42,0.629-0.698,1.397-0.698
	C-207.691,448.427-207.063,448.706-207.062,449.125L-207.062,449.125z M-178.432,449.823c0,0.42-2.234,0.699-5.237,0.699
	c-3.003,0-5.237-0.28-5.237-0.699s2.234-0.698,5.237-0.698c3.003,0,5.238,0.28,5.238,0.698H-178.432z M-156.085,449.613
	c0,0.35,0.21,4.4,0.419,9.079l0.419,8.59h-21.088l-0.07-3.003c0-1.607-0.14-5.657-0.35-9.079l-0.349-6.075h10.475
	c5.796,0,10.545,0.21,10.545,0.489L-156.085,449.613z M-197.007,451.988c-0.21,0.35-0.698,0.489-1.047,0.21
	c-0.35-0.21-0.49-0.699-0.21-1.048c0.21-0.35,0.699-0.489,1.048-0.21c0.349,0.21,0.489,0.699,0.21,1.048H-197.007z
	 M-212.998,457.295c-0.629,2.724-1.956,3.91-1.467,1.467c0.14-1.048,0.489-2.235,0.768-2.654
	C-212.859,454.781-212.51,455.41-212.998,457.295z M-216.141,459.53c0,1.466-1.117,0.14-1.676-2.025
	c-0.489-1.676-0.419-1.676,0.559-0.42C-216.63,457.854-216.141,458.971-216.141,459.53z M-193.096,465.605
	c0,0.559-0.489,0.978-1.048,0.978c-1.047,0-1.466-1.466-0.628-2.304C-194.074,463.65-193.096,464.419-193.096,465.605z
	 M-213.626,465.256c0.209,0.42,0.139,0.978-0.28,1.257c-1.048,0.629-8.52,0.07-8.52-0.768c0-0.35,0.21-0.489,0.559-0.35
	c0.28,0.21,1.746,0.07,3.282-0.209C-214.535,464.418-214.185,464.418-213.626,465.256L-213.626,465.256z M-207.063,465.466
	c0,1.047-1.676,1.955-2.374,1.327c-0.908-0.978-0.35-2.305,0.978-2.305C-207.691,464.488-207.063,464.907-207.063,465.466z
	 M-178.501,465.606c0.07,0.07,0,0.488-0.21,0.907c-0.279,0.35-2.653,0.699-5.307,0.699c-4.47,0-4.888-0.14-4.888-1.397
	c0-1.327,0.28-1.397,5.098-0.908c2.723,0.21,5.167,0.559,5.307,0.698V465.606z M-181.015,470.773h2.584v8.38h-10.474v-4.12
	c0-4.4,0.628-5.168,3.84-4.54C-184.296,470.633-182.481,470.773-181.015,470.773z M-207.063,472.309c0,0.908,0.21,2.794,0.49,4.26
	c0.418,2.584,0.348,2.724-1.258,2.444c-1.466-0.21-1.676-0.628-1.885-3.282c-0.28-3.631,0.14-4.958,1.606-4.958
	C-207.482,470.773-207.063,471.401-207.063,472.309z M-192.538,475.172c0.14,3.213,0,3.98-0.907,3.98
	c-0.838,0-1.048-0.907-1.048-4.259c0-5.656,1.676-5.377,1.955,0.28V475.172z M-224.66,475.801l0.21,4.05h-20.182l0.14-3.7
	l0.069-3.632l5.237-0.42c2.864-0.209,7.263-0.348,9.777-0.348l4.54,0.07L-224.66,475.801L-224.66,475.801z M-213.278,473.008
	c0.14,2.304,0,4.958-0.349,5.796c-0.14,0.349-2.165,0.838-4.539,0.908l-4.26,0.209v-8.45h4.54
	C-213.696,471.471-213.348,471.611-213.278,473.008z"/>
</svg>
