<?xml version="1.0" encoding="iso-8859-1"?>
<!-- Generator: Adobe Illustrator 19.0.0, SVG Export Plug-In . SVG Version: 6.00 Build 0)  -->
<svg version="1.2" baseProfile="tiny" id="Layer_1" xmlns="http://www.w3.org/2000/svg" xmlns:xlink="http://www.w3.org/1999/xlink"
	 x="0px" y="0px" viewBox="-247 372.89 100 96" xml:space="preserve">
<title>face_00092</title>
<path d="M-246.871,375.733c-0.184,1.65-0.092,10,0.275,18.623c1.284,30.826,1.56,71.101,0.459,71.101
	c-0.734,0-0.734,0.276,0.091,1.101c0.826,0.826,6.147,0.826,22.753,0c11.835-0.642,22.018-1.284,22.477-1.56
	c1.376-0.917,1.1-22.476-0.275-22.568c-0.643,0-6.973-0.092-14.037-0.092l-12.844-0.092l13.303-0.642
	c7.339-0.367,17.43-0.642,22.477-0.642c7.247,0.092,7.798,0.183,2.568,0.367l-6.605,0.367l-0.55,4.954
	c-0.368,2.66-0.276,8.349,0.091,12.569l0.826,7.614l3.67,0.643c2.018,0.367,12.844,0.642,24.128,0.55l20.367-0.183v-26.239
	c0.092-14.404,0.184-35.321,0.367-46.514l0.275-20.367l-29.45-0.091c-16.146,0-37.522-0.46-47.339-0.918
	c-25.136-1.192-22.66-1.376-23.026,2.019H-246.871z M-173.57,398.21c-0.091,8.715-0.275,10.275-0.642,6.238l-0.55-5.504h-18.164
	v10.55c0,10.092,0.091,10.55,1.926,10.826c1.101,0.183,2.019,0.917,2.019,1.651c0,0.826-0.643,1.285-1.56,1.101
	c-1.376-0.183-1.743,0.459-1.927,3.67l-0.275,3.853h13.763c12.66,0,16.33,0.642,14.403,2.477c-0.917,0.917-62.293,2.202-63.21,1.284
	c-0.46-0.458,2.568-1.009,7.339-1.376c24.128-1.835,22.477-1.56,21.926-3.67c-0.275-1.009-0.55-2.843-0.55-3.944
	c0-1.377-0.642-2.11-2.018-2.294c-3.028-0.367-2.661-2.936,0.458-3.303c2.202-0.275,2.57-0.642,2.11-2.293
	c-0.275-1.101-0.55-5.872-0.55-10.55v-8.441h-7.708c-5.045,0-7.981,0.367-8.44,1.1c-0.367,0.643-0.55,3.028-0.459,5.414
	c0.092,2.385-0.183,4.587-0.642,4.862c-1.468,0.917-2.202-7.248-1.376-15.321c0.642-7.248,0.734-7.34,1.193-2.936l0.458,4.587
	h41.286l-0.275-3.853c-0.276-3.578,0.183-5.78,1.284-5.78c0.183,0,0.275,5.23,0.183,11.652L-173.57,398.21z M-189.44,376.008
	c21.193,0.275,38.99,0.459,39.541,0.459c1.01,0,0.918,74.403-0.183,84.128l-0.459,4.679l-7.523,0.642
	c-8.532,0.734-35.046,0.275-35.963-0.55c-0.642-0.734-1.01-20.734-0.367-21.377c0.275-0.275,7.523-0.733,16.055-1.009
	c8.532-0.183,15.871-0.458,16.33-0.458c0.826,0,0.092-11.744-0.826-12.661c-0.734-0.734-3.67-0.917-16.238-1.01
	c-11.193-0.09-11.743-0.183-11.743-1.926c0-1.192,0.917-2.202,2.293-2.752c1.652-0.642,2.294-1.56,2.294-3.211
	c0-2.202-0.826-2.752-3.395-2.385c-0.917,0.091-1.192-2.11-1.192-8.44v-8.625l3.486-0.642c1.835-0.275,4.954-0.55,6.789-0.55
	c3.303,0,3.394,0.091,3.945,4.312c0.917,6.88,0.734,6.697,7.248,6.697c5.78,0,9.174-1.376,4.954-2.018
	c-2.019-0.276-2.11-0.643-2.202-8.991c-0.092-4.77,0.092-7.064,0.183-5.046c1.01,11.376,1.468,13.303,2.844,13.303
	c1.01,0,1.285-0.55,0.826-2.11c-0.275-1.101-0.826-6.423-1.1-11.927c-0.368-5.413-0.918-9.817-1.193-9.908
	c-0.276,0-2.019-0.184-3.854-0.46c-1.834-0.183-4.495,0-5.78,0.551c-2.11,0.734-2.385,1.377-2.385,5.505v4.587h-18.257
	c-17.247,0-18.348-0.092-18.899-1.743c-0.275-1.01-0.275-2.844,0-4.037c0.459-1.743,0.184-2.568-1.1-3.21
	c-2.11-1.102-10.643-0.368-11.469,1.008c-0.367,0.643-0.733,6.606-0.733,13.211v12.202h14.403l-0.092-5.78l-0.091-5.688l6.238-0.275
	l6.239-0.275l-0.275,8.99c-0.184,6.24-0.643,8.992-1.377,8.992c-3.486,0-4.036,6.238-0.642,6.697
	c1.927,0.275,3.578,4.037,2.386,5.23c-0.276,0.274-3.212,0.458-6.606,0.458s-9.908,0.275-14.495,0.55l-8.44,0.643v12.752
	l14.036-0.275l13.945-0.367l0.275,9.724l0.275,9.725l-6.697,0.55c-3.67,0.368-13.12,0.826-20.917,1.193l-14.22,0.643v-19.175
	c0-10.55-0.368-31.1-0.826-45.688l-0.826-26.514l8.624,0.643C-231.826,375.366-210.633,375.824-189.44,376.008z M-223.57,398.118
	c0.55,10.734,0.367,12.752-1.284,11.835c-1.01-0.734-1.1-22.477-0.092-22.477C-224.487,387.476-223.845,392.246-223.57,398.118z"/>
</svg>
