<?xml version="1.0" encoding="iso-8859-1"?>
<!-- Generator: Adobe Illustrator 19.0.0, SVG Export Plug-In . SVG Version: 6.00 Build 0)  -->
<svg version="1.2" baseProfile="tiny" id="Layer_1" xmlns="http://www.w3.org/2000/svg" xmlns:xlink="http://www.w3.org/1999/xlink"
	 x="0px" y="0px" viewBox="-247 352.89 100 137" xml:space="preserve">
<title>face_00074</title>
<path d="M-167.284,354.745c-1.365,0.874-2.84,1.802-3.277,2.13c-0.437,0.273-2.02,1.365-3.55,2.348
	c-1.788,1.18-3.609,2.309-5.461,3.386c-1.475,0.874-5.189,3.168-8.138,5.08c-3.004,1.966-6.171,3.823-7.045,4.205l-1.639,0.655
	l0.164,8.684c0.11,4.806,0.219,18.897,0.328,31.35c0.11,22.282,0.437,36.427,0.983,43.964c0.164,2.075,0.546,8.957,0.874,15.292
	c0.6,11.961,0.983,16.712,1.365,17.095c0.437,0.437,1.366-0.546,1.366-1.42c0-0.492,1.42-2.076,3.167-3.496
	c1.508-1.219,3.001-2.457,4.479-3.713c6.772-6.008,15.401-12.507,25.396-19.116c9.339-6.226,8.902-5.843,7.864-6.226
	c-1.638-0.71-15.292,8.411-28.891,19.28c-3.168,2.566-6.936,5.68-8.465,6.99c-1.475,1.31-2.95,2.349-3.277,2.349
	c-0.929,0,5.734-5.68,16.22-13.818c14.746-11.415,15.839-12.234,22.939-16.876c3.604-2.349,4.15-2.895,3.768-3.878
	c-0.218-0.655-0.655-1.201-0.928-1.31c-0.71-0.219-20.754,12.943-22.065,14.527c-0.164,0.219-2.621,2.13-5.461,4.26
	c-2.84,2.185-7.264,5.516-9.776,7.482c-4.424,3.496-5.517,4.096-5.517,3.113c0-0.71,7.264-6.499,16.931-13.38
	c3.298-2.318,6.575-4.667,9.83-7.046c0.438-0.382,3.878-2.84,7.647-5.516c8.301-5.898,8.028-5.68,6.936-6.117
	c-0.655-0.218-2.24,0.601-4.915,2.567c-2.13,1.584-9.066,6.554-15.402,11.087c-14.254,10.158-19.224,13.872-19.661,14.528
	c-0.437,0.71-1.912,0.71-1.912,0.054c0-0.546,4.042-3.714,18.023-14.145c13.436-9.995,15.784-11.688,21.19-15.401
	c4.97-3.387,5.517-3.987,4.534-4.643c-0.437-0.218-6.99,3.933-9.612,6.117c-0.273,0.273-2.622,1.912-5.189,3.714
	c-2.567,1.748-9.994,7.264-16.548,12.18c-6.5,4.97-12.015,8.847-12.234,8.628c-0.437-0.437-1.201,0.164,10.213-8.41
	c5.243-3.933,10.814-8.083,12.288-9.23c5.735-4.37,10.541-7.701,14.856-10.268c4.26-2.567,5.625-4.096,3.659-4.096
	c-1.475,0-12.507,7.646-30.475,21.136c-6.99,5.243-10.486,7.591-10.76,7.1c-0.218-0.328-0.49-3.605-0.655-7.21l-0.327-6.553
	l1.474-0.71c0.874-0.328,2.021-1.092,2.622-1.639c0.983-0.873,9.612-7.263,12.07-8.902c0.6-0.437,5.297-3.714,10.376-7.264
	c5.025-3.604,11.36-7.973,13.982-9.776c3.331-2.184,4.697-3.386,4.314-3.768c-0.382-0.382-1.256-0.164-2.676,0.71
	c-3.823,2.348-26.379,18.132-35.663,24.959c-3.004,2.24-5.735,3.932-6.062,3.823c-1.42-0.492,28.672-22.829,38.776-28.837
	c2.84-1.693,3.769-2.512,3.332-2.949c-1.202-1.201-11.579,5.735-35.282,23.54c-3.713,2.785-6.881,5.078-7.045,5.078
	c-0.983,0,0.11-1.256,2.622-3.058c1.529-1.147,2.949-2.24,3.113-2.458c0.163-0.164,2.13-1.638,4.369-3.277
	c5.024-3.604,10.814-7.919,12.234-9.066c2.512-2.02,18.241-12.397,19.88-13.107c2.075-0.874,2.293-1.803,0.436-1.803
	c-1.31,0-14.145,8.302-23.703,15.402c-2.894,2.13-7.263,5.352-9.666,7.1c-2.403,1.802-4.752,3.55-5.189,3.877
	c-1.911,1.53-3.932,2.622-4.26,2.349c-0.164-0.164-0.164-0.382-0.054-0.492c11.469-8.793,26.76-19.552,40.96-28.782
	c5.08-3.331,6.227-4.369,5.025-4.751c-0.873-0.328-27.198,17.422-41.07,27.58c-2.567,1.857-4.806,3.386-5.08,3.386
	c-0.218,0-0.436-1.693-0.436-3.768v-3.768l4.096-3.059c4.806-3.604,5.898-4.041,1.857-0.764c-1.584,1.31-2.95,2.676-3.113,3.003
	c-0.546,1.748,2.075,0.383,6.936-3.495c9.34-7.537,13.981-10.978,27.307-19.99c2.24-1.528,2.294-1.692,1.366-2.402
	c-0.929-0.71-0.929-0.765,0.109-1.53c0.546-0.436,1.202-0.819,1.475-0.819c0.6,0,0.491-1.638-0.11-1.638
	c-0.327,0-3.713,2.294-7.536,5.08c-3.824,2.784-8.957,6.444-11.36,8.082c-2.403,1.639-4.588,3.113-4.916,3.386
	c-4.424,3.386-15.401,11.306-15.674,11.306c-0.929,0-0.328-1.639,0.819-2.24c0.655-0.382,2.294-1.583,3.66-2.676
	c2.13-1.747,4.696-3.604,13.27-9.667c0.984-0.71,3.988-2.84,6.664-4.806c2.73-1.966,8.083-5.734,11.906-8.301
	c4.697-3.113,6.827-4.86,6.444-5.243c-0.491-0.492-6.335,2.73-9.612,5.352c-0.6,0.437-2.95,2.13-5.243,3.714
	c-7.482,5.134-16.384,11.524-22.228,15.784c-3.113,2.348-5.953,4.096-6.281,3.877c-0.82-0.491,3.495-3.987,16.548-13.49
	c2.24-1.638,4.37-3.222,4.643-3.44c0.327-0.273,2.785-1.967,5.461-3.769c4.315-2.894,18.187-12.561,18.788-13.107
	c0.163-0.164,0-0.492-0.328-0.82c-0.382-0.382-3.004,1.147-8.575,5.08c-4.746,3.365-9.516,6.696-14.309,9.994
	c-6.062,4.205-13.271,9.394-14.964,10.814c-3.059,2.512-6.663,4.806-7.21,4.642c-0.327-0.11,0.22-0.82,1.257-1.53
	c1.966-1.364,12.07-9.284,12.507-9.83c0.546-0.655,18.514-13.599,25.832-18.569c4.533-3.168,5.68-4.37,3.987-4.37
	c-1.092,0-23.484,16.058-38.83,27.855c-2.404,1.802-4.425,3.058-4.534,2.73c-0.11-0.327-0.11-0.71-0.055-0.764
	c9.613-7.537,17.313-13.49,24.25-18.679c11.906-8.847,11.523-8.574,16.002-11.414c3.604-2.349,4.97-4.096,3.222-4.096
	c-0.71,0-1.584,0.6-10.486,7.1c-11.36,8.301-14.255,10.431-15.02,11.086c-0.436,0.383-1.802,1.42-3.003,2.294
	c-1.202,0.929-4.752,3.605-7.92,6.063c-6.88,5.243-7.1,5.406-7.1,4.478c0-0.71,4.698-4.588,13.381-11.032
	c8.575-6.39,7.592-5.735,20.208-14.255c4.806-3.222,8.848-6.007,8.957-6.117c0.164-0.109,0-0.437-0.382-0.819
	c-0.437-0.437-1.366-0.054-3.496,1.366c-13.817,9.393-31.513,22.01-35.5,25.286c-2.348,1.966-3.167,2.294-3.167,1.147
	c0-1.037,2.239-2.949,8.465-7.209c3.004-2.075,6.718-4.642,8.192-5.68c1.53-1.038,8.083-5.57,14.637-10.05
	c10.432-7.154,12.78-9.12,10.705-9.12c-0.328,0-2.185,1.147-4.206,2.567c-11.196,8.029-37.247,25.45-37.575,25.178
	c-0.109-0.164,0.765-1.038,2.076-1.967c8.465-6.007,11.851-8.683,11.851-9.284c0.11-1.639-1.584-0.765-8.247,4.26
	c-2.785,2.13-5.243,3.823-5.461,3.823c-1.366,0,0.327-1.53,6.39-5.844c6.335-4.478,7.973-6.171,6.007-6.171
	c-0.819,0-4.314,2.348-9.175,6.117c-1.475,1.146-2.895,2.075-3.168,2.075c-1.31,0-0.054-1.147,4.424-4.042
	c5.899-3.823,8.52-6.226,7.756-6.99c-0.383-0.383-1.42,0.054-3.223,1.42c-1.42,1.147-4.096,3.003-5.898,4.15
	c-2.622,1.693-3.332,1.967-3.496,1.257c-0.054-0.492,0.164-1.093,0.547-1.311c0.437-0.219,6.936-4.479,14.418-9.394
	c7.537-4.97,16.22-10.705,19.388-12.78c3.168-2.02,6.063-3.987,6.39-4.37c0.383-0.327,1.53-1.146,2.622-1.801
	c1.037-0.656,1.911-1.53,1.911-1.967c0-1.529-0.164-1.42-13.927,7.974c-1.201,0.82-8.629,5.735-16.493,10.869
	c-13.217,8.629-17.422,11.032-14.637,8.301c1.038-0.983,35.445-23.976,42.927-28.618c2.513-1.584,3.168-2.294,2.731-2.73
	c-0.492-0.492-0.928-0.438-1.857,0.163c-0.655,0.382-1.693,1.038-2.294,1.365c-0.874,0.492-31.95,20.918-39.104,25.724
	c-1.038,0.71-2.24,1.31-2.676,1.31c-2.02,0,4.369-4.532,28.4-20.043c9.448-6.117,17.258-11.524,17.367-11.906
	c0.273-1.147-1.529-1.038-2.84,0.164c-0.655,0.546-4.697,3.331-9.066,6.117c-11.796,7.591-23.156,15.018-28.4,18.568
	c-5.898,3.932-6.007,3.987-6.007,3.331c0-0.327,4.86-3.768,10.813-7.646c22.666-14.799,31.24-20.534,31.24-20.971
	c0-0.218-0.437-0.382-0.983-0.382c-0.983,0-1.693,0.437-12.397,7.7c-3.277,2.24-6.281,4.151-6.554,4.315
	c-0.328,0.164-4.206,2.676-8.63,5.57c-4.423,2.95-8.137,5.353-8.3,5.353c-0.22,0-1.257,0.6-2.35,1.365
	c-2.075,1.42-3.167,1.748-2.566,0.82c0.164-0.273,4.533-3.332,9.721-6.718c8.138-5.407,10.76-7.1,15.565-9.94
	c2.677-1.637,10.978-7.427,11.306-7.92c0.983-1.637-2.622-0.107-7.537,3.17c-3.059,2.075-6.718,4.478-8.138,5.352
	c-1.42,0.874-5.844,3.714-9.83,6.28c-10.65,6.827-11.36,7.264-11.36,6.39c0-0.6,12.179-8.683,17.913-11.906
	c0.82-0.436,2.84-1.693,4.479-2.785c2.041-1.354,4.098-2.683,6.171-3.987c1.693-1.037,3.113-2.184,3.113-2.512
	c0-0.983-1.857-0.492-4.369,1.147L-167.284,354.745z M-238.72,355.29c0.109,0.328,1.529,1.31,3.167,2.24
	c5.79,3.167,12.07,7.1,11.797,7.372c-0.164,0.164-0.983-0.218-1.857-0.874c-0.928-0.655-1.802-1.147-2.02-1.147
	c-0.164,0-1.584-0.819-3.168-1.802c-5.025-3.113-8.63-4.86-9.448-4.533c-1.257,0.492-0.547,1.202,3.768,3.495
	c2.185,1.147,9.066,5.025,15.401,8.52c6.336,3.55,13.49,7.592,15.948,8.957c2.512,1.366,4.424,2.567,4.315,2.676
	c-0.219,0.219-9.94-4.587-14.801-7.373c-4.964-2.809-9.971-5.54-15.02-8.192c-2.565-1.309-5.787-3.167-7.262-4.039
	c-2.403-1.53-4.533-1.748-4.096-0.383c0.11,0.328,3.277,2.185,6.99,4.151c3.769,1.912,9.777,5.188,13.381,7.21
	c9.613,5.406,12.07,6.771,17.15,9.284c2.457,1.256,4.423,2.403,4.26,2.567c-0.492,0.546-23.54-11.36-35.063-18.078
	c-5.299-3.114-6.828-3.661-7.212-2.621c-0.109,0.327,1.42,1.583,3.496,2.73c9.394,5.406,21.354,11.851,28.837,15.62
	c7.701,3.878,10.978,5.79,9.94,5.844c-0.6,0-10.486-4.806-15.401-7.537c-2.075-1.147-7.155-3.823-11.196-5.953
	c-4.042-2.13-8.684-4.642-10.322-5.57c-2.84-1.694-4.424-2.021-4.533-0.874c-0.055,0.546,0.983,1.146,8.028,4.915
	c2.403,1.31,8.192,4.37,12.835,6.827c4.642,2.512,11.25,5.953,14.69,7.755c6.828,3.495,6.937,3.55,6.445,4.042
	c-0.163,0.218-3.823-1.311-8.137-3.332c-4.315-2.02-9.776-4.642-12.18-5.79c-3.712-1.747-15.946-8.464-19.714-10.867
	c-0.656-0.383-1.584-0.547-2.13-0.328c-1.475,0.546-0.492,1.365,6.007,4.86c3.004,1.584,6.445,3.496,7.646,4.206
	c2.622,1.53,10.76,5.516,13.272,6.554c1.365,0.546,1.638,0.819,1.147,1.42c-0.437,0.546-0.164,0.983,1.256,1.857
	c1.202,0.71,1.475,1.092,0.874,1.092c-2.403,0-0.492,1.693,5.188,4.588c6.5,3.331,7.373,3.932,6.772,4.478
	c-0.163,0.218-1.911-0.655-3.877-1.911c-1.966-1.202-3.714-2.24-3.878-2.24s-1.256-0.655-2.458-1.42
	c-1.966-1.31-3.823-1.474-3.823-0.382c0,0.218,1.311,1.147,2.895,2.02c6.445,3.496,11.305,6.5,11.305,7.046
	c0,0.82-2.403,0-9.393-3.222c-3.605-1.639-6.609-2.95-6.773-2.95s-6.062-2.84-13.107-6.28c-7.046-3.44-12.999-6.28-13.326-6.28
	c-0.273,0-0.546,0.327-0.546,0.71c0,0.764,1.256,1.42,17.476,9.284c12.015,5.788,18.515,8.737,22.555,10.212
	c1.693,0.655,3.113,1.365,3.113,1.638c0,0.71-2.457-0.218-22.119-8.52c-4.26-1.802-12.616-5.953-21.791-10.814
	c-1.857-0.983-2.895-1.256-3.277-0.873c-0.328,0.327-0.328,0.71-0.055,1.037c1.366,1.202,21.628,11.251,28.946,14.255
	c4.533,1.911,9.667,4.096,11.47,4.915c1.802,0.82,4.205,1.802,5.352,2.13c1.092,0.382,2.02,1.038,2.02,1.475
	c0,1.092-0.928,0.983-4.97-0.656c-4.314-1.693-29.328-14.036-34.735-17.094c-2.73-1.584-4.041-2.02-4.314-1.584
	c-0.219,0.328,0.11,1.038,0.764,1.53c1.366,1.146,27.363,14.254,34.08,17.203c2.622,1.201,4.697,2.185,4.588,2.294
	c-0.437,0.437-10.268-4.042-27.417-12.452c-6.062-3.004-11.25-5.407-11.633-5.407c-0.328,0-0.6,0.327-0.6,0.71
	c0,0.6,14.855,8.192,25.668,13.107c2.24,1.038,5.844,2.676,7.92,3.66c6.39,2.949,9.557,4.314,9.94,4.314
	c0.218,0,0.491,0.219,0.6,0.546c0.437,1.366-2.348,0.383-14.363-4.97c-2.267-1.02-4.543-2.022-6.827-3.004
	c-2.021-0.928-13.326-6.499-16.057-7.973c-1.584-0.874-2.512-0.765-2.512,0.163c0,0.601,6.062,3.769,14.2,7.537
	c2.84,1.311,7.427,3.441,10.103,4.697c2.731,1.311,7.319,3.277,10.213,4.479c2.95,1.147,5.352,2.457,5.352,2.785
	c0,0.765-2.403-0.055-9.448-3.331c-2.294-1.093-4.314-1.967-4.478-1.967c-0.273,0-5.68-2.512-16.112-7.482
	c-4.041-1.911-8.028-3.66-8.847-3.823c-2.185-0.437-2.021,1.038,0.273,1.966c2.621,1.093,4.97,2.13,11.305,5.08
	c3.168,1.474,6.226,2.894,6.827,3.167c0.6,0.273,4.478,2.075,8.629,4.042c4.15,1.966,8.52,3.877,9.667,4.205
	c1.201,0.382,2.184,0.874,2.184,1.147c0,0.218-0.109,0.437-0.218,0.437c-1.092,0-25.56-10.705-32.933-14.419
	c-3.386-1.693-6.499-3.058-6.99-3.058c-2.13,0-0.274,1.365,6.116,4.533c6.281,3.113,30.694,14.036,33.097,14.8
	c0.492,0.165,0.928,0.601,0.928,0.93c0,0.764-1.856,0.327-5.625-1.366c-1.53-0.71-5.516-2.403-8.847-3.769
	c-9.012-3.713-17.423-7.646-25.67-12.07c-1.966-1.037-3.713-1.146-3.44-0.218c0.327,0.928,10.65,6.062,25.286,12.452
	c6.937,3.059,13.053,5.735,13.654,5.953c3.332,1.366,3.769,1.639,2.95,1.639c-0.765,0.054-5.353-1.639-9.504-3.441
	c-0.873-0.437-5.68-2.458-10.65-4.588c-4.97-2.13-10.486-4.587-12.288-5.461c-6.499-3.113-7.318-3.496-7.864-3.113
	c-0.983,0.6-0.656,1.147,1.201,2.075c1.092,0.546,1.42,0.874,0.82,0.874c-2.513,0.11-0.601,1.638,5.024,4.096
	c1.966,0.874,4.806,2.13,6.28,2.785c3.496,1.584,20.973,8.793,24.632,10.159c1.584,0.6,3.168,0.983,3.55,0.928
	c0.6-0.109,0.82,0.82,0.928,3.878c0.11,2.24-0.054,4.26-0.273,4.478c-0.437,0.437-12.943-4.205-20.972-7.755
	c-5.898-2.567-19.17-9.34-18.897-9.558c0.164-0.163,0.983,0.055,1.857,0.547c0.929,0.436,2.84,1.31,4.315,1.856
	c1.475,0.601,7.482,3.113,13.326,5.571c5.844,2.512,11.36,4.533,12.234,4.588c1.966,0.054,2.512-1.092,0.764-1.584
	c-3.932-1.147-22.173-8.63-31.185-12.78c-3.604-1.638-5.844-2.13-5.844-1.256c0,0.765,1.257,1.748,2.24,1.748
	c0.546,0,1.146,0.273,1.31,0.546c0.219,0.382-0.109,0.491-0.983,0.273c-2.02-0.546-2.294,0.655-0.437,1.638
	c1.038,0.492,1.53,1.093,1.366,1.584c-0.383,0.929,0.382,1.475,7.974,5.516c9.339,4.97,20.207,10.104,26.16,12.343
	c0.71,0.273,1.202,0.656,1.038,0.765c-0.164,0.164-1.366-0.164-2.676-0.765c-1.311-0.546-6.336-2.676-11.142-4.697
	c-4.806-2.02-11.742-5.133-15.456-6.881c-3.714-1.802-6.99-3.222-7.318-3.222c-0.328,0-0.437,0.491-0.273,1.092
	c0.164,0.546,0,1.147-0.273,1.201c-0.328,0.11-0.656,0.82-0.71,1.53c-0.219,1.638,1.529,2.73,15.893,10.158
	c9.94,5.134,11.687,5.79,11.687,4.37c0-0.71-5.134-3.496-11.414-6.172c-0.983-0.437-1.693-0.929-1.475-1.093
	c0.164-0.163,1.42,0.219,2.785,0.874c1.311,0.601,2.622,1.147,2.786,1.147s1.092,0.328,2.02,0.765
	c8.52,3.714,15.402,6.608,17.969,7.591l3.167,1.202l0.055,6.554c0,3.604,0.11,7.263,0.164,8.137c0.055,0.82-0.219,1.639-0.546,1.802
	c-1.311,0.492-22.884-9.557-32.715-15.237c-1.802-1.038-3.877-2.24-4.642-2.676c-0.764-0.437-1.802-1.093-2.348-1.53
	c-0.765-0.655-1.093-0.655-1.639-0.109c-0.491,0.546-0.327,0.929,0.983,2.021c0.929,0.71,1.803,1.31,2.021,1.31
	c0.164,0,2.294,1.148,4.642,2.568c2.349,1.365,9.776,5.188,16.549,8.465c6.772,3.277,12.67,6.117,13.107,6.39
	c0.492,0.273,1.639,0.655,2.622,0.874c1.584,0.328,2.512,1.365,1.201,1.365c-1.747,0-22.556-9.667-31.84-14.855
	c-3.714-2.02-5.025-2.512-5.352-2.02c-0.71,1.2-1.202,0.873,13.981,8.628c6.117,3.113,18.405,8.793,21.081,9.722
	c1.475,0.546,2.676,1.147,2.676,1.365c0,0.273-0.109,0.437-0.273,0.437c-0.655,0-7.591-2.785-11.906-4.86
	c-2.676-1.202-4.97-2.24-5.133-2.24c-0.11,0-4.151-1.966-8.903-4.369c-7.7-3.823-10.158-4.588-9.011-2.73
	c0.382,0.6,11.633,6.335,18.35,9.284c2.567,1.147,6.554,3.004,8.903,4.096c2.294,1.092,5.079,2.13,6.117,2.294
	c1.638,0.273,2.676,1.256,1.31,1.256c-1.256,0-9.776-3.714-23.375-10.158c-6.772-3.223-8.301-3.66-8.301-2.404
	c0,0.437,8.738,4.861,15.838,8.083c1.365,0.601,4.642,2.13,7.318,3.387c2.677,1.201,5.79,2.512,6.937,2.894
	c1.201,0.328,2.13,0.82,2.13,1.038c0,0.273-0.11,0.437-0.219,0.437c-0.546,0-10.595-4.424-19.443-8.575
	c-10.05-4.751-10.377-4.806-10.377-3.113c0,0.328,0.929,1.038,2.021,1.475c1.966,0.764,7.591,3.386,17.094,7.864
	c2.24,1.093,5.626,2.513,7.537,3.168c3.496,1.256,4.697,1.912,3.386,1.912c-0.983,0-6.772-2.13-15.4-5.735
	c-6.828-2.785-8.63-3.222-8.63-1.966c0,0.218,0.655,0.764,1.475,1.147c3.113,1.474,17.476,7.209,20.207,8.083
	c1.857,0.546,2.95,1.256,3.113,1.911c0.11,0.601,0.437,0.929,0.71,0.765c0.655-0.437,0.328-86.947-0.382-97.597
	c-0.328-4.97-0.874-11.305-1.202-14.09c-0.6-4.916-0.655-5.025-2.075-5.025c-0.82,0-5.243-2.185-10.158-4.97
	c-10.323-5.953-10.869-6.281-15.784-9.176c-2.294-1.365-4.479-2.239-5.462-2.184c-1.911,0-2.13-0.164,5.189,4.096
	c2.84,1.693,7.154,4.205,9.557,5.625c3.498,2.049,7.011,4.07,10.541,6.063c3.386,1.856,6.062,3.55,5.898,3.713
	c-0.163,0.11-2.84-1.147-5.898-2.894c-3.113-1.748-7.21-4.042-9.175-5.08c-1.966-1.037-4.697-2.62-6.172-3.44
	c-1.42-0.874-2.676-1.584-2.84-1.584s-1.529-0.82-3.113-1.857C-234.515,355.62-239.266,353.707-238.72,355.29L-238.72,355.29z
	 M-162.368,372.166c-11.142,7.373-12.617,8.52-11.415,9.011c1.038,0.383,21.41-12.998,21.682-14.254
	C-151.719,365.393-153.521,366.323-162.368,372.166z M-158.436,373.531c-2.84,1.967-5.243,3.55-5.352,3.55
	c-0.656,0-9.503,6.063-9.503,6.5c0,1.256,1.256,1.037,4.205-0.765c3.44-2.13,2.458-1.256-2.294,2.13
	c-2.403,1.693-2.895,2.294-2.403,2.895c0.546,0.6,0.82,0.6,1.584,0.054c1.857-1.365,16.821-11.633,17.859-12.234
	c0.82-0.491,0.874-0.764,0.273-1.474c-0.6-0.71-0.437-0.983,0.983-2.021c0.874-0.655,1.639-1.42,1.639-1.693
	C-151.445,369.271-153.685,370.254-158.436,373.531L-158.436,373.531z M-164.28,380.36c-0.164,0.273-0.6,0.546-0.874,0.546
	c-0.328,0-0.382-0.273-0.218-0.546c0.164-0.327,0.6-0.546,0.874-0.546C-164.171,379.814-164.116,380.033-164.28,380.36z
	 M-241.997,373.915c-0.492,0.491-0.382,0.819,0.328,1.365c0.819,0.655,0.819,0.71-0.437,0.6c-0.929-0.108-1.366,0.11-1.366,0.656
	c0,0.437-0.327,1.093-0.764,1.42c-0.874,0.71,1.037,2.13,8.41,6.336c8.138,4.642,8.739,4.97,10.104,5.734
	c0.765,0.382,1.802,0.71,2.349,0.71c1.911,0,0.819-1.475-2.185-2.95c-4.478-2.184-16.166-9.12-15.838-9.393
	c0.218-0.218,6.444,3.059,7.755,4.15c0.328,0.22,1.638,0.984,3.004,1.749c1.365,0.764,3.823,2.13,5.461,3.058
	c2.076,1.147,3.277,1.53,3.823,1.201c0.656-0.382,0.601-0.655-0.218-1.583c-1.038-1.147-1.038-1.147,0.11-1.147
	c2.62,0,0.818-1.53-5.244-4.479c-3.495-1.693-8.083-4.205-10.213-5.57c-4.205-2.786-4.15-2.786-5.08-1.857H-241.997z
	 M-238.775,376.919c0.71,0.819,0.656,0.819-0.437,0.218c-1.31-0.655-1.584-1.147-0.764-1.147
	C-239.703,375.99-239.157,376.372-238.775,376.919z M-228.725,382.981c-0.165,0.164-0.601,0-0.984-0.383
	c-0.491-0.546-0.437-0.6,0.328-0.273C-228.835,382.489-228.561,382.817-228.725,382.981L-228.725,382.981z M-223.537,385.548
	c0,0.164-0.983-0.219-2.185-0.82c-1.201-0.6-2.184-1.256-2.184-1.365c0-0.164,0.983,0.219,2.184,0.82
	C-224.52,384.783-223.537,385.438-223.537,385.548z M-158.327,411.381c-3.168,2.403-14.036,10.103-16.002,11.305
	c-3.823,2.348-14.8,10.267-14.8,10.65c0,0.327,0.327,0.546,0.764,0.546c1.474,0,35.281-23.594,35.281-24.631
	C-153.084,408.104-155.214,408.977-158.327,411.381z M-241.779,417.443c-0.382,0.6,0.601,1.42,2.403,1.966
	c0.765,0.218,3.223,1.256,5.462,2.294c3.932,1.857,8.793,3.877,22.61,9.503c7.046,2.894,9.285,3.331,8.957,1.693
	c-0.109-0.492-0.764-1.038-1.529-1.093c-2.621-0.382-33.315-13.107-34.68-14.363C-239.212,416.787-241.396,416.787-241.779,417.443z
	 M-157.453,427.874c-2.567,1.803-5.08,3.66-5.625,4.096c-0.547,0.437-3.769,2.731-7.21,5.025c-3.44,2.294-6.28,4.37-6.28,4.588
	c0,1.092,1.365,1.037,2.894-0.055c0.929-0.71,3.769-2.73,6.336-4.478c11.633-7.974,16.111-11.251,16.33-11.852
	C-150.517,423.778-153.138,424.87-157.453,427.874z M-158.327,431.588c-2.458,1.693-6.718,4.697-9.503,6.663
	c-6.718,4.752-8.465,6.226-7.974,6.99c0.383,0.602,4.643-2.075,12.343-7.81c1.366-1.037,4.315-3.112,6.554-4.641
	c3.878-2.677,4.806-3.769,3.55-4.151C-153.63,428.529-155.924,429.84-158.327,431.588z M-157.727,434.318
	c-5.843,3.988-21.354,15.348-25.395,18.57l-1.366,1.092l1.202,0.492c1.147,0.437,0.983,0.6-2.02,3.058
	c-2.95,2.349-4.152,4.205-2.786,4.205c0.437,0,2.676-1.693,4.751-3.55c0.601-0.546,6.39-4.86,18.187-13.544
	c3.168-2.348,7.21-5.134,8.957-6.226c1.693-1.092,3.113-2.13,3.113-2.403c0-1.147-1.256-0.765-4.97,1.53
	c-2.24,1.364-3.714,2.129-3.331,1.692c0.382-0.491,2.13-1.802,3.932-2.894c1.802-1.147,3.277-2.404,3.277-2.786
	c0-1.147-1.147-0.928-3.55,0.765L-157.727,434.318z M-162.642,440.436c-0.163,0.273-1.747,1.529-3.55,2.785
	c-1.802,1.256-3.113,2.512-2.949,2.73c0.164,0.274,0.164,0.492,0,0.492s-0.382-0.218-0.6-0.546
	c-0.164-0.273,1.365-1.747,3.386-3.222C-162.423,439.78-162.095,439.562-162.642,440.436L-162.642,440.436z M-171.926,447.317
	c-2.458,2.076-4.642,3.605-4.642,3.277s5.625-4.697,6.007-4.642C-170.397,445.952-170.998,446.552-171.926,447.317z
	 M-241.888,436.722c-0.218,0.328,0.273,1.201,1.202,1.966c0.873,0.71,1.147,1.202,0.655,1.038c-1.147-0.383-1.857,0.6-1.092,1.365
	c0.327,0.328,0.437,0.874,0.273,1.31c-0.219,0.656,3.386,3.715,5.297,4.48c0.437,0.163,2.349,1.255,4.26,2.402
	c1.857,1.147,6.117,3.441,9.449,5.134c3.331,1.693,5.898,3.168,5.789,3.277c-0.328,0.382-14.036-6.608-18.132-9.175
	c-3.168-2.021-5.189-2.622-5.189-1.584c0,0.6,1.967,2.075,5.189,3.932s29.874,15.02,31.185,15.456
	c1.912,0.6,2.185-1.201,0.328-1.966c-2.676-1.092-12.671-6.062-12.507-6.226c0.11-0.11,2.02,0.6,4.314,1.53
	c2.294,0.928,4.533,1.528,5.025,1.364c1.365-0.546,0.71-1.201-2.24-2.293c-6.608-2.513-24.303-11.633-26.105-13.49
	c-0.273-0.273,3.004,1.256,7.373,3.495c14.254,7.264,18.569,8.957,17.914,6.936c-0.11-0.273-2.13-1.474-4.533-2.621
	c-2.404-1.202-3.714-2.076-2.84-1.912c1.201,0.273,1.474,0.164,1.474-0.764c0-0.71-0.491-1.202-1.474-1.42
	c-2.185-0.547-18.187-8.684-21.573-10.978C-241.014,435.848-241.342,435.793-241.888,436.722z M-236.044,441.255
	c1.31,0.765,2.185,1.365,1.966,1.365c-0.6,0-4.751-2.13-4.751-2.457C-238.829,439.726-238.447,439.835-236.044,441.255z
	 M-230.364,444.695c-0.164,0.165-0.6,0-0.983-0.382c-0.492-0.546-0.437-0.6,0.328-0.273
	C-230.473,444.204-230.2,444.532-230.364,444.695L-230.364,444.695z M-180.391,422.085c0,0.164-0.219,0.437-0.547,0.6
	c-0.273,0.165-0.546,0.055-0.546-0.218c0-0.327,0.273-0.6,0.546-0.6C-180.61,421.867-180.391,421.976-180.391,422.085z
	 M-219.933,366.487c6.609,3.605,12.234,6.882,12.234,7.155c0,0.109-1.147-0.383-2.567-1.202c-1.474-0.82-4.915-2.73-7.646-4.205
	c-4.424-2.403-5.68-3.168-4.86-3.168C-222.663,365.067-221.407,365.722-219.933,366.487L-219.933,366.487z M-205.787,374.352
	c0.163,0.327-0.055,0.382-0.492,0.218c-0.983-0.382-1.147-0.765-0.382-0.765C-206.334,373.805-205.951,374.024-205.787,374.352z
	 M-203.603,375.881c-0.164,0.164-0.6,0-0.983-0.382c-0.491-0.547-0.437-0.601,0.328-0.274
	C-203.712,375.389-203.438,375.717-203.603,375.881z M-200.599,392.648c0.765,0.437,1.147,0.764,0.82,0.764
	c-0.274,0-1.148-0.327-1.912-0.764c-0.765-0.437-1.093-0.765-0.82-0.765C-202.183,391.883-201.364,392.211-200.599,392.648z
	 M-203.549,393.795c0.984,0.764,0.984,0.764-0.327,0.163c-1.693-0.764-1.966-1.037-1.31-1.037c0.327,0,1.037,0.382,1.638,0.874
	H-203.549z M-200.544,411.763c1.857,0.874,1.857,0.874,0.218,0.546c-0.874-0.218-1.857-0.6-2.13-0.874
	C-203.22,410.725-202.62,410.835-200.544,411.763z M-235.279,415.313c0.163,0.328-0.055,0.382-0.492,0.218
	c-0.983-0.382-1.147-0.764-0.382-0.764C-235.826,414.767-235.443,414.985-235.279,415.313z M-233.095,416.405
	c0.164,0.328-0.054,0.382-0.491,0.219c-0.983-0.383-1.147-0.765-0.383-0.765C-233.641,415.859-233.259,416.077-233.095,416.405z
	 M-230.365,417.497c0.438,0.71-0.272,0.71-1.364,0c-0.71-0.437-0.71-0.546,0.109-0.546c0.491,0,1.092,0.219,1.256,0.546H-230.365z
	 M-226.213,419.409c1.638,0.765,2.348,1.201,1.583,1.038c-1.42-0.383-5.461-2.349-4.86-2.403
	C-229.272,418.044-227.797,418.644-226.213,419.409z M-221.626,421.32c0.164,0.273,0.11,0.547-0.218,0.547
	c-0.273,0-0.71-0.274-0.874-0.547c-0.164-0.327-0.11-0.546,0.218-0.546C-222.226,420.774-221.79,420.993-221.626,421.32z
	 M-223.155,433.117c3.768,1.693,5.407,2.403,9.448,4.042c1.639,0.655,3.769,1.529,4.643,1.911c2.294,0.929,8.52,3.386,9.721,3.769
	c1.639,0.546,0.546,1.365-1.147,0.874c-4.642-1.42-9.557-3.55-19.224-8.302c-7.373-3.66-9.394-4.97-3.44-2.294H-223.155z
	 M-231.948,435.029c7.92,3.659,8.63,3.987,12.944,5.68c2.02,0.819,3.604,1.584,3.495,1.747c-0.382,0.383-9.448-3.44-16.494-6.881
	c-3.604-1.802-6.39-3.277-6.226-3.277c0.164-0.055,3.004,1.202,6.281,2.73V435.029z M-228.726,439.343
	c0.164,0.273,0.11,0.547-0.218,0.547c-0.273,0-0.71-0.274-0.874-0.547c-0.164-0.327-0.11-0.546,0.218-0.546
	C-229.326,438.797-228.89,439.016-228.726,439.343z M-212.614,443.44c0.764,0.436,1.147,0.764,0.819,0.764
	c-0.273,0-1.147-0.328-1.912-0.764c-0.764-0.437-1.092-0.765-0.819-0.765C-214.198,442.675-213.379,443.003-212.614,443.44z
	 M-200.435,445.733c0.82,0.164,1.474,0.492,1.474,0.765c0,0.655-0.491,0.546-3.003-0.655c-1.202-0.601-1.693-0.929-1.093-0.765
	C-202.456,445.296-201.309,445.57-200.435,445.733z M-202.237,448.082c0.437,0.273,0.6,0.546,0.273,0.546
	c-0.273,0-0.929-0.273-1.366-0.546c-0.437-0.273-0.546-0.546-0.273-0.546C-203.275,447.536-202.674,447.809-202.237,448.082z
	 M-198.961,449.174c0,0.71-0.6,0.71-1.638,0c-0.655-0.437-0.6-0.546,0.437-0.546C-199.507,448.628-198.961,448.846-198.961,449.174z
	"/>
</svg>
