<?xml version="1.0" encoding="iso-8859-1"?>
<!-- Generator: Adobe Illustrator 19.0.0, SVG Export Plug-In . SVG Version: 6.00 Build 0)  -->
<svg version="1.2" baseProfile="tiny" id="Layer_1" xmlns="http://www.w3.org/2000/svg" xmlns:xlink="http://www.w3.org/1999/xlink"
	 x="0px" y="0px" viewBox="-247 376.89 100 89" xml:space="preserve">
<title>face_00081</title>
<path d="M-205.841,377.044c-0.621,0.155-3.805,0.699-6.988,1.164c-22.438,3.65-37.733,26.398-33.385,49.768
	c0.388,2.329,1.087,4.89,1.475,5.745c0.388,0.854,1.63,3.571,2.718,6.056c6.366,14.518,21.428,24.379,39.285,25.776
	c12.112,1.01,26.087-1.63,33.385-6.211c7.376-4.658,14.286-12.81,17.392-20.575c0.776-1.94,1.708-4.037,2.096-4.813
	c1.63-3.183,3.183-15.14,2.717-21.196c-1.242-17.236-16.537-31.444-36.956-34.472C-189.77,377.432-204.056,376.656-205.841,377.044
	L-205.841,377.044z M-190.701,380.149c11.878,0.777,21.118,3.805,26.785,8.851c1.475,1.32,2.95,2.407,3.261,2.407
	c0.854,0,6.367,7.842,7.842,11.18c2.096,4.736,3.028,12.966,2.096,18.944c-2.33,15.063-9.472,27.563-19.72,34.55
	c-6.91,4.814-15.063,6.91-26.864,6.91c-20.341,0.078-32.453-6.677-41.149-22.826c-9.006-16.925-6.832-34.55,6.056-48.37
	c3.727-4.114,9.394-7.919,13.742-9.472c4.736-1.552,14.985-3.26,17.857-2.95C-199.475,379.528-194.972,379.917-190.701,380.149z
	 M-185.267,391.174c-2.329,1.243-5.59,4.348-6.987,6.677c-0.621,1.087-1.32,1.165-3.805,0.544c-1.94-0.388-3.571-0.388-4.425,0.077
	c-1.087,0.544-1.941,0.156-4.037-2.018c-3.339-3.494-7.454-5.124-12.656-5.124c-6.133,0-9.161,2.096-12.034,8.23
	c-3.105,6.676-0.854,14.363,5.202,17.934c4.348,2.562,11.646,2.95,15.683,0.777c1.475-0.777,2.795-1.243,2.95-1.087
	c0.156,0.155,0.466,3.649,0.777,7.608l0.543,7.376l-4.58,1.01c-8.774,2.018-12.5,5.512-10.56,9.782
	c0.622,1.475,0.544,2.096-0.698,3.339c-2.019,2.018-1.087,4.58,3.028,8.074c6.832,5.9,21.118,7.531,32.298,3.804
	c7.065-2.329,12.112-6.987,12.112-11.102c0-1.863-0.544-3.416-1.553-4.426c-1.087-1.086-1.397-2.173-1.087-3.726
	c0.31-1.63,0-2.718-1.397-4.193c-2.097-2.329-7.376-4.503-11.025-4.503c-3.106,0-3.572-1.087-3.572-7.997v-4.425l2.795,1.164
	c5.202,2.174,13.2,0.854,17.159-2.872c2.562-2.407,4.891-7.92,4.891-11.802c0-4.58-2.795-10.714-5.823-12.81
	C-175.018,389.466-181.773,389.311-185.267,391.174L-185.267,391.174z M-174.087,393.426c2.252,1.63,4.659,6.91,4.736,10.248
	c0,3.727-2.95,9.317-6.133,11.491c-2.174,1.398-3.804,1.863-7.22,1.863c-5.125,0-7.299-1.475-8.153-5.434
	c-0.233-1.476-0.931-2.33-1.708-2.33c-2.795,0-3.105,1.01-2.407,6.6c0.389,3.028,0.7,8.152,0.777,11.413
	c0,4.27,0.31,6.056,1.01,6.133c0.465,0,2.639,0,4.735-0.077c5.047-0.156,9.938,1.94,9.627,4.192
	c-0.155,0.854-1.087,2.019-2.174,2.562c-1.086,0.544-1.94,1.398-1.94,1.941c0,0.544,0.854,1.01,1.94,1.087
	c3.572,0.156,3.882,0.31,4.814,2.252c2.019,4.503-5.745,10.248-16.227,11.956c-8.307,1.32-19.953-1.475-23.447-5.667
	c-1.475-1.786-0.776-4.659,1.32-4.97c2.096-0.31,2.252-2.173,0.155-3.26c-1.94-1.01-2.018-3.261-0.155-4.814
	c1.941-1.708,6.988-3.183,10.404-3.105c2.64,0.155,3.183-0.233,3.105-2.174c-0.077-5.823-1.087-20.575-1.397-21.04
	c-0.776-1.32-3.028-0.7-4.969,1.32c-5.512,5.9-16.15,4.192-19.022-3.029c-1.553-3.96-1.475-5.667,0.699-10.248
	c2.484-5.357,4.891-6.832,10.481-6.444c5.59,0.388,8.23,2.251,9.938,6.987c1.63,4.348,3.028,5.202,4.27,2.562
	c0.466-1.087,1.476-2.096,2.33-2.329c1.863-0.62,4.503,0.233,4.503,1.475c0,0.466,0.388,1.32,0.931,1.864
	c1.165,1.164,2.95-0.156,2.95-2.174c0-1.941,4.27-7.454,6.755-8.773C-180.609,391.951-176.26,391.951-174.087,393.426z
	 M-183.869,401.889c-4.659,2.018-2.795,7.686,2.484,7.686c3.261,0,5.047-1.708,5.047-4.969
	C-176.338,400.802-179.056,399.792-183.869,401.889z M-180.22,405.382c-0.932,1.786-2.33,2.097-2.33,0.544
	c0-1.32,0.777-2.096,2.097-2.096C-179.599,403.83-179.599,404.218-180.22,405.382z M-219.661,402.432
	c-0.544,0.544-0.932,2.019-0.932,3.339c0,4.503,6.6,5.59,8.463,1.397c1.32-2.873-0.621-5.668-4.037-5.668
	C-217.565,401.5-219.117,401.889-219.661,402.432z M-215.158,405.305c0,0.931-1.553,1.94-2.096,1.397
	c-0.544-0.543,0.466-2.096,1.397-2.096C-215.469,404.606-215.158,404.916-215.158,405.305z M-199.008,441.175
	c-2.563,1.32-2.951,1.863-2.951,4.192c0,3.028,1.553,4.27,5.357,4.27c4.27,0,6.211-4.503,3.494-8.385
	c-1.398-2.019-2.097-2.019-5.9-0.078V441.175z M-195.127,444.435c0.388,1.786-2.795,3.339-3.416,1.708
	c-0.544-1.397,1.087-3.649,2.33-3.26C-195.748,443.038-195.283,443.736-195.127,444.435z"/>
</svg>
