<?xml version="1.0" encoding="iso-8859-1"?>
<!-- Generator: Adobe Illustrator 19.0.0, SVG Export Plug-In . SVG Version: 6.00 Build 0)  -->
<svg version="1.2" baseProfile="tiny" id="Layer_1" xmlns="http://www.w3.org/2000/svg" xmlns:xlink="http://www.w3.org/1999/xlink"
	 x="0px" y="0px" viewBox="-247 355.89 100 130" xml:space="preserve">
<title>face_00077</title>
<path d="M-207.803,356.562c-5.368,0.825-6.784,1.12-14.159,3.303c-7.433,2.183-16.814,7.552-21.947,12.508l-2.478,2.36l0.354,6.843
	c0.177,3.776,0.531,7.139,0.826,7.493c0.236,0.295,0.472,15.28,0.531,33.274c0,32.213-0.413,42.124-2.006,43.186
	c-0.413,0.295-0.413,0.472,0.118,0.472c0.531,0,0.65,0.413,0.413,1.239c-0.295,0.826-0.177,1.12,0.236,0.885
	c0.354-0.236,2.537,1.062,4.897,2.89c3.835,2.892,14.336,8.496,19.056,10.207c6.785,2.36,13.393,3.54,23.304,4.012
	c4.366,0.177,8.142,0.472,8.378,0.59c0.767,0.472,7.315-1.12,15.22-3.717c7.847-2.655,19.942-9.262,22.302-12.271
	c0.708-0.885,1.534-1.357,2.065-1.121c1.416,0.53,1.77-0.885,0.649-2.596c-0.885-1.357-1.062-3.245-1.121-13.982
	c-0.118-11.269,0.295-27.08,1.12-42.478c0.178-3.245,0.296-6.903,0.355-8.142c0-2.065,0.118-2.242,1.356-1.829l1.298,0.354
	l-1.298-1.416c-1.296-1.356-1.356-1.946-1.356-10.324c0-10.384-0.531-17.876-1.298-17.876c-0.295,0-1.888-0.885-3.6-1.947
	c-4.778-3.009-18.347-8.79-24.011-10.207c-3.009-0.767-11.21-1.71-20.059-2.3C-200.782,355.854-204.853,356.09-207.803,356.562z
	 M-193.879,357.564l7.433,0.65l0.413,6.194c0.177,3.422,0.354,8.614,0.354,11.564v5.368H-197.3c-6.43,0-12.684,0.236-13.864,0.472
	l-2.183,0.472v-5.781c-0.06-3.186-0.177-6.431-0.413-7.257c-0.177-0.826-0.472-3.54-0.65-6.018l-0.294-4.543l1.947-0.295
	c1.71-0.295,7.846-1.12,10.56-1.357c0.472-0.059,4.248,0.177,8.319,0.531H-193.879z M-178.127,359.806
	c2.478,0.708,5.546,1.593,6.726,2.065c4.07,1.593,10.62,4.543,12.861,5.782c0.826,0.472,2.419,1.298,3.54,1.888
	c3.953,2.006,4.13,2.36,4.13,7.728c0,5.31,0.236,5.015-4.13,5.841c-2.36,0.472-5.546,1.475-9.735,3.127l-2.95,1.121l-5.958-2.183
	c-3.245-1.239-7.08-2.419-8.378-2.655l-2.478-0.413l-0.059-6.843c0-3.835-0.118-7.316-0.177-7.788
	c-0.59-3.068-0.944-7.729-0.649-8.26C-184.853,358.331-183.26,358.508-178.127,359.806z M-215.413,363.17
	c0.236,2.242,0.413,7.434,0.472,11.623l0.059,7.61l-2.95,0.708c-1.652,0.472-5.074,1.593-7.61,2.596l-4.602,1.888l-4.425-1.534
	c-2.42-0.826-5.31-1.475-6.372-1.475c-3.186,0-3.835-0.472-3.835-2.95c0-1.298-0.295-2.478-0.59-2.655
	c-1.298-0.826-0.53-3.303,1.83-5.663c2.831-2.832,11.563-8.673,15.28-10.207c1.474-0.59,3.126-1.298,3.657-1.593
	c0.59-0.295,1.534-0.53,2.065-0.53c0.59,0,2.124-0.414,3.422-0.886c0.912-0.332,1.837-0.627,2.773-0.885
	C-216.062,359.217-215.649,360.987-215.413,363.17z M-185.738,383.11c0.295,0.295,0.236,6.549-0.118,23.009l-0.236,10.03
	l-2.772,0.295c-1.475,0.177-3.068,0.118-3.481-0.118c-0.354-0.236-2.95-0.472-5.664-0.472c-2.773,0-7.434-0.413-10.443-0.944
	l-5.427-1.003l-0.06-14.868c0-11.268,0.178-15.044,0.709-15.516c0.413-0.354,1.947-0.708,3.363-0.885
	c3.244-0.295,23.716,0.118,24.13,0.472H-185.738z M-214.646,390.78c0.059,6.135-0.06,7.61-0.885,8.377
	c-0.944,0.944-2.832,0.944-19.115-0.118c-1.121-0.059-3.54-0.177-5.31-0.236l-3.244-0.118l3.835-3.54
	c6.785-6.253,9.322-6.902,13.57-3.54c1.12,0.886,2.713,1.948,3.421,2.36c0.767,0.414,2.42,1.712,3.717,2.832
	c1.298,1.18,2.537,1.888,2.773,1.652c0.649-0.649-6.667-7.138-9.912-8.731l-2.95-1.475l4.602-1.77
	c5.31-2.065,7.847-2.95,8.732-3.009C-214.94,383.405-214.704,385.706-214.646,390.78L-214.646,390.78z M-179.484,384.29
	c5.015,1.534,9.735,3.363,9.735,3.835c0,0.295-0.885,0.826-2.006,1.18c-2.596,0.826-8.378,4.602-10.797,7.08l-1.947,1.887v-7.432
	c0-8.437-0.236-8.083,5.015-6.549L-179.484,384.29z M-150.87,389.954c0,3.599-0.177,6.43-0.472,6.313
	c-0.236-0.118-2.301-1.298-4.543-2.596c-2.301-1.357-5.31-3.068-6.785-3.835c-1.416-0.767-2.596-1.652-2.655-2.006
	c0-0.531,2.36-1.298,6.077-1.888c1.003-0.177,1.888-0.53,1.888-0.826c0-0.59,3.127-1.593,5.192-1.652
	C-150.87,383.405-150.87,383.524-150.87,389.954z M-239.071,386.06c2.3,0.472,4.838,1.18,5.782,1.534l1.593,0.649l-2.773,1.77
	c-1.593,1.003-4.248,3.009-5.959,4.425c-1.71,1.475-3.186,2.595-3.304,2.477c-0.354-0.412-0.826-11.091-0.472-11.445
	C-243.791,385.057-243.791,385.057-239.071,386.06z M-162.847,391.134c2.42,1.12,4.366,2.478,4.543,3.068
	c0.118,0.53,1.475,1.593,3.009,2.242c1.534,0.648,2.596,1.356,2.478,1.533c-0.177,0.177-7.02,0.413-15.28,0.59l-14.927,0.236
	l2.655-2.713c2.596-2.655,11.387-7.611,12.684-7.14C-167.331,389.069-165.207,390.072-162.847,391.134z M-152.05,399.57
	c0,0.767-4.543,4.484-6.195,5.133c-0.944,0.354-2.3,0.885-2.95,1.18c-6.667,2.832-11.622,2.065-19.35-3.009l-4.013-2.655
	l6.077-0.295C-168.628,399.452-152.051,399.216-152.05,399.57L-152.05,399.57z M-219.602,401.045l2.95,0.354l-1.77,1.298
	c-1.003,0.767-2.124,1.593-2.478,1.947c-2.537,2.124-9.262,3.186-13.097,2.006c-2.891-0.826-6.962-3.658-8.319-5.782
	c-0.708-1.12-0.472-1.12,9.499-0.649C-227.154,400.455-221.254,400.809-219.602,401.045z M-214.705,407.358l-0.177,6.195
	l-2.065-0.413c-1.121-0.236-2.714-0.472-3.54-0.531c-0.826-0.06-2.3-0.531-3.363-1.062c-1.062-0.59-2.242-1.003-2.714-1.003
	c-0.472,0-1.71-0.413-2.772-1.003l-2.006-0.944l4.72-0.944c4.483-0.944,8.731-3.127,10.796-5.605
	c0.472-0.53,0.885-0.944,1.062-0.944C-214.646,401.104-214.587,403.936-214.705,407.358z M-180.192,404.526
	c3.599,2.36,5.074,3.009,8.378,3.599c3.303,0.59,8.967-0.118,11.563-1.475c0.944-0.472,1.711-0.649,1.711-0.354
	c0,0.826-11.386,6.372-14.75,7.198c-1.77,0.413-4.07,1.12-5.132,1.593c-1.062,0.413-2.832,0.767-4.012,0.767
	c-1.947,0-2.36-0.413-2.124-2.183c0.06-0.354-0.177-0.826-0.53-1.062c-0.768-0.472-0.768-3.658,0-4.13
	c0.353-0.177,0.53-1.829,0.412-3.599c-0.236-3.599-0.059-4.07,1.18-2.832C-183.024,402.52-181.549,403.641-180.192,404.526
	L-180.192,404.526z M-151.106,413.906c-0.177,6.785-0.472,13.334-0.59,14.632c-0.177,1.298-0.354,8.554-0.354,16.106
	c-0.06,7.493-0.177,13.687-0.295,13.687c-0.177,0-1.062-1.652-2.065-3.657c-1.003-2.006-2.537-4.78-3.422-6.195
	c-2.832-4.66-7.434-11.682-7.788-11.976c-0.177-0.177-1.416-1.593-2.655-3.245c-1.297-1.593-3.362-4.012-4.542-5.31
	c-1.18-1.298-2.95-3.48-3.953-4.838c-1.003-1.357-2.596-3.068-3.599-3.776c-1.888-1.475-2.242-2.3-0.944-2.3
	c2.006,0,14.041-4.484,18.88-6.962c2.89-1.534,6.43-4.012,7.964-5.487c1.475-1.475,2.95-2.714,3.245-2.773
	c0.295-0.059,0.354,5.074,0.118,12.095V413.906z M-232.522,409.07c3.776,1.888,9.321,4.13,12.212,4.956
	c2.95,0.885,5.428,1.888,5.546,2.242c0.118,0.354-1.711,2.182-4.071,4.07c-7.198,5.723-12.802,12.272-16.578,19.174
	c-0.767,1.416-2.183,4.071-3.127,5.841c-1.003,1.77-2.419,4.956-3.186,7.08s-1.534,4.012-1.71,4.247
	c-0.296,0.354-0.473-51.563-0.178-53.746c0.06-0.472,0.826-0.177,2.124,1.003C-240.369,404.881-236.357,407.241-232.522,409.07
	L-232.522,409.07z M-208.452,416.209l2.773,0.413l-0.059,2.418c-0.059,1.357,0.118,8.732,0.295,16.52l0.354,14.1l-1.947-0.413
	c-1.062-0.236-2.95-0.531-4.13-0.767l-2.241-0.354l-0.06-10.679c-0.117-11.327-0.058-19.646,0.119-20.884
	C-213.171,415.737-212.345,415.678-208.452,416.209z M-197.302,417.683c2.243,0.59,2.243,0.65,1.948,3.068
	c-0.177,1.357-0.472,8.437-0.65,15.694c-0.176,7.315-0.471,13.45-0.707,13.687c-0.295,0.236-2.065,0.53-4.012,0.649l-3.54,0.177
	l0.06-3.245c0.117-4.366,0.176-21.888,0.117-23.009c-0.059-0.472,0-2.419,0-4.307l0.118-3.363h2.242c1.18,0,3.186,0.295,4.425,0.65
	L-197.302,417.683z M-186.092,420.987c-0.59,4.248-0.649,19.764-0.059,22.773c0.531,2.478,0.826,2.242-5.132,4.13
	c-1.593,0.53-3.01,0.826-3.127,0.767c-0.118-0.118-0.177-6.785-0.177-14.808c0.059-9.97,0.236-14.868,0.708-15.399
	c0.472-0.53,2.006-0.826,4.484-0.826h3.775C-185.62,417.624-186.092,420.987-186.092,420.987z M-180.428,421.105
	c9.204,9.735,17.228,19.705,19.646,24.542c0.65,1.298,1.534,2.773,1.947,3.245c1.18,1.298,5.605,10.147,5.605,11.091
	c0,0.472-1.652-0.944-3.658-3.127c-2.124-2.241-4.72-4.424-6.077-5.014c-1.298-0.59-3.953-1.77-5.9-2.655
	c-4.365-2.065-9.085-3.186-13.038-3.245h-3.009l-0.413-3.127c-0.472-4.012-0.472-18.938,0-22.478
	c0.236-1.475,0.65-2.714,1.003-2.714c0.354,0,2.065,1.593,3.894,3.481V421.105z M-214.588,433.435v14.69l-3.657,0.119
	c-5.31,0.177-8.673,1.475-15.103,5.782c-5.959,4.07-5.959,4.07-8.614,7.256l-1.71,2.065l0.412-2.36
	c0.885-4.955,5.605-16.165,7.906-18.76c0.472-0.532,0.708-1.004,0.53-1.004c-1.002,0,4.72-7.905,8.614-11.8
	c1.534-1.592,2.773-3.126,2.773-3.421c0-0.354,1.416-1.652,3.127-3.009c1.652-1.298,3.48-2.714,3.953-3.245
	c0.472-0.472,1.062-0.885,1.357-0.885c0.236-0.059,0.413,6.55,0.413,14.573L-214.588,433.435z M-175.944,447.949
	c1.947,0.413,4.07,1.062,4.72,1.416c0.649,0.354,2.124,1.062,3.244,1.593c4.78,2.124,7.847,4.366,10.915,7.846
	c3.304,3.835,5.015,6.49,5.015,7.965c0,1.77-7.198,7.08-13.629,10.03c-1.77,0.766-4.424,2.005-6.017,2.713
	c-1.534,0.708-4.956,1.888-7.67,2.655l-4.838,1.416l-0.53-1.298c-0.768-1.888-0.532-19.94,0.294-20.472
	c0.347-0.233,0.472-0.684,0.295-1.062c-0.236-0.354-0.53-3.363-0.708-6.607c-0.236-4.602-0.118-6.136,0.472-6.49
	C-183.26,446.946-180.015,447.064-175.944,447.949z M-185.797,452.315c0.118,2.3,0.06,4.248-0.059,4.248
	c-0.177,0-2.065-1.18-4.188-2.655c-2.183-1.475-4.425-2.655-4.956-2.655c-0.885-0.06-0.826-0.118,0.118-0.65
	c1.829-1.12,7.08-2.89,8.023-2.713C-186.209,448.008-185.915,449.07-185.797,452.315z M-214.587,453.79
	c0,2.95-0.295,5.191-0.708,5.604c-0.472,0.472-0.472,0.885,0.059,1.534c0.472,0.59,0.53,0.944,0.059,1.24
	c-0.354,0.176-0.413,0.648-0.177,1.061c0.354,0.531,0.295,4.071-0.118,15.634c-0.06,1.357-0.236,2.596-0.413,2.832
	c-1.062,1.003-16.814-6.017-22.478-10.03c-5.487-3.893-6.136-4.719-5.074-6.607c1.003-1.947,6.903-7.316,11.15-10.265
	c5.015-3.363,8.26-4.838,11.8-5.31C-214.057,448.657-214.587,448.243-214.587,453.79z M-209.572,450.073
	c0.177,0.295,1.003,0.59,1.77,0.59c2.182,0,2.3,1.062,0.176,1.947c-1.061,0.472-2.595,1.534-3.421,2.36
	c-0.826,0.885-1.652,1.593-1.888,1.593c-0.295,0-0.472-1.593-0.472-3.54c0-3.54,0-3.54,1.71-3.54
	C-210.693,449.483-209.749,449.719-209.572,450.073z M-191.814,454.026c2.124,1.12,5.545,4.72,5.545,5.84
	c0,0.531-26.43-0.059-26.961-0.59c-0.59-0.59,3.304-4.306,5.958-5.663C-203.909,451.961-195.413,452.197-191.814,454.026z
	 M-195.59,461.4c6.785,0,9.321,0.177,9.321,0.708c0,1.121-4.07,5.015-6.43,6.136c-3.363,1.593-11.387,1.357-14.75-0.413
	c-1.474-0.767-3.008-1.711-3.421-2.183c-1.24-1.239-2.537-3.953-2.124-4.543c0.177-0.295,1.947-0.354,4.189-0.118
	C-206.682,461.223-200.723,461.4-195.59,461.4z M-208.982,468.303c1.297,0.708,2.595,1.239,2.95,1.239
	c0.294,0,1.061,0.413,1.651,0.826c1.003,0.767,0.826,0.944-2.065,2.3c-3.303,1.535-6.961,4.72-6.961,6.077
	c0,0.472-0.295,0.826-0.65,0.826c-0.59,0-0.648-10.265-0.058-13.451c0.295-1.357,0.295-1.357,1.534-0.236
	C-211.932,466.533-210.281,467.595-208.982,468.303z M-185.915,470.84c-0.177,3.304-0.472,6.135-0.649,6.253
	c-0.118,0.177-1.12-0.471-2.182-1.415c-1.121-0.944-2.95-2.36-4.19-3.186c-2.477-1.711-2.772-2.36-0.825-2.36
	c0.767,0,2.596-1.121,4.248-2.655c1.651-1.416,3.185-2.596,3.48-2.655C-185.738,464.822-185.679,467.359-185.915,470.84z
	 M-193.525,473.967c3.953,2.006,8.908,8.731,7.138,9.793c-1.534,1.003-5.9,1.24-10.265,0.59c-2.419-0.354-5.664-0.649-7.139-0.649
	c-2.36,0-9.44-1.12-10.147-1.534c-0.413-0.295,2.242-4.07,3.894-5.604c3.244-3.01,6.548-4.19,10.796-3.835
	C-197.124,472.846-194.588,473.436-193.525,473.967z"/>
</svg>
