<?xml version="1.0" encoding="iso-8859-1"?>
<!-- Generator: Adobe Illustrator 19.0.0, SVG Export Plug-In . SVG Version: 6.00 Build 0)  -->
<svg version="1.2" baseProfile="tiny" id="Layer_1" xmlns="http://www.w3.org/2000/svg" xmlns:xlink="http://www.w3.org/1999/xlink"
	 x="0px" y="0px" viewBox="-247 369.89 100 102" xml:space="preserve">
<title>face_00094</title>
<path d="M-194.4,372.948c-2.535,2.71-3.409,3.06-9.353,3.584c-12.5,1.224-21.066,6.031-31.643,17.745
	c-4.546,5.07-6.556,8.129-8.741,13.636c-2.71,6.73-2.885,7.692-2.798,17.57c0.088,12.15,1.574,17.308,7.43,26.311
	c4.458,6.818,8.829,10.927,15.385,14.248c8.479,4.196,16.084,5.595,28.846,5.158c10.402-0.35,11.8-0.612,19.493-3.584
	c11.8-4.633,13.811-5.77,17.22-9.79c2.798-3.235,3.847-5.07,8.13-14.86c2.447-5.508,3.759-15.036,3.321-24.913
	c-0.262-7.605-0.699-10.053-2.622-14.161c-6.906-14.948-20.63-24.65-37.675-26.574c-5.769-0.699-6.73-1.573-4.196-3.758
	c1.924-1.748,2.448-3.584,0.875-3.584C-191.165,369.976-192.826,371.287-194.4,372.948z M-198.945,381.689
	c-0.612,3.147,0.961,5.332,1.835,2.535c1.486-4.545,2.36-5.507,5.333-5.507c5.332,0,15.472,2.797,21.328,5.857
	c7.256,3.758,14.948,11.538,17.832,18.094c4.021,9.091,4.896,21.678,2.098,32.43c-1.923,7.518-6.38,17.133-9.615,20.892
	c-6.818,7.692-23.427,13.636-38.374,13.636c-15.21,0-26.136-4.108-34.965-13.112c-17.22-17.57-15.822-47.465,3.06-64.772
	c1.835-1.661,4.02-3.584,4.807-4.371c5.157-4.808,14.685-8.481,22.552-8.566l4.633-0.088L-198.945,381.689z M-182.861,387.459
	c-6.818,1.223-11.626,6.03-13.899,13.898c-1.311,4.72-0.175,5.332,9.091,5.332h8.042l0.962-2.535
	c1.223-3.322,4.72-5.594,7.517-4.895c6.119,1.573,4.808,16.171-1.486,16.171c-2.448,0-5.682-2.36-6.643-4.807
	c-0.7-1.836-1.137-1.923-7.605-1.574c-3.759,0.263-7.343,0.525-7.955,0.787c-1.398,0.437-1.136,15.996,0.262,16.171
	c0.525,0.088,1.312,0.175,1.749,0.35c0.524,0.087,1.398,0.262,2.01,0.262c0.525,0.088,1.05,1.137,1.05,2.273
	c0,1.573-0.7,2.185-2.798,2.797c-2.622,0.787-2.885,1.136-2.885,4.283c0,3.147,0.175,3.497,2.186,3.322
	c3.584-0.262,16.87,1.311,19.493,2.273l2.447,0.961l-2.71,2.36c-2.972,2.448-10.49,4.633-16.346,4.633
	c-4.37,0-4.633,0.874-2.01,6.032c3.496,6.905,9.44,9.178,17.133,6.468c10.839-3.846,19.842-16.958,22.64-33.13
	c0.786-4.282,1.048-9.352,0.786-11.625c-0.874-6.206-4.458-14.86-7.954-19.23c-4.021-4.983-4.983-5.77-9.878-8.305
	c-4.545-2.36-8.741-3.06-13.2-2.273L-182.861,387.459z M-171.323,390.867c7.867,3.497,14.86,13.724,16.696,24.389
	c2.01,11.975-2.273,26.66-10.664,36.8c-5.245,6.12-7.867,7.867-13.2,8.567c-5.681,0.786-9.615-1.05-12.063-5.682
	c-1.398-2.71-0.524-3.671,3.322-3.671c4.546,0,9.878-2.01,15.734-5.857l4.808-3.234l-3.846-1.749
	c-2.448-1.049-7.605-2.098-13.287-2.622c-8.13-0.787-9.44-1.049-9.44-2.448c0-0.874,0.874-1.748,2.185-2.097
	c2.972-0.7,4.196-2.535,3.584-5.245c-0.35-1.399-1.486-2.535-3.147-3.06c-2.36-0.874-2.535-1.223-2.797-6.643
	c-0.175-3.147-0.088-5.944,0.175-6.294c0.262-0.35,2.71-0.786,5.594-0.874c4.808-0.175,5.245-0.087,7.955,2.885
	c2.36,2.622,3.409,3.147,6.468,3.147c4.458,0,7.518-2.798,8.304-7.693c1.749-11.276-7.605-16.52-14.51-8.042l-2.71,3.497h-13.112
	l0.525-3.147c0.699-4.283,3.933-8.829,7.605-10.84C-183.124,388.77-176.218,388.77-171.323,390.867z M-219.225,389.557
	c-4.633,1.485-8.479,4.195-13.636,9.615c-7.343,7.867-10.229,15.646-10.229,28.06c0,10.663,4.371,21.677,10.84,27.36
	c6.468,5.594,10.751,7.43,18.356,7.866c6.556,0.263,7.343,0.175,10.84-2.185c3.67-2.36,7.867-8.916,6.818-10.577
	c-0.263-0.437-3.76-1.049-7.693-1.311c-8.741-0.525-16.87-2.972-15.56-4.546c1.312-1.573,7.081-2.884,15.648-3.583l7.255-0.612
	l-0.525-2.623c-0.262-1.398-0.524-3.147-0.524-3.758c0-0.7-0.874-1.224-2.098-1.224c-2.71,0-4.37-1.923-2.972-3.322
	c0.612-0.612,1.923-1.049,3.06-1.049c1.923,0,2.01-0.175,2.01-8.654c0-4.895-0.35-8.828-0.874-9.003
	c-0.437-0.175-3.759-0.175-7.43,0c-5.682,0.262-6.556,0.524-6.556,1.923c0,0.874-1.224,2.622-2.797,3.933
	c-4.284,3.672-9.091,1.749-11.014-4.458c-1.224-4.108,0.087-7.867,3.409-9.528c2.185-1.136,2.884-1.223,5.507-0.087
	c1.923,0.787,3.147,2.01,3.496,3.497c0.525,2.185,0.874,2.272,6.294,2.272c7.955,0,9.003-0.699,8.217-5.507
	c-0.787-5.244-3.497-8.741-8.916-11.45c-5.07-2.536-5.77-2.623-10.927-1.05L-219.225,389.557z M-209.435,391.917
	c4.021,1.573,6.731,4.807,7.43,8.653c0.874,4.633,0.263,5.245-5.07,5.245c-3.146,0-4.108-0.437-6.38-2.972
	c-4.546-5.157-10.578-4.983-13.9,0.524c-2.971,4.983-1.748,10.752,3.148,14.598c2.622,2.01,5.594,2.36,8.479,0.787
	c2.447-1.224,4.982-4.108,4.982-5.682c0-0.786,1.399-1.136,5.245-1.136h5.245v6.993c0,4.72-0.35,6.993-1.05,6.993
	c-1.66,0-4.195,2.797-4.195,4.545c0,1.05,1.049,2.098,3.06,2.972c1.922,0.787,3.059,1.836,3.059,2.885
	c0,1.399-0.962,1.66-6.294,2.185c-7.343,0.7-14.336,2.623-16.87,4.546c-1.749,1.311-1.749,1.398-0.088,2.535
	c2.36,1.835,9.79,3.846,16.783,4.545c6.993,0.787,7.78,2.01,4.37,6.12c-4.282,5.069-13.81,5.943-22.027,2.01
	c-10.84-5.245-16.958-16.784-17.046-31.906c0-9.091,1.661-15.647,5.42-21.154c3.759-5.42,11.451-11.888,16.259-13.549
	C-214.855,390.256-213.455,390.256-209.435,391.917L-209.435,391.917z M-175.78,405.814c-1.049,1.923,0.175,5.245,1.836,5.245
	c2.098,0,4.283-1.923,4.283-3.846C-169.661,403.891-174.206,402.842-175.78,405.814z M-221.148,408.35
	c-1.136,2.098,0.7,4.808,2.972,4.37c2.448-0.524,3.671-2.971,2.273-4.632C-217.477,406.165-220.099,406.339-221.148,408.35z"/>
</svg>
