<?xml version="1.0" encoding="iso-8859-1"?>
<!-- Generator: Adobe Illustrator 19.0.0, SVG Export Plug-In . SVG Version: 6.00 Build 0)  -->
<svg version="1.2" baseProfile="tiny" id="Layer_1" xmlns="http://www.w3.org/2000/svg" xmlns:xlink="http://www.w3.org/1999/xlink"
	 x="0px" y="0px" viewBox="-247 370.89 100 101" xml:space="preserve">
<title>face_00048</title>
<path d="M-211.871,372.896c-0.28,1.214-0.56,3.455-0.56,5.042c0,1.68-0.747,3.548-1.868,4.575
	c-2.707,2.428-15.22,5.042-24.463,5.135h-8.216v3.268c0,2.988,0.28,3.268,3.921,4.295c6.536,1.868,8.217,4.015,8.217,10.271
	c0,5.042,0.186,5.51,3.548,8.123c3.641,2.988,9.71,5.79,12.231,5.79c1.494,0,5.696-6.35,5.696-8.684
	c0-0.654,1.214-2.428,2.708-3.828l2.708-2.615l1.4,2.615c0.934,1.867,1.494,6.536,1.68,14.752l0.374,12.139l-9.617,7.936
	c-5.509,4.482-9.43,8.403-9.15,9.057s0.933,2.895,1.494,4.949c1.213,4.481,6.442,9.337,14.005,12.978
	c4.762,2.334,6.07,2.521,16.06,2.428c5.976,0,11.485-0.467,12.138-1.027c0.654-0.467,4.295-1.68,8.123-2.521
	c3.829-0.934,8.217-2.521,9.804-3.455c1.588-0.934,4.856-2.054,7.283-2.334c4.482-0.654,6.256-2.428,4.202-4.109
	c-0.654-0.56-4.295-3.08-8.123-5.602c-3.922-2.614-9.99-7.75-13.726-11.484c-5.882-6.07-6.816-7.47-8.683-13.726
	c-2.708-8.87-3.642-20.541-1.68-20.541c0.746,0,1.773,0.466,2.24,0.933c0.56,0.56,3.641,1.214,7.003,1.494
	c7.656,0.654,11.298-1.4,14.099-7.843c2.427-5.415,2.988-5.789,7.936-5.135l4.015,0.56v-3.735c0-4.388-1.027-4.949-9.15-4.949
	c-2.708,0-5.79-0.466-6.816-0.933c-0.934-0.56-5.322-1.68-9.71-2.428c-8.311-1.587-13.634-4.667-17.929-10.457
	c-1.866-2.521-2.239-2.615-11.203-2.802C-210.937,370.842-211.31,370.842-211.871,372.896z M-169.481,398.013
	c0,2.054,0,2.054-3.174,0.84c-2.615-0.934-3.175-3.548-1.214-5.509c0.934-0.934,1.4-0.747,2.8,0.934
	C-170.228,395.305-169.481,397.078-169.481,398.013z M-220.088,401.654c3.268,3.081,2.148,5.322-2.24,4.295
	c-1.588-0.467-2.241-1.214-2.241-2.801C-224.569,399.32-223.076,398.853-220.088,401.654z M-187.688,451.234
	c8.123,2.988,6.069,5.135-3.922,4.015c-6.349-0.654-8.776-2.241-6.816-4.575C-196.838,448.806-193.851,448.9-187.688,451.234z"/>
</svg>
