<?xml version="1.0" encoding="iso-8859-1"?>
<!-- Generator: Adobe Illustrator 19.0.0, SVG Export Plug-In . SVG Version: 6.00 Build 0)  -->
<svg version="1.2" baseProfile="tiny" id="Layer_1" xmlns="http://www.w3.org/2000/svg" xmlns:xlink="http://www.w3.org/1999/xlink"
	 x="0px" y="0px" viewBox="-247 366.89 100 109" xml:space="preserve">
<title>face_00001</title>
<path d="M-224.9,369.773c-0.986,1.563-1.89,2.96-1.973,3.125c-0.082,0.165-0.905-0.082-1.81-0.575
	c-1.397-0.74-1.808-0.576-2.466,1.562c-0.494,1.398-1.48,2.385-2.385,2.467c-8.882,0.411-8.882,0.494-9.128,4.934l-0.247,3.372
	l2.138-1.398c1.151-0.74,2.303-1.151,2.55-0.987c0.164,0.247-0.494,0.987-1.563,1.727c-1.563,0.987-1.892,1.81-1.563,3.454
	c0.247,1.48-0.246,3.043-1.48,4.77c-1.07,1.48-1.645,2.385-1.234,2.056c0.33-0.33,1.152,0,1.81,0.822
	c0.987,1.07,1.151,1.151,0.822,0.165c-0.247-0.823,0.165-1.316,1.151-1.398c0.823-0.083,1.563,0.164,1.563,0.493
	c0,1.316-3.536,7.895-4.605,8.553c-0.658,0.329-1.152,1.398-1.152,2.302c0,1.07-0.329,1.48-0.987,1.07
	c-0.575-0.33-0.657-0.247-0.329,0.328c0.33,0.494,0.987,0.74,1.563,0.494c0.658-0.247,0.987,0.822,1.07,3.29
	c0.164,5.098,0.575,5.838,4.44,8.305c2.385,1.48,3.29,2.632,3.29,4.112c0,2.138-0.576,2.385-2.797,1.562
	c-0.987-0.41-1.151-0.822-0.493-1.562c0.658-0.74,0.658-1.234,0-1.645c-0.494-0.329-0.74-0.082-0.658,0.411
	c0.164,0.576-0.493,1.398-1.398,1.892c-2.467,1.48-2.878,2.385-2.796,5.92c0.164,5.429,0,6.004-1.727,6.58
	c-1.316,0.411-1.646,1.233-1.646,4.194c0,1.974,0.33,3.618,0.823,3.618c0.41,0,0.74-0.41,0.575-0.904
	c-0.082-0.494,0.33-1.152,0.905-1.316c0.658-0.247,0.822,0.164,0.493,1.151c-0.41,1.398-0.41,1.398,0.494,0
	c0.493-0.74,0.658-1.809,0.41-2.22c-0.328-0.494-0.246-1.563,0-2.55c0.412-1.233,1.152-1.562,2.632-1.397
	c2.303,0.246,2.632,0.74,5.181,6.414c0.987,2.056,2.139,4.359,2.632,5.099c0.822,1.069,0.74,1.727-0.329,2.878
	c-1.645,1.891-3.29,6.826-2.303,6.826c0.412,0,0.576,0.575,0.33,1.233c-0.33,0.658-0.823,1.234-1.316,1.234
	c-0.412,0-0.494-0.33-0.247-0.823c0.247-0.41,0-0.575-0.658-0.329c-1.07,0.412-1.234,0.823-1.563,4.195
	c0,0.822-0.493,1.809-0.986,2.138c-0.576,0.493-0.33,0.575,0.575,0.246c0.823-0.246,2.303-0.493,3.207-0.493
	c1.48,0,1.563-0.165,0.576-1.316c-0.905-1.151-0.905-1.48,0.165-2.302c0.657-0.494,1.15-1.727,1.069-2.632
	c-0.083-1.645,0.164-1.727,2.22-0.987c3.207,1.07,6.003-0.411,5.181-2.878c-0.493-1.563-0.411-1.645,0.658-0.823
	c0.658,0.576,1.48,0.823,1.727,0.494c0.329-0.247,1.316,1.233,2.22,3.29c1.48,3.207,2.138,3.864,4.605,4.358
	c3.29,0.576,4.36,2.303,2.961,4.523c-1.48,2.303-1.234,3.7,0.987,6.25l1.974,2.303l13.898,0.082
	c7.565,0.082,14.391-0.165,15.213-0.576c0.823-0.493,1.152-1.316,0.905-2.385c-0.247-0.987-0.658-1.48-0.905-1.316
	c-0.246,0.247-1.315-0.74-2.384-2.22l-1.974-2.631l0.493,2.467c0.33,1.315,0.658,2.96,0.905,3.454
	c0.164,0.575-0.082,1.069-0.576,1.069c-0.987,0-2.385-3.372-1.809-4.359c0.247-0.411-0.329-1.233-1.234-1.891
	c-1.398-0.905-1.562-1.727-1.233-4.606c0.247-1.973,0.74-3.947,1.069-4.358c1.398-1.892,1.645-5.181,0.411-5.592
	c-0.74-0.33-0.987-0.083-0.74,0.575c0.247,0.576-0.164,1.07-0.905,1.07c-2.138,0-4.44-4.03-4.194-7.155
	c0.412-4.276,0.412-4.359,1.727-3.783c0.658,0.247,3.043,0.658,5.181,0.987c2.138,0.247,4.03,0.658,4.194,0.822
	c0.247,0.165,1.152-0.411,2.138-1.316c1.727-1.644,1.81-1.644,3.208-0.082c0.822,0.905,1.562,2.878,1.727,4.359
	c0.164,2.056,0.658,2.796,2.138,3.125c1.069,0.246,1.974,0.822,2.056,1.233c0,0.494,0.493,1.892,0.987,3.125
	c0.575,1.316,0.986,2.714,0.986,3.125c0,0.494,0.33,0.658,0.74,0.411c0.412-0.246,0.905,0.083,1.234,0.74
	c0.247,0.658,0,1.399-0.493,1.728c-0.576,0.41-0.411,0.986,0.575,1.727c1.398,0.986,1.398,1.069-0.904,1.15
	c-1.316,0.083-2.632,0.083-2.96,0c-0.412,0-0.576,0.165-0.494,0.576c0,0.33-0.576,1.974-1.316,3.783
	c-0.74,1.727-1.234,3.372-0.987,3.619s0.082,0.904-0.411,1.562c-1.398,1.645,1.645,1.398,3.7-0.329
	c1.645-1.398,1.645-1.398,0.576-0.082c-1.891,2.55,4.441,1.974,7.484-0.576c1.316-1.15,2.96-2.055,3.618-2.055
	c1.234,0,1.645-1.398,2.303-7.813c0.329-2.714,0.082-4.605-0.658-5.51c-0.576-0.822-1.234-1.233-1.48-1.069
	c-0.247,0.247-1.727-0.74-3.372-2.22c-2.303-2.22-2.796-3.125-2.467-5.017c0.411-2.138,1.48-2.96,2.056-1.48
	c0.164,0.411,1.069,0.082,2.138-0.74c1.563-1.316,1.645-1.645,0.658-2.714c-0.74-0.74-0.905-1.562-0.411-2.303
	c0.575-0.904,0.74-0.822,0.74,0.33c0,0.822,0.329,1.315,0.74,1.068c0.411-0.246,0.576-1.233,0.329-2.138
	c-0.247-0.904-0.082-1.644,0.411-1.644c0.411,0,0.987-0.74,1.234-1.727c0.329-1.07,0.822-1.48,1.48-1.07
	c0.658,0.33,0.822,0.247,0.411-0.328c-0.329-0.576-0.164-0.987,0.247-0.987c0.493,0,0.904-0.905,0.904-2.056
	c0-1.152-0.328-2.056-0.74-2.056c-0.41,0-1.398-1.645-2.138-3.619c-0.74-1.973-2.631-4.77-4.112-6.25
	c-2.138-2.138-2.631-3.042-2.138-4.44c0.411-0.905,0.411-2.467,0-3.372c-0.575-1.563-0.658-1.563-0.658-0.082
	c-0.082,1.562-0.164,1.562-1.891-0.083c-1.07-0.904-2.385-1.562-2.96-1.398c-0.576,0.083-0.659,0-0.165-0.246
	c0.493-0.165-0.165-1.398-1.398-2.714c-2.056-2.22-2.303-2.303-4.441-1.151c-2.55,1.315-4.359,1.562-3.7,0.493
	c0.246-0.411-0.33-0.658-1.316-0.576c-2.632,0.165-3.619,4.112-1.892,8.06c0.33,0.822,0.411,1.727,0.082,1.973
	c-0.246,0.247-0.082,0.987,0.412,1.645c0.74,0.74,0.657,1.07,0,1.07c-0.494,0-0.905,0.575-0.905,1.315
	c0,0.822,0.493,1.151,1.151,0.904c0.905-0.328,1.07,0,0.823,1.398c-0.905,5.017-0.823,9.129,0.164,11.02
	c1.398,2.714,0.822,3.29-1.233,1.398c-1.399-1.151-2.056-1.233-4.195-0.575c-4.605,1.644-7.565-2.96-4.276-6.662
	c0.987-1.233,1.07-1.48,0.165-0.986c-0.987,0.575-1.07,0.493-0.247-0.494c0.822-0.987,0.493-1.81-1.81-4.44
	c-2.795-3.126-3.7-5.346-2.055-5.346c0.493,0,0.822,0.493,0.822,1.151c0,1.48,6.086,2.467,8.224,1.316
	c0.904-0.493,1.645-1.398,1.645-2.056c0-1.316-3.866-4.276-7.402-5.427c-2.302-0.823-3.454-2.385-1.727-2.385
	c0.411,0,0.494-0.905,0.165-2.056c-0.33-1.48-1.81-2.796-4.606-4.194c-2.302-1.07-3.371-1.81-2.467-1.563
	c1.563,0.494,1.563,0.411,0.247-0.904c-1.233-1.234-1.48-1.234-3.29,0.164c-2.467,1.81-5.18,7.155-4.522,8.882
	c0.329,0.74-0.165,1.973-0.987,2.713c-2.22,2.22-3.208,4.359-2.714,6.168c0.164,0.823,0.576,1.398,0.905,1.234
	c0.246-0.165,1.727-0.74,3.207-1.316c1.398-0.576,2.631-1.563,2.631-2.138c0-0.658,0.412-1.398,0.823-1.645
	c1.233-0.74,0.987,5.016-0.247,6.332c-2.138,2.22-3.947,5.757-3.536,6.826c0.493,1.316-1.398,3.125-2.303,2.22
	c-0.329-0.329-0.575-0.246-0.493,0.247c0.41,2.056-0.165,2.878-2.056,2.878c-1.398,0-2.056,0.494-2.056,1.398
	c0,1.234-0.165,1.234-1.398,0c-1.316-1.069-1.645-1.069-2.632,0c-1.727,1.892-2.796,0.083-1.48-2.467
	c0.658-1.233,1.398-1.973,1.645-1.644c0.329,0.246,0.575-0.083,0.575-0.823s0.494-1.398,1.07-1.398
	c2.631-0.082,5.92-9.375,3.782-10.773c-0.575-0.329-0.986-1.727-0.904-3.125c0-1.974-0.576-3.043-2.303-4.358
	c-1.891-1.316-2.302-2.303-2.22-4.441c0.164-1.48,0.411-2.96,0.74-3.207c0.329-0.33,0.329-1.152,0.082-1.892
	c-0.329-0.822-0.164-1.069,0.411-0.658c0.658,0.33,0.987,0,0.987-0.904c0-0.823,0.987-1.974,2.303-2.55
	c1.316-0.575,2.878-1.891,3.454-3.043c0.904-1.727,0.904-2.22-0.247-3.536c-0.822-0.822-1.562-2.714-1.727-4.194
	c-0.164-1.398-0.822-3.207-1.48-4.03c-0.74-0.74-1.07-1.89-0.905-2.467c0.33-0.822,0.74-0.657,1.645,0.412
	c0.658,0.822,0.905,0.987,0.576,0.329c-0.412-0.823,0.246-0.658,2.22,0.41c1.563,0.823,3.043,1.892,3.29,2.221
	c0.246,0.411,0.74,0.658,1.069,0.658c1.809-0.247,2.138,0.247,2.138,3.454c0,1.974,0.493,4.03,1.069,4.605
	c0.822,0.823,0.658,0.905-0.576,0.411c-1.151-0.41-1.398-0.246-1.151,0.987c0.164,0.987,1.069,1.645,2.55,1.81
	c1.233,0.164,2.055,0.657,1.808,1.069c-0.329,0.41,0.083,0.74,0.74,0.74c0.74,0,1.316-0.576,1.316-1.234s0.33-1.233,0.658-1.233
	c0.576,0,2.632-5.51,3.948-10.527c0.164-0.493,0.822-0.987,1.562-0.987c1.563,0,4.605-2.549,4.03-3.453
	c-0.247-0.33-0.083-0.658,0.246-0.658c0.658,0,2.632,1.973,3.783,3.865c0.823,1.233-1.48,6.743-3.29,8.059
	c-1.233,0.905-1.068,1.316,1.646,4.03c1.644,1.644,3.289,2.96,3.7,2.96s1.234,0.494,1.727,1.151c0.74,0.905,1.48,0.987,3.29,0.247
	c2.138-0.74,2.796-0.576,6.579,2.22c2.302,1.728,4.194,2.879,4.194,2.632c0-0.164,0.987,0.165,2.22,0.74
	c1.974,1.07,2.467,0.987,3.947-0.246c2.385-1.974,3.701-3.619,3.701-4.606c0-0.493-0.329-0.41-0.74,0.165
	c-0.576,0.904-0.74,0.904-1.151-0.165c-0.33-0.74-1.234-1.316-2.056-1.316c-1.48,0-3.454-2.96-3.454-5.18
	c0-1.152,7.237-3.125,7.895-2.139c0.164,0.33-0.165,0.823-0.658,0.987c-0.823,0.33-0.823,0.494,0,0.494
	c0.575,0.082,1.233-0.576,1.562-1.398c0.247-0.74,1.151-1.974,2.056-2.632c1.398-1.233,1.316-1.48-2.632-5.592
	c-2.22-2.385-4.111-4.852-4.111-5.51c0-0.658-0.576-1.233-1.234-1.233s-1.233,0.493-1.233,0.986c0,0.74-0.247,0.823-0.658,0.165
	c-0.33-0.494-1.48-1.398-2.55-1.974c-1.562-0.822-2.056-0.822-2.631,0.082c-0.411,0.74-0.74,0.823-0.74,0.247
	c0-0.576-0.987-1.233-2.22-1.562c-1.234-0.247-2.55-0.987-2.88-1.48c-0.41-0.659-0.986-0.494-2.137,0.493
	c-0.823,0.74-1.974,1.398-2.55,1.398c-0.575,0-0.904,0.493-0.658,1.151c0.33,0.822,0.083,1.07-0.74,0.74
	c-0.658-0.246-0.986-0.658-0.74-0.904c0.247-0.247-0.246-1.152-0.987-2.056c-0.904-0.987-0.986-1.398-0.329-0.987
	c0.905,0.493,1.07,0.164,0.658-1.892c-0.493-2.384-0.41-2.549,1.07-1.644c0.822,0.575,1.397,1.151,1.233,1.48
	c-0.165,0.247,0.576,0.493,1.645,0.493c1.644,0.165,1.891-0.164,1.562-1.973c-0.247-1.234-0.575-2.303-0.74-2.467
	c-0.164-0.165-3.372-0.247-7.155-0.247c-3.7,0.082-7.894,0.082-9.292,0.082c-1.315-0.082-8.881-0.164-16.693-0.246l-14.227-0.165
	L-224.9,369.773z M-221.445,370.513c0,0.412-0.494,1.152-1.152,1.645c-0.987,0.822-1.151,0.74-0.904-0.493
	c0.164-0.823,0.329-1.563,0.329-1.727C-223.008,369.444-221.445,369.855-221.445,370.513z M-190.607,373.063
	c0.247,0.41,0.083,0.822-0.329,0.822c-0.493,0-0.904-0.411-0.904-0.822c0-0.494,0.164-0.823,0.329-0.823
	C-191.264,372.24-190.853,372.57-190.607,373.063z M-186.084,373.556c0,0.658-0.41,1.151-0.986,1.151
	c-0.494,0-0.33,0.658,0.493,1.563c1.234,1.398,1.234,1.562,0.082,2.056c-0.822,0.247-1.151,0.164-0.822-0.411
	c0.329-0.412,0.247-1.234-0.247-1.81c-1.562-2.138-1.645-3.536-0.082-3.618c0.905-0.082,1.562,0.411,1.562,1.07V373.556z
	 M-231.314,388.852c0,0.823,0.165,0.823,0.74,0c0.576-0.904,0.823-0.822,1.234,0.247c0.658,1.81-0.33,3.372-1.234,1.974
	c-0.575-0.905-0.74-0.905-0.74,0.164c0,1.07-0.74,1.398-2.878,1.398c-3.372,0-4.194-0.822-2.385-2.385
	c1.07-0.822,1.398-0.822,2.056,0.165c0.576,0.904,0.74,0.74,0.74-0.74C-233.781,387.783-231.314,386.961-231.314,388.852z
	 M-193.484,410.069c0,0.658-1.892,1.727-3.784,2.056c-0.658,0.165-1.069-2.796-0.41-3.372
	C-197.268,408.343-193.485,409.576-193.484,410.069L-193.484,410.069z M-236.577,414.099c-0.329,0.493-1.151,0.576-1.891,0.329
	c-1.234-0.494-1.152-0.576,0.246-1.07c1.81-0.74,2.385-0.493,1.645,0.74V414.099z M-237.07,416.155c0,0.247-0.33,0.658-0.823,0.904
	c-0.41,0.247-0.822,0.083-0.822-0.329c0-0.493,0.411-0.904,0.822-0.904C-237.399,415.826-237.07,415.99-237.07,416.155z
	 M-232.959,418.622c0,0.247-0.329,0.658-0.822,0.905c-0.411,0.246-0.822,0.082-0.822-0.33c0-0.493,0.41-0.904,0.822-0.904
	C-233.287,418.293-232.959,418.457-232.959,418.622z M-239.126,430.628c0.246,0.412,0.082,0.823-0.33,0.823
	c-0.493,0-0.904-0.411-0.904-0.823c0-0.493,0.165-0.822,0.33-0.822C-239.784,429.806-239.373,430.136-239.126,430.628z
	 M-202.12,433.096c0.247,0.41,0.165,0.822-0.329,0.822c-0.41,0-1.069-0.411-1.315-0.822c-0.247-0.494-0.165-0.823,0.328-0.823
	C-203.024,432.273-202.366,432.603-202.12,433.096z M-216.429,449.872c0.493,0.493,0.74,0.411,0.822-0.165
	c0.247-2.384,0.33-2.631,0.987-2.631h1.316c0.987,0,0.74,4.276-0.164,5.016c-0.412,0.247-1.563,0.33-2.632,0.165
	c-1.891-0.411-2.96-2.879-2.138-5.181c0.329-0.905,0.493-0.823,0.74,0.411C-217.334,448.392-216.84,449.461-216.429,449.872
	L-216.429,449.872z M-209.439,451.352c-0.164,0.576-0.74,2.056-1.316,3.29c-0.904,1.891-1.48,2.22-3.207,1.727
	c-2.631-0.576-3.29-1.152-1.974-1.645c0.576-0.165,2.22-1.234,3.701-2.303c1.48-1.069,2.796-1.973,2.878-1.973
	C-209.274,450.365-209.357,450.858-209.439,451.352z M-212.81,459.33c-0.246,0.494-0.904,0.905-1.398,0.905
	c-0.493,0-0.493-0.494,0.165-1.234C-212.892,457.603-211.905,457.932-212.81,459.33L-212.81,459.33z M-171.773,468.13
	c0.246,0.657,0.164,0.986-0.33,0.74c-0.493-0.247-0.822-0.823-0.822-1.316c0-1.151,0.576-0.905,1.152,0.575V468.13z
	 M-177.45,373.884c-1.315,0.576-1.398,0.74-0.246,0.74c0.74,0.082,1.644-0.329,1.891-0.74
	C-175.229,372.979-175.229,372.979-177.45,373.884z M-148.913,390.414c0.082,1.069,0.657,1.891,1.069,1.727
	c1.233-0.247,0.986-2.879-0.247-3.29C-148.831,388.604-149.161,389.098-148.913,390.414z M-202.779,398.308
	c-1.15,1.07-0.493,1.48,2.55,1.645c3.042,0.165,3.042,0.165,0.987-0.987C-201.627,397.651-202.039,397.568-202.779,398.308z
	 M-246.116,411.714c0,1.48,0.328,2.385,0.822,2.056c0.493-0.247,0.822-1.234,0.822-2.056c0-0.822-0.329-1.81-0.822-2.056
	C-245.788,409.329-246.116,410.234-246.116,411.714z M-160.92,447.98c-1.727,1.398-1.974,1.974-1.234,2.879
	c0.494,0.658,0.658,1.809,0.412,2.55c-0.33,0.904,0.329,0.575,1.562-0.823c1.151-1.234,2.056-2.056,2.056-1.727
	c0,0.41,0.411,0.246,0.905-0.247c0.986-0.987,0.246-4.359-0.823-4.359C-158.453,446.253-159.687,446.993-160.92,447.98z
	 M-157.302,448.72c0,0.412-0.164,0.823-0.329,0.823c-0.246,0-0.657-0.411-0.904-0.822c-0.247-0.494-0.082-0.823,0.329-0.823
	c0.493,0,0.904,0.33,0.904,0.823V448.72z M-192.663,447.898c0,0.494,0.575,0.823,1.233,0.823c0.658,0,1.234-0.165,1.234-0.33
	c0-0.164-0.576-0.493-1.234-0.822C-192.088,447.323-192.663,447.487-192.663,447.898L-192.663,447.898z M-246.117,449.708
	c0,0.328,0.41,0.657,0.822,0.657c0.493,0,0.822,0.658,0.905,1.398c0,1.234,0.164,1.234,0.74-0.164
	c1.069-2.467,0.987-2.796-0.823-2.632c-0.904,0.083-1.644,0.411-1.644,0.74V449.708z M-241.183,449.872
	c0,0.74,0.41,1.316,0.822,1.316c0.494,0,0.823-0.33,0.823-0.74c0-0.494-0.33-1.07-0.823-1.316
	C-240.772,448.885-241.183,449.214-241.183,449.872z M-187.4,450.448c-0.33,0.575-0.165,1.233,0.329,1.398
	c0.657,0.164,0.74,0.74,0.164,1.727c-0.74,1.48-0.329,2.549,0.987,2.549c0.74,0,0.411-5.51-0.411-6.25
	c-0.247-0.247-0.658,0-1.07,0.576H-187.4z M-184.029,454.395c-0.246,0.411-0.082,0.987,0.33,1.233
	c0.41,0.33,0.986,0.165,1.315-0.246c0.247-0.494,1.07-0.576,1.81-0.33c0.904,0.33,1.15,0.248,0.74-0.41
	C-180.574,453.49-183.289,453.326-184.029,454.395z M-152.367,455.3c-0.74,0.493-0.823,0.822-0.247,0.822
	c0.493,0,1.233-0.411,1.48-0.822C-150.476,454.313-150.804,454.313-152.367,455.3z M-241.593,467.635
	c0.246,0.411,0.657,0.822,0.904,0.822c0.165,0,0.33-0.41,0.33-0.822c0-0.493-0.412-0.822-0.905-0.822
	C-241.676,466.813-241.84,467.142-241.593,467.635L-241.593,467.635z"/>
</svg>
