<?xml version="1.0" encoding="iso-8859-1"?>
<!-- Generator: Adobe Illustrator 19.0.0, SVG Export Plug-In . SVG Version: 6.00 Build 0)  -->
<svg version="1.2" baseProfile="tiny" id="Layer_1" xmlns="http://www.w3.org/2000/svg" xmlns:xlink="http://www.w3.org/1999/xlink"
	 x="0px" y="0px" viewBox="-247 368.89 100 105" xml:space="preserve">
<title>face_00125</title>
<path d="M-196.467,369.506c-0.545,0.273-0.981,1.09-0.981,1.745c0,2.726-6.762,14.013-8.343,14.013c-0.382,0-1.145-0.381-1.69-0.818
	c-2.018-1.526-6.87-2.508-12.268-2.508c-6.925,0.055-12.16,1.527-17.122,4.798l-3.762,2.509l-1.363-1.745
	c-0.818-1.036-1.8-1.69-2.672-1.69c-1.854,0-1.69,1.472,0.382,3.598l1.745,1.8l-2.29,2.562c-2.454,2.781-2.727,3.708-1.309,4.253
	c0.6,0.273,1.69-0.436,3.49-2.18l2.562-2.564l3.49,2.127c4.69,2.944,6.598,3.49,11.669,3.49c6.27,0,10.85-1.745,16.52-6.38
	c1.582-1.254,3.218-2.344,3.545-2.344c0.654,0,1.636,1.526,4.471,6.815c1.418,2.563,3.108,3.108,4.09,1.254
	c0.817-1.58,5.343-6.979,5.834-6.979c0.218,0,0.981,0.872,1.69,1.908c1.963,2.89,3.708,4.417,6.325,5.671
	c3.054,1.418,5.725,1.472,10.087,0c4.635-1.527,8.07-3.762,13.032-8.56c1.309-1.255,2.617-2.29,2.89-2.29
	c0.654,0,5.18,3.107,6.543,4.47c1.145,1.146,1.745,1.255,2.563,0.273c0.817-0.981,0.054-1.854-4.199-4.744
	c-2.18-1.526-3.217-2.562-2.944-2.944c7.143-9.215,6.924-8.888,5.616-9.542c-1.254-0.709-2.78-0.273-2.78,0.818
	c0,0.382-0.928,1.636-2.073,2.78c-1.09,1.146-2.399,2.673-2.89,3.436l-0.872,1.309l-4.035-1.582
	c-3.708-1.526-4.526-1.635-10.578-1.58c-5.398,0.054-7.088,0.272-9.815,1.308c-1.799,0.654-3.653,1.526-4.09,1.854
	c-2.126,1.58-3.162,1.908-3.707,1.254c-0.763-0.982-2.672-7.307-3.38-11.287c-0.6-3.326-1.309-4.907-2.127-4.907
	C-195.376,368.907-195.976,369.179-196.467,369.506L-196.467,369.506z M-194.995,379.648c0.218,1.145,0.982,3.49,1.69,5.29
	l1.364,3.162l-2.89,3.162c-1.581,1.745-3,3.163-3.163,3.217c-0.163,0-0.709-0.763-1.254-1.745c-0.545-0.981-1.581-2.508-2.344-3.38
	c-1.418-1.69-1.582-2.236-0.764-2.727c0.273-0.163,1.8-2.29,3.38-4.689c1.528-2.344,3-4.307,3.218-4.307
	S-195.213,378.558-194.995,379.648z M-164.405,383.901c1.471,0.436,3.162,1.145,3.761,1.636c1.036,0.818,1.036,0.872-1.363,3.053
	c-1.363,1.2-3.544,2.945-4.907,3.926c-1.363,0.927-2.78,2.018-3.163,2.4c-0.817,0.817-5.78,2.344-7.579,2.344
	c-2.78,0-7.306-3.38-9.324-6.98c-0.6-1.035-0.6-1.472-0.054-2.126c0.872-0.981,5.452-3.326,8.397-4.253
	c3.053-0.981,10.96-0.981,14.231,0H-164.405z M-212.443,385.264c1.527,0.327,3.217,0.982,3.762,1.363
	c1.036,0.818,1.036,0.873-0.545,2.509c-4.308,4.525-10.087,7.033-16.358,7.033c-3.326,0-4.416-0.272-7.088-1.69
	c-1.8-0.872-3.599-2.017-4.035-2.454c-0.709-0.763-0.6-1.036,0.927-2.344c3.599-3,6.761-4.199,14.068-5.18
	C-219.532,384.228-215.824,384.501-212.443,385.264z M-176.838,386.736c-1.363,0.328-2.344,3.217-1.636,4.799
	c0.982,2.126,2.509,2.617,4.144,1.308c1.745-1.363,1.963-4.198,0.437-5.561C-174.929,386.355-175.202,386.3-176.838,386.736z
	 M-225.638,387.718c-1.472,0.6-1.8,1.09-1.8,2.399c0,1.8,1.8,3.871,3.272,3.871c2.617,0,3.653-4.852,1.363-6.325
	C-223.675,387.118-224.221,387.118-225.638,387.718z M-209.989,396.769c0,0.327,0.381,1.418,0.818,2.454
	c0.517,1.222,1.043,2.44,1.58,3.653c0.437,0.981,0.928,2.4,1.091,3.108c0.218,0.763,0.71,2.944,1.145,4.907
	c3.272,14.013-0.109,27.917-9.433,39.204l-1.58,1.854l-6.053-1.2c-7.034-1.363-12.05-1.853-13.086-1.2
	c-0.437,0.274-0.655,0.928-0.546,1.473c0.164,0.873,0.873,1.09,5.344,1.418c2.835,0.218,6.652,0.654,8.397,1.036l3.271,0.654
	l-2.835,2.617c-1.527,1.418-4.035,3.108-5.507,3.817c-1.527,0.654-2.835,1.527-2.999,1.963c-0.436,1.145,0.273,2.345,1.418,2.345
	c1.145,0,5.725-3,10.25-6.762c2.618-2.235,3.817-2.944,3.817-2.344c0,0.109-2.072,2.344-4.634,4.962
	c-3.654,3.707-4.635,5.07-4.635,6.325c0,1.854,2.017,2.89,2.835,1.417c0.764-1.363,5.453-6.543,7.307-8.179
	c0.981-0.763,2.29-1.417,2.944-1.417c1.472,0,6.27,4.744,10.578,10.523c3.762,5.017,4.962,5.344,6.325,1.581
	c0.872-2.29,5.943-9.923,6.652-9.923c0.218,0,1.854,1.2,3.653,2.726c3.49,2.89,4.635,3.272,5.18,1.854
	c0.437-1.145-0.654-2.345-4.09-4.69c-1.471-0.98-2.67-2.071-2.67-2.344c0-0.327,0.98-1.527,2.18-2.726l2.127-2.127l2.89,1.418
	c6.27,2.999,13.358,4.362,19.792,3.708c2.454-0.273,2.727-0.382,2.727-1.636v-1.363l-6.816-0.055
	c-5.398-0.054-7.361-0.272-9.542-1.145c-4.09-1.58-5.889-2.562-6.052-3.162c-0.382-1.527,10.36-7.525,14.667-8.179
	c2.78-0.436,4.144-1.745,2.999-2.89c-2.018-2.017-10.524,1.09-17.994,6.489l-3.653,2.617l-2.944-3.217
	c-3.217-3.435-5.507-7.688-6.761-12.541c-0.71-2.726-0.818-14.504-0.164-18.266c0.872-5.344,3.163-13.25,4.471-15.649
	c1.254-2.235,1.036-3.708-0.6-3.708c-1.09,0-3.326,2.618-3.326,3.926c0,0.436-0.218,0.982-0.49,1.254
	c-0.437,0.546-2.018,6.925-3.326,13.468c-0.328,1.69-0.546,6.216-0.491,10.033c0.109,11.069,2.235,16.957,8.342,23.555l3.217,3.435
	l-2.344,2.4c-2.29,2.344-3.926,3.053-4.58,1.962c-0.164-0.218-2.072-0.981-4.199-1.69c-3.326-1.036-4.635-1.145-8.615-0.873
	c-2.563,0.164-5.616,0.437-6.707,0.655c-3.271,0.545-3.108-0.71,0.546-5.616c2.944-4.035,6.652-10.742,6.652-12.16
	c0-0.272,0.218-0.981,0.49-1.526c1.255-2.345,1.963-7.907,1.909-14.559c-0.11-7.797-1.036-12.377-4.09-20.065
	c-1.58-3.872-1.799-4.199-3.271-4.199C-209.281,396.169-209.989,396.442-209.989,396.769L-209.989,396.769z M-197.394,456.965
	c2.236,0.328,5.943,2.072,5.943,2.781c0,0.327-0.327,0.927-0.763,1.254c-0.436,0.327-1.581,1.963-2.563,3.599
	c-1.036,1.636-2.072,2.999-2.399,2.999c-0.272,0-2.017-1.745-3.817-3.871c-1.799-2.127-3.925-4.362-4.743-4.962
	c-0.873-0.6-1.527-1.254-1.527-1.527C-207.263,456.366-202.247,456.202-197.394,456.965L-197.394,456.965z M-195.376,443.17
	c-1.636,0.546-1.909,1.8-0.764,3.272c0.982,1.309,2.672,1.254,3.871-0.11c0.818-0.926,0.873-1.308,0.382-2.453
	c-0.654-1.472-1.2-1.581-3.49-0.709H-195.376z M-205.846,443.88c-1.144,1.144-1.09,2.071,0.11,3.162
	c1.472,1.308,2.78,1.145,3.38-0.436c0.545-1.364,0.218-3-0.545-3c-0.273,0-0.818-0.163-1.254-0.327c-0.436-0.163-1.2,0.11-1.69,0.6
	L-205.846,443.88z"/>
</svg>
