<?xml version="1.0" encoding="iso-8859-1"?>
<!-- Generator: Adobe Illustrator 19.0.0, SVG Export Plug-In . SVG Version: 6.00 Build 0)  -->
<svg version="1.2" baseProfile="tiny" id="Layer_1" xmlns="http://www.w3.org/2000/svg" xmlns:xlink="http://www.w3.org/1999/xlink"
	 x="0px" y="0px" viewBox="-247 362.89 100 117" xml:space="preserve">
<title>face_00068</title>
<path d="M-153.158,363.653c-0.396,0.396-0.679,0.962-0.679,1.302c0,0.453-2.039,0.85-5.776,1.076
	c-3.227,0.226-8.494,0.68-11.778,0.963c-18.856,1.642-64.043,1.019-69.932-0.964c-2.547-0.85-4.643-1.02-4.983-0.395
	c-0.17,0.283-0.34,19.818-0.453,43.488l-0.226,43.035l5.266,2.604c5.492,2.718,6.625,3.228,13.986,6.173
	c2.492,1.019,5.55,2.265,6.795,2.83c1.246,0.567,4.587,2.04,7.361,3.285c2.832,1.246,6.569,2.888,8.324,3.737
	c1.756,0.793,3.341,1.473,3.511,1.473c0.17,0,2.208,0.849,4.473,1.925c2.265,1.02,4.644,2.038,5.323,2.265
	c0.68,0.226,1.642,1.02,2.152,1.812c0.793,1.246,1.246,1.416,3.85,1.246c2.549-0.17,2.945-0.34,3.115-1.416
	c0.226-1.416,3.34-4.36,11.721-10.929c3.341-2.661,6.399-5.096,6.739-5.379c0.566-0.51,4.87-3.964,7.361-5.946
	c0.623-0.453,2.152-1.812,3.454-2.944c1.302-1.19,2.661-2.152,2.945-2.152c0.68,0,3.567-3.624,3.567-4.417
	c0-0.283-0.396-0.849-0.85-1.245c-0.736-0.623-0.849-2.945-0.679-15.799c0.057-8.267-0.113-22.707-0.396-32.05
	c-0.51-15.345-0.567-25.82-0.34-29.728C-149.024,363.766-151.176,361.671-153.158,363.653L-153.158,363.653z M-153.498,373.166
	c0.057,2.321,0.397,13.646,0.793,25.198c0.397,11.495,0.567,25.651,0.34,31.427c-0.17,5.776-0.283,11.948-0.34,13.703v3.228
	l-2.944,0.283c-3.51,0.34-17.78,0.736-46.036,1.246c-11.212,0.226-21.008,0.453-21.801,0.51c-0.793,0.112-5.55,0.396-10.532,0.622
	l-9.174,0.396l-0.17-3.284c-0.113-1.812-0.056-5.606,0.114-8.437c0.17-2.831,0.396-19.422,0.453-36.863
	c0.056-17.384,0.17-31.71,0.226-31.767c0.057-0.056,2.775,0.17,6.06,0.51c5.888,0.566,5.945,0.566,6.794,2.322
	c1.303,2.661,4.19,4.303,7.531,4.303c2.718,0,3.058-0.17,5.606-2.831l2.718-2.832h28.936l1.755,2.038
	c2.322,2.662,4.474,3.68,7.871,3.737c3.567,0.114,7.248-2.265,8.21-5.21l0.68-1.981l4.983-0.34c8.55-0.566,7.871-0.906,7.928,4.02
	L-153.498,373.166z M-157.8,451.082c0,0.396-0.793,1.132-4.813,4.473c-1.869,1.586-3.51,2.945-3.68,3.171
	c-0.17,0.17-1.303,1.02-2.549,1.982c-1.245,0.906-2.774,2.095-3.397,2.662c-0.623,0.622-2.662,2.265-4.53,3.68
	c-1.869,1.416-4.36,3.398-5.493,4.417c-4.417,3.907-4.473,3.907-8.55,1.982c-2.039-0.963-3.794-1.756-4.02-1.756
	c-0.17,0-5.833-2.434-12.628-5.436c-5.508-2.428-11.039-4.807-16.591-7.134c-6.342-2.549-11.891-5.097-11.891-5.55
	c0-0.226,3.227-0.566,7.19-0.792c4.021-0.227,8.381-0.453,9.797-0.623c1.416-0.114,13.533-0.397,26.897-0.567
	c13.42-0.226,24.405-0.453,24.519-0.566C-167.199,450.742-157.799,450.799-157.8,451.082L-157.8,451.082z M-203.95,431.49
	c-0.396,1.359,0.567,3.397,1.7,3.397c1.302,0,2.604-2.265,1.925-3.51C-201.061,430.017-203.496,430.017-203.95,431.49
	L-203.95,431.49z M-198.06,431.546c-0.51,1.02-0.397,1.416,0.566,2.435c0.963,0.906,1.416,1.02,2.208,0.566
	c1.246-0.792,1.53-2.321,0.68-3.34c-1.02-1.246-2.718-1.02-3.454,0.34V431.546z"/>
</svg>
