<?xml version="1.0" encoding="iso-8859-1"?>
<!-- Generator: Adobe Illustrator 19.0.0, SVG Export Plug-In . SVG Version: 6.00 Build 0)  -->
<svg version="1.2" baseProfile="tiny" id="Layer_1" xmlns="http://www.w3.org/2000/svg" xmlns:xlink="http://www.w3.org/1999/xlink"
	 x="0px" y="0px" viewBox="-247 371.89 100 98" xml:space="preserve">
<title>face_00044</title>
<path d="M-216.776,372.819c-14.086,1.777-12.817,4.06,1.523,2.919c10.913-0.762,11.421-0.762,11.421,1.776
	c0,2.285-0.761,2.538-8.249,2.538c-4.568,0-12.056,0.889-16.624,2.03c-6.853,1.778-7.995,2.412-6.6,3.808
	c1.143,1.142,3.427,1.396,7.108,0.888c3.045-0.38,4.949-1.142,4.314-1.523c-0.761-0.38,3.3-0.888,8.757-1.015
	c9.264-0.254,10.025-0.127,10.025,2.285c0,2.284-0.635,2.41-5.964,1.776c-4.442-0.507-7.742-0.127-12.437,1.777l-6.345,2.538
	l4.822,0.127c3.934,0,4.696,0.38,4.696,2.665c0,2.538-0.508,2.665-6.473,1.903c-4.314-0.634-6.218-0.507-5.583,0.508
	c0.38,0.634,1.776,1.269,3.045,1.269c1.27,0,2.665,0.38,3.173,0.888c1.142,1.142,4.95,1.777,14.086,2.03l7.615,0.255l0.38,6.599
	c0.254,3.68,0.127,6.725-0.254,6.725c-0.38,0-3.045-2.284-5.964-5.076c-5.33-5.203-11.294-7.614-18.655-7.614
	c-3.3,0-5.457,1.27-10.28,6.091c-5.963,5.965-7.739,10.154-7.739,18.02c0,6.6,11.929,16.752,22.842,19.417
	c1.904,0.508,4.823,3.3,7.36,6.98c5.458,8.122,13.326,16.116,13.96,14.213c0.254-0.762-3.045-5.965-7.36-11.548
	c-7.36-9.645-7.741-10.28-5.457-12.056c3.807-2.919,8.376-1.65,9.518,2.665c2.538,9.518,10.279,12.944,20.685,9.01
	c4.442-1.777,5.965-3.173,7.234-6.599c2.284-6.218,9.898-7.741,9.898-1.904c0,2.538-5.838,11.93-10.66,17.132
	c-3.553,3.68-3.426,6.092,0.127,3.808c2.284-1.396,12.944-18.02,13.071-20.305c0-0.888,2.411-2.157,5.457-2.919
	c7.36-1.903,7.995-2.411,11.04-9.645c2.285-5.203,2.539-7.614,1.777-14.34c-0.761-7.614-1.142-8.248-5.964-11.802
	c-2.792-2.03-7.36-4.06-10.026-4.441c-2.665-0.508-4.822-1.27-4.822-1.777c0-0.508,1.777-2.411,3.934-4.315l3.934-3.553
	l-4.568-2.411c-3.3-1.65-7.107-2.411-13.452-2.411c-8.249,0-8.884-0.254-8.884-2.665c0-2.665,0.381-2.792,8.63-2.03
	c4.695,0.38,11.421,1.141,14.848,1.649c4.822,0.635,5.964,0.508,4.949-0.634c-1.777-1.904-12.564-4.696-22.335-5.838
	c-6.092-0.635-7.36-1.27-7.36-3.3c0-2.157,1.015-2.41,11.801-2.538c9.138-0.127,10.787-0.38,7.868-1.269
	c-5.584-1.65-36.549-2.284-47.843-0.76V372.819z M-191.649,376.499c0.507,0.762,1.015,8.883,1.269,18.02
	c0.254,9.137,0.761,18.528,1.142,20.686l0.761,4.188h-5.71c-5.584,0-5.711-0.127-6.726-4.823
	c-0.508-2.538-1.015-12.056-0.889-20.939c0-12.817,0.381-16.497,1.904-17.513C-197.36,374.596-192.791,374.722-191.649,376.499z
	 M-205.355,395.027c0.38,3.426,0,4.061-2.157,4.061c-2.03,0-2.665-0.761-2.665-3.553
	C-210.177,388.809-205.989,388.428-205.355,395.027z M-184.035,394.773c-0.38,1.142-0.761,2.792-0.761,3.807
	c0,1.016-0.508,1.777-1.27,1.777c-0.634,0-1.269-1.777-1.269-3.807c0-2.665,0.635-3.807,2.03-3.807
	C-183.908,392.743-183.527,393.377-184.035,394.773z M-166.015,395.535c-0.888,2.41-4.822,2.792-4.822,0.507
	c0-1.269,1.142-2.03,2.665-2.03S-165.761,394.646-166.015,395.535z M-175.279,399.088c0.381,0.634-0.38,1.269-1.903,1.269
	c-1.523,0-2.284-0.635-1.904-1.269c0.38-0.761,1.27-1.27,1.904-1.27S-175.659,398.327-175.279,399.088z M-176.675,404.038
	c0.381,0.634-0.127,1.522-1.142,1.903c-1.142,0.38-3.172,2.665-4.568,5.203c-1.523,2.411-3.173,4.441-3.68,4.441
	c-1.016,0-2.285-11.167-1.396-12.182c1.015-1.016,10.152-0.508,10.786,0.634V404.038z M-218.299,407.844
	c5.33,2.411,13.198,10.787,13.198,13.96c0,4.695-3.426,11.929-7.868,16.751c-4.695,5.076-5.203,5.203-11.04,4.695
	c-7.996-0.761-17.26-7.487-19.163-13.705c-2.411-8.249-1.65-11.168,4.568-17.767c5.077-5.33,6.6-6.345,10.533-6.345
	C-225.532,405.433-221.218,406.575-218.299,407.844z M-158.274,408.098c6.98,4.315,8.884,7.36,9.01,14.72
	c0.127,18.402-12.563,26.27-24.619,15.23c-1.396-1.144-2.919-2.158-3.426-2.158c-0.508,0-2.411-3.046-4.315-6.726l-3.3-6.853
	l2.285-6.218c1.777-4.695,3.426-6.726,6.726-8.376C-169.949,404.672-163.603,404.799-158.274,408.098L-158.274,408.098z
	 M-197.487,428.276c0,4.822-0.254,5.076-3.934,5.076c-3.68,0-3.807-0.127-3.045-4.188c1.269-5.457,1.65-5.964,4.568-5.964
	C-197.868,423.2-197.487,424.088-197.487,428.276z M-184.67,427.768c2.92,4.823,2.92,6.853,0,6.853c-3.68,0-6.09-4.695-5.33-10.533
	C-189.746,422.058-186.827,424.088-184.67,427.768z M-191.776,435.636c-0.38,1.65-1.27,2.538-1.904,2.158
	c-1.523-0.889-1.65-11.168-0.38-12.564C-192.664,423.961-191.015,432.083-191.776,435.636z M-195.964,438.428
	c3.426,3.173,4.442,3.173,6.091-0.127c1.523-2.792,4.061-2.665,11.802,0.38c4.696,1.778,4.315,3.173-1.269,4.696
	c-7.995,2.158-13.451,2.03-21.7-0.634c-7.234-2.284-9.137-3.807-6.98-5.965C-206.243,434.875-198.502,436.017-195.964,438.428z
	 M-188.223,446.55c4.696-0.127,8.503,0.254,8.503,0.761c0,3.68-10.533,9.264-15.356,7.995c-2.41-0.634-8.756-6.345-8.756-7.995
	c0-1.776,1.777-2.538,4.315-1.65C-197.994,446.296-193.045,446.677-188.223,446.55z"/>
</svg>
