<?xml version="1.0" encoding="iso-8859-1"?>
<!-- Generator: Adobe Illustrator 19.0.0, SVG Export Plug-In . SVG Version: 6.00 Build 0)  -->
<svg version="1.2" baseProfile="tiny" id="Layer_1" xmlns="http://www.w3.org/2000/svg" xmlns:xlink="http://www.w3.org/1999/xlink"
	 x="0px" y="0px" viewBox="-247 368.89 100 104" xml:space="preserve">
<title>face_00038</title>
<path d="M-184.792,369.886c-0.193,0.193-0.193,1.737,0.096,3.378c0.193,1.738,0.869,13.514,1.352,26.255
	c0.579,12.741,1.158,24.517,1.35,26.158c0.387,2.51,0.097,3.186-1.64,3.668c-2.51,0.58-2.8,0.29-2.992-2.51
	c-0.193-3.474-3.379-3.474-4.054,0.097c-1.062,4.923-8.591,5.212-8.591,0.29c0-2.607-3.668-2.027-4.44,0.772
	c-0.386,1.351-0.676-11.197-0.772-27.8l-0.097-30.211l-7.915,0.193c-11.1,0.386-11.39,0.483-11.486,4.634
	c0,1.93-0.483,4.343-0.966,5.405c-0.675,1.351-0.772,0.29-0.386-3.668l0.483-5.502h-21.718l-0.097,20.076
	c-0.386,57.143-0.386,79.537,0.097,80.406c1.158,1.737,3.378,0.868,3.378-1.352c0-1.158,0.29-3.088,0.58-4.343l0.578-2.124
	l24.807-0.096c13.61-0.097,31.564-0.386,39.962-0.676c20.656-0.869,25.772-0.58,25.772,1.737c0,2.124,1.737,3.475,2.896,2.317
	c0.386-0.483,0.965-22.683,1.158-49.42l0.386-48.65l-7.915,0.483c-4.344,0.193-8.398,0.676-8.977,1.062
	c-0.579,0.386-1.062,2.317-1.062,4.247s-0.482,4.247-1.061,5.02c-0.676,1.061-0.87,0-0.676-3.862l0.29-5.309l-8.977-0.482
	C-180.449,369.789-184.599,369.789-184.792,369.886z M-208.924,403.283v29.634l2.124,0.579c1.255,0.29,7.143,0.386,13.127,0.193
	c13.61-0.483,16.7-1.93,15.83-7.433c-0.965-5.791-2.895-50.096-2.316-51.64c0.29-0.87,1.834-1.352,4.73-1.255l4.15,0.096l0.29,5.502
	l0.29,5.599h3.57c4.055,0,6.565-1.255,5.6-2.703c-0.387-0.58-0.387-2.8,0-4.923l0.675-3.957h10.424l-0.58,32.529
	c-0.386,17.953-0.868,33.204-1.061,33.88c-0.29,1.062-5.888,1.255-30.116,0.965c-16.313-0.096-36.68,0.097-45.367,0.483
	l-15.636,0.868l0.193-33.687l0.29-33.59h13.32l0.097,5.308l0.096,5.31h8.687l0.29-5.503l0.29-5.502l4.536-0.386
	c2.51-0.193,5.02-0.29,5.502-0.193C-209.309,373.554-208.924,384.268-208.924,403.283z M-168.094,444.113
	c15.155,0.483,16.603,0.676,16.603,2.317c0,1.255-0.965,1.93-3.089,2.22c-1.737,0.29-22.394,0.676-45.946,0.772
	c-40.347,0.29-42.664,0.193-42.664-1.447c0-0.966,0.58-1.93,1.158-2.124c2.027-0.676,32.336-2.22,45.174-2.22
	c6.66,0,19.595,0.193,28.765,0.483L-168.094,444.113z M-151.49,455.31v2.414l-16.12,0.675c-8.977,0.483-29.44,0.869-45.656,0.869
	l-29.44,0.097l-0.29-2.607c-0.29-2.51-0.096-2.606,4.826-2.895c2.8-0.193,23.456-0.387,45.946-0.58l40.734-0.29
	C-151.49,452.993-151.49,455.31-151.49,455.31z"/>
</svg>
