<?xml version="1.0" encoding="iso-8859-1"?>
<!-- Generator: Adobe Illustrator 19.0.0, SVG Export Plug-In . SVG Version: 6.00 Build 0)  -->
<svg version="1.2" baseProfile="tiny" id="Layer_1" xmlns="http://www.w3.org/2000/svg" xmlns:xlink="http://www.w3.org/1999/xlink"
	 x="0px" y="0px" viewBox="-247 371.89 100 98" xml:space="preserve">
<title>face_00085</title>
<path d="M-246.536,407.29c-0.38,19.485-0.474,38.877-0.284,43.06l0.285,7.605l3.327,0.57c1.807,0.38,6.75,1.52,10.932,2.567
	c4.183,1.045,11.692,2.566,16.635,3.422c4.943,0.855,11.787,2.28,15.21,3.041l6.273,1.426l14.639-6.559
	c8.08-3.612,18.726-8.46,23.574-10.741l8.935-4.183l-0.57-11.406c-0.285-6.274-0.666-23.004-0.76-37.263
	c-0.19-25.095-0.286-25.855-2.187-26.33c-1.047-0.287-11.883-0.287-23.955,0.093l-22.149,0.57v17.018l3.327-0.57
	c1.902-0.38,6.37-1.616,9.981-2.852c3.708-1.14,6.654-1.996,6.654-1.901c0,0.19-1.9,1.616-4.277,3.327l-4.278,3.042l3.327,2.376
	c1.806,1.33,3.232,2.472,3.137,2.567c-0.19,0.19-3.897-0.38-8.27-1.141c-4.277-0.76-8.175-1.14-8.46-0.856
	c-1.046,1.046-1.236,22.434-0.19,22.434c0.57,0,2.091-0.666,3.422-1.521c1.236-0.856,2.471-1.426,2.662-1.236
	c0.285,0.19,0.665,2.186,0.95,4.373l0.666,3.897l-3.613-0.76c-1.996-0.476-3.707-0.666-3.992-0.476
	c-0.19,0.286-0.57,3.518-0.76,7.225l-0.476,6.844l12.928-0.666l12.928-0.76v2.947c0,2.566-0.475,2.947-3.517,3.802
	c-1.997,0.57-5.514,1.236-7.89,1.616c-2.376,0.38-4.468,0.95-4.753,1.33c-0.285,0.381-2.852,1.332-5.703,2.187
	c-4.658,1.33-6.179,1.33-14.164,0.19c-4.943-0.76-10.266-1.806-11.882-2.281c-1.616-0.475-4.753-1.426-7.034-1.996
	c-3.422-0.856-4.088-1.426-3.802-3.137c0.38-2.472-0.76-2.282,16.35-2.472l13.688-0.095l0.38-6.939
	c0.475-6.844-0.475-9.98-2.472-8.46c-1.71,1.426-5.228,1.996-5.513,0.95c-0.57-1.615,0.38-7.414,1.14-7.414
	c0.476,0,1.427,0.666,2.282,1.426c3.327,3.327,3.897,1.901,3.897-9.981c0-13.118,0.476-12.548-9.125-9.506
	c-3.327,0.95-6.179,1.711-6.274,1.521c-0.19-0.19,0.95-1.426,2.662-2.852l2.947-2.472l-4.088-3.802l-4.182-3.708l8.365,2.852
	c4.657,1.616,9.03,2.662,9.79,2.377c1.141-0.38,1.331-2.187,1.141-8.365l-0.285-7.89l-5.703-0.57
	c-3.137-0.38-13.69-0.666-23.384-0.76l-17.776-0.097l-0.666,35.362V407.29z M-162.886,383.335c1.141,5.038-1.235,6.179-5.608,2.757
	c-3.137-2.472-3.137-3.327,0.19-4.468C-164.216,380.103-163.551,380.293-162.886,383.335L-162.886,383.335z M-170.966,386.662
	c0.951,1.14,0.951,1.426-0.094,1.52c-0.76,0-2.567,0.286-4.183,0.476l-2.851,0.38l2.376-1.9c2.852-2.282,3.232-2.282,4.753-0.476
	H-170.966z M-170.395,394.647l-2.661,2.851l-3.232-2.09c-1.806-1.142-3.232-2.377-3.232-2.853c0-0.38,2.661-0.665,5.893-0.665h5.894
	L-170.395,394.647L-170.395,394.647z M-162.41,395.692v3.898l-3.517-0.666c-1.996-0.38-3.802-0.855-4.088-1.045
	c-0.57-0.57,5.704-5.989,6.844-5.989C-162.791,391.89-162.411,393.601-162.41,395.692L-162.41,395.692z M-224.387,382.48
	c1.14,0.476,2.091,1.141,2.091,1.521c0,0.856-8.65,6.94-9.79,6.94c-0.856,0-0.856-8.936-0.096-9.791
	C-231.517,380.484-228.285,381.054-224.387,382.48z M-216.593,389.23c0,0.38-1.996,0.76-4.467,0.76l-4.563-0.095l2.757-2.377
	c2.566-2.281,2.756-2.281,4.467-0.76c1.046,0.855,1.806,1.996,1.806,2.471V389.23z M-223.437,397.404
	c2.567,1.711,2.092,2.092-4.562,4.468l-3.803,1.33v-10.455l3.137,1.615C-227.049,395.218-224.672,396.644-223.437,397.404z
	 M-215.642,393.507c0,1.046-3.042,4.087-4.183,4.087c-0.57,0-2.28-1.045-3.897-2.376l-2.852-2.281l5.514-0.095
	C-218.113,392.842-215.642,393.127-215.642,393.507z M-201.479,375.54c0.38,0.666,0.856,3.517,0.951,6.369
	c0.285,6.559,0.19,6.559-14.544,1.52c-5.988-2.089-12.927-4.086-15.398-4.466l-4.373-0.665l0.57,13.118
	c0.381,7.224,0.856,13.498,1.141,13.878c0.286,0.475,1.616,0.285,3.042-0.475c2.377-1.236,26.331-9.126,27.662-9.126
	c0.76,0,0.57,16.92-0.19,17.776c-0.38,0.285-1.14,0.095-1.806-0.475c-0.666-0.476-2.092-1.141-3.042-1.331
	c-1.711-0.285-1.806,0.285-1.806,5.893c0.095,5.799,0.285,6.18,2.376,6.274c1.14,0,2.947-0.285,3.898-0.76
	c1.425-0.76,1.616-0.285,1.616,4.372c0,3.993-0.38,5.228-1.616,5.799c-0.951,0.38-7.7,0.855-15.02,0.95l-13.307,0.286v4.087
	c0,3.707,0.285,4.183,2.376,4.468c1.33,0.19,7.13,1.33,12.833,2.566c17.68,3.803,18.346,3.803,28.232,0.57
	c4.848-1.52,10.551-3.041,12.642-3.421c6.369-1.141,7.13-1.902,7.13-6.845v-4.372l-13.308,0.665l-13.308,0.57v-2.28
	c0-1.237,0.285-3.518,0.57-5.134c0.57-2.662,0.76-2.852,4.277-2.376l3.708,0.57v-6.369c0-6.939-0.666-7.51-5.609-4.943l-2.661,1.426
	l-0.095-7.795c-0.095-4.277,0.19-8.27,0.57-8.84c0.475-0.855,3.422-0.665,11.122,0.665c19.486,3.423,21.483,3.803,22.148,3.327
	c0.38-0.19,0.57-1.71,0.57-3.327c-0.095-1.615-0.19-6.558-0.285-11.026c-0.095-7.605-0.19-8.08-2.091-8.08
	c-1.14,0-8.65,2.186-16.825,4.753c-8.08,2.661-14.924,4.563-15.21,4.277c-0.475-0.38-0.38-12.072,0.096-12.452
	c0.665-0.57,42.49-0.76,43.06-0.19c0.38,0.475,0.951,16.255,1.331,35.17c0.76,37.929,0.95,36.503-5.038,38.88
	c-1.71,0.665-9.41,4.277-17.3,7.984c-19.107,9.03-20.818,9.6-28.232,8.27c-3.327-0.57-10.932-1.901-16.92-2.947
	c-16.921-2.948-26.428-5.798-26.998-8.176c-0.76-2.566-0.666-25.19,0.095-55.418l0.57-25l20.818,0.285
	C-207.373,374.209-202.05,374.589-201.479,375.54L-201.479,375.54z"/>
</svg>
