<?xml version="1.0" encoding="iso-8859-1"?>
<!-- Generator: Adobe Illustrator 19.0.0, SVG Export Plug-In . SVG Version: 6.00 Build 0)  -->
<svg version="1.2" baseProfile="tiny" id="Layer_1" xmlns="http://www.w3.org/2000/svg" xmlns:xlink="http://www.w3.org/1999/xlink"
	 x="0px" y="0px" viewBox="-247 380.89 100 81" xml:space="preserve">
<title>face_00019</title>
<path d="M-200.54,381.873c-0.252,0.671-0.084,1.425,0.251,1.677c0.42,0.251,0.922-0.168,1.257-0.838
	c0.252-0.67,0.084-1.425-0.251-1.677C-199.703,380.784-200.205,381.203-200.54,381.873z M-229.543,382.963
	c0,0.42,0.838,1.174,1.928,1.593l1.844,0.922l-2.263,0.587c-2.43,0.586-6.035-0.839-5.28-2.18c0.837-1.34-1.007-0.838-3.018,0.922
	c-1.174,0.922-1.51,1.593-0.922,1.677c0.586,0,0.922,0.335,0.67,0.754c-0.335,0.42,0.335,0.503,1.341,0.252
	c1.593-0.42,1.677-0.587,0.42-0.839c-0.755-0.167-1.258-0.67-0.923-1.09c0.252-0.502,1.341-0.335,2.599,0.504
	c1.509,1.005,3.017,1.257,5.197,0.922c2.18-0.42,2.682-0.336,1.76,0.251c-1.09,0.755-1.006,0.922,0.252,0.922
	c1.257,0,1.09,0.42-0.923,2.515c-1.424,1.341-3.185,2.514-3.855,2.514c-0.755,0-1.342,0.587-1.342,1.258
	c0,1.592,0.252,1.592,3.521-0.42c2.766-1.676,6.203-2.095,9.723-1.173c3.27,0.922,2.012,1.928-2.347,1.844
	c-3.101,0-5.197,0.587-8.047,2.264c-3.185,1.844-4.023,2.095-4.694,1.173c-0.586-0.922-0.922-0.922-1.257-0.168
	c-0.168,0.587-1.09,1.09-1.928,1.09s-1.844,0.335-2.095,0.838c-0.252,0.42,0.251,0.839,1.173,0.839c1.257,0,1.76,0.502,1.76,1.76
	c0,1.425,0.252,1.592,1.09,0.838c0.67-0.503,1.341-0.67,1.593-0.42c0.251,0.252,1.34-0.754,2.347-2.178
	c1.34-1.845,2.263-2.431,3.436-2.096c1.09,0.335,1.593,0.168,1.593-0.754c0-0.839,0.67-1.342,1.928-1.258
	c1.006,0,1.341,0.252,0.838,0.503c-1.341,0.503-1.425,2.766-0.167,2.766c0.419,0,0.586-0.419,0.335-0.838
	c-0.252-0.503-0.168-0.838,0.335-0.838c0.42,0,1.006,0.503,1.174,1.006c0.251,0.67,0.503,0.419,0.503-0.42
	c0.083-0.838,0.503-1.257,0.922-1.005c1.34,0.838,1.005,1.844-1.006,3.772l-1.928,1.844l2.095-0.335
	c1.174-0.168,2.515-1.174,3.102-2.347c1.173-2.348,3.017-2.767,3.437-0.755c0.167,0.922-0.839,1.928-3.102,2.934
	c-4.442,2.095-4.359,3.017,0.168,1.593c1.928-0.587,4.526-1.342,5.867-1.593c2.683-0.587,3.018-2.18,0.587-2.766
	c-0.922-0.252-2.18-1.593-2.934-3.018c-1.592-3.185-1.592-3.52,0.084-1.928c1.76,1.76,3.185,1.76,2.18,0
	c-0.923-1.676,0.586-6.203,2.095-6.203c0.587,0,1.09,0.503,1.09,1.174c0,0.587,0.586,1.593,1.257,2.18
	c1.09,0.921,1.174,0.837,0.754-0.336c-0.251-0.754-0.083-1.341,0.42-1.341c0.503,0,0.922,0.754,0.922,1.676s0.335,1.677,0.838,1.677
	c0.419,0,0.587-0.503,0.335-1.174c-0.251-0.67-0.084-1.928,0.335-2.766c0.42-0.838,0.503-2.263,0.084-3.185
	c-0.335-0.922-0.67-1.341-0.67-1.006c-0.084,0.335-1.09-0.335-2.347-1.509c-2.934-2.598-5.616-2.85-4.862-0.418
	c0.503,1.425,0.168,1.676-1.844,1.593c-1.257-0.084-3.437,0.251-4.694,0.838c-2.85,1.09-3.102,1.173-3.102,0.168
	c0-0.42,0.671-1.006,1.51-1.174c0.754-0.251-0.085-0.42-1.929-0.503c-2.18-0.084-2.933-0.335-2.263-0.838
	c0.838-0.503,0.67-0.838-0.838-1.174C-227.447,382.126-229.543,382.21-229.543,382.963L-229.543,382.963z M-207.749,385.645
	c0,0.42-0.168,0.839-0.335,0.839c-0.252,0-0.67-0.42-0.922-0.839c-0.252-0.502-0.084-0.838,0.335-0.838
	C-208.168,384.807-207.749,385.143-207.749,385.645z M-213.952,390.842c-0.754,1.006-1.341,1.677-1.425,1.51
	c0-0.252-0.168-1.258-0.419-2.264c-0.168-1.257,0.168-1.928,1.174-2.095C-212.611,387.573-212.443,388.579-213.952,390.842
	L-213.952,390.842z M-218.646,383.131c0,0.419,0.42,1.006,1.006,1.341c0.587,0.335,0.67,0.251,0.335-0.335
	c-0.754-1.258-0.419-1.258,2.347-0.168c1.677,0.587,2.18,0.503,2.18-0.251c0-0.671-1.174-1.09-2.934-1.174
	C-217.305,382.46-218.646,382.796-218.646,383.131z M-186.29,384.472c-2.514,1.76-3.101,2.598-2.766,4.191
	c0.168,1.09-0.167,2.682-0.754,3.437c-1.006,1.425-1.09,1.341-1.174-0.42c0-1.005-0.335-1.843-0.838-1.843
	c-0.419,0-0.838,1.257-0.838,2.766s-0.42,3.185-0.922,3.688c-0.67,0.67-0.754,3.269-0.252,8.801c0.755,8.299,0.755,10.143,0,15.256
	c-0.167,1.844,0,4.023,0.42,4.862c1.257,2.263,1.676,5.029,0.67,4.442c-0.419-0.335-0.754-0.167-0.754,0.335
	c0,1.09-4.359,3.353-5.952,3.186c-2.095-0.336-3.269-1.51-3.353-3.353c-0.083-1.425-0.167-1.509-0.502-0.42
	c-0.252,0.923-1.258,1.593-2.599,1.677c-3.437,0.168-3.856,0.252-4.945,0.922c-1.677,1.006-1.342-3.185,0.251-4.861
	c0.754-0.755,1.09-1.593,0.838-1.845c-1.09-1.09-2.85,1.928-3.353,5.784c-0.419,2.515-0.251,4.107,0.336,4.443
	c0.67,0.419,0.586,1.09-0.252,2.347c-2.43,3.856-2.347,5.197,0.252,2.347c1.34-1.509,2.514-3.102,2.514-3.437
	c0-1.257,5.449-1.425,7.628-0.335c2.347,1.173,3.27,2.766,3.27,5.448c0,1.341-0.42,1.51-2.096,1.09
	c-1.342-0.335-3.102,0.084-5.114,1.257c-1.592,1.006-3.269,1.593-3.688,1.341c-0.67-0.419-5.448,3.689-5.448,4.778
	c0,0.42-0.503,1.09-1.174,1.51c-1.425,0.837-2.011,3.352-0.838,3.352c0.42,0,1.006-0.587,1.257-1.257
	c0.336-0.67,1.174-1.258,1.928-1.258c0.755,0,1.844-0.419,2.431-1.006c0.67-0.67,4.107-1.09,9.22-1.173
	c9.976-0.168,9.64-0.084,8.886-1.425c-0.335-0.587-0.252-0.754,0.167-0.335c0.42,0.419,0.755,1.508,0.755,2.514
	c0,1.174,0.503,1.844,1.425,1.844c1.844,0,1.676,1.174-0.42,3.353c-1.592,1.677-1.592,1.677-1.005-0.419
	c0.419-1.509,0.335-1.76-0.335-0.838c-0.587,0.838-2.683,1.257-7.377,1.341c-3.604,0.084-6.622,0.168-6.79,0.252
	c-0.083,0,0.42,1.005,1.174,2.179c1.257,1.844,1.928,2.096,5.868,2.012c2.43-0.084,4.861-0.503,5.448-0.838
	c0.587-0.336,1.425-0.168,1.928,0.502c1.257,1.593,7.544,0.336,10.143-2.095c1.844-1.76,1.927-1.928,0.586-3.353
	c-0.754-0.754-2.095-1.676-2.85-1.928c-2.179-0.754-1.844-2.263,0.587-2.263c1.09,0,2.347,0.67,2.85,1.425
	c1.341,2.43,1.844,0.754,0.754-2.347c-1.09-3.27-2.43-4.443-3.352-3.018c-0.42,0.67-1.006,0.503-1.845-0.67
	c-0.754-0.922-1.34-2.096-1.34-2.515c0-0.503-0.923-0.922-2.096-1.006c-1.174-0.084-2.599-0.251-3.102-0.335
	c-0.586-0.084-1.928,0.084-2.933,0.419c-1.76,0.587-1.928,0.335-1.928-1.928c0-1.425,0.335-2.598,0.838-2.598
	c1.425,0,5.03,1.927,5.03,2.766c0,0.419,1.089,0.586,2.514,0.335c2.012-0.42,2.515-0.252,2.515,0.922
	c0,1.257,0.167,1.257,0.838,0.168c0.67-1.09,1.09-1.09,2.598-0.168c0.922,0.587,1.928,0.922,2.096,0.754
	c0.67-0.67-1.593-4.777-2.263-4.275c-0.42,0.252-0.755-0.167-0.755-0.838c0-0.754,0.503-1.34,1.09-1.34
	c0.67,0,1.09-1.174,1.006-3.605c0-2.683-0.336-3.437-1.258-3.27c-0.922,0.252-1.005,0.084-0.251-0.67
	c0.754-0.838,0.42-1.844-1.509-4.442c-2.598-3.521-3.101-7.125-1.341-8.886c0.838-0.838,0.67-0.922-0.67-0.419
	c-1.51,0.587-1.51,0.503-0.504-0.754c0.587-0.755,1.845-1.425,2.683-1.425s1.76-0.42,2.012-0.838
	c0.335-0.503,0.838-0.671,1.173-0.503c0.335,0.251,1.09,0.084,1.76-0.336c0.755-0.419,1.677-0.335,2.431,0.252
	c0.67,0.587,0-0.67-1.425-2.682c-2.012-2.767-2.43-3.94-1.676-4.36c0.586-0.334,1.425-0.334,1.928,0
	c0.419,0.336,1.592,0.923,2.514,1.174c1.677,0.587,1.677,0.587,0.084-0.67c-2.18-1.677-2.598-4.778-0.838-6.035
	c1.173-0.923,1.593-0.671,2.766,1.676c1.006,2.012,1.928,2.766,4.024,2.934c3.855,0.419,6.37-1.174,5.616-3.437
	c-0.503-1.593-0.42-1.676,0.67-0.838c0.67,0.587,1.509,0.838,1.844,0.503c0.336-0.336,0.336,0,0,0.838
	c-0.335,0.922,0,1.593,0.839,1.928c0.922,0.335,1.09,0.838,0.586,1.509c-0.754,0.922-0.922,1.425-0.922,3.185
	c0,0.503-0.251,0.754-0.503,0.419c-0.67-0.67-5.364,1.09-5.364,2.012c0,0.419-0.839,0.754-1.844,0.754
	c-1.006,0-1.51,0.252-1.174,0.587c1.006,1.006,3.018,1.006,3.101,0c0-0.587,0.336-0.252,0.671,0.587
	c0.587,1.508,0.67,1.508,1.174,0.251c0.251-0.754,0.167-1.425-0.336-1.425s-0.586-0.419-0.335-0.922
	c0.42-0.503,0.922-0.419,1.509,0.503c0.922,1.174,1.425,1.09,4.778-0.587c3.436-1.76,3.772-2.18,3.688-4.861
	c-0.084-2.85,0-2.934,3.101-2.934c4.359,0,6.706-2.263,6.035-5.784c-1.005-5.448-5.532-10.73-7.963-9.22
	c-0.503,0.335-0.67,0.251-0.419-0.252c0.336-0.503-0.67-1.509-2.18-2.18c-3.436-1.676-9.471-2.179-9.22-0.837
	c0.084,0.503-0.335,1.173-1.09,1.425c-0.837,0.335-1.089,0.167-0.67-0.503c0.42-0.671,0.168-0.755-0.838-0.42
	c-0.754,0.336-3.018,0-4.946-0.67C-179.584,381.79-182.601,382.041-186.29,384.472L-186.29,384.472z M-182.182,383.969
	c-0.252,0.42-0.922,0.838-1.341,0.838c-0.503,0-0.587-0.419-0.336-0.838c0.252-0.503,0.922-0.838,1.341-0.838
	C-182.015,383.131-181.931,383.466-182.182,383.969z M-175.392,384.389c2.095,1.592,0.502,1.592-3.102,0
	c-2.682-1.09-2.682-1.174-0.67-1.258c1.173,0,2.85,0.587,3.771,1.257L-175.392,384.389z M-163.322,385.226
	c0,0.168-0.755,0.755-1.677,1.258c-1.006,0.503-1.676,0.586-1.676,0.084c0-0.42,0.67-1.006,1.509-1.174
	c0.754-0.251,1.508-0.42,1.676-0.503C-163.406,384.891-163.322,384.975-163.322,385.226z M-184.28,387.825
	c0,0.67-0.335,1.09-0.754,0.838c-0.42-0.251-0.922,0.335-1.174,1.341c-0.335,1.006-0.754,1.677-1.006,1.341
	c-0.67-0.67,1.09-4.861,2.096-4.861c0.42,0,0.838,0.586,0.838,1.34V387.825z M-172.628,387.657c0.838,1.006,0.67,1.09-0.755,0.755
	c-2.095-0.587-3.101-1.928-1.425-1.928C-174.138,386.484-173.131,386.987-172.628,387.657z M-156.87,388.998
	c1.76,0.922,3.772,1.677,4.61,1.677c1.844,0,3.772,6.454,2.431,7.795c-0.67,0.67-0.922,0.587-0.922-0.167
	c0-0.587-0.419-0.755-0.922-0.503c-0.503,0.335-1.676-0.252-2.598-1.258c-0.922-1.005-2.264-1.592-2.934-1.34
	c-0.755,0.335-1.844,0.083-2.599-0.504c-0.67-0.586-2.766-1.676-4.61-2.347c-4.358-1.591-4.776-3.101-1.256-4.107
	c4.19-1.174,5.448-1.09,8.801,0.754H-156.87z M-165.755,394.866l2.012,1.76l-2.934-0.587c-3.185-0.67-5.197-0.67-8.382,0.084
	l-2.096,0.42l2.012-1.677C-172.628,392.686-168.27,392.686-165.755,394.866z M-171.204,399.225c-0.083,1.173,0.503,2.011,1.425,2.18
	c0.755,0.167,1.425-0.169,1.425-0.671c0-0.503-0.335-0.671-0.838-0.42c-0.419,0.252-0.838,0.168-0.838-0.335
	c0-1.509,1.676-1.928,2.18-0.503c0.754,1.76-1.677,4.191-3.354,3.52c-1.676-0.67-2.514-2.682-1.844-4.358
	C-172.377,396.71-171.12,397.129-171.204,399.225z M-183.944,401.655c-0.168,0.336,0.251,0.839,1.005,1.09
	c1.51,0.587,0.922,1.76-1.34,3.018c-1.342,0.754-1.593,0.67-1.174-0.587c0.419-1.257,0.251-1.257-0.922,0.168
	c-0.755,0.922-1.844,2.43-2.515,3.353c-0.67,0.922-0.335-0.252,0.838-2.599c2.263-4.694,2.515-5.7,1.341-5.03
	c-0.419,0.336-0.586-0.25-0.335-1.173c0.42-1.676,0.503-1.676,1.928-0.251c0.838,0.838,1.341,1.76,1.173,2.012L-183.944,401.655z
	 M-182.52,409.367c-0.838,0.755-0.922,0.67-0.419-0.503c0.252-0.838,0.755-1.257,1.006-1.006c0.252,0.252,0,0.922-0.587,1.51
	V409.367z M-186.543,431.497c-0.587,0.167-1.593,0.167-2.096,0c-0.586-0.252-0.167-0.42,1.006-0.42
	C-186.459,431.077-186.04,431.245-186.543,431.497z M-182.603,431.245c0,0.251-0.336,0.67-0.839,0.922
	c-0.419,0.251-0.838,0.084-0.838-0.335c0-0.503,0.42-0.922,0.838-0.922C-182.939,430.91-182.603,431.077-182.603,431.245z
	 M-197.273,435.939c0.252,0.419,0.085,0.838-0.335,0.838c-0.502,0-0.922-0.419-0.922-0.838c0-0.503,0.168-0.838,0.336-0.838
	C-197.943,435.101-197.524,435.436-197.273,435.939L-197.273,435.939z M-196.937,445.579c0.168,0.25,0,0.838-0.42,1.257
	c-0.502,0.503-1.676,0.335-3.184-0.42c-2.096-1.089-2.515-1.089-4.108,0c-2.85,2.012-4.777,1.51-2.263-0.502
	c1.677-1.425,2.766-1.677,5.784-1.258c2.012,0.252,3.94,0.671,4.191,0.922V445.579z M-208.002,449.853
	c-0.251,0.252-1.005,0.336-1.592,0.084c-0.67-0.251-0.42-0.503,0.503-0.503c0.922-0.084,1.425,0.168,1.09,0.42L-208.002,449.853z
	 M-229.71,385.394c0.587,0.251,1.342,0.168,1.593-0.084c0.335-0.251-0.167-0.503-1.09-0.419
	C-230.129,384.891-230.38,385.143-229.71,385.394L-229.71,385.394z M-241.277,388.16c-1.676,1.006-0.754,1.76,1.509,1.09
	c1.006-0.252,1.592-0.755,1.341-1.174C-239.014,387.154-239.684,387.154-241.277,388.16z M-245.887,392.854
	c-2.012,3.102-1.09,3.27,1.676,0.335c1.76-1.844,2.012-2.514,1.09-2.514c-0.754,0-1.928,1.006-2.766,2.18V392.854z
	 M-217.387,406.182c-2.18,1.844-2.264,2.515-0.168,2.18c1.173-0.168,0.587,1.34-1.09,2.85c-2.095,1.927-2.18,2.933-0.084,2.346
	c0.838-0.251,2.766-2.095,4.275-4.19c2.18-3.018,2.515-3.94,1.593-4.527c-1.593-1.006-1.677-1.006-4.527,1.341H-217.387z
	 M-230.38,410.708c0,0.42,0.587,1.006,1.341,1.258c1.174,0.419,1.257,0.335,0.335-0.755
	C-229.877,409.786-230.38,409.619-230.38,410.708z M-215.292,437.615c-0.754,0.503-0.838,0.839-0.252,0.839
	c0.503,0,1.258-0.42,1.51-0.839C-213.364,436.609-213.699,436.609-215.292,437.615z"/>
</svg>
