<?xml version="1.0" encoding="iso-8859-1"?>
<!-- Generator: Adobe Illustrator 19.0.0, SVG Export Plug-In . SVG Version: 6.00 Build 0)  -->
<svg version="1.2" baseProfile="tiny" id="Layer_1" xmlns="http://www.w3.org/2000/svg" xmlns:xlink="http://www.w3.org/1999/xlink"
	 x="0px" y="0px" viewBox="-247 361.89 100 118" xml:space="preserve">
<title>face_00026</title>
<path d="M-246.64,419.552c0.17,31.784,0.508,58.242,0.677,58.75c0.507,1.605,98.14,1.605,98.732,0
	c0.169-0.593,0.253-2.79,0.169-4.82c-0.17-2.112-0.592-27.218-0.93-55.79c-0.338-28.57-0.676-52.578-0.76-53.254
	c-0.171-1.69-16.993-2.282-63.907-2.451l-34.319-0.085C-246.978,361.902-246.64,419.552-246.64,419.552z M-208.347,399.942
	c0,1.52-0.592,1.69-4.65,1.69c-4.057,0-4.648-0.17-4.648-1.69c0-1.522,0.591-1.692,4.649-1.692
	C-208.939,398.25-208.347,398.42-208.347,399.942L-208.347,399.942z M-193.977,399.942c0,1.52-0.592,1.69-5.072,1.69
	c-3.804,0-5.072-0.338-5.072-1.184c0-1.606,1.268-2.028,6.171-2.113C-194.484,398.25-193.977,398.504-193.977,399.942
	L-193.977,399.942z M-178.339,399.942c0,0.929-1.183,1.352-4.564,1.52c-5.41,0.339-7.016-0.168-6.34-1.944
	C-188.483,397.658-178.339,397.997-178.339,399.942L-178.339,399.942z M-207.079,425.385c0,0.93,1.944,1.268,8.791,1.606
	c8.453,0.423,8.791,0.338,9.637-1.522c1.268-2.79,2.282-2.282,2.282,1.1v2.958h-22.823v-3.043c0-2.029,0.338-2.874,1.099-2.705
	C-207.586,424.032-207.079,424.709-207.079,425.385z M-177.409,440.262c0.338,1.1,0.17,2.452-0.253,2.874
	c-0.423,0.423-8.792,0.677-20.203,0.592l-19.358-0.254l-0.253-2.705l-0.254-2.79l18.85-0.168c10.398-0.17,19.358-0.085,19.95,0.084
	C-178.339,438.065-177.662,439.079-177.409,440.262z M-183.833,448.546c0,2.79-1.437,3.043-15.216,2.79l-11.411-0.254l-0.254-2.367
	l-0.254-2.282h27.135C-183.833,446.433-183.833,448.546-183.833,448.546z"/>
</svg>
