<?xml version="1.0" encoding="iso-8859-1"?>
<!-- Generator: Adobe Illustrator 19.0.0, SVG Export Plug-In . SVG Version: 6.00 Build 0)  -->
<svg version="1.2" baseProfile="tiny" id="Layer_1" xmlns="http://www.w3.org/2000/svg" xmlns:xlink="http://www.w3.org/1999/xlink"
	 x="0px" y="0px" viewBox="-247 366.89 100 108" xml:space="preserve">
<title>face_00112</title>
<path d="M-165.857,367.158c-5.541,0.461-9.565,1.912-13.523,4.617c-4.09,2.902-5.079,3.892-8.245,8.18
	c-1.583,2.176-3.1,4.023-3.364,4.155c-0.264,0.132-1.452,1.781-2.639,3.628c-1.187,1.913-2.243,3.562-2.375,3.694
	c-0.065,0.132-1.385-1.121-2.836-2.77c-1.451-1.65-3.76-3.694-5.145-4.552c-1.32-0.791-2.968-2.177-3.628-2.968
	c-1.451-1.781-4.222-4.552-6.728-6.728c-3.694-3.1-12.071-5.937-17.81-6.003c-4.552-0.066-14.842,3.232-14.842,4.749
	c0,2.176,12.599,9.828,18.8,11.345c5.936,1.517,13.588,2.309,18.073,1.913c3.299-0.33,4.222-0.132,5.937,1.055
	c4.75,3.364,6.135,8.641,4.288,15.765c-0.792,2.77-0.924,5.541-0.66,10.686c0.594,11.346,0.66,11.346,1.121,0
	c0.264-6.002,0.726-12.664,0.924-14.775c0.594-5.343-0.528-8.444-4.156-11.676c-1.649-1.385-2.704-2.572-2.374-2.572
	c1.187,0,5.738,4.287,7.52,7.058l1.78,2.836l1.122-2.836c1.121-2.969,4.683-7.718,5.739-7.718c0.395,0-0.198,1.253-1.254,2.77
	c-2.902,4.222-6.596,11.412-7.124,13.853c-0.264,1.187-0.593,8.773-0.725,16.82c-0.33,15.963-0.198,16.557,3.1,13.061
	c0.857-0.923,1.847-1.65,2.177-1.65s-0.594,1.386-2.177,3.035c-2.375,2.573-2.705,3.298-2.375,5.08
	c0.66,3.957,0.594,13.06-0.132,13.786c-0.66,0.66-0.791,0.33-1.649-5.41c-0.198-0.923-0.33-0.263-0.396,1.452
	c0,1.78-0.33,3.166-0.66,3.166c-0.395,0-1.78-0.66-3.165-1.517c-4.684-2.77-18.668-1.583-18.668,1.649c0,0.99,2.573,3.1,5.277,4.288
	c3.166,1.385,6.069,2.11,12.203,3.034l5.277,0.791l-0.132,8.246c-0.132,9.828,0.33,9.169,0.99-1.32
	c0.33-5.145,0.725-7.585,1.319-7.783c0.594-0.198,0.792,0.726,0.726,3.43c-0.066,2.045,0.066,3.892,0.263,4.156
	c0.264,0.198,0.462-1.32,0.462-3.496v-3.892l4.42-0.858c8.047-1.517,20.316-7.85,19.129-9.894c-0.726-1.056-6.398-2.77-9.367-2.77
	c-3.892,0-8.509,1.583-12.4,4.155c-1.056,0.726-1.98,1.121-2.112,0.99c-0.132-0.132-0.33-3.299-0.395-7.058l-0.132-6.795l2.44-2.902
	c1.781-2.177,2.903-2.902,4.288-2.902c1.979,0,4.683-2.375,4.683-4.156c0-1.385-2.506-3.1-4.683-3.1
	c-1.913,0-3.892,2.308-3.892,4.551c0,1.121-2.506,3.694-3.1,3.1c-0.132-0.066-0.33-5.079-0.528-11.015
	c-0.396-15.502,0.33-18.734,6.728-29.882c0.739-1.137,1.531-2.237,2.375-3.298c1.451-1.78,1.715-1.847,3.694-1.187
	c4.617,1.649,15.963-0.066,21.966-3.232c3.298-1.781,15.699-11.346,15.37-11.874c-0.199-0.264-1.452-0.725-2.837-0.99
	c-1.32-0.263-2.705-0.659-3.1-0.923C-153.984,366.959-160.382,366.695-165.857,367.158L-165.857,367.158z M-208.272,424.348
	c-2.044,2.242-0.66,6.728,2.045,6.728c0.396,0,1.781,0.923,3.1,2.045c1.781,1.583,2.31,2.572,2.375,4.485
	c0.066,1.32,0.33,3.232,0.594,4.354c0.396,1.517,0.528,0.99,0.593-2.44c0.066-4.354,0-4.552-2.374-6.795
	c-1.385-1.253-2.177-2.309-1.715-2.309c0.462,0,1.121,0.594,1.517,1.32c1.32,2.506,2.638,1.583,2.572-1.848l-0.131-3.1l-0.396,2.573
	c-0.33,2.308-0.528,2.44-1.254,1.517c-0.593-0.66-0.725-1.781-0.461-3.034C-201.016,424.15-205.765,421.577-208.272,424.348z
	 M-196.662,470.983c0,2.903,0.132,4.024,0.264,2.441c0.132-1.517,0.132-3.892,0-5.277
	C-196.53,466.827-196.662,468.081-196.662,470.983z"/>
</svg>
