<?xml version="1.0" encoding="iso-8859-1"?>
<!-- Generator: Adobe Illustrator 19.0.0, SVG Export Plug-In . SVG Version: 6.00 Build 0)  -->
<svg version="1.2" baseProfile="tiny" id="Layer_1" xmlns="http://www.w3.org/2000/svg" xmlns:xlink="http://www.w3.org/1999/xlink"
	 x="0px" y="0px" viewBox="-247 369.89 100 103" xml:space="preserve">
<title>face_00107</title>
<path d="M-233.546,370.248c-6.515,0.761-9.984,2.876-11.845,7.106c-1.607,3.723-1.607,5.33-0.677,65.313
	c0.17,7.446-0.084,15.567-0.423,17.936c-0.76,4.315-0.676,4.484,1.27,4.484c1.015,0,3.299,0.846,4.906,1.861
	c2.539,1.608,4.146,1.946,11.506,1.946c8.038,0,8.714-0.169,12.014-2.453c5.753-3.892,5.668-3.807,5.33-16.244
	c-0.085-6.26,0-11.337,0.254-11.337c0.253,0,2.2,0.931,4.314,2.03c7.445,3.977,15.313,3.639,20.728-0.93l2.707-2.2l-0.592,13.114
	l-0.592,13.113l2.96,3.046c1.693,1.692,4.908,3.553,7.361,4.4c5.415,1.776,13.96,1.86,18.105,0.084
	c3.469-1.438,9.053-6.937,9.137-8.968c0-0.677-0.254-18.19-0.677-38.917c-0.592-36.125-0.676-37.733-2.368-40.355
	c-3.215-4.823-10.153-7.868-18.444-7.868c-5.668,0-8.714,1.015-11.844,3.976c-2.877,2.707-3.638,6.091-2.284,9.814
	c0.676,2.03,0.761,5.584,0.253,13.198c-0.761,10.067-0.846,10.49-2.707,10.829c-2.876,0.423-5.245,1.861-5.33,3.215
	c-0.254,2.622-0.338,2.96-0.93,2.96h-6.6c-5.752,0-5.922-0.084-5.922-2.114c0-2.961-3.045-5.753-5.668-5.246l-2.2,0.423
	l0.508-16.159c0.423-14.974,0.338-16.328-1.184-19.458c-2.877-5.5-10.406-7.868-21.066-6.6V370.248z M-189.976,422.701
	c6.345,2.877,7.699,5.669,5.076,10.914c-4.315,8.63-17.09,10.237-23.858,2.961c-5.16-5.414-2.876-12.436,4.822-14.89
	C-200.89,420.671-193.191,421.178-189.976,422.701z M-206.643,416.695c0.339,2.368-2.03,3.384-3.807,1.607
	c-1.184-1.1-1.184-1.607-0.254-2.707C-209.181,413.733-206.981,414.325-206.643,416.695z M-183.885,418.895
	c-0.677,1.691-3.638,1.776-4.314,0.084c-0.254-0.677,0.169-1.861,0.93-2.538c1.185-1.27,1.523-1.27,2.623-0.085
	C-183.969,417.033-183.631,418.217-183.885,418.895L-183.885,418.895z M-209.858,421.855c0,1.439-1.523,1.777-2.03,0.508
	c-0.254-0.761,0-1.27,0.761-1.27c0.677,0,1.27,0.34,1.27,0.762H-209.858z M-220.687,372.871c7.614,2.115,9.053,12.436,2.454,17.428
	c-1.27,0.93-4.653,1.692-11.083,2.538c-3.3,0.423-8.883-2.03-11.93-5.246c-3.637-3.891-3.299-11.167,0.678-12.436
	c0.846-0.254,3.045-1.1,4.907-1.777C-231.685,371.855-225.171,371.686-220.687,372.871z M-160.197,378.708
	c1.862,0.508,4.654,2.03,6.092,3.384c6.26,5.838,1.015,15.313-8.375,15.313c-7.53,0-16.92-4.23-16.92-7.614
	c0-0.846-0.34-1.861-0.847-2.115c-2.707-1.692,1.608-8.376,6.176-9.645c3.3-0.846,9.137-0.592,13.875,0.677H-160.197z
	 M-241.667,390.383c3.722,3.13,7.783,4.653,12.436,4.653c4.23-0.084,10.83-1.945,14.044-4.06c1.862-1.185,1.946-1.185,1.523,1.522
	c-0.761,5.076-0.761,29.611-0.084,47.8c0.507,13.622,0.423,18.36-0.423,19.882c-1.439,2.792-4.738,5.669-6.938,6.092
	c-7.868,1.692-15.567,0.761-19.628-2.37l-2.707-2.114l-0.592-25.635c-0.338-14.128-0.761-30.71-1.1-36.887
	c-0.254-6.09-0.17-11.167,0.17-11.167C-244.628,388.099-243.19,389.114-241.667,390.383z M-176.185,396.221
	c2.961,2.115,6.853,2.96,13.536,2.96c4.738,0,6.769-0.422,8.968-1.691l2.792-1.777l0.508,24.281
	c1.015,41.117,1.015,41.286-1.692,45.093c-3.13,4.315-5.33,5.245-12.944,5.16c-7.192-0.084-14.383-2.791-16.16-6.175
	c-0.676-1.354-0.846-6.007-0.423-17.09c0.339-8.46,0.762-23.096,1.016-32.656s0.592-17.851,0.761-18.444
	C-179.315,394.529-178.469,394.613-176.185,396.221L-176.185,396.221z M-235.661,375.916c-3.046,1.608-3.809,2.624-3.809,5.669
	c0,1.692,0.931,3.384,2.877,5.33c2.538,2.538,3.384,2.876,7.445,2.876c2.961,0,5.415-0.592,7.191-1.692
	c5.076-3.046,4.4-10.66-1.1-12.69c-3.215-1.27-9.729-1.016-12.605,0.507H-235.661z M-222.294,378.116
	c0.93,0.508,1.438,1.692,1.438,3.638c0,2.453-0.508,3.3-2.707,4.653c-5.922,3.553-13.367,0.761-13.367-4.992
	c0-2.96,0.846-3.638,5.499-4.399C-227.878,376.508-224.832,376.846-222.294,378.116z M-232.531,379.808
	c-3.13,3.13,0.592,6.43,5.33,4.907c3.13-1.015,3.469-1.692,2.115-4.315C-226.101,378.539-230.839,378.116-232.531,379.808z
	 M-174.409,381.585c-4.146,2.791-4.315,6.091-0.508,9.729c2.623,2.538,3.553,2.876,9.137,3.3c5.584,0.338,6.6,0.253,9.222-1.608
	c4.23-2.877,4.4-5.838,0.592-9.476C-160.704,379.131-169.418,378.2-174.409,381.585z M-158.673,383.785
	c2.96,1.691,3.722,4.652,1.692,6.852c-4.569,4.992-20.474,0.761-18.613-4.992c0.508-1.692,3.3-3.13,5.246-2.791
	c0.507,0.169,1.269-0.254,1.607-0.762c0.761-1.269,6.768-0.254,10.068,1.692L-158.673,383.785z M-170.348,384.461
	c-1.185,1.1-0.508,3.553,1.269,4.822c3.553,2.538,8.883,1.27,7.952-1.776C-161.973,384.799-168.572,382.684-170.348,384.461z
	 M-200.974,424.224c-6.6,1.438-8.714,4.23-6.6,8.63c2.37,4.822,8.63,6.43,15.483,3.976c3.976-1.438,6.514-5.668,5.16-8.63
	C-188.538,424.647-194.883,422.87-200.974,424.224z M-192.26,426.678c3.214,0.676,3.722,1.86,2.115,5.16
	c-1.692,3.638-7.107,5.161-11.506,3.3c-4.738-1.946-5.838-6.6-1.946-8.122C-201.482,426.17-195.814,426.001-192.26,426.678z
	 M-201.144,428.454c-2.115,0.423-2.622,2.877-0.846,4.23c2.2,1.692,3.807,1.777,6.515,0.17c2.622-1.608,2.707-1.777,1.269-3.384
	C-195.729,427.947-197.167,427.693-201.144,428.454z"/>
</svg>
