<?xml version="1.0" encoding="iso-8859-1"?>
<!-- Generator: Adobe Illustrator 19.0.0, SVG Export Plug-In . SVG Version: 6.00 Build 0)  -->
<svg version="1.2" baseProfile="tiny" id="Layer_1" xmlns="http://www.w3.org/2000/svg" xmlns:xlink="http://www.w3.org/1999/xlink"
	 x="0px" y="0px" viewBox="-247 361.89 100 119" xml:space="preserve">
<title>face_00047</title>
<path d="M-206.955,362.779c-0.695,0.173-3.215,2.259-5.647,4.518c-2.346,2.172-5.126,4.43-6.082,5.039
	c-1.564,0.868-1.65,1.042-0.347,2.345c1.216,1.217,1.824,0.956,6.603-2.78c2.867-2.259,5.907-5.126,6.776-6.168
	C-204.088,363.561-204.782,361.997-206.955,362.779z M-201.395,365.299c-2.606,6.515-3.91,8.948-6.95,12.858
	c-3.215,4.257-3.215,5.647-0.087,5.647c2.172,0,4.952-3.91,9.21-13.032c3.214-6.69,3.388-8.688,0.868-8.688
	c-1.216,0-2.172,0.955-3.04,3.214L-201.395,365.299z M-190.274,363.126c0.695,1.912,9.644,11.469,13.554,14.596
	c2.78,2.172,6.603,3.736,13.9,5.821c5.561,1.564,11.382,2.867,12.946,2.867c2.52,0,2.78-0.173,2.085-1.911
	c-0.434-1.303-1.911-2.172-4.952-2.954c-11.208-2.867-22.763-8.862-29.54-15.291C-186.451,362.344-191.143,360.52-190.274,363.126z
	 M-176.546,362.692c0,1.216,5.82,4.778,18.07,11.207c7.125,3.736,10.079,4.605,10.948,3.041c1.042-1.65-0.522-3.214-4.431-4.344
	c-5.041-1.564-10.947-4.691-14.944-7.993c-2.172-1.823-3.996-2.52-6.342-2.52C-175.07,362.083-176.546,362.344-176.546,362.692z
	 M-159.605,363.474c1.651,1.303,11.295,6.429,11.99,6.429c0.26,0,0.434-0.956,0.434-2.085c0-2.433-3.91-4.431-10.252-5.213
	C-161.082,362.084-161.255,362.171-159.605,363.474z M-244.4,364.343c-0.608,0.695-1.13,4.257-1.303,7.819l-0.26,6.603l2.345-0.435
	c8.428-1.563,28.844-11.902,28.844-14.682c0-1.217-6.95-0.782-9.557,0.608c-2.346,1.216-2.607,1.216-2.607,0
	c0-1.738-4.43-1.738-7.819,0c-1.998,1.042-2.52,1.042-2.867,0.087C-238.232,362.779-243.097,362.779-244.4,364.343z M-184.8,397.705
	c-10.86,1.042-9.99-0.348-9.99,16.594v14.683h-3.91c-2.867,0-3.91-0.348-3.91-1.303c0-0.695-0.434-1.303-0.956-1.303
	c-0.52,0-0.781,1.042-0.608,2.345c0.26,2.346,0.522,2.433,5.734,2.694l5.387,0.26v-13.9c0-13.293,0.087-13.988,1.998-16.247
	l1.999-2.26h20.59c11.295,0,20.591-0.347,20.591-0.694c0-1.477-23.979-2.085-36.924-0.87L-184.8,397.705z M-241.098,405.35
	c-6.082,3.91-6.169,5.56-0.521,9.123c10.338,6.342,24.76,5.734,34.23-1.477c1.651-1.216,1.565-1.39-3.04-5.647
	c-4.605-4.258-4.952-4.431-10.078-4.431c-2.954,0-7.646-0.174-10.426-0.435C-235.712,402.136-236.407,402.31-241.098,405.35z
	 M-229.195,406.306c0.26,0.434,0.26,2.607,0,4.779c-0.609,3.91-0.609,3.996-3.736,3.996c-3.562,0-8.775-2.78-8.775-4.692
	C-241.706,407.783-230.499,404.134-229.195,406.306L-229.195,406.306z M-212.688,409.781c1.824,1.999,1.216,3.562-1.303,3.562
	c-1.217,0-1.651-0.608-1.651-2.606C-215.642,407.697-214.773,407.436-212.688,409.781z M-169.682,402.918l-10.078,0.434
	l-4.083,3.388c-5.04,4.084-5.648,5.387-3.476,7.56c4.605,4.604,17.898,6.602,26.586,3.909c4.518-1.303,11.99-5.387,11.99-6.516
	c0-0.87-3.997-4.518-7.82-7.125C-159.43,402.57-160.125,402.483-169.682,402.918z M-171.767,411.171
	c0,4.866-0.174,5.213-2.085,5.474c-2.26,0.347-9.296-2.085-10.165-3.475c-0.26-0.435,0.955-2.433,2.78-4.257
	c2.867-2.954,3.823-3.389,6.43-3.215l3.04,0.26V411.171z M-154.825,409.955c2.085,1.738,2.085,1.825,0.434,3.04
	c-2.346,1.739-3.388,1.13-3.736-2.084C-158.474,407.696-157.779,407.522-154.825,409.955z M-234.755,426.115
	c-0.696,0.26-2.26,1.303-3.302,2.346c-8.775,7.906-3.65,20.504,8.253,20.504c3.041,0,4.344-0.609,7.212-3.128
	c3.127-2.867,3.475-3.562,3.475-7.298c0-3.302-0.522-4.779-2.26-6.95C-225.199,427.158-231.02,424.725-234.755,426.115
	L-234.755,426.115z M-171.941,426.984c-1.13,0.174-1.998,0.521-1.998,0.608c0,0.174-0.608,1.738-1.303,3.562l-1.39,3.128
	l3.388,3.475c4.17,4.083,7.472,4.43,10.947,1.216c3.04-2.78,3.04-6.95,0.087-10.252
	C-164.469,426.376-166.728,425.941-171.941,426.984L-171.941,426.984z M-207.476,438.626c-0.26,0.521-0.174,1.303,0.26,1.737
	c1.043,1.043,2.78,1.13,12.598,0.956c7.038-0.174,7.472-0.26,7.038-1.911c-0.435-1.564-1.217-1.738-9.905-1.738
	C-203.305,437.67-207.042,438.018-207.476,438.626z M-202.611,446.793c0,1.39,5.213,2.693,7.385,1.824
	c3.215-1.216,0.174-3.128-4.952-3.128C-201.742,445.489-202.611,445.924-202.611,446.793z M-151.525,459.738
	c-6.95,7.82-20.851,13.64-38.488,16.16c-18.419,2.606-40.139-3.476-51.26-14.336c-2.606-2.52-4.952-4.344-5.213-4.082
	c-0.26,0.26-0.434,2.085-0.434,4.17c0,3.475,0.26,3.823,4.518,6.69c5.56,3.649,10.425,5.821,18.505,8.34
	c3.389,1.043,6.777,2.26,7.646,2.78c1.911,1.043,35.36,0.956,35.36-0.086c0-0.435,1.304-0.956,2.868-1.303
	c9.035-1.912,23.023-8.428,27.801-13.12c2.607-2.606,3.215-3.735,3.215-6.515c0-1.912-0.087-3.389-0.174-3.302
	C-147.354,455.134-149.266,457.219-151.525,459.738L-151.525,459.738z"/>
</svg>
