<?xml version="1.0" encoding="iso-8859-1"?>
<!-- Generator: Adobe Illustrator 19.0.0, SVG Export Plug-In . SVG Version: 6.00 Build 0)  -->
<svg version="1.2" baseProfile="tiny" id="Layer_1" xmlns="http://www.w3.org/2000/svg" xmlns:xlink="http://www.w3.org/1999/xlink"
	 x="0px" y="0px" viewBox="-247 368.89 100 104" xml:space="preserve">
<title>face_00055</title>
<path d="M-212.382,370.152c0,0.617,0.863,1.233,1.973,1.233c0.986,0,1.48-0.616,1.11-1.233c-0.371-0.74-1.235-1.232-1.975-1.232
	c-0.616,0-1.11,0.493-1.11,1.233L-212.382,370.152z M-203.381,371.015c1.11,0.247,2.836,0.247,3.7,0
	c0.739-0.37-0.124-0.616-2.22-0.616C-203.874,370.399-204.614,370.645-203.381,371.015z M-246.908,389.881
	c0,0.616,0.617,1.233,1.234,1.233c0.74,0,1.233-0.617,1.233-1.233c0-0.74-0.494-1.233-1.233-1.233
	C-246.291,388.648-246.908,389.141-246.908,389.881z M-229.891,390.744c2.096,0.247,5.795,0.247,8.014,0
	c2.096-0.247,0.37-0.493-4.069-0.493C-230.385,390.251-232.111,390.497-229.891,390.744z M-176.007,391.114
	c3.452,0.493,9,0.493,12.33,0c4.932-0.74,3.7-0.863-6.165-0.863C-179.707,390.251-180.94,390.374-176.007,391.114z
	 M-153.443,390.744c0.863,0.37,1.973,0.247,2.343-0.123c0.493-0.37-0.246-0.74-1.603-0.617
	C-154.059,390.004-154.429,390.374-153.443,390.744z M-162.813,396.786c-1.234,1.356-1.234,1.726,0,1.726
	c0.862,0.123,0.492,1.11-1.11,2.343c-1.48,1.233-2.343,2.59-1.973,3.083c1.11,1.11,3.082,0.863,2.342-0.247
	c-0.986-1.603,3.576-4.932,7.522-5.549c3.452-0.493,3.452-0.493-0.493-0.74c-2.096,0-4.07-0.616-4.316-1.233
	C-160.964,395.553-161.951,395.799-162.813,396.786L-162.813,396.786z M-246.908,397.526c0,1.233,1.973,1.48,7.892,1.233
	c6.782-0.37,8.015-0.124,8.508,1.85c0.493,1.972,0.617,1.972,0.74,0c0.123-2.713,6.288-2.96,6.288-0.247
	c0,0.986-0.986,1.85-2.096,1.85c-1.233,0-3.822,1.356-5.795,3.082l-3.576,3.083h15.536c8.508,0,16.277,0.37,17.386,0.74
	c1.11,0.37,1.973,0.123,1.973-0.617c0-0.863-3.576-1.356-10.357-1.356c-7.152,0-10.605-0.494-11.098-1.603
	c-0.616-1.233-0.863-1.233-1.48,0c-0.863,1.85-5.425,2.096-5.425,0.37c0-0.74,0.74-1.234,1.726-1.234
	c0.864,0,2.96-1.356,4.563-2.959c1.603-1.48,3.822-3.083,4.809-3.452c0.986-0.37-4.686-0.74-12.824-0.864
	c-8.015-0.123-15.043-0.493-15.66-0.863C-246.414,396.169-246.908,396.663-246.908,397.526z M-191.051,397.649
	c-0.986,1.603-0.246,1.726,8.878,0.863l8.632-0.74l-8.385-0.493C-186.612,396.909-190.681,397.156-191.051,397.649z
	 M-170.459,397.279c0,0.617,0.617,1.233,1.233,1.233c0.74,0,1.233-0.616,1.233-1.233c0-0.74-0.493-1.233-1.233-1.233
	C-169.842,396.046-170.459,396.539-170.459,397.279z M-208.683,398.635c-6.042,0.617-5.549,0.74,4.069,0.864
	c5.919,0.123,10.727,0,10.727-0.247C-193.887,398.266-202.148,397.896-208.683,398.635z M-149.497,398.512
	c-1.603,0.987-1.48,1.233,0.37,1.233c1.11,0,2.096-0.616,2.096-1.233C-147.031,397.032-147.154,397.032-149.497,398.512z
	 M-169.842,400.978c0.37,0.617,0.986,1.233,1.356,1.233c0.247,0,0.493-0.616,0.493-1.233c0-0.74-0.616-1.233-1.356-1.233
	C-169.965,399.745-170.212,400.238-169.842,400.978z M-246.908,408.007c0,2.959,0.247,5.302,0.494,5.302
	c0.986,0,1.48-7.399,0.493-8.878C-246.414,403.444-246.908,404.924-246.908,408.007z M-170.705,407.39
	c-2.096,2.096-2.096,2.22,0,2.22c3.329,0,5.178-1.603,3.452-3.083C-168.239,405.664-169.226,405.91-170.705,407.39z
	 M-162.567,406.404c-0.987,1.11-0.863,1.85,0.37,2.959c0.986,0.986,1.603,1.11,1.603,0.247c0-0.617,1.48-1.357,3.452-1.357
	c3.33-0.246,3.33-0.246,0.247-0.74c-1.726-0.37-3.33-1.11-3.7-1.603C-160.965,405.417-161.827,405.664-162.567,406.404z
	 M-242.222,406.774c0.74,0.246,2.22,0.246,3.083,0c0.74-0.37,0.123-0.617-1.603-0.617
	C-242.469,406.157-243.085,406.404-242.222,406.774z M-149.99,407.02c-2.343,0.863-2.343,0.987,0.246,1.603
	c1.85,0.493,2.713,0.247,2.713-0.986c0-0.987-0.123-1.727-0.246-1.603C-147.524,406.034-148.757,406.527-149.99,407.02z
	 M-192.9,408.5c-1.603,0.493,2.22,0.863,8.261,0.863c11.098-0.123,11.221-0.617,0.37-1.233
	C-187.475,407.883-191.297,408.13-192.9,408.5z M-238.276,415.898c-3.33,0.493,0.123,0.74,8.631,0.74
	c13.934,0,15.167-0.37,3.083-1.11C-229.892,415.282-235.194,415.528-238.276,415.898z M-151.963,415.775
	c-2.22,1.48-0.247,1.48,3.083,0c1.603-0.74,1.85-1.11,0.616-1.11C-149.25,414.665-150.977,415.158-151.963,415.775z
	 M-246.908,417.008c0,0.616,0.617,1.233,1.234,1.233c0.74,0,1.233-0.617,1.233-1.233c0-0.74-0.494-1.233-1.233-1.233
	C-246.291,415.775-246.908,416.268-246.908,417.008z M-180.323,416.638c0,0.616,4.069,0.863,8.878,0.616
	c16.276-0.616,17.879-1.11,4.439-1.233C-174.404,415.898-180.323,416.145-180.323,416.638z M-180.57,436.367
	c0.863,0.37,1.973,0.246,2.343-0.124c0.493-0.37-0.246-0.74-1.603-0.616C-181.186,435.627-181.556,435.997-180.57,436.367z
	 M-218.424,437.847c-1.233,0.74-0.247,1.11,3.082,0.986c2.59-0.124,5.92,0.246,7.275,0.863c1.48,0.493,1.233,0.123-0.616-0.987
	c-3.453-2.096-7.152-2.466-9.741-0.863V437.847z M-172.924,437.847c0,0.616,0.616,1.602,1.232,1.972
	c0.74,0.37,1.233,0.247,1.233-0.493c0-0.617-0.493-1.603-1.233-1.973c-0.616-0.37-1.233-0.246-1.233,0.493L-172.924,437.847z
	 M-229.028,443.642c-2.22,4.069-2.22,4.315,0.123,6.905c5.672,6.658,6.658,7.521,6.658,6.412c0-0.74-1.603-2.836-3.699-4.81
	c-3.576-3.452-3.945-6.041-0.616-4.685c0.986,0.37,1.85,0,1.85-0.74c0-0.74-0.74-1.356-1.48-1.356c-0.863,0-0.124-1.356,1.726-2.96
	c3.206-2.835,3.206-2.959,0.493-2.959C-225.946,439.449-227.549,440.806-229.028,443.642z M-188.954,442.285
	c0,0.987,0.246,1.85,0.493,1.85c0.246,0,0.74-0.863,1.233-1.85c0.37-0.986,0.123-1.85-0.493-1.85
	C-188.461,440.435-188.954,441.299-188.954,442.285z M-170.582,443.395c1.233,1.356,0.986,2.096-0.74,3.083
	c-2.096,1.233-2.096,1.233,0,1.356c2.466,0,2.713,1.356,0.617,3.7c-0.863,0.986-0.37,0.739,1.11-0.494
	c2.219-1.85,2.466-2.713,1.356-5.795c-0.617-1.973-1.85-3.576-2.466-3.576C-171.445,441.669-171.445,442.409-170.582,443.395z
	 M-204.244,444.751c0.616,1.357-1.11,1.85-9.618,2.22l-10.234,0.37l10.234,0.246c9.988,0.247,12.33,1.233,7.768,3.453
	c-3.945,1.85-12.576,10.358-11.836,11.59c0.37,0.74,1.356,1.234,1.973,1.234c0.74,0,0.986-0.494,0.616-1.11
	c-0.616-0.987,13.194-2.343,29.84-2.96c6.165-0.123,7.892-1.11,5.179-2.712c-0.74-0.493-1.973-0.247-2.836,0.37
	c-0.863,0.616-8.015,1.48-16.03,1.973c-14.18,0.74-14.55,0.74-13.193-1.727c1.726-3.206,11.22-8.63,15.166-8.63
	c1.726,0,4.686,0.616,6.535,1.232c2.96,1.11,3.083,1.11,1.727-0.616c-1.357-1.603-0.494-1.85,6.781-1.85
	c4.686,0,8.138-0.37,7.769-0.74c-0.37-0.37-6.905-0.616-14.427-0.616c-11.097,0-13.687-0.37-13.687-1.85
	c0-0.986-0.493-1.726-1.233-1.726c-0.616,0-0.863,0.863-0.493,1.85L-204.244,444.751z M-186.488,452.026
	c0,0.247,0.986,1.233,2.22,2.097c1.849,1.603,1.972,1.48,0.37-0.494C-185.502,451.656-186.488,451.039-186.488,452.026z
	 M-214.232,466.33c0.37,0.616,0.987,1.233,1.357,1.233c0.246,0,0.493-0.617,0.493-1.233c0-0.74-0.617-1.233-1.357-1.233
	C-214.355,465.097-214.602,465.59-214.232,466.33z M-208.806,471.755c0.74,0.863,2.836,1.356,5.055,0.987
	c4.686-0.617,4.439-0.987-1.603-1.85C-209.176,470.275-209.793,470.522-208.806,471.755z M-196.599,470.892
	c1.48,0.247,3.699,0.247,4.932,0c1.11-0.37-0.123-0.617-2.836-0.493C-197.216,470.399-198.203,470.645-196.599,470.892z"/>
</svg>
