<?xml version="1.0" encoding="iso-8859-1"?>
<!-- Generator: Adobe Illustrator 19.0.0, SVG Export Plug-In . SVG Version: 6.00 Build 0)  -->
<svg version="1.2" baseProfile="tiny" id="Layer_1" xmlns="http://www.w3.org/2000/svg" xmlns:xlink="http://www.w3.org/1999/xlink"
	 x="0px" y="0px" viewBox="-247 367.89 100 106" xml:space="preserve">
<title>face_00101</title>
<path d="M-190.565,370.555c-0.772,1.8-1.286,4.242-1.286,5.142c0,1.028-1.285,2.699-2.828,3.727c-2.57,1.8-3.084,1.8-5.14-0.128
	c-1.286-1.157-2.315-3.728-2.315-5.784c0-4.756-1.67-4.628-3.984,0.514c-2.185,5.141-5.013,5.784-11.568,2.956
	c-6.041-2.828-13.625-2.056-19.023,1.8c-2.057,1.542-5.27,2.699-7.07,2.699c-3.856,0-4.113,1.028-1.414,4.627
	c2.442,3.213,2.442,6.298-0.128,10.154c-2.057,3.085-2.057,3.214,1.285,3.214c2.057,0,5.27,1.8,8.355,4.627
	c6.17,5.398,11.954,6.684,18.637,3.856c6.299-2.57,5.913-2.7,5.913,1.8c0,2.827-0.771,4.241-3.085,5.27
	c-7.198,3.341-7.198,12.339-0.128,15.552c4.37,2.057,3.599,5.013-2.057,7.712c-2.956,1.414-5.013,3.342-5.527,5.527
	c-0.771,2.828-1.542,3.214-6.041,3.214c-4.242,0-5.141,0.385-4.499,2.056c0.386,1.157,0.771,3.856,0.771,6.298
	c0,3.856,0.386,4.242,4.885,5.013c3.085,0.386,6.298,2.185,8.612,4.756c4.755,5.013,8.74,7.07,15.81,8.226
	c6.298,1.028,12.21-1.542,21.593-9.126c3.085-2.57,7.07-5.013,9.126-5.527c2.828-0.771,3.47-1.67,3.214-3.984
	c-0.129-1.671,0.642-4.242,1.67-5.913c2.571-4.113,2.443-4.37-1.799-4.37c-2.314,0-4.499-1.028-5.527-2.442
	c-1.028-1.414-3.342-2.957-5.27-3.342c-1.928-0.514-4.37-2.442-5.27-4.242c-1.542-2.956-1.414-3.727,0.9-6.94
	c2.056-2.828,2.314-4.242,1.414-7.713c-0.771-2.442-2.442-4.756-4.113-5.527c-2.442-1.028-2.828-1.928-2.314-5.013
	c0.386-2.056,0.771-4.755,0.771-6.04c0-2.314,0.257-2.314,4.628-0.515c6.812,2.828,11.696,2.314,20.308-1.928
	c5.141-2.57,8.612-3.599,10.797-2.956c3.213,0.771,3.213,0.128,0.643-6.813c-0.257-0.642,0.642-2.442,2.185-3.727
	c3.599-3.213,3.213-4.499-1.414-4.499c-2.442,0-6.041-1.67-9.897-4.627c-5.527-4.242-6.556-4.499-12.083-3.985
	c-3.342,0.386-7.84,1.671-9.897,2.828l-3.984,2.057v-5.142C-186.709,367.727-188.766,365.928-190.565,370.555L-190.565,370.555z
	 M-160.488,381.738c4.627,3.342,5.784,5.013,5.784,8.098c0,3.599-0.643,4.241-9.255,8.097c-10.797,4.885-13.239,5.013-19.794,1.414
	c-4.499-2.57-4.884-2.57-6.427-0.385c-0.9,1.285-1.67,5.527-1.67,9.511c0,6.17,0.385,7.327,2.827,8.355
	c3.985,1.8,4.37,5.398,1.028,10.026c-2.313,3.084-2.699,4.241-1.414,5.912c0.772,1.157,1.928,3.342,2.571,4.885
	c0.771,1.542,2.57,3.213,4.242,3.727c1.542,0.514,4.756,2.442,7.07,4.242c5.27,4.241,5.655,8.612,0.77,10.54
	c-1.8,0.642-5.655,3.213-8.354,5.655c-11.697,10.668-24.165,11.054-33.162,1.285c-1.8-1.928-5.142-4.37-7.327-5.27
	c-5.141-2.185-5.655-6.298-1.028-7.455c1.67-0.385,4.113-2.57,5.141-4.627c1.029-2.056,3.47-4.241,5.142-4.627
	c1.8-0.386,3.856-1.8,4.498-3.085c1.8-3.342,1.543-8.997-0.257-8.997c-2.442,0-6.17-4.113-6.17-6.684c0-1.543,1.415-3.085,3.6-3.856
	c3.342-1.285,3.856-2.185,4.884-10.283c1.285-9.254,0.771-11.44-2.185-7.97c-2.828,3.343-8.483,5.656-14.268,5.656
	c-4.755,0-6.298-0.642-9.897-4.498c-2.313-2.442-4.627-4.499-5.141-4.499c-0.514,0-1.028-2.828-1.028-6.17
	c-0.129-6.17,0-6.17,6.555-9.64c7.455-3.856,10.283-4.241,14.91-1.542c3.856,2.185,10.54,2.442,12.468,0.514
	c1.028-1.028,2.185-0.643,4.113,1.285c3.085,3.085,6.17,3.342,9.64,0.772c1.414-1.029,3.985-1.928,5.784-1.928
	c1.8,0,5.656-0.9,8.483-1.928C-171.671,375.825-167.558,376.597-160.488,381.738z M-184.396,384.823
	c-3.47,1.8-6.17,5.398-6.17,8.097c0,1.029,0.9,0.9,2.571-0.128c1.928-1.285,2.828-1.285,4.113,0
	c2.185,2.185,13.24,1.928,17.867-0.386c2.056-1.156,4.37-1.67,5.013-1.285c2.57,1.542,1.285-3.213-1.543-5.784
	c-3.47-3.213-16.452-3.6-21.85-0.514H-184.396z M-172.956,386.751c-1.8,1.028-2.828,1.028-3.856,0
	c-1.028-1.028-0.386-1.414,2.442-1.414C-171.157,385.465-170.9,385.594-172.956,386.751z M-170.643,388.421
	c5.527-2.57,7.327-1.542,2.571,1.543c-3.727,2.442-11.568,2.7-14.267,0.386c-2.957-2.442-0.643-3.6,3.342-1.671
	c3.342,1.8,4.241,1.67,8.354-0.257L-170.643,388.421z M-230.925,385.465c-4.499,2.7-7.584,6.427-6.17,7.841
	c0.771,0.771,1.542,0.771,2.185-0.128c0.514-1.029,2.057-0.515,4.756,1.285c4.627,3.342,9.511,3.47,15.424,0.385
	c2.314-1.285,5.399-2.185,6.812-1.928c2.571,0.386,2.571,0.386,0-2.442c-1.413-1.542-4.113-3.599-6.04-4.627
	C-218.072,383.666-227.455,383.537-230.925,385.465z M-219.871,388.165c-1.157,1.156-1.928,1.156-3.085,0
	c-1.157-1.157-0.9-1.543,1.542-1.543S-218.714,387.008-219.871,388.165z M-227.841,389.065c0,1.927,7.327,2.956,10.155,1.413
	c1.67-0.9,2.699-0.9,2.699-0.128c0,1.8-4.37,3.984-7.712,3.984c-3.342,0-9.255-3.727-8.226-5.27c0.9-1.542,3.085-1.542,3.085,0
	L-227.841,389.065z M-193.52,420.17c-3.086,1.8-6.042,9.383-6.042,15.424c0,2.828-0.514,5.013-1.285,5.013
	c-0.643,0-1.286-3.214-1.286-7.07c0-5.912-0.514-7.712-3.213-10.282c-3.085-3.214-8.355-4.37-8.355-1.928
	c0,0.642,0.643,1.285,1.286,1.285c2.956,0,7.712,6.427,7.712,10.283c0,4.884-2.057,8.997-4.37,8.997c-1.029,0-2.186,0.9-2.571,2.057
	c-0.643,1.67-0.129,1.8,3.47,1.028c2.185-0.514,7.327-0.9,11.183-0.643l6.94,0.257l-3.47-3.213c-1.928-1.8-3.47-4.627-3.47-6.298
	c0-4.884,2.57-11.183,5.27-12.597c1.285-0.642,2.442-1.799,2.442-2.442C-189.279,418.371-190.564,418.499-193.52,420.17
	L-193.52,420.17z M-222.7,452.432c-2.956,1.414-2.7,1.542,3.856,2.185c7.326,0.771,13.625,3.856,15.039,7.327
	c1.028,2.699,4.241,2.185,4.241-0.772c0-3.856,4.884-6.17,14.01-6.812c5.27-0.257,8.612-1.157,8.87-2.185
	c0.385-1.157-1.543-1.414-8.484-1.028c-6.94,0.385-10.154,1.156-13.11,3.342l-3.985,2.956l-4.37-2.57
	C-212.289,451.532-218.716,450.633-222.7,452.432z"/>
</svg>
