<?xml version="1.0" encoding="iso-8859-1"?>
<!-- Generator: Adobe Illustrator 19.0.0, SVG Export Plug-In . SVG Version: 6.00 Build 0)  -->
<svg version="1.2" baseProfile="tiny" id="Layer_1" xmlns="http://www.w3.org/2000/svg" xmlns:xlink="http://www.w3.org/1999/xlink"
	 x="0px" y="0px" viewBox="-247 358.89 100 125" xml:space="preserve">
<title>face_00016</title>
<path d="M-244.49,359.703c-0.174,0.524-0.523,17.293-0.785,37.205c-0.262,19.913-0.786,47.424-1.048,61.136l-0.612,24.89
	l49.433,0.175l49.432,0.088l0.262-18.428c0.175-10.219,0.437-37.904,0.524-61.572l0.262-42.97h-44.628v20.35l5.152-0.524
	c7.598-0.612,8.122,0.524,1.223,3.056l-5.94,2.271l-0.261,19.301l-0.175,19.389l2.445,1.397c1.398,0.786,3.494,2.795,4.542,4.367
	c1.921,2.795,1.921,3.057,0.611,4.367c-1.222,1.223-3.144,1.485-10.83,1.31c-5.24-0.175-10.13-0.437-10.916-0.699
	c-3.494-1.048-1.048-6.463,4.454-10.043c2.096-1.31,2.096-1.398,2.533-20.699l0.436-19.301l-6.724-2.009
	c-3.668-1.048-6.637-2.27-6.637-2.707c0-0.524,2.795-0.7,6.55-0.437l6.55,0.437v-9.957c0-7.161-0.262-10.043-1.048-10.305
	c-0.612-0.175-10.918-0.524-22.795-0.701c-15.634-0.26-21.835-0.085-22.009,0.614L-244.49,359.703z M-207.633,393.066
	c3.231,4.366,3.231,8.646-0.088,13.013c-2.183,2.794-2.795,3.144-5.153,2.707c-1.484-0.35-3.668-1.135-4.716-1.921
	c-2.096-1.31-5.502-6.201-5.502-7.773c0.087-2.009,5.066-6.725,8.297-7.86C-210.079,389.572-210.428,389.485-207.633,393.066z
	 M-173.048,393.502c2.183,0.961,4.978,4.978,4.978,7.075c-0.087,1.484-2.62,4.541-4.978,5.851c-1.048,0.524-3.843,0.96-6.289,0.96
	c-4.104,0-4.541-0.174-5.851-2.794c-1.66-3.144-1.135-7.948,1.048-10.393C-182.48,392.28-176.454,391.931-173.048,393.502z
	 M-185.8,445.38c4.366,1.31,8.995,4.192,8.995,5.764c0,1.136-7.773,4.804-13.45,6.288c-4.628,1.223-5.414,1.223-11.179-0.349
	c-7.336-2.096-12.925-4.803-12.925-6.288c0-1.223,5.59-4.716,9.432-5.852C-200.997,443.721-190.517,443.983-185.8,445.38z"/>
</svg>
