<?xml version="1.0" encoding="iso-8859-1"?>
<!-- Generator: Adobe Illustrator 19.0.0, SVG Export Plug-In . SVG Version: 6.00 Build 0)  -->
<svg version="1.2" baseProfile="tiny" id="Layer_1" xmlns="http://www.w3.org/2000/svg" xmlns:xlink="http://www.w3.org/1999/xlink"
	 x="0px" y="0px" viewBox="-247 364.89 100 112" xml:space="preserve">
<title>face_00084</title>
<path d="M-202.685,372.324c0,8.111-1.394,10.52-5.957,10.52c-2.154,0-3.548-1.268-5.07-4.817c-1.647-3.295-3.928-5.576-8.11-7.604
	c-5.324-2.662-6.465-2.789-11.788-1.394c-3.929,1.013-7.098,2.915-9.76,5.956c-3.42,3.93-3.927,5.197-3.294,9.886
	c1.648,15.21,18.632,20.66,29.405,9.38c2.788-2.916,4.69-3.803,8.492-3.803h4.816v19.011c0,11.154-0.507,19.012-1.14,19.012
	c-0.761,0-3.803-1.775-6.845-3.802c-6.337-4.31-9.125-4.69-10.266-1.775c-2.028,5.323-0.76,7.478,8.111,13.181l8.746,5.704
	l0.126,10.393v10.52h-10.141c-9.378,0-10.265,0.253-11.28,2.788c-0.886,2.535-1.013,5.957-0.253,10.14
	c0,0.633,12.294,1.013,27.25,1.013h27.25l-0.254-6.717l-0.253-6.59l-9.506-0.635l-9.506-0.633l-0.38-8.619
	c-0.253-5.196,0.254-9.379,1.014-10.393c0.887-1.014,5.07-3.929,9.506-6.464c9.125-5.323,10.773-8.491,6.717-12.8
	c-3.422-3.676-5.323-3.676-10.393,0.253c-5.957,4.563-7.604,4.182-6.59-1.648c0.38-2.535,0.76-10.773,0.76-18.377v-13.562h5.578
	c4.436,0,5.83,0.507,6.464,2.535c1.267,3.929,8.491,7.604,14.829,7.604c9.885,0,17.11-7.35,17.363-17.87
	c0.379-11.027-19.519-18.378-28.771-10.647c-2.028,1.775-4.183,4.563-4.563,6.337c-0.634,2.662-1.521,3.17-5.197,3.17h-4.309
	l-0.38-7.986l-0.38-7.858l-5.957-0.38l-6.084-0.38v7.35V372.324z M-224.992,381.069c2.535,2.408,2.535,3.042,0,6.59
	c-2.534,3.676-6.59,3.55-8.238-0.253C-236.018,381.196-229.681,376.253-224.992,381.069z M-160.226,380.689
	c4.943,3.675-1.52,12.547-7.098,9.632c-3.295-1.647-3.929-4.943-1.774-8.238C-166.943,378.661-163.775,378.154-160.226,380.689z"/>
</svg>
