<?xml version="1.0" encoding="iso-8859-1"?>
<!-- Generator: Adobe Illustrator 19.0.0, SVG Export Plug-In . SVG Version: 6.00 Build 0)  -->
<svg version="1.2" baseProfile="tiny" id="Layer_1" xmlns="http://www.w3.org/2000/svg" xmlns:xlink="http://www.w3.org/1999/xlink"
	 x="0px" y="0px" viewBox="-247 366.89 100 109" xml:space="preserve">
<title>face_00070</title>
<path d="M-181.809,367.324c-0.23,0.173-15.632,0.747-46.724,1.724l-8.103,0.23l0.057,6.15l0.058,6.149l-5,0.517
	c-4.598,0.46-5,0.632-5.345,1.897c-0.173,0.747-0.173,2.299,0.057,3.39l0.403,2.012l4.655-0.172l4.655-0.173v2.3
	c0,1.608-0.287,2.298-0.862,2.413c-0.46,0.057-2.644,0.287-4.77,0.46l-3.908,0.402l0.172,3.218l0.173,3.276l4.655-0.23l4.655-0.172
	l0.402,10.23c0.23,5.69,0.402,17.988,0.345,27.356c-0.057,16.724,0.805,34.77,1.667,35.69c0.344,0.345,8.39,0.69,11.494,0.46
	c0.69-0.058,0.747-1.782,0.46-10.862c-0.23-5.92-0.518-11.38-0.69-12.184c-0.172-0.805-0.402-11.552-0.575-23.851
	c-0.172-12.356-0.46-23.506-0.632-24.828l-0.287-2.413l2.471-0.345c1.38-0.23,2.759-0.345,3.046-0.288
	c0.345,0.058,2.529,0.115,4.885,0.058c3.333-0.058,4.08-0.23,3.276-0.69c-0.862-0.517-1.035-1.264-0.92-4.138
	c0.058-2.816-0.057-3.505-0.69-3.333c-0.459,0.115-3.39,0.345-6.494,0.517c-5.172,0.23-5.69,0.173-5.344-0.747
	c0.23-0.517,0.402-1.437,0.402-2.069c0-0.977,0.46-1.092,5.057-1.092c2.759,0,5.403-0.287,5.862-0.575
	c0.92-0.632-16.954-0.402-26.896,0.345l-5.345,0.403l0.173-2.53l0.172-2.528l4.31-0.46c2.357-0.23,6.38-0.632,8.908-0.92
	c2.759-0.287,4.885-0.229,5.288,0.058c0.402,0.345,1.092,0.345,1.724,0c0.575-0.287,3.563-0.69,6.666-0.862l5.575-0.345l0.058,2.989
	c0.057,3.39,0.287,3.103,0.69-0.92l0.287-2.7h-13.219l0.23-4.598c0.173-4.368,0.23-4.598,1.61-4.828
	c1.953-0.402,14.942-1.092,14.942-0.862c0,0.115,0.287,2.529,0.575,5.402c0.517,4.828,0.804,11.035,1.436,31.61
	c0.115,4.425,0.633,13.792,1.15,20.861c0.575,7.012,0.804,13.391,0.632,14.196c-0.345,1.38-0.517,1.437-5.23,1.437
	c-5.575,0-5.23-0.518-4.54,6.264c0.345,3.276,0.517,3.563,1.61,3.276c0.689-0.173,4.137-0.46,7.7-0.69l6.437-0.345v1.61
	c0,3.046-0.632,3.39-6.61,3.563c-6.206,0.23-6.091,0.115-5.172,5.402l0.345,2.184l11.322-0.057c6.207,0,12.356-0.173,13.62-0.403
	l2.3-0.402l0.287-3.966l0.287-3.908l-7.184,0.23l-7.183,0.173v-4.023h8.735c4.77,0,8.85-0.173,9.138-0.403
	c0.23-0.23,0.345-2.241,0.287-4.482c-0.057-2.53,0.115-4.023,0.46-4.023s0.632-0.288,0.632-0.575c0-0.345-2.643-0.575-6.839-0.575
	h-6.781l-0.403-1.896c-0.23-0.977-0.632-5.69-0.977-10.46c-0.287-4.713-0.632-9.368-0.747-10.345
	c-0.115-0.92-0.287-12.586-0.402-25.862l-0.23-24.138l8.563-0.402c4.713-0.288,8.736-0.345,8.85-0.173
	c0.173,0.115,0.288,2.414,0.346,5l0.057,4.77l-4.655,0.173c-5.23,0.172-5.402,0.287-5.402,5v2.299h5.172
	c5.747,0,6.322,0.287,6.322,3.505c0,1.667-0.172,1.84-2.126,2.184c-1.207,0.173-3.794,0.345-5.748,0.345
	c-3.333,0-4.482,0.575-3.046,1.437c0.345,0.172,0.575,1.494,0.575,2.931c0,1.494,0.287,2.529,0.632,2.529
	c0.46,0,0.575-0.977,0.403-2.931c-0.173-1.84-0.058-2.989,0.344-3.104c0.345-0.115,6.61-0.517,13.851-0.862
	c7.299-0.287,14.598-0.747,16.264-0.92l2.989-0.402v3.219c0,1.781-0.287,3.39-0.575,3.563c-0.345,0.23-5.804,0.632-12.241,0.92
	c-17.529,0.747-20,0.919-20.403,1.379c-0.23,0.23,1.725,0.287,4.368,0.115l4.713-0.288l0.057,3.219
	c0.058,1.839,0.173,4.195,0.345,5.287c0.115,1.092,0.345,16.38,0.517,33.908c0.173,17.529,0.518,32.07,0.69,32.299
	c0.345,0.345,9.253,0.69,12.701,0.517l1.38-0.057l-0.403-8.219c-0.172-4.482-0.517-12.7-0.69-18.218
	c-0.23-5.517-0.46-10.172-0.517-10.345c-0.115-0.172-0.344-8.85-0.574-19.31l-0.46-19.023l1.954-0.345
	c1.949-0.29,3.903-0.539,5.862-0.747l3.85-0.345l0.058-2.701c0-1.437,0.115-3.276,0.287-4.023l0.23-1.38l-6.264,0.403l-6.264,0.46
	l-0.23-1.667c-0.46-3.333-0.288-3.448,5.862-3.908c3.16-0.172,5.747-0.575,5.747-0.862c0-0.46-3.678-0.345-16.38,0.575
	c-6.551,0.46-12.068,0.344-16.206-0.345c-1.782-0.288-1.897-0.46-1.897-2.586c0-1.322,0.287-2.357,0.747-2.53
	c0.575-0.172,21.552-0.919,31.437-1.091l3.16-0.058l-0.114,2.874l-0.115,2.874l0.747-2.012c0.402-1.092,0.977-2.644,1.207-3.39
	l0.402-1.38l-7.184,0.402c-8.505,0.46-8.563,0.403-8.448-5.574c0.058-1.954,0.058-4.023,0.058-4.598
	c-0.058-0.977-0.747-1.035-9.54-0.92C-177.326,367.037-181.693,367.152-181.809,367.324L-181.809,367.324z M-195.602,392.9
	c-0.172,0.46-0.345,0.287-0.345-0.345c-0.057-0.632,0.115-0.977,0.288-0.747C-195.487,391.98-195.429,392.498-195.602,392.9z
	 M-212.786,396.003l-0.172,2.816l-7.759,0.345c-4.253,0.23-11.552,0.517-16.207,0.747l-8.505,0.345v-5l3.85-0.346
	c2.471-0.23,4.08-0.172,4.598,0.23c0.517,0.46,0.977,0.46,1.494,0.058c0.345-0.288,2.874-0.747,5.575-0.92
	c2.701-0.172,7.471-0.69,10.632-1.092c3.16-0.402,5.977-0.575,6.207-0.345c0.287,0.173,0.402,1.61,0.287,3.161V396.003z
	 M-194.452,433.934c-0.173,0.173-0.69,0.23-1.092,0.058c-0.46-0.173-0.288-0.345,0.344-0.345
	C-194.567,433.59-194.223,433.762-194.452,433.934z M-178.878,447.21l0.173,4.196h-15.115c-8.334,0.057-15.92,0.172-16.954,0.287
	c-1.782,0.23-1.84,0.23-2.472-2.931c-0.402-1.782-0.46-3.448-0.172-3.678c0.23-0.288,4.368-0.632,9.08-0.862
	c4.77-0.23,11.092-0.575,14.081-0.805c2.988-0.23,6.782-0.402,8.333-0.345h2.874C-179.05,443.072-178.878,447.21-178.878,447.21z
	 M-183.303,459.796c-0.057,1.552-0.345,2.989-0.517,3.219c-0.23,0.172-5.977,0.46-12.701,0.517l-12.357,0.172l-0.46-1.896
	c-1.034-3.85-1.436-3.736,12.472-4.425c6.954-0.345,12.873-0.575,13.218-0.518C-183.36,456.923-183.188,458.245-183.303,459.796z
	 M-230.659,462.096c0.172,0.459,0.057,1.149-0.288,1.494c-0.402,0.402-0.574,0.287-0.517-0.403c0.058-0.575-0.23-1.15-0.69-1.322
	c-0.632-0.172-0.69,0.115-0.402,1.38c0.287,1.379,0.23,1.494-0.287,0.632c-0.345-0.575-0.46-1.437-0.288-1.897
	c0.403-1.092,2.012-1.034,2.472,0.115V462.096z"/>
</svg>
