<?xml version="1.0" encoding="iso-8859-1"?>
<!-- Generator: Adobe Illustrator 19.0.0, SVG Export Plug-In . SVG Version: 6.00 Build 0)  -->
<svg version="1.2" baseProfile="tiny" id="Layer_1" xmlns="http://www.w3.org/2000/svg" xmlns:xlink="http://www.w3.org/1999/xlink"
	 x="0px" y="0px" viewBox="-247 369.89 100 103" xml:space="preserve">
<title>face_00126</title>
<path d="M-215.43,372.308c-7.314,5.404-10.207,7.751-19.978,16.103c-5.568,4.749-10.48,9.116-10.917,9.716
	c-0.655,0.983-0.764,4.476-0.492,23.09l0.273,21.888l6.769,6.441c3.712,3.548,8.624,8.734,10.917,11.463
	c6.823,8.188,9.443,10.753,10.862,10.753c0.71,0,1.365,0.328,1.529,0.655c0.164,0.546,0.436,0.546,1.146-0.054
	c0.819-0.655,4.64-0.873,20.96-1.092c19.651-0.327,19.979-0.327,20.306-1.474c0.273-1.037,6.387-7.15,12.555-12.554
	c1.31-1.147,3.057-2.675,3.821-3.384c0.764-0.71,2.402-2.02,3.657-3.003c1.31-0.982,2.511-2.347,2.675-3.002
	c0.327-1.092,0.6-1.255,1.91-0.982c1.147,0.218,1.693,0.054,2.075-0.655c0.545-0.983,0.382-20.579-0.219-33.407
	c-0.436-8.842-1.146-11.626-2.893-11.9c-0.655-0.108-1.746-0.982-2.401-1.91c-3.166-4.53-6.332-8.133-19.27-21.888
	c-0.327-0.328-1.255-1.474-2.073-2.566c-1.529-2.074-5.077-3.384-5.786-2.238c-0.219,0.328-6.223,0.492-15.72,0.492l-15.34-0.11
	l0.055-1.31c0.055-0.71-0.109-1.364-0.436-1.473C-211.718,369.797-213.575,370.889-215.43,372.308L-215.43,372.308z
	 M-170.89,388.083c5.896,5.95,11.736,12.01,12.937,13.538c1.201,1.473,2.347,2.838,2.566,3.002c1.037,0.764,1.583,3.984,1.419,8.187
	c-0.164,4.913,0.491,22.544,0.982,26.802c0.273,2.51,0.273,2.51-2.62,4.912c-4.093,3.386-10.534,8.952-14.354,12.556
	c-1.801,1.638-4.476,4.148-6.004,5.513l-2.73,2.456l-14.464,0.437c-20.142,0.6-23.09,0.6-24.072,0
	c-0.492-0.327-3.057-3.111-5.786-6.277c-4.64-5.404-10.372-11.136-16.048-16.103l-2.511-2.183l0.49-6.55
	c0.22-3.603,0.328-12.337,0.165-19.378l-0.33-12.829l3.712-3.548c3.93-3.766,7.424-6.987,11.954-10.753
	c1.474-1.2,4.53-3.875,6.769-5.84l4.094-3.603l4.093-0.055c5.896-0.109,26.256-0.819,27.675-0.928
	C-182.025,377.33-179.077,379.95-170.89,388.083z M-217.723,385.41c-1.607,1.432-3.227,2.852-4.858,4.257
	c-0.71,0.546-1.856,1.529-2.565,2.13c-0.655,0.6-3.93,3.165-7.315,5.73l-6.059,4.64l0.328,2.457
	c0.164,1.364,0.382,7.97,0.437,14.738c0.218,18.94,0.327,20.906,1.146,21.998c0.71,0.873,1.2,0.927,5.295,0.436
	c2.51-0.327,8.624-0.71,13.537-0.873l8.952-0.273l-0.11-3.766c-0.163-4.476,0-4.64,5.295-5.186c1.91-0.218,3.821-0.546,4.258-0.71
	c0.6-0.218,0.764,0.219,0.764,1.856c0,2.511,0.218,2.893,1.692,2.511c0.764-0.218,1.037-0.764,1.037-2.074v-1.801l3.548-0.383
	c1.91-0.218,3.876-0.272,4.313-0.109c0.49,0.219,0.818,1.529,0.982,4.149c0.11,2.074,0.328,3.93,0.491,4.094
	c0.164,0.163,1.092,0.109,2.02-0.164c0.928-0.273,6.878-0.819,13.21-1.2c6.277-0.383,11.463-0.874,11.463-1.147
	c0-0.219-1.802-0.273-3.93-0.11c-2.184,0.11-7.642,0.492-12.173,0.71c-4.476,0.273-8.57,0.655-9.061,0.874
	c-0.764,0.272-0.928-0.273-1.201-3.603c-0.164-2.183-0.546-4.094-0.764-4.312c-0.219-0.219-2.457-0.273-4.913-0.164
	c-4.258,0.273-4.53,0.382-4.53,1.528c0,1.747-0.546,3.057-1.147,2.675c-0.273-0.164-0.327-1.146-0.163-2.183l0.272-1.91l-4.53,0.381
	c-2.511,0.219-5.35,0.71-6.332,1.092l-1.856,0.764l0.218,3.657l0.164,3.712l-1.91,0.055c-6.332,0.218-17.686,0.818-20.47,1.091
	l-3.275,0.328l-0.764-2.02c-0.546-1.583-0.655-3.984-0.328-10.59c0.219-4.694,0.437-8.787,0.437-9.06
	c0-0.328-0.218-4.367-0.437-9.062l-0.436-8.515l4.64-3.493c6.55-4.968,8.842-6.823,13.373-11.026c2.238-2.02,4.258-3.658,4.53-3.658
	c0.492,0,0.983,13.865,0.6,16.212c-0.108,0.928-0.654,1.256-2.728,1.529c-3.985,0.545-4.04,0.655-3.985,6.004
	c0,2.62,0.164,4.913,0.382,5.076c0.382,0.382,12.828,0.164,13.483-0.218c0.545-0.382,0.545-10.59,0.054-10.644
	c-0.524-0.095-1.052-0.168-1.583-0.218c-2.292-0.219-2.51-0.71-2.347-5.787c0.11-2.62,0-4.967-0.218-5.185
	c-0.655-0.655-0.71,7.642-0.11,10.535c0.219,0.982,0.656,1.255,1.856,1.255c1.583,0,1.638,0.11,1.965,3.385
	c0.219,1.91,0.11,4.039-0.163,4.803c-0.546,1.365-0.6,1.365-6.441,1.365h-5.95l-0.164-4.203c-0.164-4.804-0.054-4.968,4.422-5.623
	l2.565-0.382v-9.77c0-7.533-0.164-9.771-0.71-9.771C-213.902,382.244-215.758,383.663-217.723,385.41z M-210.736,382.844
	c-0.382,0.273-0.382,1.365,0,3.548l0.546,3.22l-0.054-2.947l-0.055-3.002l4.858,0.11c5.131,0.163,6.004,0.6,5.404,2.565
	c-0.164,0.6-0.437,8.788-0.6,18.122l-0.273,17.085l-4.094-0.382l-4.04-0.328l0.164,2.675l0.164,2.675l2.456-0.055
	c1.365-0.054,6.441-0.164,11.3-0.273l8.897-0.218l0.054-1.638c0-0.928,0.164-2.347,0.273-3.22c0.273-1.528,0.219-1.528-1.528-1.201
	c-0.983,0.218-3.111,0.546-4.749,0.71l-2.948,0.327l0.437-1.856c0.437-1.856,0.382-18.559-0.055-18.995
	c-0.109-0.11-0.218,3.602-0.218,8.242c0,4.64-0.164,9.662-0.382,11.08l-0.327,2.566l1.582-0.273c0.874-0.163,2.893-0.49,4.476-0.71
	l2.893-0.327l-0.163,2.074l-0.164,2.13l-9.552,0.327c-5.24,0.218-9.935,0.436-10.372,0.546c-0.6,0.163-0.873-0.328-0.982-1.856
	c-0.218-2.293-0.055-2.347,4.312-1.42c2.293,0.492,2.893,0.492,3.275-0.109c0.273-0.436,0.382-5.95,0.273-12.227
	c-0.11-6.332,0-14.792,0.218-18.832c0.273-4.039,0.273-7.587,0.11-7.914C-200.037,382.463-209.808,382.298-210.736,382.844z
	 M-195.834,387.266c0.055,2.783,0.273,6.659,0.491,8.624c0.328,2.893,0.382,2.074,0.437-4.53l0.11-8.08l5.24,0.165
	c4.475,0.109,5.294,0.273,5.785,1.146c0.6,1.146,0.6,7.97,0,13.482l-0.382,3.549l-2.292-0.164c-1.42-0.11-2.348,0.054-2.348,0.382
	c0,0.382,1.201,0.6,2.893,0.6h2.948l0.328-6.768c0.327-6.987,0.218-12.118-0.164-12.555c-0.164-0.109-3.166-0.382-6.66-0.6
	l-6.44-0.328C-195.888,382.189-195.834,387.266-195.834,387.266z M-180.604,384.1c-0.165,0.109-0.165,4.148,0,8.897l0.272,8.625
	l2.948,0.163l2.947,0.164l-0.327,4.421c-0.164,2.402-0.491,4.586-0.71,4.804c-0.6,0.6-10.971,1.801-11.954,1.42
	c-0.491-0.165-0.819-1.366-0.982-3.167l-0.164-2.893l-0.11,3.384c-0.054,1.966,0.11,3.494,0.437,3.494
	c1.802,0.218,3.603,0.164,8.461-0.328l5.459-0.545l0.327-5.459c0.218-3.002,0.218-5.677,0.11-5.895
	c-0.165-0.219-1.31-0.273-2.62-0.11c-1.42,0.219-2.457,0.164-2.676-0.218c-0.218-0.327-0.49-3.602-0.6-7.26
	c-0.164-6.004-0.11-6.604,0.6-5.622c3.221,4.422,7.26,8.788,9.553,10.317c1.42,0.982,4.148,3.22,6.059,5.022
	c3.985,3.82,4.04,4.039,4.858,16.594c0.655,9.279,0.655,12.445,0.218,15.12c-0.164,1.037-0.109,1.8,0.219,1.8
	c0.928,0,1.31-4.748,0.873-10.862c-0.218-3.165-0.437-7.26-0.491-9.06c-0.11-1.802-0.437-5.295-0.82-7.752
	c-0.6-3.766-0.872-4.476-1.91-4.749c-0.6-0.163-2.62-1.746-4.366-3.602c-1.747-1.802-3.494-3.275-3.821-3.275
	c-1.42-0.055-8.243-7.697-10.426-11.682c-0.6-1.091-1.256-1.91-1.365-1.746H-180.604z M-189.338,404.515
	c0,0.982,0.218,1.746,0.436,1.746c0.546,0,0.546-2.51,0-3.057c-0.273-0.218-0.436,0.383-0.436,1.31V404.515z M-181.696,405.005
	c-1.966,0.383-2.73,1.202-2.73,2.894c0,1.965,0.164,2.02,2.839,1.692c1.692-0.218,2.401-0.6,2.51-1.31
	c0.274-1.256-0.327-3.657-0.873-3.603c-0.218,0.055-0.982,0.219-1.746,0.328V405.005z M-216.194,406.48
	c-0.983,2.183-0.273,3.056,2.51,3.056c2.184,0,2.512-0.163,2.84-1.364c0.545-2.238-0.056-3.002-2.512-3.002
	C-215.157,405.17-215.648,405.388-216.194,406.48z M-197.908,439.394c-2.948,0.164-4.64,0.437-5.077,0.983
	c-1.255,1.474,0,1.91,5.677,1.91c5.35,0,5.677-0.054,5.95-1.2c0.382-1.474,0.055-2.13-1.146-1.965
	C-192.996,439.176-195.452,439.34-197.908,439.394L-197.908,439.394z M-162.755,439.94c-0.219,0.219-5.186,0.437-11.027,0.492
	c-11.135,0.163-12.827,0.49-12.827,2.51c0,0.655-0.273,1.966-0.655,2.948c-0.546,1.583-0.873,1.747-3.657,2.183
	c-1.692,0.219-5.95,0.437-9.498,0.437c-7.26,0.055-7.478-0.054-7.478-3.875c0-1.256-0.164-2.402-0.382-2.511
	c-0.273-0.164-3.985,0-8.352,0.273c-4.367,0.273-10.207,0.655-12.937,0.764c-2.783,0.164-5.076,0.546-5.076,0.819
	c0,0.273,0.273,0.49,0.6,0.49c1.147,0,10.754,8.898,18.232,16.868l2.183,2.347l3.548-0.328c1.965-0.218,5.84-0.49,8.625-0.71
	l5.022-0.327v-2.074c0-2.129,0.6-2.62,2.128-1.638c0.492,0.328,0.655,1.092,0.492,2.184c-0.164,0.982-0.055,1.856,0.163,2.02
	c0.219,0.109,1.965,0,3.876-0.273c1.91-0.273,4.803-0.655,6.441-0.82c2.893-0.327,3.111-0.436,7.041-4.53
	c8.024-8.515,16.049-16.54,16.54-16.54c0.218,0,0.436-0.272,0.436-0.545C-159.317,439.504-162.21,439.34-162.755,439.94
	L-162.755,439.94z M-162.155,441.141c-0.11,0.273-4.312,4.75-9.389,9.88c-8.897,9.061-9.28,9.334-11.735,9.607
	c-1.365,0.164-3.821,0.546-5.459,0.819c-4.421,0.764-4.421,0.764-4.421-1.692c0-1.529-0.219-2.184-0.765-2.184
	c-0.436,0-1.2-0.163-1.692-0.327c-0.655-0.273-1.091,0.218-1.692,1.801c-0.873,2.183-0.873,2.183-4.476,2.566
	c-2.02,0.218-5.35,0.6-7.478,0.818l-3.82,0.437l-2.621-2.784c-8.133-8.515-10.753-11.08-13.319-12.991
	c-1.583-1.146-2.893-2.347-2.893-2.62c0-0.328,1.31-0.6,2.893-0.6c1.529-0.055,4.04-0.164,5.513-0.219
	c1.529-0.11,5.295-0.218,8.461-0.327l5.786-0.219l0.382,2.675c0.218,1.474,0.6,2.893,0.928,3.22
	c0.819,0.82,12.336,0.71,17.085-0.163c4.422-0.82,4.75-1.092,4.804-4.367c0.054-2.893,0.273-2.948,11.135-3.275
	c5.568-0.164,10.753-0.328,11.518-0.382C-162.592,440.704-162.046,440.868-162.155,441.141z M-225.91,372.963
	c0,0.273,0.273,0.546,0.545,0.546c0.301-0.001,0.545-0.245,0.546-0.546c0-0.327-0.218-0.546-0.546-0.546
	C-225.666,372.418-225.909,372.662-225.91,372.963z"/>
</svg>
