<?xml version="1.0" encoding="iso-8859-1"?>
<!-- Generator: Adobe Illustrator 19.0.0, SVG Export Plug-In . SVG Version: 6.00 Build 0)  -->
<svg version="1.2" baseProfile="tiny" id="Layer_1" xmlns="http://www.w3.org/2000/svg" xmlns:xlink="http://www.w3.org/1999/xlink"
	 x="0px" y="0px" viewBox="-247 371.89 100 99" xml:space="preserve">
<title>face_00124</title>
<path d="M-174.792,372.485c-1.335,1.335-43.083,2.488-64.26,1.76l-7.888-0.243l0.182,4.551c0.242,5.037,0.728,6.614,0.728,2.245
	c0-1.517,0.303-3.52,0.728-4.43l0.728-1.577l10.376,0.425c5.644,0.242,10.559,0.667,10.923,0.97
	c0.606,0.607-0.425,1.639-9.709,10.195c-2.367,2.124-5.765,5.34-7.646,7.16l-3.458,3.216l-0.425-2.852
	c-0.243-1.517-0.546-4.308-0.668-6.19c-0.182-1.82-0.424-3.458-0.546-3.64c-0.425-0.364,0.122,15.534,0.486,16.14
	c0.182,0.243,0.485,9.77,0.667,21.117c0.364,19.357,0.971,34.527,1.335,32.464c0.06-0.486,0.304-1.942,0.546-3.156l0.364-2.184
	l4.673,2.124c2.548,1.153,6.068,2.73,7.706,3.459c1.699,0.788,4.065,1.76,5.28,2.245c2.244,0.789,2.305,0.85,2.366,3.883
	c0,1.639,0.12,3.823,0.182,4.855c0.06,0.97-0.122,2.002-0.486,2.245c-0.364,0.242-3.094,0.485-6.128,0.546
	c-2.974,0-6.979,0.243-8.799,0.485c-4.126,0.607-4.854,0.122-4.854-3.337c0-1.456-0.243-2.67-0.486-2.67
	c-0.303,0-0.485,1.76-0.485,3.944c0.06,3.702,0.182,3.944,1.274,3.702c1.76-0.425,7.1-0.91,13.47-1.275
	c4.491-0.242,5.765-0.121,6.494,0.668c0.91,0.85,0.97,0.85,0.97,0s1.153-0.971,7.767-1.092c4.248,0,9.466-0.122,11.651-0.243
	c7.767-0.243,30.158-1.032,35.194-1.153c10.073-0.303,20.146-1.032,19.478-1.517c-0.424-0.243-1.395-0.303-2.123-0.182
	c-1.275,0.243-1.457,0-1.82-2.61c-0.608-4.611-0.426-12.863,0.303-13.106c0.424-0.121,0.424-2.063-0.061-6.554
	c-0.789-7.099-1.214-8.434-1.214-3.762c0,3.095-0.06,3.156-1.82,3.156c-0.971,0-1.82,0.303-1.82,0.667
	c0,0.364,0.424,0.486,1.092,0.243c3.034-1.153-1.153,1.274-9.284,5.4c-10.316,5.219-10.012,5.219-9.527-1.274l0.243-3.155
	l3.398-0.243l3.459-0.182l-3.399-0.121c-3.337-0.122-3.458-0.182-3.822-2.124c-0.243-1.032-0.546-4.551-0.728-7.706
	c-0.243-3.156-0.547-5.886-0.668-6.068c-0.182-0.182-0.121,3.216,0.06,7.463l0.425,7.767l-2.305-0.364
	c-3.702-0.667-8.92-2.184-9.77-2.913c-0.546-0.424-0.728-1.456-0.546-2.851c0.182-1.153,0.121-5.098-0.06-8.738
	c-0.304-4.127-0.183-6.918,0.181-7.403c0.304-0.425,2.124-0.91,3.945-1.032l3.337-0.182l-3.823-0.121
	c-4.247-0.122-4.247-0.122-4.976-5.158l-0.485-3.155l0.06,3.276c0.061,2.428-0.181,3.398-0.788,3.58
	c-0.486,0.183-1.092,0.547-1.274,0.91c-0.243,0.304-2.185,0.668-4.37,0.85c-3.64,0.182-3.943,0.122-4.368-1.153l-0.486-1.395
	l-0.242,1.335c-0.243,1.213-0.668,1.395-2.852,1.395c-1.396,0-2.792-0.242-3.095-0.546c-0.364-0.303-1.214-0.728-1.942-0.97
	c-1.031-0.304-1.395-0.122-1.395,0.545c0,0.729-0.729,0.971-2.852,1.093l-2.913,0.06l2.73,0.364l2.731,0.364l0.182,8.86l0.182,8.859
	l-3.823,1.456c-2.123,0.728-4.672,1.881-5.764,2.488c-1.214,0.668-2.124,0.85-2.367,0.425c-0.182-0.364-0.606-0.364-1.031-0.06
	c-0.425,0.303-5.097,0.667-10.437,0.788l-9.709,0.243l-0.182-10.68l-0.121-10.68l8.13-0.424c4.552-0.243,8.557-0.243,8.981,0.06
	c0.425,0.243,1.335,0.486,2.003,0.486c0.97,0,1.274,0.546,1.578,2.427l0.364,2.427l0.182-2.427c0.06-1.335,0.121-2.73,0.06-3.155
	c-0.06-0.486,1.093-0.79,3.095-0.971l3.216-0.182l-3.155-0.122l-3.216-0.121v-7.403c0-4.065-0.122-7.22-0.304-7.039
	c-0.182,0.182-0.364,3.216-0.364,6.796c-0.06,3.52-0.243,6.432-0.485,6.432c-1.032,0-7.342-7.16-7.342-8.313
	c0-0.85,2.123-2.67,2.609-2.305c0.242,0.182,0.303,0.12,0.121-0.122c-0.364-0.425,3.884-5.036,4.612-5.036
	c0.242,0,0.607,0.485,0.728,1.031c0.182,0.668,0.303,0.364,0.364-0.667c0.06-1.032,0.667-2.185,1.578-2.913
	c0.85-0.667,1.517-1.699,1.517-2.366c0-1.214-0.061-1.214,7.16-0.607c0.485,0.06,0.728,1.578,0.789,5.34
	c0.06,2.973,0.303,6.857,0.546,8.677c0.425,2.488,0.485,1.517,0.303-4.005c-0.303-10.315-0.485-9.951,4.915-9.951h4.49v8.919
	c0,4.854,0.122,8.737,0.304,8.555c0.182-0.121,0.364-4.126,0.364-8.859l0.06-8.616h10.801v5.46c0,2.974,0.183,5.462,0.486,5.462
	c0.243,0,0.425-2.549,0.425-5.583v-5.643l3.337-0.364c2.003-0.243,0-0.364-4.975-0.303c-4.551,0-8.496-0.122-8.738-0.425
	c-0.243-0.243,0.182-0.425,0.91-0.425c0.97,0,1.274-0.303,1.092-0.85c-0.243-0.545,1.76-2.912,5.219-6.31
	c12.803-12.439,14.38-13.652,14.38-11.346c0,0.485,0.365,0.91,0.79,0.91c0.424,0,2.851,1.881,5.34,4.126
	c2.487,2.306,4.914,4.43,5.46,4.733c1.517,0.85,7.828,6.796,7.828,7.343c-0.06,0.242-2.063,2.609-4.55,5.279
	c-5.159,5.46-4.855,5.46-8.92-0.364c-1.457-2.124-2.913-3.52-3.58-3.52c-1.032,0-1.154-0.728-1.336-8.07l-0.182-8.01l-0.121,8.313
	c-0.122,7.524-0.243,8.374-1.153,8.374c-1.032,0.06-1.032,0.06,0,0.667c0.667,0.425,1.031,1.335,1.031,2.852
	s0.182,2.003,0.547,1.396c0.424-0.667,0.97-0.364,2.609,1.456c4.065,4.612,4.065,4.673,1.092,8.131
	c-1.396,1.76-2.67,3.034-2.791,2.913c-0.122-0.121-0.243-2.549-0.304-5.461c-0.06-2.913-0.303-5.461-0.606-5.643
	c-0.365-0.182-0.547,2.488-0.486,6.371c0.06,4.672-0.121,6.978-0.667,7.646c-0.486,0.606-0.547,0.91-0.061,0.91
	c1.092,0,0.789,1.092-0.364,1.395c-0.85,0.243-0.789,0.304,0.243,0.365c1.213,0.06,1.335,0.424,1.577,3.519l0.182,3.52l0.122-3.823
	c0.121-3.702,0.121-3.763,1.82-3.763c1.032,0,1.76-0.303,1.76-0.788c0-0.971,4.369-7.1,5.097-7.1c0.667,0,4.369,3.64,6.432,6.31
	c0.97,1.214,1.76,1.64,3.034,1.457c2.912-0.303,2.366-1.942-2.185-6.493c-2.366-2.366-4.308-4.55-4.308-4.854
	c0-0.303,0.364-0.97,0.789-1.396c0.364-0.424,2.427-2.609,4.55-4.854c3.52-3.701,3.824-4.126,3.156-5.461
	c-0.789-1.456-5.582-6.19-9.102-8.86c-1.153-0.91-3.762-3.215-5.764-5.096c-2.003-1.883-4.308-4.005-5.158-4.673
	c-1.214-0.97-1.396-1.395-0.85-2.306c0.547-0.91,1.942-1.153,9.102-1.577c4.613-0.243,8.678-0.728,9.043-1.093
	c0.424-0.424,0.303-0.546-0.304-0.303c-2.125,0.669-15.899,1.032-15.474,0.425c0.485-0.85-0.485-0.85-1.274-0.06V372.485z
	 M-198.7,435.895c0.243-0.182,2.791,0.728,5.582,2.003c2.792,1.335,6.13,2.73,7.464,3.216l2.427,0.789l-3.034,0.485
	c-1.638,0.243-5.158,0.607-7.706,0.85c-4.369,0.364-4.733,0.303-4.733-0.729c0-0.97-0.121-1.031-0.607-0.242
	c-0.303,0.485-0.607,0.667-0.607,0.364c0-0.304-0.364-0.182-0.85,0.182c-0.91,0.789-17.354,0.789-17.354,0.06
	c0-0.242,1.7-0.97,3.823-1.699c2.063-0.788,6.25-2.427,9.224-3.701c3.034-1.335,5.582-2.124,5.643-1.82
	C-199.307,435.956-199.003,436.077-198.7,435.895L-198.7,435.895z M-185.047,447.425c-2.791,1.274-13.168,5.764-13.35,5.764
	c-0.485,0-0.97-3.762-0.606-4.794c0.303-1.092,1.031-1.274,5.946-1.456c3.095-0.06,6.554-0.182,7.706-0.243l2.124-0.121
	L-185.047,447.425z M-200.035,450.58c0.121,1.76,0,3.216-0.182,3.216c-0.182,0-1.396-0.486-2.61-1.153
	c-6.431-3.216-7.402-3.702-7.888-3.702c-0.303,0-0.91-0.424-1.335-0.91c-0.728-0.85-0.12-0.91,5.522-0.789l6.31,0.182
	C-200.218,447.424-200.035,450.58-200.035,450.58z M-199.853,424.184c0,2.124,0.121,4.43,0.182,5.158
	c0.121,0.789,0.121,1.396,0.06,1.396l-3.458-4.127c-4.066-4.915-3.944-6.189,0.425-6.189h2.73
	C-199.914,420.422-199.853,424.184-199.853,424.184z M-190.812,421.211c0,0.425-1.274,2.306-2.791,4.065
	c-1.578,1.82-3.277,4.005-3.823,4.794l-0.97,1.517l-0.365-1.76c-0.242-1.031-0.424-3.519-0.485-5.643l-0.06-3.762h4.247
	C-191.965,420.422-190.812,420.665-190.812,421.211z M-188.445,423.577c0.243,0.79,0.546,3.398,0.607,5.886
	c0.06,2.488,0.242,4.733,0.424,4.976c0.425,0.789-0.485,4.187-1.213,4.187c-1.335,0-9.77-4.551-9.77-5.34
	c0-0.91,8.131-11.044,8.86-11.044C-189.234,422.242-188.749,422.849-188.445,423.577z M-204.647,426.005
	c4.066,4.793,5.097,6.553,4.187,7.1c-0.425,0.302-0.728,0.727-0.607,1.03c0.182,0.668-6.674,4.127-7.16,3.641
	c-0.182-0.182-0.485-3.64-0.607-7.645C-209.076,421.514-208.712,421.211-204.647,426.005z M-186.867,383.711
	c-5.704,5.461-10.802,10.012-11.348,10.012c-1.031,0-1.456-0.91-1.88-4.551l-0.243-1.82l-0.122,1.941
	c0,1.093-0.182,2.003-0.425,2.003c-1.152,0-20.327-13.956-20.752-15.11c-0.06-0.303,5.643-0.667,12.743-0.91
	c15.716-0.485,26.82-1.031,27.124-1.335c0.12-0.12,1.395-0.242,2.73-0.242h2.488l-10.316,10.011L-186.867,383.711z M-215.69,382.194
	c2.488,1.881,6.31,4.612,8.495,6.068c5.764,3.883,6.675,4.854,6.675,6.796c0,0.91-0.365,1.699-0.729,1.76
	c-0.788,0.06-7.22,0.06-15.776,0l-4.733-0.061v-9.466c0-7.342,0.182-9.345,0.789-8.98
	C-220.605,378.553-218.179,380.313-215.69,382.194z M-224.185,397.91c0.97,0.06-3.034,4.369-6.918,7.524l-2.306,1.82l-4.126-4.49
	l-4.126-4.49l5.886-0.303C-230.678,397.728-227.28,397.667-224.185,397.91z M-231.406,416.235c0.739,0.954,1.507,1.885,2.305,2.791
	c1.275,1.335-0.12,2.003-4.49,2.064c-2.002,0-4.126,0.12-4.672,0.242c-0.607,0.122-1.092,0.06-1.092-0.121
	c0-0.607,5.521-6.857,6.068-6.857C-233.045,414.354-232.195,415.204-231.406,416.235L-231.406,416.235z M-152.887,465.385
	c-0.667,0.183-5.522,0.425-10.74,0.486l-9.527,0.121l-0.182-5.521c-0.121-3.095-0.06-5.765,0.121-6.008
	c0.182-0.242,4.551-2.548,9.71-5.157c5.157-2.61,9.83-5.098,10.315-5.583c0.788-0.789,0.97,0.364,1.213,10.194
	c0.304,10.74,0.243,11.105-0.91,11.469V465.385z M-174.428,456.345c0,0.788,0.121,3.215,0.303,5.46l0.243,4.005l-4.369,0.364
	c-8.92,0.668-19.235,0.91-19.235,0.425c0-0.485,8.92-5.522,9.83-5.522c0.303,0,1.577-0.667,2.912-1.517
	c1.335-0.85,2.61-1.517,2.852-1.517c0.304,0,1.82-0.667,3.459-1.517c3.64-1.88,4.005-1.88,4.005-0.182V456.345z M-222.608,447.728
	c0.425,3.337,1.456,3.52,1.456,0.243c0-1.942,1.214-2.913,2.064-1.517c0.182,0.242,1.213,0.667,2.245,0.91
	c1.699,0.303,12.985,5.704,16.201,7.706c1.214,0.728,1.335,1.335,1.335,5.825c0,2.792-0.243,5.037-0.546,5.037
	c-0.667,0-7.706-2.913-13.714-5.704c-7.22-3.398-7.585-3.58-7.585-4.126c0-0.243-0.606-0.486-1.334-0.486
	c-0.79,0-4.248-1.274-7.767-2.791c-11.226-4.976-12.5-5.765-11.954-7.22c0.303-0.79,1.88-0.911,9.77-0.911h9.404
	C-223.033,444.694-222.608,447.728-222.608,447.728z M-217.389,459.5c1.76,0.789,5.521,2.488,8.373,3.823
	c2.213,1.038,4.438,2.049,6.675,3.034c1.335,0.606,1.032,0.728-2.427,0.788c-2.184,0-6.735,0.182-10.134,0.364
	c-6.067,0.304-6.189,0.243-6.37-1.092c-0.244-1.699,0.12-8.374,0.485-8.374C-220.667,458.043-219.149,458.711-217.389,459.5z
	 M-239.78,405.677c1.88,2.184,3.459,4.247,3.459,4.672c-0.061,0.971-6.493,8.01-6.979,7.524c-0.606-0.606-1.152-16.262-0.546-16.201
	C-243.542,401.672-241.722,403.492-239.78,405.677z M-199.003,394.937c0.182,0.303,0.06,0.606-0.243,0.606
	c-0.364,0-0.668-0.303-0.668-0.606c0-0.364,0.122-0.607,0.243-0.607C-199.489,394.33-199.185,394.573-199.003,394.937z
	 M-222.911,396.272c-0.425,0.485-19.478,0.91-19.478,0.424c0-0.303,10.619-10.437,16.687-15.898l2.427-2.184l0.364,8.616
	C-222.729,391.963-222.729,396.029-222.911,396.272z M-174.428,450.216v3.58l-3.156,1.456c-6.917,3.095-15.412,7.282-16.868,8.253
	c-0.85,0.606-2.064,1.213-2.731,1.335c-0.97,0.182-1.153-0.243-1.335-3.46c-0.121-2.002-0.06-4.49,0.121-5.521
	c0.304-1.82,0.728-2.185,4.551-3.762c0.85-0.304,2.792-1.153,4.37-1.881c1.577-0.728,3.094-1.275,3.337-1.275
	c0.303-0.06,1.577-0.546,2.912-1.213c1.457-0.668,3.702-1.153,5.643-1.092h3.156C-174.428,446.636-174.428,450.216-174.428,450.216z
	 M-200.945,380.98c0,2.185,0.121,3.034,0.243,1.942c0.12-1.032,0.12-2.852,0-3.944C-200.824,377.946-200.945,378.796-200.945,380.98
	z M-199.246,437.776c0,0.668,0.182,0.85,0.364,0.364c0.182-0.424,0.121-0.97-0.06-1.152
	C-199.125,436.745-199.307,437.108-199.246,437.776z M-222.304,454.16c0,0.667,0.182,0.85,0.364,0.364
	c0.182-0.425,0.121-0.97-0.061-1.153C-222.183,453.128-222.365,453.492-222.304,454.16z M-153.98,375.944
	c-0.122,1.942-0.182,7.342-0.06,12.014c0.12,4.673,0.181,10.862,0.242,13.775c0,3.398,0.243,5.34,0.667,5.34
	c0.364,0,0.486-0.486,0.304-1.093c-0.182-0.607-0.425-8.373-0.486-17.293c-0.06-8.92-0.182-16.202-0.242-16.202
	C-153.616,372.485-153.798,374.063-153.98,375.944z M-166.054,396.575c0.424,0.182,0.97,0.121,1.152-0.06
	c0.243-0.183-0.12-0.365-0.788-0.304C-166.358,396.211-166.54,396.393-166.054,396.575z M-180.011,397.182
	c0.425,0.182,0.971,0.121,1.153-0.06c0.243-0.183-0.121-0.365-0.789-0.304C-180.314,396.818-180.497,397-180.011,397.182z
	 M-153.372,408.104c-0.122,0.303-0.061,2.003,0.182,3.823l0.424,3.337l0.122-3.823
	C-152.584,407.922-152.766,407.011-153.372,408.104z M-153.13,422.607c0.061,2.609,0.304,6.553,0.546,8.737
	c0.365,2.974,0.486,1.881,0.304-4.43c-0.122-4.61-0.364-8.555-0.546-8.737C-153.008,417.934-153.13,419.937-153.13,422.607z
	 M-222.183,430.13c0,1.517,0.121,2.124,0.243,1.335c0.121-0.728,0.121-1.942,0-2.73
	C-222.062,428.006-222.183,428.613-222.183,430.13z M-222.304,434.135c0,0.667,0.182,0.85,0.364,0.364
	c0.182-0.425,0.121-0.971-0.061-1.153C-222.183,433.103-222.365,433.467-222.304,434.135z M-161.807,443.297
	c1.032,0.122,2.852,0.122,3.944,0c1.032-0.121,0.182-0.242-2.002-0.242C-162.05,443.055-162.899,443.175-161.807,443.297z
	 M-243.603,459.378c0,0.425,0.243,1.153,0.546,1.639c0.425,0.606,0.546,0.424,0.486-0.728c-0.122-1.578-1.032-2.367-1.032-0.91
	V459.378z"/>
</svg>
