<?xml version="1.0" encoding="iso-8859-1"?>
<!-- Generator: Adobe Illustrator 19.0.0, SVG Export Plug-In . SVG Version: 6.00 Build 0)  -->
<svg version="1.2" baseProfile="tiny" id="Layer_1" xmlns="http://www.w3.org/2000/svg" xmlns:xlink="http://www.w3.org/1999/xlink"
	 x="0px" y="0px" viewBox="-247 370.89 100 100" xml:space="preserve">
<title>face_00104</title>
<path d="M-200.925,371.196c-9.62,0.924-15.761,3.153-24.022,8.696c-10.326,7.01-19.022,19.838-21.141,31.196
	c-0.218,1.195-0.49,2.554-0.598,2.989c-0.109,0.435-0.218,3.859-0.272,7.609c-0.054,8.043,1.087,13.37,4.402,20.38
	c6.902,14.783,20.652,25,37.772,28.043c2.391,0.38,6.033,0.544,10.054,0.327c14.403-0.761,27.011-7.011,36.196-17.827
	c1.74-2.065,5.978-8.695,6.957-10.923c0.544-1.276,1.105-2.544,1.684-3.805c2.283-5.163,3.479-15.815,2.555-22.717
	c-0.707-5.109-1.522-9.185-2.174-10.598c-3.533-7.772-4.837-10.272-7.174-13.424c-3.37-4.51-9.348-10.109-13.587-12.717
	c-5.978-3.587-14.402-6.522-20.598-7.066c-1.956-0.163-4.129-0.326-4.891-0.434C-196.523,370.87-198.806,370.979-200.925,371.196z
	 M-194.675,433.37c2.608,1.359,3.804,3.37,3.804,6.359c0,2.283-0.272,2.935-1.848,4.565c-1.358,1.413-2.5,2.011-4.076,2.229
	c-5.87,0.815-10.326-5.653-7.065-10.272c2.446-3.37,6.033-4.511,9.185-2.88L-194.675,433.37z M-199.132,436.196
	c-0.489,0.11-1.25,0.979-1.739,1.957c-0.706,1.467-0.706,1.902-0.109,2.826c1.685,2.554,4.348,2.663,6.142,0.326
	C-192.99,438.859-195.925,435.381-199.132,436.196z M-196.414,438.099c1.521,1.521,0.054,4.076-2.011,3.424
	c-1.468-0.435-1.848-1.903-0.815-3.044C-198.154,437.283-197.338,437.175-196.414,438.099z M-221.414,393.425
	c8.532,2.01,13.858,8.152,14.565,16.739c0.924,10.924-7.283,19.674-18.424,19.674c-5.054,0-8.859-1.468-12.609-4.946
	c-2.337-2.12-3.152-3.478-5.108-8.26c-1.305-3.262-0.49-9.512,1.847-13.914c2.066-3.859,7.12-7.826,11.522-9.022
	C-226.414,392.826-224.458,392.773-221.414,393.425z M-165.327,392.501c7.663,2.663,12.39,9.565,11.847,17.228
	c-0.489,6.196-4.076,11.304-10.108,14.13c-3.587,1.685-9.946,1.685-13.533-0.054c-6.087-2.935-9.946-8.641-9.946-14.728
	c0-5,2.011-9.511,5.816-12.99C-177.447,392.501-170.001,390.816-165.327,392.501z M-190.49,372.99
	c0.217,0.217,0.489,14.62,0.597,32.01l0.109,31.631l-1.413-1.793c-1.74-2.174-3.967-3.37-6.359-3.37
	c-2.282,0-5.76,1.359-6.195,2.446c-0.435,1.141-1.25,0.978-1.25-0.218c0-0.652,0.38-0.978,0.924-0.923
	c0.569-0.003,1.051-0.417,1.14-0.979c0.164-0.815,0-0.978-0.869-0.76c-1.087,0.325-1.141,0.054-1.304-8.75
	c-0.109-4.946-0.272-17.99-0.326-28.968l-0.164-19.946l2.065-0.326c1.141-0.217,2.446-0.435,2.88-0.543
	C-199.295,372.175-190.926,372.555-190.49,372.99L-190.49,372.99z M-192.501,431.468c0,0.815,0.271,1.087,0.978,0.978
	c0.489-0.108,0.924-0.543,0.924-0.978c0-0.435-0.435-0.87-0.924-0.978C-192.23,430.381-192.501,430.653-192.501,431.468z
	 M-189.295,459.023c0.055,5.543-0.109,8.913-0.489,9.13c-0.978,0.598-7.935,0.978-11.63,0.598l-3.587-0.435v-23.967l1.25,1.087
	c1.902,1.739,3.37,2.337,5.924,2.337c2.717,0,6.684-2.229,7.337-4.077C-189.893,442.066-189.404,448.696-189.295,459.023z
	 M-182.338,374.675c4.239,1.304,7.88,3.043,12.934,6.141c2.392,1.467,12.229,11.196,12.229,12.065c0,0.326-0.979-0.054-2.229-0.87
	c-3.315-2.065-6.793-2.988-11.358-2.88c-6.359,0.163-11.902,2.99-15.38,7.88c-0.925,1.305-1.848,2.392-2.12,2.392
	c-0.218,0-0.435-5.87-0.435-13.044C-188.697,371.305-189.349,372.555-182.338,374.675z M-206.74,388.642
	c0.108,8.967,0,14.565-0.327,14.565c-0.326,0-0.652-0.543-0.87-1.25c-0.162-0.652-1.467-2.391-2.88-3.858
	c-7.445-7.5-17.445-8.207-26.413-1.848c-1.902,1.358-1.847,1.032,0.38-2.392c5-7.826,14.892-15.489,24.131-18.695
	C-206.469,372.99-206.904,371.903-206.74,388.642z M-148.806,419.783c0.055,9.13-0.489,12.174-3.37,19.294
	c-3.369,8.315-10.217,16.576-17.934,21.576c-4.946,3.206-9.783,5.598-11.359,5.598c-0.598,0-1.25,0.217-1.576,0.489
	c-0.272,0.272-1.413,0.652-2.5,0.815l-2.01,0.38l-0.272-2.336c-0.435-3.533-0.816-47.718-0.435-47.718
	c0.217,0,1.087,0.978,1.902,2.174c5.109,7.228,13.696,9.891,22.717,7.065c7.011-2.228,11.468-7.826,13.316-16.576l0.326-1.63
	l0.597,1.359C-149.077,411.033-148.806,415.273-148.806,419.783z M-242.338,421.033c2.282,4.674,7.989,8.805,13.424,9.783
	c3.478,0.598,9.076-0.054,11.956-1.413c3.207-1.467,6.576-4.402,8.641-7.5l1.685-2.554l0.109,24.293l0.163,24.294l-2.065-0.327
	c-1.087-0.217-3.261-0.815-4.729-1.358c-1.521-0.544-2.717-0.924-2.717-0.815c0,0.434-8.75-4.674-10.978-6.36
	c-8.044-6.14-13.098-13.423-16.359-23.532c-1.739-5.326-2.609-12.608-2.174-17.445l0.326-3.642l0.816,2.12
	C-243.86,417.773-242.99,419.729-242.338,421.033z M-161.958,391.957c6.087,2.99,9.674,8.316,10.109,15.163
	c0.489,8.044-2.935,14.24-9.891,17.826c-3.37,1.685-4.022,1.848-8.642,1.848c-4.13,0.055-5.435-0.163-7.608-1.195
	c-3.424-1.63-7.555-5.761-9.022-8.968c-1.522-3.315-2.011-5.815-1.196-5.815c0.326,0,0.598,0.543,0.598,1.25
	c0,1.74,2.337,6.304,4.293,8.26c4.077,4.24,7.011,5.436,13.098,5.436c5.49,0,8.37-1.142,12.174-4.62
	c4.511-4.13,6.413-10.272,5.055-16.141c-1.305-5.544-3.587-8.75-8.316-11.576c-3.098-1.848-3.315-1.902-8.913-1.902
	c-6.467,0-8.424,0.706-12.12,4.456c-3.043,2.99-4.619,6.033-5.488,10.272c-0.653,3.152-0.761,3.424-0.816,1.63
	c-0.054-2.445,0.924-6.195,1.957-7.445c0.38-0.435,0.706-1.087,0.706-1.36c0-0.543,3.479-4.401,5-5.597
	c0.544-0.38,2.337-1.304,4.076-2.01C-172.556,389.62-166.306,389.838-161.958,391.957z M-173.914,398.1
	c-4.946,1.739-7.446,5.434-7.392,10.815c0,3.587,1.305,6.195,4.294,8.478c5.163,4.13,13.75,2.228,16.685-3.587
	c2.01-4.022,1.521-9.076-1.25-12.446C-164.404,397.99-169.675,396.578-173.914,398.1z M-166.251,399.078
	c3.967,1.63,6.358,5.217,6.358,9.565c0,4.185-2.5,7.717-6.739,9.457c-2.717,1.14-5,1.087-7.663-0.163
	c-3.098-1.413-5.217-3.913-6.032-7.066c-0.598-2.337-0.598-3.097,0.108-5.054c0.979-2.826,1.522-3.587,4.022-5.435
	C-173.317,398.208-169.457,397.719-166.251,399.078z M-172.664,406.198c-2.61,2.554-1.142,5.706,2.608,5.706
	c2.066,0,3.642-1.467,3.642-3.424c0-1.304-2.392-3.641-3.805-3.641c-0.598,0-1.739,0.598-2.445,1.358V406.198z M-169.077,407.013
	c1.467,0.815,1.304,2.608-0.38,3.37c-1.197,0.543-1.523,0.543-2.12-0.327c-0.761-1.032-0.544-2.446,0.489-3.152
	c0.76-0.544,0.76-0.544,2.01,0.109H-169.077z M-229.675,394.783c-7.663,2.12-12.826,8.805-12.826,16.577
	c0,6.468,2.12,10.761,7.01,14.348c3.316,2.392,5.761,3.152,10.544,3.098c7.065-0.054,12.5-3.315,15.49-9.456
	c1.52-3.044,1.738-4.076,1.738-7.826s-0.217-4.783-1.685-7.664c-2.12-4.239-5.38-7.12-9.782-8.695
	c-3.913-1.359-6.576-1.468-10.49-0.38L-229.675,394.783z M-218.805,396.196c3.64,1.36,7.065,4.62,8.912,8.479
	c1.794,3.695,1.848,9.674,0.109,13.478c-1.576,3.424-4.51,6.467-7.99,8.315c-2.336,1.25-3.369,1.468-7.336,1.468
	c-5.598-0.055-8.424-1.142-11.848-4.674c-2.88-2.935-3.696-4.566-4.565-8.642c-0.49-2.608-0.49-3.804,0.054-6.087
	c2.555-10.489,12.772-16.032,22.663-12.337L-218.805,396.196z M-229.458,401.306c-2.446,1.14-4.239,2.77-5.435,5.217
	c-3.804,7.336,1.413,16.25,9.511,16.25c6.033,0,10.49-4.022,11.413-10.327c0.272-2.065,0.055-2.934-1.195-5.38
	c-2.229-4.348-4.674-6.087-8.968-6.359c-2.391-0.163-4.022,0-5.326,0.598V401.306z M-221.795,401.849
	c6.576,2.337,9.076,9.565,5.218,15.271c-2.337,3.533-4.457,4.674-8.479,4.62c-4.837,0-7.771-1.902-9.565-6.141
	c-1.576-3.86-0.652-8.098,2.446-11.196C-228.915,401.196-225.817,400.436-221.795,401.849z M-227.827,409.294
	c-2.12,2.337-0.598,5.87,2.608,5.87c2.229-0.055,3.37-1.196,3.37-3.37C-221.849,408.37-225.49,406.794-227.827,409.294z
	 M-223.207,410.762c0.76,2.39-1.305,3.913-2.99,2.228c-0.87-0.87-0.978-1.359-0.543-2.174c0.76-1.413,3.097-1.413,3.532-0.054
	H-223.207z"/>
</svg>
