<?xml version="1.0" encoding="iso-8859-1"?>
<!-- Generator: Adobe Illustrator 19.0.0, SVG Export Plug-In . SVG Version: 6.00 Build 0)  -->
<svg version="1.2" baseProfile="tiny" id="Layer_1" xmlns="http://www.w3.org/2000/svg" xmlns:xlink="http://www.w3.org/1999/xlink"
	 x="0px" y="0px" viewBox="-247 369.89 100 103" xml:space="preserve">
<title>face_00109</title>
<path d="M-246.944,370.623c0,0.506,23.451,1.517,37.61,1.644l4.362,0.063l-0.127,6.321c-0.19,7.585-0.695,11.694-1.453,11.694
	c-0.633,0-0.696-1.58-0.57-10.303c0.064-3.477-0.189-5.5-0.568-5.5c-0.443,0-0.696,2.592-0.696,7.333
	c0,6.321-0.19,7.522-1.074,8.217c-1.075,0.822-1.075,0.822,0,0.885c0.885,0,1.074,0.57,1.074,3.287c0,1.833,0.19,5.69,0.443,8.534
	c0.38,5.626,0.126,6.131-2.339,3.982c-0.822-0.695-1.643-1.264-1.896-1.264c-0.443,0-12.832-13.717-13.211-14.665
	c-0.127-0.38,2.528-0.506,7.143-0.38c4.045,0.127,7.332,0,7.332-0.315c0-0.253-2.465-0.506-5.5-0.57
	c-3.097,0-6.13-0.126-6.826-0.189c-0.695-0.063-1.58-0.19-2.023-0.253c-0.38,0-0.885-0.569-1.011-1.2
	c-0.253-0.886-0.316-0.949-0.38-0.064c-0.063,1.454-1.074,1.58-10.303,1.77l-8.091,0.126l-0.063-4.614
	c-0.063-2.529-0.316-6.637-0.57-9.04c-0.63-5.434-0.251,15.236,0.381,22.568c0.316,3.54,0.19,5.183-0.38,5.879
	c-0.631,0.758-0.631,1.137,0,1.896c0.57,0.695,0.95,4.425,1.139,12.01c0.19,6.068,0.569,11.062,0.821,11.062
	c0.317,0,0.38-1.138,0.19-2.465l-0.38-2.465h7.46c10.366,0.063,10.24,0.063,10.556,5.689l0.19,4.614l0.126-4.804
	c0.126-3.793,0.38-4.93,1.138-5.247c0.569-0.19,4.109-0.379,7.964-0.379h6.89l-1.264,1.644c-2.086,2.718-2.781,6.131-1.706,8.723
	c0.505,1.2,1.39,2.465,2.022,2.781c0.696,0.38,1.075,0.822,0.885,1.011c-0.316,0.253-10.682,0.57-14.665,0.443
	c-0.695-0.063-1.138-0.759-1.327-2.15l-0.253-2.022l-0.063,2.023c-0.127,1.833-0.38,2.086-1.833,2.149
	c-1.012,0.063-2.466,0.19-3.35,0.253c-0.885,0.126-3.856,0.253-6.638,0.38l-5.057,0.252l-0.379-4.425l-0.316-4.425l-0.126,5.12
	l-0.127,5.057l3.35-0.379c1.77-0.253,5.816-0.506,8.85-0.569l5.626-0.126l-0.127,3.35c-0.063,1.833,0.064,3.919,0.253,4.614
	c0.253,0.696,2.276,2.34,4.551,3.73c2.213,1.327,4.046,2.528,4.046,2.655c0,0.126-3.224,0.253-7.08,0.253
	c-8.533,0-21.492,0.568-21.87,0.948c-0.696,0.695,2.844,1.327,4.614,0.885c1.011-0.316,4.993-0.57,8.786-0.57h6.89l-0.506,3.288
	c-0.505,3.73-0.505,4.045-0.379,8.28c0.063,1.96,0.316,2.908,0.759,2.655c0.379-0.253,0.505-0.885,0.252-1.454
	c-0.19-0.568-0.19-3.666,0.064-6.89l0.442-5.941l9.04,0.126l9.102,0.126v15.424l-12.769,0.38c-7.08,0.189-15.107,0.315-17.889,0.252
	l-5.057-0.126l-0.19-3.92c-0.126-2.212-0.442-3.982-0.758-3.982c-0.316,0-0.505,1.897-0.442,4.235l0.126,4.299h48.8
	c26.864,0,48.609-0.19,48.292-0.506c-0.252-0.253-9.608-0.506-20.86-0.632l-20.416-0.127l0.379-2.78
	c0.19-1.518,0.38-4.994,0.38-7.713c0-4.74,0.062-4.993,1.39-4.993c1.327,0,1.327,0,0.126,0.948c-1.58,1.2-0.695,1.2,1.707,0
	c1.39-0.759,3.477-0.948,8.344-0.822l6.447,0.19l-0.19,7.08c-0.189,4.867,0,7.142,0.443,7.142s0.695-2.465,0.695-7.332
	c0-7.143,0-7.27,1.328-6.89c0.758,0.253,5.246,0.632,9.987,0.885l8.597,0.379l0.316,6.637l0.316,6.637l0.316-7.206
	c0.19-3.919,0.127-7.459-0.126-7.838c-0.253-0.38-0.443-7.459-0.506-15.676c0-11.631,0.126-15.044,0.759-15.297
	c0.695-0.316,0.695-0.443,0-0.948c-0.633-0.443-0.759-5.5-0.633-24.4c0.127-13.148,0-23.198-0.252-22.377
	c-0.19,0.822-0.38,7.649-0.443,15.17c-0.063,13.149-0.126,13.718-1.327,14.097c-1.517,0.506-8.534-5.436-13.148-11.062l-2.845-3.477
	l7.206-0.316c8.344-0.379,8.407-1.39,0.064-1.264c-3.035,0.063-6.005,0.063-6.574,0.063c-0.949-0.063-1.138-0.885-1.328-5.31
	l-0.19-5.183l-0.126,5.184l-0.126,5.246l-1.897,0.063c-1.011,0-3.034,0.064-4.424,0.064c-1.391,0-4.93-0.064-7.902-0.064
	l-5.373-0.063v-7.016c0-4.488-0.253-6.827-0.632-6.574c-1.011,0.632-0.758-2.655,0.316-3.73c0.506-0.505,0.948-1.074,0.948-1.264
	s-5.752-0.316-12.768-0.316c-14.096,0-36.157-0.506-43.3-1.075C-244.922,370.244-246.944,370.307-246.944,370.623z
	 M-175.832,371.382c-12.579,0.442-11.63,0.569,8.85,0.885c9.039,0.19,17.32,0.505,18.331,0.758c1.075,0.253,1.643,0.19,1.39-0.126
	c-0.631-0.695-1.453-0.759-9.924-1.201c-3.982-0.253-7.522-0.443-7.9-0.506C-165.402,371.129-170.269,371.192-175.832,371.382z
	 M-227.096,379.915c0,3.098,0.063,4.488,0.19,3.034c0.126-1.453,0.126-4.045,0-5.689
	C-227.033,375.617-227.096,376.755-227.096,379.915z M-244.163,447.551c0,3.098,0.063,4.488,0.19,3.034
	c0.126-1.453,0.126-4.045,0-5.689C-244.1,443.253-244.163,444.391-244.163,447.551z M-244.416,461.268
	c0,0.759,0.19,1.138,0.443,0.885c0.695-0.632,0.758-2.276,0.126-2.276C-244.163,459.877-244.416,460.51-244.416,461.268z
	 M-208.576,466.958c0.443,4.55,0.949,4.74,0.696,0.315c-0.126-1.96-0.38-3.603-0.632-3.603c-0.19,0-0.253,1.517-0.063,3.287
	L-208.576,466.958z M-201.053,373.405c-0.19,0.821-0.38,4.93-0.38,9.165c0,7.522-0.063,7.775-1.327,7.775
	c-1.264,0-1.327-0.253-0.948-3.35c0.19-1.77,0.38-5.942,0.38-9.166c0-5.499,0.063-5.815,1.327-5.815c1.074,0,1.264,0.253,0.948,1.39
	V373.405z M-198.714,380.99c-0.19,4.994-0.443,9.166-0.632,9.355c-0.127,0.127-0.506-0.063-0.759-0.506
	c-0.632-1.01-0.506-15.992,0.19-17.067C-198.651,370.687-198.335,372.709-198.714,380.99L-198.714,380.99z M-195.617,381.18
	c0.19,8.407,0.127,9.165-0.885,9.165c-1.011,0-1.138-0.822-1.138-8.723c0-4.804,0.19-8.976,0.443-9.166
	C-196.059,371.256-195.807,372.709-195.617,381.18z M-188.664,374.669c-0.126,1.264,0.064,2.465,0.443,2.718
	c0.38,0.19,0.632,1.707,0.569,3.35l-0.063,2.971l-0.443-3.16l-0.442-3.161l-0.127,2.528c-0.126,1.391-0.253,3.35-0.316,4.425
	c-0.063,1.012-0.19,2.845-0.253,3.92c-0.063,1.137-0.442,2.085-0.822,2.085c-0.316,0-0.442-0.316-0.252-0.632
	c0.19-0.38,0.126-0.632-0.253-0.632c-0.316,0-0.759-1.517-0.885-3.35l-0.19-3.287l-0.126,3.982c-0.127,3.793-0.19,3.982-1.517,3.793
	c-1.39-0.19-1.454-0.443-1.644-8.344c-0.063-4.551,0-8.597,0.127-9.04c0.253-0.568,1.327-0.758,3.35-0.631l3.034,0.19
	C-188.474,372.394-188.664,374.669-188.664,374.669z M-187.526,387.943c0,1.833-0.19,2.402-0.569,1.833
	c-0.316-0.442-0.442-1.327-0.379-1.896c0.126-0.569,0.253-1.39,0.253-1.833c0.063-0.38,0.19-0.759,0.38-0.759
	C-187.652,385.288-187.526,386.489-187.526,387.943z M-228.107,391.103c-0.316,0.823-15.677,12.137-15.993,11.759
	c-0.19-0.19-0.505-10.114-0.38-11.757c0.064-0.57,2.15-0.759,8.345-0.759c6.131,0,8.217,0.19,8.028,0.759V391.103z
	 M-205.794,394.264c0,1.833,0.253,4.488,0.569,5.879c0.443,2.023,0.569,1.454,0.38-2.971c-0.19-6.195-0.19-6.131,4.36-5.879
	c1.392,0.127,4.173,0.19,6.196,0.253l3.603,0.063v17.067l-4.552,0.127c-3.034,0.063-3.603,0.19-1.77,0.316
	c1.58,0.126,3.793,0.38,4.93,0.506l2.024,0.379v13.843h-13.276l-0.126-3.982c-0.063-2.15-0.126-5.69-0.126-7.902
	c-0.064-3.855-0.064-3.919-1.77-3.919h-1.77v-8.533c0-5.247,0.253-8.534,0.632-8.534
	C-206.11,390.977-205.858,392.494-205.794,394.264L-205.794,394.264z M-187.526,400.206c0,6.448-0.19,8.407-0.758,8.28
	c-1.517-0.252-1.77-1.39-1.77-9.102c0-7.395,0.379-8.912,2.086-7.964C-187.715,391.546-187.526,395.528-187.526,400.206z
	 M-175.769,391.609c7.017,0,7.649,0.127,7.586,1.138c-0.063,0.948-5.5,6.068-10.177,9.608c-3.16,2.402,0.822-1.58,5.246-5.183
	c2.529-2.086,4.488-3.92,4.299-4.109c-0.19-0.19-2.908,1.897-6.069,4.615c-3.16,2.781-6.953,5.942-8.407,7.08l-2.655,2.148
	l-0.379-1.517c-0.506-2.086-0.632-13.147-0.19-13.906c0.19-0.316,1.012-0.442,1.77-0.253c0.696,0.19,4.804,0.38,8.976,0.38V391.609z
	 M-227.349,393.443c0,0.316-2.086,2.085-4.551,3.982c-2.529,1.833-5.057,3.666-5.563,4.109c-5.752,4.677-6.953,5.31-6.953,3.982
	c0-0.885,2.339-2.908,6.637-5.879c2.086-1.454,4.994-3.54,6.511-4.677c2.781-2.086,3.92-2.529,3.92-1.517H-227.349z
	 M-220.712,397.741c2.086,2.339,4.868,5.373,6.195,6.763c1.264,1.328,2.339,2.592,2.339,2.719c0,0.063-0.506,0.19-1.138,0.19
	c-1.011,0-5.626-4.615-10.177-10.115c-0.695-0.885-1.264-1.264-1.327-0.885c0,0.759,2.402,3.793,6.32,7.775l2.782,2.908l-2.15,0.19
	c-1.959,0.19-2.528-0.127-4.93-2.782c-2.591-2.97-2.655-3.16-2.528-7.016c0.063-2.212,0.316-3.982,0.506-3.982
	C-224.63,393.506-222.734,395.402-220.712,397.741z M-162.242,398.689c1.897,2.465,4.552,5.563,5.942,6.827
	c1.328,1.327,2.213,2.718,2.023,3.097c-0.253,0.38-1.896,0.632-3.73,0.57c-3.033-0.064-3.54-0.317-5.941-2.909
	c-2.718-2.78-2.718-2.844-2.718-7.459c0-2.591,0.19-4.677,0.506-4.677c0.252,0,2.022,2.023,3.919,4.551H-162.242z M-226.464,398.057
	c0.38,3.16,0,4.93-0.948,4.93c-0.316,0-1.644,0.759-2.971,1.707c-2.15,1.58-2.844,1.77-6.764,1.58l-4.424-0.252l3.097-2.592
	c3.097-2.655,11.315-8.66,11.568-8.47C-226.843,395.023-226.654,396.413-226.464,398.057z M-167.551,399.953
	c-0.443,5.69-0.506,5.879-5.057,8.218c-2.023,1.011-3.16,1.2-6.89,0.885c-2.465-0.253-4.551-0.506-4.678-0.632
	c-0.126-0.127,0.885-1.075,2.276-2.023c1.39-1.012,2.592-2.086,2.592-2.339c0-0.695-2.023,0.506-3.414,2.023
	c-0.695,0.758-1.517,1.327-1.833,1.327c-0.38,0,0.443-1.011,1.833-2.212c1.328-1.201,2.845-2.023,3.287-1.897
	c0.443,0.19,3.16-1.643,6.005-4.108c2.845-2.402,5.436-4.362,5.752-4.425C-167.425,394.77-167.362,397.109-167.551,399.953z
	 M-226.085,404.883c0,1.897-0.126,1.96-2.528,1.77c-1.39-0.063-2.529-0.189-2.529-0.315c0-0.19,4.615-3.35,4.868-3.35
	c0.126,0,0.19,0.884,0.19,1.896L-226.085,404.883z M-222.292,406.843c0,0.19-0.695,0.253-1.58,0.063
	c-1.264-0.19-1.58-0.632-1.58-2.275v-1.96l1.58,1.897C-223.051,405.579-222.355,406.654-222.292,406.843z M-152.822,406.59
	c0.125,0.127,0.125,0.316-0.064,0.506c-0.127,0.19-1.264-0.758-2.465-2.086l-2.15-2.339l2.213,1.897
	c1.2,1.074,2.339,1.96,2.465,2.022H-152.822z M-164.58,407.096c1.011,1.39,1.011,1.644,0.19,1.96
	c-1.391,0.505-2.276-0.253-2.276-2.023C-166.666,405.137-166.034,405.137-164.58,407.096z M-168.436,408.803
	c-0.316,0.316-1.39,0.506-2.402,0.38l-1.833-0.19l2.212-1.328c1.77-1.075,2.276-1.138,2.402-0.38
	C-167.93,407.791-168.057,408.424-168.436,408.803L-168.436,408.803z M-229.877,409.94l3.476,2.402l0.19,4.235
	c0.126,2.402-0.063,4.551-0.316,4.804c-0.443,0.442-14.728-12.832-14.728-13.59c0-0.57,2.275-0.822,5.057-0.57
	c2.022,0.19,3.855,1.012,6.32,2.719H-229.877z M-148.967,407.032c0,0.19-0.253,0.506-0.632,0.695
	c-0.316,0.19-0.632,0.063-0.632-0.253c0-0.379,0.316-0.695,0.632-0.695C-149.219,406.779-148.967,406.905-148.967,407.032z
	 M-226.211,409.497c0.19,1.58,0.063,1.707-0.948,1.138c-0.632-0.38-1.833-1.264-2.718-1.96l-1.58-1.264l2.528,0.127
	C-226.654,407.728-226.401,407.917-226.211,409.497L-226.211,409.497z M-218.183,408.107c5.436-0.127,5.31,0.442-1.075,6.826
	l-5.878,5.816l-0.19-3.287c-0.19-3.034,0-3.477,2.212-5.816c2.402-2.528,1.77-2.655-0.885-0.253l-1.454,1.265v-2.213
	c0-2.718,0.443-3.223,2.529-2.655c0.885,0.253,3.034,0.38,4.74,0.317H-218.183z M-236.198,414.175
	c3.287,3.35,4.867,5.246,3.476,4.172c-5.31-4.046-11.125-10.304-9.608-10.304C-242.267,408.043-239.485,410.761-236.198,414.175z
	 M-240.623,412.468c0,0.19,2.212,2.212,4.867,4.425c2.655,2.275,5.563,4.74,6.448,5.562l1.58,1.454l-7.902-0.19l-7.838-0.189
	l-0.19-7.585l-0.126-7.586l1.517,1.897C-241.382,411.267-240.687,412.278-240.623,412.468z M-210.598,410.318
	c-1.011,0.886-3.73,3.225-6.005,5.247c-10.556,9.482-11.568,9.482-2.212,0.064c5.183-5.247,7.332-6.954,8.533-6.954l1.58,0.064
	l-1.896,1.58V410.318z M-204.466,415.628c0.19,7.776,0.126,8.218-1.138,8.218c-0.632,0-0.885-1.075-1.012-4.298l-0.126-4.235
	l-0.19,4.235l-0.253,4.298h-17.255l5.626-5.246c3.034-2.845,6.384-5.69,7.332-6.258c0.948-0.57,1.896-1.328,2.086-1.707
	c0.948-1.454,1.644-0.569,1.77,1.96l0.063,2.718l0.253-2.529c0.316-3.413,0.632-4.109,1.707-4.109c0.758,0,0.948,1.328,1.138,6.954
	L-204.466,415.628z M-149.852,409.75c1.201,1.58,1.201,13.4,0.063,13.843c-0.442,0.127-4.361,0.19-8.66,0.127l-7.838-0.19
	l4.362-3.477c2.465-1.896,4.74-3.729,5.183-4.108c0.38-0.316,2.023-1.707,3.603-3.098c1.643-1.327,2.844-2.591,2.655-2.78
	c-0.19-0.127-1.96,1.137-3.982,2.844c-5.626,4.804-12.137,9.67-12.77,9.67c-1.263,0,0.064-1.706,3.225-4.108
	c1.77-1.39,4.488-3.73,6.131-5.246c1.58-1.454,3.666-2.845,4.678-3.035c0.948-0.252,1.706-0.632,1.706-0.948
	C-151.496,408.359-150.737,408.612-149.852,409.75z M-187.526,414.49c0,2.53-0.19,5.69-0.38,6.954
	c-0.758,4.614-1.516,2.339-1.516-4.551c0-5.752,0.19-6.953,0.948-6.953C-187.715,409.94-187.526,410.888-187.526,414.49z
	 M-183.354,411.267c0.632,0.759,3.92,3.35,7.206,5.815c3.287,2.466,6.132,4.552,6.258,4.678c0.126,0.127,0.126,0.38-0.126,0.569
	c-0.19,0.253-1.201-0.19-2.15-0.948c-0.948-0.759-4.424-3.414-7.585-5.879c-3.224-2.465-5.879-4.74-5.879-5.057
	C-185.63,409.56-184.618,409.876-183.354,411.267z M-171.091,413.1c3.097,3.034,3.287,3.287,2.845,5.563
	c-0.253,1.264-0.57,2.465-0.696,2.591c-0.126,0.19-1.074-0.442-2.023-1.327c-0.948-0.885-2.97-2.465-4.55-3.54
	c-1.581-1.011-3.983-2.908-5.374-4.172l-2.528-2.212l4.551-0.063h4.488L-171.091,413.1z M-167.931,411.836
	c0,2.276-0.189,2.276-2.591,0.569s-2.339-2.465,0.38-2.465C-168.12,409.94-167.93,410.066-167.931,411.836L-167.931,411.836z
	 M-164.138,411.836c-2.339,1.517-2.907,1.707-3.034,0.885c-0.442-2.023,0.443-2.781,3.16-2.781h2.719
	C-161.293,409.94-164.138,411.836-164.138,411.836z M-155.92,410.509c0,0.316-0.253,0.695-0.506,0.821
	c-0.506,0.19-2.844,2.023-8.723,7.08l-2.15,1.77v-2.529c0-2.338,0.254-2.78,2.782-4.55c1.58-1.012,3.287-1.897,3.793-1.897
	c0.569,0,1.011-0.316,1.011-0.632c0-0.38,0.885-0.632,1.896-0.632C-156.742,409.94-155.92,410.192-155.92,410.509z
	 M-175.958,419.674c2.339,1.644,4.235,3.287,4.235,3.603s-3.413,0.57-7.585,0.57h-7.586v-4.046c0-2.213,0.19-4.93,0.38-6.005
	l0.379-1.96l2.97,2.402C-181.584,415.565-178.36,418.031-175.958,419.674z M-204.908,425.11c-0.19,0.316-0.633,0.632-1.012,0.632
	c-0.316,0-0.57-0.316-0.57-0.632c0-0.379,0.443-0.632,1.012-0.632C-204.972,424.478-204.719,424.731-204.908,425.11z
	 M-188.411,425.3c0.316,0.253,0.127,0.758-0.316,1.011c-0.569,0.38-0.632,0.696-0.126,0.948c0.821,0.506,0.948,7.902,0.126,9.103
	c-0.632,1.011-9.418,1.327-14.096,0.569c-2.844-0.506-3.034-0.632-3.097-2.529c-0.064-1.264-0.19-1.517-0.38-0.758
	c-0.632,3.034-0.758,3.097-2.402,1.58c-2.022-1.896-2.022-4.488,0-6.764l1.517-1.77l0.064,2.782c0,1.517,0.19,2.592,0.505,2.339
	c0.253-0.253,0.443-1.517,0.443-2.782c0-2.022,0.19-2.338,1.454-2.275c0.948,0,1.39-0.316,1.39-1.201
	c0-1.138,0.443-1.201,7.206-0.948C-192.14,424.668-188.663,425.047-188.411,425.3z M-170.206,425.363
	c-0.253,0.632,0.063,0.885,0.948,0.822c0.759-0.063,1.328-0.443,1.328-0.885c0-0.695,1.96-0.822,9.355-0.695l9.292,0.19l0.19,15.992
	l0.126,15.992l-7.712-0.38c-4.298-0.189-8.786-0.568-9.987-0.758c-1.201-0.19-4.425-0.442-7.206-0.569
	c-2.718-0.063-5.057-0.316-5.247-0.505c-0.19-0.127,1.39-1.138,3.477-2.213c2.086-1.074,3.982-2.212,4.235-2.591
	c0.632-1.012,2.212-0.696,2.276,0.442c0,0.885,0.126,0.885,0.568-0.253c0.633-1.517,0.127-4.108-0.695-3.603
	c-0.316,0.19-2.528-0.569-4.867-1.706c-2.339-1.075-4.93-2.213-5.752-2.529c-2.655-1.074-0.885-1.327,4.93-0.885
	c4.678,0.38,5.752,0.632,5.816,1.517c0.063,0.822,0.126,0.759,0.379-0.126c0.316-1.138,0.885-1.138,8.85-0.759
	c6.13,0.316,8.406,0.253,8.154-0.253c-0.316-0.442-3.414-0.695-8.66-0.695h-8.155l-0.063-1.77l-0.126-1.707l-0.253,1.834
	l-0.316,1.77l-5.12-0.38c-2.845-0.19-6.574-0.442-8.218-0.505l-3.034-0.127l1.897-1.454c3.413-2.655,3.919-7.585,1.2-12.073
	l-1.264-2.023h7.017C-171.028,424.478-169.953,424.605-170.206,425.363z M-207.121,425.363c0,0.127-1.012,1.264-2.276,2.592
	c-1.896,2.023-2.212,2.718-1.896,4.361c0.379,1.833,2.465,4.299,4.298,4.994c0.443,0.126,0.632,0.443,0.38,0.695
	c-0.443,0.506-2.845-0.569-4.173-1.896c-2.212-2.212-1.39-8.154,1.391-10.05C-208.196,425.174-207.121,424.857-207.121,425.363z
	 M-183.923,426.501c3.856,4.235,2.213,12.39-2.465,12.516c-1.39,0-1.517-1.77-0.19-2.276c1.138-0.442,2.845-3.73,2.845-5.5
	c0-0.631-0.885-2.022-1.96-3.033c-1.833-1.707-2.022-3.098-0.316-3.098c0.443,0,1.39,0.632,2.086,1.39V426.501z M-185.756,429.029
	c1.075,1.075,0.948,4.678-0.253,5.816c-0.505,0.569-1.074,1.011-1.264,1.011c-0.126,0-0.253-1.707-0.253-3.792
	C-187.526,428.271-187.146,427.639-185.756,429.029z M-188.158,438.827c0,0.948-1.454,1.011-10.935,0.38
	c-3.73-0.19-6.764-0.57-6.764-0.822c0-0.253,3.982-0.38,8.85-0.38C-190.37,438.069-188.158,438.258-188.158,438.827z
	 M-212.178,439.838c-0.506,0.506-12.137,5.5-12.706,5.5c-0.821,0-0.695-4.93,0.064-5.183
	C-223.809,439.838-211.799,439.522-212.178,439.838z M-206.489,440.155c0,0.252-1.707,1.074-3.793,1.896
	c-2.511,0.917-5.018,1.844-7.522,2.781c-2.718,1.012-3.666,1.644-3.413,2.402c0.19,0.57,0.126,0.696-0.253,0.253
	c-0.253-0.38-0.948-0.822-1.454-1.011c-1.075-0.316,4.488-3.034,10.746-5.31C-207.753,439.586-206.489,439.396-206.489,440.155z
	 M-194.479,440.281c3.73,0.38,3.413,0.442-3.287,0.506c-4.614,0.063-7.459-0.127-7.459-0.506
	C-205.225,439.586-200.674,439.586-194.479,440.281z M-173.935,445.654c3.413,1.643,0.758,1.011-5.5-1.328
	c-3.413-1.327-6.005-2.591-5.815-2.844C-184.997,441.04-178.613,443.378-173.935,445.654z M-188.285,444.264l0.19,2.401l-8.723-0.19
	l-8.723-0.189l-0.19-2.023c-0.19-1.96-0.126-2.022,2.529-2.275c1.517-0.127,5.436-0.19,8.723-0.19l6.005,0.063l0.19,2.402
	L-188.285,444.264z M-206.489,444.2v2.086l-6.51,0.126c-3.54,0.064-6.132,0-5.816-0.19c2.78-1.39,9.734-3.918,10.935-3.981
	C-206.742,442.177-206.49,442.493-206.489,444.2L-206.489,444.2z M-185.882,442.683c0.316,0.253,1.706,0.885,3.097,1.327
	c2.528,0.822,6.637,2.529,6.637,2.782c0,0.126-7.648,0-10.24-0.127c-0.885-0.063-1.138-0.632-1.138-2.275
	C-187.526,442.177-187.083,441.735-185.882,442.683z M-208.196,447.677c-1.138,0.126-3.034,0.126-4.109,0
	c-1.137-0.127-0.252-0.253,2.023-0.253C-208.006,447.424-207.122,447.55-208.196,447.677z M-195.87,447.677
	c-1.643,0.126-4.488,0.126-6.32,0c-1.834-0.127-0.507-0.19,2.97-0.19S-194.226,447.55-195.87,447.677z M-208.196,448.688
	c1.075,0,1.707,0.316,1.707,0.885c0,0.506,0.316,0.695,0.632,0.506c0.38-0.253,0.506-0.632,0.38-0.885
	c-0.19-0.253,3.665-0.506,8.47-0.57l8.849-0.062v4.993l-7.08,0.064c-3.919,0-7.711,0.126-8.407,0.252
	c-0.632,0.127-1.58-0.063-2.022-0.442c-0.57-0.443-0.822-0.443-0.822,0c0,0.948-4.741-0.253-9.608-2.529
	c-2.402-1.074-4.299-2.212-4.299-2.591c0-0.38,1.897-0.443,5.247-0.063C-212.305,448.498-209.207,448.751-208.196,448.688z
	 M-221.344,449.131c0.443,0.695,7.08,3.855,10.62,4.993c1.264,0.443,2.338,0.885,2.338,1.012c0,0.632-5.878-0.696-8.596-2.023
	c-4.046-1.96-7.333-4.551-5.816-4.615C-222.228,448.498-221.533,448.751-221.344,449.131z M-180.889,451.027
	c-2.781,1.327-5.436,2.465-5.815,2.465c-0.569,0.063-0.822-0.822-0.822-2.465v-2.529l5.879,0.064l5.815,0.063
	C-175.832,448.625-180.889,451.027-180.889,451.027z M-172.671,449.699c-3.16,2.845-14.223,6.827-14.223,5.12
	c0-0.379,0.38-0.632,0.822-0.632c0.38-0.063,3.034-1.137,5.815-2.528C-175.705,449.447-171.154,448.246-172.671,449.699z
	 M-200.927,455.262c-0.632,0.126-1.643,0.126-2.212,0c-0.632-0.19-0.126-0.316,1.075-0.316
	C-200.864,454.946-200.358,455.072-200.927,455.262z M-194.922,455.262c-0.442,0.126-1.2,0.126-1.58,0
	c-0.442-0.19-0.126-0.316,0.759-0.316S-194.543,455.072-194.922,455.262z M-190.812,455.262c-0.633,0.126-1.644,0.126-2.213,0
	c-0.632-0.19-0.127-0.316,1.074-0.316C-190.75,454.946-190.244,455.072-190.812,455.262L-190.812,455.262z M-203.012,462.532
	c0.252,3.413,0.632,6.194,0.884,6.194c0.19,0,0.253-1.896,0.064-4.298c-0.57-6.638-0.443-7.965,0.821-8.218
	c0.948-0.19,1.075,0.506,1.201,7.27l0.127,7.458l0.19-6.953c0.126-3.793,0.505-7.206,0.884-7.585
	c0.506-0.443,0.632,0.632,0.57,3.476c-0.254,7.46,0.252,9.925,0.568,3.161c0.316-5.752,0.506-6.637,1.517-6.827
	c1.075-0.253,1.138,0.253,1.012,7.017c-0.127,4.045-0.064,7.522,0.19,7.711c0.189,0.19,0.442-2.78,0.442-6.7
	c0.063-3.92,0.253-7.333,0.442-7.585c0.948-1.58,1.201,0.063,1.012,6.005c-0.19,3.73,0,7.08,0.379,7.711
	c0.442,0.822,0.632,0.317,0.569-2.338c-0.063-9.608,0.19-11.947,1.138-11.947c0.821,0,0.948,0.948,0.695,6.131l-0.316,6.195
	l0.758-6.195c0.443-3.476,0.949-6.005,1.265-5.752c0.758,0.759,0.505,9.102-0.253,9.102c-0.506,0-0.632,1.012-0.38,3.161l0.38,3.16
	h-7.522c-6.764,0-7.586-0.126-7.649-1.137c-0.063-1.012-0.126-1.012-0.38,0c-0.126,0.632-0.695,1.138-1.2,1.138
	c-0.696,0-0.885-1.075-0.885-4.994c0-7.585,0.569-10.746,1.896-10.62c1.012,0.064,1.201,0.949,1.58,6.258L-203.012,462.532z"/>
</svg>
