<?xml version="1.0" encoding="iso-8859-1"?>
<!-- Generator: Adobe Illustrator 19.0.0, SVG Export Plug-In . SVG Version: 6.00 Build 0)  -->
<svg version="1.2" baseProfile="tiny" id="Layer_1" xmlns="http://www.w3.org/2000/svg" xmlns:xlink="http://www.w3.org/1999/xlink"
	 x="0px" y="0px" viewBox="-247 381.89 100 78" xml:space="preserve">
<title>face_00020</title>
<path d="M-169.928,383.394c-6.544,2.396-14.101,7.742-19.54,13.917l-4.515,5.07l-3.871-4.332c-3.503-4.056-6.268-5.254-5.622-2.489
	c0.092,0.553-0.277,2.489-0.922,4.24l-1.106,3.133l-3.042-5.714c-3.778-7.097-6.175-9.77-10.875-11.89
	c-6.729-3.132-14.47-1.934-21.383,3.411c-4.055,3.042-5.99,7.005-6.175,12.443c-0.092,4.424,0,4.608,7.281,11.89
	c10.784,10.783,17.051,12.534,25.438,6.912c2.028-1.29,3.595-1.935,3.595-1.567c0,0.461-1.383,4.885-3.134,9.862
	c-3.134,9.032-3.226,9.032-7.373,10.691c-4.516,1.66-11.613,6.82-11.613,8.387c0,1.567,5.622,6.268,9.954,8.203
	c7.004,3.226,13.917,4.055,23.963,2.857c12.074-1.382,22.12-4.055,29.032-7.557c7.005-3.687,7.373-3.964,6.728-6.176
	c-0.737-2.396-4.332-4.24-13.18-6.728l-7.465-2.12l-0.645-5.898c-0.369-3.226-0.922-7.097-1.383-8.572l-0.737-2.58l3.871,1.751
	c2.12,0.922,5.53,1.935,7.65,2.304c8.571,1.383,19.539-4.147,23.41-11.797c1.106-2.12,2.58-4.424,3.318-5.254
	c2.12-2.027,1.29-13.917-1.198-17.235C-154.26,382.104-161.172,380.353-169.928,383.394L-169.928,383.394z M-155.458,386.896
	c2.58,1.844,4.7,6.636,4.7,10.507c0,1.475-0.184,2.765-0.368,2.765c-0.185,0-2.765-1.474-5.622-3.225
	c-6.36-3.78-9.493-4.517-17.512-3.964c-7.097,0.461-6.82-0.553,1.66-4.792c6.45-3.226,13.548-3.779,17.142-1.29V386.896z
	 M-221.172,388.095c3.226,1.474,7.742,6.083,7.742,7.834c0,0.276-1.751-0.185-3.871-0.922c-6.452-2.304-19.263,0.369-22.95,4.793
	c-1.935,2.304-3.686,1.566-3.041-1.29c1.014-4.148,3.87-7.282,8.848-9.77C-228.822,385.883-226.241,385.79-221.172,388.095z
	 M-165.596,398.694c5.253,2.765,7.097,8.848,4.332,14.285c-1.567,2.95-5.254,5.623-7.65,5.623c-1.106,0-0.553-0.646,1.567-1.936
	c5.16-3.134,6.912-7.189,5.069-11.705c-2.489-5.714-8.203-7.005-15.3-3.318c-4.7,2.396-5.069,9.217-0.737,13.825
	c1.106,1.198,1.659,2.212,1.198,2.212c-2.58-0.092-5.899-5.07-5.899-9.032c0-3.78,1.29-6.452,4.424-9.125
	c2.95-2.488,9.033-2.857,12.996-0.83V398.694z M-226.334,398.786c0,0.184-1.198,1.014-2.672,1.751
	c-3.595,1.935-5.254,6.175-3.78,9.677c1.936,4.793,4.978,6.913,8.94,6.268c5.439-0.922,8.02-3.41,8.388-8.019
	c0.184-2.12-0.184-4.424-0.645-4.885c-1.29-1.29-1.29-2.764-0.092-2.027c1.659,1.014,3.041,8.018,1.935,10.322
	c-1.567,3.41-6.36,5.807-11.89,5.807c-4.423,0-4.976-0.277-6.727-3.042c-2.673-4.24-2.028-11.244,1.382-14.193
	c2.212-1.843,5.161-2.857,5.161-1.66V398.786z M-219.329,399.8c0.922,0.737,1.198,1.106,0.553,0.83
	c-0.737-0.37-2.396-1.015-3.687-1.383c-2.027-0.645-2.12-0.738-0.553-0.83C-222.002,398.325-220.343,398.97-219.329,399.8z
	 M-155.274,401.827l2.858,2.581l-1.752,3.594l-1.843,3.503l-0.645-4.056c-0.369-2.212-1.29-4.977-2.028-6.175
	C-160.527,398.417-158.776,398.694-155.274,401.827z M-186.057,404.5c-0.737,2.765-0.737,4.7,0,7.097
	c0.553,1.843,0.645,3.318,0.184,3.318c-0.921,0-5.438-6.452-5.438-7.926c0-1.014,5.623-7.097,6.083-6.544
	C-185.135,400.537-185.504,402.38-186.057,404.5L-186.057,404.5z M-237.67,405.698c-0.46,4.793-1.106,5.254-3.041,2.397
	c-1.475-2.305-1.475-2.581,0.092-4.24C-238.131,401.09-237.301,401.643-237.67,405.698z M-196.103,405.422
	c0.922,1.935,2.304,4.516,3.134,5.806c2.027,2.95,5.345,15.76,5.345,20.461c0,3.41-0.092,3.502-3.41,3.502
	c-1.935,0-4.424,0.277-5.53,0.553l-2.12,0.553v-17.142c0-9.401,0.185-17.143,0.461-17.143
	C-197.854,402.012-196.933,403.578-196.103,405.422z M-165.688,407.726c0.276,3.687-1.567,5.714-5.899,6.636
	c-2.488,0.553-3.226,0.276-4.885-1.843c-2.488-3.134-2.488-5.07,0.185-7.466C-171.864,400.813-166.149,402.288-165.688,407.726z
	 M-218.96,404.684c1.935,3.78-1.751,8.388-6.728,8.388c-2.12,0-4.332-2.95-4.332-5.715c0-2.12,2.765-3.963,6.36-4.24
	C-220.804,402.933-219.79,403.302-218.96,404.684z M-209.006,406.528c0.737,2.027,0.645,3.133-0.277,4.424
	c-1.198,1.567-1.29,1.474-1.382-1.106c0-1.567-0.277-3.779-0.646-4.977C-212.14,401.735-210.205,403.118-209.006,406.528z
	 M-202.463,419.984c-0.092,8.94-0.553,16.406-1.013,16.682c-1.475,0.922-9.033-0.553-9.033-1.751c0-1.29,9.586-31.06,9.954-31.06
	C-202.37,403.855-202.37,411.136-202.463,419.984z M-177.486,440.906c3.226,1.382,3.134,1.382-7.834,2.304
	c-6.083,0.46-11.244,0.737-11.428,0.553c-0.185-0.092,0.184-0.83,0.83-1.66C-193.246,438.878-183.845,438.233-177.486,440.906z
	 M-205.136,442.565l2.305,1.843h-3.687c-2.028,0.092-6.912,0.276-10.783,0.553c-4.885,0.369-7.19,0.184-7.19-0.46
	c0-0.554,0.093-1.015,0.277-1.015c0.092,0,1.844-0.645,3.871-1.382c5.438-1.936,12.443-1.751,15.208,0.46L-205.136,442.565z
	 M-170.573,446.805c-3.41,2.764-9.217,4.884-18.618,6.727c-15.576,3.226-29.124,2.212-35.3-2.58l-2.211-1.751l3.133-0.553
	c1.752-0.277,9.494-0.738,17.051-1.106c7.65-0.277,17.604-0.83,22.12-1.199c4.608-0.368,9.954-0.737,11.982-0.829
	c3.502-0.092,3.594-0.092,1.843,1.29V446.805z M-174.905,406.712c-1.843,1.014-2.212,4.055-0.645,4.977
	c0.46,0.369,1.935,0.369,3.226,0.092c2.396-0.645,2.949-3.133,1.106-4.977C-172.508,405.514-172.878,405.514-174.905,406.712z
	 M-227.624,407.265c-0.369,0.83,0,2.12,0.83,2.95c1.75,1.843,4.424,0.368,4.884-2.581c0.277-1.567-0.184-1.936-2.396-1.936
	C-226.057,405.698-227.256,406.251-227.624,407.265z"/>
</svg>
