<?xml version="1.0" encoding="iso-8859-1"?>
<!-- Generator: Adobe Illustrator 19.0.0, SVG Export Plug-In . SVG Version: 6.00 Build 0)  -->
<svg version="1.2" baseProfile="tiny" id="Layer_1" xmlns="http://www.w3.org/2000/svg" xmlns:xlink="http://www.w3.org/1999/xlink"
	 x="0px" y="0px" viewBox="-247 364.89 100 112" xml:space="preserve">
<title>face_00006</title>
<path d="M-197.443,367.206c0.907,0.705,2.216,2.72,2.92,4.532c1.21,2.92,1.21,3.525-0.301,5.035
	c-1.108,1.209-1.612,1.31-1.612,0.302c0-0.705-1.007-2.115-2.215-3.122c-1.813-1.41-2.618-1.51-4.33-0.604
	c-1.108,0.604-2.216,1.41-2.518,1.712c-1.712,1.914-4.431,1.712-6.646-0.403c-2.518-2.618-4.834-2.82-7.956-0.805
	c-1.914,1.107-1.914,1.208,0.403,0.503c1.61-0.403,2.114-0.302,1.712,0.504c-0.403,0.604-0.202,1.108,0.402,1.108
	c0.705,0,0.907,0.704,0.605,1.61c-0.605,1.41-0.403,1.511,0.906,0.404c1.108-1.007,1.31-1.51,0.403-2.014
	c-0.705-0.504-0.806-1.008-0.1-1.41c0.503-0.302,2.013,0.302,3.322,1.309l2.317,1.813l-3.122,1.61
	c-1.712,0.907-5.035,2.116-7.352,2.62l-4.23,0.905l0.504-3.826c0.504-3.626,0.403-3.827-1.41-2.72
	c-1.007,0.605-1.913,1.511-1.913,2.015c0,0.403,0.403,0.503,1.007,0.201c0.604-0.403,0.705,0.604,0.302,2.72
	c-0.604,3.322-2.719,5.74-5.035,5.84c-0.705,0-1.31,0.403-1.31,0.906c0,0.504,0.605,1.108,1.31,1.41
	c0.906,0.302,0.906,0.806-0.202,2.115c-0.805,0.906-1.107,2.014-0.704,2.417c0.402,0.403,1.309-0.1,2.014-1.108
	c0.705-0.906,1.913-1.712,2.719-1.712c1.107,0.101,1.107,0.302-0.101,1.31c-0.906,0.704-2.518,2.82-3.827,4.733l-2.215,3.524
	l-0.101-6.042c-0.1-3.323-0.403-4.935-0.604-3.525c-0.302,1.41-1.007,3.122-1.51,3.726c-0.706,0.907-0.706,1.31,0.1,1.31
	c2.115,0,1.108,3.826-2.115,7.452c-2.316,2.618-3.424,3.323-4.028,2.417c-0.504-0.907-0.806-0.605-0.806,0.906
	c0,1.208-0.805,2.719-1.712,3.223c-1.007,0.604-1.309,1.107-0.705,1.107c0.504,0,2.518-1.611,4.431-3.524
	c1.914-1.914,3.827-3.525,4.23-3.525c1.31,0,0.906,4.33-0.604,7.25c-0.907,1.612-1.007,2.82-0.504,2.82
	c0.604,0,0.705,0.504,0.302,1.209c-0.403,0.705-0.302,0.806,0.403,0.403c0.806-0.504,1.108,0.302,0.806,2.316
	c-0.202,1.712,0.1,3.122,0.503,3.122c0.504,0,0.907,0.805,0.907,1.913c0,1.41,0.604,1.712,2.417,1.41
	c1.913-0.403,2.215-0.906,1.812-2.618c-0.503-1.813-0.705-1.914-1.007-0.504c-0.604,3.122-2.014,1.914-2.82-2.517
	c-0.906-4.633-0.705-8.862,0.504-10.07c0.503-0.504,1.108,0.301,1.31,1.711c0.402,1.813,0.1,2.618-0.907,2.618
	c-1.007,0-0.604,1.007,1.108,3.324c1.51,1.913,2.618,3.927,2.618,4.531c0,0.605,0.906,1.612,2.014,2.216
	c2.92,1.51,2.518,3.525-1.209,6.546c-1.812,1.51-2.719,2.417-1.913,1.913c0.806-0.403,1.209-0.302,0.806,0.302
	c-0.907,1.41-7.855,0.302-8.46-1.41c-0.302-0.805-0.1-1.812,0.605-2.215c0.604-0.403,0.906-2.216,0.705-4.23
	c-0.302-1.913-0.504-3.726-0.504-4.23c-0.1-0.402-0.503-0.704-1.007-0.704c-0.403,0-1.108,2.114-1.51,4.632
	c-0.705,5.64,1.41,10.776,4.23,9.768c1.61-0.604,1.61-0.503-0.102,1.108c-1.51,1.51-2.316,1.712-4.33,0.806
	c-1.51-0.705-2.417-0.806-2.417-0.202c0,0.605,0.604,1.008,1.41,1.008c1.41,0,2.618,3.323,3.122,8.257
	c0.201,1.612-0.1,2.82-0.604,2.82c-0.504,0-0.605,0.705-0.202,1.611c0.403,1.007,0.806,1.209,1.209,0.504
	c0.403-0.604,1.712-0.906,2.92-0.604c2.115,0.402,2.014,0.1-0.906-5.136c-1.712-3.021-2.92-5.74-2.618-6.043
	c1.41-1.41,8.157,4.23,7.049,5.942c-0.202,0.403,0.1,1.41,0.705,2.215c0.705,0.806,0.906,1.511,0.503,1.511
	c-0.302,0,0.302,1.209,1.41,2.618c1.712,2.115,1.914,3.022,0.907,4.13c-1.008,1.208-1.31,1.107-2.417-0.806
	c-1.31-2.518-4.935-3.726-4.029-1.31c0.504,1.209,0.202,1.209-1.61,0.303c-1.814-1.007-1.713-0.605,0.704,2.517
	c1.51,2.014,3.021,3.626,3.323,3.626s0.101-0.504-0.604-1.209c-1.611-1.611-1.51-2.82,0.202-2.82c0.704,0,2.215,1.108,3.222,2.518
	c2.518,3.424,4.935,4.23,2.82,1.007c-1.813-2.82-1.209-4.532,1.712-4.532c2.618,0,2.719,5.54,0,7.251
	c-1.007,0.604-1.712,1.712-1.41,2.518c0.302,0.705,1.007,1.007,1.611,0.604s0.705-0.1,0.302,0.604
	c-0.503,0.705-1.41,1.007-2.215,0.705c-0.806-0.302-1.41-0.1-1.41,0.504s0.806,0.906,1.813,0.705c0.906-0.101,2.316,0.1,2.92,0.503
	c0.906,0.604,1.108,0.302,0.604-0.906c-0.503-1.41-0.302-1.51,1.51-0.504c2.72,1.41,3.022,4.33,0.504,3.424
	c-1.107-0.403-0.906,0.202,0.705,1.41c1.813,1.611,3.021,1.913,4.23,1.209c1.007-0.504,1.813-1.209,1.813-1.511
	c0-0.201-0.907,0-2.014,0.604c-1.712,0.907-2.015,0.806-2.015-1.007c0-1.813,0.403-2.014,2.317-1.41
	c1.208,0.403,3.323,0.907,4.733,1.007c1.41,0.101,2.82,0.302,3.323,0.302c0.403,0.101,0,1.209-0.906,2.619
	c-1.612,2.517-1.209,4.531,0.906,4.531c0.806,0,0.705-0.302-0.201-0.906c-1.108-0.705-0.907-1.51,1.007-4.028
	c1.309-1.712,2.92-2.92,3.625-2.72c0.705,0.303,1.007-0.1,0.705-0.805c-0.705-1.712,4.23-4.934,6.546-4.129
	c1.007,0.302,2.82,1.612,4.028,2.82l2.115,2.417l-2.014,1.813c-1.108,1.007-2.014,2.316-2.014,2.82c0,0.604,0.805,0.1,1.812-1.008
	c0.907-1.107,2.72-2.517,4.029-3.222c1.208-0.604,2.215-1.813,2.215-2.518s1.007-2.115,2.216-3.222
	c1.208-1.007,1.812-1.41,1.51-0.806c-0.403,0.705,0,1.51,0.906,1.813c0.806,0.302,1.209,0.201,0.907-0.403
	c-0.302-0.604,0.302-2.417,1.51-4.028c1.914-2.619,2.417-2.92,3.827-1.813c1.31,1.108,1.51,1.007,0.906-0.504
	c-0.402-1.007-0.302-1.61,0.202-1.208c0.604,0.302,1.41-0.302,2.014-1.208c0.504-1.007,1.31-1.511,1.611-1.108
	c0.403,0.403,1.41,0,2.216-0.806c0.805-0.805,3.524-1.913,6.042-2.517c4.532-1.209,4.33-3.022-0.302-2.115
	c-1.913,0.302-2.417,0-2.417-1.712c0-1.209,0.705-2.417,1.611-2.82c1.209-0.403,1.31-0.705,0.302-1.41
	c-0.805-0.403-1.007-1.108-0.604-1.51c0.302-0.403,1.31-0.202,2.115,0.503c1.108,0.906,1.51,0.806,2.014-0.503
	c0.403-0.907,1.31-1.41,2.115-1.007c0.806,0.302,1.51,0,1.51-0.605c0-0.604,0.806-2.115,1.813-3.222
	c0.907-1.108-0.1-0.604-2.215,1.107c-4.23,3.424-6.143,3.424-5.036,0.101c0.403-1.41,0.202-1.812-0.503-1.41
	c-1.51,1.007-1.41-0.705,0.1-2.215c1.008-1.007,1.008-1.51,0-2.115c-2.316-1.41,2.72-14.602,5.137-13.595
	c1.007,0.403,1.208-0.302,0.906-2.618c-0.302-2.115,0-3.022,0.906-3.022c0.806,0,2.014-0.906,2.619-2.014
	c1.007-1.611,1.007-1.812-0.101-1.41c-0.705,0.303-1.51-0.302-1.813-1.309c-0.604-2.316,0.806-6.344,2.216-6.344
	c0.805,0,0.705,0.705,0,2.215c-1.108,2.216-1.007,2.216,0.403,0.403c1.712-2.115,2.114-4.632,0.906-4.632
	c-1.41,0.1-4.33,2.719-4.33,3.927c0,0.705-0.504,0.907-1.108,0.504c-0.806-0.403-0.907,0.302-0.504,2.215
	c0.302,1.612,0.202,3.626-0.403,4.431c-0.704,1.108-1.007,0.504-1.007-2.517c-0.1-3.424-0.201-3.726-1.107-2.115
	c-0.605,1.007-0.907,3.323-0.605,5.237c0.705,4.028-2.719,8.962-6.243,9.164c-1.813,0.201-2.014-0.302-1.712-3.324
	c0.403-3.222,4.834-10.473,6.848-11.279c0.402-0.201,0.805-0.805,0.805-1.41c0-1.711,5.438-8.861,6.748-8.861
	c1.007,0,1.007-0.605,0.1-2.518c-0.604-1.41-1.51-2.518-2.014-2.518c-0.503,0-0.604-0.503-0.201-1.208
	c0.403-0.705,0.302-0.806-0.504-0.403c-0.906,0.604-0.906,1.108,0,2.216c1.51,1.913,0.403,1.812-2.618-0.202
	c-2.72-1.813-3.424-4.028-1.108-3.122c1.108,0.403,1.31,0.101,0.906-1.108c-0.604-1.51-0.503-1.51,1.008-0.302
	c0.906,0.705,1.712,0.907,1.712,0.302c0-0.503-0.605-1.51-1.41-2.114c-1.108-0.907-1.51-0.907-1.914,0.1
	c-0.604,1.712-3.827-2.215-3.222-3.927c0.201-0.705-0.101-1.209-0.705-1.007c-0.604,0.1-2.72-1.914-4.633-4.431
	c-2.719-3.626-3.826-4.431-4.733-3.525c-1.007,0.806-0.805,1.41,0.604,2.417c2.72,1.913,2.417,2.72-1.107,2.92
	c-1.712,0.101-3.021-0.2-3.021-0.704c0-0.605,0.402-1.007,1.007-1.007c1.712,0-0.101-2.82-2.115-3.324
	c-1.108-0.302-1.914-1.41-1.914-2.618c0-1.209-0.302-2.014-0.705-1.913c-0.503,0.1-1.913-0.403-3.222-1.108
	c-1.41-0.806-2.115-0.907-1.712-0.202c0.403,0.605,0.403,1.108-0.1,1.108c-0.404,0-0.806,1.108-0.806,2.417
	c0,1.913,0.302,2.115,1.712,1.209c1.309-0.705,1.41-1.41,0.604-2.317c-0.705-0.906-0.705-1.309,0-1.309
	c1.712,0,2.417,1.813,1.309,3.827c-1.007,1.813-0.604,2.014,4.632,2.417c3.223,0.302-0.201,1.309-5.236,1.611
	c-4.029,0.202-5.54,0-5.036-0.806c0.907-1.41-2.92-5.135-7.452-7.351C-198.349,365.595-199.557,365.494-197.443,367.206
	L-197.443,367.206z M-188.379,374.054c0,0.504-0.806,1.31-1.712,1.813c-1.51,0.705-1.813,0.503-1.914-1.209
	c0-1.208-0.402-3.02-0.906-4.129c-0.705-1.61-0.403-1.51,1.813,0.504C-189.588,372.241-188.379,373.651-188.379,374.054z
	 M-198.852,375.364c1.812,1.913,1.812,5.639,0,5.639c-0.806,0-1.612-1.007-1.813-2.316c-0.202-1.511-0.906-2.115-2.316-1.914
	c-2.014,0.302-2.014,0.202-0.101-1.309C-200.665,373.651-200.665,373.651-198.852,375.364z M-175.791,378.586
	c1.208,1.309,1.913,1.41,2.82,0.503c1.309-1.309,2.719-1.41,2.719-0.201c0,0.504-1.209,1.208-2.619,1.51
	c-3.424,0.907-2.618,1.713,1.712,1.813c1.914,0.101,2.82,0.302,2.115,0.604c-1.611,0.504,2.417,5.237,4.431,5.237
	c1.712,0,2.72,1.712,1.914,3.122c-0.504,0.604-1.209,0.403-2.115-0.806c-1.31-1.712-1.31-1.712-1.41,0.504
	c0,1.913-0.403,2.215-2.216,1.813l-2.316-0.605l2.316,1.108c1.209,0.705,2.216,1.712,2.216,2.216c0,0.604-0.302,0.705-0.705,0.402
	c-0.302-0.402-1.31-0.1-2.115,0.504c-1.108,1.007-1.611,0.906-2.316-0.403c-0.504-0.906-2.014-1.913-3.424-2.215
	c-1.611-0.403-2.518-1.31-2.518-2.72c0-1.913,0.101-1.913,2.216-0.503c1.208,0.906,2.719,1.611,3.222,1.611
	c0.504,0-0.604-1.007-2.416-2.316c-4.431-2.92-5.136-4.934-1.511-4.532c1.611,0.202,3.021-0.201,3.223-1.007
	c0.302-0.805-0.605-1.208-2.72-1.208c-1.812,0-2.92-0.403-2.517-1.007c0.302-0.604-0.1-0.705-0.906-0.403
	c-1.108,0.403-1.914-0.201-2.518-1.712c-0.504-1.31-1.007-1.813-1.007-1.007c-0.1,0.906-0.705,1.108-1.813,0.604
	c-1.007-0.403-2.316-0.805-3.021-0.805s-1.007-0.403-0.705-0.907C-186.768,376.27-177.503,376.874-175.791,378.586z
	 M-202.78,379.492c0,0.806-0.604,1.51-1.41,1.51c-0.705,0-1.309,0.504-1.309,1.109c0,0.604,0.906,0.805,2.014,0.402
	c1.51-0.503,2.014-0.201,2.014,1.31c0,2.114-2.316,4.632-3.323,3.524c-0.403-0.302-1.51,0.504-2.618,1.813
	c-1.712,1.913-2.014,2.115-2.115,0.705c0-0.907,0.805-2.115,1.712-2.72c1.51-0.805,1.51-1.107,0.302-2.618
	c-1.209-1.41-1.209-1.812,0-2.517c1.208-0.705,1.108-1.007-0.302-1.611c-2.82-1.007-1.914-2.417,1.611-2.417
	C-203.888,377.982-202.78,378.485-202.78,379.492z M-189.386,378.989c0,0.503-0.806,1.007-1.712,1.107
	c-1.108,0-1.31,0.303-0.504,0.605c0.605,0.201,1.209,2.014,1.209,3.927c0,2.72-0.504,3.726-2.216,4.431l-2.316,0.907h2.316
	c3.626,0.1,2.316,3.323-1.712,4.33c-1.812,0.503-3.122,1.208-2.82,1.51c0.806,0.705-1.812,3.324-3.222,3.324
	c-0.604,0-1.108-0.705-1.108-1.51c0-0.807,0.604-1.21,1.31-1.008c0.906,0.403,1.107-0.806,0.704-4.733
	c-0.201-3.323-0.503-4.33-0.805-2.618c-0.403,3.222-1.712,3.625-2.72,1.107c-0.402-1.208,0.101-2.417,1.511-3.524
	c1.31-1.108,2.014-2.417,1.612-3.424c-0.403-1.108,0-1.41,1.61-1.209c1.31,0.202,2.317-0.201,2.317-0.705
	c0.1-2.114,1.712-3.524,4.129-3.524C-190.493,377.982-189.386,378.384-189.386,378.989z M-162.296,383.621
	c1.208,1.914,1.913,4.028,1.61,4.532c-0.906,1.41-5.337-2.014-7.049-5.338c-3.121-6.344,1.712-5.639,5.438,0.806H-162.296z
	 M-211.139,380.5c-0.403,0.806-1.41,1.51-2.317,1.51c-1.41-0.1-1.309-0.301,0.302-1.51
	C-210.636,378.587-210.434,378.587-211.139,380.5z M-185.158,381.709c-1.007,0.403-0.503,1.41,1.813,3.424
	c1.712,1.611,3.525,2.92,4.129,2.92c0.504,0,0.906,0.906,0.906,2.014c0,2.417-3.524,2.82-4.43,0.504
	c-0.706-2.014-3.223-1.914-4.029,0.1c-0.403,0.907-0.906,1.41-1.309,1.008c-0.302-0.303,0.201-1.612,1.31-2.72
	c1.913-2.114,1.913-2.215-0.303-1.51c-1.913,0.604-2.316,0.302-2.316-1.31c0-3.323,0.906-4.732,3.323-4.833
	C-184.855,381.306-184.453,381.406-185.158,381.709z M-180.324,382.514c0.705,0.907,1.007,1.813,0.705,2.115
	c-1.007,1.108-3.726-0.503-3.726-2.115C-183.345,380.601-181.935,380.601-180.324,382.514z M-213.556,383.924
	c0,1.712-2.216,2.417-3.223,1.007c-0.705-1.107-0.806-0.906-0.403,0.504c0.403,1.208,0,2.417-1.41,3.323
	c-1.107,0.806-2.014,2.316-2.014,3.424c0,1.007-0.503,1.913-1.107,1.913c-0.504,0-0.806-0.402-0.403-0.906
	c0.302-0.503,0.1-1.208-0.403-1.51c-0.504-0.403-2.115,0.805-3.525,2.618c-2.719,3.525-3.424,3.222-1.41-0.504
	c1.209-2.215,1.41-2.82,1.612-6.143c0.201-1.208,0.705-1.611,1.812-1.208c0.907,0.302,2.72-0.302,4.13-1.41
	C-217.182,382.917-213.556,382.313-213.556,383.924z M-221.613,384.428c0,0.302-0.403,0.805-1.007,1.108
	c-0.503,0.302-1.007,0.1-1.007-0.403c0-0.605,0.504-1.108,1.007-1.108C-222.016,384.025-221.613,384.226-221.613,384.428z
	 M-208.521,385.536c0,0.906-0.604,1.208-1.712,0.805c-1.209-0.503-1.51-0.201-1.007,1.007c0.302,0.907,0.201,1.712-0.302,1.712
	c-0.504,0-1.813,1.007-3.021,2.216c-1.108,1.208-2.317,1.812-2.72,1.51c-0.302-0.403,0.303-1.712,1.511-3.02
	c1.209-1.31,2.216-2.82,2.216-3.425c0-0.604,0.604-1.41,1.309-1.611C-209.931,383.723-208.521,384.025-208.521,385.536z
	 M-218.391,391.276c-0.704,0.705-1.208,0.805-1.208,0.201c0-1.41,1.209-2.618,1.914-1.913
	C-217.484,389.866-217.786,390.671-218.391,391.276L-218.391,391.276z M-211.039,390.974c0.302,0.503,0.101,1.208-0.503,1.61
	c-0.504,0.303-1.007-0.1-1.007-0.905C-212.549,389.866-211.945,389.564-211.039,390.974z M-204.09,390.974
	c0.302,0.503-0.1,1.41-0.806,2.014c-1.611,1.309-3.222-0.202-2.115-1.914c0.806-1.208,2.216-1.309,2.92-0.1H-204.09z
	 M-154.241,393.693c0.705-0.504,0.906-0.101,0.503,0.805c-0.302,0.907-1.712,1.612-3.121,1.612c-2.015,0-2.417,0.402-2.015,1.913
	c0.403,1.712,0,2.014-2.92,1.712c-4.33-0.302-4.733-0.806-3.323-3.928c1.208-2.719,3.524-2.719,2.517,0
	c-0.402,0.806-0.1,1.108,0.504,0.705c0.604-0.302,0.806-1.61,0.503-2.92c-0.805-3.223,0.303-3.726,3.424-1.31
	C-156.557,393.39-154.845,393.995-154.241,393.693L-154.241,393.693z M-182.741,392.585c1.31,3.222-4.934,6.546-7.452,3.927
	c-0.906-1.007-0.503-1.712,1.611-3.323C-185.359,390.772-183.446,390.571-182.741,392.585z M-177.303,394.095
	c-0.002,0.555-0.452,1.005-1.007,1.007c-0.503,0-1.007-0.503-1.007-1.007c0.002-0.555,0.452-1.005,1.007-1.007
	C-177.705,393.088-177.303,393.491-177.303,394.095z M-202.78,397.317c-0.302,0.806-0.604,0.504-0.604-0.604
	c-0.1-1.108,0.201-1.712,0.503-1.31C-202.579,395.706-202.478,396.613-202.78,397.317z M-226.043,400.842
	c-0.403,0.906-1.007,1.309-1.41,0.906c-1.007-1.108-0.906-3.021,0.302-3.827c1.31-0.906,1.914,0.705,1.108,2.92V400.842z
	 M-192.407,397.821c0,0.503-0.504,1.51-1.007,2.316c-0.806,1.208-1.007,1.107-1.007-0.806c0-1.208,0.503-2.215,1.007-2.215
	C-192.81,397.116-192.407,397.418-192.407,397.821z M-190.695,401.345c-0.302,0.705-0.504,0.202-0.504-1.208s0.202-1.914,0.504-1.31
	C-190.494,399.532-190.494,400.741-190.695,401.345z M-229.668,400.137c0,0.503-0.504,1.007-1.108,1.007
	c-0.503,0-0.705-0.504-0.403-1.007c0.302-0.605,0.806-1.007,1.108-1.007C-229.87,399.13-229.668,399.532-229.668,400.137z
	 M-158.973,401.043c0.403,0.1-0.302,1.712-1.51,3.625c-2.216,3.525-6.547,5.036-5.338,1.914c0.302-0.907,0.604-2.014,0.604-2.618
	c0-0.605,0.705-0.806,1.51-0.403c2.015,0.705,1.914-0.403-0.1-1.813C-165.317,400.64-164.109,400.438-158.973,401.043z
	 M-233.093,406.078c-0.905,1.209-1.208,1.108-1.409-0.302c-0.201-0.906-0.1-2.517,0.302-3.424c0.604-1.51,0.806-1.51,1.51,0.302
	C-232.286,403.863-232.387,405.273-233.093,406.078L-233.093,406.078z M-229.668,406.179c0,0.504-0.504,1.007-1.108,1.007
	c-0.503,0-0.705-0.503-0.403-1.007c0.302-0.604,0.806-1.007,1.108-1.007C-229.87,405.172-229.668,405.575-229.668,406.179z
	 M-226.848,412.523c2.215,0.101,2.719,1.209,2.316,5.439c-0.1,1.309,0.302,2.316,0.906,2.316c0.604,0,0.806-0.504,0.504-1.007
	c-0.302-0.605-0.101-1.007,0.402-1.007c1.41,0,1.41,1.712,0.101,2.517c-2.014,1.209-0.906,2.216,1.813,1.712
	c1.51-0.302,2.115-0.705,1.51-0.906c-1.41-0.504-1.812-3.525-0.604-4.633c0.302-0.402,1.209-0.201,2.014,0.504
	c1.108,0.806,1.209,0.705,0.705-0.604c-0.302-0.907-0.1-1.612,0.403-1.612c0.604,0,1.209,1.712,1.41,3.727
	c0.201,2.215,0.906,3.826,1.813,4.028c1.309,0.403,1.309,0.302,0-0.604c-1.209-0.806-1.209-1.108-0.101-1.108
	c1.108,0,1.108-0.302,0-1.712c-1.209-1.41-1.209-1.611,0.1-1.108c0.806,0.201,1.511,1.208,1.511,2.014s0.705,2.316,1.41,3.223
	c0.806,1.007,1.007,1.611,0.504,1.51c-2.619-0.503-4.23,0.302-4.935,2.316c-0.403,1.31-0.705,2.619-0.604,3.022
	c0.201,1.309-1.611,0.906-2.92-0.705c-1.008-1.31-0.907-1.51,1.006-1.51c1.914,0,2.115-0.202,0.907-1.612
	c-1.007-1.31-1.007-1.712,0.201-2.618c1.108-0.705,0.907-0.806-0.604-0.303c-1.108,0.403-3.021,1.007-4.23,1.209
	c-2.719,0.604-3.121,2.316-0.604,2.316c0.906,0,1.31,0.302,1.007,0.604c-0.302,0.403,0.504,1.51,1.813,2.619
	c1.41,1.107,2.316,2.417,2.014,2.92c-0.403,0.504,0.302,0.906,1.41,0.906c1.208,0,2.115,0.403,2.115,1.007
	c0,0.907-1.41,1.31-2.518,0.705c-0.201-0.1-1.108,0.705-1.913,1.813c-0.907,1.108-1.612,1.51-1.612,1.007
	c0-0.604-1.208-1.108-2.719-1.208c-1.51,0-2.92-0.605-3.122-1.209c-0.201-0.604-1.107-1.108-2.014-1.108
	c-1.61,0.101-1.61,0.202,0,1.31c1.209,0.906,1.41,1.712,0.705,3.02c-0.805,1.31-0.604,1.713,0.605,1.713
	c0.805,0,1.51,0.503,1.51,1.108c0,0.503,0.403,0.805,0.906,0.503c0.504-0.302,1.209,0.1,1.511,0.906
	c0.403,1.31,0.201,1.31-1.41,0.504c-2.417-1.31-3.323-1.31-2.517,0c0.302,0.503,0.2,1.007-0.403,1.007
	c-0.504,0-1.31-0.504-1.612-1.007c-0.402-0.604-1.007-0.806-1.41-0.504c-0.503,0.202-0.604-0.705-0.302-2.014
	c0.303-1.712,0-2.517-0.906-2.517c-1.108,0-1.108-0.202,0.1-1.007c1.31-0.806,1.21-1.007-0.2-1.007
	c-1.008,0-1.813-0.504-1.813-1.007c0-0.605,0.705-1.008,1.51-1.008c0.907,0,1.813-0.704,2.115-1.51
	c0.403-0.806,1.209-1.51,2.014-1.51c0.806,0,1.108-0.605,0.806-1.511c-0.302-0.806,0-1.712,0.805-2.014
	c1.511-0.605,1.712-3.827,0.403-6.748c-0.503-1.007-1.208-1.61-1.611-1.309c-1.208,0.705-3.726-3.726-3.525-6.344
	c0.101-1.209-0.201-2.216-0.705-2.216c-0.402,0-0.805-0.805-0.805-1.712c0-1.61,0.1-1.61,1.309,0.101
	C-229.668,411.516-228.158,412.423-226.848,412.523L-226.848,412.523z M-200.464,411.214c-0.805,0.605-1.107,1.007-0.705,1.007
	c0.504,0-0.1,1.31-1.208,2.92c-1.108,1.511-1.712,3.123-1.31,3.525c0.404,0.403-0.2,1.41-1.208,2.216
	c-1.107,0.806-1.41,1.41-0.705,1.41c0.705,0,0.907,0.503,0.605,1.007c-0.504,0.806-1.108,0.705-2.115-0.1
	c-1.007-0.806-1.209-1.511-0.403-2.317c1.611-1.611,1.208-3.021-0.504-1.611c-1.309,1.007-1.913,1.007-3.524-0.504
	c-2.115-1.913-2.72-4.532-1.108-4.532c0.504,0,1.208-0.805,1.41-1.812c0.302-1.108,0.705-0.604,1.208,1.611
	c0.504,2.316,1.007,2.92,1.612,2.115c0.402-0.705,0.503-1.813,0.201-2.417c-0.403-0.504-0.302-0.705,0.201-0.302
	c0.403,0.403,1.511,0.201,2.317-0.504c1.309-1.007,1.41-0.906,0.805,0.202c-0.604,0.906-0.403,1.208,0.504,0.906
	c0.805-0.302,1.41-1.007,1.41-1.712c0-1.31,2.719-3.323,3.424-2.518C-199.255,410.107-199.658,410.711-200.464,411.214z
	 M-167.23,413.43c-1.108,1.208-1.813,2.82-1.51,3.625c0.301,0.806,0,1.007-0.605,0.604c-0.604-0.402-1.51,0-2.014,0.705
	c-0.705,1.209-0.906,1.108-0.906-0.1c0.1-1.612,3.02-6.043,3.02-4.431c0.102,0.503,0.806-0.504,1.713-2.115
	c0.906-1.712,1.812-2.518,2.014-1.813C-165.216,410.61-166.022,412.121-167.23,413.43z M-219.8,415.444
	c-0.504,1.51-2.316,1.108-2.618-0.604c-0.202-1.108,0.201-1.41,1.309-1.007c0.906,0.402,1.41,1.107,1.309,1.61V415.444z
	 M-182.237,420.076c0.201,2.92-0.302,4.733-1.41,5.438c-1.41,0.907-4.935-3.222-4.23-5.035c0.202-0.604-0.1-1.208-0.805-1.208
	c-0.705,0-0.403-0.705,0.705-1.51C-185.762,416.048-182.439,417.357-182.237,420.076z M-173.274,420.479
	c0,1.41-4.029,0.906-4.633-0.705c-0.503-1.208-1.007-1.309-2.014-0.403c-1.108,0.907-1.41,0.806-1.41-0.503
	c0-1.007,0.403-1.51,0.806-1.209c0.403,0.202,1.41,0.101,2.215-0.402C-176.8,416.35-173.274,418.667-173.274,420.479z
	 M-178.31,421.285c0,0.503-0.503,1.007-1.107,1.007c-0.504,0-0.705-0.504-0.403-1.007c0.302-0.604,0.805-1.007,1.108-1.007
	C-178.511,420.278-178.31,420.681-178.31,421.285z M-175.288,423.299c0,0.503-0.705,1.007-1.511,1.007
	c-1.31,0-1.41,0.403-0.403,2.115c0.705,1.41,0.705,1.913,0,1.51c-0.604-0.403-2.014,0.504-3.323,1.914
	c-2.518,2.82-3.827,3.222-3.827,1.007c0-0.806,0.504-1.51,1.007-1.51c0.604,0,1.007-0.605,1.007-1.41c0-1.511,4.532-5.64,6.143-5.64
	C-175.691,422.292-175.288,422.695-175.288,423.299z M-169.246,425.414c0,2.618-3.122,6.445-4.33,5.236
	c-0.403-0.302,0.1-1.51,1.007-2.618c1.712-1.913,1.712-1.913-0.403-1.31c-1.612,0.504-2.316,0.303-2.316-0.603
	c0-2.014,1.711-3.424,4.028-3.424C-169.75,422.695-169.246,423.4-169.246,425.414z M-167.534,424.507
	c-0.302,0.806-0.604,0.504-0.604-0.604c-0.101-1.108,0.201-1.712,0.503-1.31c0.302,0.303,0.403,1.21,0.1,1.914H-167.534z
	 M-237.726,425.313c0,0.503-0.503,1.007-1.107,1.007c-0.504,0-0.705-0.504-0.403-1.007c0.302-0.604,0.806-1.007,1.108-1.007
	C-237.927,424.306-237.726,424.709-237.726,425.313z M-162.196,426.32c-0.102,0.705-2.62,4.028-3.123,4.028
	c-0.201,0-0.503-1.108-0.503-2.417c-0.1-1.812,0.302-2.417,1.712-2.316C-163.103,425.715-162.197,426.018-162.196,426.32
	L-162.196,426.32z M-165.923,434.074c0.504,2.72,0.1,3.827-2.215,6.445l-2.82,3.122l-0.705-2.719
	c-0.604-2.316-1.007-2.618-3.525-2.014c-2.014,0.403-3.424,0.1-4.532-1.007c-0.906-0.906-1.61-1.31-1.61-0.806
	c0,0.403-0.404,0.303-0.806-0.302c-0.403-0.604-1.612-1.611-2.72-2.215c-1.711-1.007-1.711-1.108-0.302-1.209
	c0.907,0,2.015,0.504,2.417,1.108c0.504,0.806,0.907,0.806,1.41-0.1c1.007-1.612,3.323-0.202,2.619,1.61
	c-1.008,2.619,1.208,2.418,3.424-0.301c2.014-2.619,2.114-2.72,1.711-0.504c-0.503,1.913-0.302,2.115,0.907,1.108
	c0.805-0.604,1.41-0.705,1.41-0.202c0,0.504,1.208,0.907,2.82,1.007c1.51,0,1.913-0.1,1.007-0.402
	c-2.317-0.605-3.424-4.935-1.712-6.949C-167.635,427.931-166.829,428.938-165.923,434.074L-165.923,434.074z M-210.535,430.348
	c0,0.504-0.202,1.007-0.403,1.007c-0.302,0-0.806-0.503-1.108-1.007c-0.302-0.604-0.1-1.007,0.403-1.007
	C-211.039,429.341-210.535,429.744-210.535,430.348z M-174.584,430.952c0.202,0.504-0.402,1.914-1.309,2.92
	c-1.309,1.713-1.51,1.713-1.007,0.202c0.302-1.107,0-1.712-1.007-1.712c-1.208,0-1.309-0.302-0.201-1.51
	C-176.698,429.342-175.088,429.342-174.584,430.952z M-206.507,433.772c0,0.302-0.403,0.806-1.007,1.108
	c-0.504,0.302-1.007,0.1-1.007-0.403c0-0.604,0.503-1.108,1.007-1.108C-206.91,433.369-206.507,433.571-206.507,433.772z
	 M-202.479,434.88c-0.705,0.806-2.014,1.51-2.92,1.51c-1.31-0.1-1.31-0.302,0.302-1.51
	C-202.479,432.967-200.867,432.967-202.479,434.88z M-222.217,439.31c0.302,0.504,0,1.109-0.806,1.41
	c-1.51,0.605-2.618-0.1-2.618-1.51C-225.641,438.102-222.921,438.203-222.217,439.31z M-176.597,441.023
	c-0.303,0.302-1.21,0.403-1.914,0.1c-0.806-0.301-0.504-0.604,0.604-0.604C-176.799,440.419-176.195,440.721-176.597,441.023z
	 M-174.08,443.641c-0.705,0.705-1.208,0.806-1.208,0.202c0-1.41,1.208-2.619,1.913-1.914
	C-173.174,442.231-173.475,443.037-174.08,443.641z M-163.909,443.138c0.403,0.302,0.302,1.107-0.201,1.712
	c-0.504,0.604-1.108,2.215-1.31,3.625c-0.2,1.813-1.006,2.618-2.82,2.82l-2.517,0.403l2.316-2.115
	c1.31-1.108,2.115-2.518,1.712-3.122C-168.139,444.245-165.722,441.325-163.909,443.138z M-235.309,447.468
	c-0.604,0.504-2.417-2.115-2.417-3.424c0-0.604,0.605-0.1,1.41,1.007C-235.51,446.058-235.107,447.166-235.309,447.468z
	 M-221.613,447.669c0,0.907,0.403,0.806,1.108-0.201c0.906-1.31,1.007-1.31,0.604,0c-0.503,1.813-3.927,2.014-4.43,0.201
	c-0.303-0.604,0.2-1.208,1.107-1.208C-222.318,446.461-221.613,447.065-221.613,447.669z M-170.455,448.475
	c-0.705,1.007-1.41,1.813-1.51,1.611c-0.604-0.604,0.906-3.625,1.812-3.625C-169.649,446.461-169.75,447.367-170.455,448.475z
	 M-225.64,449.583c0,0.604-0.403,0.705-1.007,0.403c-0.504-0.302-1.007-1.108-1.007-1.612c0-0.604,0.503-0.705,1.007-0.402
	c0.604,0.302,1.007,1.107,1.007,1.61V449.583z M-215.066,450.388c-1.41,1.41-1.712,1.41-2.518,0.101
	c-1.208-2.014-0.402-2.92,2.115-2.316C-213.555,448.677-213.555,448.878-215.066,450.388z M-175.892,448.878
	c-0.705,1.813-5.438,5.035-5.438,3.726c0-0.705,4.733-4.935,5.74-5.136C-175.489,447.468-175.59,448.072-175.892,448.878z
	 M-208.52,450.489c0,0.504-0.705,1.007-1.51,1.007c-0.806,0-1.511,0.504-1.511,1.108c0,0.705,1.007,0.906,2.517,0.504
	c2.518-0.705,3.525,0.805,1.31,1.812c-0.705,0.302-0.403,0.403,0.704,0.1c3.122-0.704,5.036,0.807,3.022,2.519
	c-0.907,0.805-1.511,0.805-1.511,0.201s-1.51-1.41-3.323-1.712c-2.115-0.403-3.626-1.51-4.431-3.223
	c-1.007-2.014-1.007-2.417,0.201-1.913c0.806,0.302,1.712,0.1,2.014-0.403C-210.232,449.18-208.52,449.18-208.52,450.489z
	 M-173.576,452.1c-0.302,0.303-1.208,0.403-1.913,0.101c-0.806-0.302-0.503-0.604,0.604-0.604
	C-173.777,451.497-173.173,451.798-173.576,452.1L-173.576,452.1z M-220.1,455.424c0.302,0.503,0.1,1.208-0.504,1.611
	c-0.503,0.302-1.007-0.1-1.007-0.906C-221.611,454.316-221.007,454.014-220.1,455.424L-220.1,455.424z M-213.554,457.236
	c1.913,0.101,5.236,1.108,7.351,2.317c3.223,1.913,4.23,2.114,6.345,1.208c1.51-0.705,2.416-0.806,2.416-0.201
	c0,0.604-0.705,1.007-1.61,1.007c-0.806,0-1.31,0.403-1.008,0.906c0.302,0.504-0.1,1.108-0.906,1.51c-0.806,0.303-1.51,0-1.51-0.704
	c0-0.806-0.303-0.806-0.907,0.201c-0.504,0.806-1.41,1.007-2.115,0.604c-0.906-0.503-1.108-0.402-0.604,0.302
	c0.403,0.705,0.1,1.209-0.604,1.209c-1.007,0-1.007,0.201,0.1,0.906c0.907,0.605,1.007,1.108,0.202,1.51
	c-0.605,0.404-1.108,0.202-1.108-0.301c0-0.604-1.712-1.108-3.827-1.108s-4.33-0.504-5.035-1.208
	c-0.705-0.705-1.209-0.806-1.209-0.303c0,0.403-0.906,0-2.014-1.007c-2.316-2.114-2.92-5.538-0.604-3.625
	c1.108,0.906,1.41,0.906,1.31-0.1c-0.101-3.324,0.402-5.237,1.107-4.23C-217.381,456.733-215.468,457.236-213.554,457.236z
	 M-188.882,459.553c-0.302,0.503-0.1,1.007,0.504,1.007c0.604,0,0.806,0.503,0.503,1.007c-0.402,0.604-1.007,0.805-1.51,0.503
	c-0.403-0.302-1.108,0.202-1.41,1.007c-0.504,1.31-1.007,1.41-2.72,0.504c-2.013-1.108-2.013-1.209-0.2-3.021
	C-191.802,458.646-187.774,457.74-188.882,459.553z M-184.35,463.581c-1.813,2.618-4.028,4.028-4.028,2.517
	c0-0.604,5.035-5.538,5.64-5.538c0.301,0-0.403,1.309-1.612,3.02V463.581z M-192.407,365.796c2.517,0.403,3.625,1.209,4.129,3.122
	c0.604,2.115,0.705,2.216,0.805,0.403c0.1-2.92-1.812-4.431-5.337-4.33l-3.122,0.201
	C-195.932,365.192-192.407,365.796-192.407,365.796z M-186.869,365.897c0.303,0.504,0.806,1.007,1.108,1.007
	c0.202,0,0.403-0.503,0.403-1.007c0-0.604-0.504-1.007-1.108-1.007C-186.969,364.89-187.171,365.293-186.869,365.897z
	 M-203.485,366.3c0,0.201,0.906,0.604,2.014,0.906s2.014,0.1,2.014-0.403c0-0.503-0.906-0.906-2.014-0.906
	S-203.485,366.098-203.485,366.3z M-205.499,385.03c0,0.504,0.504,1.007,1.108,1.007c0.503,0,0.705-0.503,0.403-1.007
	c-0.303-0.604-0.806-1.007-1.108-1.007C-205.298,384.023-205.499,384.426-205.499,385.03z M-188.883,395.1
	c-0.302,0.504-0.1,1.008,0.403,1.008c0.604,0,1.108-0.504,1.108-1.008c0-0.604-0.201-1.007-0.403-1.007
	C-188.077,394.093-188.581,394.496-188.883,395.1z M-227.05,416.954c-0.604,1.41-0.503,1.511,0.504,0.605
	c0.705-0.705,1.007-1.51,0.705-1.813C-226.143,415.444-226.748,415.947-227.05,416.954z M-222.92,432.463
	c0.704,0.705,1.51,1.007,1.812,0.705s-0.202-0.906-1.209-1.209C-223.727,431.355-223.827,431.456-222.92,432.463L-222.92,432.463z
	 M-215.066,458.646c-0.403,0.605-1.31,0.806-2.014,0.504c-0.906-0.302-1.108,0.201-0.806,1.51c0.907,3.122,2.014,3.122,3.626-0.1
	C-212.85,457.74-213.555,456.129-215.066,458.646z M-213.556,460.56c0,0.302,0.907,1.107,2.015,1.812
	c1.208,0.705,1.812,1.712,1.51,2.216c-0.302,0.604,0.202,1.007,1.108,1.007c1.41,0,1.51-0.302,0.604-1.209
	c-1.712-1.712-1.51-2.82,0.504-2.82c0.906,0,1.309-0.301,0.906-0.805c-0.906-0.806-6.646-1.007-6.646-0.201H-213.556z
	 M-206.204,371.637c0.906,0.202,2.316,0.202,3.021,0c0.604-0.302-0.1-0.503-1.812-0.503
	C-206.607,371.134-207.211,371.335-206.204,371.637z M-149.104,409.099c0,0.504,0.503,1.31,1.007,1.612
	c0.604,0.302,1.007,0.201,1.007-0.403c0-0.504-0.403-1.31-1.007-1.611C-148.601,408.395-149.104,408.495-149.104,409.099z
	 M-165.217,414.839c0,1.41,0.302,1.41,1.51,0.403c0.806-0.704,1.511-1.41,1.511-1.61c0-0.202-0.705-0.404-1.51-0.404
	C-164.512,413.228-165.217,413.933-165.217,414.839L-165.217,414.839z M-245.68,420.682c1.208,2.014,2.316,3.625,2.517,3.625
	c0.705,0-2.517-5.841-3.625-6.546c-0.504-0.302-0.1,1.007,1.108,2.92V420.682z M-163.606,418.97c-0.604,1.41-0.503,1.51,0.504,0.604
	c0.705-0.705,1.007-1.51,0.705-1.813C-162.699,417.459-163.304,417.963-163.606,418.97z M-156.154,420.984
	c0.806,0.402,2.317,1.51,3.324,2.618c1.712,2.014,2.215,1.208,1.107-1.712c-0.402-0.906-1.712-1.611-3.323-1.51
	C-156.657,420.38-157.06,420.682-156.154,420.984z M-157.764,425.817c-0.404,1.41-0.404,2.92,0,3.223
	c0.301,0.403,0.603-0.1,0.603-0.906c0-0.907,0.705-1.914,1.612-2.216c0.805-0.302,1.208-1.007,0.906-1.611
	c-1.108-1.813-2.417-1.108-3.122,1.51L-157.764,425.817z M-234.502,428.839c0,1.61,0.201,2.215,0.504,1.208
	c0.2-0.906,0.2-2.316,0-3.021C-234.301,426.422-234.502,427.126-234.502,428.839z M-150.312,442.132
	c0.704,0.302,1.61,0.201,1.913-0.101c0.403-0.302-0.202-0.604-1.31-0.504C-150.816,441.527-151.119,441.83-150.312,442.132
	L-150.312,442.132z M-154.24,445.152c-1.31,1.612-1.209,1.713,0.403,0.404c1.61-1.31,2.114-2.115,1.309-2.115
	C-152.73,443.441-153.535,444.246-154.24,445.152L-154.24,445.152z M-165.217,457.137c0,0.604,0.705,1.913,1.611,3.02
	c1.41,1.814,1.41,1.814,0.302-0.603C-164.714,456.432-165.217,455.928-165.217,457.137z M-230.675,459.856
	c0,0.805,0.705,1.41,1.51,1.41c1.108,0,1.209-0.403,0.403-1.41c-0.604-0.705-1.309-1.31-1.51-1.31
	C-230.474,458.546-230.675,459.151-230.675,459.856z M-178.007,467.207c-0.604,1.41-0.704,2.619-0.2,3.021
	c0.503,0.302,0.905-0.201,0.905-1.107c0-1.108,0.504-1.511,1.511-1.108c1.813,0.705,2.014-0.806,0.201-2.216
	C-176.496,464.992-177.1,465.395-178.007,467.207z M-194.724,467.711c-0.906,0.503-2.114,0.805-2.517,0.503
	c-0.403-0.201-1.41,0-2.216,0.604c-1.208,0.806-1.208,0.907,0.302,0.403c0.907-0.302,1.712-0.302,1.712,0.101
	c0,0.302-0.805,1.208-1.712,2.014c-1.007,0.906-0.704,0.806,0.705-0.1c1.41-0.907,3.324-1.914,4.33-2.317
	c0.907-0.302,1.713-0.906,1.713-1.41C-192.407,466.402-192.508,466.402-194.724,467.711z M-229.668,468.617
	c0,0.504,0.503,1.007,1.108,1.007c0.503,0,0.705-0.503,0.402-1.007c-0.302-0.604-0.805-1.007-1.107-1.007
	C-229.467,467.61-229.668,468.013-229.668,468.617z"/>
</svg>
