<?xml version="1.0" encoding="iso-8859-1"?>
<!-- Generator: Adobe Illustrator 19.0.0, SVG Export Plug-In . SVG Version: 6.00 Build 0)  -->
<svg version="1.2" baseProfile="tiny" id="Layer_1" xmlns="http://www.w3.org/2000/svg" xmlns:xlink="http://www.w3.org/1999/xlink"
	 x="0px" y="0px" viewBox="-247 356.89 100 128" xml:space="preserve">
<title>face_00110</title>
<path d="M-245.543,358.364c-2.169,2.168-1.687,5.542,0.843,6.988c5.06,2.65,8.916-2.049,4.94-6.024
	C-242.53,356.557-243.495,356.316-245.543,358.364z M-154.459,358.966c-4.819,1.205-3.132,8.795,2.049,8.795
	c1.686,0,3.494-0.964,4.217-2.289c1.566-3.012,1.566-3.253-0.723-5.422C-150.844,358.123-150.965,358.002-154.459,358.966z
	 M-193.977,451.978c0,1.325,0.482,2.65,0.964,3.012c1.687,1.085,4.217-1.446,3.494-3.373
	C-190.603,448.846-193.977,449.207-193.977,451.978z M-208.434,453.183c0,1.807,0.722,2.53,2.53,2.53
	c1.686,0,2.289-0.602,2.048-2.048C-204.459,450.532-208.434,450.171-208.434,453.183z M-202.29,475.833
	c-3.855,2.651-3.012,8.073,1.205,8.555c3.494,0.361,7.47-3.253,6.506-5.904c-1.325-3.494-4.94-4.699-7.71-2.65L-202.29,475.833z"/>
</svg>
