<?xml version="1.0" encoding="iso-8859-1"?>
<!-- Generator: Adobe Illustrator 19.0.0, SVG Export Plug-In . SVG Version: 6.00 Build 0)  -->
<svg version="1.2" baseProfile="tiny" id="Layer_1" xmlns="http://www.w3.org/2000/svg" xmlns:xlink="http://www.w3.org/1999/xlink"
	 x="0px" y="0px" viewBox="-247 362.89 100 116" xml:space="preserve">
<title>face_00008</title>
<path d="M-206.897,363.524c-0.082,0.574-0.247,1.395-0.329,1.805c-0.164,1.394-1.394,2.133-3.61,2.133
	c-1.476,0-2.296,0.492-2.624,1.64c-0.246,0.985-1.23,1.723-2.461,1.887c-1.149,0.164-2.461,0.82-3.036,1.477
	c-0.492,0.656-1.722,1.312-2.707,1.394c-0.984,0.082-2.133,0.739-2.543,1.559s-1.312,1.477-1.887,1.477
	c-1.476,0-4.265,3.363-4.922,5.906c-0.328,1.64-1.066,2.215-2.789,2.461c-2.05,0.246-2.215,0.492-2.46,4.676
	c-0.247,3.528-0.575,4.43-1.888,4.758c-0.82,0.246-1.558,0.984-1.558,1.64c0,0.657,0.41,0.903,1.066,0.575
	c0.492-0.328-0.082,0.574-1.312,1.887c-1.887,2.05-2.461,3.527-2.79,7.629c-0.41,4.102-0.82,5.25-2.379,6.317
	c-2.46,1.558-2.46,2.707-0.082,5.168c0.985,1.066,2.215,2.707,2.626,3.691c0.492,0.903,1.722,1.723,2.707,1.887
	c1.722,0.246,2.297,1.887,1.969,5.907c-0.083,0.656,0.082,1.804,0.41,2.46c0.328,0.903,0.656,0.657,1.066-0.82
	c0.574-1.969,0.656-1.969,1.23-0.41c0.41,0.903,1.067,1.887,1.477,2.133c0.41,0.328,0.903,3.117,1.067,6.153
	c0.328,6.562,1.722,14.52,1.887,10.746c0.082-1.476,0.492-2.215,1.148-1.969c0.492,0.164,0.902,0.985,0.738,1.805
	s0.164,1.723,0.657,2.05c0.574,0.33,0.984,3.118,0.984,7.056c0,3.61,0.41,6.727,0.902,7.055c0.575,0.328,0.493,0.984-0.246,1.805
	c-1.23,1.558-1.148,1.722,1.887,2.46c2.05,0.493,2.38,0.247,3.856-3.199c2.05-4.84,2.215-10.254,0.41-21.329
	c-1.477-9.023-2.133-10.5-4.266-9.68c-0.574,0.246-1.066,0-1.066-0.492s0.41-0.902,0.82-0.902c0.492,0,0.82-0.493,0.82-1.149
	s-1.23-1.394-2.87-1.64c-2.134-0.41-2.954-1.067-3.364-2.544c-0.246-1.066-0.985-2.132-1.641-2.379
	c-0.574-0.246-0.902-0.984-0.656-1.64c0.246-0.657,0.164-1.723-0.164-2.215c-0.328-0.574-0.657-6.891-0.657-14.028
	c-0.082-11.485,0.082-13.208,1.395-14.356c1.23-1.23,1.395-1.23,1.395,0c0,0.82,0.41,1.395,0.902,1.395
	c0.492,0,0.738-0.739,0.492-1.641c-0.328-1.313,0.164-1.969,2.133-2.871c2.543-1.067,2.543-1.067,0.492-1.149
	c-1.148-0.082-2.297-0.328-2.625-0.574c-0.984-0.985,0.492-2.79,2.38-2.79c1.394,0,2.214-0.656,2.788-2.05
	c0.41-1.149,1.723-2.38,2.79-2.871c1.066-0.41,2.46-1.477,3.117-2.38c0.82-1.148,2.46-1.722,6.07-2.132
	c3.938-0.492,5.086-0.903,5.743-2.38c0.41-0.984,1.394-1.64,2.133-1.476c0.82,0.082,2.543-0.328,3.773-0.984
	c1.313-0.657,2.625-1.067,2.871-0.739c0.329,0.247,1.641,0.575,3.036,0.739c3.117,0.41,4.266,0.984,3.691,2.05
	c-0.328,0.41-0.082,1.395,0.328,2.133c0.739,1.313,0.82,1.149,0.903-0.82c0-2.379,1.148-2.953,1.969-0.984
	c0.246,0.656,0,1.23-0.575,1.312c-0.574,0-0.164,0.328,0.903,0.739c0.984,0.41,1.805,1.148,1.805,1.64s0.574,0.492,1.64-0.164
	c0.985-0.656,1.23-1.23,0.656-1.558c-1.23-0.739-0.082-2.38,1.313-1.887c1.723,0.656,2.133,3.281,0.738,5.168
	c-1.23,1.805-1.066,1.887,2.051,1.723c0.328-0.082,0.492-0.82,0.328-1.641c-0.246-1.313,0.164-1.559,1.723-1.477
	c1.477,0.164,1.969,0.657,2.05,2.461c0.087,1.205,0.197,2.409,0.329,3.61c0.082,0.82,1.149,1.805,2.461,2.297
	c2.461,0.902,2.625,1.394,2.461,9.106c-0.164,16.735-0.41,21.82-0.984,22.149c-0.328,0.164-0.41,1.23-0.246,2.379
	c0.246,1.066,0,2.215-0.575,2.543c-0.656,0.41-0.656,0.902,0.164,1.805c1.56,1.887,1.067,15.094-0.574,16.325
	c-1.64,1.23-1.558,2.789,0.082,2.789c0.656,0,0.985,0.328,0.739,0.82c-0.247,0.41-1.395,0.82-2.544,0.82
	c-1.312,0-1.968,0.493-2.05,1.395c-1.56,23.626-1.313,35.193,0.574,30.189c0.41-0.903,0.738-1.067,1.148-0.41
	c1.23,1.968,4.02-0.903,4.43-4.676c0.164-1.723,1.23-2.133,2.625-1.067c1.97,1.64,2.707-0.246,2.871-6.973
	c0.247-10.664,0.575-14.766,1.641-20.344c1.149-6.235,2.38-7.958,2.38-3.364c0,6.153,1.558,1.477,2.05-6.234
	c0.328-4.266,0.902-7.958,1.313-8.04c0.41-0.164,0.738-1.312,0.738-2.543c0-1.23,0.738-2.953,1.64-3.773
	c0.903-0.82,1.887-2.79,2.133-4.43c0.329-1.64,1.149-3.61,1.805-4.43c0.903-0.984,0.985-1.723,0.41-2.297
	c-0.656-0.656-1.066-0.656-1.394,0c-0.328,0.492-0.903,0.902-1.395,0.902c-0.984,0-0.984-3.035,0.082-3.691
	c0.492-0.328,0.657-0.903,0.41-1.313c-0.328-0.41-0.082-1.394,0.329-2.133c0.984-1.64,1.23-0.738,0.902,3.036
	c-0.082,1.148,0.082,1.804,0.492,1.476c0.328-0.328,1.067-0.246,1.64,0.246c1.477,1.23,2.216-0.574,1.806-4.347
	c-0.246-2.297-0.575-2.708-2.543-2.954c-2.051-0.246-2.297-0.574-1.887-2.215c0.574-2.133-2.133-6.152-4.102-6.152
	c-0.656,0-1.559-0.903-1.969-2.051c-0.41-1.149-1.64-2.38-2.707-2.79c-1.312-0.491-2.297-1.968-3.2-4.675
	c-1.312-4.102-2.05-4.84-5.742-5.579c-1.886-0.41-2.297-1.066-2.87-4.758c-0.657-4.265-0.657-4.347-3.774-4.593
	c-1.723-0.165-3.692,0.164-4.348,0.738c-0.82,0.656-1.477,0.656-2.215,0c-0.574-0.492-2.297-0.738-3.774-0.492
	c-1.805,0.164-2.789-0.082-3.117-0.903c-0.328-0.902-1.149-1.066-2.871-0.738c-1.313,0.328-2.297,0.246-2.215-0.164
	c0.328-1.723-0.164-2.707-1.313-2.707c-0.902,0-1.23,0.656-1.066,2.215c0.246,2.05,0,2.297-1.97,2.133
	c-1.558-0.082-2.542,0.328-3.116,1.394c-0.575,1.067-1.723,1.64-3.282,1.64c-1.312,0-2.625,0.329-2.871,0.821
	c-0.984,1.559-3.692,0.903-3.692-0.902c0-1.477,0.41-1.723,2.462-1.395c1.476,0.246,2.87-0.082,3.363-0.738
	c0.492-0.574,1.23-0.902,1.559-0.656c0.41,0.246,0.984,0,1.23-0.493c0.328-0.492-0.164-1.066-1.066-1.312
	c-0.985-0.246-1.887-0.985-2.051-1.805C-206.569,363.114-206.815,362.95-206.897,363.524L-206.897,363.524z M-176.873,371.481
	c0,1.23-0.41,1.723-0.82,1.313c-0.41-0.41-0.492-1.313-0.246-1.97C-177.201,368.938-176.709,369.266-176.873,371.481z
	 M-215.1,374.845c0,0.656-0.328,1.23-0.82,1.23c-0.41,0-0.574-0.574-0.328-1.23c0.328-0.657,0.656-1.23,0.82-1.23
	C-215.264,373.615-215.1,374.188-215.1,374.845z M-185.567,374.435c0,0.41-0.165,0.82-0.329,0.82c-0.246,0-0.656-0.41-0.902-0.82
	c-0.246-0.493-0.082-0.82,0.328-0.82C-185.978,373.615-185.567,373.942-185.567,374.435z M-209.357,375.255
	c0,0.41-0.165,0.82-0.329,0.82c-0.246,0-0.656-0.41-0.902-0.82c-0.246-0.492-0.082-0.82,0.328-0.82
	C-209.768,374.435-209.357,374.763-209.357,375.255z M-220.842,378.536c0,0.41-0.41,0.82-0.903,0.82c-0.41,0-0.574-0.41-0.328-0.82
	c0.246-0.492,0.656-0.82,0.903-0.82C-221.006,377.716-220.842,378.044-220.842,378.536z M-165.879,379.028
	c0,0.657-0.41,0.985-0.82,0.739c-0.493-0.328-0.657-0.903-0.41-1.313C-166.371,377.306-165.879,377.552-165.879,379.028z
	 M-225.764,382.638c0.984,0.656,0.738,0.82-1.067,0.82c-1.312,0-2.133-0.328-1.805-0.82
	C-227.979,381.653-227.323,381.653-225.764,382.638z M-231.507,387.56c0,0.41-0.41,0.82-0.902,0.82c-0.41,0-0.574-0.41-0.328-0.82
	c0.246-0.492,0.656-0.82,0.902-0.82C-231.671,386.74-231.507,387.068-231.507,387.56z M-159.317,393.795
	c0,0.656-0.328,1.066-0.738,0.82s-0.902,0-1.148,0.574c-0.246,0.656,0.328,1.559,1.23,2.133c1.559,0.984,1.395,2.133-0.328,2.133
	c-0.492,0-1.066,0.492-1.23,0.984c-0.247,0.657,0.328,1.067,1.312,1.067c0.985,0,1.723,0.492,1.723,1.23
	c0,0.657-0.328,1.23-0.738,1.23c-0.41,0-1.313,0.247-1.97,0.493c-0.984,0.328-1.23-0.738-1.312-5.742
	c-0.082-5.743,0-6.235,1.559-6.235C-160.055,392.482-159.317,393.056-159.317,393.795z M-154.723,394.697
	c-0.574,0.574-2.132-0.574-2.132-1.559c0-0.492,0.492-0.492,1.23,0.164C-154.887,393.877-154.558,394.532-154.723,394.697z
	 M-166.7,394.123c0,0.41-0.164,0.82-0.328,0.82c-0.246,0-0.656-0.41-0.902-0.82c-0.246-0.492-0.082-0.82,0.328-0.82
	C-167.11,393.303-166.7,393.631-166.7,394.123z M-165.059,398.635c0,0.738-0.492,0.984-1.23,0.738c-0.657-0.328-1.23-0.82-1.23-1.23
	s0.573-0.739,1.23-0.739c0.656,0,1.23,0.574,1.23,1.23V398.635z M-237.496,404.13c-0.246,0.574-0.41,0.164-0.41-0.984
	c0-1.149,0.164-1.56,0.41-1.067c0.164,0.574,0.164,1.559,0,2.05V404.13z M-148.653,402.817c0,0.657-0.41,0.985-0.82,0.739
	c-0.493-0.328-0.657-0.903-0.41-1.313C-149.145,401.095-148.653,401.341-148.653,402.817z M-160.713,407.657
	c-0.245,0.657-0.737,1.23-1.148,1.23c-0.82,0-0.984-1.968-0.246-2.706C-161.204,405.278-160.137,406.427-160.713,407.657
	L-160.713,407.657z M-237.989,408.314c-0.82,0.738-0.902,0.656-0.41-0.493c0.246-0.82,0.739-1.23,0.985-0.984
	S-237.414,407.739-237.989,408.314z M-165.88,406.755c0,0.246-0.328,0.656-0.82,0.902c-0.41,0.247-0.82,0.082-0.82-0.328
	c0-0.492,0.41-0.902,0.82-0.902C-166.208,406.427-165.88,406.591-165.88,406.755z M-237.824,410.201
	c0.738,0.82-0.329,2.79-1.56,2.79c-0.655,0-1.148-0.493-1.148-1.067C-240.532,410.119-238.972,409.053-237.824,410.201z
	 M-166.701,412.171c0,0.41-0.328,0.82-0.82,0.82c-0.41,0-0.82-0.41-0.82-0.82c0-0.493,0.41-0.821,0.82-0.821
	C-167.029,411.35-166.701,411.678-166.701,412.171L-166.701,412.171z M-160.958,411.678c0,0.246-0.328,0.656-0.82,0.902
	c-0.41,0.247-0.82,0.083-0.82-0.328c0-0.492,0.41-0.902,0.82-0.902C-161.286,411.35-160.958,411.514-160.958,411.678z
	 M-243.813,415.452c0,0.41-0.574,0.82-1.313,0.82c-0.656,0-0.984-0.41-0.738-0.82c0.246-0.493,0.82-0.82,1.313-0.82
	C-244.141,414.632-243.813,414.959-243.813,415.452z M-237.25,415.862c0,0.738-0.82,1.64-1.805,1.969
	c-1.723,0.656-1.723,0.82-0.41,1.312c1.148,0.492,1.23,0.82,0.492,1.723c-1.23,1.559-2.05,0.82-2.707-2.297
	c-0.328-1.723-0.164-2.79,0.492-3.281C-239.465,414.221-237.25,414.549-237.25,415.862z M-159.071,416.764
	c-0.329,0.985-0.657,1.067-1.149,0.246c-0.738-1.23-0.164-2.625,0.903-1.968C-158.907,415.288-158.825,416.108-159.071,416.764z
	 M-166.454,416.026c0.328,0.246,0.164,1.066-0.41,1.64c-0.739,0.903-0.739,1.313,0.245,1.887c0.985,0.657,0.903,0.985-0.246,2.215
	c-1.394,1.313-1.476,1.23-1.476-2.46C-168.341,415.698-167.767,414.713-166.454,416.026z M-159.317,424.558
	c0,0.492-0.739,1.804-1.641,2.953c-1.313,1.64-1.64,1.805-1.64,0.738c0-1.887,1.476-4.594,2.46-4.594
	C-159.646,423.655-159.318,424.065-159.317,424.558L-159.317,424.558z M-167.275,425.624c0.328,0.82,0.082,1.066-0.656,0.738
	c-0.656-0.246-0.985-0.738-0.738-1.148C-168.095,424.229-167.767,424.311-167.275,425.624z M-227.406,439.324
	c0,1.969-1.887,1.722-2.297-0.328c-0.164-0.82,0.246-1.395,0.984-1.395C-227.899,437.601-227.406,438.339-227.406,439.324z
	 M-162.845,440.226c-0.246,0.656-0.492,0.41-0.492-0.492c-0.082-0.902,0.164-1.395,0.41-1.067
	C-162.681,438.914-162.599,439.652-162.845,440.226L-162.845,440.226z M-229.047,444.082c0,1.394-1.476,1.722-1.969,0.492
	c-0.246-0.738,0-1.23,0.739-1.23C-229.621,443.344-229.047,443.672-229.047,444.082z M-173.017,447.937
	c0.738,0.739-0.328,2.872-1.149,2.297c-0.41-0.246-0.738-0.984-0.738-1.64C-174.904,447.445-173.92,447.035-173.017,447.937z
	 M-165.06,448.265c0,0.41-0.328,0.82-0.82,0.82c-0.41,0-0.82-0.41-0.82-0.82c0-0.492,0.41-0.82,0.82-0.82
	C-165.388,447.445-165.06,447.773-165.06,448.265z M-173.263,453.105c0,0.493-0.328,1.067-0.82,1.313
	c-0.41,0.246-0.821-0.082-0.821-0.738c0-0.739,0.41-1.313,0.82-1.313c0.493,0,0.82,0.328,0.82,0.739L-173.263,453.105z
	 M-203.042,364.18c-0.328,0.657-0.164,1.395,0.328,1.723c0.903,0.492,3.2-1.066,3.2-2.215
	C-199.514,362.458-202.55,362.868-203.042,364.18z M-210.589,391.58c0.656,1.148-1.066,3.527-2.05,2.953
	c-0.903-0.574-5.005,0.984-4.84,1.805c0.081,0.41,0.081,1.23-0.083,1.886c-0.082,0.903-0.328,0.739-0.82-0.41
	c-0.657-1.558-0.739-1.558-0.739,0.246c-0.082,1.067,0.329,2.625,0.739,3.528c0.574,1.066,0.574,1.559,0,1.559
	c-0.41,0-0.82,0.328-0.82,0.82c0,0.41,0.574,0.82,1.23,0.82s1.23,0.739,1.23,1.64c0,1.067,0.575,1.642,1.641,1.642
	c1.067,0,1.64-0.575,1.64-1.641c0-2.051,1.56-2.133,2.134-0.246c0.246,0.82,0.656,2.05,0.902,2.707
	c0.328,0.984,0.574,0.902,1.559-0.41c0.984-1.23,1.23-3.528,0.984-9.434c-0.246-6.81-0.41-7.793-1.805-8.04
	C-210.671,390.759-210.999,391.005-210.589,391.58z M-190.491,391.99c-1.394,1.805-1.394,11.895,0.082,12.88
	c1.313,0.902,8.04,0.163,9.598-1.067c1.395-1.149,1.231-3.692-0.246-4.266c-0.656-0.246-1.23-1.148-1.23-1.969
	c0-0.902-0.574-2.05-1.23-2.625c-0.657-0.574-1.231-1.64-1.231-2.379c-0.082-1.148-0.164-1.148-1.067-0.082
	c-0.984,1.23-4.676,2.133-4.676,1.066c0-0.246,0.657-0.984,1.477-1.558c0.738-0.574,0.984-1.149,0.492-1.149
	S-189.916,391.334-190.491,391.99z M-199.268,398.635c-1.067,0.41-1.887,1.23-1.887,1.804c0,0.575-0.328,1.067-0.738,1.067
	s-0.739,3.035-0.82,6.645c-0.083,3.691-0.247,6.973-0.493,7.3c-0.246,0.329-0.164,2.38,0.082,4.43
	c0.492,3.528,0.738,3.774,2.953,3.774c1.313,0,2.543-0.492,2.708-1.066c0.574-1.805,1.066-22.232,0.492-23.544
	C-197.381,398.06-197.874,397.978-199.268,398.635z M-214.527,432.35c-1.066,1.066-0.656,9.188,0.493,9.598
	c0.574,0.246,5.988,0.492,11.895,0.492c8.285,0.082,10.828-0.082,10.992-0.902c0-0.575,0.082-1.641,0.164-2.297
	c0.082-0.82,1.313-1.395,3.774-1.723c2.05-0.246,3.363-0.574,3.035-0.574c-0.328-0.082-0.246-0.903,0.246-1.805
	c1.313-2.461-1.066-3.035-3.773-0.902l-2.215,1.722l-0.903-1.804c-0.902-1.805-1.476-1.887-12.059-2.133
	C-208.948,431.94-214.198,432.104-214.527,432.35z"/>
</svg>
