<?xml version="1.0" encoding="iso-8859-1"?>
<!-- Generator: Adobe Illustrator 19.0.0, SVG Export Plug-In . SVG Version: 6.00 Build 0)  -->
<svg version="1.2" baseProfile="tiny" id="Layer_1" xmlns="http://www.w3.org/2000/svg" xmlns:xlink="http://www.w3.org/1999/xlink"
	 x="0px" y="0px" viewBox="-247 350.89 100 141" xml:space="preserve">
<title>face_00030</title>
<path d="M-233.31,351.652c-2.68,0.564-6.77,2.962-9.168,5.218l-4.513,4.373v63.47c0,34.837,0.282,63.751,0.705,64.174
	c0.423,0.282,7.757,0.846,16.22,0.987l15.515,0.283l0.423-6.912c0.564-9.45,2.398-10.437,18.053-10.437h13.117l0.424,9.591
	l0.423,9.45h15.515c8.603-0.14,16.502-0.423,17.63-0.987c1.834-0.705,1.975-3.385,1.27-16.784c-0.424-8.886-0.424-36.39,0.14-61.213
	c1.129-51.763,0.988-52.75-8.885-57.123c-7.758-3.667-12.271-3.526-18.054,0.423c-7.757,5.219-8.322,7.757-8.18,32.722
	c0.423,38.646,0.423,38.787-3.527,38.787c-2.82,0-3.526-0.846-4.23-6.347c-0.847-5.077-1.552-6.347-3.809-6.347
	c-1.975,0-2.68,0.988-2.68,3.526c0,2.54,0.564,3.244,2.116,2.68c1.692-0.705,2.115,0.282,2.115,4.232
	c0,4.795,0.283,5.077,4.796,5.077c9.027,0,9.59-1.833,8.886-26.94c-0.423-12.27-0.423-22.566,0-22.99
	c0.423-0.423,2.538,0.142,4.795,1.27c2.116,1.128,6.206,2.116,8.886,2.116c4.795,0,13.54-3.95,13.54-6.065
	c0-0.564,0.705-0.988,1.552-0.988c1.269,0,1.41,6.912,0.564,26.376c-0.564,14.668-1.129,39.35-1.41,55.148
	c-0.283,15.797-0.706,29.055-1.27,29.478c-0.423,0.423-6.77,0.282-14.104-0.282l-13.4-0.988l-0.423-18.476l-0.423-18.618
	l-17.912-0.423l-18.054-0.423v14.668c0,8.18-0.423,16.643-0.846,19.041l-0.847,4.373l-12.13-0.565
	c-6.487-0.282-12.129-0.846-12.411-1.128c-0.282-0.141-0.846-24.4-1.41-53.738l-0.847-53.455l3.244,1.128
	c7.617,2.398,14.246,2.398,19.746,0c2.962-1.41,5.501-3.103,5.501-3.808c0-0.705,0.423-0.987,1.128-0.705
	c0.565,0.423,0.423,11.142-0.282,23.977c-1.551,28.35-1.128,30.607,5.501,30.607c4.513,0,4.937-0.282,4.937-4.232
	c0-2.397,0.705-4.231,1.41-4.231c0.846,0,1.41,4.231,1.41,9.732c0,10.155,0.847,12.13,4.796,10.578
	c1.692-0.564,2.257-2.68,2.116-7.475c-0.142-6.63-0.424-6.63-1.975,0.423c-1.27,6.065-2.68,3.103-2.257-4.795
	c0.423-9.027-0.987-15.515-3.385-15.515c-1.833,0-3.526,4.231-3.526,9.309c0,2.82-4.513,5.5-6.206,3.808
	c-0.423-0.423-0.282-15.233,0.141-32.863c0.846-38.364,0.846-38.505-13.681-42.595C-227.668,350.805-230.771,351.087-233.31,351.652
	z M-221.04,356.447c9.027,4.514,7.335,16.784-2.68,20.17l-4.23,1.55V366.18c0-12.694,0.423-13.258,6.91-9.732V356.447z
	 M-233.591,366.32c0,9.027-0.423,10.578-2.398,10.578c-3.526,0-8.886-5.641-8.886-9.59c0-3.386,6.911-11.566,9.732-11.566
	C-234.155,355.742-233.591,359.692-233.591,366.32z M-167.583,368.154c0.423,11.283,0.282,11.565-2.962,11.565
	c-3.808,0-9.45-4.654-9.45-7.898c0-2.539,3.809-10.296,6.77-13.681C-169.416,353.767-168.005,356.306-167.583,368.154z
	 M-153.478,362.371c2.397,2.68,3.103,4.654,2.397,7.334c-0.987,4.232-7.334,10.014-11.142,10.014c-2.116,0-2.398-0.705-1.693-4.372
	c0.423-2.398,0.847-7.616,0.847-11.425c0-6.488,0.14-6.91,3.244-6.064C-158.133,358.422-155.312,360.396-153.478,362.371z
	 M-183.1,455.46c-0.423,2.257-2.256,2.539-15.232,2.539s-14.81-0.282-15.233-2.54c-0.423-2.115,0.987-2.397,15.233-2.397
	C-184.087,453.062-182.676,453.344-183.1,455.46z M-183.1,466.038c0.424,2.257-0.987,2.539-14.386,2.539
	c-8.322,0-15.233-0.564-15.656-1.41c-2.116-3.386,1.41-4.373,15.233-3.95c12.412,0.423,14.386,0.705,14.81,2.821H-183.1z"/>
</svg>
