<?xml version="1.0" encoding="iso-8859-1"?>
<!-- Generator: Adobe Illustrator 19.0.0, SVG Export Plug-In . SVG Version: 6.00 Build 0)  -->
<svg version="1.2" baseProfile="tiny" id="Layer_1" xmlns="http://www.w3.org/2000/svg" xmlns:xlink="http://www.w3.org/1999/xlink"
	 x="0px" y="0px" viewBox="-247 364.89 100 113" xml:space="preserve">
<title>face_00067</title>
<path d="M-245.424,374.723c0.167,5.521,0.502,10.485,0.725,10.987c0.279,0.725,0.056,0.948-0.948,1.004h-1.339l1.283,0.502
	c1.171,0.502,1.227,0.892,1.339,6.246c0,3.18,0.167,6.972,0.279,8.533c0.055,1.506,0.223,12.047,0.334,23.425
	c0.28,27.496,1.004,49.972,1.618,49.582c0.502-0.335,0.167-17.848-0.39-21.975c-0.168-1.06-0.391-15.616-0.559-32.292
	c-0.223-28.277-0.167-30.284,0.726-30.006c0.501,0.168,2.23,0.67,3.736,1.116c4.685,1.338,17.122,6.525,17.792,7.362
	c0.669,0.892,0.78,48.187,0.111,49.247c-0.167,0.279-1.004,0.39-1.785,0.223c-1.06-0.167-1.394-0.056-1.115,0.39
	c0.223,0.335,0.837,0.614,1.394,0.614c0.558,0,1.339,0.39,1.73,0.836c0.557,0.67,0.445,0.893-0.614,1.283l-1.283,0.502l1.227,0.28
	c1.562,0.445,1.617,2.118,0.112,2.118c-0.614,0-1.116,0.224-1.116,0.558c0,0.279,0.502,0.558,1.116,0.558
	c1.227,0,1.45,0.558,0.502,1.506c-0.447,0.446-0.447,0.725,0,0.948c0.39,0.279,0.613,3.57,0.613,9.648
	c0,5.132,0.167,9.147,0.335,8.924c0.167-0.167,0.279-4.35,0.279-9.258c-0.112-8.31,0-8.98,0.892-8.98
	c1.115,0,2.677,0.558,12.103,4.128c3.625,1.45,6.804,2.565,6.971,2.565c1.673,0-11.266-5.41-17.624-7.362
	c-2.342-0.669-3.18-1.561-1.617-1.561c1.84,0,17.512,5.744,19.799,7.25c1.394,0.948,1.561,1.84,1.673,9.035
	c0.056,2.398,0.279,4.35,0.558,4.35c0.223,0,0.446-2.175,0.39-4.852l-0.056-4.852l5.856-1.896c8.868-2.845,16.732-5.8,16.732-6.247
	c0-0.223-5.075,1.283-11.266,3.402c-6.19,2.12-11.322,3.849-11.433,3.849c-0.112,0-0.168-0.223-0.168-0.558
	c0-0.948,4.853-2.9,18.35-7.418c5.242-1.729,6.413-2.844,1.338-1.338c-2.565,0.836-15.003,5.186-18.126,6.47
	c-1.004,0.39-1.562,0.39-1.562,0.055c0-0.67,5.02-2.956,8.924-4.127c2.175-0.67,11.322-3.848,14.947-5.243
	c0.614-0.223,0.725,1.618,0.558,10.15c-0.112,5.69-0.056,10.375,0.223,10.375c0.39,0,0.502-3.012,0.67-27.329
	c0.055-8.422,0.11-9.202,1.059-9.035c1.338,0.223,1.227-0.78-0.167-1.171c-1.06-0.28-1.116-0.781-1.116-10.374
	c0-5.577-0.167-10.095-0.39-10.095c-0.28,0-0.39,4.406-0.28,9.76c0.112,5.354-0.055,9.76-0.278,9.76
	c-0.223,0-5.577-1.617-11.88-3.68c-6.302-2.008-11.768-3.793-12.158-3.905c-0.613-0.167-0.725-3.736-0.558-19.408
	c0.056-10.541,0.335-19.353,0.558-19.576c0.223-0.224,5.243,2.119,11.21,5.242c10.15,5.243,12.55,6.358,11.266,5.131
	c-0.613-0.502-10.987-6.023-18.293-9.704c-2.398-1.171-4.239-2.287-4.127-2.398c0.167-0.168,4.964,2.007,10.708,4.796
	c5.689,2.789,10.708,4.964,11.043,4.852c0.39-0.111-1.227-1.115-3.514-2.175c-5.298-2.454-18.628-8.924-18.906-9.202
	c-0.112-0.056-0.112-0.335,0.111-0.502c0.167-0.168,3.904,1.394,8.31,3.57c11.099,5.409,13.274,6.357,13.999,6.078
	c0.614-0.223-0.837-1.004-5.466-2.788c-2.51-1.004-15.56-7.641-16.174-8.255c-0.836-0.836,0.168-0.557,3.235,0.837
	c1.618,0.725,6.525,2.733,10.987,4.518c7.864,3.123,9.816,4.294,9.091,5.465c-0.613,0.948,0.223,21.026,0.893,21.026
	c0.167,0,0.278-3.625,0.167-7.975l-0.167-8.031l3.513-1.562c1.952-0.836,5.41-2.454,7.697-3.514c8.421-3.904,9.202-4.238,9.76-4.238
	c0.67-0.056,0.613-0.223,1.06,12.493c0.39,10.708,1.338,33.575,1.729,40.156c0.111,2.287,0.223,10.15,0.278,17.4
	c0,8.701,0.224,13.275,0.558,13.275c0.39,0,0.502-3.123,0.28-9.37c-0.112-5.131-0.391-14.11-0.559-19.91
	c-0.334-11.546-0.725-23.37-1.115-31.233c-0.502-10.43-1.116-33.185-1.116-40.826c0-4.406-0.167-7.975-0.334-7.975
	c-0.502,0-1.06,6.804-0.725,8.589c0.111,0.78,0,1.45-0.223,1.45c-0.502,0-15.84-7.139-18.182-8.422
	c-1.227-0.724-4.239-1.283-3.346-0.67c0.278,0.28,0.557,1.172,0.557,2.12c-0.056,1.339-0.334,1.673-1.729,2.008
	c-0.892,0.223-2.565,0.67-3.625,1.004c-1.06,0.279-5.466,1.394-9.76,2.51c-4.295,1.06-8.254,2.12-8.756,2.286
	c-0.781,0.28-1.004,0.112-1.004-0.78c0-0.781,0.446-1.227,1.561-1.45c3.235-0.726,12.66-3.18,12.884-3.403
	c0.446-0.446-0.893-0.223-6.08,1.116c-2.9,0.725-5.967,1.45-6.804,1.673l-1.561,0.335v-3.403c0-4.295-0.502-4.072-0.67,0.223
	c-0.167,4.015-0.836,4.294-5.521,2.342c-1.896-0.78-3.57-1.283-3.681-1.171c-0.279,0.279,5.41,2.677,7.306,3.067
	c1.618,0.335,1.673,0.447,1.673,3.681c0,3.235,0,3.347-1.338,3.235c-0.781-0.056-4.518-1.562-8.366-3.402
	c-3.848-1.84-7.92-3.625-9.09-4.071c-2.232-0.781-3.57-1.952-3.013-2.566c0.223-0.167,1.562,0.279,3.012,0.948
	c12.158,5.745,17.01,7.864,17.345,7.585c0.112-0.167-1.115-0.892-2.733-1.673c-14.78-6.804-17.512-8.087-17.68-8.645
	c-0.278-0.78,0.726-0.446,8.813,3.18c7.027,3.123,11.656,4.796,12.102,4.35c0.168-0.168,0-0.447-0.446-0.558
	c-2.621-0.837-7.697-2.789-9.927-3.737c-1.395-0.67-3.793-1.729-5.355-2.454c-1.505-0.67-3.346-1.394-4.071-1.617
	c-0.67-0.223-1.227-0.781-1.227-1.227c0-1.06,1.506-0.67,7.362,1.84c2.51,1.004,4.63,1.73,4.796,1.618
	c0.168-0.168-0.334-0.558-1.06-0.837c-8.532-3.289-10.372-4.07-11.209-4.516c-1.45-0.837-1.617-0.726-1.227,0.892
	c0.28,0.948,0.168,1.394-0.167,1.171c-0.334-0.223-3.96,1.339-8.031,3.402c-7.028,3.514-14.056,6.804-14.725,6.804
	c-0.167,0-0.279-0.334-0.279-0.725c0-0.39,2.287-1.784,5.075-3.067c2.79-1.339,4.964-2.566,4.797-2.677
	c-0.167-0.167-2.343,0.725-4.852,2.008c-2.566,1.227-4.741,2.175-4.854,2.007c-0.167-0.111-0.334-2.398-0.446-5.075
	c-0.111-2.677-0.334-5.02-0.557-5.187c-0.224-0.223-0.28,4.127-0.112,9.705H-245.424z M-220.438,380.802
	c0.056,3.848,0.056,8.198,0.056,9.76c0,1.506,0,3.29-0.056,3.848c-0.056,1.116,0.948,1.45-17.624-5.186
	c-3.068-1.116-5.633-2.008-5.689-2.008c-0.446,0-0.111-1.673,0.335-1.673c0.558,0,7.53,2.51,9.258,3.346
	c3.012,1.45,11.656,4.462,11.935,4.183c0.112-0.167-0.279-0.446-0.836-0.614c-3.137-1.24-6.279-2.467-9.426-3.68
	c-4.573-1.841-9.09-3.57-9.927-3.905c-2.956-1.115-0.948-1.17,2.51,0c1.952,0.614,6.525,2.064,10.206,3.18
	c3.68,1.17,6.86,2.174,7.139,2.342c0.223,0.111,0.39,0,0.39-0.28c0-0.278-2.677-1.338-5.968-2.342
	c-15.337-4.683-15.114-4.573-12.214-5.8c1.172-0.502,2.287-0.892,2.399-0.892c0.39,0,7.64-3.235,12.158-5.354
	c2.175-1.06,4.239-1.897,4.629-1.897C-220.661,373.83-220.493,375.615-220.438,380.802z M-172.474,383.089
	c-0.055,4.852-0.278,8.979-0.334,9.09c-0.39,0.335-8.812-2.844-15.784-5.967c-3.737-1.673-6.637-3.235-6.414-3.458
	c0.223-0.223,3.068-1.115,6.303-1.896c4.852-1.283,9.537-2.566,14.445-4.016c0.446-0.167,0.613-0.39,0.502-0.558
	c-0.168-0.167-2.566,0.335-5.243,1.116c-5.075,1.45-14.557,4.071-16.788,4.629c-0.892,0.223-1.282,0.056-1.282-0.558
	c0-1.227,1.004-1.785,5.856-3.067c11.768-3.068,13.553-3.514,15.616-3.96c1.227-0.279,2.51-0.446,2.789-0.335
	C-172.474,374.165-172.306,377.456-172.474,383.089z M-166.674,376.34c1.228,0.67,4.24,2.343,6.693,3.625
	c7.25,3.904,7.084,3.57,2.789,5.522c-2.008,0.948-3.792,1.729-3.96,1.729c-0.111,0-2.398,1.004-5.02,2.23
	c-2.62,1.228-5.075,2.232-5.353,2.232c-0.39,0-0.502-1.172-0.224-3.403c0.168-1.896,0.335-5.8,0.335-8.7
	c0-5.187,0-5.243,1.283-4.908c0.67,0.223,2.23,0.948,3.458,1.673H-166.674z M-198.016,408.8c-0.223,14.724-0.447,18.907-1.06,19.52
	c-0.39,0.446-2.677,1.673-5.075,2.789c-2.399,1.06-6.693,3.067-9.593,4.461c-2.845,1.339-5.299,2.343-5.41,2.287
	c-0.167-0.223-0.39-22.588-0.279-32.683l0.056-6.302l2.12-0.836c1.115-0.502,2.843-1.227,3.736-1.674
	c2.788-1.282,15.058-6.302,15.449-6.302C-197.849,390.004-197.849,398.482-198.016,408.8z M-183.962,433.507
	c11.88,3.904,11.991,3.96,11.991,5.354c0,1.171,0,1.171-4.294-0.335c-2.398-0.836-6.247-2.286-8.533-3.179
	c-2.287-0.948-6.024-2.23-8.199-2.9c-2.454-0.725-4.071-1.506-4.071-1.952C-197.068,429.435-194.447,429.993-183.962,433.507z
	 M-160.482,374.165l9.705,4.74v2.51c0,1.339-0.167,2.454-0.335,2.454c-0.279,0-4.964-2.565-9.704-5.354
	c-0.781-0.446-3.458-1.784-5.968-3.067c-4.462-2.175-4.629-2.287-4.629-4.127c0-1.06,0.279-1.952,0.614-1.952
	C-170.465,369.369-165.836,371.544-160.482,374.165z M-170.297,371.767c1.003,1.06,17.233,9.425,17.902,9.202
	c0.28-0.111-1.227-1.06-3.29-2.12c-2.064-1.059-5.689-3.01-8.143-4.294c-4.071-2.175-7.139-3.513-6.47-2.788H-170.297z
	 M-224.51,380.412c-1.952,1.17-1.952,1.45,0.055,2.9c1.897,1.282,2.176,1.06,2.176-1.84
	C-222.279,379.129-222.391,379.073-224.51,380.412z M-223.506,382.642c-0.223,0.168-0.67,0-1.06-0.39
	c-0.502-0.502-0.502-0.78,0.167-1.171c0.614-0.39,0.893-0.28,1.004,0.334C-223.283,381.917-223.339,382.419-223.506,382.642z
	 M-176.49,381.973c-1.339,1.394-1.339,1.45-0.28,2.231c1.73,1.227,2.4,0.948,2.455-1.171
	C-174.204,380.523-174.873,380.244-176.49,381.973z M-175.319,383.033c0,0.446-0.223,0.836-0.502,0.836
	c-0.725,0-1.227-0.892-0.78-1.338C-175.988,381.917-175.319,382.196-175.319,383.033z M-170.857,383.089
	c0,1.84,0.111,2.007,1.283,1.673c0.669-0.168,1.673-0.335,2.23-0.335c1.562,0,1.116-0.836-1.282-2.175l-2.231-1.227
	C-170.857,381.025-170.857,383.089-170.857,383.089z M-168.737,383.256c0.613,0.39,0.613,0.502-0.057,0.78
	c-0.892,0.335-1.505,0-1.505-0.836c0-0.558,0.613-0.558,1.561,0.056H-168.737z M-206.552,429.046v2.23l1.952-1.227l1.897-1.283
	l-1.227-0.948C-205.882,426.256-206.552,426.591-206.552,429.046L-206.552,429.046z M-226.35,367.137
	c-1.84,0.892-4.35,2.063-5.577,2.565c-1.227,0.502-1.952,1.004-1.617,1.116c0.278,0.167,2.286-0.614,4.461-1.618
	c2.12-1.06,4.406-2.063,5.131-2.286c0.67-0.223,1.227-0.67,1.227-0.949C-222.725,365.296-222.502,365.24-226.35,367.137z
	 M-178.664,368.42c-2.008,0.614-3.347,1.227-3.068,1.283c0.335,0.112,2.454-0.39,4.74-1.115c2.287-0.781,3.682-1.339,3.068-1.339
	C-174.537,367.249-176.657,367.751-178.664,368.42z M-191.548,427.316c-1.506,1.227-1.394,1.394,0.781,1.952
	c1.339,0.335,1.506,0.223,1.506-1.004C-189.261,426.368-190.041,426.089-191.548,427.316z M-161.152,371.153
	c8.199,3.849,10.987,5.578,10.207,6.358c-0.502,0.502-19.911-9.146-19.911-9.871C-170.856,366.692-169.573,367.138-161.152,371.153z
	 M-221.052,368.699c0,0.502-3.68,2.399-14.668,7.585c-7.975,3.793-8.756,4.072-8.756,3.124c0-0.335,3.068-2.008,6.804-3.793
	c3.793-1.729,8.59-4.127,10.764-5.243c3.738-2.007,5.858-2.565,5.858-1.672L-221.052,368.699z M-220.772,371.655
	c0,0.725-4.35,3.124-10.374,5.745c-1.339,0.613-3.458,1.506-4.685,2.063c-5.299,2.343-8.087,3.235-8.366,2.733
	c-0.167-0.279,0.279-0.892,1.004-1.394c2.453-1.562,21.25-10.318,21.863-10.15C-221.051,370.762-220.773,371.209-220.772,371.655
	L-220.772,371.655z M-172.083,371.655c-0.168,1.06-1.45,1.562-11.6,4.127c-6.303,1.618-11.88,3.068-12.382,3.347
	c-0.837,0.334-1.004,0.111-1.004-1.06c0-1.004,0.334-1.506,1.282-1.729c0.67-0.167,6.024-1.561,11.824-3.012
	c5.856-1.505,10.933-2.732,11.323-2.788c0.446-0.056,0.67,0.39,0.558,1.115H-172.083z M-215.14,375.17
	c5.857,2.398,14.78,7.027,14.446,7.585c-0.168,0.279-3.012,1.506-6.303,2.789c-3.29,1.282-7.306,2.956-8.923,3.68
	c-1.618,0.726-3.124,1.228-3.347,1.116c-0.223-0.112-0.334-1.673-0.223-3.514c0.168-3.123,0.223-3.234,1.84-3.346
	c0.893-0.056,2.064-0.335,2.566-0.613c0.781-0.447,0.558-0.781-1.283-1.953l-2.175-1.338l-0.167,1.562
	c-0.335,3.179-1.004,1.505-1.115-2.845C-219.992,373.163-220.048,373.163-215.14,375.17z M-217.036,381.918
	c0,0.28-0.279,0.614-0.613,0.725c-0.335,0.112-0.614-0.223-0.614-0.725s0.28-0.836,0.614-0.725
	C-217.315,381.305-217.036,381.64-217.036,381.918z M-199.579,384.372c-0.167,0.28-1.227,0.837-2.398,1.227
	c-1.116,0.335-2.287,0.837-2.622,1.06c-0.278,0.223-2.063,0.948-3.904,1.673c-1.84,0.781-4.963,2.12-6.971,3.123
	c-2.008,0.949-3.737,1.506-3.848,1.227c-0.335-1.003,0.892-1.673,9.537-5.186C-201.531,384.094-198.854,383.313-199.579,384.372z
	 M-197.794,385.878c-0.502,0.502-1.562-0.334-1.172-1.004c0.224-0.334,0.558-0.334,0.949,0.056
	C-197.683,385.265-197.571,385.655-197.794,385.878z M-150.89,385.934c0.168,1.06-1.06,1.84-10.43,6.414
	c-7.919,3.848-10.652,4.964-10.652,4.294c0-0.502,0.558-1.17,1.283-1.506c0.67-0.334,4.63-2.23,8.812-4.238
	c4.183-2.008,7.92-4.016,8.31-4.518c0.335-0.446-1.952,0.502-5.13,2.12c-6.247,3.179-12.27,5.967-12.884,5.967
	c-0.223,0-0.39-0.334-0.39-0.78c0-0.447,3.457-2.287,8.254-4.462c4.517-2.008,8.589-3.904,9.035-4.24
	C-153.232,384.038-151.057,384.595-150.89,385.934z M-198.91,386.771c0.725,0.669,1.283,1.394,1.283,1.617
	c0,0.558-2.956,1.952-9.76,4.573c-2.733,1.06-6.358,2.566-8.031,3.402c-3.18,1.506-4.24,1.785-3.737,0.949
	c0.334-0.502,9.481-5.076,10.262-5.076c0.223,0,2.677-1.17,5.41-2.51c5.689-2.844,4.35-2.788-1.785,0.056
	c-2.23,1.06-4.183,1.897-4.35,1.897c-0.223,0-7.752,3.457-9.314,4.294c-0.279,0.112-0.446-0.223-0.446-0.837
	c0-1.06,1.506-1.896,11.433-6.246c2.175-0.948,4.685-2.064,5.577-2.51c2.175-1.004,1.952-1.004,3.458,0.39V386.771z
	 M-236.389,390.507c2.789,0.948,5.522,2.008,6.135,2.287c0.614,0.335,2.733,1.06,4.74,1.729c4.797,1.562,5.578,2.008,4.407,2.454
	c-0.502,0.167-3.514-0.725-6.693-2.008c-3.179-1.283-8.03-3.013-10.82-3.849c-2.733-0.837-5.075-1.84-5.187-2.231
	C-244.141,387.997-242.914,388.219-236.389,390.507L-236.389,390.507z M-150.779,389.113c0,0.39-1.338,1.339-2.9,2.008
	c-1.617,0.67-4.182,1.84-5.744,2.51c-1.506,0.725-4.015,1.84-5.577,2.51c-1.506,0.669-3.737,1.673-4.852,2.23
	c-1.172,0.558-2.12,0.837-2.12,0.558c0-0.502,19.41-10.485,20.525-10.541C-151.113,388.332-150.778,388.667-150.779,389.113
	L-150.779,389.113z M-198.184,430.161c0,0.334-0.446,0.725-0.948,0.892c-0.558,0.223-2.063,0.836-3.346,1.394
	c-1.339,0.558-2.51,1.06-2.677,1.06c-0.223,0-10.485,4.908-13.776,6.581c-0.279,0.112-0.446-0.056-0.446-0.446
	c0-0.558,2.677-1.896,14.78-7.418C-198.463,429.436-198.184,429.324-198.184,430.161z M-198.184,432.615
	c0,0.39-1.338,1.338-2.9,2.007c-1.617,0.67-3.68,1.562-4.629,1.952c-7.975,3.57-13.33,5.8-13.553,5.578
	c-0.78-0.781,1.897-2.287,13.274-7.307c1.673-0.78,3.848-1.729,4.74-2.175C-199.076,431.666-198.184,431.666-198.184,432.615z
	 M-189.539,434.567c3.402,1.227,8.254,2.956,10.876,3.96c2.62,0.948,5.186,1.896,5.744,2.063c0.502,0.167,0.948,0.67,0.948,1.115
	c0,0.558-0.279,0.725-0.948,0.447c-2.063-0.837-11.824-4.406-17.735-6.47c-3.347-1.171-6.191-2.398-6.303-2.733
	C-197.291,432.001-195.897,432.279-189.539,434.567z M-198.184,435.18c0,0.558-2.12,1.617-8.087,4.071
	c-3.235,1.339-11.823,5.243-12.66,5.8c-0.279,0.112-0.446-0.11-0.446-0.557c0-0.725,3.68-2.789,8.644-4.796
	c0.949-0.39,3.96-1.674,6.693-2.845C-198.518,434.455-198.184,434.343-198.184,435.18z M-191.435,436.351
	c2.565,0.948,5.689,2.064,6.916,2.454c2.788,0.948,8.979,3.29,11.042,4.239c1.395,0.613,1.506,0.892,1.506,4.183v3.514l-1.952,0.39
	c-1.06,0.167-2.12,0.613-2.342,0.948c-0.335,0.558,1.283,0.279,3.402-0.502c0.613-0.223,0.892,0,0.892,0.67
	c0,0.78-0.669,1.282-2.342,1.784c-4.964,1.506-13.999,4.797-21.473,7.753c-0.446,0.167-0.725-0.224-0.725-1.004
	c0-1.172,0.614-1.562,4.908-3.068c2.678-1.004,7.028-2.454,9.76-3.29c2.678-0.837,4.853-1.674,4.853-1.952
	c0-0.447-10.653,2.788-16.118,4.963c-1.674,0.614-3.18,1.004-3.291,0.893c-0.167-0.168-0.39-4.518-0.502-9.76
	c-0.279-10.765-0.502-10.318,4.295-8.645c4.238,1.506,17.79,7.696,17.568,8.087c-0.112,0.167-2.566,1.06-5.41,1.896
	c-4.852,1.506-10.708,3.57-13.776,4.852c-0.725,0.28-1.171,0.67-1.004,0.837c0.28,0.279,4.518-1.06,7.92-2.51
	c1.673-0.725,11.545-4.016,12.995-4.35c0.67-0.168,1.227-0.502,1.227-0.725c0-0.558-4.74-2.845-13.218-6.414
	c-3.29-1.394-6.526-2.789-7.14-3.068c-2.9-1.505,2.622,0.28,9.761,3.068c7.92,3.067,12.94,4.629,8.924,2.733
	c-1.06-0.502-2.454-1.116-3.068-1.339c-0.613-0.223-2.063-0.836-3.235-1.338c-1.17-0.502-4.183-1.673-6.692-2.622
	c-2.51-0.948-5.131-1.896-5.856-2.23c-0.725-0.28-1.785-0.502-2.343-0.502c-0.613,0-1.115-0.39-1.115-0.837
	C-197.068,434.343-196.789,434.343-191.435,436.351L-191.435,436.351z M-198.184,437.913c0,0.78-1.673,1.673-7.92,4.183
	c-4.405,1.729-8.421,3.458-9.035,3.737c-0.725,0.446-1.17,0.446-1.45-0.056c-0.278-0.446-0.502-0.279-0.725,0.502
	c-0.167,0.67-0.725,1.171-1.227,1.171c-1.282,0-0.78-1.227,0.893-2.064c4.294-2.23,17.68-8.142,19.353-8.477
	C-198.239,436.853-198.184,437.299-198.184,437.913z M-195.395,437.411c0,0.279-0.39,0.558-0.837,0.558
	c-0.446,0-0.836-0.28-0.836-0.558c0-0.335,0.39-0.558,0.836-0.558S-195.395,437.076-195.395,437.411z M-197.74,447.952
	c0.112,6.916,0.056,7.418-0.836,7.027c-0.558-0.223-5.131-1.784-10.206-3.458c-5.076-1.729-9.314-3.179-9.426-3.29
	c-0.112-0.112,0.39-0.446,1.115-0.725c0.725-0.28,1.952-0.781,2.733-1.116c8.533-3.625,14.947-6.079,15.617-5.967
	C-198.074,440.478-197.907,441.817-197.74,447.952z M-211.57,451.354c3.848,1.283,7.473,2.51,8.087,2.733
	c0.613,0.279,2.008,0.837,3.067,1.227c2.176,0.725,3.124,1.45,2.733,1.896c-0.167,0.112-2.342-0.613-4.852-1.673
	c-2.51-1.06-7.25-2.789-10.541-3.904c-3.29-1.116-6.135-2.175-6.246-2.287C-219.88,448.789-218.152,449.235-211.57,451.354z
	 M-212.295,452.804c3.346,1.06,6.86,2.454,7.864,3.068c1.004,0.557,2.12,1.06,2.454,1.06c0.279,0,1.394,0.39,2.454,0.892
	c1.673,0.78,1.896,1.17,1.896,3.011v2.064l-4.852-1.952c-2.733-1.116-7.53-2.9-10.709-3.96c-3.234-1.115-5.911-2.342-6.079-2.733
	c-0.334-1.004,1.395-0.836,4.908,0.502c6.86,2.566,13.163,5.187,13.832,5.689c0.39,0.279,0.836,0.39,1.06,0.167
	c0.78-0.78-3.57-2.733-16.23-7.306c-1.84-0.67-3.458-1.506-3.57-1.84C-219.601,450.462-218.821,450.629-212.295,452.804z"/>
</svg>
