<?xml version="1.0" encoding="iso-8859-1"?>
<!-- Generator: Adobe Illustrator 19.0.0, SVG Export Plug-In . SVG Version: 6.00 Build 0)  -->
<svg version="1.2" baseProfile="tiny" id="Layer_1" xmlns="http://www.w3.org/2000/svg" xmlns:xlink="http://www.w3.org/1999/xlink"
	 x="0px" y="0px" viewBox="-247 370.89 100 100" xml:space="preserve">
<title>face_00078</title>
<path d="M-177.568,371.255c-6.152,1.017-10.777,3.977-14.616,9.343l-1.573,2.22l-0.879-1.156c-0.462-0.602-1.48-1.342-2.312-1.62
	c-1.85-0.554-4.024-0.554-4.024,0.047c0,0.231-0.185,0.324-0.417,0.185c-0.23-0.139-1.017,0.046-1.711,0.416
	c-1.295,0.648-1.341,0.648-3.284-1.572c-4.487-5.134-14.57-6.707-21.97-3.377c-6.43,2.822-13.276,10.037-17.253,17.993
	c-1.526,3.099-1.619,3.561-1.018,4.209c0.648,0.601,1.064,0.601,4.024-0.139c7.17-1.758,13.645,0.278,19.704,6.106
	c6.43,6.244,9.529,12.257,10.13,19.657c0.416,5.366-0.278,9.436-2.359,13.599c-3.145,6.429-11.24,13.136-15.819,13.136
	c-1.572,0-1.619,0-1.341,1.665c0.139,0.925,0.648,2.081,1.11,2.59c1.711,1.943,13.46,11.008,14.2,11.008
	c0.139,0,1.388,0.51,2.775,1.157c5.412,2.497,10.87,3.191,14.57,1.85c1.85-0.648,2.081-0.601,4.117,0.37
	c3.746,1.758,10.684,1.388,16.28-0.925c5.274-2.174,7.679-4.21,9.668-8.094c0.832-1.573,1.896-3.146,2.405-3.516
	c1.202-0.832,1.11-1.804-0.37-2.497c-1.064-0.555-2.174-2.267-4.07-6.383c-1.85-3.932-3.47-12.674-3.47-18.456
	c0-10.592,3.377-19.01,10.361-25.994c1.388-1.388,3.654-3.099,4.996-3.747c2.821-1.387,9.02-3.145,11.008-3.145
	c0.74,0,1.434-0.185,1.619-0.416c0.37-0.648-1.526-5.782-3.793-10.268c-3.099-5.967-6.66-9.297-13.043-12.165
	C-169.243,370.977-172.758,370.422-177.568,371.255z M-166.93,374.492c5.273,1.99,10.592,6.152,12.442,9.714
	c0.925,1.757,3.978,9.343,3.84,9.435c-0.093,0.047-1.157,0.324-2.452,0.648c-4.302,1.017-7.632,2.081-7.632,2.451
	c0,0.185-0.231,0.37-0.509,0.37c-0.786,0-4.162,2.498-6.336,4.672c-4.256,4.255-8.927,12.766-9.575,17.299
	c-0.185,1.249-0.416,2.729-0.555,3.237c-0.231,1.064-0.185,12.35,0.093,14.2c0.462,3.516,0.925,5.597,2.174,9.39
	c1.757,5.458,2.543,7.076,3.977,8.325l1.203,1.018l-1.295,2.59c-1.434,2.96-3.515,4.903-7.077,6.568
	c-4.764,2.267-11.517,3.423-14.385,2.452c-1.619-0.51-3.793-2.082-3.793-2.637c0-0.139,1.203-0.647,2.683-1.11
	c4.348-1.341,8.048-3.654,9.112-5.597c0.833-1.665,0.879-1.804,0.139-3.099c-0.879-1.48-0.833-1.526,2.22-1.341
	c1.573,0.046,6.06-1.249,6.475-1.896c0.37-0.648-1.572-3.1-4.024-5.042c-3.191-2.544-7.955-4.255-11.887-4.255
	c-2.636,0-3.469,0.185-5.088,1.202c-1.803,1.11-2.081,1.157-3.237,0.602c-3.284-1.712-8.048-1.25-11.425,1.063
	c-1.11,0.74-2.22,1.388-2.498,1.388c-0.277,0-0.508,0.185-0.508,0.37c0,0.231-0.88,0.879-1.943,1.48
	c-4.718,2.59-5.69,3.885-4.348,5.643c0.509,0.694,1.341,0.833,4.718,0.833c3.006,0.046,3.885,0.138,3.33,0.508
	c-0.509,0.278-0.832,1.018-0.832,1.943c0,1.203,0.462,1.943,1.989,3.377c2.22,2.127,4.764,3.191,9.667,4.07
	c3.33,0.601,3.376,0.601,1.988,1.202c-4.81,2.036-12.858-0.23-20.305-5.689c-4.949-3.608-8.557-6.521-8.557-6.938
	c-0.046-0.185,0.74-0.694,1.712-1.11c6.568-3.006,13.274-9.482,15.772-15.171c3.47-8.002,2.729-17.761-1.896-25.578
	c-2.96-4.903-12.581-13.969-14.848-13.969c-0.323,0-0.832-0.231-1.064-0.462c-0.97-0.972-7.261-1.943-10.5-1.62l-3.19,0.325
	l1.248-2.22c2.868-5.135,6.013-8.927,10.176-12.165c3.978-3.1,6.984-4.255,12.488-4.903c1.157-0.093,6.43,1.249,8.049,2.081
	c1.85,0.925,2.821,2.082,4.44,5.18c1.203,2.313,1.943,2.498,3.654,0.972c3.33-3.006,4.764-3.145,6.753-0.601
	c1.249,1.572,1.758,1.85,3.145,1.85c1.527,0,1.804-0.185,2.775-1.989c1.388-2.636,5.273-6.568,7.632-7.817
	C-177.383,373.012-172.11,372.596-166.93,374.492z M-186.865,445.4c3.238,1.156,6.707,3.238,6.707,3.978
	c0,0.555-0.37,0.555-7.355,0.462c-6.151-0.092-8.557-0.694-8.742-2.22c-0.185-1.11,0.833-2.405,1.943-2.405
	c0.37,0,0.833-0.231,0.971-0.463C-192.831,443.966-190.057,444.244-186.865,445.4z M-201.435,445.909
	c3.7,1.896-0.139,4.486-8.65,5.735c-3.838,0.601-7.076,0.648-7.076,0.139c0.046-0.463,7.077-4.764,9.436-5.736
	C-205.32,445.077-203.146,445.03-201.435,445.909z M-196.578,451.043c1.387,1.017,4.348,1.665,7.354,1.619
	c1.526-0.047,2.636,0.046,2.544,0.185c-0.324,0.277-4.163,0.647-10.823,0.925c-3.053,0.139-6.337,0.324-7.262,0.416
	c-0.971,0.093-1.619,0-1.48-0.231c0.138-0.231,0.74-0.416,1.341-0.416c1.526,0,4.903-1.342,6.013-2.36
	C-197.827,450.118-197.781,450.118-196.578,451.043z M-188.438,456.917c-0.693,0.879-3.931,2.451-7.215,3.562
	c-4.21,1.387-8.696,1.202-12.489-0.555c-1.572-0.694-2.729-1.712-2.359-2.082c0.278-0.277,14.2-1.295,20.352-1.48
	C-188.345,456.316-188.021,456.408-188.438,456.917z M-185.524,387.814c-2.636,1.157-3.885,5.597-2.266,8.048
	c1.896,2.914,6.337,4.025,8.65,2.174c2.682-2.081,2.913-6.475,0.462-8.927c-1.11-1.063-1.897-1.433-3.654-1.526
	C-183.535,387.491-185.015,387.583-185.524,387.814z M-180.991,390.497c1.11,1.018,1.11,3.885-0.046,5.273
	c-0.74,0.925-1.064,1.018-2.174,0.648c-2.683-0.972-3.099-4.44-0.74-5.92c1.573-0.972,1.896-0.972,2.96,0V390.497z
	 M-220.075,389.294c-2.128,1.804-2.96,4.117-2.174,6.013c0.509,1.25,3.284,4.07,4.07,4.163c0.185,0,0.74,0.093,1.25,0.185
	c1.71,0.324,5.04-1.526,6.382-3.608c1.064-1.618,1.249-2.266,0.971-3.792c-0.37-2.452-0.416-2.498-2.821-3.516
	C-215.542,387.399-218.04,387.583-220.075,389.294z M-212.721,391.514c0.833,1.62-0.046,3.562-2.127,4.95
	c-1.434,0.971-1.943,1.11-2.73,0.694c-2.173-1.157-2.45-3.47-0.693-5.597c1.064-1.249,1.48-1.434,3.145-1.295
	c1.434,0.092,1.989,0.416,2.405,1.249V391.514z M-169.52,458.628c0,0.232-0.093,0.463-0.185,0.463c-0.139,0-0.37-0.231-0.509-0.463
	c-0.139-0.277-0.046-0.462,0.185-0.462C-169.751,458.166-169.52,458.351-169.52,458.628z M-202.129,388.692
	c-0.74,0.509-1.665,1.203-2.035,1.619c-0.324,0.463-0.879,0.786-1.202,0.786c-0.51,0-1.157,2.313-1.85,6.938
	c-0.14,0.88-0.417,6.152-0.556,11.703c-0.277,10.499,0.232,17.668,1.573,22.479c0.74,2.821,2.868,6.151,4.533,7.261
	c1.572,1.018,4.44,1.018,5.874-0.046c1.804-1.341,2.035-1.942,4.672-12.026c0.925-3.515,1.387-17.9,0.786-23.82
	c-0.278-2.36-0.925-6.152-1.434-8.418c-0.786-3.423-1.249-4.394-2.544-5.736c-1.434-1.387-1.896-1.572-4.024-1.572
	C-199.862,387.86-201.25,388.183-202.129,388.692z M-195.699,392.577c1.942,4.487,2.358,8.465,2.266,20.86
	c-0.093,9.992-0.231,11.888-1.064,14.848c-0.509,1.897-1.249,4.07-1.665,4.857c-0.416,0.832-0.833,2.127-0.971,2.96
	c-0.093,0.833-0.417,1.665-0.602,1.896c-0.6,0.602-2.636-0.878-3.839-2.867c-1.341-2.128-1.942-4.302-2.914-10.962
	c-0.277-1.85-0.23-22.11,0.047-24.191c0.878-6.29,3.145-9.806,6.29-9.806C-196.902,390.172-196.625,390.45-195.699,392.577z"/>
</svg>
