<?xml version="1.0" encoding="iso-8859-1"?>
<!-- Generator: Adobe Illustrator 19.0.0, SVG Export Plug-In . SVG Version: 6.00 Build 0)  -->
<svg version="1.2" baseProfile="tiny" id="Layer_1" xmlns="http://www.w3.org/2000/svg" xmlns:xlink="http://www.w3.org/1999/xlink"
	 x="0px" y="0px" viewBox="-247 354.89 100 132" xml:space="preserve">
<title>face_00051</title>
<path d="M-212.311,355.897c-0.842,0.526-1.158,1.263-0.737,1.684c0.316,0.42,1.263,0.21,2-0.421c0.737-0.527,2.842-1.263,4.526-1.58
	c3.053-0.42,3.053-0.42-0.526-0.525C-209.048,354.949-211.469,355.265-212.311,355.897z M-201.996,355.58
	c0.737,0.316,1.685,0.21,2-0.105c0.421-0.316-0.21-0.632-1.368-0.527C-202.522,354.948-202.838,355.264-201.996,355.58z
	 M-196.522,358c1.369,0.948,1.263,1.264-0.42,2.632c-1.054,0.843-2.422,1.264-3.054,0.843c-0.526-0.316-0.736,0-0.526,0.842
	c0.316,0.842,1.263,1.368,2.105,1.158c0.842-0.106,2.842,1.263,4.632,3.157l3.053,3.369l-4.21-2.316l-4.211-2.316l3.157,2.632
	c1.79,1.474,4,2.947,5.053,3.263c0.947,0.316,1.79,0.947,1.79,1.474c0,1.473-3.895,3.263-5.685,2.526
	c-0.947-0.421-1.684-0.105-1.684,0.632c0,0.842-0.842,1.052-2.21,0.736c-1.264-0.315-2-0.105-1.685,0.632
	c0.21,0.632,1.895,1.474,3.685,1.895c5.684,1.158,8.947,5.158,4.21,5.158c-1.263,0-2,0.21-1.684,0.526
	c0.316,0.316,3.263,0.632,6.526,0.632c4.21,0.105,5.895,0.526,5.895,1.579c0,0.947-0.632,1.157-1.79,0.736
	c-1.684-0.631-1.684-0.526-0.42,1.053c2,2.526,3.263,2.21,3.263-0.842c0-3.474,2.42-3.369,5.79,0.21
	c2.63,2.843,2.63,2.843,2.63,0.527c0-2.421,2.632-4.316,4-2.842c0.422,0.42,0.106,1.052-0.736,1.368
	c-1.053,0.316-0.842,0.947,1.052,2.421c2.948,2.21,2,3.895-1.368,2.316c-2.632-1.158-12.105,0.316-14.526,2.316
	c-0.842,0.737-3.158,1.684-4.948,2.105c-2.842,0.526-3.473,0.421-3.473-1.053c0-1.263-0.527-1.579-1.79-1.158
	c-2.105,0.843-5.579-2.631-5.579-5.684c0-1.158-0.526-2.105-1.158-2.105c-0.631,0-0.842,0.737-0.526,1.684
	c1.579,4,1.684,6.526,0.737,9.158c-1.263,3.368-2.842,3.579-5.369,0.737c-3.894-4.526-11.368-6.842-22.631-7.053
	c-5.79-0.105-11.053-0.21-11.79-0.21c-0.736-0.106-1.052-0.948-0.842-2c0.316-0.948-0.105-0.421-0.947,1.368
	c-0.842,1.684-1.58,3.895-1.684,4.737c0,0.947-0.632,0.632-1.685-1.053c-1.578-2.63-1.578-2.63-0.735,1.054
	c0.842,4.21,0.842,4.737-0.21,16.105c-0.738,6.948-0.527,8.737,1.157,12c1.474,2.842,1.684,3.895,0.737,4.21
	c-1.895,0.632-1.684,3.474,0.21,3.474c0.842,0,1.79,1.474,2.21,3.685c0.317,2,1.054,3.684,1.58,3.684
	c1.158,0,1.158,0.42-0.526-5.369l-1.474-4.842h3.052c2.948,0,4.211,2,2,3.369c-0.526,0.316-1.052,1.158-1.052,1.684
	c0,0.632,0.42,0.842,0.947,0.421c0.632-0.316,2,0.421,3.158,1.79c1.263,1.263,2.526,1.894,2.947,1.473
	c0.422-0.42,0-1.263-1.052-1.79c-1.474-0.841-1.79-2.315-1.684-6.841c0.105-3.158,0.631-6,1.158-6.316
	c0.42-0.316,2.315,0.21,4.21,1.052c4.526,2.316,4.842,2.106,1.263-0.947c-4.842-4.21-5.579-4.737-6.737-4.737
	c-1.684,0-5.368-4.21-4.736-5.263c0.947-1.579,4.42-1.263,8.21,0.632c1.79,0.947,6,1.894,9.263,2
	c3.263,0.105,6.316,0.526,6.948,0.842c0.526,0.316,1.579,0.21,2.42-0.421c2-1.158,6.422-1.158,8.316,0
	c1.158,0.737,1.053,1.263-0.526,2.947c-4.737,4.947-5.368,6.21-4,7.369c0.632,0.736,1.58,0.947,1.895,0.631
	c0.316-0.42,0.631,0.105,0.631,1.053c0,1.052-0.631,1.79-1.473,1.79c-1.369,0-4.106,5.052-3.684,6.947
	c0.42,2.42-0.316,4.42-2.211,6.526c-1.158,1.263-2.105,2.631-2.105,3.263c0,0.526-2,2.21-4.421,3.79
	c-2.527,1.473-3.685,2.526-2.632,2.21c1.369-0.421,1.79,0,1.79,2.105c0,2.21-0.316,2.527-2.843,2
	c-2.631-0.526-2.736-0.42-0.631,0.421c1.263,0.632,2.631,2.316,3.053,3.79c0.526,2,1.052,2.42,2,1.579
	c1.894-1.58,10.631,2.631,12.736,6.21c1.264,2.21,2.632,3.053,5.58,3.263c8.105,0.632,13.789,0.527,13.473-0.42
	c-0.105-0.632-2-0.948-4.105-0.737c-2.316,0.105-4-0.21-4-0.843c0-0.631,1.473-1.157,3.263-1.157c3.895,0,7.263-1.685,7.263-3.685
	c0-0.736,1.368-1.684,3.053-2.105c1.684-0.316,3.368-1.368,3.684-2.21c0.842-2.106,3.579-1.895,4.105,0.315
	c0.421,1.474,0.526,1.264,0.632-0.526c0.105-3.158,2-2.947,2.842,0.316c0.842,3.368-0.421,8.842-1.58,6.947
	c-0.63-1.052-1.052-0.947-1.473,0.316c-0.842,2.21-2.842,2.105-2.842-0.21c0-1.474-0.21-1.474-0.947-0.316
	c-0.527,0.842-1.684,1.158-2.737,0.842c-0.947-0.421-1.474-0.316-1.158,0.105c0.316,0.526-0.316,1.579-1.263,2.421
	c-1.766,1.425-3.52,2.863-5.263,4.316c-2,1.684-2.842,2.947-2,2.947c0.842,0,2.737-1.158,4.315-2.631c1.58-1.474,3.369-2.316,4-2
	c0.632,0.42,0.843,0.315,0.527-0.316c-0.421-0.526,0.631-1.053,2.42-1.053h3.053l-2.315,2.106c-4.632,4-15.474,7.578-15.474,4.947
	c0-0.526-1.474-1.053-3.263-1.053c-1.79,0-4.105-0.526-5.263-1.158c-1.158-0.631-2.632-0.842-3.369-0.631
	c-0.737,0.316,0.316,1.158,2.106,2c2.736,1.158,3.157,1.79,2.21,2.737c-1.684,1.684-7.684,1.579-9.474-0.106
	c-0.736-0.842-2-1.263-2.842-0.947c-0.737,0.21-1.79-0.21-2.316-0.947c-0.631-1.053-0.947-0.842-0.947,0.947
	c0,3.263,4.947,5.263,16.526,6.737c7.053,0.947,9.474,0.842,11.158-0.105c1.474-0.948,2.316-1.053,3.158-0.21
	c2.737,2.736,10.948,0.21,11.474-3.475c0.21-1.473,2.21-3.263,5.895-5.158c2.947-1.684,5.473-3.684,5.473-4.42
	c0-0.843,1.895-2.843,4.21-4.316c2.317-1.58,4.211-3.264,4.211-3.895c0-0.632-1.052-0.105-2.42,1.158
	c-1.37,1.263-2.843,2.316-3.474,2.316c-0.527,0-2.106,0.947-3.58,2.105c-2.841,2.21-5.262,2.737-5.262,1.052
	c0-0.631,0.736-1.052,1.578-1.052c0.843,0,1.58-0.421,1.58-0.948c0-0.526,1.368-2.315,3.052-3.894c1.684-1.58,4.421-5.79,6-9.58
	c2.632-5.789,3.368-6.63,5.474-6.104c1.263,0.315,2.316,0.105,2.316-0.422c0-0.526-1.053-1.157-2.316-1.578
	c-1.79-0.422-2.106-0.843-1.053-1.474c1.369-0.948,0.737-4.316-1.053-5.58c-1.157-0.736,0.106-6.42,1.264-5.683
	c0.42,0.315,1.052-1.263,1.368-3.474c0.21-2.105,1.263-6.526,2.21-9.684c1.79-6.21,2.316-17.053,0.632-13.158
	c-0.842,1.895-0.947,1.79-0.947-0.842c-0.105-1.684,0.316-2.737,0.947-2.316c0.632,0.421,1.053-1.263,1.053-4.105
	c0-2.632-0.421-4.842-1.053-4.842c-0.526,0-1.052,0.42-1.052,1.052c0,2.21-2.211,0.948-3.264-1.79
	c-0.631-1.683-1.79-3.683-2.631-4.63c-1.684-1.896-0.316-3.79,1.684-2.527c0.632,0.316,1.053,0.21,1.053-0.21
	c0-1.053-4.421-4-5.474-3.685c-0.526,0.105-0.842-0.526-0.842-1.368s-0.632-1.263-1.369-0.948c-1.894,0.632-4.315-2.21-3.263-3.894
	c0.527-0.948,1.158-0.737,2.106,0.526c0.736,1.053,1.789,1.579,2.42,1.263c0.527-0.316,1.264,0.21,1.474,1.158
	c0.421,1.79,0.527,1.79,0.632,0c0-1.053,0.631-1.579,1.158-1.263c0.631,0.316,1.052,0.105,1.052-0.421
	c0-2.316,1.685-1.053,3.58,2.526c1.157,2,2.21,3.474,2.526,3.263c0.631-0.631-3.58-7.368-5.58-9.052
	c-1.368-1.158-1.473-1.053-0.947,0.631c0.632,1.895,0.527,1.79-0.947-0.105c-0.947-1.158-1.158-2.316-0.632-2.421
	c0.632-0.316,0.527-0.947-0.21-1.895c-0.632-0.842-1.58-1.263-2-0.947c-0.421,0.316-2.105-0.21-3.79-1.053
	c-1.579-0.737-3.263-1.263-3.79-0.947c-0.42,0.316-0.841-0.21-0.841-1.053c0-0.842-0.948-2.105-2-2.737
	c-2.527-1.263-4.316-1.368-2.21,0c0.841,0.527,1.157,1.263,0.736,1.685c-0.42,0.42-1.368,0.21-2-0.422
	c-0.737-0.736-2-1.263-3.053-1.263c-0.947,0-4.947-1.473-8.842-3.263c-5.368-2.42-6.842-3.474-5.684-4.21
	c0.948-0.632-0.105-0.948-3.263-0.948c-3.474,0-4.316,0.316-3.158,1.053L-196.522,358z M-185.575,363.16
	c4.106,1.579,2.632,2.737-1.578,1.263c-1.895-0.632-4.527-1.158-5.79-1.158c-1.368,0-2.526-0.526-2.526-1.158
	C-195.469,360.739-190.522,361.265-185.575,363.16z M-182.206,370.318c-0.316,0.737,0.105,1.368,0.947,1.368s1.58,0.737,1.58,1.58
	c0,2.21-2.948,0.841-3.79-1.79c-0.527-1.685-0.842-1.895-1.58-0.737c-0.841,1.263-1.157,1.263-2-0.106
	c-1.473-2.21,1.79-4.736,3.896-2.947C-182.311,368.318-181.89,369.476-182.206,370.318z M-174.416,372.738
	c0.947,1.79,0.841,2.106-1.053,2.106c-1.158,0-2.106-0.21-2.106-0.421c0-0.21-0.315-1.158-0.631-2.105
	C-179.153,369.791-175.786,370.212-174.416,372.738z M-162.206,373.16c2.316,1.79,1.158,3.684-1.369,2.105
	c-2-1.263-3.052-3.579-1.684-3.579C-164.732,371.686-163.364,372.318-162.206,373.16z M-185.996,377.055
	c0,0.526-1.157,0.947-2.631,0.947c-2.737,0-3.58-1.58-1.263-2.421C-188.206,375.055-185.996,375.897-185.996,377.055z
	 M-164.943,380.739c1.474,3.684,1.368,3.684-1.474,1.158c-1.368-1.264-2.315-2.632-2.105-3.053
	C-167.469,377.265-165.89,378.002-164.943,380.739L-164.943,380.739z M-179.68,380.002c0,1.579-2.42,2.737-2.947,1.368
	c-0.21-0.737-1.369-1.052-2.948-0.631c-1.578,0.42-2.526,0.21-2.526-0.527c0-0.631,1.79-1.157,4.21-1.157
	C-181.575,379.055-179.68,379.475-179.68,380.002z M-173.364,382.422c0,0.422,0.842,0.527,1.895,0.106
	c0.947-0.316,1.473-0.316,1.052,0.105c-0.315,0.422-2.105,1.053-3.894,1.264c-2.421,0.42-3.264,0.105-3.264-1.053
	c0-0.947,0.843-1.474,2.106-1.368c1.158,0.105,2.105,0.526,2.105,0.947L-173.364,382.422z M-164.943,387.476
	c0,0.526-0.421,1.052-1.053,1.052c-0.526,0-1.052-0.526-1.052-1.052c0-0.632,0.526-1.053,1.052-1.053
	C-165.364,386.423-164.943,386.844-164.943,387.476z M-161.785,390.423c0,0.526-0.632,1.79-1.474,2.842
	c-1.263,1.79-1.368,1.79-1.894-0.842c-0.422-2.21-0.106-2.842,1.368-2.842C-162.627,389.581-161.785,390.001-161.785,390.423z
	 M-159.68,393.37c0,0.842-0.42,1.263-1.052,0.948c-0.527-0.316-1.053-1.053-1.053-1.685c0-0.526,0.526-0.947,1.053-0.947
	C-160.101,391.686-159.68,392.423-159.68,393.37z M-232.732,395.476c3.894,1.894,4.42,3.052,1.894,4
	c-3.052,1.157-9.894-0.527-9.894-2.527C-240.732,393.37-238.206,392.844-232.732,395.476z M-152.942,396.107
	c0.946,3.58,0.736,4-0.948,3.369c-1.685-0.632-2.21-5.685-0.632-5.685C-153.996,393.791-153.364,394.844-152.942,396.107z
	 M-233.575,401.687c0.211,0.21,0.106,1.262-0.21,2.42c-0.947,2.737-6.105,6.316-6.737,4.526c-0.21-0.631-1.158-2-2.105-2.842
	c-1.58-1.579-1.474-1.894,0.842-3.79c2.21-1.789,6.632-1.894,8.21-0.315V401.687z M-179.68,400.528c0,0.21-0.947,0.632-2.105,0.948
	c-1.158,0.315-1.895,0.105-1.474-0.421C-182.732,400.107-179.679,399.686-179.68,400.528L-179.68,400.528z M-185.996,404.844
	c-0.842,2.105-0.631,2.842,0.527,3.158c4.842,1.579,5.158,2,1.79,2.42c-2,0.211-3.79,0.106-4.106-0.21c-0.947-0.842,0.737-8,1.79-8
	C-185.364,402.212-185.364,403.265-185.996,404.844L-185.996,404.844z M-150.206,403.16c0,0.631-0.421,1.368-1.053,1.684
	c-0.526,0.316-1.052,2.526-1.052,4.737c0,2.21-0.316,4.737-0.632,5.684c-0.526,1.474-0.737,1.474-2.21,0
	c-1.369-1.263-1.895-1.368-2.527-0.316c-0.42,0.737-0.526-0.737-0.21-3.263c0.42-3.053,0.315-4.316-0.527-3.895
	c-0.526,0.421-0.842,1.79-0.42,3.053c0.42,1.684,0.21,2-0.843,1.368c-1.052-0.631-1.158-0.21-0.631,2
	c0.315,1.474,0.21,2.737-0.316,2.737c-1.58,0-2.21-3.052-1.263-5.579c0.631-1.473,0.631-3.158,0-4
	c-2.316-3.684,0.105-5.052,3.684-2.105c0.947,0.737,1.684,1.053,1.79,0.526c0-0.526,0.42,0,0.947,1.158
	c0.737,1.79,0.947,1.79,0.947,0.21c0.105-0.947,0.632-1.789,1.158-1.789c0.632,0,1.053-0.737,1.053-1.579
	c0-0.842,0.526-1.579,1.052-1.579C-150.627,402.212-150.206,402.633-150.206,403.16z M-200.206,406.528
	c0.526,0.527-0.632,0.948-2.947,0.948c-3.685,0-4.737-0.843-3.158-2.421C-205.469,404.212-201.785,405.16-200.206,406.528z
	 M-190.416,407.265c0.315,0.947-0.211,1.368-1.474,1.053c-0.948-0.106-2-0.948-2.316-1.685c-0.316-0.947,0.21-1.368,1.474-1.052
	C-191.785,405.686-190.732,406.528-190.416,407.265L-190.416,407.265z M-189.153,413.791c0,0.527-0.422,1.053-1.053,1.053
	c-0.526,0-1.053-0.526-1.053-1.053c0-0.631,0.527-1.052,1.053-1.052C-189.575,412.739-189.153,413.159-189.153,413.791z
	 M-180.206,414.844c2.316,2.526,4.526,2.632,9.368,0.421c2-0.947,4.316-1.474,5.263-1.158c2.422,0.948,2.106,4.632-0.42,5.474
	c-3.369,1.052-2.422,2.631,1.052,1.895c2-0.316,3.158-0.106,3.158,0.631c0,0.632-0.421,1.158-1.053,1.158
	c-0.526,0-1.052,0.737-1.052,1.579c0,1.053-1.053,1.579-2.842,1.684c-2.843,0-2.843,0.105-0.527,0.948
	c1.263,0.526,2.316,1.579,2.316,2.21c0,0.842,0.421,0.842,1.579-0.105c0.842-0.737,1.579-2,1.579-2.842s0.526-1.158,1.053-0.842
	c0.631,0.42,0.842,1.579,0.526,2.736c-0.421,1.369-0.21,2,0.947,2c1.895,0,2,0.422,1.053,5.158
	c-0.737,3.474-2.632,4.632-2.316,1.369c0.316-3.58-0.21-5.474-1.579-5.474c-1.79,0-3.474,2.947-4.316,7.369
	c-0.526,3.473-0.526,3.578,0.527,0.736c1.263-3.263,4.105-3.894,4.105-0.842c0,5.263-2.632,6.842-5.895,3.58
	c-1.052-1.159-3.052-1.685-4.842-1.474c-2,0.21-2.947-0.211-2.947-1.264c0-0.842-0.948-2.631-2.21-4
	c-1.896-2.21-2.106-2.21-1.474-0.42c1.578,4.526,1.789,5.789,0.842,5.789c-1.58,0-5.79-10.316-6.421-15.369
	c-0.21-2.631-0.948-4.947-1.369-5.263c-0.526-0.316-0.947-2.21-0.947-4.21c0-3.053,0.316-3.58,2.42-3.58
	C-183.258,412.738-181.258,413.686-180.206,414.844L-180.206,414.844z M-239.048,421.791c0.631,1.895,0.947,3.79,0.631,4
	c-0.947,1.053-4.42-1.579-4.42-3.368c0-1.053-0.527-2.421-1.159-3.053c-0.631-0.631-0.842-2.21-0.42-3.579l0.841-2.526l1.685,2.526
	C-240.943,417.265-239.68,419.897-239.048,421.791z M-190.838,423.371c1.158,3.262,1.263,4.736,0.421,5.262
	c-0.842,0.527-0.736,1.58,0.527,3.474c2.842,4.21,2.21,4.842-4.527,4.842c-4.947,0-6.315-0.316-6.315-1.579
	c0-0.842,0.631-1.579,1.368-1.684c0.947,0,0.947-0.21,0-0.631c-0.947-0.316-1.053-1.053-0.316-2.316
	c0.527-1.053,0.737-2.21,0.527-2.421c-0.316-0.316,0.105-2.21,0.947-4.21c0.947-2.106,1.368-4,1.053-4.317
	c-0.316-0.315,0-1.579,0.631-2.842c1.263-2.316,1.263-2.316,2.632-0.21C-193.048,417.791-191.68,420.844-190.838,423.371
	L-190.838,423.371z M-149.153,418.633c0,1.369-0.422,2.527-1.053,2.527c-0.526,0-1.053-1.474-1.053-3.263
	c0-1.79,0.421-2.948,1.053-2.527C-149.575,415.686-149.153,417.16-149.153,418.633z M-235.469,419.265c0,2-0.21,2.105-1.053,0.842
	c-1.368-2-1.368-3.158,0-3.158C-235.89,416.949-235.469,418.002-235.469,419.265z M-151.259,425.897c0,0.842-0.42,1.579-1.052,1.579
	c-0.527,0-1.053-0.737-1.053-1.58c0-0.841,0.526-1.578,1.053-1.578C-151.68,424.318-151.259,425.055-151.259,425.897z
	 M-185.996,428.002c0,0.842-0.42,1.579-1.052,1.579c-0.527,0-1.053-0.737-1.053-1.58c0-0.841,0.526-1.578,1.053-1.578
	C-186.417,426.423-185.996,427.16-185.996,428.002z M-202.838,444.528c2.632,0.421,2.632,0.421-0.737,2.21
	c-4.525,2.422-4.525,2.422-4.525-2.209c0.105-3.368,0.21-3.684,1.369-2.105C-205.995,443.371-204.205,444.319-202.838,444.528
	L-202.838,444.528z M-194.943,443.265c-0.316,0.526-1.053,1.053-1.684,1.053c-0.526,0-0.948-0.527-0.948-1.053
	c0-0.632,0.737-1.053,1.685-1.053C-195.048,442.212-194.627,442.633-194.943,443.265z M-182.627,445.265
	c-0.316,3.368-0.632,3.579-3.263,2.737c-2.106-0.632-2.948-3.58-1.474-5.158c0.421-0.421,1.684-0.632,2.947-0.421
	C-182.837,442.633-182.417,443.37-182.627,445.265z M-170.732,443.265c0.315,0.526-0.106,1.053-0.948,1.053
	c-0.947,0-1.684-0.527-1.684-1.053c0-0.632,0.421-1.053,0.947-1.053C-171.785,442.212-171.048,442.633-170.732,443.265z
	 M-210.522,445.791c-0.316,0.842-0.105,1.79,0.632,2.106c1.79,0.736-1.263,2.736-4.21,2.736c-3.58,0-2.948-2.42,1.262-4.947
	C-210.101,444.002-209.89,444.002-210.522,445.791z M-166.838,445.897c0,0.526-0.526,1.158-1.158,1.368
	c-0.631,0.21-1.157-0.421-1.157-1.368c0-0.948,0.526-1.58,1.157-1.369C-167.364,444.738-166.838,445.37-166.838,445.897z
	 M-154.417,446.633c0,2-1.894,4.527-2.631,3.79c-0.948-0.947,0.42-5.053,1.684-5.053
	C-154.838,445.37-154.417,446.002-154.417,446.633z M-165.153,455.791c0.21,2.421,0.736,3.264,1.894,2.842
	c0.842-0.315,1.474,0.106,1.474,0.948c0,2-1.053,2-4-0.105c-1.474-1.053-2.316-2.632-2.316-4.737
	C-168.101,450.318-165.575,451.265-165.153,455.791z M-195.153,454.528c10.842,0.632,12.736,1.895,6.947,4.421
	c-2.105,0.948-4.947,1.158-8.105,0.737c-9.053-1.263-14.421-1.684-13.053-1.053c2,0.948,1.474,2.527-0.842,2.527
	c-2.421,0-6.316-3.474-6.316-5.79C-216.522,453.58-211.996,453.37-195.153,454.528z M-166.417,460.633
	c1.053,2.527-0.526,6.843-2.315,6.843c-1.158,0-1.474-0.527-1.053-1.685c0.316-0.947,0.632-2.842,0.632-4.21
	C-169.153,458.739-167.364,458.107-166.417,460.633z M-196.522,465.37c0,0.527-0.842,1.053-1.895,1.053
	c-1.052,0-2.42,0.526-3.052,1.158c-1.369,1.368-3.474,0.42-3.474-1.79c0-1.052,1.263-1.473,4.21-1.473
	C-198.417,464.318-196.522,464.738-196.522,465.37z M-173.364,473.16c0,0.316-0.421,0.842-1.053,1.158
	c-0.526,0.315-1.052,0.105-1.052-0.421c0-0.632,0.526-1.158,1.052-1.158c0.632,0,1.053,0.21,1.053,0.42V473.16z M-169.996,436.423
	c0,1.684,0.21,2.316,0.527,1.263c0.21-0.947,0.21-2.42,0-3.158C-169.785,433.897-169.996,434.633-169.996,436.423z
	 M-197.575,431.686c0,0.526,0.527,1.053,1.053,1.053c0.632,0,1.053-0.527,1.053-1.053c0-0.631-0.421-1.053-1.053-1.053
	C-197.048,430.633-197.575,431.055-197.575,431.686z M-206.838,370.844c-0.947,0.947-0.842,1.684,0.527,3.158
	c0.947,1.053,2.21,1.895,2.736,1.895c0.632,0,0.211-0.737-0.947-1.58c-2-1.578-2-1.578,0-3.157c1.58-1.158,1.684-1.58,0.526-1.58
	C-204.838,369.58-206.101,370.107-206.838,370.844z M-147.996,393.37c0,1.158,0.316,1.474,0.632,0.632
	c0.316-0.737,0.21-1.684-0.105-2C-147.785,391.581-148.101,392.212-147.996,393.37z M-219.786,419.791
	c-0.104,0.527-0.104,1.158,0,1.58c0,0.42-1.052,1.684-2.525,2.736c-1.369,1.158-2.316,2.316-1.895,2.632
	c0.316,0.316-0.21,1.368-1.158,2.316c-0.947,0.947-1.368,2.315-0.947,2.947c0.526,0.842,0.842,0.842,1.158-0.105
	c0.21-0.737,1.052-1.264,1.789-1.264c2.21,0,2.947-2,1.368-3.894c-1.157-1.474-0.947-1.58,2.527-1.158
	c2.105,0.21,3.79,0,3.684-0.632c-0.21-0.842,2.842-2.947,6.105-4.105c0.632-0.316,0.737-0.737,0.316-1.158
	c-0.316-0.42-1.684-0.21-2.947,0.421c-1.685,0.948-2.632,0.948-3.474,0.105c-1.368-1.368-3.79-1.579-4-0.42L-219.786,419.791z
	 M-222.838,437.055c0,0.526,0.527,0.736,1.053,0.42c0.632-0.315,1.053-0.842,1.053-1.157c0-0.21-0.421-0.421-1.053-0.421
	C-222.311,435.897-222.838,436.423-222.838,437.055z M-231.258,456.318c0,0.21,0.841,1.052,1.894,1.79
	c1.579,1.368,1.684,1.262,0.316-0.422C-230.417,456.002-231.258,455.476-231.258,456.318z M-226.522,459.055
	c-0.316,0.526-0.105,1.052,0.421,1.052c0.632,0,1.158-0.526,1.158-1.052c0-0.632-0.21-1.053-0.421-1.053
	C-225.68,458.002-226.206,458.422-226.522,459.055z M-225.996,472.318c0,0.842,0.421,1.263,1.053,0.947
	c0.526-0.316,2.316,0.21,3.895,1.158c2.947,1.79,2.947,1.684-0.21-0.947C-224.943,470.318-225.996,470.002-225.996,472.318z"/>
</svg>
