<?xml version="1.0" encoding="iso-8859-1"?>
<!-- Generator: Adobe Illustrator 19.0.0, SVG Export Plug-In . SVG Version: 6.00 Build 0)  -->
<svg version="1.2" baseProfile="tiny" id="Layer_1" xmlns="http://www.w3.org/2000/svg" xmlns:xlink="http://www.w3.org/1999/xlink"
	 x="0px" y="0px" viewBox="-247 369.89 100 102" xml:space="preserve">
<title>face_00017</title>
<path d="M-202.69,370.478c-11.218,1.951-23.413,8.049-28.941,14.471c-9.026,10.407-12.684,17.805-14.554,29.351
	c-1.22,7.398-1.057,10.65,1.22,19.35c3.657,14.47,11.625,24.55,24.389,30.974c13.008,6.586,25.61,8.455,35.853,5.285
	c14.716-4.472,23.903-11.708,30.976-24.39c14.227-25.448,5.04-57.887-19.756-69.757C-184.152,370.64-193.584,368.933-202.69,370.478
	z M-214.56,397.063c8.619,3.577,8.13,15.447-0.812,18.374c-5.447,1.789-11.138-0.975-13.17-6.504
	c-1.627-4.471,1.788-10.732,6.666-12.114C-218.299,395.762-217.567,395.762-214.56,397.063L-214.56,397.063z M-168.543,397.144
	c6.423,3.334,6.423,13.74,0,17.074c-3.984,2.032-7.724,1.544-11.057-1.464c-2.439-2.195-2.927-3.17-3.008-6.423
	C-182.933,398.445-175.453,393.567-168.543,397.144z M-189.843,421.291c2.276,2.276,0.08,6.097-3.09,5.122
	c-2.683-0.895-1.707-6.098,1.22-6.098C-191.226,420.315-190.413,420.722-189.843,421.291z M-199.437,422.754
	c1.788,3.252-2.114,6.504-4.716,3.903c-2.032-2.033-0.487-5.529,2.44-5.529C-200.982,421.128-199.925,421.86-199.437,422.754z
	 M-193.177,436.494c1.951,0.163,5.935,4.39,6.748,7.236c0.65,2.439,0.488,3.577-0.894,6.341c-3.822,7.968-14.472,7.886-18.293-0.081
	c-2.44-5.122,0.65-11.22,6.585-13.17c1.382-0.489,3.008-0.732,3.659-0.57C-194.722,436.331-193.746,436.494-193.177,436.494z"/>
</svg>
