<?xml version="1.0" encoding="iso-8859-1"?>
<!-- Generator: Adobe Illustrator 19.0.0, SVG Export Plug-In . SVG Version: 6.00 Build 0)  -->
<svg version="1.2" baseProfile="tiny" id="Layer_1" xmlns="http://www.w3.org/2000/svg" xmlns:xlink="http://www.w3.org/1999/xlink"
	 x="0px" y="0px" viewBox="-247 364.89 100 112" xml:space="preserve">
<title>face_00011</title>
<path d="M-240.802,367.172c-0.808,1.258-1.257,2.695-0.988,3.145c0.27,0.449-0.09,1.078-0.808,1.527
	c-0.72,0.36-1.348,0.988-1.348,1.437c0,0.36-0.18,2.336-0.45,4.493c-0.628,4.762-1.257,29.11-1.976,68.194l-0.54,30.368l10.603,0.09
	c45.193,0.45,42.138,0.54,41.779-1.437c-0.27-1.708-0.18-1.708,1.437-0.18c0.989,0.808,2.336,1.527,3.055,1.527
	c1.078,0,0.988-0.18-0.09-0.898c-1.168-0.719-1.078-0.899,0.27-0.899c0.808,0,1.527-0.449,1.527-0.988c0-0.54,0.63-0.719,1.438-0.45
	c1.078,0.36,1.348,0.18,0.898-0.808c-0.27-0.719,0-1.437,0.63-1.437c0.628-0.09,1.976-0.27,3.144-0.36
	c1.078-0.09,1.977,0,1.977,0.36c0,0.27,1.707,0.539,3.863,0.449c2.965,0,4.492-0.63,7.188-3.055
	c1.797-1.707,3.324-3.684,3.234-4.402c0-1.079-0.27-0.899-0.808,0.359c-0.72,1.617-0.809,1.617-0.809-0.45l-0.09-2.335l-9.344,0.09
	c-6.918,0-9.703-0.36-10.602-1.258c-0.629-0.72-0.719-0.989-0.18-0.72c0.63,0.36,1.618,0,2.247-0.808
	c0.808-0.988,2.515-1.348,6.199-1.168c2.785,0.09,5.48,0,5.93-0.18c0.45-0.269,3.234-0.359,6.2-0.359c4.132,0,5.3,0.27,5.12,1.258
	c-0.179,0.719,0.27,1.617,0.9,2.066c0.898,0.54,0.898,0.899-0.18,1.618c-0.72,0.449-0.899,0.898-0.45,0.898
	c0.54,0,1.438-0.45,1.977-0.988c0.629-0.63,0.898-0.09,0.808,1.797c-0.09,1.527-0.449,2.785-0.808,2.785
	c-0.45,0-0.54,0.36-0.27,0.719c0.27,0.45-0.18,1.887-0.898,3.234c-0.63,1.438-1.258,3.415-1.258,4.493
	c0.09,1.797,0.09,1.797,1.348-0.36c0.718-1.258,1.258-2.965,1.347-3.773c0-2.067,2.516-2.426,6.56-0.899
	c1.886,0.719,3.683,1.078,3.953,0.719c0.628-0.629,0.808-7.188,1.168-51.752c0.27-22.192-0.18-29.47-1.708-27.134
	c-0.359,0.63-1.886-0.18-3.953-2.156l-3.324-3.145l-5.121,0.899c-5.93,1.168-5.66,0.988-6.02,4.133
	c-0.18,1.347-1.348,3.234-2.606,4.312c-2.426,1.977-4.223,5.75-4.223,8.715c0,0.899,1.618,3.145,3.504,4.942
	c2.157,2.067,3.415,3.953,3.055,4.852c-0.36,1.348-0.36,1.348,0.54,0c0.628-0.989,1.706-1.348,3.234-0.989
	c1.348,0.18,2.246,0,2.246-0.628c0-0.54-0.898-0.989-1.977-0.989c-1.168,0-2.695-0.449-3.414-0.898
	c-0.988-0.63-0.36-0.899,2.426-0.899c3.324,0,3.863-0.27,4.403-2.156c0.808-3.235,2.785-1.887,2.515,1.707l-0.27,3.055l2.696-1.528
	c2.426-1.437,2.606-1.886,2.336-5.75c-0.18-2.336,0.09-3.953,0.45-3.773c1.437,0.898-0.45-4.583-1.887-5.66
	c-0.809-0.63-0.989-1.079-0.54-1.079c0.54,0,1.708,0.54,2.696,1.258c1.887,1.527,2.875,5.84,1.348,5.84
	c-0.54,0-0.72,0.45-0.45,0.899c1.258,1.976,1.977,21.293,1.079,26.954c-1.977,12.488-2.426,14.734-3.056,15.184
	c-0.45,0.27-0.809,1.977-0.809,3.684c-0.18,5.84-0.898,8.086-2.965,9.523c-1.078,0.81-2.246,1.168-2.516,0.899
	c-0.359-0.27-0.09-0.54,0.36-0.54c0.539,0,0.898-1.077,0.719-2.515c-0.18-1.348,0.09-2.875,0.539-3.414
	c0.449-0.54,0.18-1.707-0.63-2.965c-1.347-1.887-1.527-1.887-3.144-0.45c-1.348,1.169-1.707,1.259-1.707,0.27
	c0-0.988-0.18-0.988-0.898,0.09c-1.258,1.887-1.079,2.696,0.449,2.696c0.719,0,1.348,0.27,1.348,0.628c0,0.45-3.505,0.72-7.907,0.72
	c-4.313,0-9.434,0.269-11.41,0.538c-3.774,0.72-6.38-0.449-4.134-1.797c0.899-0.539,0.45-0.988-1.617-1.437
	c-1.617-0.36-3.145-1.258-3.414-1.977c-0.45-1.078-0.629-1.078-1.258-0.09c-0.629,0.899-1.258,0.63-2.606-1.078
	c-0.988-1.258-1.796-1.887-1.796-1.348c0,0.45-0.45,0.27-0.899-0.449c-0.719-1.168-0.898-1.168-0.898,0.09
	c0,0.809-0.63,1.707-1.348,2.067c-0.719,0.27-1.348,1.437-1.348,2.515c0,1.528-0.27,1.707-0.808,0.809
	c-1.079-1.707-1.977,1.258-2.157,7.098c0,2.516-0.449,4.492-0.898,4.492c-0.45,0-0.54-1.078-0.27-2.336
	c0.36-1.258,0.27-2.066-0.18-1.797c-0.359,0.27-0.808-1.437-0.988-3.594c-0.09-2.426,0.18-3.863,0.719-3.594
	c0.45,0.36,0.629-0.27,0.27-1.437c-0.27-1.258-0.18-1.707,0.539-1.258c0.629,0.36,1.078,0.18,1.078-0.27
	c0-0.539-0.45-0.988-0.989-0.988c-0.628,0-0.808-1.078-0.628-2.695c0.27-1.528,0.09-2.965-0.36-3.235
	c-0.45-0.27-0.719-0.18-0.629,0.27c0.63,3.863-5.21-2.157-6.11-6.29c-0.269-1.347-0.898-2.425-1.347-2.425
	c-0.45,0-0.54-0.809-0.27-1.797c0.36-1.079,0.18-1.797-0.449-1.797c-0.539,0-0.719,0.449-0.36,0.988
	c0.36,0.629,0.09,0.898-0.628,0.629c-0.719-0.27-1.168-1.527-1.168-2.785c0.09-1.348-0.27-2.157-0.63-1.887
	c-0.448,0.27-1.437-0.18-2.245-0.899c-0.809-0.808-1.707-1.257-2.157-0.988c-0.629,0.45-1.976-1.707-2.156-3.504
	c-0.09-0.45-0.629-0.988-1.348-1.258c-0.808-0.27-0.988,0-0.539,0.809c0.45,0.898,0.45,0.988-0.18,0.36
	c-0.539-0.54-1.168-1.977-1.527-3.325c-0.45-1.887-0.27-2.336,1.078-2.067c0.809,0.18,1.707,0.36,1.977,0.36
	c0.27,0.09-0.09,0.449-0.809,0.898c-0.808,0.54-0.898,0.989-0.18,1.348c0.54,0.36,1.079,0.18,1.079-0.27
	c0.09-0.539,0.18-1.527,0.27-2.156s1.437-1.078,3.503-0.988c2.606,0.09,3.325-0.18,2.965-1.078c-0.27-0.72-0.09-1.258,0.36-1.258
	c0.539,0,0.898,0.449,0.898,1.078c0,0.539,0.27,0.719,0.54,0.45c0.359-0.36,1.706,0.179,3.054,1.167
	c3.324,2.426,4.492,2.246,4.492-0.45c0-1.437,0.63-2.515,1.618-2.784c3.054-0.989,4.222-1.887,4.672-3.864
	c0.449-2.066,0.449-2.066,2.695-0.27c3.235,2.516,7.188,3.325,7.188,1.438c0-0.719,0.539-1.258,1.168-0.988
	c0.539,0.18,0.988,1.617,0.988,3.234c-0.18,2.157,0.18,2.786,1.348,2.606c1.078-0.18,1.527,0.54,1.707,2.606
	c0.18,1.617-0.09,2.964-0.539,2.964c-0.45,0-0.719,0.899-0.629,1.977c0.09,1.168-0.18,2.246-0.539,2.516
	c-0.45,0.27-1.168,3.504-1.707,7.188c-0.54,3.594-1.438,7.187-1.977,7.816c-0.808,0.989-0.719,1.528,0.27,2.157
	c0.719,0.449,0.988,0.808,0.629,0.808c-0.36,0,0,0.809,0.808,1.707c1.168,1.438,1.887,1.528,3.684,0.899
	c2.695-1.078,4.672-0.45,4.672,1.348c0,0.898,0.54,1.168,1.348,0.898c0.719-0.36,1.976-0.09,2.695,0.54
	c1.168,0.987,1.797,0.898,3.594,0c1.258-0.63,2.246-1.528,2.246-1.977c0-1.258,2.426-3.415,3.055-2.786
	c0.27,0.36,0.54-0.09,0.54-0.898c0-0.899,0.359-1.528,0.718-1.528c0.719,0,2.875-3.863,2.875-4.941c0-0.27-0.629-0.45-1.437-0.45
	c-0.72,0-1.079,0.45-0.72,0.989c0.36,0.719,0,0.719-1.347,0c-0.988-0.63-1.887-0.719-1.887-0.36c0,0.36-0.539,0.09-1.168-0.718
	c-0.629-0.809-1.617-1.618-2.336-1.797c-1.258-0.45-1.707-1.797-2.066-6.2c-0.09-1.258-0.54-2.785-0.989-3.414
	c-0.539-0.719-0.539-1.078,0.18-1.078c0.629,0,0.719-0.719,0.09-2.156c-0.45-1.168-0.629-2.336-0.36-2.516
	c0.18-0.27-0.628-1.528-1.796-2.785c-1.348-1.528-1.797-2.516-1.168-2.786c0.808-0.27,0.808-0.629,0-1.168
	c-1.079-0.808-3.954-6.828-4.403-9.254c-0.18-0.719-0.988-1.797-1.797-2.426c-0.898-0.629-1.258-1.168-0.808-1.168
	c0.359,0-0.45-1.078-1.887-2.336c-1.438-1.348-1.977-2.066-1.258-1.617c0.719,0.36,0-0.63-1.528-2.246
	c-2.066-2.067-4.043-3.055-6.738-3.325c-2.067-0.27-4.133-0.718-4.492-0.898c-1.168-0.719-10.602,1.437-10.602,2.426
	c0,0.449-0.81,0.808-1.887,0.808c-0.989,0-1.528,0.36-1.258,0.899c0.27,0.45,0.18,0.898-0.27,0.898
	c-0.539,0-0.808-1.347-0.629-3.054c0.27-2.696,0.09-2.965-1.617-2.516c-1.078,0.27-1.707,0.09-1.348-0.27
	c0.36-0.449,0.27-1.258-0.27-1.976c-0.538-0.63-0.808-1.977-0.538-2.965c0.27-0.989,0.09-1.977-0.36-2.247
	c-0.449-0.359-0.539-1.976-0.27-3.683c0.36-2.336,0.18-3.055-0.898-3.055c-1.796,0-1.886-2.156-0.09-3.594
	c0.72-0.629,1.348-1.527,1.348-1.977c0-0.539-0.539-0.539-1.258,0.09c-0.988,0.809-1.347,0.63-1.707-0.808
	c-0.359-1.528-0.808-1.707-2.875-0.899c-1.527,0.63-2.156,0.63-1.797,0c0.36-0.539-1.347-0.898-4.312-0.898
	C-238.646,364.926-239.545,365.196-240.802,367.172L-240.802,367.172z M-226.067,368.52c-0.001,0.496-0.403,0.897-0.898,0.898
	c-0.45,0-0.899-0.45-0.899-0.898c0.001-0.496,0.403-0.898,0.899-0.899C-226.426,367.621-226.067,367.981-226.067,368.52z
	 M-226.875,372.742c-0.719,1.348-0.899,1.348-0.989,0.18c0-1.527,0.899-2.875,1.618-2.246c0.18,0.27-0.09,1.168-0.63,2.066H-226.875
	z M-205.941,395.384c0.27,0.45-0.27,0.988-1.168,1.258c-1.258,0.27-1.617,0.09-1.258-0.809c0.54-1.437,1.707-1.617,2.426-0.45
	V395.384z M-211.151,396.821c0.358,0.81-0.27,2.157-1.528,3.235s-2.247,1.438-2.426,0.898c-0.18-0.539-0.899-0.988-1.617-0.988
	c-1.977,0-1.438-1.258,1.257-2.875c3.055-1.977,3.684-1.977,4.313-0.27H-211.151z M-195.608,400.505
	c-1.348,1.617-1.977,1.168-1.168-0.898c0.27-0.809,0.898-1.168,1.437-0.899c0.45,0.27,0.36,1.078-0.27,1.797H-195.608z
	 M-201.808,400.055c0,0.54,0.63,1.528,1.348,2.337c2.066,2.066,0.988,2.606-4.133,2.066c-5.48-0.539-6.47-1.976-2.875-3.953
	C-204.503,398.888-201.808,398.708-201.808,400.055z M-192.733,402.212c-0.09,1.348-2.157,1.078-2.606-0.27
	c-0.27-0.808,0.18-1.167,1.078-0.898C-193.362,401.134-192.733,401.674-192.733,402.212z M-198.573,450.011
	c-0.899,0.898-1.707-0.45-0.899-1.617c0.54-0.989,0.719-0.989,1.078,0c0.18,0.629,0.09,1.347-0.18,1.617H-198.573z
	 M-183.389,467.351c0.27,0.45,0.18,0.899-0.36,0.899c-0.449,0-1.527,0.27-2.425,0.629c-1.438,0.539-1.528,0.45-0.36-0.899
	C-185.006,466.273-184.198,466.094-183.389,467.351L-183.389,467.351z M-157.783,396.372c1.079,0.719,0.989,0.899-0.629,0.899
	c-1.078,0-2.246-0.45-2.515-0.899C-161.647,395.204-159.58,395.204-157.783,396.372z M-159.31,398.978
	c1.168,0.449,2.426,1.707,2.695,2.695c0.45,1.797,0.18,1.887-4.133,1.617c-2.605-0.18-4.762-0.449-4.851-0.628
	c-0.09-0.27,0-1.348,0.27-2.516C-164.701,397.989-162.904,397.63-159.31,398.978z M-221.484,367.262c0,0.988,0.27,1.258,0.539,0.539
	c0.27-0.63,0.18-1.438-0.09-1.707c-0.27-0.36-0.54,0.18-0.45,1.168H-221.484z M-155.357,366.542c-1.976,0.45-1.887,1.618,0.36,4.763
	c1.707,2.426,2.336,4.043,2.515,6.559c0.09,0.36,0.63,0.539,1.348,0.27c0.629-0.27,1.707,0,2.246,0.538
	c0.54,0.54,0.989,0.63,1.078,0.09c0-0.45,0.18-2.516,0.45-4.672c0.808-6.11,0.09-7.817-3.504-7.817c-1.618,0-3.684,0.09-4.493,0.27
	V366.542z M-220.676,376.516c0,0.539,0.36,1.078,0.719,1.348c0.45,0.27,0.809-0.09,0.809-0.809s-0.36-1.348-0.809-1.348
	C-220.317,375.707-220.676,376.067-220.676,376.516z M-151.044,381.368c-0.27,0.629-0.18,2.156,0.27,3.324
	c0.808,2.156,0.808,2.156,1.257,0.18c0.36-1.078,0.18-1.797-0.27-1.438c-0.448,0.27-0.808,0.09-0.808-0.449
	c0-0.45,0.45-0.988,1.078-1.168c0.809-0.27,0.809-0.54,0-1.078C-150.146,380.379-150.775,380.649-151.044,381.368z
	 M-148.798,388.016c0,1.887,0.27,2.157,0.809,1.258c0.449-0.719,0.629-1.797,0.36-2.515
	C-148.349,384.872-148.798,385.411-148.798,388.016z M-205.042,413.623c-0.27,0.45,1.168,0.719,3.234,0.719
	c2.067,0,3.504,0.36,3.235,0.808c-0.36,0.45,0.18,0.63,1.078,0.36c0.898-0.18,1.707-0.989,1.707-1.707
	c0-0.989-1.078-1.258-4.492-1.079C-202.706,412.904-204.863,413.264-205.042,413.623z M-209.175,439.229
	c0.629,0.27,1.437,0.18,1.707-0.09c0.36-0.269-0.18-0.539-1.168-0.449c-0.989,0-1.258,0.27-0.54,0.54L-209.175,439.229z
	 M-163.623,464.656c-0.27,0.45-0.27,0.899,0.09,0.899c0.27,0-0.36,0.808-1.527,1.797c-1.707,1.347-1.797,1.707-0.72,1.796
	c1.438,0,2.337-1.168,2.427-3.054c0-0.45,0.539-1.168,1.258-1.528c0.808-0.539,0.808-0.808,0.09-0.808
	C-162.545,463.758-163.353,464.117-163.623,464.656z"/>
</svg>
