<?xml version="1.0" encoding="iso-8859-1"?>
<!-- Generator: Adobe Illustrator 19.0.0, SVG Export Plug-In . SVG Version: 6.00 Build 0)  -->
<svg version="1.2" baseProfile="tiny" id="Layer_1" xmlns="http://www.w3.org/2000/svg" xmlns:xlink="http://www.w3.org/1999/xlink"
	 x="0px" y="0px" viewBox="-247 368.89 100 104" xml:space="preserve">
<title>face_00035</title>
<path d="M-211.368,369.662c-15.96,0.451-16.862,0.632-21.37,2.976c-4.509,2.344-10.822,9.288-12.354,13.616
	c-0.27,0.902-0.992,16.23-1.443,33.994c-0.901,35.438-0.721,37.512,4.148,43.824c1.353,1.803,4.419,4.057,7.034,5.23
	c4.418,2.074,5.86,2.164,37.51,2.705c32.823,0.631,32.913,0.631,37.242-1.353c4.418-2.074,8.205-6.131,11.271-12.173
	c1.713-3.426,1.894-5.5,2.164-36.52c0.27-30.748,0.18-33.182-1.443-37.42c-3.065-7.755-6.761-12.264-11.991-14.518
	c-3.067-1.353-17.224-1.443-50.768-0.36V369.662z M-210.466,399.419c1.533,1.623,3.426,2.705,4.87,2.705
	c3.606,0,2.794,1.353-2.075,3.427l-4.418,1.803l-2.345-2.435c-2.164-2.254-3.065-6.222-1.713-7.574
	c1.263-1.262,3.246-0.541,5.68,2.074H-210.466z M-175.48,398.878c1.533,0.992,1.353,7.664-0.18,8.296
	c-0.721,0.27-3.697-0.18-6.492-0.992c-4.238-1.173-5.23-1.263-5.861-0.27c-1.082,1.622-2.615,7.123-2.615,9.287
	c0,0.992-0.632,2.975-1.353,4.418c-1.172,2.164-1.172,2.796-0.27,3.427c0.63,0.36,1.442,0.721,1.713,0.721
	c1.082,0,1.443,3.156,0.721,5.23c-0.36,1.082-2.164,2.525-3.967,3.246c-2.796,1.172-3.156,1.713-3.156,4.599
	c0,2.435,0.45,3.426,2.074,4.058c1.082,0.45,3.156,1.623,4.688,2.615c1.984,1.352,3.517,1.713,5.862,1.352
	c2.074-0.27,3.787,0,4.959,0.812c1.713,1.352,1.713,1.352-0.45,2.254c-3.788,1.443-10.912,2.795-18.576,3.336
	c-6.853,0.541-7.484,0.451-9.558-1.533c-1.263-1.082-2.525-2.975-2.886-3.967c-0.54-1.623,0.09-2.254,4.148-4.238
	c8.747-4.148,10.28-6.943,7.394-13.706c-1.352-3.246-1.262-3.697,0.631-8.657c2.255-6.041,1.894-10.28-1.082-12.353
	c-0.992-0.631-1.713-1.894-1.533-2.615c0.361-1.803,6.853-4.058,10.19-3.427c1.713,0.27,3.697-0.18,5.32-1.172
	c2.615-1.533,8.296-1.984,10.28-0.721L-175.48,398.878z"/>
</svg>
