<?xml version="1.0" encoding="iso-8859-1"?>
<!-- Generator: Adobe Illustrator 19.0.0, SVG Export Plug-In . SVG Version: 6.00 Build 0)  -->
<svg version="1.2" baseProfile="tiny" id="Layer_1" xmlns="http://www.w3.org/2000/svg" xmlns:xlink="http://www.w3.org/1999/xlink"
	 x="0px" y="0px" viewBox="-247 371.89 100 98" xml:space="preserve">
<title>face_00060</title>
<path d="M-198.119,374.998c-1.713,1.65-5.267,4.822-7.868,7.106c-5.203,4.632-6.79,6.028-10.85,9.772
	c-1.587,1.396-5.013,4.441-7.615,6.726c-2.601,2.284-5.076,4.378-5.456,4.759c-0.381,0.317-2.92,2.601-5.711,5.076
	c-2.728,2.41-6.409,5.774-8.122,7.424l-3.236,2.982l7.043,7.17c3.87,3.934,8.883,9.137,11.168,11.612
	c10.976,11.992,20.685,22.398,22.398,24.111c1.015,1.079,3.173,3.363,4.696,5.013l2.728,3.046l2.919-2.792
	c1.586-1.46,3.49-3.3,4.251-3.998c0.762-0.698,4.125-3.807,7.36-6.98c5.584-5.33,19.29-18.083,22.462-20.939
	c10.724-9.454,14.912-13.451,14.912-14.086c0-0.317-4.188-4.822-9.328-10.089c-5.203-5.203-15.863-16.116-23.73-24.238
	c-7.932-8.123-14.469-14.721-14.596-14.721S-196.344,373.348-198.119,374.998L-198.119,374.998z M-190.188,416.368
	c3.808,7.487,6.853,13.706,6.726,13.77c-0.57,0.634-14.15,1.522-17.83,1.205c-10.85-0.952-11.23-1.079-10.85-2.538
	c0.19-0.698,2.284-5.076,4.696-9.581c2.41-4.569,5.33-10.216,6.472-12.564c1.332-2.601,2.538-4.251,3.045-4.124
	C-197.421,402.663-193.931,408.881-190.188,416.368z M-170.898,408.246c-0.19,0.825-1.587,3.807-3.046,6.726
	c-2.601,5.203-2.665,5.267-3.934,4.125c-0.698-0.635-2.411-2.856-3.807-4.886c-1.333-2.094-2.728-4.125-3.11-4.569
	c-1.014-1.396,0.128-1.776,5.902-2.03c3.046-0.127,5.837-0.317,6.155-0.444C-171.025,406.533-170.454,406.914-170.898,408.246z
	 M-210.492,408.564c0,0.761-6.726,9.708-7.297,9.708s-4.124-5.267-4.124-6.155c0-0.254-0.445-0.888-1.016-1.523
	c-2.094-2.284-0.825-2.792,6.028-2.601C-213.411,408.119-210.492,408.373-210.492,408.564L-210.492,408.564z M-184.477,438.069
	c0,0.253-1.523,2.22-3.363,4.441s-4.315,5.267-5.52,6.853c-1.206,1.586-2.792,3.3-3.427,3.87c-1.142,0.952-1.332,0.889-2.855-0.57
	c-2.157-2.094-12.12-14.214-12.12-14.658c0-0.19,6.156-0.38,13.643-0.38S-184.477,437.815-184.477,438.069z"/>
</svg>
