<?xml version="1.0" encoding="iso-8859-1"?>
<!-- Generator: Adobe Illustrator 19.0.0, SVG Export Plug-In . SVG Version: 6.00 Build 0)  -->
<svg version="1.2" baseProfile="tiny" id="Layer_1" xmlns="http://www.w3.org/2000/svg" xmlns:xlink="http://www.w3.org/1999/xlink"
	 x="0px" y="0px" viewBox="-247 366.89 100 108" xml:space="preserve">
<title>face_00059</title>
<path d="M-237.647,370.688c-2.333,2.015-5.408,5.939-6.787,8.696c-2.44,4.772-2.545,6.15-2.545,24.708
	c0,18.24,0.212,20.467,2.97,30.753c1.695,6.045,4.77,14.528,6.785,18.876c4.984,10.18,9.862,13.892,24.496,18.452
	c14.21,4.348,32.874,0.954,47.402-8.802c7.53-5.09,14.316-12.62,14.316-16.013c0-0.848,0.424-1.908,0.955-2.545
	c0.636-0.53,1.696-5.408,2.333-10.816c2.65-19.512-2.333-42.312-10.817-49.417c-1.803-1.485-4.454-3.075-5.832-3.393
	c-6.787-1.697-16.543,2.969-21.421,10.18c-3.288,4.878-6.363,15.8-7.317,25.98c-0.743,7.636-1.06,8.484-3.182,8.802
	c-2.545,0.425-2.97-1.06-4.03-13.573c-1.696-20.997-5.302-33.192-11.877-39.449c-3.711-3.5-10.816-6.15-16.648-6.15
	C-232.452,366.977-234.255,367.719-237.647,370.688L-237.647,370.688z M-221.953,371.748c7.53,2.652,11.135,7.318,14.529,18.558
	c2.65,8.802,4.56,33.935,2.545,33.935c-3.076,0-4.348-5.727-2.333-9.65c0.848-1.591,0.742-2.015-0.425-2.015
	c-2.014,0-4.878,4.03-4.878,6.999s3.924,7.847,6.363,7.847c2.12,0,3.181,2.015,3.181,6.363c0,3.923-2.227,5.09-10.498,5.938
	c-8.696,0.955-9.438,1.59-6.575,5.515c2.97,4.241,8.908,8.801,15.907,12.407c4.878,2.439,6.68,2.757,11.135,2.227
	c6.256-0.743,14.634-4.666,19.618-9.226c4.454-4.03,3.817-4.878-7.317-9.332c-7.954-3.181-7.954-3.181-7.954-7.105
	c0-3.181,0.425-4.136,2.121-4.666c9.226-2.44,9.65-10.817,0.849-14.422c-2.015-0.848-3.5-2.121-3.182-2.863
	c0.212-0.743,1.273-4.878,2.44-9.226c1.696-6.787,2.756-8.59,7.104-12.938c4.666-4.56,5.62-5.09,9.968-5.09
	c4.454,0,5.409,0.53,9.226,4.56c6.363,6.575,8.272,13.68,8.908,32.132c0.53,17.179-0.742,22.905-6.893,31.389
	c-13.68,18.876-51.113,24.178-68.186,9.544c-11.347-9.65-19.3-41.889-16.968-68.717c1.168-12.831,3.076-17.71,8.484-21.421
	c4.136-2.757,6.575-2.863,12.831-0.742V371.748z M-184.943,419.468c2.015,2.122,2.333,3.182,1.485,4.56
	c-0.637,0.955-2.227,1.91-3.5,2.121c-2.015,0.319-2.227-0.106-2.227-4.453C-189.185,416.076-188.443,415.757-184.943,419.468
	L-184.943,419.468z M-193.321,435.27c0.425,3.924,0.213,5.197-0.954,5.727c-2.333,0.848-5.514-3.712-5.514-7.954
	c0-3.393,0.212-3.605,2.969-3.287c2.545,0.318,2.97,0.848,3.5,5.514H-193.321z M-198.835,443.648
	c0.636,0.848,0.955,1.697,0.636,2.015c-0.848,0.848-10.074-1.485-10.074-2.545C-208.273,441.739-200.107,442.163-198.835,443.648z
	 M-185.049,443.436c4.984,1.803,3.924,3.075-2.545,3.075c-6.257,0-6.893-0.53-3.924-2.757
	C-189.291,442.057-189.185,441.951-185.049,443.436z M-192.048,449.374c6.787,0.318,12.407,0.955,12.407,1.59
	c0,1.273-8.59,5.091-13.15,5.833c-3.923,0.637-13.997-3.711-17.285-7.423c-1.908-2.015-1.802-2.12,1.803-1.378
	C-206.258,448.42-198.941,449.056-192.048,449.374z M-223.543,392.215c-1.379,1.697-1.485,2.545-0.53,5.409
	c1.908,5.408,7.529,7.21,10.816,3.499c2.545-2.757,2.227-5.196-0.848-8.165C-217.181,389.776-220.998,389.564-223.543,392.215z
	 M-173.384,395.821c-3.606,1.166-4.348,3.923-2.333,8.165c2.015,4.03,4.984,5.09,8.271,2.863c2.651-1.696,3.5-6.15,1.803-8.695
	C-167.128,395.821-170.521,394.866-173.384,395.821z"/>
</svg>
