<?xml version="1.0" encoding="iso-8859-1"?>
<!-- Generator: Adobe Illustrator 19.0.0, SVG Export Plug-In . SVG Version: 6.00 Build 0)  -->
<svg version="1.2" baseProfile="tiny" id="Layer_1" xmlns="http://www.w3.org/2000/svg" xmlns:xlink="http://www.w3.org/1999/xlink"
	 x="0px" y="0px" viewBox="-247 365.89 100 111" xml:space="preserve">
<title>face_00069</title>
<path d="M-214.14,366.39c-0.448,0.192-2.114,2.306-3.715,4.74c-1.602,2.435-3.203,4.549-3.46,4.741
	c-0.32,0.192-1.665-1.665-3.01-4.228l-2.435-4.548l-8.648,0.384c-12.748,0.513-11.66-0.448-11.467,9.931
	c0.128,4.804,0.32,10.057,0.448,11.723l0.257,3.01l3.587,1.09c4.805,1.41,19.795,6.342,25.497,8.392l4.612,1.601l0.384,4.549
	c0.257,2.562,0.513,7.047,0.705,10.057c0.128,3.011,0.448,9.033,0.64,13.453l0.449,8.008l-10.506,3.395
	c-5.737,1.881-11.46,3.803-17.169,5.766l-6.726,2.37l-0.192,5.83c-0.192,6.598-0.256,6.47,4.997,8.2
	c1.921,0.64,4.42,1.537,5.445,1.985c1.089,0.449,4.804,1.858,8.328,3.204c3.523,1.28,9.033,3.395,12.172,4.612l5.765,2.242
	l9.289-0.32c8.2-0.256,10.058-0.513,15.695-2.37c2.579-0.802,5.142-1.657,7.687-2.563c0.705-0.32,6.47-2.178,12.813-4.164
	c12.748-3.972,14.99-4.74,15.118-5.381c0.32-1.538,0.513-9.737,0.256-11.275c-0.384-2.306-0.256-2.242-16.976-9.289
	c-6.854-2.883-13.132-5.637-13.965-6.15c-1.41-0.96-1.41-0.96-1.281-16.464l0.192-15.502l1.986-0.961
	c1.025-0.513,3.33-1.538,5.06-2.242c1.73-0.705,8.072-3.332,14.094-5.766l10.89-4.484l0.193-12.044l0.128-11.98h-19.603l-2.05,3.332
	c-1.089,1.858-2.69,4.228-3.523,5.253l-1.474,1.858l-2.177-5.255l-2.179-5.19l-17.617,0.067
	C-205.363,366.006-213.69,366.198-214.14,366.39z M-189.028,455.371c2.114,0.513,4.164,1.218,4.485,1.538
	c0.768,0.769-9.93,5.573-11.019,4.869c-0.256-0.193-3.651-0.641-7.495-1.025c-3.844-0.385-7.239-0.897-7.623-1.153
	c-0.833-0.513,13.26-5.125,15.887-5.19C-193.833,454.347-191.206,454.795-189.028,455.371z"/>
</svg>
