<?xml version="1.0" encoding="iso-8859-1"?>
<!-- Generator: Adobe Illustrator 19.0.0, SVG Export Plug-In . SVG Version: 6.00 Build 0)  -->
<svg version="1.2" baseProfile="tiny" id="Layer_1" xmlns="http://www.w3.org/2000/svg" xmlns:xlink="http://www.w3.org/1999/xlink"
	 x="0px" y="0px" viewBox="-247 367.89 100 107" xml:space="preserve">
<title>face_00108</title>
<path d="M-198.523,369.022c-3.446,1.572-5.26,4.595-4.837,8.222c0.363,3.386,1.089,4.353,4.293,5.805
	c4.776,2.176,9.31,1.209,11.185-2.358c0.665-1.33,0.605-1.391-0.726-1.028c-0.725,0.242-2.6,1.088-4.05,1.874
	c-3.144,1.753-3.084,1.753-3.084,0.363c0-1.088,4.414-4.353,5.865-4.353c0.423,0,0.786-0.242,0.786-0.605
	c0-0.665-2.48,0.181-4.414,1.512c-0.725,0.483-1.572,0.906-1.934,0.906c-0.303,0,0.302-0.544,1.45-1.27
	c1.089-0.664,1.875-1.33,1.693-1.51c-0.181-0.182-1.027,0.12-1.874,0.664c-0.967,0.665-1.572,0.786-1.572,0.363
	c0-0.363,1.27-1.27,2.902-1.995c3.507-1.693,3.446-1.632,3.023-2.056c-0.181-0.181-1.511,0.242-2.902,0.968
	c-2.902,1.511-4.05,1.088-1.814-0.665c3.023-2.298,4.898-1.995,6.046,0.967c0.424,0.967,0.544,1.028,0.544,0.181
	c0.061-0.604-0.785-1.995-1.813-3.204c-1.39-1.572-2.358-2.116-3.81-2.116c-1.208,0-1.571,0.181-1.088,0.544
	c0.605,0.363,0.605,0.605-0.12,1.21c-0.726,0.664-0.907,0.423-1.089-1.391l-0.181-2.116
	C-196.044,367.934-198.523,369.022-198.523,369.022z M-225.065,379.602c-7.435,2.116-12.394,6.349-15.538,13.18
	c-1.027,2.238-1.027,2.298,0.183,2.298c0.725,0,2.358-0.907,3.688-2.056c3.204-2.78,5.925-3.99,10.096-4.595
	c8.586-1.209,17.05,3.447,22.31,12.213l1.39,2.298h14.753l0.06-1.693c0-0.907,0.967-3.084,2.116-4.776
	c2.237-3.386,5.079-5.08,12.334-7.135c4.897-1.45,14.268-1.45,17.473-0.06c1.27,0.604,2.418,0.967,2.539,0.846
	c0.363-0.423-0.484-2.902-0.967-2.902c-0.303,0-1.875-1.209-3.628-2.66c-4.776-4.111-10.762-5.38-18.198-3.99
	c-4.414,0.846-12.394,4.897-15.962,8.101l-3.022,2.72l-3.93-3.99c-5.018-5.078-7.981-7.013-11.971-7.92
	c-3.93-0.906-10.46-0.786-13.725,0.121H-225.065z M-225.246,395.08c-4.353,2.297-5.32,3.325-6.53,6.409
	c-1.632,4.232-0.483,8.645,2.963,11.668c0.907,0.786,1.632,1.633,1.632,1.875c0,0.241-1.27,0.665-2.841,0.906
	c-3.99,0.545-9.674,4.051-12.455,7.618c-6.348,8.162-5.925,17.231,1.088,23.398c3.628,3.144,6.107,3.99,11.185,3.628
	c3.507-0.242,4.656-0.665,7.618-2.66c3.507-2.358,6.409-6.107,7.134-9.311c0.182-0.847-0.181-0.363-0.846,1.028
	c-1.511,3.204-5.683,7.678-6.771,7.255c-0.484-0.121-0.726-0.968-0.605-1.995c0.181-1.754,5.26-12.697,7.013-15.055
	c0.847-1.149,0.907-1.149,1.27,0.484c0.302,1.088,0.12,2.116-0.544,3.083c-0.847,1.33-0.847,1.512,0,1.814
	c0.544,0.181,1.088,0.363,1.27,0.363c0.18,0,0.18-1.814,0.06-4.111c-0.363-6.772-3.81-12.274-9.13-14.632
	c-1.571-0.725-2.841-1.39-2.841-1.572c0-0.18,1.088-0.18,2.418,0.06c5.744,0.968,12.878-3.385,14.269-8.705
	c1.572-5.865-3.084-11.971-9.855-13C-221.558,393.388-222.767,393.689-225.246,395.08z M-173.614,396.47
	c-3.506,1.935-7.98,6.59-7.315,7.618c0.181,0.303,0.06,0.726-0.242,0.907c-0.605,0.424,0.423,5.018,1.39,6.288
	c5.14,6.53,11.85,7.92,18.017,3.628c3.447-2.419,5.26-9.07,3.507-13c-1.33-2.901-2.54-3.99-6.227-5.561
	C-168.172,394.778-170.591,394.838-173.614,396.47z M-203.118,409.289c-0.12,1.149,0,2.358,0.242,2.6
	c0.544,0.544,0.786,16.687,0.242,17.593c-0.182,0.303-1.512,0.363-2.963,0.242c-3.446-0.423-4.897,0.423-5.743,3.205
	c-1.451,4.776,1.813,9.855,8.283,12.817c2.841,1.33,4.232,1.572,8.827,1.572c4.897,0,5.743-0.181,8.706-1.753
	c1.814-0.968,3.809-2.66,4.534-3.749c0.726-1.088,1.451-1.995,1.693-1.995s1.149,1.088,2.116,2.358
	c4.958,6.953,15.72,8.162,23.882,2.781c2.841-1.874,4.957-5.925,5.864-11.245c0.605-3.688,0.544-4.293-0.665-6.953
	c-0.665-1.633-1.27-3.265-1.209-3.567c0.121-0.847-5.018-3.87-7.678-4.474c-2.842-0.605-13.664,0.665-16.082,1.874
	c-2.117,1.149-3.93,3.023-5.684,5.925c-1.209,2.056-1.27,2.056-5.804,2.116h-4.533l-0.303-1.814
	c-0.18-1.028-0.241-5.683-0.18-10.399c0.12-6.771,0-8.706-0.606-8.948c-0.483-0.181-3.506-0.302-6.771-0.302h-5.925
	L-203.118,409.289L-203.118,409.289z M-186.189,448.95c-0.605,0.303-1.088,0.424-1.088,0.242c0-0.604-4.354,2.177-5.502,3.446
	c-1.27,1.391-2.056,1.391-4.051-0.06c-0.907-0.605-3.083-1.572-4.837-2.177c-2.72-0.846-3.627-0.906-5.804-0.302
	c-1.39,0.363-2.781,0.605-3.083,0.544c-0.726-0.181-1.754,0.242-8.525,3.446c-3.023,1.391-6.227,2.782-7.195,3.023l-1.693,0.424
	l3.023,2.78c8.283,7.68,13.846,11.428,19.529,13.302c4.353,1.45,6.71,1.572,13.905,0.604c2.842-0.362,5.986-0.665,6.953-0.725
	c1.028-0.06,2.116-0.423,2.419-0.786c0.362-0.363,2.055-1.149,3.869-1.693c1.814-0.605,4.232-1.753,5.441-2.66
	c3.567-2.6,11.548-11.125,11.548-12.394c0-0.726-7.557-4.051-13.603-5.986C-180.506,448.225-184.375,447.862-186.189,448.95z
	 M-192.417,371.501c-0.18,0.302-0.967,0.907-1.692,1.27c-1.27,0.604-1.27,0.544,0.12-0.605
	C-192.477,370.776-191.812,370.533-192.417,371.501z M-196.95,373.435c0,0.363-0.423,0.303-0.907-0.12
	c-0.484-0.424-0.907-1.028-0.907-1.33c0-0.363,0.423-0.303,0.907,0.12C-197.373,372.529-196.95,373.133-196.95,373.435z
	 M-198.461,373.919c0.967,0.967,1.45,1.814,1.148,1.814c-0.362,0-1.39-0.847-2.358-1.814c-0.967-1.028-1.45-1.814-1.148-1.814
	C-200.457,372.105-199.429,372.891-198.461,373.919z M-197.434,377.244c1.21,1.572,0.242,1.451-1.934-0.302
	c-1.33-1.028-2.419-2.358-2.419-2.902c0-0.725,0.484-0.484,1.935,0.846C-198.764,375.854-197.675,376.882-197.434,377.244z
	 M-196.95,380.388c0,0.847-0.967,1.089-1.33,0.303c-0.121-0.242-0.907-1.089-1.874-1.875c-2.237-1.995-2.116-0.423,0.12,1.814
	c1.875,1.874,1.875,2.116,0.061,1.149c-1.632-0.847-2.54-2.842-2.116-4.293c0.363-1.088,0.484-1.088,2.781,0.484
	C-198.038,378.937-196.95,380.026-196.95,380.388z M-189.453,381.778c-0.665,0.666-4.474,1.936-4.474,1.512
	c0-0.181,0.726-0.665,1.693-1.148C-190.299,381.053-188.546,380.872-189.453,381.778L-189.453,381.778z M-219.019,383.29
	c1.754,3.386,3.326,5.32,3.326,4.051c0-0.363-0.303-0.846-0.605-1.028c-0.363-0.241-1.27-1.753-2.056-3.385
	c-1.27-2.6-1.33-2.963-0.483-2.963c0.665,0,1.45,1.028,2.116,2.902c0.604,1.572,1.511,3.567,1.995,4.474
	c1.149,2.177,1.088,2.358-0.786,1.572c-2.479-1.028-3.809-2.297-5.744-5.26c-1.995-3.144-2.055-3.688-0.604-3.688
	C-221.195,379.965-220.167,381.175-219.019,383.29z M-213.638,383.714c0.544,2.116,1.149,4.413,1.33,5.139
	c0.242,0.846,0.121,1.39-0.302,1.39c-0.363,0-0.665-0.483-0.665-1.088s-0.242-1.33-0.484-1.693
	c-0.302-0.302-1.028-1.753-1.632-3.265c-0.544-1.511-1.149-3.083-1.33-3.506c-0.182-0.424,0.181-0.726,0.907-0.726
	C-214.847,379.965-214.424,380.691-213.638,383.714z M-210.373,385.286c0.363,2.539,0.907,5.32,1.088,6.106
	c0.303,1.088,0.242,1.33-0.302,1.028c-0.846-0.544-1.693-2.54-2.842-6.893c-1.148-4.413-1.088-5.501,0.242-5.139
	C-211.34,380.57-210.917,381.718-210.373,385.286z M-221.981,384.016l2.055,3.204h-2.054c-2.237,0-7.013-3.083-7.013-4.534
	c0-1.754,2.357-0.907,4.474,1.632c1.148,1.451,2.237,2.419,2.478,2.177c0.182-0.182-0.604-1.39-1.753-2.66
	c-2.358-2.6-2.72-3.447-1.21-3.144c0.545,0.12,1.936,1.632,3.024,3.325H-221.981z M-206.564,382.565
	c1.572,1.33,1.572,1.45,1.33,7.497c-0.363,7.134-1.39,8.404-1.45,1.814c0-2.358-0.243-5.442-0.545-6.772
	c-0.423-1.814-0.484-0.907-0.302,3.567c0.181,3.326,0.06,5.744-0.242,5.442c-0.484-0.545-2.48-9.976-2.48-11.91
	C-210.253,380.751-208.438,380.933-206.564,382.565z M-175.488,383.955c-1.209,1.572-2.54,3.568-3.023,4.474
	c-0.483,0.907-1.995,2.237-3.325,2.963c-2.781,1.451-3.749,1.632-2.298,0.484c1.15-0.847,2.237-5.079,1.15-4.414
	c-0.364,0.242-0.666,0.967-0.666,1.572s-0.181,1.27-0.484,1.451c-0.241,0.121-0.362-0.846-0.302-2.237
	c0.06-1.632-0.181-1.028-0.665,1.693c-0.423,2.297-1.088,4.897-1.572,5.744l-0.846,1.511l-0.363-1.511
	c-0.302-1.21-0.484-0.786-0.846,1.753c-0.545,4.111-0.726,4.474-2.237,3.627c-1.089-0.544-1.15-1.027-0.786-5.26
	c0.544-6.771,0.665-7.436,1.874-8.343c1.753-1.33,1.995-1.028,2.055,2.298l0.121,3.204l0.363-3.507
	c0.363-3.325,1.33-4.897,2.72-4.474c0.364,0.121,1.089-0.302,1.754-0.967c1.39-1.39,1.995-0.967,1.028,0.786
	c-0.363,0.725-0.605,1.45-0.423,1.572c0.181,0.181,0.786-0.726,1.45-1.995c0.726-1.39,1.694-2.358,2.48-2.48
	c1.753-0.241,1.692,0-0.847,3.568c-1.149,1.693-1.995,3.204-1.874,3.386c0.181,0.181,0.786-0.484,1.39-1.451
	c2.177-3.447,4.595-6.228,5.442-6.228C-173.674,381.174-174.158,382.202-175.488,383.955z M-169.079,381.597
	c-0.423,0.182-1.814,1.452-3.023,2.782c-3.628,4.11-4.837,5.26-5.502,5.26c-1.028,0-0.665-0.665,2.54-4.777
	c2.539-3.204,3.143-3.688,4.836-3.627C-169.14,381.235-168.595,381.416-169.079,381.597z M-168.354,383.834
	c-1.572,1.089-2.962,2.298-3.083,2.721s1.088-0.242,2.781-1.39c2.056-1.512,3.628-2.177,5.018-2.116h2.056l-2.66,0.846
	c-1.451,0.423-3.386,1.572-4.293,2.418c-0.907,0.907-2.056,1.512-2.479,1.451c-0.484-0.06-1.33,0.06-1.935,0.363
	c-0.604,0.242-1.209,0.302-1.33,0.182c-0.423-0.424,5.26-5.926,6.167-5.926c0.423,0,0.786-0.241,0.786-0.604
	c0-0.302,0.423-0.423,0.907-0.242C-165.814,381.779-166.359,382.444-168.354,383.834z M-226.576,387.1
	c-0.847,0.303-4.897-2.962-4.474-3.567c0.181-0.302,1.39,0.363,2.66,1.39C-227.06,386.012-226.274,386.979-226.576,387.1z
	 M-162.006,385.045c-1.209,0.362-2.6,1.028-3.022,1.45c-0.363,0.363-1.27,0.726-1.935,0.726c-0.967,0-1.028-0.181-0.484-0.786
	c1.028-1.028,4.353-2.176,6.167-2.116C-160.07,384.319-160.192,384.44-162.006,385.045L-162.006,385.045z M-230.264,386.073
	c0.786,0.665,1.33,1.33,1.149,1.45c-0.484,0.484-4.716-1.45-4.716-2.116C-233.831,384.38-231.776,384.742-230.264,386.073z
	 M-203.239,387.947c-0.181,1.753-0.363,4.957-0.423,7.134c-0.06,2.842-0.181,3.446-0.484,2.116
	c-0.241-1.028-0.362-2.842-0.362-4.111c0.06-1.21,0.181-3.628,0.181-5.26c0.06-1.814,0.423-3.023,0.786-3.023
	C-203.057,384.803-202.936,385.77-203.239,387.947z M-159.466,386.617c-0.847,0.241-2.177,0.483-3.023,0.544
	c-1.21,0.06-1.33-0.06-0.605-0.544c0.484-0.303,1.875-0.544,3.023-0.544C-158.136,386.133-158.076,386.193-159.466,386.617z
	 M-232.562,387.524c1.996,0.846,1.996,0.846,0.424,0.906c-1.935,0-3.507-0.544-3.507-1.27
	C-235.645,386.375-234.859,386.496-232.562,387.524z M-200.639,387.464c0.423,0.483,0.484,1.027,0.181,1.208
	c-0.544,0.303-1.148,3.567-1.692,9.13c-0.424,4.232-0.847,4.171-0.847-0.121c0-4.958,0.665-11.064,1.21-11.064
	C-201.546,386.617-201.002,386.979-200.639,387.464L-200.639,387.464z M-235.04,389.033c0.725,0.484,0.544,0.605-0.726,0.605
	c-0.967,0-1.693-0.303-1.693-0.605C-237.459,388.247-236.249,388.247-235.04,389.033z M-199.128,390.061
	c-0.241,0.604-0.544,2.176-0.604,3.506l-0.181,2.419l0.604-2.419c1.028-4.11,1.935-4.11,1.33,0
	c-0.242,1.996-0.483,4.656-0.423,5.865c0,3.446-1.451,2.963-1.753-0.605l-0.182-2.841l-0.181,3.325
	c-0.06,2.54-0.242,3.084-0.726,2.298c-0.544-1.028,0.242-10.823,1.028-12.092C-199.611,388.549-198.644,389.033-199.128,390.061z
	 M-192.538,390.968c-0.967,1.27-1.995,5.562-1.995,8.283c0,1.33-0.241,2.479-0.544,2.479c-0.665,0-1.45-2.903-0.967-3.628
	c0.242-0.363,0.12-0.605-0.242-0.605c-0.302,0-0.725,1.028-0.846,2.237c-0.121,1.451-0.242,0.786-0.303-1.753
	c-0.12-4.172,0.242-5.925,1.15-5.925c0.301,0,0.422,1.149,0.24,2.54c-0.24,2.115-0.18,2.297,0.243,0.725
	c0.483-1.935,3.083-5.865,3.567-5.381c0.181,0.12,0,0.605-0.302,1.028H-192.538z M-236.552,391.451
	c-0.181,0.303-0.786,0.605-1.27,0.605c-0.483,0-0.846-0.302-0.846-0.605c0-0.362,0.544-0.604,1.27-0.604
	C-236.733,390.847-236.371,391.089-236.552,391.451z M-192.719,397.497l-0.423,4.535l-0.12-3.749
	c-0.061-3.204,0.362-6.046,0.845-5.501C-192.356,392.902-192.477,395.019-192.719,397.497z M-220.107,397.921
	c-0.181,0.604-0.302,0.12-0.302-1.028c0-1.149,0.12-1.633,0.302-1.089C-219.986,396.409-219.986,397.376-220.107,397.921z
	 M-216.117,395.744c1.814,0.967,1.814,0.967,1.089,1.874c-0.363,0.423-1.21,1.451-1.935,2.298l-1.21,1.511l0.364-1.814
	c0.18-1.027,0.483-2.357,0.725-3.023l0.302-1.209l-0.967,1.21c-0.484,0.665-0.967,1.813-0.967,2.6c0,0.785-0.242,1.269-0.545,1.087
	c-0.604-0.423,0.605-5.199,1.33-5.199C-217.689,395.079-216.842,395.381-216.117,395.744z M-223.432,399.614
	c-0.182,0.302-0.665-0.242-1.088-1.21c-0.424-1.028-0.605-2.055-0.424-2.358c0.484-0.725,1.935,2.781,1.512,3.567V399.614z
	 M-221.982,396.409c-0.241-0.363-0.12-0.725,0.182-0.725c0.363,0,0.665,0.725,0.665,1.632c0,1.511,0,1.572-1.209,0.484
	c-1.451-1.33-1.632-2.6-0.181-1.451C-221.86,396.953-221.679,396.953-221.982,396.409L-221.982,396.409z M-225.427,398.223
	c0.362,0.967,0.241,1.511-0.363,1.874c-0.907,0.544-2.6-0.484-2.6-1.572c0-0.302,0.544-0.12,1.21,0.484
	c0.664,0.604,1.208,0.786,1.208,0.423c0-0.363-0.241-0.846-0.604-1.028c-0.786-0.483-0.786-1.511,0-1.511
	C-226.213,396.893-225.73,397.497-225.427,398.223z M-212.973,398.102c0.363,0.605-1.874,2.962-2.841,3.023
	c-0.544,0,0.06-1.753,0.907-2.902C-214.182,397.316-213.457,397.256-212.973,398.102z M-227.846,400.581
	c0.786,0.665,1.33,1.27,1.21,1.45c-0.424,0.424-3.144-1.148-3.447-1.994C-230.446,398.948-229.539,399.19-227.846,400.581z
	 M-210.978,400.399c0.121,0.363-0.544,0.847-1.511,1.089c-0.907,0.242-1.995,0.665-2.418,0.967
	c-0.424,0.363-1.028,0.484-1.451,0.363c-0.726-0.242,3.688-3.446,4.534-3.265C-211.461,399.613-211.159,399.976-210.978,400.399z
	 M-219.684,402.274c1.995,1.693,0.242,4.897-2.66,4.897c-3.144,0-3.87-2.177-1.572-4.535
	C-222.404,401.125-221.196,401.004-219.684,402.274z M-228.692,402.455c2.055,0.907,1.935,1.572-0.302,1.21
	c-1.028-0.122-1.814-0.605-1.814-1.09C-230.808,401.548-230.688,401.548-228.692,402.455z M-210.252,402.274
	c0,0.665-1.028,1.027-4.232,1.511l-2.116,0.363l2.418-1.149C-211.462,401.669-210.252,401.488-210.252,402.274z M-228.692,404.692
	c1.028,0.423,0.967,0.544-0.605,0.786c-1.995,0.423-2.902,0.12-2.418-0.786C-231.292,404.027-230.385,404.027-228.692,404.692z
	 M-210.252,405.055c0,0.725-0.786,0.907-3.446,0.846l-3.507-0.06l2.418-0.786C-211.522,403.967-210.252,403.967-210.252,405.055z
	 M-228.088,406.566c-0.181,0.303-1.088,0.605-1.995,0.544l-1.632-0.06l1.511-0.484
	C-228.088,405.901-227.664,405.901-228.088,406.566z M-210.857,407.534c0,0.725-0.362,0.907-1.33,0.544
	c-0.786-0.182-2.176-0.605-3.204-0.907c-1.572-0.423-1.39-0.484,1.39-0.544C-211.461,406.567-210.857,406.747-210.857,407.534z
	 M-226.878,407.775c-0.182,0.303-0.786,0.605-1.27,0.605c-0.484,0-0.846,0.242-0.846,0.605c0,0.302,0.302,0.544,0.665,0.423
	c0.362-0.06,0.846,0.302,0.967,0.786c0.242,0.725,0.181,0.725-0.302,0.06c-0.424-0.544-0.726-0.604-0.968-0.12
	c-0.242,0.362-0.12,0.664,0.242,0.664c0.363,0,0.484,0.303,0.302,0.605c-0.241,0.423-0.846,0.12-1.572-0.665
	c-1.511-1.753-1.45-1.995,0.545-2.781C-226.939,407.11-226.455,407.05-226.878,407.775z M-212.126,409.287
	c0.12,0.181,0,0.605-0.363,0.967c-0.484,0.484-1.33,0.303-3.144-0.725c-1.39-0.726-2.479-1.572-2.479-1.814
	C-218.112,407.292-212.731,408.682-212.126,409.287z M-218.958,413.035c0.181-0.18-0.121-1.148-0.665-2.176
	c-1.27-2.479-0.423-2.358,1.693,0.242c0.906,1.148,1.39,2.116,1.027,2.116h-0.906c-0.182,0-1.089,0.363-2.056,0.846
	c-0.907,0.484-2.298,0.726-3.023,0.544c-1.149-0.302-1.27-0.604-0.907-2.237c0.605-2.902,1.451-3.325,1.451-0.786
	c0,1.21,0.242,2.237,0.544,2.237s0.423-1.148,0.302-2.6l-0.302-2.539l1.27,2.298C-219.805,412.31-219.08,413.217-218.958,413.035z
	 M-225.972,411.705c-0.483,1.27-0.846,1.512-1.33,1.028c-0.544-0.544-0.423-1.028,0.424-1.935
	C-225.488,409.226-225.186,409.589-225.972,411.705z M-215.512,410.617c1.572,0.846,1.753,1.088,0.786,1.27
	c-0.605,0.12-1.693-0.303-2.358-1.028C-218.656,409.347-218.112,409.226-215.512,410.617z M-224.702,413.035
	c-0.544,0.968-0.604,0.968-0.665,0.06c0-0.543,0.181-1.51,0.423-2.115c0.424-0.968,0.484-1.028,0.665-0.06
	C-224.158,411.524-224.339,412.43-224.702,413.035z M-230.627,418.175c-0.363,1.39-0.363,1.39,0.847-0.061
	c1.39-1.693,2.6-1.27,2.237,0.726l-0.303,1.33l0.726-1.39c0.423-0.787,1.27-1.331,2.116-1.331c1.632,0,2.479,1.028,1.511,1.995
	c-0.362,0.363-0.665,0.907-0.665,1.27c0,0.302,0.363,0.06,0.847-0.605c0.846-1.088,0.967-1.088,2.479-0.181
	c0.906,0.544,2.478,2.479,3.506,4.292l1.814,3.326l-1.572,2.055c-0.846,1.15-2.781,4.474-4.293,7.497
	c-2.055,3.99-2.72,4.898-2.418,3.326c0.181-1.15,0.605-2.358,0.907-2.721c0.302-0.302,0.544-0.967,0.544-1.512
	c-0.06-2.358-2.056,3.084-2.056,5.623v2.902l-1.088-1.39c-0.604-0.786-1.27-1.996-1.45-2.721c-0.364-1.451,2.055-9.25,4.836-15.478
	c0.846-1.874,1.27-3.446,1.028-3.446c-0.424,0-1.27,1.935-5.683,13.422c-0.786,2.177-1.512,3.265-1.875,2.902
	c-0.302-0.302-0.967-0.302-1.511-0.06c-0.544,0.302-1.995,0.725-3.326,0.907c-1.27,0.241-4.05,1.27-6.227,2.237
	c-2.116,0.967-3.93,1.753-4.111,1.753c-0.363,0-2.72-6.59-2.72-7.618c0-0.967,1.33-1.572,6.831-3.265
	c2.902-0.907,3.567-0.967,4.293-0.302c0.423,0.484,0.967,0.725,1.088,0.544c0.181-0.12,0.726,0.363,1.27,1.149l0.967,1.45
	l-3.809,1.029c-2.116,0.604-4.837,1.693-6.167,2.479c-3.083,1.934-2.66,1.874,2.72-0.303c4.656-1.874,8.223-2.358,8.707-1.088
	c0.121,0.423,0.423,0.605,0.665,0.363c0.242-0.182-0.604-1.935-1.935-3.87l-2.418-3.506l1.753-4.777
	c0.968-2.66,1.633-4.957,1.512-5.078c-0.363-0.363-1.753,2.962-2.419,5.502c-0.241,1.088-0.665,1.511-1.027,1.148
	c-0.726-0.725,0.967-7.315,2.297-8.766C-230.869,416.482-230.264,416.543-230.627,418.175L-230.627,418.175z M-234.254,420.653
	c-1.089,3.326-2.782,3.99-2.177,0.847c0.242-1.512,2.479-4.353,3.023-3.87C-233.348,417.751-233.71,419.081-234.254,420.653z
	 M-237.217,421.681c-0.423,1.814-0.484,1.935-1.21,0.907c-0.725-0.967-0.664-1.27,0.182-2.237
	C-236.975,418.961-236.733,419.202-237.217,421.681z M-239.514,424.04c-0.242,0.363-1.028,0.665-1.693,0.665
	c-1.27,0-1.27-0.06-0.182-1.21C-240.24,422.226-238.729,422.71-239.514,424.04z M-235.645,425.43c0,0.968-0.181,1.15-0.665,0.666
	c-0.363-0.363-0.484-0.968-0.302-1.33c0.665-1.028,0.967-0.786,0.967,0.665V425.43z M-238.063,426.096
	c0,0.423-1.27,1.088-2.782,1.511c-2.962,0.786-3.688,0.665-2.962-0.484C-242.84,425.552-238.063,424.705-238.063,426.096z
	 M-236.008,428.696c0.484,1.27,0.665,1.148-3.567,2.357c-5.683,1.572-6.348,1.693-6.348,1.089c0-1.21,1.632-2.54,4.232-3.447
	c3.567-1.209,5.2-1.209,5.683,0V428.696z M-228.51,439.94c1.21,1.21,0.847,2.056-0.846,1.995c-2.237-0.12-8.404,1.693-11.185,3.265
	c-0.968,0.544-2.358-0.181-2.358-1.27c0-0.665,2.176-1.693,6.65-3.265C-231.775,439.093-229.538,438.912-228.51,439.94
	L-228.51,439.94z M-226.212,443.87c0.604,0.967,0.362,1.088-2.721,1.088c-3.144,0-9.613,1.874-8.888,2.54
	c0.182,0.18,1.391-0.122,2.782-0.666c3.083-1.209,10.036-1.33,10.459-0.12c0.665,1.753-9.855,3.446-12.696,1.995
	c-3.688-1.935-3.628-2.6,0.544-4.233C-232.077,442.6-227.18,442.358-226.212,443.87z M-167.325,396.832
	c0,1.512-0.846,4.293-1.27,4.293c-0.302,0-0.544-1.088-0.544-2.418c0-1.754,0.242-2.419,0.907-2.419
	C-167.748,396.288-167.325,396.53-167.325,396.832z M-166.115,399.613c-0.908,2.782-1.21,2.48-0.787-0.786
	c0.242-1.692,0.545-2.418,0.907-2.055C-165.571,397.195-165.632,398.162-166.115,399.613z M-172.282,399.673
	c0.241,2.54-1.512,3.326-3.084,1.391c-0.544-0.725-0.907-1.511-0.725-1.692c0.241-0.182,0.906,0.302,1.632,1.148
	c0.967,1.21,1.149,1.27,0.786,0.303c-1.088-3.144-1.088-3.447,0.06-3.205c0.786,0.121,1.21,0.786,1.33,2.056L-172.282,399.673z
	 M-169.804,399.13c-0.12,1.693-0.12,1.693-0.423,0.181l-0.302-1.511l-0.484,1.511l-0.423,1.512l-0.06-1.693
	c-0.061-1.089,0.241-1.633,0.846-1.633S-169.743,398.041-169.804,399.13z M-163.093,397.86c0,0.605-2.539,4.535-2.78,4.293
	c-0.545-0.544,1.148-4.656,1.873-4.656C-163.516,397.497-163.093,397.679-163.093,397.86z M-160.251,400.037
	c2.176,2.418,2.116,2.72-0.786,4.05c-1.512,0.726-2.963,1.15-3.144,0.968c-0.242-0.182,0.665-1.33,1.995-2.419
	c2.842-2.418,2.358-2.841-0.665-0.544c-1.149,0.907-2.237,1.512-2.358,1.33c-0.362-0.362,2.66-4.715,3.265-4.715
	C-161.702,398.707-160.916,399.311-160.251,400.037z M-175.547,402.032c0.544,0.786,0.967,1.632,0.967,1.814
	c0,0.544-3.567-2.298-3.567-2.902C-178.268,399.916-176.454,400.641-175.547,402.032z M-176.696,403.543
	c1.21,1.39,1.028,1.451-1.149,0.605c-0.846-0.302-1.572-0.847-1.572-1.21C-179.417,401.911-177.845,402.274-176.696,403.543z
	 M-166.66,404.813c0.484,0.967,0.423,1.572-0.363,2.781c-0.906,1.33-1.33,1.451-3.204,1.21c-3.144-0.545-3.93-2.056-2.055-3.93
	C-170.711,403.301-167.506,403.301-166.66,404.813z M-158.256,405.297c0,1.209-2.056,1.753-4.837,1.33
	c-1.39-0.182-1.33-0.303,0.907-1.33C-159.042,403.907-158.256,403.907-158.256,405.297z M-177.361,405.297
	c0.181,0.241-0.363,0.362-1.149,0.181c-0.846-0.12-1.511-0.363-1.511-0.484C-180.021,404.511-177.663,404.752-177.361,405.297z
	 M-177.119,406.989c-0.605,0.121-1.572,0.121-2.116,0c-0.605-0.18-0.121-0.302,1.027-0.302
	C-177.058,406.687-176.575,406.808-177.119,406.989z M-158.256,407.655c-0.06,1.511-1.028,1.874-3.507,1.209
	c-1.39-0.363-2.539-0.786-2.539-1.028c0-0.181,1.39-0.423,3.023-0.484C-159.586,407.232-158.256,407.412-158.256,407.655z
	 M-176.756,409.892c-0.847,0.665-0.907,0.906-0.242,0.846c2.116-0.181,2.66,0.06,1.934,0.786c-0.423,0.423-0.725,1.028-0.725,1.33
	c0.06,0.363,0.604,0,1.27-0.786c1.511-1.814,1.753-1.511,0.906,1.028l-0.725,1.995l-1.33-1.149c-0.847-0.786-1.149-1.39-0.726-1.632
	c0.303-0.181,0.605-0.665,0.605-1.088c0-0.484-0.182-0.484-0.665,0c-0.544,0.544-0.907,0.483-1.512-0.121
	c-1.088-1.089-1.088-1.39,0.242-1.693C-175.789,408.864-175.547,408.985-176.756,409.892z M-161.037,409.892
	c1.149,0.241,1.572,0.544,1.149,0.967c-0.424,0.423-1.33,0.302-2.842-0.302c-1.21-0.484-2.176-1.028-2.176-1.21
	C-164.906,409.106-164.483,409.166-161.037,409.892z M-163.274,411.222c1.451,0.604,2.6,1.27,2.6,1.511
	c0,0.423-4.051,2.902-4.837,2.902c-0.544,0-2.418-3.446-2.418-4.474c0-0.363,0.725,0.242,1.572,1.27
	c0.846,1.088,1.813,1.995,2.176,1.995c0.423,0,0.121-0.605-0.544-1.39C-167.506,409.952-167.204,409.65-163.274,411.222z
	 M-171.8,413.762c0,1.632-0.242,2.237-0.786,2.056c-0.967-0.363-1.028-1.693-0.06-3.205c0.423-0.665,0.786-1.209,0.846-1.209
	S-171.74,412.432-171.8,413.762z M-166.721,415.757c0,0.302-0.968,0.484-2.116,0.484c-2.056,0-2.116-0.06-2.056-2.298l0.06-2.237
	l0.787,1.814l0.846,1.814l0.06-2.116l0.06-2.116l1.15,2.116c0.665,1.149,1.148,2.297,1.209,2.54V415.757z M-196.951,409.047
	c0,0.362-0.242,0.422-0.605,0.24c-0.302-0.18-0.604-0.664-0.604-0.966c0-0.363,0.302-0.424,0.604-0.242
	c0.363,0.181,0.605,0.665,0.605,0.967V409.047z M-198.161,409.893c1.512,1.632,2.238,3.627,1.029,2.902
	c-1.633-0.968-4.656-3.568-4.656-3.99C-201.788,407.837-199.49,408.502-198.161,409.893L-198.161,409.893z M-194.533,409.53
	c0,0.665-0.241,1.39-0.604,1.572c-0.363,0.242-0.605-0.303-0.605-1.149s0.303-1.572,0.605-1.572
	C-194.774,408.381-194.533,408.925-194.533,409.53z M-192.114,408.623c0,0.544-3.205,5.864-3.386,5.623
	c-0.363-0.303,2.418-5.804,2.963-5.865C-192.296,408.381-192.114,408.502-192.114,408.623z M-193.021,413.883
	c-2.056,3.083-3.084,3.325-1.21,0.242c0.484-0.847,1.391-2.237,1.935-3.144c0.545-0.907,1.089-1.39,1.21-1.028
	C-190.966,410.316-191.812,412.069-193.021,413.883z M-198.704,412.795c1.995,1.692,2.297,2.358,2.6,5.683
	c0.241,2.116,0.241,3.809-0.061,3.809c-0.846,0-5.018-4.474-5.018-5.381c0-0.665,0.302-0.605,1.39,0.363
	c2.54,2.297,3.144,2.176,0.907-0.182c-2.902-3.023-2.962-3.93-0.181-1.814c2.962,2.298,2.66,0.907-0.302-1.45
	c-2.237-1.754-3.084-3.084-1.935-3.024C-201.062,410.859-199.914,411.706-198.704,412.795z M-190.3,413.097
	c0,0.484-3.084,5.139-4.293,6.409c-1.149,1.27-0.484-0.665,1.27-3.749C-191.691,412.916-190.3,411.707-190.3,413.097z
	 M-190.3,417.571c0,1.21-3.568,7.436-3.99,6.953c-0.787-0.786-0.243-3.507,1.208-5.744c1.935-2.842,2.782-3.204,2.782-1.21V417.571z
	 M-196.286,423.617c0.302,0.604,0.363,1.088,0.121,1.088c-0.726-0.06-5.018-4.172-5.018-4.897
	C-201.183,419.022-197.072,422.166-196.286,423.617z M-157.048,419.868c0,0.968-1.39,3.628-1.934,3.628
	c-0.242,0-0.484-0.967-0.484-2.116c0-1.693,0.242-2.116,1.21-2.116C-157.592,419.264-157.048,419.506-157.048,419.868z
	 M-162.005,422.468c0.665,2.479,0.665,2.479,0.362,0.242c-0.423-3.023,1.27-3.144,1.754-0.06c0.423,2.66,0,4.171-1.089,3.264
	c-0.544-0.483-0.665-0.302-0.483,0.786c0.181,0.968-0.242,2.056-1.21,3.205l-1.51,1.753l-0.424-3.023
	c-0.544-3.87-0.786-4.716-0.847-2.418c-0.06,0.967,0.242,2.841,0.545,4.05c0.665,2.358-0.06,5.079-1.21,4.414
	c-0.302-0.181-0.604,0.544-0.725,1.632c-0.121,1.27-0.484,1.935-0.967,1.814c-0.484-0.06-0.605,0.121-0.424,0.484
	c0.484,0.786-1.33,4.837-2.055,4.837c-0.303,0-0.726-0.424-0.907-0.968c-0.242-0.544-0.544-0.846-0.726-0.665
	c-0.181,0.182-0.06,0.907,0.363,1.572c0.363,0.726,0.423,1.27,0.181,1.27c-0.906,0-5.683-7.86-5.26-8.585
	c0.242-0.363,0.182-0.484-0.181-0.303c-0.302,0.182-0.907-1.27-1.33-3.265c-0.726-3.264-0.726-3.809,0.302-5.683
	c0.605-1.088,1.33-1.935,1.572-1.753c0.242,0.181,0.484-0.242,0.484-0.847c0-1.934,5.32-4.11,10.338-4.232l2.782-0.12l0.665,2.6
	L-162.005,422.468z M-153.36,421.078c1.451,1.148,1.451,1.148,0.121,1.209c-0.725,0-1.693,0.181-2.237,0.362
	c-0.665,0.242-0.967,0-0.967-0.785C-156.443,419.627-155.415,419.324-153.36,421.078z M-190.3,422.77
	c0,0.968-0.545,2.358-1.15,3.084c-0.664,0.725-1.571,1.935-2.115,2.66l-0.907,1.33v-1.693c-0.06-1.632,0.967-3.748,2.841-6.046
	C-190.421,420.715-190.301,420.775-190.3,422.77L-190.3,422.77z M-199.248,423.496c0.786,0.605,1.874,1.511,2.539,1.995
	c0.604,0.484,1.028,1.149,0.907,1.572c-0.303,0.907-5.381-2.72-5.381-3.93C-201.183,421.984-200.82,422.045-199.248,423.496z
	 M-151.304,423.254c1.39,0.544,3.567,5.018,2.6,5.32c-0.424,0.182-3.446,0.424-6.65,0.605c-5.684,0.302-5.865,0.302-5.2-0.786
	c0.725-1.209,3.87-1.995,8.222-2.116c1.39,0,2.54-0.242,2.54-0.544c0-0.605-4.777-0.544-7.135,0.12
	c-3.265,0.968-2.237-1.148,1.088-2.176C-153.179,422.831-152.574,422.77-151.304,423.254z M-196.951,428.333
	c2.72,2.539,1.814,3.083-1.39,0.786c-2.66-1.935-4.051-4.535-1.754-3.265C-199.49,426.156-198.039,427.304-196.951,428.333z
	 M-190.301,427.305c0,0.423-0.846,2.116-1.934,3.809c-1.633,2.479-1.995,2.781-2.177,1.632c-0.12-0.725,0.544-2.358,1.512-3.748
	C-191.147,426.518-190.3,425.914-190.301,427.305L-190.301,427.305z M-195.741,432.928c0,1.027-0.484,0.846-3.447-1.391
	c-3.204-2.358-2.54-3.628,0.726-1.39c1.511,1.027,2.72,2.297,2.72,2.78L-195.741,432.928z M-188.124,431.174
	c-0.907,0.907-2.66,3.023-3.87,4.595c-1.934,2.479-2.236,2.72-2.418,1.633c-0.302-1.693,2.902-6.65,4.293-6.65
	c0.544,0,1.028-0.243,1.028-0.545c0-0.544,1.874-1.21,2.358-0.907c0.06,0.121-0.544,0.907-1.39,1.874H-188.124z M-182.804,429.3
	c0.726,0.302-0.241,1.632-4.05,5.804c-2.72,2.963-5.079,5.744-5.2,6.107c-0.12,0.423,1.21-0.907,3.023-2.902
	c5.804-6.41,8.102-8.525,8.283-7.558c0.06,0.544-2.418,3.628-5.623,6.892c-3.143,3.326-5.622,6.107-5.44,6.288
	c0.12,0.121,2.599-2.237,5.561-5.32c2.902-3.084,5.381-5.26,5.502-4.897c0.121,0.302,0,1.027-0.302,1.45
	c-1.088,1.875-10.036,11.186-10.943,11.427c-2.54,0.666-3.326-1.209-1.451-3.385c0.967-1.21,0.967-1.21,0-0.423
	c-0.968,0.725-1.089,0.665-1.089-0.968c0-1.27,0.968-2.902,3.507-5.864c1.874-2.237,3.99-4.777,4.595-5.563
	C-185.221,428.877-184.436,428.695-182.804,429.3L-182.804,429.3z M-148.16,430.449c0.12,0.423-2.237,0.967-5.986,1.39
	c-3.446,0.363-6.832,0.907-7.557,1.089c-1.451,0.423-1.753-0.121-0.907-1.451C-161.582,429.965-148.644,429.058-148.16,430.449z
	 M-203.3,432.02c0.666,0.604,2.721,2.116,4.535,3.385l3.326,2.358l0.18,3.507c0.243,5.079-0.12,5.744-2.176,3.93
	c-0.907-0.847-2.841-2.298-4.353-3.204c-5.32-3.386-9.069-6.53-9.069-7.74c0-1.51-0.181-1.571,7.135,3.386
	c3.385,2.298,6.287,4.051,6.469,3.87c0.242-0.182-1.33-1.451-3.446-2.842c-3.99-2.539-5.925-3.93-7.981-5.622
	c-1.028-0.786-1.149-1.15-0.544-1.754c0.604-0.604,1.088-0.483,2.418,0.786c2.177,1.995,10.52,7.316,10.883,6.893
	c0.181-0.182-1.39-1.391-3.507-2.721c-4.837-3.023-7.194-4.837-7.194-5.502c0-0.725,1.753-0.06,3.325,1.27H-203.3z
	 M-198.342,433.168c1.451,0.847,2.6,1.875,2.6,2.298c0,0.967-1.39,0.242-4.232-2.298
	C-202.392,430.992-201.969,430.992-198.342,433.168z M-178.874,433.289c0,1.875-0.06,1.875-0.604,0.605
	c-0.302-0.786-0.423-1.693-0.182-1.995C-179.055,430.931-178.813,431.355-178.874,433.289z M-148.221,434.801
	c-0.604,3.144-3.506,8.162-5.26,9.069c-0.786,0.423-2.539,0.786-3.869,0.786s-4.716,0.423-7.497,0.907
	c-2.842,0.483-5.26,0.786-5.38,0.604c-0.122-0.12-0.122-0.604,0.06-1.088c0.302-0.846,9.975-2.842,14.752-3.023
	c1.39,0,2.358-0.302,2.176-0.544c-0.302-0.605-5.2-0.182-10.882,0.846c-2.117,0.363-3.93,0.544-4.172,0.363
	c-0.182-0.181,0.242-1.451,0.907-2.72l1.209-2.359l7.557-1.39c4.233-0.786,8.041-1.21,8.525-1.028c0.484,0.181,0.907,0,0.907-0.363
	c0-0.786-6.167-0.242-11.91,1.089c-4.293,0.967-5.2,0.786-3.628-0.847c1.27-1.209,6.348-2.237,12.455-2.479l4.413-0.12
	L-148.221,434.801L-148.221,434.801z M-180.022,437.401c0,0.725-0.544,1.813-1.21,2.539c-0.665,0.725-1.209,1.632-1.209,1.935
	c0,0.846-4.957,3.99-6.348,3.99c-0.725,0,0-1.028,2.358-3.507c1.874-1.934,3.87-4.111,4.474-4.836
	C-180.687,435.889-180.022,435.829-180.022,437.401z M-207.29,439.094c1.21,0.968,3.749,2.782,5.684,4.051
	c3.688,2.419,4.232,3.567,0.907,1.875c-2.842-1.391-9.13-5.986-9.432-6.893C-210.494,436.978-209.708,437.281-207.29,439.094z
	 M-175.065,441.331c1.21,1.814,2.056,3.326,1.814,3.326c-0.665-0.06-2.54-1.572-2.54-2.116c0-0.242-0.543-1.089-1.208-1.935
	c-0.665-0.846-1.21-1.814-1.21-2.056C-178.209,437.341-177.181,438.248-175.065,441.331z M-157.773,446.168
	c-0.605,0.665-6.47,1.39-7.8,1.028c-1.209-0.363-1.027-0.484,1.27-0.786C-160.675,445.926-157.41,445.805-157.773,446.168z
	 M-182.562,449.917c-0.12,0.302-1.209,2.479-2.358,4.836c-1.753,3.81-3.204,5.563-3.93,4.837c-0.241-0.242,1.935-5.985,3.144-8.404
	c0.545-1.027,1.391-1.692,2.117-1.692C-182.924,449.494-182.441,449.674-182.562,449.917z M-178.813,449.857
	c0,0.18-0.484,1.088-1.088,1.934c-0.605,0.907-1.633,2.66-2.237,3.93c-1.028,1.935-2.963,3.386-3.628,2.72
	c-0.302-0.241,2.177-5.199,4.111-8.222C-181.171,449.494-178.813,449.191-178.813,449.857L-178.813,449.857z M-186.068,450.219
	c-0.06,0.786-4.293,10.46-4.777,10.943c-0.846,0.847-1.632,0.06-0.786-0.907c0.303-0.423,1.089-2.418,1.633-4.413
	c1.028-3.507,2.358-5.744,3.446-5.744C-186.31,450.098-186.068,450.158-186.068,450.219z M-175.065,450.703
	c0.303,0-0.423,1.148-1.572,2.539c-1.209,1.39-2.176,2.72-2.176,3.023c0,0.605-3.023,1.874-3.446,1.451
	c-0.303-0.302,1.028-2.54,3.385-5.683c0.847-1.21,1.814-1.874,2.298-1.633C-176.092,450.582-175.427,450.703-175.065,450.703z
	 M-206.2,451.61c0.665,0.483,2.66,2.78,4.413,5.139c1.693,2.297,3.386,4.232,3.749,4.232c0.302,0-1.21-2.298-3.386-5.14
	c-3.567-4.594-3.809-5.138-2.6-5.138c1.089,0,2.116,1.028,4.353,4.595c1.633,2.478,3.326,4.776,3.81,5.018
	c0.543,0.302,0.725,0.907,0.543,1.45c-0.302,0.787-0.665,0.847-2.237,0.243c-2.237-0.847-11.668-9.916-11.185-10.762
	C-208.256,450.461-207.712,450.582-206.2,451.61z M-171.799,452.033c0.242,0.363-0.181,1.149-0.967,1.814
	c-2.116,1.692-1.088,1.874,1.209,0.181c2.358-1.693,2.237-1.693,2.66-0.967c0.786,1.209-1.874,2.902-5.502,3.506
	c-2.116,0.303-3.809,0.363-3.809,0.06c0-0.846,4.354-5.32,5.2-5.32C-172.585,451.307-172.041,451.61-171.799,452.033
	L-171.799,452.033z M-205.838,456.205c3.265,3.204,3.99,4.171,2.842,3.869c-1.27-0.363-3.265-1.814-8.585-6.348
	c-1.451-1.15-1.39-1.814,0.12-1.814C-210.795,451.912-208.377,453.786-205.838,456.205z M-199.248,452.637
	c0.545,0.424,1.452,1.875,1.935,3.205l0.968,2.418l-1.21-1.511c-3.627-4.474-4.353-6.167-1.692-4.112H-199.248z M-189.695,452.396
	c0,1.209-1.995,6.166-2.479,6.166c-0.846,0-0.665-2.902,0.363-4.836C-190.964,452.033-189.695,451.246-189.695,452.396z
	 M-210.07,456.144c4.474,3.809,2.963,4.05-2.841,0.363c-3.93-2.479-4.293-3.205-1.572-3.325
	C-214,453.122-212.004,454.512-210.07,456.144z M-164.786,454.934c0.605,0,1.089,0.243,1.089,0.605c0,0.303-1.21,0.545-2.72,0.484
	c-2.843-0.06-3.447-0.604-1.633-1.632c0.604-0.363,1.27-0.363,1.632,0c0.302,0.302,1.028,0.544,1.632,0.544V454.934z
	 M-214.726,456.446c1.633,1.15,2.722,2.116,2.48,2.116c-1.39,0-6.47-2.66-6.47-3.385
	C-218.716,453.907-217.99,454.149-214.726,456.446L-214.726,456.446z M-195.741,455.6c0,0.363-0.242,0.423-0.604,0.242
	c-0.303-0.182-0.605-0.665-0.605-0.968c0-0.362,0.302-0.423,0.605-0.241C-195.983,454.813-195.741,455.298-195.741,455.6z
	 M-218.413,456.749l1.814,1.209h-2.116c-1.15,0-2.54-0.302-3.023-0.605c-0.786-0.544-0.786-0.665,0-1.209
	C-220.529,455.358-220.529,455.358-218.413,456.749z M-176.575,458.381c-0.242,0.181-1.935,0.605-3.749,0.846
	c-2.962,0.424-9.069,2.842-8.524,3.386c0.12,0.182,1.27,0,2.6-0.363c3.99-1.148,10.398-0.786,14.993,0.847
	c1.149,0.363,1.149,0.363,0.121-0.484c-1.209-0.967-5.804-1.814-9.794-1.753c-2.056,0-2.177-0.06-0.907-0.484
	c2.176-0.725,8.404-0.725,10.883,0c3.99,1.149,4.171,1.512,1.753,3.99l-2.237,2.177l-3.628-1.27
	c-1.995-0.665-5.622-1.39-8.101-1.572c-2.419-0.18-5.018-0.483-5.744-0.604c-0.725-0.181-1.511-0.06-1.693,0.302
	c-0.181,0.302-0.786,0.605-1.27,0.605c-2.78,0,2.903-3.265,8.525-4.897C-179.659,458.018-175.85,457.595-176.575,458.381
	L-176.575,458.381z M-164.302,458.381c0,0.302-0.423,1.028-0.907,1.632c-0.907,1.15-1.028,1.15-3.809,0.182
	c-1.572-0.544-3.446-1.028-4.232-1.028c-0.786,0-1.209-0.242-1.028-0.605C-173.854,457.897-164.302,457.716-164.302,458.381
	L-164.302,458.381z M-223.25,459.167c0.182,0.302-0.06,0.605-0.604,0.605c-0.545,0-0.786-0.303-0.605-0.605
	c0.181-0.363,0.484-0.605,0.605-0.605C-223.734,458.562-223.431,458.804-223.25,459.167z M-206.926,460.316
	c4.051,0.725,7.134,1.572,8.404,2.297c0.786,0.423,0.06,0.726-3.083,1.39c-2.237,0.424-4.777,1.029-5.623,1.391
	c-4.172,1.633-5.683,2.48-4.958,2.721c0.423,0.121,1.089,0,1.512-0.302c2.055-1.633,13.059-3.99,14.45-3.144
	c0.846,0.544,0.302,0.846-2.963,1.39c-1.088,0.182-4.111,1.21-6.771,2.237l-4.837,1.875l-2.116-1.33
	c-1.21-0.726-2.056-1.512-1.875-1.814c0.424-0.665,5.26-2.237,10.037-3.326c2.902-0.604,3.385-0.846,1.874-0.846
	c-2.237-0.06-7.618,1.27-11.185,2.781c-2.056,0.907-2.358,0.907-3.265,0.06c-0.846-0.906-0.786-1.027,0.484-1.753
	c0.786-0.423,3.386-1.27,5.683-1.874l4.232-1.088l-3.265,0.302c-1.753,0.181-4.534,0.847-6.106,1.451
	c-1.693,0.665-3.265,0.907-3.688,0.605c-0.907-0.544-0.665-0.665,3.809-2.056c2.056-0.665,2.297-0.846,1.028-0.846
	c-0.907-0.06-2.721,0.302-4.051,0.786c-2.056,0.725-2.54,0.786-3.144,0.06c-0.544-0.665-0.302-0.907,1.33-1.149
	c1.088-0.181,2.66-0.483,3.507-0.604C-215.692,459.227-211.158,459.59-206.926,460.316z M-177.059,465.516
	c4.353,1.148,4.777,1.692,2.358,3.143c-3.144,1.935-4.837,2.116-8.646,0.786c-1.934-0.665-4.715-1.209-6.166-1.209
	c-2.66,0-3.507-0.846-1.451-1.512c1.511-0.483,6.287,0.182,9.613,1.27c3.023,1.028,3.325,1.028,2.841,0.302
	c-0.604-1.027-6.71-2.478-10.217-2.478c-1.875,0-3.386-0.303-3.386-0.605C-192.113,464.306-180.807,464.487-177.059,465.516
	L-177.059,465.516z M-195.136,467.026c0,0.303-0.726,0.787-1.633,0.968c-2.297,0.544-8.162,3.325-7.799,3.688
	c0.121,0.182,1.149-0.12,2.298-0.665c3.627-1.693,7.134-2.72,7.134-2.116c0,0.302-0.726,0.846-1.633,1.21
	c-0.967,0.362-2.841,1.208-4.232,1.873c-2.479,1.21-2.6,1.27-5.32,0.242c-1.512-0.604-2.72-1.27-2.72-1.572
	c0-0.242,1.571-1.027,3.506-1.693c6.469-2.418,10.399-3.143,10.399-1.934V467.026z M-183.407,470.171
	c4.837,1.209-0.846,2.297-5.865,1.148c-2.78-0.665-3.385-1.148-2.297-1.813C-190.662,468.901-187.095,469.203-183.407,470.171z
	 M-194.35,471.984c0.242,0.726,0.302,1.451,0.181,1.572c-0.12,0.06-1.935,0.121-4.05,0l-3.87-0.181l2.72-1.33
	c3.507-1.693,4.596-1.693,5.019-0.06V471.984z M-188.062,472.71c0.12,0.12-0.847,0.363-2.177,0.484
	c-1.39,0.12-2.479,0.181-2.479,0.12c0-1.39,0.907-1.874,2.54-1.39C-189.151,472.166-188.183,472.529-188.062,472.71z
	 M-191.812,375.733c-0.484,0.786,0.302,0.786,1.512,0c0.786-0.484,0.786-0.605-0.121-0.605
	C-190.965,375.128-191.631,375.37-191.812,375.733L-191.812,375.733z M-190.18,394.113c-0.483,3.264-0.665,6.046-0.544,6.166
	c0.424,0.424,1.814-9.552,1.572-10.943C-189.272,388.732-189.756,390.848-190.18,394.113z M-228.57,420.896
	c-0.605,1.088-2.298,7.558-1.995,7.86c0.12,0.181,0.604-0.907,0.967-2.298c0.363-1.45,0.907-3.325,1.27-4.11
	C-227.784,421.018-227.966,419.808-228.57,420.896z M-225.305,422.952c-0.303,0.786-1.028,2.6-1.572,4.05
	c-0.605,1.452-0.907,2.721-0.786,2.842c0.181,0.182,1.027-1.511,1.874-3.748c0.907-2.237,1.511-4.172,1.33-4.293
	C-224.58,421.622-225.003,422.166-225.305,422.952z M-220.529,429.844c-1.088,2.479-1.874,4.716-1.693,4.837
	c0.181,0.181,1.149-1.753,2.237-4.293c1.088-2.539,1.814-4.716,1.693-4.836C-218.413,425.37-219.441,427.365-220.529,429.844z
	 M-231.654,431.174c-0.242,0.544-0.12,1.27,0.242,1.633c0.423,0.423,0.605,0.12,0.605-1.028
	C-230.807,429.905-231.11,429.723-231.654,431.174z M-228.57,431.537c-0.242,0.605-0.423,1.572-0.423,2.116
	c0.06,0.907,0.12,0.907,0.665-0.06c0.362-0.605,0.544-1.512,0.423-2.116C-228.087,430.509-228.147,430.57-228.57,431.537z
	 M-240.36,434.923c-3.809,1.088-4.837,1.632-4.293,2.176c0.182,0.121,1.754-0.242,3.447-0.907c1.753-0.665,4.11-1.209,5.26-1.209
	c1.148,0,2.116-0.302,2.116-0.604C-233.83,433.532-236.007,433.714-240.36,434.923z M-172.585,425.007
	c0,1.33,0.121,1.814,0.242,1.028c0.121-0.725,0.121-1.814,0-2.418C-172.524,423.073-172.645,423.677-172.585,425.007z
	 M-169.139,423.617c0,1.874,1.391,8.041,1.996,8.646c0.362,0.423,0.423,0.12,0.18-0.726c-0.24-0.665-0.664-2.842-0.966-4.716
	C-168.474,423.496-169.139,421.682-169.139,423.617z M-175.729,426.942c-0.06,1.028,2.66,9.371,3.81,11.608
	c0.543,0.968,1.33,1.996,1.692,2.237c0.423,0.303,0.242-0.302-0.363-1.27c-0.665-1.027-2.055-4.413-3.144-7.557
	C-174.822,428.816-175.729,426.519-175.729,426.942z M-177.603,428.091c0,0.846,1.512,5.32,2.72,7.8
	c0.424,1.027,1.15,2.599,1.512,3.566c0.363,0.968,0.786,1.633,0.968,1.451c0.12-0.181-0.545-2.116-1.572-4.353
	c-0.968-2.297-1.814-4.534-1.814-5.078C-175.849,430.327-177.542,427.063-177.603,428.091z M-172.101,429.844
	c0,0.665,0.363,1.995,0.846,3.023l0.907,1.814l-0.363-2.116c-0.483-2.66-1.39-4.535-1.39-2.72V429.844z M-161.4,438.429
	c-1.934,0.484-3.506,1.21-3.506,1.512c0,0.363,0.362,0.484,0.846,0.302c2.418-0.907,6.53-1.814,10.339-2.237l4.232-0.423
	l-4.232-0.06C-156.019,437.523-159.526,437.946-161.4,438.429z M-217.99,436.857c-1.149,1.814-0.484,2.056,0.726,0.242
	c0.544-0.846,0.786-1.511,0.544-1.511c-0.303,0-0.847,0.544-1.27,1.27V436.857z M-220.53,441.876
	c-1.632,3.93-1.45,4.353,0.303,0.725c0.847-1.632,1.39-3.144,1.21-3.265c-0.122-0.181-0.847,0.968-1.512,2.54H-220.53z"/>
</svg>
