<?xml version="1.0" encoding="iso-8859-1"?>
<!-- Generator: Adobe Illustrator 19.0.0, SVG Export Plug-In . SVG Version: 6.00 Build 0)  -->
<svg version="1.2" baseProfile="tiny" id="Layer_1" xmlns="http://www.w3.org/2000/svg" xmlns:xlink="http://www.w3.org/1999/xlink"
	 x="0px" y="0px" viewBox="-247 374.89 100 92" xml:space="preserve">
<title>face_00050</title>
<path d="M-169.07,375.779c-0.588,0.98-13.431,8.824-14.412,8.824c-0.294,0-1.078-1.961-1.666-4.412l-1.079-4.412h-9.313
	c-5,0-9.411,0.392-9.705,0.784c-0.295,0.49-0.589,2.451-0.785,4.412c-0.294,4.706-1.47,4.608-10.588-0.784
	c-4.02-2.451-8.04-4.412-8.824-4.412c-0.882,0-3.921,1.765-6.862,4.02c-2.941,2.156-7.255,5.098-9.804,6.568
	c-2.452,1.373-4.609,2.647-4.805,2.843c-0.686,0.49,8.53,9.706,15.882,15.687l6.667,5.49l5.098-4.902
	c4.902-4.706,10.588-9.118,11.863-9.118c0.784,0,0.686,12.647-0.098,15.49c-0.49,1.961-0.98,2.255-3.334,1.765
	c-3.039-0.588-3.235-0.294-2.94,6.177c0.097,4.706-0.197,4.51,9.705,4.902c2.353,0.098,3.137,0.588,3.137,1.862
	c0,1.569-0.784,1.863-4.117,1.863c-3.138,0-6.079,1.079-11.569,4.118c-4.02,2.255-8.431,4.902-9.706,5.882
	c-2.353,1.765-2.353,1.765-0.49,4.804c1.667,2.843,1.667,3.137,0.098,4.902c-0.882,0.98-1.667,2.059-1.667,2.353
	c0,0.294,2.255,1.569,5.098,2.745c2.745,1.176,10,4.51,15.98,7.451c14.805,7.157,14.903,7.255,25.49,2.353
	c9.609-4.412,18.922-10.196,19.707-12.255c0.294-0.686-0.196-2.745-1.079-4.412c-1.568-3.039-1.568-3.235,0.393-5.294
	c1.176-1.176,2.058-2.647,2.058-3.137c0-0.882-20.784-8.628-23.039-8.53c-0.49,0-1.765,0.393-2.647,0.785
	c-1.47,0.588-1.765,0.196-1.765-2.353c0-2.941,0.098-3.04,4.706-3.137c2.55-0.098,4.902-0.098,5.392,0
	c0.393,0,0.687-1.667,0.687-3.824c0-3.627-0.294-4.02-2.942-4.51c-2.352-0.49-2.94-1.274-3.333-3.725
	c-0.882-5.687-1.274-12.255-0.882-12.745c0.294-0.196,3.823,1.568,7.941,4.02c12.157,7.156,10.588,7.352,20.784-2.942
	c4.804-4.902,8.824-9.51,8.824-10c0-1.372-4.314-5.49-8.334-7.941c-1.568-0.98-4.803-3.235-7.156-5
	C-167.011,374.603-168.09,374.21-169.07,375.779z M-162.403,385.191c3.039,2.45,5.588,5,5.588,5.588c0,1.569-4.02,5.588-5.588,5.588
	c-0.883,0-1.275-1.372-1.275-4.313c0-4.412-0.98-5.49-5-5.49c-1.667,0-1.863,0.784-1.863,5.784c0,3.235-0.392,6.078-0.784,6.372
	c-0.882,0.588-10-5-10-6.078c0-1.177,10.98-11.961,12.255-11.961C-168.58,380.681-165.54,382.74-162.403,385.191z M-207.207,386.955
	c2.255,0.687,3.333-1.274,3.333-6.372c0-1.47,0.588-2.843,1.275-3.04c0.98-0.391,10.784-0.293,13.921,0.099
	c0.588,0,1.569,2.059,2.255,4.51c1.275,4.902,2.255,5.294,6.863,2.45c5.588-3.43,5.686-2.156,0.294,2.844
	c-2.941,2.549-5,5.196-4.706,5.686c0.784,1.274,11.96,8.137,13.333,8.137c0.589,0,1.177-1.863,1.177-4.215
	c0.294-9.02,0.588-9.902,3.235-8.922c1.275,0.49,1.569,1.96,1.569,7.157v6.47l5.392-5.392c2.941-2.94,5.294-5.686,5.392-6.078
	c0-0.392-3.333-3.235-7.353-6.373c-4.804-3.627-6.96-5.98-6.372-6.568c0.588-0.589,1.764-0.294,3.137,1.078
	c1.274,1.079,4.216,3.333,6.667,4.902c6.176,4.216,9.117,6.863,8.627,8.04c-0.098,0.587-3.726,4.607-8.04,8.823
	c-8.823,9.02-7.45,8.921-20.097,1.176c-4.51-2.745-8.53-5-8.922-5c-0.686,0-0.392,9.804,0.588,17.353
	c0.49,3.726,0.785,4.118,3.628,4.412c2.353,0.196,3.235,0.784,3.431,2.45c0.294,1.962-0.098,2.256-3.431,2.256
	c-7.157,0-8.137,0.686-8.137,5.49c0,4.51,1.176,5.392,4.803,3.333c1.667-0.784,10.295,1.569,19.02,5.196
	c3.137,1.373,3.137,1.471,1.177,4.412c-1.373,1.863-1.373,2.451,0.098,5.294l1.666,3.138l-3.333,2.843
	c-3.628,3.039-22.451,12.45-24.902,12.45c-1.765,0-10.392-3.627-24.216-10.195c-9.313-4.412-9.51-4.608-8.431-6.961
	c0.882-1.863,0.784-2.843-0.49-4.804c-1.569-2.353-1.569-2.55,1.078-4.314c1.47-1.078,5.883-3.53,9.902-5.49
	c6.275-3.235,7.55-3.53,10.098-2.647c4.412,1.569,4.706,1.372,4.706-2.157c0-4.412-1.47-5.588-7.45-5.588
	c-5.491,0-6.275-0.883-5.491-5.588c0.294-1.569,0.98-2.06,3.04-1.961l2.548,0.196l0.294-9.706c0.098-5.392,0-10.392-0.294-11.078
	c-0.588-1.569-6.96,2.647-13.333,8.725c-2.157,2.059-4.412,3.726-5.098,3.726c-0.687,0-5.196-3.628-10.098-8.04
	c-8.138-7.45-10.589-10.588-8.432-10.588c0.49,0,4.804-2.549,9.51-5.784l8.628-5.785l7.94,4.706
	C-212.795,384.211-208.286,386.563-207.207,386.955L-207.207,386.955z M-229.854,382.74c-2.157,1.666-5.589,4.117-7.55,5.392
	c-3.725,2.353-4.803,4.314-2.45,4.314c0.686,0,3.627,1.96,6.568,4.51c2.843,2.45,5.49,4.02,5.98,3.627
	c0.393-0.392,0.883-3.235,1.08-6.177c0.195-4.02,0.685-5.392,1.764-5.392c1.078,0,1.47,1.275,1.568,5.392
	c0.099,2.942,0.197,5.785,0.295,6.177s2.156-1.078,4.607-3.431c2.451-2.353,5.49-4.804,6.863-5.49
	c2.55-1.275,3.137-3.138,1.177-3.138c-0.687,0-4.118-1.96-7.647-4.412c-3.53-2.45-6.765-4.411-7.353-4.411
	C-225.442,379.701-227.697,381.073-229.854,382.74z M-222.305,382.838c1.176,0.686,3.039,2.059,4.117,2.941
	c1.079,0.98,2.745,1.96,3.726,2.353c0.98,0.294,1.765,0.882,1.765,1.373c0,1.078-6.667,6.862-7.844,6.862
	c-0.588,0-0.98-1.764-0.98-3.921c0-3.432-0.392-4.118-2.549-5c-1.47-0.49-2.745-0.785-2.941-0.687
	c-0.098,0.196-0.392,2.451-0.49,5.098c-0.294,5.393-1.667,6.471-5,3.628c-1.177-1.079-3.138-2.647-4.118-3.333
	c-1.863-1.373-1.765-1.57,1.96-3.922c2.06-1.373,4.903-3.431,6.275-4.51C-225.443,381.367-225.05,381.27-222.305,382.838z
	 M-204.855,441.858c-1.96,0.784-5.391,1.666-7.646,2.058c-2.255,0.392-4.118,1.079-4.118,1.569c0,1.078-0.098,0.98,8.333,3.333
	c3.236,0.883,7.451,2.255,9.314,3.04c3.137,1.274,4.216,1.078,14.51-1.961c16.274-4.804,16.96-6.47,3.627-8.53
	c-6.372-0.882-8.921-0.98-10.882-0.098c-1.667,0.785-3.04,0.883-4.314,0.196c-2.353-1.274-4.51-1.176-8.823,0.392L-204.855,441.858z
	 M-196.031,443.622c1.47,0.98,2.157,0.98,3.137,0c1.961-1.96,16.961-1.078,16.275,0.98c-0.392,0.98-7.451,3.53-15,5.589
	c-3.333,0.882-5,0.686-10.588-1.177c-3.726-1.274-6.765-2.647-6.863-3.137c-0.196-0.98,6.275-3.235,9.412-3.333
	C-198.776,442.446-197.109,443.034-196.031,443.622z"/>
</svg>
