<?xml version="1.0" encoding="iso-8859-1"?>
<!-- Generator: Adobe Illustrator 19.0.0, SVG Export Plug-In . SVG Version: 6.00 Build 0)  -->
<svg version="1.2" baseProfile="tiny" id="Layer_1" xmlns="http://www.w3.org/2000/svg" xmlns:xlink="http://www.w3.org/1999/xlink"
	 x="0px" y="0px" viewBox="-247 362.89 100 117" xml:space="preserve">
<title>face_00121</title>
<path d="M-186.109,363.327c-0.247,0.329-7.319,0.822-15.543,1.069l-15.048,0.493l0.164,25.247l0.165,25.329h-4.852l0.082,6.579
	c0.082,6.414,1.152,9.046,3.125,7.895c1.234-0.823,12.747-1.398,13.734-0.74c0.493,0.41,1.151,3.536,1.398,6.99
	c0.329,5.098,0.247,6.414-0.74,6.743c-0.658,0.247-6.25,0.247-12.336-0.082c-8.306-0.411-11.266-0.823-12.089-1.727
	c-0.658-0.905-1.069-6.661-1.233-20.395l-0.248-19.078h2.878c4.194,0,4.606-0.576,4.194-5.099c-0.329-3.207-0.164-4.194,0.987-4.934
	c1.07-0.658,1.152-1.069,0.494-1.316c-0.658-0.329-1.07-2.138-1.07-4.852c0-2.467-0.41-4.687-1.068-5.098
	c-0.494-0.411-6.168-0.905-12.418-0.987l-11.431-0.248l0.576,7.32c0.246,3.947,0.74,8.799,0.986,10.69l0.494,3.454l4.276,0.247
	l4.194,0.246l0.494,6.58c0.575,7.072,1.233,22.779,2.056,52.384l0.575,18.75h2.55c1.398,0,3.371,0.247,4.44,0.494
	c1.892,0.575,1.892,0.41,1.645-4.852c-0.082-2.96,0.082-5.675,0.329-6.004c0.987-0.904,14.145-1.891,27.796-1.973
	c7.072-0.082,14.474-0.411,16.447-0.823c2.056-0.329,6.333-0.822,9.458-0.986c5.51-0.247,5.756-0.165,6.003,1.727
	c0.164,1.069-0.082,2.302-0.576,2.796c-2.138,2.138-0.904,3.042,4.112,3.042h5.017l-0.576-7.237
	c-0.247-3.947-1.07-12.335-1.645-18.667c-1.562-15.296-1.974-21.3-2.55-37.5l-0.493-13.652l1.892-0.493
	c1.069-0.329,3.372-0.576,5.099-0.576c5.51,0,6.25-0.904,6.167-7.237c-0.082-3.042,0.165-6.907,0.494-8.634l0.658-3.043
	l-10.116,0.082c-11.02,0-17.845,0.822-18.75,2.22c-0.904,1.563-1.15,16.037-0.164,15.461c0.493-0.329,0.74-0.082,0.411,0.576
	c-0.329,0.904,0.576,1.315,3.372,1.562c2.056,0.247,3.947,0.576,4.112,0.823c0.658,0.657,2.302,40.707,1.727,42.845
	c-0.411,1.81-1.234,2.22-5.099,3.043c-5.18,1.069-22.122,0.74-23.355-0.494c-0.411-0.41-0.823-2.96-0.987-5.674l-0.247-4.934
	l10.855-0.411c5.922-0.247,11.102-0.658,11.35-0.987c0.657-0.658,0.575-15.296,0-16.283c-0.248-0.33-1.892-0.247-3.62,0.247
	c-1.808,0.493-3.618,0.575-3.947,0.246c-0.329-0.329-0.658-11.76-0.658-25.411c0-24.342,0-24.835-1.644-25.082
	C-184.793,362.833-185.78,362.998-186.109,363.327z M-184.958,367.11c0.083,1.069,0.247,12.088,0.33,24.588
	c0.082,12.5,0.41,23.109,0.74,23.602c0.328,0.576,1.891,0.74,4.194,0.412l3.7-0.494v5.839c0,3.536-0.41,6.086-0.987,6.414
	c-1.069,0.658-18.667,0.658-19.325,0c-0.33-0.246-0.905-0.493-1.316-0.493c-0.987,0-0.082,15.625,0.987,16.694
	c0.411,0.411,7.237,0.576,15.214,0.411c18.914-0.329,18.092,0.412,17.352-15.871c-0.33-6.25-0.658-11.678-0.823-12.007
	c-0.164-0.247-0.411-5.345-0.493-11.349c-0.082-10.773-0.082-10.855-2.138-11.677c-1.07-0.411-3.125-0.74-4.441-0.74
	c-2.22,0-2.385-0.247-2.385-2.879v-2.96l11.76,0.246l11.677,0.247v2.056c0,1.974-0.328,2.056-6.578,2.878l-6.58,0.823l0.247,5.345
	c0.165,2.96,0.411,8.635,0.576,12.747c0.493,11.02,1.974,31.168,2.878,38.651c0.411,3.619,0.905,9.622,0.987,13.405
	c0.247,5.674,0.082,6.743-0.987,6.579c-0.822-0.165-1.316-1.48-1.48-4.194c-0.329-4.523,0.822-4.359-14.31-2.55
	c-12.746,1.48-48.601,2.879-49.012,1.81c-0.905-2.22-1.81,0.082-1.974,5.263c-0.247,5.51-0.411,6.003-2.056,6.25
	c-1.07,0.164-1.891,0.164-1.974,0c-0.082-0.165-0.41-8.8-0.822-19.161c-0.411-10.445-0.905-19.902-0.987-21.218
	c-0.164-1.233-0.329-10.197-0.411-19.9l-0.165-17.682h-9.868v-6.579h8.141c4.524,0,8.718,0.247,9.458,0.494
	c0.904,0.329,1.316,1.562,1.316,4.111c0,3.537-0.083,3.619-2.303,3.125c-1.234-0.328-2.55-0.904-2.96-1.233
	c-2.057-1.892-2.303,0.164-1.81,17.516c0.576,20.148,1.151,26.892,2.303,28.372c0.493,0.658,5.098,0.987,15.05,1.07
	c15.377,0,15.624-0.083,14.226-4.195c-0.411-1.233-0.822-4.77-0.905-7.812l-0.164-5.675h-8.224c-4.523,0-8.47-0.329-8.799-0.822
	c-0.329-0.494-0.658-2.796-0.658-5.099v-4.276l2.467,0.411l2.467,0.493l-0.575-6.825c-0.33-3.783-0.576-15.46-0.576-25.823
	l-0.082-18.914l13.98-0.411c7.73-0.247,14.474-0.576,15.05-0.658C-185.533,365.383-184.958,366.123-184.958,367.11z
	 M-150.994,380.35c-0.082,1.727-0.246,3.207-0.41,3.371c-0.165,0.165-5.429,0.494-11.596,0.658l-11.349,0.33v-2.714
	c0-1.399,0.411-2.879,0.987-3.208c0.987-0.658,12.335-1.562,18.75-1.562h3.7C-150.912,377.225-150.994,380.35-150.994,380.35z
	 M-226.734,382.241c2.056,0.411,2.22,0.823,2.22,4.194v3.701l-9.21-0.576c-5.099-0.329-9.54-0.74-9.868-0.987
	c-0.412-0.164-0.658-1.973-0.658-4.03v-3.618l7.648,0.412C-232.49,381.583-228.05,381.995-226.734,382.241z M-185.45,420.317
	c-0.822,2.714,0.411,4.276,3.125,4.03c1.974-0.165,2.632-0.74,3.125-2.468c0.74-2.713,0.329-3.125-3.043-3.125
	C-184.134,418.754-185.039,419.166-185.45,420.317z M-216.29,422.044c0,2.302,0.247,2.467,2.878,2.467
	c2.632,0,2.879-0.165,2.879-2.467c0-2.303-0.247-2.467-2.879-2.467C-216.043,419.577-216.29,419.741-216.29,422.044z
	 M-167.112,451.238c-0.165,0.247-9.95,0.493-21.71,0.493c-11.678,0.083-25,0.658-29.524,1.152c-9.868,1.233-9.128,1.069-8.059,2.138
	c0.658,0.658,2.796,0.658,7.813,0c3.7-0.494,17.27-0.905,30.098-1.07c18.092-0.081,23.191-0.328,23.191-1.15
	c0-1.152-1.151-2.139-1.81-1.563H-167.112z"/>
</svg>
