<?xml version="1.0" encoding="iso-8859-1"?>
<!-- Generator: Adobe Illustrator 19.0.0, SVG Export Plug-In . SVG Version: 6.00 Build 0)  -->
<svg version="1.2" baseProfile="tiny" id="Layer_1" xmlns="http://www.w3.org/2000/svg" xmlns:xlink="http://www.w3.org/1999/xlink"
	 x="0px" y="0px" viewBox="-247 366.89 100 109" xml:space="preserve">
<title>face_00114</title>
<path d="M-178.242,368.214c-6.17,2.099-8.906,3.816-13.358,8.142l-4.39,4.199l-2.735-2.418c-1.527-1.336-3.372-2.544-4.135-2.735
	c-0.827-0.255-1.463-0.573-1.463-0.827c0-0.382-1.845-1.272-5.407-2.608c-2.481-0.954-12.087-0.89-15.967,0.063
	c-7.061,1.782-13.359,5.407-18.257,10.687c-3.117,3.308-3.499,4.835-1.59,5.98c0.827,0.509,1.526,0.254,3.498-1.336
	c1.336-1.145,2.8-2.354,3.245-2.735c2.48-1.972,8.905-3.88,13.295-3.88c8.206,0,16.984,5.343,18.575,11.386
	c0.763,3.054,1.845,31.743,1.208,32.316c-0.127,0.127-1.272,0.381-2.608,0.572c-5.089,0.827-7.633,3.499-7.57,7.825
	c0,2.671,0.318,3.307,2.354,5.089c1.272,1.081,3.753,2.353,5.47,2.799c2.927,0.763,3.118,0.954,3.118,2.926
	c0,1.972-0.127,2.1-2.29,2.1c-3.944,0-7.443-1.4-10.115-4.136c-2.99-2.926-3.88-5.534-4.516-12.977
	c-0.446-5.661-0.128-6.425,2.608-6.425c1.336,0,7.252-5.598,8.46-8.015c1.718-3.308,2.354-9.86,1.4-13.931
	c-1.082-4.517-3.626-7.507-8.46-9.797c-8.27-4.007-16.667-2.799-23.029,3.18c-6.107,5.726-7.697,13.36-4.262,20.103
	c1.527,2.99,6.17,7.06,8.842,7.76c1.654,0.446,1.782,0.7,1.909,4.263c0.445,10.114,3.308,23.664,6.616,30.47
	c5.025,10.56,16.984,18.703,28.562,19.53c3.053,0.19,11.26-0.7,13.995-1.527c5.47-1.718,10.305-4.644,14.25-8.715
	c9.35-9.606,9.923-11.387,9.923-31.998v-15.012l2.735-1.654c7.443-4.326,12.278-15.077,10.306-22.71
	c-0.891-3.372-1.4-4.199-4.453-7.38c-3.435-3.562-7.38-4.898-14.122-4.834c-4.708,0.064-6.425,0.382-8.715,1.527
	c-4.008,1.972-8.97,6.488-11.006,9.987c-1.526,2.608-1.78,3.626-1.653,7.76c0,2.99,0.445,5.472,1.08,6.68
	c0.573,1.018,1.019,2.227,1.019,2.608c0,1.336,6.043,6.298,8.651,7.189c2.481,0.827,2.608,0.954,3.69,5.152
	c1.972,7.443,1.272,13.74-1.909,18.194c-1.654,2.226-6.488,3.88-12.277,4.198c-3.753,0.191-3.69,0.318-3.308-4.135
	c0.064-0.381,1.4-1.463,2.99-2.29c4.707-2.544,6.298-5.343,6.043-10.75c-0.127-2.29-3.944-5.853-6.298-5.853
	c-1.017,0-2.035-0.382-2.162-0.827c-0.191-0.381-0.382-5.534-0.446-11.323c-0.127-11.323,0.7-16.921,3.181-20.356
	c0.636-0.954,1.209-1.972,1.209-2.29c0-0.827,4.453-4.898,6.997-6.362c5.916-3.498,14.758-5.407,23.791-5.216
	c10.115,0.191,11.324-1.209,4.008-4.707C-160.557,366.878-171.053,365.669-178.242,368.214L-178.242,368.214z M-163.165,370.822
	c4.007,0.954,4.389,1.78,0.827,1.78c-4.962,0-14.822,2.673-18.957,5.154c-6.489,3.944-9.987,8.142-12.66,15.521
	c-1.017,2.8-1.144,5.026-1.017,17.748c0.127,16.412,0.318,17.176,3.944,15.713c3.372-1.463,4.962-0.128,4.58,3.753
	c-0.318,2.926-3.562,5.725-6.616,5.725c-2.671,0-3.18,1.336-2.671,7.125c0.509,6.17,1.145,6.934,5.407,6.488
	c13.804-1.526,18.193-3.816,20.929-11.068c2.035-5.408,1.59-13.041-1.21-19.402c-0.254-0.7-0.635-1.718-0.826-2.29
	c-0.19-0.573-1.718-1.4-3.435-1.845c-3.944-1.082-6.87-3.88-8.46-8.08c-2.354-6.36-1.464-10.623,3.37-15.584
	c4.58-4.771,8.143-6.362,14.314-6.489c5.98-0.064,9.605,1.654,12.404,5.852c4.771,7.062,0.446,18.703-8.778,23.665l-2.99,1.59
	l-0.191,15.903c-0.254,20.675-1.018,23.283-9.478,31.362c-4.962,4.77-9.479,6.997-15.84,7.888
	c-13.931,1.972-26.463-3.626-32.38-14.568c-1.971-3.626-4.897-12.913-5.66-18.193c-0.319-2.1-0.7-4.008-0.891-4.262
	c-0.191-0.318-0.382-3.563-0.382-7.252c0-7.316-0.127-7.634-3.944-8.206c-2.99-0.446-6.425-2.99-7.824-5.662
	c-1.59-3.117-1.909-8.779-0.573-11.387c1.59-3.18,5.98-7.506,8.906-8.778c3.944-1.781,5.725-2.036,9.351-1.273
	c4.135,0.891,6.997,2.545,9.097,5.344c1.4,1.718,1.59,2.735,1.654,6.87c0.063,4.835-0.89,9.351-2.036,9.351
	c-0.318,0-0.572,0.446-0.572,0.955c0,1.463-5.598,4.77-8.016,4.77c-1.145,0-2.163,0.382-2.353,0.764
	c-0.382,1.336,0.19,11.387,0.89,14.822c1.018,4.644,2.163,6.87,4.962,9.415c4.453,4.007,9.478,5.725,15.649,5.407l3.817-0.191
	l0.19-5.026c0.128-2.99-0.063-5.28-0.508-5.725c-0.382-0.382-2.418-0.7-4.517-0.7c-3.308,0-4.071-0.254-5.089-1.526
	c-1.718-2.1-1.59-5.471,0.19-6.68c1.846-1.272,3.627-1.272,5.026,0c1.654,1.527,2.926,0.7,3.753-2.353
	c0.891-3.181,0.319-28.754-0.7-34.16c-0.89-4.39-3.689-8.016-8.842-11.451c-4.707-3.054-6.87-3.817-12.722-4.39
	c-2.29-0.19-4.199-0.445-4.326-0.508c-0.763-0.636,7.952-1.654,12.532-1.463c6.807,0.254,11.514,2.353,16.349,7.315
	c3.944,4.135,5.47,4.326,7.188,0.954c2.735-5.343,10.94-10.941,18.51-12.594c4.644-1.018,6.616-1.018,10.624-0.127L-163.165,370.822
	z M-171.562,394.549c-4.517,2.29-5.916,6.425-3.499,10.37c2.036,3.307,6.425,4.261,10.369,2.29c3.244-1.718,4.262-3.308,4.262-6.553
	c0-3.817-1.209-5.47-4.707-6.361C-168.827,393.405-169.272,393.405-171.562,394.549z M-162.72,401.356
	c0.445,0.318,0.318,0.509-0.382,0.509c-0.89,0-1.145-0.509-1.081-2.1c0.127-1.717,0.127-1.78,0.382-0.445
	C-163.611,400.211-163.165,401.102-162.72,401.356z M-166.473,400.402c0.381,1.081-1.59,3.371-2.926,3.371
	c-1.082,0-1.972-2.608-1.145-3.562c1.017-1.272,3.498-1.145,4.07,0.19L-166.473,400.402z M-233.203,400.72
	c-2.418,1.845-3.754,5.025-2.927,7.188c2.29,6.107,11.45,7.125,14.504,1.654c1.781-3.117,1.781-4.262,0-6.806
	C-224.043,399.256-229.832,398.239-233.203,400.72z M-226.588,406.19c0,0.573-0.636,1.464-1.4,1.973
	c-1.208,0.763-1.462,0.7-2.226-0.318c-1.4-1.972-1.017-2.8,1.4-2.8c1.717,0,2.226,0.255,2.226,1.146V406.19z M-192.745,429.982
	c-1.21,1.209-0.891,2.799,0.826,3.69c1.4,0.763,1.718,0.7,2.863-0.319c0.7-0.636,1.272-1.653,1.272-2.226
	C-187.784,429.282-191.282,428.519-192.745,429.982z M-208.903,431.572c-1.527,0.382-1.463,2.29,0.19,3.753
	c1.464,1.336,3.245,0.637,3.69-1.335c0.191-1.082-1.527-2.99-2.417-2.8C-207.631,431.254-208.33,431.381-208.903,431.572z
	 M-200.761,457.272c-1.4,1.081-1.654,1.718-1.336,3.053c0.891,3.817,5.471,5.153,8.27,2.29c1.845-1.78,1.972-3.244,0.573-5.28
	C-194.527,455.427-198.407,455.427-200.761,457.272z"/>
</svg>
