<?xml version="1.0" encoding="iso-8859-1"?>
<!-- Generator: Adobe Illustrator 19.0.0, SVG Export Plug-In . SVG Version: 6.00 Build 0)  -->
<svg version="1.2" baseProfile="tiny" id="Layer_1" xmlns="http://www.w3.org/2000/svg" xmlns:xlink="http://www.w3.org/1999/xlink"
	 x="0px" y="0px" viewBox="-247 362.89 100 117" xml:space="preserve">
<title>face_00098</title>
<path d="M-157.73,363.836c-2.87,0.531-7.865,0.956-10.84,0.956c-5.42,0.106-5.632,0.213-5.632,2.976
	c-0.107,3.082-1.17,15.728-1.488,15.728c0,0.106-10.946-0.107-24.23-0.32l-24.123-0.424l-0.319-7.545l-0.319-7.652l-10.627,0.425
	c-5.844,0.213-10.732,0.425-10.732,0.532c-0.106,0-0.319,7.226-0.531,16.046l-0.425,15.94l10.945,0.107h10.84v-5.951h17.003v6.589
	c0,9.351-0.744,11.264-4.144,11.69c-2.445,0.318-2.763,0.743-2.763,4.569c0,4.038,0.212,4.25,3.507,4.57
	c3.294,0.318,3.4,0.531,3.4,4.888v4.57l-16.578,0.531c-9.67,0.319-17.003,1.063-17.64,1.7c-0.85,0.85-0.745,3.72,0.53,10.202
	c1.063,4.889,1.806,10.308,1.806,11.797c0,2.657,0.319,2.87,3.507,2.338c1.807-0.319,9.246-0.956,16.472-1.381l13.071-0.744
	l-0.212,9.245c-0.32,9.033,0.85,13.071,3.188,10.733c0.85-0.85,1.7-16.896,1.275-22.741c-0.106-1.17-3.082-1.276-17.003-0.638
	l-16.79,0.744l-0.639-4.038c-1.168-6.908-0.85-10.734,0.85-11.477c1.17-0.426,1.595,0.212,1.595,2.869s-0.32,3.082-1.17,1.806
	c-0.743-1.062-0.956-1.169-0.743-0.212c0.744,2.763,2.444,1.7,2.763-1.7c0.319-2.976,0.744-3.401,3.507-3.401
	c1.7,0,3.082,0.531,3.082,1.275c0,0.957,0.425,0.85,1.062-0.212c0.957-1.382,1.063-1.382,1.063,0c0,1.275,0.213,1.381,0.956,0.106
	c0.638-0.957,3.614-1.488,10.309-1.594l9.458-0.106l0.531-8.396c0.531-8.501,0.319-8.926-3.613-9.564
	c-2.55-0.319-3.295-1.7-0.957-1.7c3.614,0,4.357-2.126,4.783-14.666l0.318-11.902h-26.035v2.55c0,2.02-1.701,3.826-3.72,3.826
	c-0.213,0-0.32-1.594-0.213-3.507c0.213-2.975-0.106-3.4-2.657-3.719c-2.656-0.319-5.632,2.55-4.888,4.782
	c0.213,0.425-0.212,1.063-0.744,1.382c-0.637,0.318-1.063-1.913-1.063-5.845v-6.27l7.014-0.425c6.376-0.319,7.12-0.106,7.652,1.806
	c0.531,2.126,1.169,2.126,15.728,1.7c8.395-0.318,20.616-0.106,27.205,0.32c12.965,0.85,14.134,0.743,14.134-1.382
	c0-1.913,2.444-2.657,9.564-2.657c8.714,0,9.458-2.125,0.85-2.231c-3.72-0.107-7.014-0.107-7.439,0c-0.531,0-0.85-2.657-0.85-5.952
	c0-3.294,0.319-5.632,0.744-5.313c0.319,0.425,1.275,0.213,2.125-0.425c1.063-0.957,1.382-0.744,1.488,0.744
	c0,1.913,0.106,1.913,0.957-0.106c0.637-1.382,0.956-1.595,0.956-0.532c0.106,1.382,0.213,1.382,1.169,0
	c0.956-1.381,1.169-1.381,2.125,0c0.532,0.85,1.063,1.063,1.063,0.425c0-2.231,4.145-2.55,5.314-0.425
	c0.53,1.063,0.956,8.183,0.85,15.834l-0.107,13.922h-7.332l0.744-4.357l0.744-4.251l-4.145,0.319
	c-3.826,0.319-4.038,0.531-4.57,4.57c-0.425,3.4-0.956,4.25-2.656,4.25c-1.807,0-2.126-0.744-2.126-4.782v-4.782l-3.72,0.212
	c-2.018,0.213-7.65,0.638-12.539,0.957l-8.82,0.744v14.452c-0.107,24.23-0.107,24.761,1.487,26.355
	c1.17,1.276,3.295,1.276,12.328,0.425c6.057-0.637,14.24-1.169,18.172-1.169c6.695,0,7.226,0.107,7.332,2.338
	c0,1.382,0.32,4.676,0.744,7.333c0.425,3.72,0.213,5.101-0.956,5.526c-0.744,0.319-9.564,1.382-19.447,2.338
	c-9.884,1.063-18.279,2.125-18.704,2.55c-1.169,0.957-1.7,23.805-0.638,25.824c0.532,1.063,1.594,1.913,2.445,1.913
	c1.169,0,1.594-2.444,1.806-11.902l0.319-11.903l4.25-0.743c2.339-0.426,10.522-1.276,18.067-1.913
	c7.651-0.744,14.665-1.488,15.621-1.807c1.594-0.425,1.807-2.019,1.594-12.433l-0.212-11.903h-6.376
	c-3.507,0-12.753,0.425-20.51,0.85l-14.134,0.85l0.319-4.038c0.318-3.932,0.425-4.038,4.25-3.932c3.72,0.107,3.932-0.106,4.57-3.932
	c0.85-5.1,0-6.588-3.507-5.738s-4.463-0.744-4.463-7.652c0-7.439,1.381-8.607,9.777-8.395l6.695,0.106l-0.213,3.082
	c-0.425,6.164-0.213,6.164,22.53,4.25l6.375-0.53l-0.212-18.81c-0.138-6.553-0.244-13.106-0.319-19.66
	c0-0.85-2.657-0.744-10.096,0.319L-157.73,363.836z M-230.1,371.912c1.169,0.425,1.7,2.02,1.7,4.889c0,2.231-0.319,3.932-0.744,3.72
	c-0.531-0.32-3.082-0.213-5.845,0.318l-5.1,0.744l-0.107-3.826l-0.213-3.826l-0.743,4.251l-0.744,4.25l-0.213-5.1
	c-0.106-4.357,0.213-4.995,2.02-4.995c1.593,0,2.125,0.744,2.23,2.87l0.213,2.975l0.532-3.188c0.425-2.763,0.531-2.976,1.275-1.063
	c0.85,2.02,0.956,2.02,0.956-0.318c0.107-2.338,1.594-2.87,4.783-1.7V371.912z M-156.88,375.525c0,2.657,0.212,3.72,0.425,2.338
	c0.212-1.275,0.212-3.4,0-4.782C-156.668,371.806-156.88,372.869-156.88,375.525z M-153.799,375.525c0,2.02,0.213,2.87,0.532,1.807
	c0.212-0.956,0.212-2.657,0-3.72C-153.587,372.656-153.799,373.506-153.799,375.525z M-160.175,435.037
	c0,1.487,0.213,2.019,0.532,1.275c0.212-0.638,0.212-1.913,0-2.657C-159.963,433.017-160.175,433.549-160.175,435.037z
	 M-227.23,442.05c0,1.17,0.319,1.488,0.637,0.638c0.32-0.744,0.213-1.7-0.106-2.02C-227.018,440.244-227.336,440.881-227.23,442.05z
	 M-230.525,442.475c0,0.532,0.532,1.063,1.063,1.063c0.638,0,1.063-0.531,1.063-1.063c0-0.637-0.425-1.062-1.063-1.062
	C-229.993,441.413-230.525,441.838-230.525,442.475z"/>
</svg>
