<?xml version="1.0" encoding="iso-8859-1"?>
<!-- Generator: Adobe Illustrator 19.0.0, SVG Export Plug-In . SVG Version: 6.00 Build 0)  -->
<svg version="1.2" baseProfile="tiny" id="Layer_1" xmlns="http://www.w3.org/2000/svg" xmlns:xlink="http://www.w3.org/1999/xlink"
	 x="0px" y="0px" viewBox="-247 373.89 100 95" xml:space="preserve">
<title>face_00099</title>
<path d="M-246.345,374.942c-0.38,0.57-0.666,19.962-0.57,43.06c0,51.427,0,47.244,0.855,47.244c0.38,0,0.76-19.962,0.855-44.296
	c0.095-24.43,0.476-44.677,0.856-44.962c0.95-0.95,33.46-0.666,34.41,0.38c0.57,0.475,1.141,5.893,1.236,11.882l0.38,10.932h-7.034
	c-6.559,0-7.034-0.19-7.32-2.092c-0.19-1.14,0.096-2.376,0.571-2.661c0.57-0.285,0.95,0.285,0.95,1.33
	c0,1.807,0.571,1.997,5.229,1.997h5.227l-0.095-3.612c0-1.902-0.38-5.704-0.666-8.27c-0.665-4.563-0.76-4.753-3.517-4.658
	c-1.52,0.095-4.372,0.19-6.273,0.285l-3.422,0.095l0.095,9.506l0.095,9.505h18.345l-0.475-12.167
	c-0.19-6.654-0.57-12.642-0.76-13.308C-207.943,373.612-245.396,373.422-246.345,374.942L-246.345,374.942z M-213.551,383.497
	c0,0.476-1.71,0.95-3.802,0.95c-2.567,0-3.992,0.571-4.658,1.617c-0.855,1.52-0.95,1.52-1.045-0.38c0-1.141,0.57-2.282,1.235-2.472
	C-219.729,382.262-213.551,382.547-213.551,383.497z M-215.642,387.965c-0.19,0.95-0.95,1.71-1.711,1.71
	c-0.856,0-1.426,0.952-1.426,2.377c0,1.901,0.475,2.377,2.377,2.567c4.087,0.19,4.372,0.38,1.996,1.33
	c-3.993,1.617-5.799,0.286-5.799-4.277s0.476-5.323,3.042-5.323C-215.927,386.349-215.452,386.919-215.642,387.965z
	 M-185.889,375.227c-0.76,1.046-1.426,5.989-1.711,14.354l-0.57,12.833l9.41-0.57c5.133-0.286,9.886-0.951,10.456-1.617
	c0.57-0.665,0.856-4.182,0.57-9.22l-0.38-8.27l-2.851-0.57c-1.616-0.286-4.753-0.57-6.94-0.57h-4.087l-0.38,7.033
	c-0.475,10.266-0.475,10.076,5.513,10.076h5.133v-5.988c0-6.37-0.665-8.175-2.851-8.08c-3.517,0.19-5.799-0.285-5.229-1.14
	c0.76-1.237,8.27-0.286,9.221,1.235c0.38,0.57,0.76,4.278,0.76,7.985v6.939h-5.133c-2.756,0-6.463,0.285-8.175,0.57l-3.041,0.666
	l0.38-11.978c0.095-6.558,0.57-12.262,0.95-12.547c0.38-0.38,8.65-0.38,18.346,0l17.681,0.665l-0.665,25.38
	c-0.38,13.879-0.856,33.84-1.236,44.297l-0.57,18.917l-21.388,0.095h-21.388V448.61l14.354-0.285
	c10.076-0.19,14.733-0.57,15.304-1.426c0.475-0.57,0.665-3.327,0.475-6.083l-0.38-4.943l-12.928-0.286
	c-7.224-0.19-14.163-0.19-15.59,0c-2.851,0.38-3.992,2.567-3.041,6.274l0.57,2.377l13.403-0.38
	c7.32-0.286,13.688-0.761,14.164-1.236c0.475-0.476,0.57-1.426,0.285-2.282c-0.475-1.14-2.472-1.426-11.977-1.14
	c-6.274,0.095-11.692,0.475-11.977,0.76c-0.38,0.285,4.467,0.57,10.741,0.666c9.22,0.095,10.646,0.285,7.51,0.95
	c-2.092,0.57-7.415,0.76-11.883,0.665c-7.984-0.285-8.08-0.285-8.365-2.946c-0.285-2.377-0.095-2.567,3.422-2.567
	c1.997,0,8.27,0.285,13.879,0.666l10.17,0.57l-0.284,3.897l-0.286,3.898l-14.733,0.19l-14.734,0.095l-0.285,10.551l-0.286,10.456
	l2.567,0.666c2.376,0.57,44.011-0.19,44.677-0.76c0.095-0.19,0.475-11.883,0.76-25.951c0.285-14.164,0.856-34.506,1.14-45.247
	c0.666-18.727,0.571-19.677-1.14-20.153c-0.95-0.285-9.505-0.855-18.916-1.14C-182.372,373.896-184.748,373.991-185.889,375.227
	L-185.889,375.227z M-174.577,388.345c0,2.377-3.137,2.091-3.613-0.38c-0.19-1.14,0.286-1.616,1.616-1.616
	C-175.148,386.349-174.577,386.919-174.577,388.345z M-201.383,392.718c0.285,20.342-0.57,31.749-2.472,32.414
	c-0.665,0.19-1.236-0.19-1.046-0.855c0.095-0.76,0.095-2.947,0-4.943c-0.095-3.232-0.285-3.517-2.851-3.517
	c-3.232,0-3.898,1.33-3.898,7.224v4.182h5.229c3.422,0,5.418-0.475,5.703-1.235c0.76-2.282,1.33-13.784,1.33-31.179
	c0.096-16.54,0.19-17.776,1.902-18.25c3.897-0.952,3.992-0.096,3.897,25.76l-0.095,24.904l5.989-0.665
	c3.327-0.285,6.083-0.57,6.178-0.665c0-0.095,0.286-2.282,0.476-4.848l0.285-4.753h-3.327c-3.232,0-3.327,0.095-3.612,3.992
	c-0.285,3.327-0.666,4.088-2.092,4.088c-1.806,0-1.9-0.856-1.615-24.525l0.19-24.43l-5.228-0.285l-5.23-0.285l0.286,17.87
	L-201.383,392.718z M-183.513,420.76c-0.665,3.232-1.235,4.182-1.996,3.422c-0.855-0.76,0.665-6.464,1.711-6.464
	C-183.323,417.718-183.133,418.953-183.513,420.76z M-206.897,422.09c0,2.282-0.38,3.232-1.14,3.042
	c-2.282-0.76-2.092-6.464,0.19-6.464C-207.372,418.668-206.897,420.189-206.897,422.09z M-229.71,441.862v7.13l13.593,0.285
	l13.498,0.285l-0.38,8.08c-0.19,4.562-0.76,8.365-1.426,8.84c-0.57,0.38-10.171,0.57-21.198,0.475
	c-14.068-0.285-19.962-0.095-19.202,0.666c1.236,1.235,41.255,1.33,42.586,0c0.475-0.57,1.046-5.228,1.14-10.457l0.19-9.505
	l-13.212-0.285c-7.224-0.096-13.403-0.666-13.688-1.046c-0.285-0.475-0.285-3.042-0.095-5.799c0.285-4.467,0.475-4.847,2.376-4.372
	c1.046,0.285,6.559,0.57,12.262,0.57h10.172v6.654h-10.457c-8.175,0-10.456-0.285-10.456-1.236c0-1.045,1.901-1.235,9.506-0.855
	c6.749,0.285,9.505,0.095,9.505-0.665c0-0.666-3.422-1.046-11.026-1.046h-10.932l0.285,2.566l0.286,2.662h24.713l0.476-4.563
	c0.285-2.471,0.285-4.467,0-4.467c-0.286,0-6.75-0.286-14.449-0.57l-14.068-0.571v7.224H-229.71z"/>
</svg>
