<?xml version="1.0" encoding="iso-8859-1"?>
<!-- Generator: Adobe Illustrator 19.0.0, SVG Export Plug-In . SVG Version: 6.00 Build 0)  -->
<svg version="1.2" baseProfile="tiny" id="Layer_1" xmlns="http://www.w3.org/2000/svg" xmlns:xlink="http://www.w3.org/1999/xlink"
	 x="0px" y="0px" viewBox="-247 364.89 100 113" xml:space="preserve">
<title>face_00004</title>
<path d="M-205.78,365.582c-17.605,2.38-30.373,9.675-36.241,20.619c-3.886,7.216-4.839,12.688-4.917,28.866
	c-0.08,14.115,0,14.67,1.507,14.908c1.506,0.238,1.586-0.237,1.586-15.86c0-14.433,0.238-16.574,1.744-20.618
	c5.472-14.671,17.368-22.84,37.352-25.694c9.278-1.27,13.798-1.031,23.473,1.427c6.979,1.665,10.706,3.41,16.336,7.454
	c9.992,7.217,15.385,22.84,14.671,42.903c-0.317,9.12-0.238,9.754,1.19,9.754c1.744,0,2.3-4.44,1.903-15.622
	c-0.555-13.958-4.6-26.963-10.626-33.862C-167.715,368.596-186.668,362.965-205.78,365.582z M-219.182,408.01
	c-9.517,1.427-13.164,6.027-13.402,17.129c-0.159,7.454,1.427,10.944,6.027,13.164c4.678,2.38,9.12,0.476,18.08-7.85
	c7.93-7.217,10.39-8.328,15.464-6.662c1.666,0.555,4.441,2.617,6.582,4.996c6.583,7.216,8.327,8.723,12.372,10.547
	c4.996,2.38,6.106,2.38,9.04-0.159c3.569-3.013,4.362-6.582,3.33-14.829c-1.665-13.56-4.36-15.067-29.024-16.02
	c-6.503-0.237-14.591-0.554-17.843-0.713C-211.807,407.455-216.566,407.613-219.182,408.01z M-183.179,411.499
	c2.379,0.238,5.789,0.555,7.534,0.714c7.692,0.713,9.595,2.934,10.785,12.292c0.713,6.027,0.634,6.82-0.873,10.07
	c-1.269,2.539-2.22,3.49-3.489,3.49c-2.855,0-8.485-4.123-13.402-9.675c-8.882-10.23-18.398-10.468-27.121-0.793
	c-4.52,5.076-10.468,8.882-13.799,8.882c-3.49,0-5.63-3.648-5.63-9.516c0.079-9.834,2.22-14.195,7.85-15.781
	C-218.548,410.389-192.299,410.547-183.179,411.499z M-178.262,419.191c-1.428,1.428-1.11,4.996,0.555,6.503
	c3.489,3.172,7.137-1.269,4.44-5.313C-174.694,418.081-176.677,417.605-178.262,419.191z M-222.672,422.363
	c-1.506,1.507-1.11,3.648,1.031,5.076c1.904,1.269,2.141,1.269,3.569-0.08c2.696-2.458,1.507-5.947-1.983-5.947
	C-221.006,421.412-222.116,421.808-222.672,422.363z M-206.812,435.448c-0.237,0.793-0.554,3.569-0.554,6.186
	c0,4.361,0.158,4.758,1.824,4.996c1.427,0.238,1.744-0.08,1.744-1.824c0-1.19,0.318-1.903,0.793-1.586
	c0.476,0.238,0.793,2.22,0.793,4.361c0,3.728-0.079,3.886-2.855,4.759c-1.506,0.555-4.282,1.03-6.026,1.11
	c-1.824,0.08-3.49,0.634-3.648,1.19c-0.159,0.554,1.268,2.537,3.251,4.361c5.948,5.789,15.226,6.74,23.473,2.458
	c5.71-2.934,6.979-4.044,5.869-5.234c-0.793-0.793-0.714-1.19,0.317-1.903c2.38-1.744,0.317-2.775-5.393-2.775h-5.471v-2.697
	c0-3.251,1.665-4.916,3.806-3.727c2.141,1.11,2.538,0.476,2.538-4.758c0-3.41-0.317-4.6-1.27-4.996
	c-1.823-0.714-2.775,0.159-2.299,2.141c0.397,1.428-0.08,1.983-2.062,2.855c-5.472,2.38-11.816,0-11.816-4.44
	C-203.798,433.783-205.938,433.386-206.812,435.448L-206.812,435.448z M-186.352,456.225c0,1.031-4.52,3.648-8.167,4.838
	c-3.728,1.19-8.803,0.476-12.371-1.665c-1.428-0.873-2.538-1.745-2.38-1.824c0.16-0.16,4.6-0.476,9.834-0.793
	c5.155-0.318,9.595-0.714,9.833-0.873c0.635-0.714,3.252-0.396,3.252,0.317H-186.352z M-231.315,444.091
	c-0.872,2.38,1.27,12.926,3.648,17.605c1.27,2.538,3.569,5.79,5.155,7.137c5.868,5.076,16.812,8.882,25.773,8.882
	c7.772,0,16.892-4.52,21.808-10.626c4.362-5.472,9.596-20.698,7.534-21.967c-1.507-0.952-3.093,0.08-3.093,2.062
	c0,2.538-3.806,13.799-5.71,16.891c-2.14,3.41-9.516,8.644-14.433,10.072c-10.547,3.172-24.742-0.952-31.562-8.961
	c-2.934-3.49-5.55-10.865-5.71-16.02c-0.158-4.44-0.793-6.344-2.14-6.344C-230.442,442.822-230.997,443.377-231.315,444.091
	L-231.315,444.091z"/>
</svg>
