<?xml version="1.0" encoding="iso-8859-1"?>
<!-- Generator: Adobe Illustrator 19.0.0, SVG Export Plug-In . SVG Version: 6.00 Build 0)  -->
<svg version="1.2" baseProfile="tiny" id="Layer_1" xmlns="http://www.w3.org/2000/svg" xmlns:xlink="http://www.w3.org/1999/xlink"
	 x="0px" y="0px" viewBox="-247 376.89 100 88" xml:space="preserve">
<title>face_00103</title>
<path d="M-223.145,377.694c-2.13,1.31-0.246,1.802,2.21,0.491c1.885-1.064,1.967-1.228,0.657-1.228
	c-0.9-0.082-2.211,0.245-2.866,0.737H-223.145z M-243.457,393.828c-0.491,0.82-0.982,2.785-1.31,4.34
	c-0.491,3.031-0.082,2.376,1.556-2.702C-242.146,392.272-242.228,391.453-243.457,393.828z M-246.569,406.113
	c-0.983,8.354,0.164,21.294,2.539,28.501c2.13,6.389,4.259,10.976,3.44,7.371c-0.246-0.9-1.474-4.422-2.703-7.78
	c-2.13-5.815-2.293-6.962-2.375-19.492c0-7.29-0.082-13.268-0.164-13.268S-246.242,403.575-246.569,406.113z M-221.426,412.092
	c-2.62,1.31-4.013,3.112-4.095,5.405c-0.163,1.966,5.078,3.44,11.22,3.194c5.324-0.163,6.307-0.491,8.436-2.539
	c1.31-1.228,2.376-2.538,2.376-2.948c0-1.31-4.996-3.112-8.6-3.112c-2.13,0-4.423-0.328-5.16-0.737
	C-218.231,410.863-219.542,411.109-221.426,412.092z M-190.795,412.992c-4.586,2.867-5.815,6.47-2.211,6.47
	c0.819,0,1.883,0.41,2.293,0.82c0.491,0.491,3.685,0.9,7.125,0.983c5.651,0.082,6.388-0.082,7.863-1.884
	c2.047-2.375,2.13-4.259,0.41-5.651c-1.72-1.474-13.35-1.966-15.48-0.737V412.992z M-225.357,423.968
	c0,2.703,0.164,3.686,0.328,2.212c0.164-1.475,0.164-3.686,0-4.914C-225.193,420.037-225.357,421.266-225.357,423.968z
	 M-170.484,422.74c0,2.047,0.164,2.866,0.328,1.802c0.164-0.983,0.164-2.621,0-3.686
	C-170.32,419.873-170.484,420.692-170.484,422.74z M-147.715,420.774c0,0.901,0.245,1.147,0.49,0.492
	c0.247-0.574,0.165-1.31-0.081-1.556c-0.246-0.328-0.491,0.163-0.41,1.064H-147.715z M-147.634,425.197
	c-0.081,1.556-0.491,4.177-0.982,5.651c-0.41,1.556-0.656,3.03-0.41,3.194c0.655,0.655,2.13-6.552,1.802-9.09l-0.328-2.622
	C-147.552,422.33-147.634,425.197-147.634,425.197z M-203.08,427.489c-0.246,0.246-0.41,1.147-0.41,1.966
	c0,1.556,2.048,2.047,2.867,0.655c0.41-0.655,0.901-0.573,1.638,0c1.474,1.228,2.867,0.41,2.867-1.556
	c0-1.229-0.656-1.474-3.276-1.474C-201.196,427.08-202.834,427.243-203.08,427.489L-203.08,427.489z M-224.702,431.339
	c0,0.9,0.328,2.21,0.738,2.866c0.737,1.065,0.819,1.065,0.737,0c0-0.655-0.328-1.966-0.737-2.867l-0.738-1.638V431.339
	L-224.702,431.339z M-205.455,436.252c-3.522,1.229-4.668,2.457-4.013,4.26c0.41,0.982,2.13,1.064,8.6,0.818
	c4.422-0.245,8.353-0.573,8.599-0.9c0.983-0.983,0.9-2.867-0.082-3.686C-193.989,435.352-202.015,435.106-205.455,436.252z
	 M-222.736,437.481c0.9,3.03,2.948,5.405,8.436,9.664c1.883,1.474,3.44,2.293,3.44,1.802c0-0.41-0.246-0.82-0.656-0.82
	c-1.146,0-8.19-6.96-9.991-9.827C-222.9,436.089-223.145,435.925-222.736,437.481L-222.736,437.481z M-150.172,436.908
	c0,0.819-1.393,4.013-2.949,7.125c-1.556,3.194-2.62,5.733-2.211,5.733c0.983,0,6.06-11.466,5.65-12.94
	C-150.009,435.597-150.091,435.597-150.172,436.908z M-177.527,440.757c-1.556,1.802-1.802,2.866-0.573,2.047
	c0.819-0.491,2.784-3.685,2.293-3.685C-175.971,439.119-176.708,439.856-177.527,440.757z M-201.278,443.787
	c-4.34,0.328-4.75,0.492-4.505,2.13c0.41,2.784,4.013,4.177,7.371,2.784c1.475-0.655,3.194-1.72,3.768-2.457
	c1.228-1.392,0.655-3.112-0.901-2.866c-0.573,0.082-3.112,0.245-5.733,0.41V443.787z M-240.344,444.77
	c0,0.41,0.409,1.065,0.819,1.31c0.49,0.246,0.819,0.164,0.819-0.327c0-0.41-0.328-1.065-0.82-1.31
	C-239.935,444.197-240.344,444.279-240.344,444.77z M-236.987,450.257c3.03,4.996,4.75,7.208,5.242,6.798
	c0.164-0.246-0.328-1.228-1.147-2.13c-0.819-0.9-2.129-2.784-2.866-4.176c-0.737-1.393-1.72-2.785-2.211-3.112
	C-238.543,447.309-238.051,448.537-236.987,450.257z M-187.601,450.175c-2.211,1.557-3.685,2.867-3.358,2.867
	c0.82,0,7.945-4.832,7.945-5.324C-183.014,446.981-183.506,447.308-187.601,450.175z M-208.485,451.404
	c1.064,0.9,2.293,1.638,2.702,1.638c0.492,0-0.082-0.737-1.228-1.638C-209.714,449.274-211.024,449.274-208.485,451.404z
	 M-156.806,451.24c0,0.492-0.492,1.392-1.065,1.966c-1.556,1.638-4.095,5.815-3.276,5.323c1.474-0.9,5.405-7.125,4.832-7.698
	c-0.246-0.246-0.491-0.082-0.491,0.41V451.24z M-203.408,453.943c1.065,0.655,7.945,1.065,7.208,0.41
	c-0.164-0.164-2.13-0.492-4.341-0.738C-202.998,453.37-204.063,453.533-203.408,453.943z M-229.698,460.085
	c0,1.065,0.901,2.13,3.277,4.013c1.72,1.393,1.638,1.147-0.41-1.228c-1.31-1.556-2.539-3.03-2.62-3.194
	c-0.165-0.164-0.246,0-0.246,0.41L-229.698,460.085z M-163.604,460.986c-0.328,0.246-0.573,0.901-0.573,1.393
	c0,0.49,0.41,0.409,0.982-0.164c0.492-0.492,0.738-1.147,0.574-1.393C-162.867,460.577-163.358,460.659-163.604,460.986z"/>
</svg>
