<?xml version="1.0" encoding="utf-8"?>
<!-- Generator: Adobe Illustrator 19.0.0, SVG Export Plug-In . SVG Version: 6.00 Build 0)  -->
<svg version="1.2" baseProfile="tiny" id="Layer_1" xmlns="http://www.w3.org/2000/svg" xmlns:xlink="http://www.w3.org/1999/xlink"
	 x="0px" y="0px" viewBox="-252 370.9 91 100" xml:space="preserve">
<title>face_00010</title>
<path d="M-237.5,373.2c-8.4,4.4-14.4,12-14.4,18.1c0,1.4,1.8,4.1,4.3,6.4c10,9.6,17.1,10,32.3,2.2c2.6-1.3-1.2,19-4.2,22.3
	c-2.2,2.5-1.9,3.8,2.1,8.7c2.8,3.4,3.7,5.9,4.3,10.6c0.5,4.1,0.4,6.2-0.4,6.7c-0.6,0.4-4.6,1.5-8.7,2.3c-7.2,1.5-7.6,1.5-9.6-0.7
	c-2.8-2.9-5.5-1.2-4.1,2.7c0.5,1.3,0.6,3.8,0.4,5.6c-0.7,4.6,4.1,9,5.5,5c0.5-1.2,1.4-1.1,4.7,1.1c7.6,4.8,16.8,7.2,24.3,6.5
	c8.4-0.9,11.2-1.9,17.5-6.8c4.6-3.4,5.1-4.3,5.1-7.9c0-4.8-2.7-6.7-4.9-3.6c-1.3,1.8-1.7,1.8-6.5,0.2c-8.5-2.9-9.9-4.3-9.9-10.1
	c0-3.6,0.6-6,2.2-8c3.2-4.2,2-6.3-3-5.3c-2.2,0.4-4.3,0.9-4.5,1.1c-0.2,0.2-1.7-0.3-3.4-1.3l-3.1-1.6l0.6-10.3
	c0.9-13.5-1-34-3.2-38.5C-217.6,371.6-229.4,368.9-237.5,373.2L-237.5,373.2z M-231.1,380.4c-0.6,0.6-3,1.5-5.3,2
	c-2.3,0.5-5.2,1.4-6.4,1.8c-3.5,1.4,2.6-4.8,6.4-6.5c2.7-1.2,3.4-1.1,4.8,0.2C-230.7,378.9-230.5,379.8-231.1,380.4L-231.1,380.4z
	 M-240,395.4c0.5,3.8-0.1,4.1-3.3,0.6c-1.8-1.9-2-2.7-1-3.1C-241.4,391.8-240.4,392.4-240,395.4L-240,395.4z M-217.4,393.5
	c-1.3,2.3-3.9,5.1-4.7,5.1c-0.4,0-1.1-1.5-1.3-3.2c-0.4-3-0.3-3.2,3.1-3.2C-217.6,392.2-216.9,392.7-217.4,393.5L-217.4,393.5z
	 M-205.4,445.9c0.5,4.1-1.3,6.3-2.3,3c-0.6-2.1,0.4-8.1,1.3-7.1C-206.1,442-205.7,443.8-205.4,445.9z M-196,461.5
	c1,1.5-3.5,2.2-11.2,1.9c-4.2-0.2-6.9-0.9-7.2-1.7C-214.9,460.2-197,459.8-196,461.5z M-190.6,372.4c-6.8,3.1-13.1,12.3-11.6,17.1
	c2.3,7.4,12.6,14.5,20.9,14.5c5.7,0,11-3.1,13.4-7.7c1-1.8,2.9-4.5,4.3-5.8c2.5-2.3,2.5-2.5,0.6-6c-4.7-9.3-11-13.6-19.1-13.6
	C-185,371-188.8,371.7-190.6,372.4L-190.6,372.4z M-169.7,382.8c1.7,1.9,3,3.6,2.8,3.8c-0.3,0.2-3-0.5-6-1.8c-3-1.2-6.8-2.1-8.4-2.1
	c-2.8-0.1-2.8-0.1-0.9-1.6C-178.6,378.3-173.3,379-169.7,382.8z M-191.2,392.7c0,0.9,0.3,2.5,0.7,3.5c0.5,1.5,0.1,1.4-2.1-0.6
	c-3.4-3.1-3.6-4.4-0.7-4.4C-192.1,391.2-191.2,391.8-191.2,392.7z M-172,392.8c0,1.5-1.6,3.9-3.2,4.8c-1.6,0.9-1.7,0.6-0.6-2.6
	c0.6-2.2,1.6-3.4,2.5-3.1C-172.6,392.2-172,392.7-172,392.8z"/>
</svg>
