<?xml version="1.0" encoding="iso-8859-1"?>
<!-- Generator: Adobe Illustrator 19.0.0, SVG Export Plug-In . SVG Version: 6.00 Build 0)  -->
<svg version="1.2" baseProfile="tiny" id="Layer_1" xmlns="http://www.w3.org/2000/svg" xmlns:xlink="http://www.w3.org/1999/xlink"
	 x="0px" y="0px" viewBox="-247 356.89 100 128" xml:space="preserve">
<title>face_00041</title>
<path d="M-198.537,366.285l-0.192,9.405l-8.349,0.192c-10.748,0.384-21.497,0-22.169-0.576c-1.055-1.152,2.495-3.839,10.077-7.485
	c4.415-2.208,7.774-4.127,7.582-4.32c-0.288-0.287-3.743,1.057-7.774,3.072c-4.894,2.303-9.309,5.374-13.34,9.405
	c-7.87,7.773-9.5,11.036-9.02,17.658c0.48,5.758,2.782,8.83,8.636,11.9c4.223,2.112,7.582,2.304,12.668,0.48
	c4.32-1.535,7.006-4.51,7.87-9.02c0.768-3.84,1.727-3.936,3.263-0.193c1.44,3.551,3.935,5.854,3.167,2.975
	c-0.288-1.151-0.864-2.015-1.344-2.015c-0.48,0-0.863-0.672-0.863-1.44c0-0.767-0.864-1.919-1.92-2.59
	c-1.055-0.673-1.92-2.208-1.92-3.456c0-2.687-2.398-8.637-4.51-10.94c-1.44-1.632-1.055-1.728,8.158-1.728h9.693l0.383,14.108
	l0.288,14.203l0.192-14.203l0.192-14.108h9.597c8.733,0,11.804,0.864,8.158,2.208c-2.112,0.863-7.582,12.188-5.855,12.188
	c0.96,0,1.632,1.631,2.112,5.374c0.384,3.167,0.96,4.894,1.343,4.223c0.576-0.96,1.536-0.672,3.935,1.055
	c2.591,1.824,4.319,2.208,9.501,2.208c9.5-0.192,9.597-0.288,12.092-5.567c3.551-7.677,2.687-14.779-2.495-21.4
	c-2.4-3.072-5.95-5.663-5.566-4.127c0.192,0.671-1.632,1.247-4.51,1.44c-2.592,0.287-5.663,0.575-6.719,0.67
	c-1.055,0.097-6.334,0.097-11.708,0l-9.789-0.191l-0.384-9.405l-0.288-9.309L-198.537,366.285L-198.537,366.285z M-220.034,379.817
	c0.672,0.575,1.92,2.207,2.687,3.647c1.536,3.07,0.576,4.222-2.783,3.262c-1.247-0.287-0.671,0.384,1.44,1.632
	c3.647,2.207,4.51,3.935,2.591,5.086c-0.576,0.384-1.344,1.536-1.727,2.687c-0.384,1.056-2.208,2.496-4.031,3.167
	c-2.783,1.056-2.88,1.248-0.96,1.248c1.92,0.096,2.016,0.288,1.056,1.536c-0.96,1.151-0.96,1.44,0.096,1.535
	c2.111,0.096-2.207,1.728-4.703,1.728c-3.742,0.095-8.829-2.784-10.46-6.047c-0.96-1.631-1.536-3.358-1.44-3.838
	c0.192-0.384-0.288-1.44-0.864-2.112c-1.343-1.631,0.288-3.263,6.334-6.142c4.127-2.015,3.36-2.59-1.151-0.863l-2.687,0.96
	l2.111-2.208c2.015-2.111,2.207-2.495,2.207-4.607C-232.318,377.801-223.105,377.226-220.034,379.817z M-169.074,377.993
	c-0.192,0.192-1.631,0.576-3.263,0.96c-2.111,0.48-2.495,0.384-1.44-0.384C-172.433,377.705-168.114,377.129-169.074,377.993z
	 M-163.22,380.009c0.672,0.767,0.864,1.44,0.48,1.44c-0.384,0-0.192,0.575,0.384,1.343c0.768,0.96,0.864,1.535,0.096,2.015
	c-1.632,0.96-1.152,1.823,1.92,3.167c5.373,2.4,2.974,5.662-5.567,7.486c-4.99,1.055-5.182,1.151-1.823,1.247
	c1.919,0.096,3.55,0.48,3.55,1.056c0,1.631-7.581,1.056-11.516-0.96c-4.414-2.207-5.086-2.015-1.247,0.48
	c1.343,0.96,4.702,2.015,7.39,2.4l4.894,0.767l-4.799,0.096c-6.334,0.096-12.86-3.55-10.46-5.95
	c0.287-0.288,1.631-0.192,2.879,0.288c3.454,1.343,2.783,0.288-1.056-1.536c-4.51-2.111-4.03-4.222,1.44-6.43
	c2.879-1.151,3.454-1.535,1.727-1.343c-1.44,0.192-2.4,0-2.111-0.384c0.287-0.48-0.288-0.864-1.248-0.96
	c-1.344,0-1.44-0.192-0.288-0.576c0.768-0.287,2.111-1.151,2.975-1.919c1.824-1.535,5.854-1.92,9.501-0.864
	c2.303,0.672,2.303,0.576,0.576-0.767c-1.536-1.248-1.632-1.536-0.384-1.536C-165.139,378.569-163.892,379.241-163.22,380.009z
	 M-163.892,402.273c-0.671,0.192-1.823,0.192-2.399,0c-0.672-0.287-0.192-0.48,1.152-0.48
	C-163.796,401.793-163.316,401.986-163.892,402.273z M-228.67,383.08c1.152,0.192,2.88,0.192,3.839,0
	c0.864-0.288-0.096-0.48-2.207-0.384C-229.15,382.696-229.918,382.888-228.67,383.08z M-227.71,385.959
	c0.576,0.192,1.727,0.192,2.399,0c0.576-0.288,0.096-0.48-1.248-0.48C-227.902,385.479-228.382,385.671-227.71,385.959z
	 M-229.726,389.797c-1.247,1.152-0.671,3.935,0.96,4.511c1.92,0.768,4.223-1.823,3.455-3.839
	C-225.791,389.126-228.67,388.646-229.726,389.797z M-175.695,383.367c-0.864,0.576-0.96,0.96-0.288,0.96
	c0.576,0,1.44-0.48,1.728-0.96C-173.488,382.216-173.871,382.216-175.695,383.367z M-172.144,387.782
	c-0.384,0.384-0.672,1.728-0.672,2.975c0,1.824,0.48,2.207,2.975,2.207c2.591,0,2.88-0.287,2.591-2.687
	C-167.537,387.782-170.513,386.151-172.144,387.782z M-204.967,361.295c-0.383,0.575,0.48,0.96,1.824,0.96
	c1.343,0,2.495-0.48,2.495-0.96c0-0.576-0.864-0.96-1.823-0.96C-203.527,360.335-204.679,360.719-204.967,361.295z M-194.89,361.199
	c0,0.767,4.607,2.015,7.102,2.015c1.152-0.096-4.894-2.88-6.238-2.88c-0.475-0.002-0.862,0.381-0.864,0.856
	C-194.89,361.193-194.89,361.196-194.89,361.199z M-184.333,363.789c0.768,0.385,5.182,2.496,9.885,4.8
	c4.606,2.303,8.35,3.934,8.35,3.454c0-1.055-13.34-7.677-16.796-8.35c-1.535-0.287-2.207-0.191-1.44,0.097L-184.333,363.789z
	 M-190.571,397.475c-1.44,2.591-3.167,6.142-3.935,7.87c-0.768,1.823-2.015,4.03-2.879,4.798c-0.768,0.864-3.455,5.662-5.95,10.653
	c-4.798,9.405-5.47,9.98-10.269,8.157c-1.343-0.576-1.055,0,0.96,1.823c1.727,1.44,2.495,2.783,1.92,3.263
	c-0.48,0.384-1.728,2.112-2.688,3.84c-0.978,1.767-1.969,3.526-2.975,5.277c-3.359,6.046-4.99,8.35-5.854,8.35
	c-0.576,0-3.071-1.92-5.662-4.319c-7.006-6.43-6.334-4.606,0.96,2.495c3.454,3.36,6.91,7.39,7.773,9.021
	c4.127,7.678,10.653,16.411,14.875,19.77c7.678,6.046,7.294,4.319-0.863-3.743c-6.718-6.622-12.476-14.203-11.517-15.163
	c0.192-0.192,1.728,0.288,3.36,1.056c1.63,0.864,5.277,1.727,8.06,2.111c8.638,0.96,8.638,0.96,8.254,11.9
	c-0.096,5.183,0.096,9.501,0.48,9.501c1.823,0,11.612-7.581,10.844-8.349c-0.192-0.288-2.59,1.152-5.278,3.071l-4.894,3.55V464.27
	l6.046-1.248c3.263-0.576,7.677-1.92,9.693-2.975c2.11-0.96,3.934-1.631,4.126-1.44c0.48,0.48-5.086,11.133-6.526,12.572
	c-0.48,0.48-0.863,1.248-0.863,1.824c0,1.92,4.99-5.854,8.349-12.86c1.823-3.935,4.319-8.061,5.374-9.213
	c6.622-6.526,12.668-15.067,15.931-22.745c2.591-6.046,1.056-4.99-2.111,1.44c-3.935,7.965-17.37,24.088-15.547,18.714
	c0.576-1.632,3.359-12.668,4.798-18.906c0.672-2.88,1.92-7.87,2.783-10.94c2.304-8.254,1.248-7.582-1.247,0.767l-2.112,7.102
	l-4.99,0.48c-2.783,0.288-5.374,0.192-5.758-0.192s-1.152-3.455-1.728-6.91c-1.343-8.637-2.015-8.35-1.247,0.672
	c0.576,6.718,0.384,7.87-0.96,8.349c-0.864,0.384-1.535,1.056-1.535,1.631c0,0.768,0.575,0.768,1.919,0
	c1.631-0.863,1.92-0.575,2.4,2.592c0.383,2.015,1.055,5.086,1.63,6.813c0.48,1.728,0.768,3.36,0.576,3.647
	c-0.575,0.576-7.965-10.46-7.677-11.42c0.096-0.384-0.48-0.672-1.248-0.672c-1.919,0-1.823,0.864,0.288,2.783
	c1.44,1.248,8.83,13.052,8.83,14.012c0,0.192-2.208-0.48-4.799-1.536c-2.687-0.96-6.142-1.823-7.678-1.823
	c-2.303,0-2.879-0.384-2.879-2.111v-2.112l-1.535,2.112c-1.824,2.687-5.47,2.495-5.95-0.192c-0.384-1.92-0.48-2.112-5.087-7.582
	c-3.07-3.647-3.07-3.647-0.671-3.071c1.535,0.384,2.783,0.096,3.55-0.864c1.536-1.823,0.672-4.414-1.44-4.414
	c-1.727,0-1.823,0.192,1.92-6.526c1.536-2.687,3.167-4.99,3.647-4.99c0.48,0,0.576-0.48,0.288-0.96
	c-0.288-0.576,0.192-2.112,1.248-3.647c0.96-1.44,3.167-5.662,4.99-9.31c1.727-3.742,3.359-7.005,3.55-7.485
	c0.193-0.384,0.193-0.672-0.095-0.672C-187.788,392.964-189.132,394.98-190.571,397.475L-190.571,397.475z M-187.308,446.803
	c2.687,0.576,5.086,1.344,5.374,1.824c0.288,0.48-0.864,0.48-2.591-0.096c-4.703-1.344-5.47-1.056-1.92,0.767
	c3.647,1.824,3.551,2.688-0.191,1.248c-1.44-0.48-4.415-0.96-6.526-0.96c-3.455,0-3.743-0.192-2.591-1.535
	c1.151-1.344,0.767-1.44-3.551-0.864c-2.591,0.384-5.567,0.864-6.622,1.152c-1.056,0.288-1.632,0.192-1.248-0.192
	C-205.062,445.94-194.506,445.267-187.308,446.803z M-189.803,451.218c0.288,0.48-1.728,0.672-4.415,0.48
	c-8.83-0.48-9.98-0.864-2.879-1.056C-193.354,450.642-189.995,450.834-189.803,451.218z M-185.773,455.057
	c-1.055,0.288-2.495,0.96-3.167,1.44c-0.671,0.575-4.126,1.055-7.773,1.15c-3.647,0-6.43,0.385-6.142,0.769
	c0.576,1.055,6.526,0.863,14.491-0.576c7.486-1.248,9.117-0.576,3.36,1.535c-7.103,2.495-29.08,0.96-29.08-2.111
	c0-0.384,1.824-0.384,3.935,0.096c2.207,0.576,4.223,0.672,4.51,0.384c0.289-0.288-0.287-0.48-1.343-0.576
	c-1.535,0-1.44-0.192,0.384-0.96c1.248-0.48,2.687-0.672,3.167-0.288c0.48,0.288,1.631,0,2.495-0.48
	c0.96-0.575,5.183-0.96,9.405-0.96C-187.308,454.577-184.717,454.865-185.773,455.057L-185.773,455.057z M-168.018,428.473
	c0,3.071-5.183,22.073-5.758,21.401c-0.864-0.863-3.84-15.93-3.84-19.29c0-1.055,0.768-2.207,1.728-2.399
	C-172.721,427.321-168.018,427.513-168.018,428.473z M-204.295,437.398c4.223,5.375,3.935,6.43-2.111,8.062
	c-2.88,0.671-6.718,2.207-8.541,3.263c-1.728,1.055-3.36,1.727-3.647,1.535c-0.192-0.288,1.343-3.167,3.455-6.43
	c2.111-3.263,4.126-6.814,4.414-7.773C-209.861,433.272-207.174,433.847-204.295,437.398z M-148.825,409.088
	c0,2.015-0.671,5.757-1.535,8.253c-0.864,2.495-1.344,4.702-1.152,4.99c0.576,0.48,3.36-8.253,4.223-13.34
	c0.384-2.303,0.192-3.55-0.48-3.55c-0.576,0-1.055,1.631-1.055,3.646L-148.825,409.088z M-182.222,409.279
	c0,1.824,0.192,2.591,0.48,1.632c0.192-0.864,0.192-2.4,0-3.36C-182.03,406.688-182.222,407.456-182.222,409.279z M-161.78,409.375
	c-0.384,0.576-0.48,1.152-0.192,1.44c0.192,0.288,0.672-0.192,0.96-1.056C-160.341,408.128-160.917,407.839-161.78,409.375z
	 M-246.713,413.118c0.384,2.207,1.056,4.223,1.44,4.607c0.383,0.383,0.48-0.384,0.191-1.728c-0.384-1.343-0.671-3.359-0.671-4.606
	c0-1.152-0.384-2.112-0.864-2.112C-247.001,409.279-247.097,411.007-246.713,413.118z M-237.02,409.759
	c0.096,1.824,1.727,4.895,1.727,3.359c0-0.768-0.384-2.111-0.864-2.88C-236.637,409.471-237.02,409.183-237.02,409.759z
	 M-215.907,414.654c0,1.055,0.288,1.343,0.576,0.575c0.288-0.671,0.192-1.535-0.096-1.823
	C-215.715,413.022-216.003,413.598-215.907,414.654z M-216.963,421.467c-0.288,2.208-0.192,3.743,0.288,3.263s0.672-2.303,0.48-4.03
	C-216.483,417.533-216.579,417.533-216.963,421.467z M-244.698,419.452c-0.288,3.839,8.637,22.457,10.653,22.457
	c1.055,0,0.96-0.864-0.288-2.207c-2.303-2.688-5.278-8.254-7.774-14.588C-243.547,421.371-244.697,418.876-244.698,419.452
	L-244.698,419.452z M-233.278,420.22c0,1.343,5.95,16.986,6.43,16.602c0.384-0.48-2.303-8.445-4.606-13.627
	c-0.96-2.112-1.727-3.455-1.823-2.975H-233.278z M-192.874,426.458c-1.728,1.727-1.92,2.399-1.056,3.455
	c0.864,1.055,1.631,1.151,2.975,0.384c1.056-0.48,2.303-0.672,2.783-0.384c1.536,0.96,1.056-1.056-0.768-3.36l-1.823-2.207
	L-192.874,426.458z M-218.69,427.609c0.192,0.576,0.768,0.96,1.247,0.96c0.48,0,1.056-0.384,1.248-0.96
	c0.192-0.575-0.384-1.055-1.248-1.055C-218.306,426.554-218.883,427.034-218.69,427.609z M-190.091,436.151
	c-0.576,1.055-0.768,1.919-0.576,1.919c0.288,0,0.96-0.864,1.535-1.92c0.576-1.055,0.768-1.919,0.576-1.919
	C-188.844,434.231-189.516,435.095-190.091,436.151z M-220.226,439.701c-0.575,1.344-0.48,1.44,0.48,0.576
	c0.672-0.671,0.96-1.44,0.672-1.727C-219.362,438.262-219.938,438.742-220.226,439.701L-220.226,439.701z M-225.6,442.39
	c0,0.48,0.48,1.631,0.96,2.399s0.96,0.96,0.96,0.48c0-0.576-0.48-1.632-0.96-2.4c-0.48-0.767-0.96-1.055-0.96-0.48V442.39z"/>
</svg>
