<?xml version="1.0" encoding="iso-8859-1"?>
<!-- Generator: Adobe Illustrator 19.0.0, SVG Export Plug-In . SVG Version: 6.00 Build 0)  -->
<svg version="1.2" baseProfile="tiny" id="Layer_1" xmlns="http://www.w3.org/2000/svg" xmlns:xlink="http://www.w3.org/1999/xlink"
	 x="0px" y="0px" viewBox="-247 368.89 100 105" xml:space="preserve">
<title>face_00027</title>
<path d="M-217.178,369.728l-7.012,0.526l8.326,0.526c4.558,0.35,8.502,0.438,8.764,0.175c0.439-0.35-1.928-2.103-2.629-1.84
	c-0.263,0.087-3.593,0.35-7.45,0.613H-217.178z M-203.682,369.553c-0.087,0.438,0,1.928,0.088,3.506
	c0.088,2.19-0.263,2.892-1.928,3.418c-2.016,0.613-2.016,0.613,0.438,1.49c2.191,0.7,2.454,1.227,2.367,4.382
	c0,2.015,0.175,6.748,0.438,10.43c0.35,5.17,0.175,6.835-0.614,6.835c-0.7,0-0.526,0.438,0.438,0.964
	c0.965,0.614,1.49,1.928,1.49,4.295v3.505h-18.317c-16.74,0-18.405-0.175-18.755-1.577c-0.35-1.402-0.439-1.402-0.526,0
	c-0.088,1.227-0.877,1.577-3.33,1.577c-1.753,0-2.98,0.263-2.718,0.526c0.263,0.263,10.255,0.438,22.174,0.35h21.648l-0.263,3.507
	c-0.176,1.928,0.087,3.593,0.526,3.68c0.438,0.176,0.7-3.418,0.613-7.887l-0.175-8.063l3.68-0.176l3.77-0.087l-3.944-0.526
	c-3.681-0.526-3.944-0.701-4.207-3.33c-0.263-2.717-0.176-2.805,3.944-3.156l4.206-0.263l-4.119-0.175
	c-2.366-0.088-4.207-0.438-4.207-0.876c-0.087-0.35-0.263-3.681-0.525-7.45c-0.351-4.207-0.176-6.748,0.35-6.748
	c0.438,0,1.052-0.614,1.315-1.227c0.35-0.877,0.087-1.14-0.614-0.877c-0.789,0.263-1.314-0.438-1.577-2.19
	c-0.263-1.49-0.088-2.718,0.35-2.718s0.526-0.438,0.263-0.876C-202.016,368.764-203.593,368.676-203.682,369.553z M-167.836,369.553
	c2.454,0.175,6.661,0.175,9.203,0c2.453-0.175,0.438-0.263-4.645-0.263C-168.362,369.29-170.378,369.378-167.836,369.553z
	 M-237.95,370.429c0.614,0.263,1.403,0.176,1.666-0.087c0.35-0.263-0.176-0.526-1.14-0.439
	C-238.388,369.903-238.651,370.166-237.95,370.429z M-229.185,370.429c0.525,0.176,1.577,0.176,2.19,0
	c0.526-0.263,0.088-0.438-1.139-0.438C-229.361,369.991-229.799,370.166-229.185,370.429z M-196.32,370.429
	c0.351,0.263,0.088,1.14-0.525,1.928c-0.964,1.227-0.877,1.315,0.613,0.088c0.877-0.701,3.681-1.578,6.135-1.84l4.47-0.526
	l-5.61-0.176C-194.304,369.903-196.582,370.079-196.32,370.429z M-183.611,370.429c1.051,0.176,2.804,0.176,3.944,0
	c1.051-0.175,0.175-0.35-2.016-0.35S-184.751,370.254-183.611,370.429z M-220.246,375.162c-1.665,0.876-4.031,1.665-5.17,1.665
	c-1.228,0-1.841,0.35-1.315,0.701c0.438,0.439,4.557,0.526,9.114,0.176c6.924-0.526,7.45-0.614,3.068-0.79l-5.259-0.087l2.191-1.753
	C-214.812,372.884-216.302,372.884-220.246,375.162z M-193.252,377.441c1.578,0.175,3.944,0.175,5.258,0
	c1.315-0.176,0-0.35-2.892-0.35S-194.83,377.265-193.252,377.441z M-160.211,391.463c0,4.733,0.263,8.765,0.614,9.028
	c0.263,0.263,2.454,0.263,4.82,0.087l4.207-0.438l-3.944-0.526l-3.944-0.438v-8.15c0-4.821-0.35-8.064-0.876-8.064
	S-160.211,386.38-160.211,391.463z M-176.161,384.452c0.788,0.175,2.19,0.175,3.067,0c0.788-0.263,0.087-0.438-1.578-0.438
	S-177.038,384.189-176.161,384.452L-176.161,384.452z M-239.791,385.241c-0.35,0.35-0.35,0.876-0.087,1.314
	c0.526,0.877,2.98,0,2.98-1.051c0-0.877-2.103-1.052-2.892-0.263H-239.791z M-222.7,385.328c3.243,0.176,8.764,0.176,12.27,0
	c3.506-0.087,0.876-0.262-5.872-0.262C-223.05,385.066-225.942,385.153-222.7,385.328z M-239.527,394.005
	c0,0.701,0.438,1.052,0.876,0.789c0.526-0.263,0.877-0.877,0.877-1.402c0-0.439-0.351-0.79-0.877-0.79
	C-239.089,392.602-239.527,393.216-239.527,394.005z M-230.851,396.371c-0.175,2.367-0.087,4.47,0.263,4.645
	c0.964,0.614,1.227-0.788,0.701-4.908l-0.525-3.943C-230.412,392.165-230.851,396.371-230.851,396.371z M-225.504,396.021
	c0,2.541-0.439,3.593-1.49,3.856c-0.877,0.263,0.964,0.438,4.119,0.526l5.697,0.088l-0.263-3.944
	c-0.263-2.63-0.79-3.944-1.578-3.944c-0.701,0-1.227,0.35-1.227,0.876c0,0.438,0.438,0.877,0.876,0.877
	c0.526,0,0.877,1.139,0.877,2.629c0,2.191-0.35,2.63-2.191,2.63c-1.928,0-2.191-0.351-2.191-3.507c0-2.541-0.35-3.505-1.315-3.505
	C-225.154,392.603-225.504,393.567-225.504,396.021z M-214.987,393.304c0,0.438,1.227,0.613,2.629,0.35
	c1.49-0.175,2.63-0.525,2.63-0.7c0-0.176-1.14-0.351-2.63-0.351c-1.402,0-2.63,0.35-2.63,0.7L-214.987,393.304z M-184.487,396.547
	l-0.264,3.944h9.64l-0.262-3.944c-0.263-2.98-0.701-3.944-1.84-3.944c-1.14,0-1.403,0.7-1.14,3.505
	c0.35,3.243,0.175,3.506-1.928,3.506c-2.279,0-2.63-0.701-2.279-5.083c0.088-1.052-0.263-1.928-0.7-1.928
	c-0.527,0-1.053,1.753-1.228,3.944H-184.487z M-171.692,395.32c0.263,1.577,0.088,3.33-0.438,3.944
	c-0.789,0.964-0.614,1.227,0.7,1.227c1.403,0,1.578-0.526,1.316-3.156c-0.263-2.103,0-3.418,0.788-3.943
	c0.877-0.526,0.701-0.79-0.876-0.79C-172.042,392.602-172.218,392.866-171.692,395.32z M-243.472,400.49
	c-4.118,0.526-4.03,0.614,2.192,0.702c4.382,0,5.96-0.176,4.82-0.701c-0.964-0.439-1.928-0.702-2.19-0.702
	c-0.264,0.088-2.367,0.351-4.821,0.702L-243.472,400.49z M-212.533,400.228c1.49,0.175,4.119,0.175,5.696,0
	c1.49-0.176,0.263-0.35-2.892-0.35S-214.111,400.052-212.533,400.228z M-190.185,400.228c0.79,0.175,2.191,0.175,3.068,0
	c0.789-0.263,0.088-0.439-1.578-0.439C-190.36,399.789-191.061,399.965-190.185,400.228z M-164.33,400.228
	c0.526,0.175,1.578,0.175,2.191,0c0.526-0.263,0.088-0.439-1.14-0.439C-164.505,399.789-164.944,399.965-164.33,400.228z
	 M-158.72,404.61l-0.176,2.804l-6.749,0.35c-6.135,0.264-5.872,0.264,1.928,0.352c4.82,0,8.064-0.088,7.275-0.351
	c-0.877-0.175-1.578-1.49-1.84-3.155l-0.351-2.805L-158.72,404.61L-158.72,404.61z M-149.87,414.689
	c0.264,0.876,0.089,2.717-0.35,4.207c-0.876,2.541-1.227,2.629-6.31,2.804l-5.434,0.175l5.259,0.263
	c2.892,0.176,5.521,0.877,5.872,1.403c0.526,0.788,0.701,0.7,0.789-0.263c0.263-1.928,0.438-2.805,1.227-5.522
	c0.438-1.665,0.263-2.804-0.439-3.506c-0.876-0.788-1.051-0.7-0.613,0.439H-149.87z M-192.639,415.389
	c-0.262,0.527,0.088,0.614,0.79,0.351c2.103-0.788,1.664,0.614-1.14,3.769c-3.243,3.769-6.836,3.944-7.362,0.438l-0.35-2.366
	l-0.176,2.366c0,1.49-0.613,2.454-1.402,2.454c-1.665,0-7.537-5.258-6.924-6.222c0.263-0.439-3.769-0.702-9.465-0.614l-9.904,0.175
	l8.589,0.263l8.589,0.35l-0.526,2.805c-0.35,1.578-1.052,3.33-1.49,3.857c-0.701,0.876-0.526,1.14,0.526,1.14
	c0.789,0,1.402-0.702,1.402-1.666c0-0.964,0.263-2.279,0.526-3.068c0.438-1.227,0.701-1.227,2.63,0.088
	c1.139,0.701,2.103,1.928,2.103,2.542c0,0.7,0.35,1.227,0.701,1.227c1.578,0,4.382,3.155,4.733,5.258
	c0.263,1.928,0.438,1.84,2.804-1.577c2.454-3.506,2.717-3.681,7.187-3.681c4.908,0,5.17,0.175,4.996,4.995
	c-0.088,0.614,0.175,1.14,0.525,1.14c0.351,0,1.14,1.49,1.753,3.242c0.877,2.367,0.964,3.33,0.176,3.594
	c-0.526,0.175-0.176,0.964,0.964,1.84c2.717,2.191,1.314,3.856-2.717,3.243c-2.454-0.438-2.805-0.35-1.578,0.35
	c1.14,0.79,1.315,1.315,0.614,2.63c-0.877,1.577-0.79,1.577,2.19,0.438c1.666-0.701,3.156-1.315,3.419-1.315
	s2.278,4.996,2.278,5.785c0,0.175-1.84,0.438-4.119,0.613l-4.207,0.263l4.47,0.176c4.12,0.175,4.645,0.35,5.259,2.629
	c0.35,1.314,0.526,2.717,0.438,3.155c-0.088,0.438,0.175,1.052,0.526,1.315c1.14,0.788,2.804,5.083,2.278,5.696
	c-0.35,0.263-3.33,0.614-6.748,0.701c-4.82,0.176-3.944,0.263,3.856,0.614c10.167,0.526,25.855,0.263,25.241-0.35
	c-0.175-0.264-4.82-0.439-10.166-0.526c-10.956-0.176-10.342,0.175-12.796-7.012c-2.191-6.222-2.542-6.047,8.94-6.135
	c5.609,0,11.831-0.35,13.76-0.701l3.505-0.789l-4.12-0.087c-2.979-0.088-4.206-0.439-4.206-1.315c0-2.63,1.14-4.032,3.418-4.12
	c2.016-0.175,2.104-0.175,0.35-0.525c-2.629-0.526-2.716-4.12-0.087-5.872c1.49-1.052,1.665-1.402,0.526-1.402
	c-1.227,0-1.227-0.526-0.526-3.506c0.701-2.63,1.402-3.506,2.805-3.593c1.49-0.088,1.49-0.176,0.35-0.526
	c-0.876-0.176-1.577-1.052-1.577-1.84c0-2.718-1.666,0.788-2.28,4.907c-0.262,2.016-0.876,3.944-1.314,4.207
	c-0.438,0.263-0.789,1.402-0.789,2.542c0,4.47-0.525,4.82-9.114,4.995l-7.976,0.176l7.713,0.262l7.8,0.351l-0.614,2.366
	c-0.35,1.315-0.7,2.542-0.876,2.717c-0.175,0.088-4.47,0.439-9.465,0.701l-9.115,0.526l-0.964-2.804
	c-0.877-2.542-0.79-2.892,0.964-3.594l1.928-0.788h-2.016c-1.052-0.088-2.103-0.614-2.279-1.227c-0.35-1.403-2.103-6.31-4.119-11.57
	c-0.964-2.453-1.577-5.082-1.314-5.959c0.175-0.789,0.087-1.49-0.351-1.49c-0.35,0-1.14-1.753-1.753-3.944
	c-0.876-3.242-1.49-3.944-3.155-3.944C-191.149,414.513-192.376,414.864-192.639,415.389L-192.639,415.389z M-186.942,421.262
	c0,0.701-1.14,1.14-3.067,1.14c-3.594,0-3.857-0.965-1.14-3.506c1.84-1.753,2.016-1.753,3.068-0.351
	C-187.468,419.421-186.941,420.648-186.942,421.262L-186.942,421.262z M-197.634,424.329c-0.526,1.578-2.454,1.84-2.454,0.35
	c0-0.788,0.613-1.401,1.402-1.401S-197.459,423.716-197.634,424.329z M-156.442,415.127c1.051,0.175,2.804,0.175,3.944,0
	c1.051-0.175,0.175-0.35-2.016-0.35C-156.705,414.777-157.582,414.952-156.442,415.127z M-246.89,416.967
	c-0.176,0.351-0.088,1.227,0.263,1.84c0.526,0.79,0.876,0.614,1.227-0.7C-244.962,416.354-246.014,415.565-246.89,416.967z
	 M-241.895,416.88c1.315,0.175,3.418,0.175,4.82,0c1.315-0.176,0.176-0.35-2.453-0.35
	C-242.158,416.53-243.297,416.704-241.895,416.88z M-245.575,422.577c-0.088,1.665,0.35,2.453,1.226,2.453
	c0.702,0,1.315-0.438,1.315-0.876c0-0.526-0.35-0.876-0.789-0.876c-0.438,0-1.051-0.701-1.227-1.578
	c-0.263-0.876-0.438-0.526-0.526,0.877H-245.575z M-182.298,423.015c0.789,0.175,2.016,0.175,2.63,0
	c0.525-0.263-0.088-0.438-1.578-0.438C-182.648,422.577-183.174,422.752-182.298,423.015z M-238.914,423.89
	c2.104,0.175,5.434,0.175,7.45,0c2.103-0.175,0.438-0.35-3.681-0.35C-239.265,423.54-240.93,423.715-238.914,423.89z
	 M-214.9,428.273c-0.087,0.614-0.789,1.14-1.577,1.14c-1.315,0.087-1.403,0.175-0.263,0.788c0.7,0.351,3.505,0.439,6.135,0.088
	l4.82-0.613l-4.12-0.176c-2.278,0-4.206-0.526-4.469-1.227C-214.724,427.397-214.9,427.397-214.9,428.273z M-243.559,430.464
	c-0.263,0.35-0.087,0.701,0.438,0.701c0.439,0,1.052,0.702,1.227,1.49c0.351,1.403,0.439,1.403,0.526,0.088
	c0-0.789,0.964-1.578,2.104-1.753c1.49-0.263,1.314-0.438-0.964-0.789c-1.578-0.263-3.068-0.175-3.33,0.263L-243.559,430.464z
	 M-217.967,436.599c-0.263,0.614-0.614,2.191-0.877,3.418c-0.35,1.578-1.314,2.542-3.33,3.155c-2.63,0.877-2.717,0.965-0.701,1.14
	c3.593,0.175,6.924,0.701,8.94,1.314c2.015,0.614,2.015,0.614,0.262-0.7c-2.016-1.49-1.49-2.367,2.454-3.945l2.805-1.051
	l-2.63,0.526c-1.402,0.262-3.505,0.7-4.557,0.964c-1.577,0.35-2.016,0.087-2.016-1.315c0-1.052,0.439-2.103,0.877-2.366
	c0.526-0.263,0.876-0.877,0.876-1.403C-215.864,435.109-217.617,435.372-217.967,436.599z M-241.28,436.862
	c0,0.263,0.526,1.84,1.227,3.506c1.227,2.804,1.14,2.98-0.614,3.33l-1.928,0.35l1.928,0.176c1.227,0.088,2.191,0.964,2.805,2.805
	c0.526,1.577,0.964,2.98,0.964,3.067c0,0.176-1.315,0.438-2.805,0.438l-2.892,0.088l3.068,0.614c1.665,0.35,5.434,0.35,8.326,0
	l5.258-0.526l-4.908-0.176c-4.732-0.087-4.908-0.175-5.784-3.155l-0.965-2.979l4.995-0.35l4.908-0.263l-4.995-0.175
	c-5.434-0.176-7.537-1.928-6.398-5.434c0.35-1.227,0.175-1.753-0.789-1.753c-0.789,0-1.402,0.175-1.402,0.438L-241.28,436.862z
	 M-203.419,437.212c-0.964,0.614-0.876,0.877,0.263,1.315c0.79,0.263,1.84,0.351,2.279,0c0.438-0.263,0.789,0.526,0.789,1.753
	c0,1.665-0.526,2.279-2.367,2.542l-2.454,0.35l2.454,0.176c2.104,0.087,2.367,0.438,2.367,3.243c0,3.33-0.526,3.505-5.872,1.49
	c-1.402-0.526-1.402-0.439-0.263,0.7c2.19,2.192,6.31,3.243,9.465,2.367c3.068-0.789,2.98-2.717-0.087-2.279
	c-1.753,0.263-1.929-0.175-2.104-5.258l-0.175-5.522l2.542,0.526c2.716,0.614,3.68-0.701,1.227-1.665
	C-197.371,436.161-202.104,436.336-203.419,437.212L-203.419,437.212z M-178.353,437.038c0.526,0.175,1.578,0.175,2.191,0
	c0.526-0.263,0.088-0.439-1.14-0.439c-1.226,0-1.664,0.176-1.05,0.439H-178.353z M-168.713,437.038c2.017,0.175,5.347,0.175,7.45,0
	c2.016-0.176,0.351-0.351-3.768-0.351c-4.12,0-5.785,0.175-3.681,0.35L-168.713,437.038z M-192.2,439.93
	c0.7,0.438,1.928,0.788,2.629,0.788c0.876,0,0.701-0.262-0.438-0.788C-192.376,438.878-193.778,438.878-192.2,439.93z
	 M-195.005,443.172c0.614,0.263,1.402,0.176,1.665-0.087c0.35-0.263-0.175-0.526-1.14-0.438
	C-195.443,442.647-195.706,442.91-195.005,443.172z M-191.061,443.172c0.789,0.176,2.016,0.176,2.63,0
	c0.525-0.262-0.088-0.438-1.578-0.438C-191.412,442.734-191.937,442.91-191.061,443.172z M-149.431,443.172
	c0.526,0.176,1.578,0.176,2.191,0c0.526-0.262,0.088-0.438-1.14-0.438c-1.226,0-1.664,0.176-1.05,0.438H-149.431z M-221.823,448.256
	c-0.526,1.227-1.753,2.19-2.542,2.278c-1.402,0-1.315,0.176,0.175,0.79c2.104,0.788,2.63,0.35,3.418-2.893
	C-220.071,445.451-220.509,445.364-221.823,448.256z M-210.605,446.941c0.7,0.438,1.753,0.877,2.19,0.877
	c0.527,0,0.264-0.439-0.437-0.877c-0.702-0.438-1.666-0.876-2.191-0.876C-211.482,446.065-211.306,446.503-210.605,446.941z
	 M-167.222,455.705c-4.645,0.526-4.12,0.614,4.119,0.701c5.434,0.088,9.553-0.175,9.904-0.7c0.613-0.965-5.347-0.965-14.023,0
	V455.705z M-182.297,456.319c-0.613,0.175-1.14,0.876-1.14,1.402c0,0.614-1.226,1.84-2.628,2.805
	c-1.403,0.964-2.63,2.015-2.63,2.366c0,0.438-0.788,0.701-1.753,0.701c-0.964,0-1.752,0.438-1.752,1.052
	c0,1.402-4.295,5.083-5.872,5.083c-1.666,0-1.403-3.243,0.438-4.294c1.402-0.877,1.402-0.877,0-0.964
	c-2.542,0-2.805,0.35-2.542,3.242c0.088,1.578-0.175,2.893-0.613,2.893c-1.49,0-12.183-9.816-13.848-12.796
	c-0.613-0.877-1.314-1.403-1.665-1.052c-0.35,0.35,0.613,1.928,2.103,3.506c1.49,1.577,2.717,3.155,2.717,3.418
	s1.753,1.753,3.944,3.33c2.191,1.578,3.944,3.33,3.944,4.032c0,0.613,0.789,1.402,1.665,1.753c2.279,0.7,6.223-0.351,6.223-1.666
	c0-1.051,2.016-2.98,5.61-5.346c2.102-1.402,10.166-9.115,10.166-9.728C-179.93,455.618-180.982,455.706-182.297,456.319z
	 M-227.257,457.546c-2.63,0.438-2.717,0.613-0.701,0.701c1.227,0,2.454,0.438,2.629,0.876c0.175,0.439,0.789,0.263,1.314-0.35
	C-222.525,457.195-223.489,456.757-227.257,457.546z M-202.017,457.196c2.016,0.175,5.172,0.175,7.012,0
	c1.753-0.176,0.088-0.351-3.769-0.351c-3.856,0-5.346,0.175-3.242,0.35L-202.017,457.196z M-189.308,457.196
	c0.789,0.175,2.016,0.175,2.63,0c0.525-0.264-0.089-0.439-1.578-0.439C-189.659,456.757-190.185,456.932-189.308,457.196
	L-189.308,457.196z M-227.258,463.33c0,0.614-1.752,1.14-4.119,1.403c-2.716,0.175-1.928,0.35,2.367,0.35
	c3.593,0,5.784-0.175,4.82-0.35c-0.964-0.263-2.016-0.877-2.366-1.49C-227.082,462.541-227.257,462.541-227.258,463.33
	L-227.258,463.33z M-219.983,465.083c1.315,0.175,3.243,0.175,4.382,0c1.052-0.175,0-0.35-2.454-0.35
	C-220.421,464.733-221.385,464.908-219.983,465.083z M-178.791,470.517c-22.787,0.876-17.616,2.016,7.362,1.665
	c12.62-0.088,22.7-0.526,22.349-0.789C-150.132,470.342-164.067,469.991-178.791,470.517z M-238.388,472.094
	c0.789,0.176,2.016,0.176,2.63,0c0.525-0.262-0.088-0.438-1.578-0.438C-238.738,471.656-239.264,471.832-238.388,472.094z
	 M-233.129,472.094c0.788,0.176,2.19,0.176,3.067,0c0.789-0.262,0.088-0.438-1.577-0.438
	C-233.305,471.656-234.006,471.832-233.129,472.094z M-224.803,472.094c2.015,0.176,5.17,0.176,7.011,0
	c1.753-0.175,0.088-0.35-3.769-0.35C-225.417,471.744-226.907,471.919-224.803,472.094z M-205.785,472.357
	c0.263,0.439,0.701,0.877,0.964,0.877c0.175,0,0.35-0.438,0.35-0.877c0-0.525-0.438-0.876-0.963-0.876
	c-0.439,0-0.614,0.35-0.35,0.876H-205.785z"/>
</svg>
