<?xml version="1.0" encoding="iso-8859-1"?>
<!-- Generator: Adobe Illustrator 19.0.0, SVG Export Plug-In . SVG Version: 6.00 Build 0)  -->
<svg version="1.2" baseProfile="tiny" id="Layer_1" xmlns="http://www.w3.org/2000/svg" xmlns:xlink="http://www.w3.org/1999/xlink"
	 x="0px" y="0px" viewBox="-247 358.89 100 125" xml:space="preserve">
<title>face_00013</title>
<path d="M-206.913,359.43c-4.874,0.541-13.448,2.166-16.697,3.249c-7.762,2.527-16.336,10.018-20.036,17.328
	c-3.881,7.763-4.424,30.054-1.174,46.029c0.812,3.971,1.624,8.123,1.895,9.296c1.355,6.589,4.875,13.628,12.455,24.549
	c5.234,7.581,6.769,11.552,6.859,17.69v4.602l15.072,0.542c8.213,0.36,18.321,0.631,22.383,0.631h7.31l1.264-5.685
	c0.722-3.069,1.263-6.047,1.173-6.68c0-0.63,0.27-0.992,0.632-0.902c0.902,0.271,12.635-10.92,16.336-15.613
	c3.88-5.055,6.317-9.567,9.386-17.6c2.256-5.866,2.527-7.671,2.888-23.465c0.722-26.354-0.993-33.845-9.747-42.78
	c-5.867-6.047-10.65-8.574-18.863-10.38C-181.913,358.979-198.34,358.528-206.913,359.43z M-201.137,384.7
	c1.895,0.271,1.895,0.18,0.541-1.173c-0.812-0.812-1.263-1.625-0.992-1.895c0.18-0.271,1.173,0.36,2.166,1.353
	c0.992,0.993,1.624,1.986,1.444,2.257c-0.271,0.18,0.18,0.632,0.902,0.902c0.903,0.361,1.174,0.09,0.903-0.631
	c-0.542-1.535,2.527-2.437,4.422-1.354c0.722,0.451,2.437,0.902,3.7,0.993c1.264,0.09,2.076,0.36,1.896,0.541
	c-0.18,0.27,0.541,1.173,1.624,2.166c1.535,1.354,1.625,1.625,0.452,1.264c-0.903-0.271-1.625-0.09-1.625,0.36
	c0,0.903,1.264,1.264,3.43,0.993c0.541-0.09,1.083,0.181,1.083,0.722c0,0.452,0.541,1.445,1.263,2.076
	c1.805,1.896,4.513,7.31,4.332,8.574c-0.18,0.632,0.09,1.174,0.542,1.174c0.451,0,0.812,0.541,0.902,1.083
	c0,0.631,0.271,2.527,0.542,4.061c0.27,1.895,0,3.43-0.812,4.242c-0.722,0.632-1.083,1.354-0.903,1.534
	c0.812,0.903,1.264,7.13,0.451,7.581c-0.541,0.271-0.631-0.09-0.36-0.812c0.27-0.812,0.18-1.444-0.362-1.444
	c-0.992,0-0.992,1.625,0.09,3.34c0.452,0.631,0.362,1.173-0.18,1.173c-0.451,0-0.722,0.812-0.541,1.805
	c0.18,0.993,0,1.624-0.542,1.354c-1.173-0.813-3.34,1.534-2.798,3.068c0.271,0.812,0,1.083-0.812,0.812
	c-4.603-1.714-4.964-1.624-5.144,0.813c-0.09,1.263-0.722,2.978-1.354,3.79c-0.993,1.264-0.903,1.264,0.541,0.18
	c0.813-0.631,1.535-1.985,1.535-2.978c0-1.263,0.45-1.624,1.444-1.263c0.812,0.27,2.076,0.541,2.888,0.632
	c0.993,0,1.083,0.18,0.451,0.541c-0.632,0.18-1.173,1.083-1.173,1.896c-0.09,1.353-0.18,1.353-1.264-0.09
	c-1.173-1.445-1.263-1.445-1.805,0.54c-0.541,2.167-3.159,3.701-6.137,3.43c-0.812-0.09-1.805,0.361-2.166,0.903
	c-0.451,0.812-0.18,0.902,0.902,0.541c0.993-0.36,1.354-0.27,0.993,0.361c-0.36,0.542-1.173,0.722-1.805,0.452
	c-0.722-0.271-1.444,0-1.715,0.631c-0.27,0.632-0.27,0-0.09-1.353c0.361-2.979-0.902-3.971-2.978-2.437
	c-1.264,0.993-1.354,0.993-0.361-0.09c2.617-2.979,0.09-9.928-3.7-9.928c-2.889,0-6.318,5.325-5.506,8.574
	c0.361,1.354,1.354,2.707,2.256,2.888c2.076,0.541,2.166,1.173,0.361,3.52c-1.083,1.444-1.263,1.534-1.353,0.18
	c0-0.812,0.541-1.715,1.173-1.985c0.541-0.361,0.18-0.361-0.993-0.18c-1.083,0.18-1.805,0-1.534-0.452
	c0.993-1.534-1.264-4.242-3.16-3.79c-1.443,0.36-1.714,0.18-1.263-0.993c0.361-0.993,0-1.444-1.083-1.535
	c-0.992,0-1.263-0.27-0.631-0.451c1.263-0.542-1.264-3.971-2.979-3.971c-0.541,0-0.902-0.903-0.812-2.076
	c0.09-1.083-0.27-2.798-0.722-3.79c-1.444-2.618-1.444-11.282,0-11.282c0.632,0,2.798-0.632,4.783-1.444
	c4.513-1.805,5.415-4.423,3.16-9.386c-1.625-3.52-5.326-5.506-7.672-4.062c-0.632,0.361-0.542-0.09,0.09-1.173
	c0.632-1.083,1.534-1.625,2.076-1.354c0.451,0.361,0.632-0.09,0.27-0.993c-0.45-1.173,0.452-2.617,3.07-5.144
	c1.985-1.895,3.429-3.52,3.068-3.52c-0.361,0,0.27-0.722,1.444-1.715c1.895-1.534,2.256-1.534,3.159-0.27
	C-203.574,383.708-202.22,384.52-201.137,384.7L-201.137,384.7z M-182.997,385.332c0,0.27-0.36,0.722-0.902,0.993
	c-0.451,0.27-0.902,0.09-0.902-0.361c0-0.542,0.45-0.993,0.902-0.993C-183.357,384.971-182.996,385.151-182.997,385.332
	L-182.997,385.332z M-208.267,442.282c1.263,1.714,1.263,1.714-0.18,0.541c-0.903-0.632-1.625-1.625-1.625-2.166
	c0-0.542,0.09-0.722,0.27-0.542C-209.712,440.296-208.989,441.289-208.267,442.282z M-204.025,445.531
	c-0.812,0.541-1.264,1.353-0.993,1.895c0.361,0.632,0.18,0.722-0.451,0.36c-1.264-0.811,0.27-3.248,2.076-3.248
	C-202.852,444.538-203.123,444.989-204.025,445.531z M-199.242,470.351c0,0.27-0.541,1.082-1.263,1.804
	c-1.444,1.444-4.603,1.805-3.7,0.361c0.45-0.722-3.43-0.722-7.311,0.09c-0.451,0.09-1.173,0-1.715-0.09
	c-0.451-0.09,1.173-0.722,3.61-1.354c4.784-1.263,10.38-1.714,10.38-0.812L-199.242,470.351z M-189.765,470.711
	c-0.271,0.451-1.805,0.903-3.25,0.903c-1.624,0-2.526-0.361-2.165-0.903c0.27-0.541,1.805-0.902,3.249-0.902
	C-190.307,469.809-189.404,470.169-189.765,470.711z M-180.65,470.621c-0.451,0.722-5.054,0.27-5.054-0.451
	c0-0.18,1.264-0.361,2.798-0.361C-181.462,469.809-180.379,470.169-180.65,470.621z M-214.133,474.141
	c-0.271,0.27-0.993,0-1.625-0.632c-0.812-0.903-0.722-0.993,0.541-0.451C-214.314,473.328-213.863,473.87-214.133,474.141z
	 M-206.372,387.318c0,0.992,0.271,1.263,0.542,0.541c0.27-0.632,0.18-1.444-0.09-1.715
	C-206.191,385.784-206.462,386.324-206.372,387.318z M-200.957,387.408c0.632,1.083,1.354,1.805,1.625,1.534
	c0.27-0.18-0.27-1.083-1.173-1.985C-202.04,385.513-202.13,385.513-200.957,387.408L-200.957,387.408z M-195.09,387.228
	c-0.27,0.721-0.09,1.353,0.36,1.353c0.542,0,0.903-0.632,0.903-1.354c0-0.722-0.18-1.353-0.36-1.353
	c-0.181,0-0.542,0.631-0.903,1.353V387.228z M-212.78,391.288c-0.812,0.542-0.902,0.903-0.27,0.903c0.541,0,1.353-0.451,1.624-0.902
	c0.722-1.083,0.361-1.083-1.354,0V391.288z M-190.397,399.141c-1.444,0.722-2.527,2.076-2.527,2.978c0,2.798,1.985,6.227,3.79,6.86
	c2.798,0.902,7.853-0.452,8.845-2.347C-176.859,400.224-183.357,395.35-190.397,399.141z M-206.101,417.552
	c-0.27,0.542,0,1.535,0.722,2.257c1.173,1.173,1.444,1.173,2.527-0.09c1.083-1.264,0.993-1.625-0.09-2.347
	C-204.657,416.289-205.289,416.379-206.101,417.552z M-201.047,418.184c0,1.083,2.076,2.888,3.34,2.888
	c0.631,0,1.173-0.812,1.173-1.805c0-1.354-0.632-1.805-2.257-1.805C-200.054,417.462-201.047,417.823-201.047,418.184z"/>
</svg>
