<?xml version="1.0" encoding="iso-8859-1"?>
<!-- Generator: Adobe Illustrator 19.0.0, SVG Export Plug-In . SVG Version: 6.00 Build 0)  -->
<svg version="1.2" baseProfile="tiny" id="Layer_1" xmlns="http://www.w3.org/2000/svg" xmlns:xlink="http://www.w3.org/1999/xlink"
	 x="0px" y="0px" viewBox="-247 377.89 100 86" xml:space="preserve">
<title>face_00049</title>
<path d="M-216.822,378.53c-1.788,0.325-4.309,1.056-5.69,1.626c-1.301,0.569-5.692,1.3-9.757,1.544
	c-5.69,0.325-7.317,0.65-7.317,1.626c0,0.65,1.22,1.464,2.683,1.951c1.382,0.407,2.602,1.057,2.602,1.464
	c0,0.732-5.285,7.723-6.586,8.78c-0.325,0.244-1.463,2.44-2.601,4.878c-2.927,6.181-3.984,11.789-3.172,16.261
	c0.406,2.033,0.65,4.635,0.57,5.692c-0.326,3.17,2.682,14.471,5.04,19.024c2.439,4.797,7.642,11.22,10.244,12.602
	c1.057,0.569,3.09,3.008,4.552,5.447c1.383,2.439,2.927,4.39,3.253,4.39c0.325,0,1.3-0.732,2.113-1.626
	c1.87-2.032,3.008-2.032,4.878,0c1.139,1.22,2.358,1.626,4.39,1.463c2.602-0.243,2.927-0.487,2.765-2.439
	c-0.081-1.22-2.277-6.422-4.878-11.626c-4.39-8.78-4.634-9.512-3.252-10.325c1.463-0.813,1.463-0.894-0.082-2.52
	c-1.626-1.87-3.414-4.878-3.414-5.935c0-0.325,1.057,0.406,2.358,1.626c1.3,1.3,2.764,2.032,3.17,1.789
	c1.22-0.732,1.952-4.635,1.057-5.691c-2.683-3.253-1.463-15.61,2.114-20.895c1.057-1.626,3.415-3.577,5.203-4.39
	c2.195-1.057,3.334-2.114,3.659-3.577c0.244-1.138,0.732-2.846,1.138-3.821c0.732-1.952,0.244-13.415-0.732-14.39
	C-204.057,379.911-213.65,377.96-216.822,378.53z M-239.83,404.464c-0.406,2.765-2.114,4.635-3.008,3.253
	c-0.732-1.22,1.138-5.692,2.358-5.692c0.65,0,0.894,0.895,0.65,2.44V404.464z M-217.553,417.96c-0.244,0.732-0.488,2.52-0.488,4.065
	c0,1.708-0.325,2.683-0.813,2.358c-1.626-0.975-0.732-7.723,0.975-7.723C-217.391,416.66-217.309,417.229-217.553,417.96z
	 M-238.123,437.147c0.895,2.196,1.464,4.147,1.139,4.39c-0.732,0.732-3.659-5.528-4.147-9.024c-0.569-3.577-0.65-3.74,3.009,4.634
	H-238.123z M-184.707,379.75c-2.439,0.65-5.122,1.951-5.853,2.846c-0.732,0.813-2.52,2.113-3.984,2.682
	c-2.358,0.976-2.683,1.545-2.846,4.635c-0.081,1.87,0.082,4.227,0.488,5.203c0.488,1.382,0.244,2.195-1.057,3.333
	c-1.788,1.545-1.707,1.545,7.155,2.033c4.959,0.244,9.756,0.894,10.813,1.382c2.926,1.626,7.886,8.536,10.406,14.553
	c2.114,5.122,2.358,6.341,2.44,16.91c0.08,12.114-1.058,17.155-4.554,19.919c-2.276,1.87-2.439,4.39-0.162,4.715
	c0.975,0.163,1.788,0.732,1.788,1.383c0,5.203,11.22-6.911,16.098-17.48c6.423-14.065,8.049-22.44,6.26-32.683
	c-1.707-10.163-8.13-18.7-19.187-25.854c-4.798-3.091-9.513-4.961-12.115-4.797c-0.65,0-3.252,0.569-5.69,1.219V379.75z
	 M-186.577,421.213c-1.138,1.139-0.569,2.846,0.895,2.602c0.731-0.163,1.382-0.813,1.382-1.382
	C-184.3,421.133-185.764,420.4-186.577,421.213z M-201.373,423.978c-0.65,1.138,0.243,2.439,1.707,2.439
	c0.65,0,1.138-0.732,1.138-1.626C-198.528,423.083-200.479,422.514-201.373,423.978z M-192.023,438.205
	c0,1.382,0.162,1.464,1.95,0.732c1.87-0.732,1.626-1.951-0.325-1.951C-191.292,436.986-192.024,437.555-192.023,438.205
	L-192.023,438.205z M-191.211,446.661c-4.146,0.731-3.821,2.845,0.57,3.17c2.682,0.163,3.576-0.081,4.227-1.3
	c0.65-1.301,0.569-1.708-0.407-2.114c-0.731-0.244-1.3-0.407-1.382-0.407c-0.081,0.081-1.463,0.325-3.008,0.65V446.661z"/>
</svg>
