<?xml version="1.0" encoding="iso-8859-1"?>
<!-- Generator: Adobe Illustrator 19.0.0, SVG Export Plug-In . SVG Version: 6.00 Build 0)  -->
<svg version="1.2" baseProfile="tiny" id="Layer_1" xmlns="http://www.w3.org/2000/svg" xmlns:xlink="http://www.w3.org/1999/xlink"
	 x="0px" y="0px" viewBox="-247 363.89 100 114" xml:space="preserve">
<title>face_00021</title>
<path d="M-198.388,366.193c1.207,1.976,1.427,1.976,1.756,0.44c0.988-4.282,26.015,1.097,37.76,8.013l6.916,4.17l-6.586,0.66
	l-6.586,0.658l6.806,0.11c3.732,0.11,7.464,0.549,8.452,0.878c0.988,0.33,1.756,0.22,1.756-0.33
	c0-1.207-15.477-10.427-20.307-12.184c-5.599-2.085-19.979-4.61-25.796-4.61C-199.486,363.998-199.705,364.108-198.388,366.193z
	 M-226.6,370.474c-3.622,1.647-7.574,4.281-8.782,5.599c-1.975,2.415-1.866,2.305,1.757-0.33c2.085-1.536,6.586-4.17,9.879-5.598
	c3.293-1.537,5.488-2.744,4.83-2.744C-219.465,367.291-222.978,368.718-226.6,370.474z M-197.182,375.524
	c0,3.622,0.22,4.94,0.44,2.964c0.219-1.976,0.219-4.94,0-6.587C-196.962,370.255-197.182,371.901-197.182,375.524z M-240.43,380.134
	c-1.427,1.756-1.317,1.866,0.44,0.44c0.987-0.77,1.865-1.647,1.865-1.867C-238.125,377.829-239.003,378.377-240.43,380.134z
	 M-228.794,379.366l-4.391,0.768l3.842,0.11c2.085,0,5.05-0.44,6.586-0.878C-219.244,378.268-222.537,378.268-228.794,379.366z
	 M-216.39,380.134c0.768,0.33,1.756,0.22,2.085-0.11c0.44-0.329-0.22-0.658-1.427-0.548
	C-216.939,379.476-217.269,379.805-216.39,380.134z M-238.125,382c-1.537,0.878-3.073,1.317-3.403,1.098
	c-0.768-0.44-3.732,2.744-3.073,3.183c0.22,0.22,2.964-0.988,5.927-2.744c3.074-1.647,5.05-2.964,4.391-2.964
	C-234.832,380.573-236.588,381.232-238.125,382z M-206.292,385.074l6.806,4.5l-0.549,5.599c-0.33,3.512-0.22,4.83,0.33,3.402
	c0.548-1.317,0.987,3.842,1.097,13.722c0.11,8.781,0.44,16.794,0.878,17.782c0.44,1.098,0.659-6.147,0.44-15.916
	c-0.22-16.795-0.11-17.563,1.536-14.71c2.086,3.842,10.099,28.102,11.306,34.578l0.988,4.72l-6.256,4.39l-6.148,4.392l-0.548-7.465
	l-0.44-7.464l-0.658,8.013l-0.549,8.013l-5.269-4.061c-6.147-4.83-6.147-2.525-0.878-25.467c1.866-8.013,3.403-15.477,3.293-16.465
	c0-0.988-1.976,6.476-4.39,16.685c-3.294,13.94-5.05,19.429-7.136,21.734c-3.183,3.842-3.293,5.489-0.658,7.684
	c3.073,2.635,5.598,3.074,10.757,1.976c3.513-0.768,5.598-0.768,7.245,0.11c3.842,2.085,9.55,1.427,12.623-1.427
	c3.293-3.074,3.074-5.928-1.317-18.99c-1.537-4.83-4.39-13.502-6.257-19.21c-1.866-5.708-4.28-12.294-5.378-14.49
	c-2.745-5.378-2.635-6.037,0.987-8.013l2.964-1.646l-2.854,0.658c-2.634,0.55-2.854,0.33-2.524-2.524
	c0.439-3.074,0.439-3.074-0.66-0.33c-0.658,1.427-1.426,2.854-1.646,3.074s-2.963-1.427-6.037-3.513
	c-3.183-2.195-6.257-3.952-6.806-3.952C-212.658,380.463-210.024,382.549-206.292,385.074L-206.292,385.074z M-181.045,443.58
	c0,4.39-3.183,7.135-8.232,7.135c-6.477,0-6.477-1.537,0.22-6.806c3.512-2.744,6.695-4.72,7.244-4.5
	c0.439,0.22,0.768,2.085,0.768,4.17V443.58z M-204.425,445.117c1.975,1.536,3.622,3.183,3.622,3.512
	c0,1.318-5.818,1.866-8.892,0.769c-3.841-1.318-4.61-3.293-2.524-6.257c1.756-2.525,2.305-2.415,7.793,1.976H-204.425z
	 M-173.58,381.232c0.768,0.33,1.756,0.22,2.085-0.11c0.44-0.33-0.22-0.659-1.427-0.549
	C-174.129,380.573-174.459,380.903-173.58,381.232z M-181.045,382.659c-1.427,0.988-1.427,1.098,0,0.988
	c0.878,0,2.635-0.44,3.842-0.988l2.196-0.988h-2.196C-178.41,381.671-180.167,382.11-181.045,382.659z M-162.055,390.233
	c3.842,0.549,6.148,1.646,8.782,4.28c3.403,3.514,3.513,3.623,1.098,4.172c-1.427,0.44-2.305,1.098-1.976,1.537
	c0.33,0.549-0.769,1.866-2.415,3.073c-5.489,3.733-5.598,3.733-5.379-0.11c0.11-2.963,0.659-3.622,3.403-4.17
	c2.195-0.44,0.878-0.769-4.171-0.879c-4.171,0-7.245,0.22-6.916,0.769c0.22,0.439,0.11,2.415-0.22,4.39
	c-0.768,3.403-0.877,3.513-3.183,1.867c-1.427-0.988-2.524-2.306-2.524-2.854c0-0.55,1.097-1.537,2.524-2.086
	c1.757-0.768,1.318-0.878-1.975-0.33c-4.172,0.66-4.281,0.55-2.745-1.317c0.879-1.097,3.623-3.402,5.928-5.159
	c2.305-1.646,3.842-3.073,3.183-3.073c-1.756,0-8.123,5.159-10.867,8.891c-2.964,4.061-3.513,6.367-0.988,4.281
	c1.976-1.647,1.866-1.756,4.83,4.061c2.634,5.27,5.489,7.245,9.77,6.587c2.744-0.44,2.744-0.44-0.55-0.659
	c-2.414-0.11-4.28-1.098-6.256-3.513c-3.513-4.17-3.732-6.147-0.44-3.842c3.733,2.635,10.429,2.196,15.917-0.987
	c2.525-1.537,4.72-2.525,4.72-2.196c0,1.976-2.744,5.16-6.366,7.684c-2.196,1.537-3.403,2.744-2.744,2.744
	c1.975,0,9.22-6.696,10.318-9.55c0.549-1.646,1.537-2.305,2.634-1.866c4.72,1.866-1.756-8.342-7.135-11.086
	c-1.756-0.879-5.05-1.537-7.354-1.537C-167.104,389.575-167.104,389.575-162.055,390.233z M-233.734,391.66
	c-2.086,0.549-4.5,1.646-5.379,2.305c-2.744,2.305-7.793,9.77-7.793,11.636c0,1.536,0.22,1.536,0.988,0.22
	c0.878-1.318,1.427-1.208,3.293,1.097c1.207,1.427,2.195,2.854,2.305,3.183c0,0.33,1.537,1.537,3.293,2.635
	c4.83,2.744,8.781,1.536,14.819-4.94c4.171-4.39,5.378-5.269,6.696-4.171c2.305,1.866,1.866,0.22-0.878-3.732
	c-3.074-4.5-7.575-8.343-9.66-8.343c-1.427,0.11-1.427,0.11,0,0.659c2.085,0.768,7.684,5.927,7.684,7.135
	c0,0.549-1.866,0.768-4.062,0.439l-4.171-0.659l3.513,1.098c2.634,0.878,3.402,1.646,2.854,3.073
	c-1.537,4.391-8.892,10.1-13.063,10.1c-1.866,0-9.88-7.355-9.001-8.233c0.33-0.33,2.415,0.22,4.61,1.097
	c2.305,0.988,5.489,1.647,7.135,1.427c2.525-0.329,2.854-0.878,2.964-4.5l0.11-4.172l-4.5,0.33c-4.172,0.33-4.501,0.549-4.172,3.293
	c0.44,3.403,0,3.622-3.293,1.866c-2.305-1.208-2.305-1.317-0.22-2.964c1.976-1.427,1.867-1.537-1.207-0.878l-3.293,0.768l4.61-4.5
	c2.964-2.744,5.708-4.39,7.465-4.39c1.536,0,2.744-0.55,2.744-1.099c0-0.658-0.11-1.097-0.22-0.988
	C-229.783,390.452-231.648,391.002-233.734,391.66z M-226.27,417.456c0.659,0.22,1.976,0.22,2.745,0
	c0.658-0.33,0.11-0.55-1.427-0.55C-226.489,416.906-227.038,417.126-226.27,417.456z M-231.758,418.553
	c0.768,0.33,1.756,0.22,2.085-0.11c0.44-0.329-0.22-0.658-1.427-0.548C-232.307,417.895-232.636,418.225-231.758,418.553z
	 M-219.684,420.31c1.208,1.646,2.525,5.488,2.964,8.562c0.44,3.073,0.988,5.269,1.317,5.05c1.318-1.428-1.317-11.088-3.732-13.722
	l-2.744-2.964C-221.879,417.236-219.684,420.31-219.684,420.31z M-160.079,422.066c3.842,3.842,4.281,4.83,4.5,10.099
	c0.11,5.05,0.22,5.269,0.55,1.646c0.329-2.415,0.22-5.378-0.11-6.805c-0.878-3.184-5.928-9.22-7.794-9.22
	C-163.701,417.786-162.383,419.651-160.079,422.066z M-174.459,423.054c-7.135,7.135-7.135,17.124-0.11,21.844
	c4.282,2.964,8.782,3.183,13.283,0.878c3.183-1.646,6.257-5.708,5.159-6.805c-0.33-0.22-0.878,0.439-1.207,1.536
	c-1.098,3.513-6.806,6.038-11.526,5.27c-11.855-1.977-12.953-18.003-1.757-24.809c1.757-1.207,2.635-2.085,1.757-2.085
	C-169.629,418.883-172.153,420.749-174.459,423.054z M-239.552,421.188c-5.158,2.964-6.806,14.16-2.964,20.417
	c4.61,7.574,13.173,9.44,20.308,4.61c3.951-2.744,6.696-7.464,5.708-9.989c-0.33-0.768-0.659-0.22-0.659,1.208
	c-0.11,1.427-1.756,4.171-4.061,6.257c-3.184,3.073-4.72,3.732-8.892,3.732c-4.28,0-5.488-0.549-9.22-4.281
	c-3.842-3.732-4.281-4.83-4.281-9.66c0-5.269,1.756-9.22,5.488-12.075c1.976-1.646,1.208-1.756-1.427-0.22V421.188z
	 M-163.482,453.46c-0.878,0.988-3.402,1.647-7.025,1.756c-4.39,0.11-5.05,0.33-2.854,0.988c1.537,0.44,2.525,0.879,2.086,0.988
	c-0.33,0.11-5.818,1.976-12.185,4.391c-11.855,4.281-13.611,4.171-11.855-0.439c1.537-4.171,4.391-5.488,11.636-5.379
	c3.842,0,6.696-0.329,6.366-0.768c-0.878-1.537-13.172-0.33-16.465,1.756c-3.073,1.757-3.622,1.757-6.806,0.11
	c-2.085-1.098-4.72-1.537-7.025-1.207c-7.464,1.207-15.148,3.073-15.148,3.732c0,1.427,4.28,7.464,7.684,10.757
	c3.842,3.732,11.526,6.916,16.685,6.916c1.756,0,6.366-2.086,10.977-5.05c10.647-6.806,26.125-18.222,26.125-19.32
	c0-1.316-0.659-1.097-2.196,0.77L-163.482,453.46z M-174.459,461.803c-6.695,4.83-19.429,13.062-20.307,13.062
	c-0.33,0-0.549-1.866-0.33-4.171l0.33-4.062l10.977-3.951C-170.068,457.631-168.531,457.521-174.459,461.803L-174.459,461.803z
	 M-208.268,464.108l10.538,3.512l0.44,4.172c0.329,3.622,0.11,4.17-1.867,4.17c-3.622-0.109-10.208-2.853-14.27-5.927
	c-3.732-2.854-8.123-9.44-6.366-9.44C-219.244,460.595-214.195,462.132-208.268,464.108z M-199.376,459.717
	c1.866,2.195,2.634,6.367,1.098,6.367c-1.427,0-17.234-5.818-18.332-6.696c-1.098-0.988,10.099-3.074,13.063-2.415
	C-202.34,457.303-200.474,458.51-199.376,459.717L-199.376,459.717z"/>
</svg>
