<?xml version="1.0" encoding="iso-8859-1"?>
<!-- Generator: Adobe Illustrator 19.0.0, SVG Export Plug-In . SVG Version: 6.00 Build 0)  -->
<svg version="1.2" baseProfile="tiny" id="Layer_1" xmlns="http://www.w3.org/2000/svg" xmlns:xlink="http://www.w3.org/1999/xlink"
	 x="0px" y="0px" viewBox="-247 364.89 100 112" xml:space="preserve">
<title>face_00065</title>
<path d="M-181.002,364.996c-0.051,0.051-14.293,0.154-31.578,0.206c-17.338,0.103-32.147,0.31-32.973,0.465l-1.444,0.258
	l0.051,5.675c0.052,3.148,0.207,6.14,0.31,6.708c0.103,0.568,0.206,5.625,0.206,11.25l0.052,10.164l1.187-0.258
	c0.619-0.103,3.457-0.051,6.295,0.207l5.16,0.412l-6.295,0.104l-6.347,0.051v10.32h27.348v-4.85c0-3.56-0.155-4.85-0.62-4.799
	c-3.921,0.103-5.314-0.774-1.6-1.032c0.981-0.052,1.962-0.206,2.065-0.361c0.155-0.155,0.258-1.548,0.206-3.096
	c0-1.548,0.155-2.941,0.413-3.096c0.258-0.155,2.941-0.155,5.934,0.052l5.47,0.31l-0.052,11.145
	c-0.052,12.384,0.413,34.88,0.877,40.712c0.206,2.992,0.103,3.766-0.516,4.024c-0.413,0.155-3.25,0.465-6.347,0.62l-5.572,0.36
	l-0.155,5.264l-0.155,5.315l3.25,0.103c1.807,0,3.82,0.052,4.541,0l1.29-0.103l-1.186,0.516c-0.671,0.31-2.735,0.464-4.541,0.361
	c-4.025-0.103-3.818-0.516-3.664,7.895l0.104,5.882l3.612,0.103c9.597,0.207,43.085,0.258,43.446,0.052
	c0.207-0.155,0.413-3.25,0.413-6.915v-6.604l-6.45-0.258l-6.45-0.31l6.295-0.103c7.38-0.103,6.966,0.206,6.76-6.295l-0.155-3.87
	l-5.16-0.413c-8.204-0.62-7.275,2.425-7.224-24.149c0.052-12.59,0.103-25.283,0.155-28.225l0.103-5.314l4.025,0.154l3.973,0.155
	l0.258,3.354l0.258,3.354l3.87,0.258l3.87,0.31l-3.87,0.206l-3.87,0.258l0.207,5.16c0.103,2.838,0.258,5.263,0.412,5.418
	c0.413,0.465,26.574,0.62,26.987,0.207c0.206-0.258,0.464-11.043,0.568-23.943l0.205-23.477h-16.924
	C-173.314,364.893-180.95,364.944-181.002,364.996z M-224.19,400.083c0,0.258-1.445,0.362-3.2,0.258
	c-5.83-0.258-6.45-0.464-1.548-0.516C-226.358,399.774-224.19,399.877-224.19,400.083z M-161.858,401.115
	c-1.084,0.104-2.838,0.104-3.87,0c-1.084-0.103-0.206-0.206,1.91-0.206C-161.703,400.909-160.826,401.012-161.858,401.115z
	 M-150.248,401.631c-1.187,0.104-3.303,0.104-4.644,0c-1.342-0.103-0.361-0.154,2.167-0.154
	C-150.145,401.477-149.061,401.528-150.248,401.631z M-155.047,406.431c0,0.257-0.103,0.515-0.206,0.515
	c-0.155,0-0.413-0.258-0.568-0.516c-0.155-0.31-0.052-0.516,0.206-0.516c0.31,0,0.568,0.207,0.568,0.516V406.431z M-186.884,449
	c0.052,0.258-0.67,0.567-1.548,0.67c-1.754,0.155-2.373-0.67-0.774-1.083C-187.967,448.226-186.987,448.381-186.884,449z
	 M-200.042,449.62c0.103,0.463-0.361,0.67-1.393,0.67c-1.548,0-2.012-0.465-1.238-1.239
	C-202.106,448.535-200.3,448.897-200.042,449.62L-200.042,449.62z M-207.833,461.435c-0.155,0.155-0.62,0.207-0.98,0.052
	c-0.414-0.155-0.259-0.31,0.309-0.31C-207.937,461.126-207.627,461.281-207.833,461.435L-207.833,461.435z M-203.705,461.435
	c-0.155,0.155-0.62,0.207-0.98,0.052c-0.414-0.155-0.259-0.31,0.309-0.31c0.567-0.051,0.877,0.104,0.67,0.258L-203.705,461.435z
	 M-189.98,462.003c-0.67,0.103-1.703,0.103-2.322,0c-0.67-0.103-0.155-0.206,1.135-0.206S-189.361,461.9-189.98,462.003z
	 M-185.646,461.951c-0.154,0.155-0.619,0.207-0.98,0.052c-0.413-0.155-0.258-0.31,0.31-0.31
	C-185.749,461.642-185.439,461.797-185.646,461.951z"/>
</svg>
